# MagicaVoxel @ Ephtracy

# group
o helm_lgt_1e_du_color

# material
mtllib character-265-helm_lgt_1e_du_color.mtl
usemtl palette

# normals
vn -1 0 0
vn 1 0 0
vn 0 0 1
vn 0 0 -1
vn 0 -1 0
vn 0 1 0

# texcoords
vt 0.494141 0.5
vt 0.744141 0.5

# verts
v -0.5 3.1 0.2
v -0.5 3.1 -0.2
v -0.5 3.2 0.2
v -0.5 3.2 -0.2
v -0.4 3.1 0.3
v -0.4 3.1 0.2
v -0.4 3.1 -0.2
v -0.4 3.1 -0.3
v -0.4 3.2 0.3
v -0.4 3.2 0.2
v -0.4 3.2 -0.2
v -0.4 3.2 -0.3
v -0.3 3.1 0.4
v -0.3 3.1 0.3
v -0.3 3.1 -0.3
v -0.3 3.1 -0.4
v -0.3 3.2 0.4
v -0.3 3.2 0.3
v -0.3 3.2 -0.3
v -0.3 3.2 -0.4
v -0.2 3.1 0.5
v -0.2 3.1 0.4
v -0.2 3.1 -0.4
v -0.2 3.1 -0.5
v -0.2 3.2 0.5
v -0.2 3.2 0.4
v -0.2 3.2 0.2
v -0.2 3.2 -0.2
v -0.2 3.2 -0.4
v -0.2 3.2 -0.5
v -0.2 3.3 0.2
v -0.2 3.3 -0.2
v 0.2 3.1 0.2
v 0.2 3.1 -0.2
v 0.2 3.2 0.2
v 0.2 3.2 -0.2
v -0.2 3.1 0.2
v -0.2 3.1 -0.2
v -0.2 3.2 0.2
v -0.2 3.2 -0.2
v 0.2 3.1 0.5
v 0.2 3.1 0.4
v 0.2 3.1 -0.4
v 0.2 3.1 -0.5
v 0.2 3.2 0.5
v 0.2 3.2 0.4
v 0.2 3.2 0.2
v 0.2 3.2 -0.2
v 0.2 3.2 -0.4
v 0.2 3.2 -0.5
v 0.2 3.3 0.2
v 0.2 3.3 -0.2
v 0.3 3.1 0.4
v 0.3 3.1 0.3
v 0.3 3.1 -0.3
v 0.3 3.1 -0.4
v 0.3 3.2 0.4
v 0.3 3.2 0.3
v 0.3 3.2 -0.3
v 0.3 3.2 -0.4
v 0.4 3.1 0.3
v 0.4 3.1 0.2
v 0.4 3.1 -0.2
v 0.4 3.1 -0.3
v 0.4 3.2 0.3
v 0.4 3.2 0.2
v 0.4 3.2 -0.2
v 0.4 3.2 -0.3
v 0.5 3.1 0.2
v 0.5 3.1 -0.2
v 0.5 3.2 0.2
v 0.5 3.2 -0.2
v -0.2 3.1 0.5
v -0.2 3.2 0.5
v 0.2 3.1 0.5
v 0.2 3.2 0.5
v -0.3 3.1 0.4
v -0.3 3.2 0.4
v -0.2 3.1 0.4
v -0.2 3.2 0.4
v 0.2 3.1 0.4
v 0.2 3.2 0.4
v 0.3 3.1 0.4
v 0.3 3.2 0.4
v -0.4 3.1 0.3
v -0.4 3.2 0.3
v -0.3 3.1 0.3
v -0.3 3.2 0.3
v 0.3 3.1 0.3
v 0.3 3.2 0.3
v 0.4 3.1 0.3
v 0.4 3.2 0.3
v -0.5 3.1 0.2
v -0.5 3.2 0.2
v -0.4 3.1 0.2
v -0.4 3.2 0.2
v -0.2 3.2 0.2
v -0.2 3.3 0.2
v 0.2 3.2 0.2
v 0.2 3.3 0.2
v 0.4 3.1 0.2
v 0.4 3.2 0.2
v 0.5 3.1 0.2
v 0.5 3.2 0.2
v -0.2 3.1 -0.2
v -0.2 3.2 -0.2
v 0.2 3.1 -0.2
v 0.2 3.2 -0.2
v -0.2 3.1 0.2
v -0.2 3.2 0.2
v 0.2 3.1 0.2
v 0.2 3.2 0.2
v -0.5 3.1 -0.2
v -0.5 3.2 -0.2
v -0.4 3.1 -0.2
v -0.4 3.2 -0.2
v -0.2 3.2 -0.2
v -0.2 3.3 -0.2
v 0.2 3.2 -0.2
v 0.2 3.3 -0.2
v 0.4 3.1 -0.2
v 0.4 3.2 -0.2
v 0.5 3.1 -0.2
v 0.5 3.2 -0.2
v -0.4 3.1 -0.3
v -0.4 3.2 -0.3
v -0.3 3.1 -0.3
v -0.3 3.2 -0.3
v 0.3 3.1 -0.3
v 0.3 3.2 -0.3
v 0.4 3.1 -0.3
v 0.4 3.2 -0.3
v -0.3 3.1 -0.4
v -0.3 3.2 -0.4
v -0.2 3.1 -0.4
v -0.2 3.2 -0.4
v 0.2 3.1 -0.4
v 0.2 3.2 -0.4
v 0.3 3.1 -0.4
v 0.3 3.2 -0.4
v -0.2 3.1 -0.5
v -0.2 3.2 -0.5
v 0.2 3.1 -0.5
v 0.2 3.2 -0.5
v -0.2 3.1 0.5
v 0.2 3.1 0.5
v -0.3 3.1 0.4
v -0.2 3.1 0.4
v 0.2 3.1 0.4
v 0.3 3.1 0.4
v -0.4 3.1 0.3
v -0.3 3.1 0.3
v -0.2 3.1 0.3
v 0.2 3.1 0.3
v 0.3 3.1 0.3
v 0.4 3.1 0.3
v -0.5 3.1 0.2
v -0.4 3.1 0.2
v -0.3 3.1 0.2
v -0.2 3.1 0.2
v 0.2 3.1 0.2
v 0.3 3.1 0.2
v 0.4 3.1 0.2
v 0.5 3.1 0.2
v -0.5 3.1 -0.2
v -0.4 3.1 -0.2
v -0.3 3.1 -0.2
v -0.2 3.1 -0.2
v 0.2 3.1 -0.2
v 0.3 3.1 -0.2
v 0.4 3.1 -0.2
v 0.5 3.1 -0.2
v -0.4 3.1 -0.3
v -0.3 3.1 -0.3
v -0.2 3.1 -0.3
v 0.2 3.1 -0.3
v 0.3 3.1 -0.3
v 0.4 3.1 -0.3
v -0.3 3.1 -0.4
v -0.2 3.1 -0.4
v 0.2 3.1 -0.4
v 0.3 3.1 -0.4
v -0.2 3.1 -0.5
v 0.2 3.1 -0.5
v -0.2 3.2 0.2
v 0.2 3.2 0.2
v -0.2 3.2 -0.2
v 0.2 3.2 -0.2
v -0.2 3.2 0.5
v 0.2 3.2 0.5
v -0.3 3.2 0.4
v -0.2 3.2 0.4
v 0.2 3.2 0.4
v 0.3 3.2 0.4
v -0.4 3.2 0.3
v -0.3 3.2 0.3
v -0.2 3.2 0.3
v 0.2 3.2 0.3
v 0.3 3.2 0.3
v 0.4 3.2 0.3
v -0.5 3.2 0.2
v -0.4 3.2 0.2
v -0.3 3.2 0.2
v -0.2 3.2 0.2
v 0.2 3.2 0.2
v 0.3 3.2 0.2
v 0.4 3.2 0.2
v 0.5 3.2 0.2
v -0.5 3.2 -0.2
v -0.4 3.2 -0.2
v -0.3 3.2 -0.2
v -0.2 3.2 -0.2
v 0.2 3.2 -0.2
v 0.3 3.2 -0.2
v 0.4 3.2 -0.2
v 0.5 3.2 -0.2
v -0.4 3.2 -0.3
v -0.3 3.2 -0.3
v -0.2 3.2 -0.3
v 0.2 3.2 -0.3
v 0.3 3.2 -0.3
v 0.4 3.2 -0.3
v -0.3 3.2 -0.4
v -0.2 3.2 -0.4
v 0.2 3.2 -0.4
v 0.3 3.2 -0.4
v -0.2 3.2 -0.5
v 0.2 3.2 -0.5
v -0.2 3.3 0.2
v 0.2 3.3 0.2
v -0.2 3.3 -0.2
v 0.2 3.3 -0.2

# faces
f 3/1/1 2/1/1 1/1/1
f 4/1/1 2/1/1 3/1/1
f 9/1/1 6/1/1 5/1/1
f 10/1/1 6/1/1 9/1/1
f 11/1/1 8/1/1 7/1/1
f 12/1/1 8/1/1 11/1/1
f 17/1/1 14/1/1 13/1/1
f 18/1/1 14/1/1 17/1/1
f 19/1/1 16/1/1 15/1/1
f 20/1/1 16/1/1 19/1/1
f 25/1/1 22/1/1 21/1/1
f 26/1/1 22/1/1 25/1/1
f 29/1/1 24/1/1 23/1/1
f 30/1/1 24/1/1 29/1/1
f 31/2/1 28/2/1 27/2/1
f 32/2/1 28/2/1 31/2/1
f 35/2/1 34/2/1 33/2/1
f 36/2/1 34/2/1 35/2/1
f 37/2/2 38/2/2 39/2/2
f 39/2/2 38/2/2 40/2/2
f 41/1/2 42/1/2 45/1/2
f 45/1/2 42/1/2 46/1/2
f 43/1/2 44/1/2 49/1/2
f 49/1/2 44/1/2 50/1/2
f 47/2/2 48/2/2 51/2/2
f 51/2/2 48/2/2 52/2/2
f 53/1/2 54/1/2 57/1/2
f 57/1/2 54/1/2 58/1/2
f 55/1/2 56/1/2 59/1/2
f 59/1/2 56/1/2 60/1/2
f 61/1/2 62/1/2 65/1/2
f 65/1/2 62/1/2 66/1/2
f 63/1/2 64/1/2 67/1/2
f 67/1/2 64/1/2 68/1/2
f 69/1/2 70/1/2 71/1/2
f 71/1/2 70/1/2 72/1/2
f 75/1/3 74/1/3 73/1/3
f 76/1/3 74/1/3 75/1/3
f 79/1/3 78/1/3 77/1/3
f 80/1/3 78/1/3 79/1/3
f 83/1/3 82/1/3 81/1/3
f 84/1/3 82/1/3 83/1/3
f 87/1/3 86/1/3 85/1/3
f 88/1/3 86/1/3 87/1/3
f 91/1/3 90/1/3 89/1/3
f 92/1/3 90/1/3 91/1/3
f 95/1/3 94/1/3 93/1/3
f 96/1/3 94/1/3 95/1/3
f 99/2/3 98/2/3 97/2/3
f 100/2/3 98/2/3 99/2/3
f 103/1/3 102/1/3 101/1/3
f 104/1/3 102/1/3 103/1/3
f 107/2/3 106/2/3 105/2/3
f 108/2/3 106/2/3 107/2/3
f 109/2/4 110/2/4 111/2/4
f 111/2/4 110/2/4 112/2/4
f 113/1/4 114/1/4 115/1/4
f 115/1/4 114/1/4 116/1/4
f 117/2/4 118/2/4 119/2/4
f 119/2/4 118/2/4 120/2/4
f 121/1/4 122/1/4 123/1/4
f 123/1/4 122/1/4 124/1/4
f 125/1/4 126/1/4 127/1/4
f 127/1/4 126/1/4 128/1/4
f 129/1/4 130/1/4 131/1/4
f 131/1/4 130/1/4 132/1/4
f 133/1/4 134/1/4 135/1/4
f 135/1/4 134/1/4 136/1/4
f 137/1/4 138/1/4 139/1/4
f 139/1/4 138/1/4 140/1/4
f 141/1/4 142/1/4 143/1/4
f 143/1/4 142/1/4 144/1/4
f 148/1/5 146/1/5 145/1/5
f 149/1/5 146/1/5 148/1/5
f 152/1/5 148/1/5 147/1/5
f 153/2/5 149/2/5 148/2/5
f 153/1/5 148/1/5 152/1/5
f 154/1/5 150/1/5 149/1/5
f 154/2/5 149/2/5 153/2/5
f 155/1/5 150/1/5 154/1/5
f 158/1/5 152/1/5 151/1/5
f 159/2/5 153/2/5 152/2/5
f 159/2/5 154/2/5 153/2/5
f 159/1/5 152/1/5 158/1/5
f 159/2/5 155/2/5 154/2/5
f 160/2/5 155/2/5 159/2/5
f 161/2/5 155/2/5 160/2/5
f 162/1/5 156/1/5 155/1/5
f 162/2/5 155/2/5 161/2/5
f 163/1/5 156/1/5 162/1/5
f 165/1/5 158/1/5 157/1/5
f 166/2/5 159/2/5 158/2/5
f 166/1/5 158/1/5 165/1/5
f 166/2/5 160/2/5 159/2/5
f 167/2/5 160/2/5 166/2/5
f 168/2/5 160/2/5 167/2/5
f 169/2/5 163/2/5 162/2/5
f 169/2/5 162/2/5 161/2/5
f 170/2/5 163/2/5 169/2/5
f 171/1/5 164/1/5 163/1/5
f 171/2/5 163/2/5 170/2/5
f 172/1/5 164/1/5 171/1/5
f 173/1/5 167/1/5 166/1/5
f 174/2/5 170/2/5 169/2/5
f 174/1/5 167/1/5 173/1/5
f 174/2/5 168/2/5 167/2/5
f 174/2/5 169/2/5 168/2/5
f 175/2/5 170/2/5 174/2/5
f 176/2/5 170/2/5 175/2/5
f 177/1/5 171/1/5 170/1/5
f 177/2/5 170/2/5 176/2/5
f 178/1/5 171/1/5 177/1/5
f 179/1/5 175/1/5 174/1/5
f 180/2/5 176/2/5 175/2/5
f 180/1/5 175/1/5 179/1/5
f 181/1/5 177/1/5 176/1/5
f 181/2/5 176/2/5 180/2/5
f 182/1/5 177/1/5 181/1/5
f 183/1/5 181/1/5 180/1/5
f 184/1/5 181/1/5 183/1/5
f 187/2/5 186/2/5 185/2/5
f 188/2/5 186/2/5 187/2/5
f 189/1/6 190/1/6 192/1/6
f 192/1/6 190/1/6 193/1/6
f 191/1/6 192/1/6 196/1/6
f 192/2/6 193/2/6 197/2/6
f 196/1/6 192/1/6 197/1/6
f 193/1/6 194/1/6 198/1/6
f 197/2/6 193/2/6 198/2/6
f 198/1/6 194/1/6 199/1/6
f 195/1/6 196/1/6 202/1/6
f 196/2/6 197/2/6 203/2/6
f 197/2/6 198/2/6 203/2/6
f 202/1/6 196/1/6 203/1/6
f 198/2/6 199/2/6 203/2/6
f 203/2/6 199/2/6 204/2/6
f 204/2/6 199/2/6 205/2/6
f 199/1/6 200/1/6 206/1/6
f 205/2/6 199/2/6 206/2/6
f 206/1/6 200/1/6 207/1/6
f 201/1/6 202/1/6 209/1/6
f 202/2/6 203/2/6 210/2/6
f 209/1/6 202/1/6 210/1/6
f 203/2/6 204/2/6 210/2/6
f 210/2/6 204/2/6 211/2/6
f 211/2/6 204/2/6 212/2/6
f 206/2/6 207/2/6 213/2/6
f 205/2/6 206/2/6 213/2/6
f 213/2/6 207/2/6 214/2/6
f 207/1/6 208/1/6 215/1/6
f 214/2/6 207/2/6 215/2/6
f 215/1/6 208/1/6 216/1/6
f 210/1/6 211/1/6 217/1/6
f 213/2/6 214/2/6 218/2/6
f 217/1/6 211/1/6 218/1/6
f 211/2/6 212/2/6 218/2/6
f 212/2/6 213/2/6 218/2/6
f 218/2/6 214/2/6 219/2/6
f 219/2/6 214/2/6 220/2/6
f 214/1/6 215/1/6 221/1/6
f 220/2/6 214/2/6 221/2/6
f 221/1/6 215/1/6 222/1/6
f 218/1/6 219/1/6 223/1/6
f 219/2/6 220/2/6 224/2/6
f 223/1/6 219/1/6 224/1/6
f 220/1/6 221/1/6 225/1/6
f 224/2/6 220/2/6 225/2/6
f 225/1/6 221/1/6 226/1/6
f 224/1/6 225/1/6 227/1/6
f 227/1/6 225/1/6 228/1/6
f 229/2/6 230/2/6 231/2/6
f 231/2/6 230/2/6 232/2/6
