# MagicaVoxel @ Ephtracy

# group
o helm_med_1c_du

# material
mtllib character-252-helm_med_1c_du.mtl
usemtl palette

# normals
vn -1 0 0
vn 1 0 0
vn 0 0 1
vn 0 0 -1
vn 0 -1 0
vn 0 1 0

# texcoords
vt 0.482422 0.5
vt 0.744141 0.5
vt 0.962891 0.5

# verts
v -0.3 2.5 0.2
v -0.3 2.5 -0.2
v -0.3 2.8 0.3
v -0.3 2.8 0.2
v -0.3 3 0.3
v -0.3 3 0.2
v -0.3 3 -0.2
v -0.3 3.2 0.3
v -0.3 3.2 -0.2
v -0.2 2.5 0.3
v -0.2 2.5 0.2
v -0.2 2.5 -0.2
v -0.2 2.5 -0.3
v -0.2 2.7 0.3
v -0.2 2.7 0.2
v -0.2 2.8 0.3
v -0.2 2.8 0.2
v -0.2 3 0.4
v -0.2 3 0.3
v -0.2 3 -0.2
v -0.2 3 -0.3
v -0.2 3.2 0.4
v -0.2 3.2 0.3
v -0.2 3.2 -0.2
v -0.2 3.2 -0.3
v -0.2 3.3 0.3
v -0.2 3.3 -0.2
v -0.1 2.7 0.4
v -0.1 2.7 0.3
v -0.1 2.8 0.3
v -0.1 3 0.4
v -0.1 3 0.3
v -0.1 3.2 0.4
v -0.1 3.2 0.3
v -0.1 3.2 -0.2
v -0.1 3.2 -0.3
v -0.1 3.3 0.4
v -0.1 3.3 0.3
v -0.1 3.3 -0.2
v -0.1 3.3 -0.3
v -0.1 3.4 0.3
v -0.1 3.4 -0.2
v 0.2 2.5 0.2
v 0.2 2.5 -0.2
v 0.2 2.7 0.2
v 0.2 2.8 0.3
v 0.2 2.8 0.2
v 0.2 3 0.3
v 0.2 3 0.2
v 0.2 3 -0.2
v 0.2 3.1 0.3
v 0.2 3.1 0.2
v 0.2 3.2 0.2
v 0.2 3.2 -0.2
v -0.2 2.5 0.2
v -0.2 2.5 -0.2
v -0.2 2.7 0.2
v -0.2 2.8 0.3
v -0.2 2.8 0.2
v -0.2 3 0.3
v -0.2 3 0.2
v -0.2 3 -0.2
v -0.2 3.1 0.3
v -0.2 3.1 0.2
v -0.2 3.2 0.2
v -0.2 3.2 -0.2
v 0.1 2.7 0.4
v 0.1 2.7 0.3
v 0.1 2.8 0.3
v 0.1 3 0.4
v 0.1 3 0.3
v 0.1 3.2 0.4
v 0.1 3.2 0.3
v 0.1 3.2 -0.2
v 0.1 3.2 -0.3
v 0.1 3.3 0.4
v 0.1 3.3 0.3
v 0.1 3.3 -0.2
v 0.1 3.3 -0.3
v 0.1 3.4 0.3
v 0.1 3.4 -0.2
v 0.2 2.5 0.3
v 0.2 2.5 0.2
v 0.2 2.5 -0.2
v 0.2 2.5 -0.3
v 0.2 2.7 0.3
v 0.2 2.7 0.2
v 0.2 2.8 0.3
v 0.2 2.8 0.2
v 0.2 3 0.4
v 0.2 3 0.3
v 0.2 3 -0.2
v 0.2 3 -0.3
v 0.2 3.2 0.4
v 0.2 3.2 0.3
v 0.2 3.2 -0.2
v 0.2 3.2 -0.3
v 0.2 3.3 0.3
v 0.2 3.3 -0.2
v 0.3 2.5 0.2
v 0.3 2.5 -0.2
v 0.3 2.8 0.3
v 0.3 2.8 0.2
v 0.3 3 0.3
v 0.3 3 0.2
v 0.3 3 -0.2
v 0.3 3.2 0.3
v 0.3 3.2 -0.2
v -0.2 3 0.4
v -0.2 3.2 0.4
v -0.1 2.7 0.4
v -0.1 3 0.4
v -0.1 3.2 0.4
v -0.1 3.3 0.4
v 0.1 2.7 0.4
v 0.1 3 0.4
v 0.1 3.2 0.4
v 0.1 3.3 0.4
v 0.2 3 0.4
v 0.2 3.2 0.4
v -0.3 2.8 0.3
v -0.3 3 0.3
v -0.3 3.2 0.3
v -0.2 2.5 0.3
v -0.2 2.7 0.3
v -0.2 2.8 0.3
v -0.2 3 0.3
v -0.2 3.2 0.3
v -0.2 3.3 0.3
v -0.1 2.7 0.3
v -0.1 2.8 0.3
v -0.1 3.2 0.3
v -0.1 3.3 0.3
v -0.1 3.4 0.3
v 0.1 2.7 0.3
v 0.1 2.8 0.3
v 0.1 3.2 0.3
v 0.1 3.3 0.3
v 0.1 3.4 0.3
v 0.2 2.5 0.3
v 0.2 2.7 0.3
v 0.2 2.8 0.3
v 0.2 3 0.3
v 0.2 3.2 0.3
v 0.2 3.3 0.3
v 0.3 2.8 0.3
v 0.3 3 0.3
v 0.3 3.2 0.3
v -0.3 2.5 0.2
v -0.3 2.8 0.2
v -0.2 2.5 0.2
v -0.2 2.7 0.2
v -0.2 2.8 0.2
v 0.2 2.5 0.2
v 0.2 2.7 0.2
v 0.2 2.8 0.2
v 0.3 2.5 0.2
v 0.3 2.8 0.2
v -0.2 2.5 -0.2
v -0.2 3 -0.2
v -0.2 3.2 -0.2
v 0.2 2.5 -0.2
v 0.2 3 -0.2
v 0.2 3.2 -0.2
v -0.2 3 0.3
v -0.2 3.1 0.3
v -0.1 2.8 0.3
v -0.1 3 0.3
v -0.1 3.1 0.3
v 0.1 2.8 0.3
v 0.1 3 0.3
v 0.1 3.1 0.3
v 0.2 3 0.3
v 0.2 3.1 0.3
v -0.2 2.5 0.2
v -0.2 2.7 0.2
v -0.2 2.8 0.2
v -0.2 3.1 0.2
v -0.2 3.2 0.2
v -0.1 3.1 0.2
v -0.1 3.2 0.2
v 0.1 3.1 0.2
v 0.1 3.2 0.2
v 0.2 2.5 0.2
v 0.2 2.7 0.2
v 0.2 2.8 0.2
v 0.2 3.1 0.2
v 0.2 3.2 0.2
v -0.3 2.5 -0.2
v -0.3 3 -0.2
v -0.3 3.2 -0.2
v -0.2 2.5 -0.2
v -0.2 3 -0.2
v -0.2 3.2 -0.2
v -0.2 3.3 -0.2
v -0.1 3.2 -0.2
v -0.1 3.3 -0.2
v -0.1 3.4 -0.2
v 0.1 3.2 -0.2
v 0.1 3.3 -0.2
v 0.1 3.4 -0.2
v 0.2 2.5 -0.2
v 0.2 3 -0.2
v 0.2 3.2 -0.2
v 0.2 3.3 -0.2
v 0.3 2.5 -0.2
v 0.3 3 -0.2
v 0.3 3.2 -0.2
v -0.2 2.5 -0.3
v -0.2 3 -0.3
v -0.2 3.2 -0.3
v -0.1 3.2 -0.3
v -0.1 3.3 -0.3
v 0.1 3.2 -0.3
v 0.1 3.3 -0.3
v 0.2 2.5 -0.3
v 0.2 3 -0.3
v 0.2 3.2 -0.3
v -0.2 2.5 0.3
v 0.2 2.5 0.3
v -0.3 2.5 0.2
v -0.2 2.5 0.2
v 0.2 2.5 0.2
v 0.3 2.5 0.2
v -0.3 2.5 -0.2
v -0.2 2.5 -0.2
v 0.2 2.5 -0.2
v 0.3 2.5 -0.2
v -0.2 2.5 -0.3
v 0.2 2.5 -0.3
v -0.1 2.7 0.4
v 0.1 2.7 0.4
v -0.1 2.7 0.3
v 0.1 2.7 0.3
v -0.3 2.8 0.3
v -0.2 2.8 0.3
v 0.2 2.8 0.3
v 0.3 2.8 0.3
v -0.3 2.8 0.2
v -0.2 2.8 0.2
v 0.2 2.8 0.2
v 0.3 2.8 0.2
v -0.2 3 0.4
v -0.1 3 0.4
v 0.1 3 0.4
v 0.2 3 0.4
v -0.2 3 0.3
v -0.1 3 0.3
v 0.1 3 0.3
v 0.2 3 0.3
v -0.2 3.1 0.3
v -0.1 3.1 0.3
v 0.1 3.1 0.3
v 0.2 3.1 0.3
v -0.2 3.1 0.2
v -0.1 3.1 0.2
v 0.1 3.1 0.2
v 0.2 3.1 0.2
v -0.2 3.2 0.2
v -0.1 3.2 0.2
v 0.1 3.2 0.2
v 0.2 3.2 0.2
v -0.2 3.2 -0.2
v 0.2 3.2 -0.2
v -0.2 2.8 0.3
v -0.1 2.8 0.3
v 0.1 2.8 0.3
v 0.2 2.8 0.3
v -0.2 2.8 0.2
v 0.2 2.8 0.2
v -0.2 3.2 0.4
v -0.1 3.2 0.4
v 0.1 3.2 0.4
v 0.2 3.2 0.4
v -0.3 3.2 0.3
v -0.2 3.2 0.3
v -0.1 3.2 0.3
v 0.1 3.2 0.3
v 0.2 3.2 0.3
v 0.3 3.2 0.3
v -0.3 3.2 -0.2
v -0.2 3.2 -0.2
v -0.1 3.2 -0.2
v 0.1 3.2 -0.2
v 0.2 3.2 -0.2
v 0.3 3.2 -0.2
v -0.2 3.2 -0.3
v -0.1 3.2 -0.3
v 0.1 3.2 -0.3
v 0.2 3.2 -0.3
v -0.1 3.3 0.4
v 0.1 3.3 0.4
v -0.2 3.3 0.3
v -0.1 3.3 0.3
v 0.1 3.3 0.3
v 0.2 3.3 0.3
v -0.2 3.3 -0.2
v -0.1 3.3 -0.2
v 0.1 3.3 -0.2
v 0.2 3.3 -0.2
v -0.1 3.3 -0.3
v 0.1 3.3 -0.3
v -0.1 3.4 0.3
v 0.1 3.4 0.3
v -0.1 3.4 -0.2
v 0.1 3.4 -0.2

# faces
f 4/2/1 2/2/1 1/2/1
f 5/1/1 4/1/1 3/1/1
f 6/2/1 2/2/1 4/2/1
f 6/1/1 4/1/1 5/1/1
f 7/2/1 2/2/1 6/2/1
f 8/3/1 6/3/1 5/3/1
f 8/3/1 7/3/1 6/3/1
f 9/3/1 7/3/1 8/3/1
f 14/2/1 11/2/1 10/2/1
f 15/2/1 11/2/1 14/2/1
f 16/1/1 15/1/1 14/1/1
f 17/1/1 15/1/1 16/1/1
f 20/2/1 13/2/1 12/2/1
f 21/2/1 13/2/1 20/2/1
f 22/3/1 19/3/1 18/3/1
f 23/3/1 19/3/1 22/3/1
f 24/3/1 21/3/1 20/3/1
f 25/3/1 21/3/1 24/3/1
f 26/3/1 24/3/1 23/3/1
f 27/3/1 24/3/1 26/3/1
f 30/3/1 29/3/1 28/3/1
f 31/3/1 30/3/1 28/3/1
f 32/3/1 30/3/1 31/3/1
f 37/3/1 34/3/1 33/3/1
f 38/3/1 34/3/1 37/3/1
f 39/3/1 36/3/1 35/3/1
f 40/3/1 36/3/1 39/3/1
f 41/3/1 39/3/1 38/3/1
f 42/3/1 39/3/1 41/3/1
f 45/2/1 44/2/1 43/2/1
f 47/2/1 44/2/1 45/2/1
f 48/1/1 47/1/1 46/1/1
f 49/2/1 44/2/1 47/2/1
f 49/1/1 47/1/1 48/1/1
f 50/2/1 44/2/1 49/2/1
f 51/3/1 49/3/1 48/3/1
f 51/3/1 50/3/1 49/3/1
f 52/3/1 50/3/1 51/3/1
f 53/3/1 50/3/1 52/3/1
f 54/3/1 50/3/1 53/3/1
f 55/2/2 56/2/2 57/2/2
f 57/2/2 56/2/2 59/2/2
f 58/1/2 59/1/2 60/1/2
f 59/2/2 56/2/2 61/2/2
f 60/1/2 59/1/2 61/1/2
f 61/2/2 56/2/2 62/2/2
f 60/3/2 61/3/2 63/3/2
f 61/3/2 62/3/2 63/3/2
f 63/3/2 62/3/2 64/3/2
f 64/3/2 62/3/2 65/3/2
f 65/3/2 62/3/2 66/3/2
f 67/3/2 68/3/2 69/3/2
f 67/3/2 69/3/2 70/3/2
f 70/3/2 69/3/2 71/3/2
f 72/3/2 73/3/2 76/3/2
f 76/3/2 73/3/2 77/3/2
f 74/3/2 75/3/2 78/3/2
f 78/3/2 75/3/2 79/3/2
f 77/3/2 78/3/2 80/3/2
f 80/3/2 78/3/2 81/3/2
f 82/2/2 83/2/2 86/2/2
f 86/2/2 83/2/2 87/2/2
f 86/1/2 87/1/2 88/1/2
f 88/1/2 87/1/2 89/1/2
f 84/2/2 85/2/2 92/2/2
f 92/2/2 85/2/2 93/2/2
f 90/3/2 91/3/2 94/3/2
f 94/3/2 91/3/2 95/3/2
f 92/3/2 93/3/2 96/3/2
f 96/3/2 93/3/2 97/3/2
f 95/3/2 96/3/2 98/3/2
f 98/3/2 96/3/2 99/3/2
f 100/2/2 101/2/2 103/2/2
f 102/1/2 103/1/2 104/1/2
f 103/2/2 101/2/2 105/2/2
f 104/1/2 103/1/2 105/1/2
f 105/2/2 101/2/2 106/2/2
f 104/3/2 105/3/2 107/3/2
f 105/3/2 106/3/2 107/3/2
f 107/3/2 106/3/2 108/3/2
f 112/3/3 110/3/3 109/3/3
f 113/3/3 110/3/3 112/3/3
f 115/3/3 112/3/3 111/3/3
f 115/3/3 114/3/3 113/3/3
f 115/3/3 113/3/3 112/3/3
f 116/3/3 114/3/3 115/3/3
f 117/3/3 114/3/3 116/3/3
f 118/3/3 114/3/3 117/3/3
f 119/3/3 117/3/3 116/3/3
f 120/3/3 117/3/3 119/3/3
f 126/1/3 122/1/3 121/1/3
f 127/3/3 123/3/3 122/3/3
f 127/1/3 122/1/3 126/1/3
f 128/3/3 123/3/3 127/3/3
f 130/2/3 125/2/3 124/2/3
f 130/1/3 126/1/3 125/1/3
f 131/1/3 126/1/3 130/1/3
f 132/3/3 129/3/3 128/3/3
f 133/3/3 129/3/3 132/3/3
f 135/2/3 130/2/3 124/2/3
f 138/3/3 134/3/3 133/3/3
f 139/3/3 134/3/3 138/3/3
f 140/2/3 135/2/3 124/2/3
f 141/1/3 136/1/3 135/1/3
f 141/2/3 135/2/3 140/2/3
f 142/1/3 136/1/3 141/1/3
f 144/3/3 138/3/3 137/3/3
f 145/3/3 138/3/3 144/3/3
f 146/1/3 143/1/3 142/1/3
f 147/3/3 144/3/3 143/3/3
f 147/1/3 143/1/3 146/1/3
f 148/3/3 144/3/3 147/3/3
f 151/2/3 150/2/3 149/2/3
f 152/2/3 150/2/3 151/2/3
f 153/2/3 150/2/3 152/2/3
f 157/2/3 155/2/3 154/2/3
f 157/2/3 156/2/3 155/2/3
f 158/2/3 156/2/3 157/2/3
f 162/2/3 160/2/3 159/2/3
f 163/3/3 161/3/3 160/3/3
f 163/2/3 160/2/3 162/2/3
f 164/3/3 161/3/3 163/3/3
f 165/3/4 166/3/4 168/3/4
f 168/3/4 166/3/4 169/3/4
f 167/3/4 168/3/4 170/3/4
f 168/3/4 169/3/4 170/3/4
f 170/3/4 169/3/4 171/3/4
f 171/3/4 169/3/4 172/3/4
f 171/3/4 172/3/4 173/3/4
f 173/3/4 172/3/4 174/3/4
f 178/3/4 179/3/4 180/3/4
f 180/3/4 179/3/4 181/3/4
f 180/2/4 181/2/4 182/2/4
f 182/2/4 181/2/4 183/2/4
f 175/2/4 176/2/4 184/2/4
f 176/1/4 177/1/4 185/1/4
f 184/2/4 176/2/4 185/2/4
f 185/1/4 177/1/4 186/1/4
f 182/3/4 183/3/4 187/3/4
f 187/3/4 183/3/4 188/3/4
f 189/2/4 190/2/4 192/2/4
f 190/3/4 191/3/4 193/3/4
f 192/2/4 190/2/4 193/2/4
f 193/3/4 191/3/4 194/3/4
f 194/3/4 195/3/4 196/3/4
f 196/3/4 195/3/4 197/3/4
f 197/3/4 198/3/4 200/3/4
f 200/3/4 198/3/4 201/3/4
f 199/3/4 200/3/4 204/3/4
f 204/3/4 200/3/4 205/3/4
f 202/2/4 203/2/4 206/2/4
f 203/3/4 204/3/4 207/3/4
f 206/2/4 203/2/4 207/2/4
f 207/3/4 204/3/4 208/3/4
f 210/3/4 211/3/4 212/3/4
f 210/3/4 212/3/4 214/3/4
f 212/3/4 213/3/4 214/3/4
f 214/3/4 213/3/4 215/3/4
f 209/2/4 210/2/4 216/2/4
f 210/3/4 214/3/4 217/3/4
f 216/2/4 210/2/4 217/2/4
f 217/3/4 214/3/4 218/3/4
f 222/2/5 220/2/5 219/2/5
f 223/2/5 220/2/5 222/2/5
f 225/2/5 222/2/5 221/2/5
f 226/2/5 222/2/5 225/2/5
f 227/2/5 224/2/5 223/2/5
f 228/2/5 224/2/5 227/2/5
f 229/2/5 227/2/5 226/2/5
f 230/2/5 227/2/5 229/2/5
f 233/3/5 232/3/5 231/3/5
f 234/3/5 232/3/5 233/3/5
f 239/1/5 236/1/5 235/1/5
f 240/1/5 236/1/5 239/1/5
f 241/1/5 238/1/5 237/1/5
f 242/1/5 238/1/5 241/1/5
f 247/3/5 244/3/5 243/3/5
f 248/3/5 244/3/5 247/3/5
f 249/3/5 246/3/5 245/3/5
f 250/3/5 246/3/5 249/3/5
f 255/3/5 252/3/5 251/3/5
f 256/2/5 253/2/5 252/2/5
f 256/3/5 252/3/5 255/3/5
f 257/3/5 254/3/5 253/3/5
f 257/2/5 253/2/5 256/2/5
f 258/3/5 254/3/5 257/3/5
f 263/3/5 260/3/5 259/3/5
f 263/3/5 262/3/5 261/3/5
f 263/3/5 261/3/5 260/3/5
f 264/3/5 262/3/5 263/3/5
f 265/1/6 266/1/6 269/1/6
f 267/1/6 268/1/6 269/1/6
f 266/1/6 267/1/6 269/1/6
f 269/1/6 268/1/6 270/1/6
f 271/3/6 272/3/6 276/3/6
f 276/3/6 272/3/6 277/3/6
f 273/3/6 274/3/6 278/3/6
f 278/3/6 274/3/6 279/3/6
f 275/3/6 276/3/6 281/3/6
f 281/3/6 276/3/6 282/3/6
f 279/3/6 280/3/6 285/3/6
f 285/3/6 280/3/6 286/3/6
f 282/3/6 283/3/6 287/3/6
f 287/3/6 283/3/6 288/3/6
f 284/3/6 285/3/6 289/3/6
f 289/3/6 285/3/6 290/3/6
f 291/3/6 292/3/6 294/3/6
f 294/3/6 292/3/6 295/3/6
f 293/3/6 294/3/6 297/3/6
f 297/3/6 294/3/6 298/3/6
f 295/3/6 296/3/6 299/3/6
f 299/3/6 296/3/6 300/3/6
f 298/3/6 299/3/6 301/3/6
f 301/3/6 299/3/6 302/3/6
f 303/3/6 304/3/6 305/3/6
f 305/3/6 304/3/6 306/3/6
