# MagicaVoxel @ Ephtracy

# group
o helm_lgt_3a_du_color

# material
mtllib character-259-helm_lgt_3a_du_color.mtl
usemtl palette

# normals
vn -1 0 0
vn 1 0 0
vn 0 0 1
vn 0 0 -1
vn 0 -1 0
vn 0 1 0

# texcoords
vt 0.482422 0.5
vt 0.494141 0.5
vt 0.916016 0.5

# verts
v -0.3 2.5 0.3
v -0.3 2.5 0.2
v -0.3 2.6 0.2
v -0.3 2.6 -0.2
v -0.3 3.2 0.3
v -0.3 3.2 0.2
v -0.3 3.2 -0.2
v -0.2 2.6 -0.2
v -0.2 2.6 -0.3
v -0.2 3.2 0.3
v -0.2 3.2 0.2
v -0.2 3.2 -0.2
v -0.2 3.2 -0.3
v -0.2 3.3 0.3
v -0.2 3.3 -0.2
v 0.2 2.5 0.3
v 0.2 2.5 0.2
v 0.2 2.6 0.2
v 0.2 2.6 -0.2
v 0.2 3.1 0.3
v 0.2 3.1 0.2
v 0.2 3.2 0.2
v 0.2 3.2 -0.2
v -0.2 2.5 0.3
v -0.2 2.5 0.2
v -0.2 2.6 0.2
v -0.2 2.6 -0.2
v -0.2 3.1 0.3
v -0.2 3.1 0.2
v -0.2 3.2 0.2
v -0.2 3.2 -0.2
v 0.2 2.6 -0.2
v 0.2 2.6 -0.3
v 0.2 3.2 0.3
v 0.2 3.2 0.2
v 0.2 3.2 -0.2
v 0.2 3.2 -0.3
v 0.2 3.3 0.3
v 0.2 3.3 -0.2
v 0.3 2.5 0.3
v 0.3 2.5 0.2
v 0.3 2.6 0.2
v 0.3 2.6 -0.2
v 0.3 3.2 0.3
v 0.3 3.2 0.2
v 0.3 3.2 -0.2
v -0.3 2.5 0.3
v -0.3 3.2 0.3
v -0.2 2.5 0.3
v -0.2 3.1 0.3
v -0.2 3.2 0.3
v -0.2 3.3 0.3
v -0.1 3.2 0.3
v -0.1 3.3 0.3
v 0.1 3.2 0.3
v 0.1 3.3 0.3
v 0.2 2.5 0.3
v 0.2 3.1 0.3
v 0.2 3.2 0.3
v 0.2 3.3 0.3
v 0.3 2.5 0.3
v 0.3 3.2 0.3
v -0.2 2.6 -0.2
v -0.2 3.2 -0.2
v -0.1 2.6 -0.2
v -0.1 3.2 -0.2
v 0.1 2.6 -0.2
v 0.1 3.2 -0.2
v 0.2 2.6 -0.2
v 0.2 3.2 -0.2
v -0.3 2.5 0.2
v -0.3 2.6 0.2
v -0.2 2.5 0.2
v -0.2 2.6 0.2
v -0.2 3.1 0.2
v -0.2 3.2 0.2
v -0.1 3.2 0.2
v 0.1 3.2 0.2
v 0.2 2.5 0.2
v 0.2 2.6 0.2
v 0.2 3.1 0.2
v 0.2 3.2 0.2
v 0.3 2.5 0.2
v 0.3 2.6 0.2
v -0.3 2.6 -0.2
v -0.3 3.2 -0.2
v -0.2 2.6 -0.2
v -0.2 3.2 -0.2
v -0.2 3.3 -0.2
v -0.1 3.2 -0.2
v -0.1 3.3 -0.2
v 0.1 3.2 -0.2
v 0.1 3.3 -0.2
v 0.2 2.6 -0.2
v 0.2 3.2 -0.2
v 0.2 3.3 -0.2
v 0.3 2.6 -0.2
v 0.3 3.2 -0.2
v -0.2 2.6 -0.3
v -0.2 3.2 -0.3
v -0.1 2.6 -0.3
v -0.1 3.2 -0.3
v 0.1 2.6 -0.3
v 0.1 3.2 -0.3
v 0.2 2.6 -0.3
v 0.2 3.2 -0.3
v -0.3 2.5 0.3
v -0.2 2.5 0.3
v 0.2 2.5 0.3
v 0.3 2.5 0.3
v -0.3 2.5 0.2
v -0.2 2.5 0.2
v 0.2 2.5 0.2
v 0.3 2.5 0.2
v -0.3 2.6 0.2
v -0.2 2.6 0.2
v 0.2 2.6 0.2
v 0.3 2.6 0.2
v -0.3 2.6 -0.2
v -0.2 2.6 -0.2
v -0.1 2.6 -0.2
v 0.1 2.6 -0.2
v 0.2 2.6 -0.2
v 0.3 2.6 -0.2
v -0.2 2.6 -0.3
v -0.1 2.6 -0.3
v 0.1 2.6 -0.3
v 0.2 2.6 -0.3
v -0.2 3.1 0.3
v 0.2 3.1 0.3
v -0.2 3.1 0.2
v 0.2 3.1 0.2
v -0.2 3.2 0.2
v -0.1 3.2 0.2
v 0.1 3.2 0.2
v 0.2 3.2 0.2
v -0.2 3.2 -0.2
v -0.1 3.2 -0.2
v 0.1 3.2 -0.2
v 0.2 3.2 -0.2
v -0.3 3.2 0.3
v -0.2 3.2 0.3
v 0.2 3.2 0.3
v 0.3 3.2 0.3
v -0.3 3.2 0.2
v -0.2 3.2 0.2
v 0.2 3.2 0.2
v 0.3 3.2 0.2
v -0.3 3.2 -0.2
v -0.2 3.2 -0.2
v -0.1 3.2 -0.2
v 0.1 3.2 -0.2
v 0.2 3.2 -0.2
v 0.3 3.2 -0.2
v -0.2 3.2 -0.3
v -0.1 3.2 -0.3
v 0.1 3.2 -0.3
v 0.2 3.2 -0.3
v -0.2 3.3 0.3
v -0.1 3.3 0.3
v 0.1 3.3 0.3
v 0.2 3.3 0.3
v -0.2 3.3 -0.2
v -0.1 3.3 -0.2
v 0.1 3.3 -0.2
v 0.2 3.3 -0.2

# faces
f 3/1/1 2/1/1 1/1/1
f 5/1/1 3/1/1 1/1/1
f 6/2/1 4/2/1 3/2/1
f 6/1/1 3/1/1 5/1/1
f 7/2/1 4/2/1 6/2/1
f 12/2/1 9/2/1 8/2/1
f 13/2/1 9/2/1 12/2/1
f 14/2/1 11/2/1 10/2/1
f 14/2/1 12/2/1 11/2/1
f 15/2/1 12/2/1 14/2/1
f 18/1/1 17/1/1 16/1/1
f 20/1/1 18/1/1 16/1/1
f 21/2/1 19/2/1 18/2/1
f 21/1/1 18/1/1 20/1/1
f 22/2/1 19/2/1 21/2/1
f 23/2/1 19/2/1 22/2/1
f 24/1/2 25/1/2 26/1/2
f 24/1/2 26/1/2 28/1/2
f 26/2/2 27/2/2 29/2/2
f 28/1/2 26/1/2 29/1/2
f 29/2/2 27/2/2 30/2/2
f 30/2/2 27/2/2 31/2/2
f 32/2/2 33/2/2 36/2/2
f 36/2/2 33/2/2 37/2/2
f 34/2/2 35/2/2 38/2/2
f 35/2/2 36/2/2 38/2/2
f 38/2/2 36/2/2 39/2/2
f 40/1/2 41/1/2 42/1/2
f 40/1/2 42/1/2 44/1/2
f 42/2/2 43/2/2 45/2/2
f 44/1/2 42/1/2 45/1/2
f 45/2/2 43/2/2 46/2/2
f 49/1/3 48/1/3 47/1/3
f 50/1/3 48/1/3 49/1/3
f 51/1/3 48/1/3 50/1/3
f 53/2/3 52/2/3 51/2/3
f 53/1/3 51/1/3 50/1/3
f 54/2/3 52/2/3 53/2/3
f 55/1/3 53/1/3 50/1/3
f 55/3/3 54/3/3 53/3/3
f 56/3/3 54/3/3 55/3/3
f 58/1/3 55/1/3 50/1/3
f 59/2/3 56/2/3 55/2/3
f 59/1/3 55/1/3 58/1/3
f 60/2/3 56/2/3 59/2/3
f 61/1/3 58/1/3 57/1/3
f 61/1/3 59/1/3 58/1/3
f 62/1/3 59/1/3 61/1/3
f 65/2/3 64/2/3 63/2/3
f 66/2/3 64/2/3 65/2/3
f 67/3/3 66/3/3 65/3/3
f 68/3/3 66/3/3 67/3/3
f 69/2/3 68/2/3 67/2/3
f 70/2/3 68/2/3 69/2/3
f 71/1/4 72/1/4 73/1/4
f 73/1/4 72/1/4 74/1/4
f 75/1/4 76/1/4 77/1/4
f 75/1/4 77/1/4 78/1/4
f 75/1/4 78/1/4 81/1/4
f 81/1/4 78/1/4 82/1/4
f 79/1/4 80/1/4 83/1/4
f 83/1/4 80/1/4 84/1/4
f 85/2/4 86/2/4 87/2/4
f 87/2/4 86/2/4 88/2/4
f 88/2/4 89/2/4 90/2/4
f 90/2/4 89/2/4 91/2/4
f 90/3/4 91/3/4 92/3/4
f 92/3/4 91/3/4 93/3/4
f 92/2/4 93/2/4 95/2/4
f 95/2/4 93/2/4 96/2/4
f 94/2/4 95/2/4 97/2/4
f 97/2/4 95/2/4 98/2/4
f 99/2/4 100/2/4 101/2/4
f 101/2/4 100/2/4 102/2/4
f 101/3/4 102/3/4 103/3/4
f 103/3/4 102/3/4 104/3/4
f 103/2/4 104/2/4 105/2/4
f 105/2/4 104/2/4 106/2/4
f 111/1/5 108/1/5 107/1/5
f 112/1/5 108/1/5 111/1/5
f 113/1/5 110/1/5 109/1/5
f 114/1/5 110/1/5 113/1/5
f 119/2/5 116/2/5 115/2/5
f 120/2/5 116/2/5 119/2/5
f 123/2/5 118/2/5 117/2/5
f 124/2/5 118/2/5 123/2/5
f 125/2/5 121/2/5 120/2/5
f 126/3/5 122/3/5 121/3/5
f 126/2/5 121/2/5 125/2/5
f 127/2/5 123/2/5 122/2/5
f 127/3/5 122/3/5 126/3/5
f 128/2/5 123/2/5 127/2/5
f 131/1/5 130/1/5 129/1/5
f 132/1/5 130/1/5 131/1/5
f 137/2/5 134/2/5 133/2/5
f 138/3/5 135/3/5 134/3/5
f 138/2/5 134/2/5 137/2/5
f 139/2/5 136/2/5 135/2/5
f 139/3/5 135/3/5 138/3/5
f 140/2/5 136/2/5 139/2/5
f 141/1/6 142/1/6 145/1/6
f 145/1/6 142/1/6 146/1/6
f 143/1/6 144/1/6 147/1/6
f 147/1/6 144/1/6 148/1/6
f 145/2/6 146/2/6 149/2/6
f 149/2/6 146/2/6 150/2/6
f 147/2/6 148/2/6 153/2/6
f 153/2/6 148/2/6 154/2/6
f 150/2/6 151/2/6 155/2/6
f 151/3/6 152/3/6 156/3/6
f 155/2/6 151/2/6 156/2/6
f 152/2/6 153/2/6 157/2/6
f 156/3/6 152/3/6 157/3/6
f 157/2/6 153/2/6 158/2/6
f 159/2/6 160/2/6 163/2/6
f 160/3/6 161/3/6 164/3/6
f 163/2/6 160/2/6 164/2/6
f 161/2/6 162/2/6 165/2/6
f 164/3/6 161/3/6 165/3/6
f 165/2/6 162/2/6 166/2/6
