# MagicaVoxel @ Ephtracy

# group
o arm_fore_med_hvy_3_sh_ja_color

# material
mtllib character-62-arm_fore_med_hvy_3_sh_ja_color.mtl
usemtl palette

# normals
vn -1 0 0
vn 1 0 0
vn 0 1 0
vn 0 -1 0
vn 0 0 1
vn 0 0 -1

# texcoords
vt 0.494141 0.5
vt 0.701172 0.5
vt 0.955078 0.5

# verts
v -0.7 1.8 0.5
v -0.7 1.6 0.5
v -0.7 1.8 0.4
v -0.7 1.6 0.4
v -0.7 1.8 0.2
v -0.7 1.6 0.2
v -0.7 1.8 0.1
v -0.7 1.6 0.1
v -0.7 1.8 -0.1
v -0.7 1.6 -0.1
v -0.5 1.8 0.5
v -0.5 1.6 0.5
v -0.5 1.8 0.1
v -0.5 1.6 0.1
v -0.5 1.8 -0.1
v -0.5 1.6 -0.1
v -0.7 1.8 0.5
v -0.7 1.8 0.4
v -0.7 1.8 0.2
v -0.7 1.8 0.1
v -0.7 1.8 -0.1
v -0.6 1.8 0.4
v -0.6 1.8 0.2
v -0.5 1.8 0.5
v -0.5 1.8 0.1
v -0.5 1.8 -0.1
v -0.7 1.6 0.5
v -0.7 1.6 0.4
v -0.7 1.6 0.2
v -0.7 1.6 0.1
v -0.7 1.6 -0.1
v -0.6 1.6 0.4
v -0.6 1.6 0.2
v -0.5 1.6 0.5
v -0.5 1.6 0.1
v -0.5 1.6 -0.1
v -0.7 1.8 0.5
v -0.5 1.8 0.5
v -0.7 1.6 0.5
v -0.5 1.6 0.5
v -0.7 1.8 -0.1
v -0.5 1.8 -0.1
v -0.7 1.6 -0.1
v -0.5 1.6 -0.1

# faces
f 3/2/1 2/2/1 1/2/1
f 4/2/1 2/2/1 3/2/1
f 5/3/1 4/3/1 3/3/1
f 6/3/1 4/3/1 5/3/1
f 7/2/1 6/2/1 5/2/1
f 8/2/1 6/2/1 7/2/1
f 9/1/1 8/1/1 7/1/1
f 10/1/1 8/1/1 9/1/1
f 11/2/2 12/2/2 13/2/2
f 13/2/2 12/2/2 14/2/2
f 13/1/2 14/1/2 15/1/2
f 15/1/2 14/1/2 16/1/2
f 22/2/3 18/2/3 17/2/3
f 22/3/3 19/3/3 18/3/3
f 23/2/3 20/2/3 19/2/3
f 23/3/3 19/3/3 22/3/3
f 24/2/3 22/2/3 17/2/3
f 24/2/3 23/2/3 22/2/3
f 25/1/3 21/1/3 20/1/3
f 25/2/3 23/2/3 24/2/3
f 25/2/3 20/2/3 23/2/3
f 26/1/3 21/1/3 25/1/3
f 27/2/4 28/2/4 32/2/4
f 28/3/4 29/3/4 32/3/4
f 29/2/4 30/2/4 33/2/4
f 32/3/4 29/3/4 33/3/4
f 27/2/4 32/2/4 34/2/4
f 32/2/4 33/2/4 34/2/4
f 30/1/4 31/1/4 35/1/4
f 34/2/4 33/2/4 35/2/4
f 33/2/4 30/2/4 35/2/4
f 35/1/4 31/1/4 36/1/4
f 39/2/5 38/2/5 37/2/5
f 40/2/5 38/2/5 39/2/5
f 41/1/6 42/1/6 43/1/6
f 43/1/6 42/1/6 44/1/6
