# MagicaVoxel @ Ephtracy

# group
o shield_med_3_du_color

# material
mtllib char-36-shield_med_3_du_color.mtl
usemtl palette

# normals
vn 0 -1 0
vn 0 1 0
vn 0 0 1
vn 0 0 -1
vn 1 0 0
vn -1 0 0

# texcoords
vt 0.482422 0.5
vt 0.498047 0.5
vt 0.916016 0.5
vt 0.962891 0.5

# verts
v 0.9 0.9 0.7
v 0.9 0.9 0.6
v 0.3 0.9 0.7
v 0.3 0.9 0.6
v 1.1 1 0.7
v 1.1 1 0.6
v 0.9 1 0.7
v 0.9 1 0.6
v 0.3 1 0.7
v 0.3 1 0.6
v 0.1 1 0.7
v 0.1 1 0.6
v 1.2 1.1 0.7
v 1.2 1.1 0.6
v 1.1 1.1 0.7
v 1.1 1.1 0.6
v 0.1 1.1 0.7
v 0.1 1.1 0.6
v 0 1.1 0.7
v 0 1.1 0.6
v 1.3 1.2 0.7
v 1.3 1.2 0.6
v 1.2 1.2 0.7
v 1.2 1.2 0.6
v 0 1.2 0.7
v 0 1.2 0.6
v -0.1 1.2 0.7
v -0.1 1.2 0.6
v 1.4 1.4 0.7
v 1.4 1.4 0.6
v 1.3 1.4 0.7
v 1.3 1.4 0.6
v -0.1 1.4 0.7
v -0.1 1.4 0.6
v -0.2 1.4 0.7
v -0.2 1.4 0.6
v 0.7 1.6 0.8
v 0.7 1.6 0.7
v 0.5 1.6 0.8
v 0.5 1.6 0.7
v 0.7 1.8 0.7
v 0.7 1.8 0.6
v 0.5 1.8 0.7
v 0.5 1.8 0.6
v 0.7 1.6 0.7
v 0.7 1.6 0.6
v 0.5 1.6 0.7
v 0.5 1.6 0.6
v 0.7 1.8 0.8
v 0.7 1.8 0.7
v 0.5 1.8 0.8
v 0.5 1.8 0.7
v 1.4 2 0.7
v 1.4 2 0.6
v 1.3 2 0.7
v 1.3 2 0.6
v -0.1 2 0.7
v -0.1 2 0.6
v -0.2 2 0.7
v -0.2 2 0.6
v 1.3 2.2 0.7
v 1.3 2.2 0.6
v 1.2 2.2 0.7
v 1.2 2.2 0.6
v 0 2.2 0.7
v 0 2.2 0.6
v -0.1 2.2 0.7
v -0.1 2.2 0.6
v 1.2 2.3 0.7
v 1.2 2.3 0.6
v 1.1 2.3 0.7
v 1.1 2.3 0.6
v 0.1 2.3 0.7
v 0.1 2.3 0.6
v 0 2.3 0.7
v 0 2.3 0.6
v 1.1 2.4 0.7
v 1.1 2.4 0.6
v 0.9 2.4 0.7
v 0.9 2.4 0.6
v 0.3 2.4 0.7
v 0.3 2.4 0.6
v 0.1 2.4 0.7
v 0.1 2.4 0.6
v 0.9 2.5 0.7
v 0.9 2.5 0.6
v 0.3 2.5 0.7
v 0.3 2.5 0.6
v 0.7 1.6 0.8
v 0.5 1.6 0.8
v 0.7 1.8 0.8
v 0.5 1.8 0.8
v 0.9 0.9 0.7
v 0.3 0.9 0.7
v 1.1 1 0.7
v 0.9 1 0.7
v 0.8 1 0.7
v 0.4 1 0.7
v 0.3 1 0.7
v 0.1 1 0.7
v 1.2 1.1 0.7
v 1.1 1.1 0.7
v 1 1.1 0.7
v 0.8 1.1 0.7
v 0.7 1.1 0.7
v 0.6 1.1 0.7
v 0.4 1.1 0.7
v 0.2 1.1 0.7
v 0.1 1.1 0.7
v 0 1.1 0.7
v 1.3 1.2 0.7
v 1.2 1.2 0.7
v 1.1 1.2 0.7
v 1 1.2 0.7
v 0.6 1.2 0.7
v 0.5 1.2 0.7
v 0.2 1.2 0.7
v 0.1 1.2 0.7
v 0 1.2 0.7
v -0.1 1.2 0.7
v 1.2 1.3 0.7
v 1.1 1.3 0.7
v 0.7 1.3 0.7
v 0.6 1.3 0.7
v 0.5 1.3 0.7
v 0.4 1.3 0.7
v 0.1 1.3 0.7
v 0 1.3 0.7
v 1.4 1.4 0.7
v 1.3 1.4 0.7
v -0.1 1.4 0.7
v -0.2 1.4 0.7
v 1.3 1.5 0.7
v 1.2 1.5 0.7
v 0.7 1.5 0.7
v 0.6 1.5 0.7
v 0.5 1.5 0.7
v 0.4 1.5 0.7
v 0 1.5 0.7
v -0.1 1.5 0.7
v 0.9 1.6 0.7
v 0.8 1.6 0.7
v 0.7 1.6 0.7
v 0.5 1.6 0.7
v 0.3 1.6 0.7
v 1 1.7 0.7
v 0.9 1.7 0.7
v 0.3 1.7 0.7
v 0.2 1.7 0.7
v 1.1 1.8 0.7
v 1 1.8 0.7
v 0.9 1.8 0.7
v 0.8 1.8 0.7
v 0.7 1.8 0.7
v 0.5 1.8 0.7
v 0.3 1.8 0.7
v 0.2 1.8 0.7
v 0.1 1.8 0.7
v 1.3 1.9 0.7
v 1.2 1.9 0.7
v 1.1 1.9 0.7
v 0.9 1.9 0.7
v 0.8 1.9 0.7
v 0.7 1.9 0.7
v 0.5 1.9 0.7
v 0.4 1.9 0.7
v 0.3 1.9 0.7
v 0.1 1.9 0.7
v 0 1.9 0.7
v -0.1 1.9 0.7
v 1.4 2 0.7
v 1.3 2 0.7
v 0.7 2 0.7
v 0.6 2 0.7
v -0.1 2 0.7
v -0.2 2 0.7
v 1.2 2.1 0.7
v 1.1 2.1 0.7
v 0.7 2.1 0.7
v 0.6 2.1 0.7
v 0.1 2.1 0.7
v 0 2.1 0.7
v 1.3 2.2 0.7
v 1.2 2.2 0.7
v 1.1 2.2 0.7
v 1 2.2 0.7
v 0.7 2.2 0.7
v 0.4 2.2 0.7
v 0.2 2.2 0.7
v 0.1 2.2 0.7
v 0 2.2 0.7
v -0.1 2.2 0.7
v 1.2 2.3 0.7
v 1.1 2.3 0.7
v 1 2.3 0.7
v 0.8 2.3 0.7
v 0.4 2.3 0.7
v 0.2 2.3 0.7
v 0.1 2.3 0.7
v 0 2.3 0.7
v 1.1 2.4 0.7
v 0.9 2.4 0.7
v 0.8 2.4 0.7
v 0.4 2.4 0.7
v 0.3 2.4 0.7
v 0.1 2.4 0.7
v 0.9 2.5 0.7
v 0.3 2.5 0.7
v 0.7 1.6 0.7
v 0.5 1.6 0.7
v 0.7 1.8 0.7
v 0.5 1.8 0.7
v 0.9 0.9 0.6
v 0.3 0.9 0.6
v 1.1 1 0.6
v 0.9 1 0.6
v 0.8 1 0.6
v 0.4 1 0.6
v 0.3 1 0.6
v 0.1 1 0.6
v 1.2 1.1 0.6
v 1.1 1.1 0.6
v 1 1.1 0.6
v 0.8 1.1 0.6
v 0.7 1.1 0.6
v 0.6 1.1 0.6
v 0.4 1.1 0.6
v 0.2 1.1 0.6
v 0.1 1.1 0.6
v 0 1.1 0.6
v 1.3 1.2 0.6
v 1.2 1.2 0.6
v 1.1 1.2 0.6
v 1 1.2 0.6
v 0.6 1.2 0.6
v 0.5 1.2 0.6
v 0.2 1.2 0.6
v 0.1 1.2 0.6
v 0 1.2 0.6
v -0.1 1.2 0.6
v 1.2 1.3 0.6
v 1.1 1.3 0.6
v 0.7 1.3 0.6
v 0.6 1.3 0.6
v 0.5 1.3 0.6
v 0.4 1.3 0.6
v 0.1 1.3 0.6
v 0 1.3 0.6
v 1.4 1.4 0.6
v 1.3 1.4 0.6
v -0.1 1.4 0.6
v -0.2 1.4 0.6
v 1.3 1.5 0.6
v 1.2 1.5 0.6
v 0.7 1.5 0.6
v 0.6 1.5 0.6
v 0.5 1.5 0.6
v 0.4 1.5 0.6
v 0 1.5 0.6
v -0.1 1.5 0.6
v 0.9 1.6 0.6
v 0.8 1.6 0.6
v 0.7 1.6 0.6
v 0.5 1.6 0.6
v 0.3 1.6 0.6
v 1 1.7 0.6
v 0.9 1.7 0.6
v 0.3 1.7 0.6
v 0.2 1.7 0.6
v 1.1 1.8 0.6
v 1 1.8 0.6
v 0.9 1.8 0.6
v 0.8 1.8 0.6
v 0.7 1.8 0.6
v 0.5 1.8 0.6
v 0.3 1.8 0.6
v 0.2 1.8 0.6
v 0.1 1.8 0.6
v 1.3 1.9 0.6
v 1.2 1.9 0.6
v 1.1 1.9 0.6
v 0.9 1.9 0.6
v 0.8 1.9 0.6
v 0.7 1.9 0.6
v 0.5 1.9 0.6
v 0.4 1.9 0.6
v 0.3 1.9 0.6
v 0.1 1.9 0.6
v 0 1.9 0.6
v -0.1 1.9 0.6
v 1.4 2 0.6
v 1.3 2 0.6
v 0.7 2 0.6
v 0.6 2 0.6
v -0.1 2 0.6
v -0.2 2 0.6
v 1.2 2.1 0.6
v 1.1 2.1 0.6
v 0.7 2.1 0.6
v 0.6 2.1 0.6
v 0.1 2.1 0.6
v 0 2.1 0.6
v 1.3 2.2 0.6
v 1.2 2.2 0.6
v 1.1 2.2 0.6
v 1 2.2 0.6
v 0.7 2.2 0.6
v 0.4 2.2 0.6
v 0.2 2.2 0.6
v 0.1 2.2 0.6
v 0 2.2 0.6
v -0.1 2.2 0.6
v 1.2 2.3 0.6
v 1.1 2.3 0.6
v 1 2.3 0.6
v 0.8 2.3 0.6
v 0.4 2.3 0.6
v 0.2 2.3 0.6
v 0.1 2.3 0.6
v 0 2.3 0.6
v 1.1 2.4 0.6
v 0.9 2.4 0.6
v 0.8 2.4 0.6
v 0.4 2.4 0.6
v 0.3 2.4 0.6
v 0.1 2.4 0.6
v 0.9 2.5 0.6
v 0.3 2.5 0.6
v 1.4 1.4 0.7
v 1.4 2 0.7
v 1.4 1.4 0.6
v 1.4 2 0.6
v 1.3 1.2 0.7
v 1.3 1.4 0.7
v 1.3 2 0.7
v 1.3 2.2 0.7
v 1.3 1.2 0.6
v 1.3 1.4 0.6
v 1.3 2 0.6
v 1.3 2.2 0.6
v 1.2 1.1 0.7
v 1.2 1.2 0.7
v 1.2 2.2 0.7
v 1.2 2.3 0.7
v 1.2 1.1 0.6
v 1.2 1.2 0.6
v 1.2 2.2 0.6
v 1.2 2.3 0.6
v 1.1 1 0.7
v 1.1 1.1 0.7
v 1.1 2.3 0.7
v 1.1 2.4 0.7
v 1.1 1 0.6
v 1.1 1.1 0.6
v 1.1 2.3 0.6
v 1.1 2.4 0.6
v 0.9 0.9 0.7
v 0.9 1 0.7
v 0.9 2.4 0.7
v 0.9 2.5 0.7
v 0.9 0.9 0.6
v 0.9 1 0.6
v 0.9 2.4 0.6
v 0.9 2.5 0.6
v 0.7 1.6 0.8
v 0.7 1.8 0.8
v 0.7 1.6 0.7
v 0.7 1.8 0.7
v 0.5 1.6 0.7
v 0.5 1.8 0.7
v 0.5 1.6 0.6
v 0.5 1.8 0.6
v 0.7 1.6 0.7
v 0.7 1.8 0.7
v 0.7 1.6 0.6
v 0.7 1.8 0.6
v 0.5 1.6 0.8
v 0.5 1.8 0.8
v 0.5 1.6 0.7
v 0.5 1.8 0.7
v 0.3 0.9 0.7
v 0.3 1 0.7
v 0.3 2.4 0.7
v 0.3 2.5 0.7
v 0.3 0.9 0.6
v 0.3 1 0.6
v 0.3 2.4 0.6
v 0.3 2.5 0.6
v 0.1 1 0.7
v 0.1 1.1 0.7
v 0.1 2.3 0.7
v 0.1 2.4 0.7
v 0.1 1 0.6
v 0.1 1.1 0.6
v 0.1 2.3 0.6
v 0.1 2.4 0.6
v 0 1.1 0.7
v 0 1.2 0.7
v 0 2.2 0.7
v 0 2.3 0.7
v 0 1.1 0.6
v 0 1.2 0.6
v 0 2.2 0.6
v 0 2.3 0.6
v -0.1 1.2 0.7
v -0.1 1.4 0.7
v -0.1 2 0.7
v -0.1 2.2 0.7
v -0.1 1.2 0.6
v -0.1 1.4 0.6
v -0.1 2 0.6
v -0.1 2.2 0.6
v -0.2 1.4 0.7
v -0.2 2 0.7
v -0.2 1.4 0.6
v -0.2 2 0.6

# faces
f 3/4/1 2/4/1 1/4/1
f 4/4/1 2/4/1 3/4/1
f 7/4/1 6/4/1 5/4/1
f 8/4/1 6/4/1 7/4/1
f 11/4/1 10/4/1 9/4/1
f 12/4/1 10/4/1 11/4/1
f 15/4/1 14/4/1 13/4/1
f 16/4/1 14/4/1 15/4/1
f 19/4/1 18/4/1 17/4/1
f 20/4/1 18/4/1 19/4/1
f 23/4/1 22/4/1 21/4/1
f 24/4/1 22/4/1 23/4/1
f 27/4/1 26/4/1 25/4/1
f 28/4/1 26/4/1 27/4/1
f 31/4/1 30/4/1 29/4/1
f 32/4/1 30/4/1 31/4/1
f 35/4/1 34/4/1 33/4/1
f 36/4/1 34/4/1 35/4/1
f 39/4/1 38/4/1 37/4/1
f 40/4/1 38/4/1 39/4/1
f 43/1/1 42/1/1 41/1/1
f 44/1/1 42/1/1 43/1/1
f 45/1/2 46/1/2 47/1/2
f 47/1/2 46/1/2 48/1/2
f 49/4/2 50/4/2 51/4/2
f 51/4/2 50/4/2 52/4/2
f 53/4/2 54/4/2 55/4/2
f 55/4/2 54/4/2 56/4/2
f 57/4/2 58/4/2 59/4/2
f 59/4/2 58/4/2 60/4/2
f 61/4/2 62/4/2 63/4/2
f 63/4/2 62/4/2 64/4/2
f 65/4/2 66/4/2 67/4/2
f 67/4/2 66/4/2 68/4/2
f 69/4/2 70/4/2 71/4/2
f 71/4/2 70/4/2 72/4/2
f 73/4/2 74/4/2 75/4/2
f 75/4/2 74/4/2 76/4/2
f 77/4/2 78/4/2 79/4/2
f 79/4/2 78/4/2 80/4/2
f 81/4/2 82/4/2 83/4/2
f 83/4/2 82/4/2 84/4/2
f 85/4/2 86/4/2 87/4/2
f 87/4/2 86/4/2 88/4/2
f 91/4/3 90/4/3 89/4/3
f 92/4/3 90/4/3 91/4/3
f 96/4/3 94/4/3 93/4/3
f 97/4/3 94/4/3 96/4/3
f 98/4/3 94/4/3 97/4/3
f 99/4/3 94/4/3 98/4/3
f 102/4/3 96/4/3 95/4/3
f 102/4/3 97/4/3 96/4/3
f 103/4/3 97/4/3 102/4/3
f 104/2/3 98/2/3 97/2/3
f 104/4/3 97/4/3 103/4/3
f 105/2/3 98/2/3 104/2/3
f 106/2/3 98/2/3 105/2/3
f 107/4/3 100/4/3 99/4/3
f 107/2/3 98/2/3 106/2/3
f 107/4/3 99/4/3 98/4/3
f 108/4/3 100/4/3 107/4/3
f 109/4/3 100/4/3 108/4/3
f 112/4/3 103/4/3 102/4/3
f 112/4/3 102/4/3 101/4/3
f 113/4/3 103/4/3 112/4/3
f 114/2/3 105/2/3 104/2/3
f 114/4/3 103/4/3 113/4/3
f 114/2/3 104/2/3 103/2/3
f 115/1/3 106/1/3 105/1/3
f 115/2/3 107/2/3 106/2/3
f 115/2/3 108/2/3 107/2/3
f 116/2/3 108/2/3 115/2/3
f 117/4/3 110/4/3 109/4/3
f 117/2/3 108/2/3 116/2/3
f 117/4/3 109/4/3 108/4/3
f 118/4/3 110/4/3 117/4/3
f 119/4/3 110/4/3 118/4/3
f 121/4/3 113/4/3 112/4/3
f 121/4/3 112/4/3 111/4/3
f 122/2/3 114/2/3 113/2/3
f 122/4/3 113/4/3 121/4/3
f 123/2/3 105/2/3 114/2/3
f 123/2/3 114/2/3 122/2/3
f 123/1/3 116/1/3 115/1/3
f 123/1/3 115/1/3 105/1/3
f 124/1/3 116/1/3 123/1/3
f 125/2/3 118/2/3 117/2/3
f 125/1/3 116/1/3 124/1/3
f 125/2/3 117/2/3 116/2/3
f 126/2/3 118/2/3 125/2/3
f 127/4/3 120/4/3 119/4/3
f 127/2/3 118/2/3 126/2/3
f 127/4/3 119/4/3 118/4/3
f 128/4/3 120/4/3 127/4/3
f 130/4/3 121/4/3 111/4/3
f 131/4/3 120/4/3 128/4/3
f 133/4/3 130/4/3 129/4/3
f 133/4/3 121/4/3 130/4/3
f 134/2/3 122/2/3 121/2/3
f 134/4/3 121/4/3 133/4/3
f 134/2/3 124/2/3 123/2/3
f 134/2/3 123/2/3 122/2/3
f 135/2/3 124/2/3 134/2/3
f 136/1/3 126/1/3 125/1/3
f 136/2/3 124/2/3 135/2/3
f 136/1/3 125/1/3 124/1/3
f 137/1/3 126/1/3 136/1/3
f 138/2/3 127/2/3 126/2/3
f 138/1/3 126/1/3 137/1/3
f 138/2/3 128/2/3 127/2/3
f 139/4/3 131/4/3 128/4/3
f 139/2/3 128/2/3 138/2/3
f 139/4/3 132/4/3 131/4/3
f 140/4/3 132/4/3 139/4/3
f 141/2/3 135/2/3 134/2/3
f 141/2/3 134/2/3 133/2/3
f 142/2/3 135/2/3 141/2/3
f 143/1/3 136/1/3 135/1/3
f 143/2/3 135/2/3 142/2/3
f 143/1/3 137/1/3 136/1/3
f 144/2/3 138/2/3 137/2/3
f 144/1/3 137/1/3 143/1/3
f 144/2/3 140/2/3 139/2/3
f 144/2/3 139/2/3 138/2/3
f 145/2/3 140/2/3 144/2/3
f 146/2/3 141/2/3 133/2/3
f 147/3/3 142/3/3 141/3/3
f 147/2/3 141/2/3 146/2/3
f 148/2/3 140/2/3 145/2/3
f 148/3/3 145/3/3 144/3/3
f 149/2/3 140/2/3 148/2/3
f 150/2/3 146/2/3 133/2/3
f 151/3/3 147/3/3 146/3/3
f 151/2/3 146/2/3 150/2/3
f 152/3/3 142/3/3 147/3/3
f 152/3/3 147/3/3 151/3/3
f 153/1/3 143/1/3 142/1/3
f 153/3/3 142/3/3 152/3/3
f 154/1/3 143/1/3 153/1/3
f 155/3/3 148/3/3 144/3/3
f 155/3/3 149/3/3 148/3/3
f 156/3/3 149/3/3 155/3/3
f 157/2/3 140/2/3 149/2/3
f 157/3/3 149/3/3 156/3/3
f 158/2/3 140/2/3 157/2/3
f 159/4/3 133/4/3 129/4/3
f 159/2/3 150/2/3 133/2/3
f 160/2/3 150/2/3 159/2/3
f 161/3/3 152/3/3 151/3/3
f 161/2/3 150/2/3 160/2/3
f 161/3/3 151/3/3 150/3/3
f 162/2/3 153/2/3 152/2/3
f 162/3/3 152/3/3 161/3/3
f 163/1/3 154/1/3 153/1/3
f 163/2/3 153/2/3 162/2/3
f 163/1/3 155/1/3 154/1/3
f 164/1/3 155/1/3 163/1/3
f 165/2/3 156/2/3 155/2/3
f 165/1/3 155/1/3 164/1/3
f 166/2/3 156/2/3 165/2/3
f 167/3/3 158/3/3 157/3/3
f 167/2/3 156/2/3 166/2/3
f 167/3/3 157/3/3 156/3/3
f 168/2/3 140/2/3 158/2/3
f 168/3/3 158/3/3 167/3/3
f 169/2/3 140/2/3 168/2/3
f 170/4/3 132/4/3 140/4/3
f 170/2/3 140/2/3 169/2/3
f 171/4/3 160/4/3 159/4/3
f 171/4/3 159/4/3 129/4/3
f 172/4/3 160/4/3 171/4/3
f 173/2/3 164/2/3 163/2/3
f 173/1/3 166/1/3 165/1/3
f 173/2/3 162/2/3 161/2/3
f 173/2/3 161/2/3 160/2/3
f 173/1/3 165/1/3 164/1/3
f 173/2/3 163/2/3 162/2/3
f 174/1/3 166/1/3 173/1/3
f 175/4/3 132/4/3 170/4/3
f 175/4/3 170/4/3 169/4/3
f 176/4/3 132/4/3 175/4/3
f 177/2/3 174/2/3 173/2/3
f 177/4/3 160/4/3 172/4/3
f 177/2/3 173/2/3 160/2/3
f 178/2/3 174/2/3 177/2/3
f 179/2/3 174/2/3 178/2/3
f 180/1/3 166/1/3 174/1/3
f 180/2/3 174/2/3 179/2/3
f 181/2/3 167/2/3 166/2/3
f 181/2/3 169/2/3 168/2/3
f 181/2/3 168/2/3 167/2/3
f 182/4/3 175/4/3 169/4/3
f 182/2/3 169/2/3 181/2/3
f 183/4/3 178/4/3 177/4/3
f 183/4/3 177/4/3 172/4/3
f 184/4/3 178/4/3 183/4/3
f 185/2/3 179/2/3 178/2/3
f 185/4/3 178/4/3 184/4/3
f 186/2/3 179/2/3 185/2/3
f 187/1/3 180/1/3 179/1/3
f 187/2/3 179/2/3 186/2/3
f 188/1/3 166/1/3 180/1/3
f 188/1/3 180/1/3 187/1/3
f 188/2/3 181/2/3 166/2/3
f 189/2/3 181/2/3 188/2/3
f 190/4/3 182/4/3 181/4/3
f 190/2/3 181/2/3 189/2/3
f 191/4/3 175/4/3 182/4/3
f 191/4/3 182/4/3 190/4/3
f 192/4/3 175/4/3 191/4/3
f 193/4/3 186/4/3 185/4/3
f 193/4/3 185/4/3 184/4/3
f 194/4/3 186/4/3 193/4/3
f 195/2/3 187/2/3 186/2/3
f 195/4/3 186/4/3 194/4/3
f 195/2/3 188/2/3 187/2/3
f 195/2/3 189/2/3 188/2/3
f 196/2/3 189/2/3 195/2/3
f 197/2/3 189/2/3 196/2/3
f 198/4/3 191/4/3 190/4/3
f 198/2/3 189/2/3 197/2/3
f 198/4/3 190/4/3 189/4/3
f 199/4/3 191/4/3 198/4/3
f 200/4/3 191/4/3 199/4/3
f 201/4/3 196/4/3 195/4/3
f 201/4/3 195/4/3 194/4/3
f 202/4/3 196/4/3 201/4/3
f 203/2/3 197/2/3 196/2/3
f 203/4/3 196/4/3 202/4/3
f 204/4/3 199/4/3 198/4/3
f 204/2/3 197/2/3 203/2/3
f 204/4/3 198/4/3 197/4/3
f 205/4/3 199/4/3 204/4/3
f 206/4/3 199/4/3 205/4/3
f 207/4/3 203/4/3 202/4/3
f 207/4/3 205/4/3 204/4/3
f 207/4/3 204/4/3 203/4/3
f 208/4/3 205/4/3 207/4/3
f 209/4/4 210/4/4 211/4/4
f 211/4/4 210/4/4 212/4/4
f 213/4/4 214/4/4 216/4/4
f 216/4/4 214/4/4 217/4/4
f 217/4/4 214/4/4 218/4/4
f 218/4/4 214/4/4 219/4/4
f 215/4/4 216/4/4 222/4/4
f 216/4/4 217/4/4 222/4/4
f 222/4/4 217/4/4 223/4/4
f 217/2/4 218/2/4 224/2/4
f 223/4/4 217/4/4 224/4/4
f 224/2/4 218/2/4 225/2/4
f 225/2/4 218/2/4 226/2/4
f 219/4/4 220/4/4 227/4/4
f 226/2/4 218/2/4 227/2/4
f 218/4/4 219/4/4 227/4/4
f 227/4/4 220/4/4 228/4/4
f 228/4/4 220/4/4 229/4/4
f 222/4/4 223/4/4 232/4/4
f 221/4/4 222/4/4 232/4/4
f 232/4/4 223/4/4 233/4/4
f 224/2/4 225/2/4 234/2/4
f 233/4/4 223/4/4 234/4/4
f 223/2/4 224/2/4 234/2/4
f 225/1/4 226/1/4 235/1/4
f 226/2/4 227/2/4 235/2/4
f 227/2/4 228/2/4 235/2/4
f 235/2/4 228/2/4 236/2/4
f 229/4/4 230/4/4 237/4/4
f 236/2/4 228/2/4 237/2/4
f 228/4/4 229/4/4 237/4/4
f 237/4/4 230/4/4 238/4/4
f 238/4/4 230/4/4 239/4/4
f 232/4/4 233/4/4 241/4/4
f 231/4/4 232/4/4 241/4/4
f 233/2/4 234/2/4 242/2/4
f 241/4/4 233/4/4 242/4/4
f 234/2/4 225/2/4 243/2/4
f 242/2/4 234/2/4 243/2/4
f 235/1/4 236/1/4 243/1/4
f 225/1/4 235/1/4 243/1/4
f 243/1/4 236/1/4 244/1/4
f 237/2/4 238/2/4 245/2/4
f 244/1/4 236/1/4 245/1/4
f 236/2/4 237/2/4 245/2/4
f 245/2/4 238/2/4 246/2/4
f 239/4/4 240/4/4 247/4/4
f 246/2/4 238/2/4 247/2/4
f 238/4/4 239/4/4 247/4/4
f 247/4/4 240/4/4 248/4/4
f 231/4/4 241/4/4 250/4/4
f 248/4/4 240/4/4 251/4/4
f 249/4/4 250/4/4 253/4/4
f 250/4/4 241/4/4 253/4/4
f 241/2/4 242/2/4 254/2/4
f 253/4/4 241/4/4 254/4/4
f 243/2/4 244/2/4 254/2/4
f 242/2/4 243/2/4 254/2/4
f 254/2/4 244/2/4 255/2/4
f 245/1/4 246/1/4 256/1/4
f 255/2/4 244/2/4 256/2/4
f 244/1/4 245/1/4 256/1/4
f 256/1/4 246/1/4 257/1/4
f 246/2/4 247/2/4 258/2/4
f 257/1/4 246/1/4 258/1/4
f 247/2/4 248/2/4 258/2/4
f 248/4/4 251/4/4 259/4/4
f 258/2/4 248/2/4 259/2/4
f 251/4/4 252/4/4 259/4/4
f 259/4/4 252/4/4 260/4/4
f 254/2/4 255/2/4 261/2/4
f 253/2/4 254/2/4 261/2/4
f 261/2/4 255/2/4 262/2/4
f 255/1/4 256/1/4 263/1/4
f 262/2/4 255/2/4 263/2/4
f 256/1/4 257/1/4 263/1/4
f 257/2/4 258/2/4 264/2/4
f 263/1/4 257/1/4 264/1/4
f 259/2/4 260/2/4 264/2/4
f 258/2/4 259/2/4 264/2/4
f 264/2/4 260/2/4 265/2/4
f 253/2/4 261/2/4 266/2/4
f 261/3/4 262/3/4 267/3/4
f 266/2/4 261/2/4 267/2/4
f 265/2/4 260/2/4 268/2/4
f 264/3/4 265/3/4 268/3/4
f 268/2/4 260/2/4 269/2/4
f 253/2/4 266/2/4 270/2/4
f 266/3/4 267/3/4 271/3/4
f 270/2/4 266/2/4 271/2/4
f 267/3/4 262/3/4 272/3/4
f 271/3/4 267/3/4 272/3/4
f 262/1/4 263/1/4 273/1/4
f 272/3/4 262/3/4 273/3/4
f 273/1/4 263/1/4 274/1/4
f 264/3/4 268/3/4 275/3/4
f 268/3/4 269/3/4 275/3/4
f 275/3/4 269/3/4 276/3/4
f 269/2/4 260/2/4 277/2/4
f 276/3/4 269/3/4 277/3/4
f 277/2/4 260/2/4 278/2/4
f 249/4/4 253/4/4 279/4/4
f 253/2/4 270/2/4 279/2/4
f 279/2/4 270/2/4 280/2/4
f 271/3/4 272/3/4 281/3/4
f 280/2/4 270/2/4 281/2/4
f 270/3/4 271/3/4 281/3/4
f 272/2/4 273/2/4 282/2/4
f 281/3/4 272/3/4 282/3/4
f 273/1/4 274/1/4 283/1/4
f 282/2/4 273/2/4 283/2/4
f 274/1/4 275/1/4 283/1/4
f 283/1/4 275/1/4 284/1/4
f 275/2/4 276/2/4 285/2/4
f 284/1/4 275/1/4 285/1/4
f 285/2/4 276/2/4 286/2/4
f 277/3/4 278/3/4 287/3/4
f 286/2/4 276/2/4 287/2/4
f 276/3/4 277/3/4 287/3/4
f 278/2/4 260/2/4 288/2/4
f 287/3/4 278/3/4 288/3/4
f 288/2/4 260/2/4 289/2/4
f 260/4/4 252/4/4 290/4/4
f 289/2/4 260/2/4 290/2/4
f 279/4/4 280/4/4 291/4/4
f 249/4/4 279/4/4 291/4/4
f 291/4/4 280/4/4 292/4/4
f 283/2/4 284/2/4 293/2/4
f 285/1/4 286/1/4 293/1/4
f 281/2/4 282/2/4 293/2/4
f 280/2/4 281/2/4 293/2/4
f 284/1/4 285/1/4 293/1/4
f 282/2/4 283/2/4 293/2/4
f 293/1/4 286/1/4 294/1/4
f 290/4/4 252/4/4 295/4/4
f 289/4/4 290/4/4 295/4/4
f 295/4/4 252/4/4 296/4/4
f 293/2/4 294/2/4 297/2/4
f 292/4/4 280/4/4 297/4/4
f 280/2/4 293/2/4 297/2/4
f 297/2/4 294/2/4 298/2/4
f 298/2/4 294/2/4 299/2/4
f 294/1/4 286/1/4 300/1/4
f 299/2/4 294/2/4 300/2/4
f 286/2/4 287/2/4 301/2/4
f 288/2/4 289/2/4 301/2/4
f 287/2/4 288/2/4 301/2/4
f 289/4/4 295/4/4 302/4/4
f 301/2/4 289/2/4 302/2/4
f 297/4/4 298/4/4 303/4/4
f 292/4/4 297/4/4 303/4/4
f 303/4/4 298/4/4 304/4/4
f 298/2/4 299/2/4 305/2/4
f 304/4/4 298/4/4 305/4/4
f 305/2/4 299/2/4 306/2/4
f 299/1/4 300/1/4 307/1/4
f 306/2/4 299/2/4 307/2/4
f 300/1/4 286/1/4 308/1/4
f 307/1/4 300/1/4 308/1/4
f 286/2/4 301/2/4 308/2/4
f 308/2/4 301/2/4 309/2/4
f 301/4/4 302/4/4 310/4/4
f 309/2/4 301/2/4 310/2/4
f 302/4/4 295/4/4 311/4/4
f 310/4/4 302/4/4 311/4/4
f 311/4/4 295/4/4 312/4/4
f 305/4/4 306/4/4 313/4/4
f 304/4/4 305/4/4 313/4/4
f 313/4/4 306/4/4 314/4/4
f 306/2/4 307/2/4 315/2/4
f 314/4/4 306/4/4 315/4/4
f 307/2/4 308/2/4 315/2/4
f 308/2/4 309/2/4 315/2/4
f 315/2/4 309/2/4 316/2/4
f 316/2/4 309/2/4 317/2/4
f 310/4/4 311/4/4 318/4/4
f 317/2/4 309/2/4 318/2/4
f 309/4/4 310/4/4 318/4/4
f 318/4/4 311/4/4 319/4/4
f 319/4/4 311/4/4 320/4/4
f 315/4/4 316/4/4 321/4/4
f 314/4/4 315/4/4 321/4/4
f 321/4/4 316/4/4 322/4/4
f 316/2/4 317/2/4 323/2/4
f 322/4/4 316/4/4 323/4/4
f 318/4/4 319/4/4 324/4/4
f 323/2/4 317/2/4 324/2/4
f 317/4/4 318/4/4 324/4/4
f 324/4/4 319/4/4 325/4/4
f 325/4/4 319/4/4 326/4/4
f 322/4/4 323/4/4 327/4/4
f 324/4/4 325/4/4 327/4/4
f 323/4/4 324/4/4 327/4/4
f 327/4/4 325/4/4 328/4/4
f 331/4/5 330/4/5 329/4/5
f 332/4/5 330/4/5 331/4/5
f 337/4/5 334/4/5 333/4/5
f 338/4/5 334/4/5 337/4/5
f 339/4/5 336/4/5 335/4/5
f 340/4/5 336/4/5 339/4/5
f 345/4/5 342/4/5 341/4/5
f 346/4/5 342/4/5 345/4/5
f 347/4/5 344/4/5 343/4/5
f 348/4/5 344/4/5 347/4/5
f 353/4/5 350/4/5 349/4/5
f 354/4/5 350/4/5 353/4/5
f 355/4/5 352/4/5 351/4/5
f 356/4/5 352/4/5 355/4/5
f 361/4/5 358/4/5 357/4/5
f 362/4/5 358/4/5 361/4/5
f 363/4/5 360/4/5 359/4/5
f 364/4/5 360/4/5 363/4/5
f 367/4/5 366/4/5 365/4/5
f 368/4/5 366/4/5 367/4/5
f 371/3/5 370/3/5 369/3/5
f 372/3/5 370/3/5 371/3/5
f 373/1/6 374/1/6 375/1/6
f 375/1/6 374/1/6 376/1/6
f 377/4/6 378/4/6 379/4/6
f 379/4/6 378/4/6 380/4/6
f 381/4/6 382/4/6 385/4/6
f 385/4/6 382/4/6 386/4/6
f 383/4/6 384/4/6 387/4/6
f 387/4/6 384/4/6 388/4/6
f 389/4/6 390/4/6 393/4/6
f 393/4/6 390/4/6 394/4/6
f 391/4/6 392/4/6 395/4/6
f 395/4/6 392/4/6 396/4/6
f 397/4/6 398/4/6 401/4/6
f 401/4/6 398/4/6 402/4/6
f 399/4/6 400/4/6 403/4/6
f 403/4/6 400/4/6 404/4/6
f 405/4/6 406/4/6 409/4/6
f 409/4/6 406/4/6 410/4/6
f 407/4/6 408/4/6 411/4/6
f 411/4/6 408/4/6 412/4/6
f 413/4/6 414/4/6 415/4/6
f 415/4/6 414/4/6 416/4/6
