# MagicaVoxel @ Ephtracy

# group
o shield_hvy_3_ja_color

# material
mtllib char-12-shield_hvy_3_ja_color.mtl
usemtl palette

# normals
vn 0 0 -1
vn 0 0 1
vn 1 0 0
vn -1 0 0
vn 0 1 0
vn 0 -1 0

# texcoords
vt 0.462891 0.5
vt 0.470703 0.5
vt 0.498047 0.5
vt 0.962891 0.5

# verts
v 0.8 2.1 -0.1
v 0.7 2.1 -0.1
v 0.8 1.3 -0.1
v 0.7 1.3 -0.1
v 0.8 2.3 0
v 0.7 2.3 0
v 0.8 2.1 0
v 0.7 2.1 0
v 0.8 1.3 0
v 0.7 1.3 0
v 0.8 1.1 0
v 0.7 1.1 0
v 0.8 2.4 0.1
v 0.7 2.4 0.1
v 0.8 2.3 0.1
v 0.7 2.3 0.1
v 0.8 1.1 0.1
v 0.7 1.1 0.1
v 0.8 0.9 0.1
v 0.7 0.9 0.1
v 0.8 0.9 0.2
v 0.7 0.9 0.2
v 0.8 0.7 0.2
v 0.7 0.7 0.2
v 0.8 2.5 0.3
v 0.7 2.5 0.3
v 0.8 2.4 0.3
v 0.7 2.4 0.3
v 0.8 0.7 0.3
v 0.7 0.7 0.3
v 0.8 0.5 0.3
v 0.7 0.5 0.3
v 0.8 0.5 0.4
v 0.7 0.5 0.4
v 0.8 0.3 0.4
v 0.7 0.3 0.4
v 0.9 1.8 0.5
v 0.8 1.8 0.5
v 0.9 1.6 0.5
v 0.8 1.6 0.5
v 0.8 0.3 0.5
v 0.7 0.3 0.5
v 0.8 0.2 0.5
v 0.7 0.2 0.5
v 0.8 1.8 0.7
v 0.7 1.8 0.7
v 0.8 1.6 0.7
v 0.7 1.6 0.7
v 0.8 1.8 0.5
v 0.7 1.8 0.5
v 0.8 1.6 0.5
v 0.7 1.6 0.5
v 0.9 1.8 0.7
v 0.8 1.8 0.7
v 0.9 1.6 0.7
v 0.8 1.6 0.7
v 0.8 0.3 0.7
v 0.7 0.3 0.7
v 0.8 0.2 0.7
v 0.7 0.2 0.7
v 0.8 0.5 0.8
v 0.7 0.5 0.8
v 0.8 0.3 0.8
v 0.7 0.3 0.8
v 0.8 2.5 0.9
v 0.7 2.5 0.9
v 0.8 2.4 0.9
v 0.7 2.4 0.9
v 0.8 0.7 0.9
v 0.7 0.7 0.9
v 0.8 0.5 0.9
v 0.7 0.5 0.9
v 0.8 0.9 1
v 0.7 0.9 1
v 0.8 0.7 1
v 0.7 0.7 1
v 0.8 2.4 1.1
v 0.7 2.4 1.1
v 0.8 2.3 1.1
v 0.7 2.3 1.1
v 0.8 1.1 1.1
v 0.7 1.1 1.1
v 0.8 0.9 1.1
v 0.7 0.9 1.1
v 0.8 2.3 1.2
v 0.7 2.3 1.2
v 0.8 2.1 1.2
v 0.7 2.1 1.2
v 0.8 1.3 1.2
v 0.7 1.3 1.2
v 0.8 1.1 1.2
v 0.7 1.1 1.2
v 0.8 2.1 1.3
v 0.7 2.1 1.3
v 0.8 1.3 1.3
v 0.7 1.3 1.3
v 0.9 1.8 0.5
v 0.9 1.6 0.5
v 0.9 1.8 0.7
v 0.9 1.6 0.7
v 0.8 2.1 -0.1
v 0.8 1.3 -0.1
v 0.8 2.3 0
v 0.8 2.1 0
v 0.8 2 0
v 0.8 1.5 0
v 0.8 1.3 0
v 0.8 1.1 0
v 0.8 2.4 0.1
v 0.8 2.3 0.1
v 0.8 2.2 0.1
v 0.8 2 0.1
v 0.8 1.9 0.1
v 0.8 1.6 0.1
v 0.8 1.5 0.1
v 0.8 1.2 0.1
v 0.8 1.1 0.1
v 0.8 0.9 0.1
v 0.8 2.3 0.2
v 0.8 2.2 0.2
v 0.8 2.1 0.2
v 0.8 1.9 0.2
v 0.8 1.6 0.2
v 0.8 1.3 0.2
v 0.8 1.2 0.2
v 0.8 1 0.2
v 0.8 0.9 0.2
v 0.8 0.7 0.2
v 0.8 2.5 0.3
v 0.8 2.4 0.3
v 0.8 2.2 0.3
v 0.8 2.1 0.3
v 0.8 1.9 0.3
v 0.8 1.3 0.3
v 0.8 1.1 0.3
v 0.8 1 0.3
v 0.8 0.8 0.3
v 0.8 0.7 0.3
v 0.8 0.5 0.3
v 0.8 2.4 0.4
v 0.8 2.3 0.4
v 0.8 2.2 0.4
v 0.8 1.9 0.4
v 0.8 1.3 0.4
v 0.8 1.1 0.4
v 0.8 1 0.4
v 0.8 0.8 0.4
v 0.8 0.6 0.4
v 0.8 0.5 0.4
v 0.8 0.3 0.4
v 0.8 1.8 0.5
v 0.8 1.6 0.5
v 0.8 1.1 0.5
v 0.8 1 0.5
v 0.8 0.6 0.5
v 0.8 0.4 0.5
v 0.8 0.3 0.5
v 0.8 0.2 0.5
v 0.8 2.4 0.6
v 0.8 1.8 0.6
v 0.8 1.6 0.6
v 0.8 0.4 0.6
v 0.8 1.8 0.7
v 0.8 1.6 0.7
v 0.8 1.1 0.7
v 0.8 1 0.7
v 0.8 0.6 0.7
v 0.8 0.4 0.7
v 0.8 0.3 0.7
v 0.8 0.2 0.7
v 0.8 2.4 0.8
v 0.8 2.3 0.8
v 0.8 2.2 0.8
v 0.8 1.9 0.8
v 0.8 1.3 0.8
v 0.8 1.1 0.8
v 0.8 1 0.8
v 0.8 0.8 0.8
v 0.8 0.6 0.8
v 0.8 0.5 0.8
v 0.8 0.3 0.8
v 0.8 2.5 0.9
v 0.8 2.4 0.9
v 0.8 2.2 0.9
v 0.8 2.1 0.9
v 0.8 1.9 0.9
v 0.8 1.3 0.9
v 0.8 1.1 0.9
v 0.8 1 0.9
v 0.8 0.8 0.9
v 0.8 0.7 0.9
v 0.8 0.5 0.9
v 0.8 2.3 1
v 0.8 2.2 1
v 0.8 2.1 1
v 0.8 1.9 1
v 0.8 1.6 1
v 0.8 1.3 1
v 0.8 1.2 1
v 0.8 1 1
v 0.8 0.9 1
v 0.8 0.7 1
v 0.8 2.4 1.1
v 0.8 2.3 1.1
v 0.8 2.2 1.1
v 0.8 2 1.1
v 0.8 1.9 1.1
v 0.8 1.6 1.1
v 0.8 1.5 1.1
v 0.8 1.2 1.1
v 0.8 1.1 1.1
v 0.8 0.9 1.1
v 0.8 2.3 1.2
v 0.8 2.1 1.2
v 0.8 2 1.2
v 0.8 1.5 1.2
v 0.8 1.3 1.2
v 0.8 1.1 1.2
v 0.8 2.1 1.3
v 0.8 1.3 1.3
v 0.8 1.8 0.5
v 0.8 1.6 0.5
v 0.8 1.8 0.6
v 0.8 1.6 0.6
v 0.8 1.8 0.7
v 0.8 1.6 0.7
v 0.7 2.1 -0.1
v 0.7 1.3 -0.1
v 0.7 2.3 0
v 0.7 2.1 0
v 0.7 2 0
v 0.7 1.5 0
v 0.7 1.3 0
v 0.7 1.1 0
v 0.7 2.4 0.1
v 0.7 2.3 0.1
v 0.7 2.2 0.1
v 0.7 2 0.1
v 0.7 1.9 0.1
v 0.7 1.6 0.1
v 0.7 1.5 0.1
v 0.7 1.2 0.1
v 0.7 1.1 0.1
v 0.7 0.9 0.1
v 0.7 2.3 0.2
v 0.7 2.2 0.2
v 0.7 2.1 0.2
v 0.7 1.9 0.2
v 0.7 1.6 0.2
v 0.7 1.3 0.2
v 0.7 1.2 0.2
v 0.7 1 0.2
v 0.7 0.9 0.2
v 0.7 0.7 0.2
v 0.7 2.5 0.3
v 0.7 2.4 0.3
v 0.7 2.2 0.3
v 0.7 2.1 0.3
v 0.7 1.9 0.3
v 0.7 1.3 0.3
v 0.7 1.1 0.3
v 0.7 1 0.3
v 0.7 0.8 0.3
v 0.7 0.7 0.3
v 0.7 0.5 0.3
v 0.7 2.4 0.4
v 0.7 2.3 0.4
v 0.7 2.2 0.4
v 0.7 1.9 0.4
v 0.7 1.3 0.4
v 0.7 1.1 0.4
v 0.7 1 0.4
v 0.7 0.8 0.4
v 0.7 0.6 0.4
v 0.7 0.5 0.4
v 0.7 0.3 0.4
v 0.7 1.8 0.5
v 0.7 1.6 0.5
v 0.7 1.1 0.5
v 0.7 1 0.5
v 0.7 0.6 0.5
v 0.7 0.4 0.5
v 0.7 0.3 0.5
v 0.7 0.2 0.5
v 0.7 2.4 0.6
v 0.7 1.8 0.6
v 0.7 1.6 0.6
v 0.7 0.4 0.6
v 0.7 1.8 0.7
v 0.7 1.6 0.7
v 0.7 1.1 0.7
v 0.7 1 0.7
v 0.7 0.6 0.7
v 0.7 0.4 0.7
v 0.7 0.3 0.7
v 0.7 0.2 0.7
v 0.7 2.4 0.8
v 0.7 2.3 0.8
v 0.7 2.2 0.8
v 0.7 1.9 0.8
v 0.7 1.3 0.8
v 0.7 1.1 0.8
v 0.7 1 0.8
v 0.7 0.8 0.8
v 0.7 0.6 0.8
v 0.7 0.5 0.8
v 0.7 0.3 0.8
v 0.7 2.5 0.9
v 0.7 2.4 0.9
v 0.7 2.2 0.9
v 0.7 2.1 0.9
v 0.7 1.9 0.9
v 0.7 1.3 0.9
v 0.7 1.1 0.9
v 0.7 1 0.9
v 0.7 0.8 0.9
v 0.7 0.7 0.9
v 0.7 0.5 0.9
v 0.7 2.3 1
v 0.7 2.2 1
v 0.7 2.1 1
v 0.7 1.9 1
v 0.7 1.6 1
v 0.7 1.3 1
v 0.7 1.2 1
v 0.7 1 1
v 0.7 0.9 1
v 0.7 0.7 1
v 0.7 2.4 1.1
v 0.7 2.3 1.1
v 0.7 2.2 1.1
v 0.7 2 1.1
v 0.7 1.9 1.1
v 0.7 1.6 1.1
v 0.7 1.5 1.1
v 0.7 1.2 1.1
v 0.7 1.1 1.1
v 0.7 0.9 1.1
v 0.7 2.3 1.2
v 0.7 2.1 1.2
v 0.7 2 1.2
v 0.7 1.5 1.2
v 0.7 1.3 1.2
v 0.7 1.1 1.2
v 0.7 2.1 1.3
v 0.7 1.3 1.3
v 0.8 2.5 0.3
v 0.8 2.5 0.9
v 0.7 2.5 0.3
v 0.7 2.5 0.9
v 0.8 2.4 0.1
v 0.8 2.4 0.3
v 0.8 2.4 0.9
v 0.8 2.4 1.1
v 0.7 2.4 0.1
v 0.7 2.4 0.3
v 0.7 2.4 0.9
v 0.7 2.4 1.1
v 0.8 2.3 0
v 0.8 2.3 0.1
v 0.8 2.3 1.1
v 0.8 2.3 1.2
v 0.7 2.3 0
v 0.7 2.3 0.1
v 0.7 2.3 1.1
v 0.7 2.3 1.2
v 0.8 2.1 -0.1
v 0.8 2.1 0
v 0.8 2.1 1.2
v 0.8 2.1 1.3
v 0.7 2.1 -0.1
v 0.7 2.1 0
v 0.7 2.1 1.2
v 0.7 2.1 1.3
v 0.9 1.8 0.5
v 0.9 1.8 0.7
v 0.8 1.8 0.5
v 0.8 1.8 0.6
v 0.8 1.8 0.7
v 0.8 1.6 0.5
v 0.8 1.6 0.6
v 0.8 1.6 0.7
v 0.7 1.6 0.5
v 0.7 1.6 0.6
v 0.7 1.6 0.7
v 0.8 1.8 0.5
v 0.8 1.8 0.6
v 0.8 1.8 0.7
v 0.7 1.8 0.5
v 0.7 1.8 0.6
v 0.7 1.8 0.7
v 0.9 1.6 0.5
v 0.9 1.6 0.7
v 0.8 1.6 0.5
v 0.8 1.6 0.6
v 0.8 1.6 0.7
v 0.8 1.3 -0.1
v 0.8 1.3 0
v 0.8 1.3 1.2
v 0.8 1.3 1.3
v 0.7 1.3 -0.1
v 0.7 1.3 0
v 0.7 1.3 1.2
v 0.7 1.3 1.3
v 0.8 1.1 0
v 0.8 1.1 0.1
v 0.8 1.1 1.1
v 0.8 1.1 1.2
v 0.7 1.1 0
v 0.7 1.1 0.1
v 0.7 1.1 1.1
v 0.7 1.1 1.2
v 0.8 0.9 0.1
v 0.8 0.9 0.2
v 0.8 0.9 1
v 0.8 0.9 1.1
v 0.7 0.9 0.1
v 0.7 0.9 0.2
v 0.7 0.9 1
v 0.7 0.9 1.1
v 0.8 0.7 0.2
v 0.8 0.7 0.3
v 0.8 0.7 0.9
v 0.8 0.7 1
v 0.7 0.7 0.2
v 0.7 0.7 0.3
v 0.7 0.7 0.9
v 0.7 0.7 1
v 0.8 0.5 0.3
v 0.8 0.5 0.4
v 0.8 0.5 0.8
v 0.8 0.5 0.9
v 0.7 0.5 0.3
v 0.7 0.5 0.4
v 0.7 0.5 0.8
v 0.7 0.5 0.9
v 0.8 0.3 0.4
v 0.8 0.3 0.5
v 0.8 0.3 0.7
v 0.8 0.3 0.8
v 0.7 0.3 0.4
v 0.7 0.3 0.5
v 0.7 0.3 0.7
v 0.7 0.3 0.8
v 0.8 0.2 0.5
v 0.8 0.2 0.7
v 0.7 0.2 0.5
v 0.7 0.2 0.7

# faces
f 3/4/1 2/4/1 1/4/1
f 4/4/1 2/4/1 3/4/1
f 7/4/1 6/4/1 5/4/1
f 8/4/1 6/4/1 7/4/1
f 11/4/1 10/4/1 9/4/1
f 12/4/1 10/4/1 11/4/1
f 15/4/1 14/4/1 13/4/1
f 16/4/1 14/4/1 15/4/1
f 19/4/1 18/4/1 17/4/1
f 20/4/1 18/4/1 19/4/1
f 23/4/1 22/4/1 21/4/1
f 24/4/1 22/4/1 23/4/1
f 27/4/1 26/4/1 25/4/1
f 28/4/1 26/4/1 27/4/1
f 31/4/1 30/4/1 29/4/1
f 32/4/1 30/4/1 31/4/1
f 35/4/1 34/4/1 33/4/1
f 36/4/1 34/4/1 35/4/1
f 39/4/1 38/4/1 37/4/1
f 40/4/1 38/4/1 39/4/1
f 43/4/1 42/4/1 41/4/1
f 44/4/1 42/4/1 43/4/1
f 47/1/1 46/1/1 45/1/1
f 48/1/1 46/1/1 47/1/1
f 49/3/2 50/3/2 51/3/2
f 51/3/2 50/3/2 52/3/2
f 53/4/2 54/4/2 55/4/2
f 55/4/2 54/4/2 56/4/2
f 57/4/2 58/4/2 59/4/2
f 59/4/2 58/4/2 60/4/2
f 61/4/2 62/4/2 63/4/2
f 63/4/2 62/4/2 64/4/2
f 65/4/2 66/4/2 67/4/2
f 67/4/2 66/4/2 68/4/2
f 69/4/2 70/4/2 71/4/2
f 71/4/2 70/4/2 72/4/2
f 73/4/2 74/4/2 75/4/2
f 75/4/2 74/4/2 76/4/2
f 77/4/2 78/4/2 79/4/2
f 79/4/2 78/4/2 80/4/2
f 81/4/2 82/4/2 83/4/2
f 83/4/2 82/4/2 84/4/2
f 85/4/2 86/4/2 87/4/2
f 87/4/2 86/4/2 88/4/2
f 89/4/2 90/4/2 91/4/2
f 91/4/2 90/4/2 92/4/2
f 93/4/2 94/4/2 95/4/2
f 95/4/2 94/4/2 96/4/2
f 99/4/3 98/4/3 97/4/3
f 100/4/3 98/4/3 99/4/3
f 104/4/3 102/4/3 101/4/3
f 105/4/3 102/4/3 104/4/3
f 106/4/3 102/4/3 105/4/3
f 107/4/3 102/4/3 106/4/3
f 110/4/3 104/4/3 103/4/3
f 110/4/3 105/4/3 104/4/3
f 111/4/3 105/4/3 110/4/3
f 112/3/3 106/3/3 105/3/3
f 112/4/3 105/4/3 111/4/3
f 113/3/3 106/3/3 112/3/3
f 114/3/3 106/3/3 113/3/3
f 115/4/3 108/4/3 107/4/3
f 115/3/3 106/3/3 114/3/3
f 115/4/3 107/4/3 106/4/3
f 116/4/3 108/4/3 115/4/3
f 117/4/3 108/4/3 116/4/3
f 119/4/3 111/4/3 110/4/3
f 119/4/3 110/4/3 109/4/3
f 120/3/3 113/3/3 112/3/3
f 120/4/3 111/4/3 119/4/3
f 120/3/3 112/3/3 111/3/3
f 121/3/3 113/3/3 120/3/3
f 122/2/3 114/2/3 113/2/3
f 122/3/3 113/3/3 121/3/3
f 123/3/3 116/3/3 115/3/3
f 123/2/3 114/2/3 122/2/3
f 123/3/3 115/3/3 114/3/3
f 124/3/3 116/3/3 123/3/3
f 125/4/3 118/4/3 117/4/3
f 125/3/3 116/3/3 124/3/3
f 125/4/3 117/4/3 116/4/3
f 126/4/3 118/4/3 125/4/3
f 127/4/3 118/4/3 126/4/3
f 130/4/3 119/4/3 109/4/3
f 131/3/3 121/3/3 120/3/3
f 131/3/3 120/3/3 119/3/3
f 132/2/3 124/2/3 123/2/3
f 132/3/3 121/3/3 131/3/3
f 132/2/3 123/2/3 122/2/3
f 132/2/3 122/2/3 121/2/3
f 133/2/3 124/2/3 132/2/3
f 134/3/3 125/3/3 124/3/3
f 134/2/3 124/2/3 133/2/3
f 134/3/3 126/3/3 125/3/3
f 135/3/3 126/3/3 134/3/3
f 136/4/3 128/4/3 127/4/3
f 136/3/3 126/3/3 135/3/3
f 136/4/3 127/4/3 126/4/3
f 137/4/3 128/4/3 136/4/3
f 138/4/3 128/4/3 137/4/3
f 140/4/3 130/4/3 129/4/3
f 140/4/3 119/4/3 130/4/3
f 141/3/3 131/3/3 119/3/3
f 141/4/3 119/4/3 140/4/3
f 142/2/3 133/2/3 132/2/3
f 142/3/3 131/3/3 141/3/3
f 142/2/3 132/2/3 131/2/3
f 143/3/3 134/3/3 133/3/3
f 143/2/3 133/2/3 142/2/3
f 144/2/3 135/2/3 134/2/3
f 144/3/3 134/3/3 143/3/3
f 145/3/3 137/3/3 136/3/3
f 145/2/3 135/2/3 144/2/3
f 145/3/3 136/3/3 135/3/3
f 146/3/3 137/3/3 145/3/3
f 147/4/3 139/4/3 138/4/3
f 147/3/3 137/3/3 146/3/3
f 147/4/3 138/4/3 137/4/3
f 148/4/3 139/4/3 147/4/3
f 149/4/3 139/4/3 148/4/3
f 151/3/3 143/3/3 142/3/3
f 151/3/3 142/3/3 141/3/3
f 151/3/3 145/3/3 144/3/3
f 151/3/3 141/3/3 140/3/3
f 151/3/3 144/3/3 143/3/3
f 152/3/3 145/3/3 151/3/3
f 153/2/3 146/2/3 145/2/3
f 153/3/3 145/3/3 152/3/3
f 154/3/3 148/3/3 147/3/3
f 154/2/3 146/2/3 153/2/3
f 154/3/3 147/3/3 146/3/3
f 155/4/3 150/4/3 149/4/3
f 155/3/3 148/3/3 154/3/3
f 155/4/3 149/4/3 148/4/3
f 156/4/3 150/4/3 155/4/3
f 157/4/3 150/4/3 156/4/3
f 159/4/3 140/4/3 129/4/3
f 159/3/3 151/3/3 140/3/3
f 160/3/3 151/3/3 159/3/3
f 161/3/3 154/3/3 153/3/3
f 161/3/3 156/3/3 155/3/3
f 161/3/3 153/3/3 152/3/3
f 161/3/3 155/3/3 154/3/3
f 162/4/3 158/4/3 157/4/3
f 162/3/3 156/3/3 161/3/3
f 162/4/3 157/4/3 156/4/3
f 163/1/3 160/1/3 159/1/3
f 164/1/3 162/1/3 161/1/3
f 165/1/3 162/1/3 164/1/3
f 166/1/3 162/1/3 165/1/3
f 167/1/3 162/1/3 166/1/3
f 168/4/3 158/4/3 162/4/3
f 168/1/3 162/1/3 167/1/3
f 169/4/3 158/4/3 168/4/3
f 170/4/3 158/4/3 169/4/3
f 171/4/3 159/4/3 129/4/3
f 171/1/3 163/1/3 159/1/3
f 171/1/3 164/1/3 163/1/3
f 171/1/3 165/1/3 164/1/3
f 172/1/3 165/1/3 171/1/3
f 173/1/3 165/1/3 172/1/3
f 174/1/3 165/1/3 173/1/3
f 175/1/3 165/1/3 174/1/3
f 176/2/3 166/2/3 165/2/3
f 176/1/3 165/1/3 175/1/3
f 177/1/3 167/1/3 166/1/3
f 177/2/3 166/2/3 176/2/3
f 178/1/3 167/1/3 177/1/3
f 179/4/3 169/4/3 168/4/3
f 179/1/3 167/1/3 178/1/3
f 179/4/3 168/4/3 167/4/3
f 180/4/3 169/4/3 179/4/3
f 181/4/3 169/4/3 180/4/3
f 182/4/3 171/4/3 129/4/3
f 182/4/3 172/4/3 171/4/3
f 183/4/3 172/4/3 182/4/3
f 184/1/3 173/1/3 172/1/3
f 184/2/3 174/2/3 173/2/3
f 185/2/3 174/2/3 184/2/3
f 186/1/3 175/1/3 174/1/3
f 186/2/3 174/2/3 185/2/3
f 187/2/3 176/2/3 175/2/3
f 187/1/3 175/1/3 186/1/3
f 188/1/3 178/1/3 177/1/3
f 188/2/3 176/2/3 187/2/3
f 188/1/3 177/1/3 176/1/3
f 189/1/3 178/1/3 188/1/3
f 190/4/3 180/4/3 179/4/3
f 190/1/3 178/1/3 189/1/3
f 190/4/3 179/4/3 178/4/3
f 191/4/3 180/4/3 190/4/3
f 192/4/3 180/4/3 191/4/3
f 193/1/3 184/1/3 172/1/3
f 193/1/3 185/1/3 184/1/3
f 193/4/3 172/4/3 183/4/3
f 194/1/3 185/1/3 193/1/3
f 195/2/3 186/2/3 185/2/3
f 195/1/3 185/1/3 194/1/3
f 195/2/3 187/2/3 186/2/3
f 196/2/3 187/2/3 195/2/3
f 197/2/3 187/2/3 196/2/3
f 198/1/3 189/1/3 188/1/3
f 198/2/3 187/2/3 197/2/3
f 198/1/3 188/1/3 187/1/3
f 199/1/3 189/1/3 198/1/3
f 200/4/3 191/4/3 190/4/3
f 200/1/3 189/1/3 199/1/3
f 200/4/3 190/4/3 189/4/3
f 201/4/3 191/4/3 200/4/3
f 202/4/3 191/4/3 201/4/3
f 203/4/3 194/4/3 193/4/3
f 203/4/3 193/4/3 183/4/3
f 204/4/3 194/4/3 203/4/3
f 205/1/3 196/1/3 195/1/3
f 205/4/3 194/4/3 204/4/3
f 205/1/3 195/1/3 194/1/3
f 206/1/3 196/1/3 205/1/3
f 207/2/3 197/2/3 196/2/3
f 207/1/3 196/1/3 206/1/3
f 208/1/3 199/1/3 198/1/3
f 208/2/3 197/2/3 207/2/3
f 208/1/3 198/1/3 197/1/3
f 209/1/3 199/1/3 208/1/3
f 210/4/3 201/4/3 200/4/3
f 210/1/3 199/1/3 209/1/3
f 210/4/3 200/4/3 199/4/3
f 211/4/3 201/4/3 210/4/3
f 212/4/3 201/4/3 211/4/3
f 213/4/3 206/4/3 205/4/3
f 213/4/3 205/4/3 204/4/3
f 214/4/3 206/4/3 213/4/3
f 215/1/3 209/1/3 208/1/3
f 215/4/3 206/4/3 214/4/3
f 215/1/3 207/1/3 206/1/3
f 215/1/3 208/1/3 207/1/3
f 216/4/3 211/4/3 210/4/3
f 216/1/3 209/1/3 215/1/3
f 216/4/3 210/4/3 209/4/3
f 217/4/3 211/4/3 216/4/3
f 218/4/3 211/4/3 217/4/3
f 219/4/3 215/4/3 214/4/3
f 219/4/3 217/4/3 216/4/3
f 219/4/3 216/4/3 215/4/3
f 220/4/3 217/4/3 219/4/3
f 221/4/4 222/4/4 223/4/4
f 223/4/4 222/4/4 224/4/4
f 223/4/4 224/4/4 225/4/4
f 225/4/4 224/4/4 226/4/4
f 227/4/4 228/4/4 230/4/4
f 230/4/4 228/4/4 231/4/4
f 231/4/4 228/4/4 232/4/4
f 232/4/4 228/4/4 233/4/4
f 229/4/4 230/4/4 236/4/4
f 230/4/4 231/4/4 236/4/4
f 236/4/4 231/4/4 237/4/4
f 231/3/4 232/3/4 238/3/4
f 237/4/4 231/4/4 238/4/4
f 238/3/4 232/3/4 239/3/4
f 239/3/4 232/3/4 240/3/4
f 233/4/4 234/4/4 241/4/4
f 240/3/4 232/3/4 241/3/4
f 232/4/4 233/4/4 241/4/4
f 241/4/4 234/4/4 242/4/4
f 242/4/4 234/4/4 243/4/4
f 236/4/4 237/4/4 245/4/4
f 235/4/4 236/4/4 245/4/4
f 238/3/4 239/3/4 246/3/4
f 245/4/4 237/4/4 246/4/4
f 237/3/4 238/3/4 246/3/4
f 246/3/4 239/3/4 247/3/4
f 239/2/4 240/2/4 248/2/4
f 247/3/4 239/3/4 248/3/4
f 241/3/4 242/3/4 249/3/4
f 248/2/4 240/2/4 249/2/4
f 240/3/4 241/3/4 249/3/4
f 249/3/4 242/3/4 250/3/4
f 243/4/4 244/4/4 251/4/4
f 250/3/4 242/3/4 251/3/4
f 242/4/4 243/4/4 251/4/4
f 251/4/4 244/4/4 252/4/4
f 252/4/4 244/4/4 253/4/4
f 235/4/4 245/4/4 256/4/4
f 246/3/4 247/3/4 257/3/4
f 245/3/4 246/3/4 257/3/4
f 249/2/4 250/2/4 258/2/4
f 257/3/4 247/3/4 258/3/4
f 248/2/4 249/2/4 258/2/4
f 247/2/4 248/2/4 258/2/4
f 258/2/4 250/2/4 259/2/4
f 250/3/4 251/3/4 260/3/4
f 259/2/4 250/2/4 260/2/4
f 251/3/4 252/3/4 260/3/4
f 260/3/4 252/3/4 261/3/4
f 253/4/4 254/4/4 262/4/4
f 261/3/4 252/3/4 262/3/4
f 252/4/4 253/4/4 262/4/4
f 262/4/4 254/4/4 263/4/4
f 263/4/4 254/4/4 264/4/4
f 255/4/4 256/4/4 266/4/4
f 256/4/4 245/4/4 266/4/4
f 245/3/4 257/3/4 267/3/4
f 266/4/4 245/4/4 267/4/4
f 258/2/4 259/2/4 268/2/4
f 267/3/4 257/3/4 268/3/4
f 257/2/4 258/2/4 268/2/4
f 259/3/4 260/3/4 269/3/4
f 268/2/4 259/2/4 269/2/4
f 260/2/4 261/2/4 270/2/4
f 269/3/4 260/3/4 270/3/4
f 262/3/4 263/3/4 271/3/4
f 270/2/4 261/2/4 271/2/4
f 261/3/4 262/3/4 271/3/4
f 271/3/4 263/3/4 272/3/4
f 264/4/4 265/4/4 273/4/4
f 272/3/4 263/3/4 273/3/4
f 263/4/4 264/4/4 273/4/4
f 273/4/4 265/4/4 274/4/4
f 274/4/4 265/4/4 275/4/4
f 268/3/4 269/3/4 277/3/4
f 267/3/4 268/3/4 277/3/4
f 270/3/4 271/3/4 277/3/4
f 266/3/4 267/3/4 277/3/4
f 269/3/4 270/3/4 277/3/4
f 277/3/4 271/3/4 278/3/4
f 271/2/4 272/2/4 279/2/4
f 278/3/4 271/3/4 279/3/4
f 273/3/4 274/3/4 280/3/4
f 279/2/4 272/2/4 280/2/4
f 272/3/4 273/3/4 280/3/4
f 275/4/4 276/4/4 281/4/4
f 280/3/4 274/3/4 281/3/4
f 274/4/4 275/4/4 281/4/4
f 281/4/4 276/4/4 282/4/4
f 282/4/4 276/4/4 283/4/4
f 255/4/4 266/4/4 285/4/4
f 266/3/4 277/3/4 285/3/4
f 285/3/4 277/3/4 286/3/4
f 279/3/4 280/3/4 287/3/4
f 281/3/4 282/3/4 287/3/4
f 278/3/4 279/3/4 287/3/4
f 280/3/4 281/3/4 287/3/4
f 283/4/4 284/4/4 288/4/4
f 287/3/4 282/3/4 288/3/4
f 282/4/4 283/4/4 288/4/4
f 285/1/4 286/1/4 289/1/4
f 287/1/4 288/1/4 290/1/4
f 290/1/4 288/1/4 291/1/4
f 291/1/4 288/1/4 292/1/4
f 292/1/4 288/1/4 293/1/4
f 288/4/4 284/4/4 294/4/4
f 293/1/4 288/1/4 294/1/4
f 294/4/4 284/4/4 295/4/4
f 295/4/4 284/4/4 296/4/4
f 255/4/4 285/4/4 297/4/4
f 285/1/4 289/1/4 297/1/4
f 289/1/4 290/1/4 297/1/4
f 290/1/4 291/1/4 297/1/4
f 297/1/4 291/1/4 298/1/4
f 298/1/4 291/1/4 299/1/4
f 299/1/4 291/1/4 300/1/4
f 300/1/4 291/1/4 301/1/4
f 291/2/4 292/2/4 302/2/4
f 301/1/4 291/1/4 302/1/4
f 292/1/4 293/1/4 303/1/4
f 302/2/4 292/2/4 303/2/4
f 303/1/4 293/1/4 304/1/4
f 294/4/4 295/4/4 305/4/4
f 304/1/4 293/1/4 305/1/4
f 293/4/4 294/4/4 305/4/4
f 305/4/4 295/4/4 306/4/4
f 306/4/4 295/4/4 307/4/4
f 255/4/4 297/4/4 308/4/4
f 297/4/4 298/4/4 308/4/4
f 308/4/4 298/4/4 309/4/4
f 298/1/4 299/1/4 310/1/4
f 299/2/4 300/2/4 310/2/4
f 310/2/4 300/2/4 311/2/4
f 300/1/4 301/1/4 312/1/4
f 311/2/4 300/2/4 312/2/4
f 301/2/4 302/2/4 313/2/4
f 312/1/4 301/1/4 313/1/4
f 303/1/4 304/1/4 314/1/4
f 313/2/4 302/2/4 314/2/4
f 302/1/4 303/1/4 314/1/4
f 314/1/4 304/1/4 315/1/4
f 305/4/4 306/4/4 316/4/4
f 315/1/4 304/1/4 316/1/4
f 304/4/4 305/4/4 316/4/4
f 316/4/4 306/4/4 317/4/4
f 317/4/4 306/4/4 318/4/4
f 298/1/4 310/1/4 319/1/4
f 310/1/4 311/1/4 319/1/4
f 309/4/4 298/4/4 319/4/4
f 319/1/4 311/1/4 320/1/4
f 311/2/4 312/2/4 321/2/4
f 320/1/4 311/1/4 321/1/4
f 312/2/4 313/2/4 321/2/4
f 321/2/4 313/2/4 322/2/4
f 322/2/4 313/2/4 323/2/4
f 314/1/4 315/1/4 324/1/4
f 323/2/4 313/2/4 324/2/4
f 313/1/4 314/1/4 324/1/4
f 324/1/4 315/1/4 325/1/4
f 316/4/4 317/4/4 326/4/4
f 325/1/4 315/1/4 326/1/4
f 315/4/4 316/4/4 326/4/4
f 326/4/4 317/4/4 327/4/4
f 327/4/4 317/4/4 328/4/4
f 319/4/4 320/4/4 329/4/4
f 309/4/4 319/4/4 329/4/4
f 329/4/4 320/4/4 330/4/4
f 321/1/4 322/1/4 331/1/4
f 330/4/4 320/4/4 331/4/4
f 320/1/4 321/1/4 331/1/4
f 331/1/4 322/1/4 332/1/4
f 322/2/4 323/2/4 333/2/4
f 332/1/4 322/1/4 333/1/4
f 324/1/4 325/1/4 334/1/4
f 333/2/4 323/2/4 334/2/4
f 323/1/4 324/1/4 334/1/4
f 334/1/4 325/1/4 335/1/4
f 326/4/4 327/4/4 336/4/4
f 335/1/4 325/1/4 336/1/4
f 325/4/4 326/4/4 336/4/4
f 336/4/4 327/4/4 337/4/4
f 337/4/4 327/4/4 338/4/4
f 331/4/4 332/4/4 339/4/4
f 330/4/4 331/4/4 339/4/4
f 339/4/4 332/4/4 340/4/4
f 334/1/4 335/1/4 341/1/4
f 340/4/4 332/4/4 341/4/4
f 332/1/4 333/1/4 341/1/4
f 333/1/4 334/1/4 341/1/4
f 336/4/4 337/4/4 342/4/4
f 341/1/4 335/1/4 342/1/4
f 335/4/4 336/4/4 342/4/4
f 342/4/4 337/4/4 343/4/4
f 343/4/4 337/4/4 344/4/4
f 340/4/4 341/4/4 345/4/4
f 342/4/4 343/4/4 345/4/4
f 341/4/4 342/4/4 345/4/4
f 345/4/4 343/4/4 346/4/4
f 349/4/5 348/4/5 347/4/5
f 350/4/5 348/4/5 349/4/5
f 355/4/5 352/4/5 351/4/5
f 356/4/5 352/4/5 355/4/5
f 357/4/5 354/4/5 353/4/5
f 358/4/5 354/4/5 357/4/5
f 363/4/5 360/4/5 359/4/5
f 364/4/5 360/4/5 363/4/5
f 365/4/5 362/4/5 361/4/5
f 366/4/5 362/4/5 365/4/5
f 371/4/5 368/4/5 367/4/5
f 372/4/5 368/4/5 371/4/5
f 373/4/5 370/4/5 369/4/5
f 374/4/5 370/4/5 373/4/5
f 377/4/5 376/4/5 375/4/5
f 378/4/5 376/4/5 377/4/5
f 379/4/5 376/4/5 378/4/5
f 383/3/5 381/3/5 380/3/5
f 384/1/5 382/1/5 381/1/5
f 384/3/5 381/3/5 383/3/5
f 385/1/5 382/1/5 384/1/5
f 386/3/6 387/3/6 389/3/6
f 387/1/6 388/1/6 390/1/6
f 389/3/6 387/3/6 390/3/6
f 390/1/6 388/1/6 391/1/6
f 392/4/6 393/4/6 394/4/6
f 394/4/6 393/4/6 395/4/6
f 395/4/6 393/4/6 396/4/6
f 397/4/6 398/4/6 401/4/6
f 401/4/6 398/4/6 402/4/6
f 399/4/6 400/4/6 403/4/6
f 403/4/6 400/4/6 404/4/6
f 405/4/6 406/4/6 409/4/6
f 409/4/6 406/4/6 410/4/6
f 407/4/6 408/4/6 411/4/6
f 411/4/6 408/4/6 412/4/6
f 413/4/6 414/4/6 417/4/6
f 417/4/6 414/4/6 418/4/6
f 415/4/6 416/4/6 419/4/6
f 419/4/6 416/4/6 420/4/6
f 421/4/6 422/4/6 425/4/6
f 425/4/6 422/4/6 426/4/6
f 423/4/6 424/4/6 427/4/6
f 427/4/6 424/4/6 428/4/6
f 429/4/6 430/4/6 433/4/6
f 433/4/6 430/4/6 434/4/6
f 431/4/6 432/4/6 435/4/6
f 435/4/6 432/4/6 436/4/6
f 437/4/6 438/4/6 441/4/6
f 441/4/6 438/4/6 442/4/6
f 439/4/6 440/4/6 443/4/6
f 443/4/6 440/4/6 444/4/6
f 445/4/6 446/4/6 447/4/6
f 447/4/6 446/4/6 448/4/6
