# MagicaVoxel @ Ephtracy

# group
o banner_1_2_3_sh_color

# material
mtllib char-18-banner_1_2_3_sh_color.mtl
usemtl palette

# normals
vn 0 0 -1
vn 0 0 1
vn 0 1 0
vn 0 -1 0
vn -1 0 0
vn 1 0 0

# texcoords
vt 0.466797 0.5
vt 0.494141 0.5
vt 0.607422 0.5
vt 0.794922 0.5
vt 0.916016 0.5
vt 0.958984 0.5
vt 0.966797 0.5

# verts
v 0.4 6.1 0.5
v 0.4 6 0.5
v 0.5 6.4 0.5
v 0.5 6.1 0.5
v 0.5 6 0.5
v 0.5 5.9 0.5
v 0.5 5.8 0.5
v 0.5 0 0.5
v 0.6 6.4 0.5
v 0.6 6.1 0.5
v 0.6 6 0.5
v 0.6 5.9 0.5
v 0.6 5.8 0.5
v 0.6 0 0.5
v 0.7 6.1 0.5
v 0.7 6 0.5
v -0.1 5.9 0.6
v -0.1 4.1 0.6
v -0.1 3.9 0.6
v -0.1 3.7 0.6
v -4.47035e-08 5.9 0.6
v -4.47035e-08 5.8 0.6
v -4.47035e-08 5.7 0.6
v -4.47035e-08 4.2 0.6
v -4.47035e-08 4.1 0.6
v -4.47035e-08 3.9 0.6
v -4.47035e-08 3.7 0.6
v 0.1 5 0.6
v 0.1 4.9 0.6
v 0.1 4.1 0.6
v 0.1 3.9 0.6
v 0.1 3.7 0.6
v 0.2 5.2 0.6
v 0.2 5 0.6
v 0.2 4.9 0.6
v 0.2 4.7 0.6
v 0.2 4.1 0.6
v 0.2 3.9 0.6
v 0.2 3.7 0.6
v 0.3 5.9 0.6
v 0.3 5.8 0.6
v 0.3 5.5 0.6
v 0.3 5.4 0.6
v 0.3 5.3 0.6
v 0.3 5.2 0.6
v 0.3 5 0.6
v 0.3 4.9 0.6
v 0.3 4.7 0.6
v 0.3 4.6 0.6
v 0.3 4.5 0.6
v 0.3 4.4 0.6
v 0.3 4.1 0.6
v 0.3 3.9 0.6
v 0.3 3.7 0.6
v 0.4 5.9 0.6
v 0.4 5.8 0.6
v 0.4 5.6 0.6
v 0.4 5.5 0.6
v 0.4 5.4 0.6
v 0.4 5.3 0.6
v 0.4 5.2 0.6
v 0.4 5.1 0.6
v 0.4 4.8 0.6
v 0.4 4.7 0.6
v 0.4 4.6 0.6
v 0.4 4.5 0.6
v 0.4 4.4 0.6
v 0.4 4.3 0.6
v 0.4 4.1 0.6
v 0.4 3.9 0.6
v 0.4 3.7 0.6
v 0.5 5.9 0.6
v 0.5 5.8 0.6
v 0.5 5.7 0.6
v 0.5 5.6 0.6
v 0.5 5.5 0.6
v 0.5 5.4 0.6
v 0.5 5.3 0.6
v 0.5 5.1 0.6
v 0.5 4.8 0.6
v 0.5 4.6 0.6
v 0.5 4.5 0.6
v 0.5 4.4 0.6
v 0.5 4.3 0.6
v 0.5 4.2 0.6
v 0.5 4.1 0.6
v 0.6 5.9 0.6
v 0.6 5.8 0.6
v 0.6 5.7 0.6
v 0.6 5.6 0.6
v 0.6 5.5 0.6
v 0.6 5.4 0.6
v 0.6 5.3 0.6
v 0.6 5.1 0.6
v 0.6 5 0.6
v 0.6 4.9 0.6
v 0.6 4.8 0.6
v 0.6 4.6 0.6
v 0.6 4.5 0.6
v 0.6 4.4 0.6
v 0.6 4.3 0.6
v 0.6 4.2 0.6
v 0.6 4.1 0.6
v 0.7 5.9 0.6
v 0.7 5.8 0.6
v 0.7 5.6 0.6
v 0.7 5.5 0.6
v 0.7 5.4 0.6
v 0.7 5.3 0.6
v 0.7 5.2 0.6
v 0.7 5.1 0.6
v 0.7 5 0.6
v 0.7 4.9 0.6
v 0.7 4.8 0.6
v 0.7 4.7 0.6
v 0.7 4.6 0.6
v 0.7 4.5 0.6
v 0.7 4.4 0.6
v 0.7 4.3 0.6
v 0.7 4.1 0.6
v 0.7 3.9 0.6
v 0.7 3.7 0.6
v 0.8 5.9 0.6
v 0.8 5.8 0.6
v 0.8 5.5 0.6
v 0.8 5.4 0.6
v 0.8 5.3 0.6
v 0.8 5.2 0.6
v 0.8 5 0.6
v 0.8 4.9 0.6
v 0.8 4.7 0.6
v 0.8 4.6 0.6
v 0.8 4.5 0.6
v 0.8 4.4 0.6
v 0.8 4.1 0.6
v 0.8 3.9 0.6
v 0.8 3.7 0.6
v 0.9 5.2 0.6
v 0.9 5 0.6
v 0.9 4.9 0.6
v 0.9 4.7 0.6
v 0.9 4.1 0.6
v 0.9 3.9 0.6
v 0.9 3.7 0.6
v 1 5 0.6
v 1 4.9 0.6
v 1 4.1 0.6
v 1 3.9 0.6
v 1 3.7 0.6
v 1.1 5.9 0.6
v 1.1 5.8 0.6
v 1.1 5.7 0.6
v 1.1 4.2 0.6
v 1.1 4.1 0.6
v 1.1 3.9 0.6
v 1.1 3.7 0.6
v 1.2 5.9 0.6
v 1.2 4.1 0.6
v 1.2 3.9 0.6
v 1.2 3.7 0.6
v 0.4 6.1 0.6
v 0.4 6 0.6
v 0.5 6.4 0.6
v 0.5 6.1 0.6
v 0.5 6 0.6
v 0.5 5.9 0.6
v 0.5 3.7 0.6
v 0.5 0 0.6
v 0.6 6.4 0.6
v 0.6 6.1 0.6
v 0.6 6 0.6
v 0.6 5.9 0.6
v 0.6 3.7 0.6
v 0.6 0 0.6
v 0.7 6.1 0.6
v 0.7 6 0.6
v -0.1 5.9 0.7
v -0.1 4.1 0.7
v -0.1 3.9 0.7
v -0.1 3.7 0.7
v -4.47035e-08 5.9 0.7
v -4.47035e-08 5.8 0.7
v -4.47035e-08 5.7 0.7
v -4.47035e-08 4.2 0.7
v -4.47035e-08 4.1 0.7
v -4.47035e-08 3.9 0.7
v -4.47035e-08 3.7 0.7
v 0.1 5 0.7
v 0.1 4.9 0.7
v 0.1 4.1 0.7
v 0.1 3.9 0.7
v 0.1 3.7 0.7
v 0.2 5.2 0.7
v 0.2 5 0.7
v 0.2 4.9 0.7
v 0.2 4.7 0.7
v 0.2 4.1 0.7
v 0.2 3.9 0.7
v 0.2 3.7 0.7
v 0.3 5.9 0.7
v 0.3 5.8 0.7
v 0.3 5.5 0.7
v 0.3 5.4 0.7
v 0.3 5.3 0.7
v 0.3 5.2 0.7
v 0.3 5 0.7
v 0.3 4.9 0.7
v 0.3 4.7 0.7
v 0.3 4.6 0.7
v 0.3 4.5 0.7
v 0.3 4.4 0.7
v 0.3 4.1 0.7
v 0.3 3.9 0.7
v 0.3 3.7 0.7
v 0.4 5.9 0.7
v 0.4 5.8 0.7
v 0.4 5.6 0.7
v 0.4 5.5 0.7
v 0.4 5.4 0.7
v 0.4 5.3 0.7
v 0.4 5.2 0.7
v 0.4 5.1 0.7
v 0.4 4.8 0.7
v 0.4 4.7 0.7
v 0.4 4.6 0.7
v 0.4 4.5 0.7
v 0.4 4.4 0.7
v 0.4 4.3 0.7
v 0.4 4.1 0.7
v 0.4 3.9 0.7
v 0.4 3.7 0.7
v 0.5 5.7 0.7
v 0.5 5.6 0.7
v 0.5 5.5 0.7
v 0.5 5.2 0.7
v 0.5 5.1 0.7
v 0.5 4.8 0.7
v 0.5 4.7 0.7
v 0.5 4.5 0.7
v 0.5 4.4 0.7
v 0.5 4.3 0.7
v 0.5 4.2 0.7
v 0.5 4.1 0.7
v 0.5 3.9 0.7
v 0.5 3.7 0.7
v 0.6 5.7 0.7
v 0.6 5.6 0.7
v 0.6 5.5 0.7
v 0.6 5.2 0.7
v 0.6 5.1 0.7
v 0.6 5 0.7
v 0.6 4.9 0.7
v 0.6 4.8 0.7
v 0.6 4.7 0.7
v 0.6 4.5 0.7
v 0.6 4.4 0.7
v 0.6 4.3 0.7
v 0.6 4.2 0.7
v 0.6 4.1 0.7
v 0.6 3.9 0.7
v 0.6 3.7 0.7
v 0.7 5.9 0.7
v 0.7 5.8 0.7
v 0.7 5.6 0.7
v 0.7 5.5 0.7
v 0.7 5.4 0.7
v 0.7 5.3 0.7
v 0.7 5.2 0.7
v 0.7 5.1 0.7
v 0.7 5 0.7
v 0.7 4.9 0.7
v 0.7 4.8 0.7
v 0.7 4.7 0.7
v 0.7 4.6 0.7
v 0.7 4.5 0.7
v 0.7 4.4 0.7
v 0.7 4.3 0.7
v 0.7 4.1 0.7
v 0.7 3.9 0.7
v 0.7 3.7 0.7
v 0.8 5.9 0.7
v 0.8 5.8 0.7
v 0.8 5.5 0.7
v 0.8 5.4 0.7
v 0.8 5.3 0.7
v 0.8 5.2 0.7
v 0.8 5 0.7
v 0.8 4.9 0.7
v 0.8 4.7 0.7
v 0.8 4.6 0.7
v 0.8 4.5 0.7
v 0.8 4.4 0.7
v 0.8 4.1 0.7
v 0.8 3.9 0.7
v 0.8 3.7 0.7
v 0.9 5.2 0.7
v 0.9 5 0.7
v 0.9 4.9 0.7
v 0.9 4.7 0.7
v 0.9 4.1 0.7
v 0.9 3.9 0.7
v 0.9 3.7 0.7
v 1 5 0.7
v 1 4.9 0.7
v 1 4.1 0.7
v 1 3.9 0.7
v 1 3.7 0.7
v 1.1 5.9 0.7
v 1.1 5.8 0.7
v 1.1 5.7 0.7
v 1.1 4.2 0.7
v 1.1 4.1 0.7
v 1.1 3.9 0.7
v 1.1 3.7 0.7
v 1.2 5.9 0.7
v 1.2 4.1 0.7
v 1.2 3.9 0.7
v 1.2 3.7 0.7
v 0.5 6.4 0.5
v 0.6 6.4 0.5
v 0.5 6.4 0.6
v 0.6 6.4 0.6
v 0.4 6.1 0.5
v 0.5 6.1 0.5
v 0.6 6.1 0.5
v 0.7 6.1 0.5
v 0.4 6.1 0.6
v 0.5 6.1 0.6
v 0.6 6.1 0.6
v 0.7 6.1 0.6
v -0.1 5.9 0.6
v -4.47035e-08 5.9 0.6
v 0.3 5.9 0.6
v 0.4 5.9 0.6
v 0.5 5.9 0.6
v 0.6 5.9 0.6
v 0.7 5.9 0.6
v 0.8 5.9 0.6
v 1.1 5.9 0.6
v 1.2 5.9 0.6
v -0.1 5.9 0.7
v -4.47035e-08 5.9 0.7
v 0.3 5.9 0.7
v 0.4 5.9 0.7
v 0.7 5.9 0.7
v 0.8 5.9 0.7
v 1.1 5.9 0.7
v 1.2 5.9 0.7
v 0.4 6 0.5
v 0.5 6 0.5
v 0.6 6 0.5
v 0.7 6 0.5
v 0.4 6 0.6
v 0.5 6 0.6
v 0.6 6 0.6
v 0.7 6 0.6
v -4.47035e-08 4.1 0.6
v 0.1 4.1 0.6
v 0.2 4.1 0.6
v 0.3 4.1 0.6
v 0.4 4.1 0.6
v 0.5 4.1 0.6
v 0.6 4.1 0.6
v 0.7 4.1 0.6
v 0.8 4.1 0.6
v 0.9 4.1 0.6
v 1 4.1 0.6
v 1.1 4.1 0.6
v -4.47035e-08 4.1 0.7
v 0.1 4.1 0.7
v 0.2 4.1 0.7
v 0.3 4.1 0.7
v 0.4 4.1 0.7
v 0.5 4.1 0.7
v 0.6 4.1 0.7
v 0.7 4.1 0.7
v 0.8 4.1 0.7
v 0.9 4.1 0.7
v 1 4.1 0.7
v 1.1 4.1 0.7
v -0.1 3.7 0.6
v -4.47035e-08 3.7 0.6
v 0.1 3.7 0.6
v 0.2 3.7 0.6
v 0.3 3.7 0.6
v 0.4 3.7 0.6
v 0.5 3.7 0.6
v 0.6 3.7 0.6
v 0.7 3.7 0.6
v 0.8 3.7 0.6
v 0.9 3.7 0.6
v 1 3.7 0.6
v 1.1 3.7 0.6
v 1.2 3.7 0.6
v -0.1 3.7 0.7
v -4.47035e-08 3.7 0.7
v 0.1 3.7 0.7
v 0.2 3.7 0.7
v 0.3 3.7 0.7
v 0.4 3.7 0.7
v 0.5 3.7 0.7
v 0.6 3.7 0.7
v 0.7 3.7 0.7
v 0.8 3.7 0.7
v 0.9 3.7 0.7
v 1 3.7 0.7
v 1.1 3.7 0.7
v 1.2 3.7 0.7
v 0.5 0 0.5
v 0.6 0 0.5
v 0.5 0 0.6
v 0.6 0 0.6
v -0.1 5.9 0.6
v -0.1 5.9 0.7
v -0.1 4.1 0.6
v -0.1 4.1 0.7
v -0.1 3.9 0.6
v -0.1 3.9 0.7
v -0.1 3.7 0.6
v -0.1 3.7 0.7
v 0.1 4.1 0.6
v 0.1 4.1 0.7
v 0.1 3.9 0.6
v 0.1 3.9 0.7
v 0.1 3.7 0.6
v 0.1 3.7 0.7
v 0.3 4.1 0.6
v 0.3 4.1 0.7
v 0.3 3.9 0.6
v 0.3 3.9 0.7
v 0.3 3.7 0.6
v 0.3 3.7 0.7
v 0.4 6.1 0.5
v 0.4 6.1 0.6
v 0.4 6 0.5
v 0.4 6 0.6
v 0.5 6.4 0.5
v 0.5 6.4 0.6
v 0.5 6.1 0.5
v 0.5 6.1 0.6
v 0.5 6 0.5
v 0.5 6 0.6
v 0.5 5.9 0.5
v 0.5 5.9 0.6
v 0.5 5.8 0.5
v 0.5 5.8 0.6
v 0.5 5.7 0.6
v 0.5 5.6 0.6
v 0.5 5.5 0.6
v 0.5 5.4 0.6
v 0.5 5.3 0.6
v 0.5 5.1 0.6
v 0.5 4.8 0.6
v 0.5 4.6 0.6
v 0.5 4.5 0.6
v 0.5 4.4 0.6
v 0.5 4.3 0.6
v 0.5 4.2 0.6
v 0.5 4.1 0.6
v 0.5 4.1 0.7
v 0.5 3.9 0.6
v 0.5 3.9 0.7
v 0.5 3.7 0.6
v 0.5 3.7 0.7
v 0.5 0 0.5
v 0.5 0 0.6
v 0.7 4.1 0.6
v 0.7 4.1 0.7
v 0.7 3.9 0.6
v 0.7 3.9 0.7
v 0.7 3.7 0.6
v 0.7 3.7 0.7
v 0.9 4.1 0.6
v 0.9 4.1 0.7
v 0.9 3.9 0.6
v 0.9 3.9 0.7
v 0.9 3.7 0.6
v 0.9 3.7 0.7
v 1.1 4.1 0.6
v 1.1 4.1 0.7
v 1.1 3.9 0.6
v 1.1 3.9 0.7
v 1.1 3.7 0.6
v 1.1 3.7 0.7
v -4.47035e-08 4.1 0.6
v -4.47035e-08 4.1 0.7
v -4.47035e-08 3.9 0.6
v -4.47035e-08 3.9 0.7
v -4.47035e-08 3.7 0.6
v -4.47035e-08 3.7 0.7
v 0.2 4.1 0.6
v 0.2 4.1 0.7
v 0.2 3.9 0.6
v 0.2 3.9 0.7
v 0.2 3.7 0.6
v 0.2 3.7 0.7
v 0.4 4.1 0.6
v 0.4 4.1 0.7
v 0.4 3.9 0.6
v 0.4 3.9 0.7
v 0.4 3.7 0.6
v 0.4 3.7 0.7
v 0.6 6.4 0.5
v 0.6 6.4 0.6
v 0.6 6.1 0.5
v 0.6 6.1 0.6
v 0.6 6 0.5
v 0.6 6 0.6
v 0.6 5.9 0.5
v 0.6 5.9 0.6
v 0.6 5.8 0.5
v 0.6 5.8 0.6
v 0.6 5.7 0.6
v 0.6 5.6 0.6
v 0.6 5.5 0.6
v 0.6 5.4 0.6
v 0.6 5.3 0.6
v 0.6 5.1 0.6
v 0.6 5 0.6
v 0.6 4.9 0.6
v 0.6 4.8 0.6
v 0.6 4.6 0.6
v 0.6 4.5 0.6
v 0.6 4.4 0.6
v 0.6 4.3 0.6
v 0.6 4.2 0.6
v 0.6 4.1 0.6
v 0.6 4.1 0.7
v 0.6 3.9 0.6
v 0.6 3.9 0.7
v 0.6 3.7 0.6
v 0.6 3.7 0.7
v 0.6 0 0.5
v 0.6 0 0.6
v 0.7 6.1 0.5
v 0.7 6.1 0.6
v 0.7 6 0.5
v 0.7 6 0.6
v 0.8 4.1 0.6
v 0.8 4.1 0.7
v 0.8 3.9 0.6
v 0.8 3.9 0.7
v 0.8 3.7 0.6
v 0.8 3.7 0.7
v 1 4.1 0.6
v 1 4.1 0.7
v 1 3.9 0.6
v 1 3.9 0.7
v 1 3.7 0.6
v 1 3.7 0.7
v 1.2 5.9 0.6
v 1.2 5.9 0.7
v 1.2 4.1 0.6
v 1.2 4.1 0.7
v 1.2 3.9 0.6
v 1.2 3.9 0.7
v 1.2 3.7 0.6
v 1.2 3.7 0.7

# faces
f 4/7/1 2/7/1 1/7/1
f 5/7/1 2/7/1 4/7/1
f 9/7/1 4/7/1 3/7/1
f 10/6/1 5/6/1 4/6/1
f 10/7/1 4/7/1 9/7/1
f 10/6/1 6/6/1 5/6/1
f 11/6/1 6/6/1 10/6/1
f 12/2/1 7/2/1 6/2/1
f 12/6/1 6/6/1 11/6/1
f 13/4/1 8/4/1 7/4/1
f 13/2/1 7/2/1 12/2/1
f 14/4/1 8/4/1 13/4/1
f 15/7/1 11/7/1 10/7/1
f 16/7/1 11/7/1 15/7/1
f 21/5/1 18/5/1 17/5/1
f 22/5/1 18/5/1 21/5/1
f 23/5/1 18/5/1 22/5/1
f 24/5/1 18/5/1 23/5/1
f 25/2/1 19/2/1 18/2/1
f 25/5/1 18/5/1 24/5/1
f 26/5/1 20/5/1 19/5/1
f 26/2/1 19/2/1 25/2/1
f 27/5/1 20/5/1 26/5/1
f 28/1/1 24/1/1 23/1/1
f 29/1/1 24/1/1 28/1/1
f 30/5/1 25/5/1 24/5/1
f 33/1/1 28/1/1 23/1/1
f 34/5/1 29/5/1 28/5/1
f 34/1/1 28/1/1 33/1/1
f 35/1/1 24/1/1 29/1/1
f 35/5/1 29/5/1 34/5/1
f 36/1/1 24/1/1 35/1/1
f 37/5/1 30/5/1 24/5/1
f 37/2/1 31/2/1 30/2/1
f 38/5/1 32/5/1 31/5/1
f 38/2/1 31/2/1 37/2/1
f 39/5/1 32/5/1 38/5/1
f 40/2/1 22/2/1 21/2/1
f 41/5/1 23/5/1 22/5/1
f 41/2/1 22/2/1 40/2/1
f 42/1/1 33/1/1 23/1/1
f 43/1/1 33/1/1 42/1/1
f 44/1/1 33/1/1 43/1/1
f 45/5/1 34/5/1 33/5/1
f 45/1/1 33/1/1 44/1/1
f 46/2/1 35/2/1 34/2/1
f 46/5/1 34/5/1 45/5/1
f 47/5/1 36/5/1 35/5/1
f 47/2/1 35/2/1 46/2/1
f 48/1/1 24/1/1 36/1/1
f 48/5/1 36/5/1 47/5/1
f 49/1/1 24/1/1 48/1/1
f 50/1/1 24/1/1 49/1/1
f 51/1/1 24/1/1 50/1/1
f 52/5/1 37/5/1 24/5/1
f 55/5/1 41/5/1 40/5/1
f 56/5/1 23/5/1 41/5/1
f 56/5/1 41/5/1 55/5/1
f 57/1/1 42/1/1 23/1/1
f 58/5/1 43/5/1 42/5/1
f 58/1/1 42/1/1 57/1/1
f 59/1/1 44/1/1 43/1/1
f 59/5/1 43/5/1 58/5/1
f 60/5/1 45/5/1 44/5/1
f 60/1/1 44/1/1 59/1/1
f 61/2/1 47/2/1 46/2/1
f 61/5/1 45/5/1 60/5/1
f 61/2/1 46/2/1 45/2/1
f 61/2/1 48/2/1 47/2/1
f 62/2/1 48/2/1 61/2/1
f 63/2/1 48/2/1 62/2/1
f 64/5/1 49/5/1 48/5/1
f 64/2/1 48/2/1 63/2/1
f 65/1/1 50/1/1 49/1/1
f 65/5/1 49/5/1 64/5/1
f 66/5/1 51/5/1 50/5/1
f 66/1/1 50/1/1 65/1/1
f 67/1/1 24/1/1 51/1/1
f 67/5/1 51/5/1 66/5/1
f 68/1/1 24/1/1 67/1/1
f 69/2/1 53/2/1 52/2/1
f 69/5/1 52/5/1 24/5/1
f 70/5/1 54/5/1 53/5/1
f 70/2/1 53/2/1 69/2/1
f 71/5/1 54/5/1 70/5/1
f 72/2/1 56/2/1 55/2/1
f 73/5/1 23/5/1 56/5/1
f 73/2/1 56/2/1 72/2/1
f 74/1/1 57/1/1 23/1/1
f 74/5/1 23/5/1 73/5/1
f 75/5/1 58/5/1 57/5/1
f 75/1/1 57/1/1 74/1/1
f 76/2/1 59/2/1 58/2/1
f 76/5/1 58/5/1 75/5/1
f 77/5/1 60/5/1 59/5/1
f 77/2/1 59/2/1 76/2/1
f 78/2/1 61/2/1 60/2/1
f 78/5/1 60/5/1 77/5/1
f 78/2/1 62/2/1 61/2/1
f 79/3/1 63/3/1 62/3/1
f 79/2/1 62/2/1 78/2/1
f 80/2/1 64/2/1 63/2/1
f 80/3/1 63/3/1 79/3/1
f 80/2/1 65/2/1 64/2/1
f 81/5/1 66/5/1 65/5/1
f 81/2/1 65/2/1 80/2/1
f 82/2/1 67/2/1 66/2/1
f 82/5/1 66/5/1 81/5/1
f 83/5/1 68/5/1 67/5/1
f 83/2/1 67/2/1 82/2/1
f 84/1/1 24/1/1 68/1/1
f 84/5/1 68/5/1 83/5/1
f 85/5/1 69/5/1 24/5/1
f 85/1/1 24/1/1 84/1/1
f 86/5/1 69/5/1 85/5/1
f 104/2/1 88/2/1 87/2/1
f 105/5/1 89/5/1 88/5/1
f 105/2/1 88/2/1 104/2/1
f 106/1/1 90/1/1 89/1/1
f 106/5/1 91/5/1 90/5/1
f 107/2/1 92/2/1 91/2/1
f 107/5/1 91/5/1 106/5/1
f 108/5/1 93/5/1 92/5/1
f 108/2/1 92/2/1 107/2/1
f 109/2/1 94/2/1 93/2/1
f 109/5/1 93/5/1 108/5/1
f 110/2/1 94/2/1 109/2/1
f 111/1/1 95/1/1 94/1/1
f 111/2/1 94/2/1 110/2/1
f 112/3/1 96/3/1 95/3/1
f 112/1/1 95/1/1 111/1/1
f 113/1/1 97/1/1 96/1/1
f 113/3/1 96/3/1 112/3/1
f 114/2/1 98/2/1 97/2/1
f 114/1/1 97/1/1 113/1/1
f 115/2/1 98/2/1 114/2/1
f 116/5/1 99/5/1 98/5/1
f 116/2/1 98/2/1 115/2/1
f 117/2/1 100/2/1 99/2/1
f 117/5/1 99/5/1 116/5/1
f 118/5/1 101/5/1 100/5/1
f 118/2/1 100/2/1 117/2/1
f 119/1/1 102/1/1 101/1/1
f 119/5/1 101/5/1 118/5/1
f 120/5/1 103/5/1 102/5/1
f 123/5/1 105/5/1 104/5/1
f 124/5/1 89/5/1 105/5/1
f 124/5/1 105/5/1 123/5/1
f 125/1/1 107/1/1 106/1/1
f 125/5/1 108/5/1 107/5/1
f 126/1/1 109/1/1 108/1/1
f 126/5/1 108/5/1 125/5/1
f 127/5/1 110/5/1 109/5/1
f 127/1/1 109/1/1 126/1/1
f 128/2/1 111/2/1 110/2/1
f 128/5/1 110/5/1 127/5/1
f 128/2/1 112/2/1 111/2/1
f 128/2/1 113/2/1 112/2/1
f 128/2/1 115/2/1 114/2/1
f 128/2/1 114/2/1 113/2/1
f 129/2/1 115/2/1 128/2/1
f 130/2/1 115/2/1 129/2/1
f 131/5/1 116/5/1 115/5/1
f 131/2/1 115/2/1 130/2/1
f 132/1/1 117/1/1 116/1/1
f 132/5/1 116/5/1 131/5/1
f 133/5/1 118/5/1 117/5/1
f 133/1/1 117/1/1 132/1/1
f 134/1/1 119/1/1 118/1/1
f 134/5/1 118/5/1 133/5/1
f 135/5/1 120/5/1 102/5/1
f 135/2/1 121/2/1 120/2/1
f 136/5/1 122/5/1 121/5/1
f 136/2/1 121/2/1 135/2/1
f 137/5/1 122/5/1 136/5/1
f 138/1/1 126/1/1 125/1/1
f 138/1/1 127/1/1 126/1/1
f 138/5/1 129/5/1 128/5/1
f 138/1/1 128/1/1 127/1/1
f 139/2/1 130/2/1 129/2/1
f 139/5/1 129/5/1 138/5/1
f 140/5/1 131/5/1 130/5/1
f 140/2/1 130/2/1 139/2/1
f 141/1/1 132/1/1 131/1/1
f 141/5/1 131/5/1 140/5/1
f 141/1/1 134/1/1 133/1/1
f 141/1/1 133/1/1 132/1/1
f 142/5/1 135/5/1 102/5/1
f 145/5/1 140/5/1 139/5/1
f 145/1/1 139/1/1 138/1/1
f 146/1/1 141/1/1 140/1/1
f 146/5/1 140/5/1 145/5/1
f 147/2/1 143/2/1 142/2/1
f 147/5/1 142/5/1 102/5/1
f 148/5/1 144/5/1 143/5/1
f 148/2/1 143/2/1 147/2/1
f 149/5/1 144/5/1 148/5/1
f 150/2/1 124/2/1 123/2/1
f 151/5/1 89/5/1 124/5/1
f 151/2/1 124/2/1 150/2/1
f 152/1/1 106/1/1 89/1/1
f 152/5/1 89/5/1 151/5/1
f 152/1/1 138/1/1 125/1/1
f 152/1/1 146/1/1 145/1/1
f 152/1/1 145/1/1 138/1/1
f 152/1/1 125/1/1 106/1/1
f 153/1/1 119/1/1 134/1/1
f 153/1/1 146/1/1 152/1/1
f 153/1/1 102/1/1 119/1/1
f 153/1/1 141/1/1 146/1/1
f 153/5/1 147/5/1 102/5/1
f 153/1/1 134/1/1 141/1/1
f 154/5/1 147/5/1 153/5/1
f 157/5/1 152/5/1 151/5/1
f 157/5/1 151/5/1 150/5/1
f 157/5/1 153/5/1 152/5/1
f 157/5/1 154/5/1 153/5/1
f 158/2/1 155/2/1 154/2/1
f 158/5/1 154/5/1 157/5/1
f 159/5/1 156/5/1 155/5/1
f 159/2/1 155/2/1 158/2/1
f 160/5/1 156/5/1 159/5/1
f 161/7/2 162/7/2 164/7/2
f 164/7/2 162/7/2 165/7/2
f 163/7/2 164/7/2 169/7/2
f 164/6/2 165/6/2 170/6/2
f 169/7/2 164/7/2 170/7/2
f 165/6/2 166/6/2 170/6/2
f 170/6/2 166/6/2 171/6/2
f 171/6/2 166/6/2 172/6/2
f 167/4/2 168/4/2 173/4/2
f 173/4/2 168/4/2 174/4/2
f 170/7/2 171/7/2 175/7/2
f 175/7/2 171/7/2 176/7/2
f 177/5/2 178/5/2 181/5/2
f 181/5/2 178/5/2 182/5/2
f 182/5/2 178/5/2 183/5/2
f 183/5/2 178/5/2 184/5/2
f 178/2/2 179/2/2 185/2/2
f 184/5/2 178/5/2 185/5/2
f 179/5/2 180/5/2 186/5/2
f 185/2/2 179/2/2 186/2/2
f 186/5/2 180/5/2 187/5/2
f 183/1/2 184/1/2 188/1/2
f 188/1/2 184/1/2 189/1/2
f 184/5/2 185/5/2 190/5/2
f 183/1/2 188/1/2 193/1/2
f 188/5/2 189/5/2 194/5/2
f 193/1/2 188/1/2 194/1/2
f 189/1/2 184/1/2 195/1/2
f 194/5/2 189/5/2 195/5/2
f 195/1/2 184/1/2 196/1/2
f 184/5/2 190/5/2 197/5/2
f 190/2/2 191/2/2 197/2/2
f 191/5/2 192/5/2 198/5/2
f 197/2/2 191/2/2 198/2/2
f 198/5/2 192/5/2 199/5/2
f 181/2/2 182/2/2 200/2/2
f 182/5/2 183/5/2 201/5/2
f 200/2/2 182/2/2 201/2/2
f 183/1/2 193/1/2 202/1/2
f 202/1/2 193/1/2 203/1/2
f 203/1/2 193/1/2 204/1/2
f 193/5/2 194/5/2 205/5/2
f 204/1/2 193/1/2 205/1/2
f 194/2/2 195/2/2 206/2/2
f 205/5/2 194/5/2 206/5/2
f 195/5/2 196/5/2 207/5/2
f 206/2/2 195/2/2 207/2/2
f 196/1/2 184/1/2 208/1/2
f 207/5/2 196/5/2 208/5/2
f 208/1/2 184/1/2 209/1/2
f 209/1/2 184/1/2 210/1/2
f 210/1/2 184/1/2 211/1/2
f 184/5/2 197/5/2 212/5/2
f 200/5/2 201/5/2 215/5/2
f 201/5/2 183/5/2 216/5/2
f 215/5/2 201/5/2 216/5/2
f 183/1/2 202/1/2 217/1/2
f 202/5/2 203/5/2 218/5/2
f 217/1/2 202/1/2 218/1/2
f 203/1/2 204/1/2 219/1/2
f 218/5/2 203/5/2 219/5/2
f 204/5/2 205/5/2 220/5/2
f 219/1/2 204/1/2 220/1/2
f 206/2/2 207/2/2 221/2/2
f 220/5/2 205/5/2 221/5/2
f 205/2/2 206/2/2 221/2/2
f 207/2/2 208/2/2 221/2/2
f 221/2/2 208/2/2 222/2/2
f 222/2/2 208/2/2 223/2/2
f 208/5/2 209/5/2 224/5/2
f 223/2/2 208/2/2 224/2/2
f 209/1/2 210/1/2 225/1/2
f 224/5/2 209/5/2 225/5/2
f 210/5/2 211/5/2 226/5/2
f 225/1/2 210/1/2 226/1/2
f 211/1/2 184/1/2 227/1/2
f 226/5/2 211/5/2 227/5/2
f 227/1/2 184/1/2 228/1/2
f 212/2/2 213/2/2 229/2/2
f 184/5/2 212/5/2 229/5/2
f 213/5/2 214/5/2 230/5/2
f 229/2/2 213/2/2 230/2/2
f 230/5/2 214/5/2 231/5/2
f 216/5/2 183/5/2 232/5/2
f 183/1/2 217/1/2 232/1/2
f 217/5/2 218/5/2 233/5/2
f 232/1/2 217/1/2 233/1/2
f 218/2/2 219/2/2 234/2/2
f 233/5/2 218/5/2 234/5/2
f 220/2/2 221/2/2 235/2/2
f 221/2/2 222/2/2 235/2/2
f 222/3/2 223/3/2 236/3/2
f 235/2/2 222/2/2 236/2/2
f 223/2/2 224/2/2 237/2/2
f 236/3/2 223/3/2 237/3/2
f 224/2/2 225/2/2 237/2/2
f 237/2/2 225/2/2 238/2/2
f 225/5/2 226/5/2 239/5/2
f 226/2/2 227/2/2 239/2/2
f 227/5/2 228/5/2 240/5/2
f 239/2/2 227/2/2 240/2/2
f 228/1/2 184/1/2 241/1/2
f 240/5/2 228/5/2 241/5/2
f 184/5/2 229/5/2 242/5/2
f 241/1/2 184/1/2 242/1/2
f 242/5/2 229/5/2 243/5/2
f 216/5/2 232/5/2 246/5/2
f 232/5/2 233/5/2 246/5/2
f 233/2/2 234/2/2 247/2/2
f 246/5/2 233/5/2 247/5/2
f 234/2/2 219/2/2 248/2/2
f 247/2/2 234/2/2 248/2/2
f 220/2/2 235/2/2 249/2/2
f 235/3/2 236/3/2 249/3/2
f 236/1/2 237/1/2 250/1/2
f 249/3/2 236/3/2 250/3/2
f 250/1/2 237/1/2 251/1/2
f 251/1/2 237/1/2 252/1/2
f 237/3/2 238/3/2 253/3/2
f 252/1/2 237/1/2 253/1/2
f 238/2/2 225/2/2 254/2/2
f 253/3/2 238/3/2 254/3/2
f 239/1/2 240/1/2 255/1/2
f 225/5/2 239/5/2 255/5/2
f 240/2/2 241/2/2 256/2/2
f 255/1/2 240/1/2 256/1/2
f 241/5/2 242/5/2 257/5/2
f 256/2/2 241/2/2 257/2/2
f 242/5/2 243/5/2 257/5/2
f 257/5/2 243/5/2 258/5/2
f 243/2/2 244/2/2 259/2/2
f 258/5/2 243/5/2 259/5/2
f 244/5/2 245/5/2 260/5/2
f 259/2/2 244/2/2 260/2/2
f 260/5/2 245/5/2 261/5/2
f 215/2/2 216/2/2 262/2/2
f 216/5/2 246/5/2 263/5/2
f 262/2/2 216/2/2 263/2/2
f 247/5/2 248/5/2 264/5/2
f 246/1/2 247/1/2 264/1/2
f 248/2/2 219/2/2 265/2/2
f 264/5/2 248/5/2 265/5/2
f 219/5/2 220/5/2 266/5/2
f 265/2/2 219/2/2 266/2/2
f 220/2/2 249/2/2 267/2/2
f 266/5/2 220/5/2 267/5/2
f 249/2/2 250/2/2 267/2/2
f 267/2/2 250/2/2 268/2/2
f 250/1/2 251/1/2 269/1/2
f 268/2/2 250/2/2 269/2/2
f 251/3/2 252/3/2 270/3/2
f 269/1/2 251/1/2 270/1/2
f 252/1/2 253/1/2 271/1/2
f 270/3/2 252/3/2 271/3/2
f 253/2/2 254/2/2 272/2/2
f 271/1/2 253/1/2 272/1/2
f 254/2/2 225/2/2 273/2/2
f 272/2/2 254/2/2 273/2/2
f 225/5/2 255/5/2 274/5/2
f 273/2/2 225/2/2 274/2/2
f 255/2/2 256/2/2 275/2/2
f 274/5/2 255/5/2 275/5/2
f 256/5/2 257/5/2 276/5/2
f 275/2/2 256/2/2 276/2/2
f 257/1/2 258/1/2 277/1/2
f 276/5/2 257/5/2 277/5/2
f 258/5/2 259/5/2 278/5/2
f 262/5/2 263/5/2 281/5/2
f 263/5/2 246/5/2 282/5/2
f 281/5/2 263/5/2 282/5/2
f 264/1/2 265/1/2 283/1/2
f 265/5/2 266/5/2 283/5/2
f 266/1/2 267/1/2 284/1/2
f 283/5/2 266/5/2 284/5/2
f 267/5/2 268/5/2 285/5/2
f 284/1/2 267/1/2 285/1/2
f 269/2/2 270/2/2 286/2/2
f 285/5/2 268/5/2 286/5/2
f 272/2/2 273/2/2 286/2/2
f 268/2/2 269/2/2 286/2/2
f 271/2/2 272/2/2 286/2/2
f 270/2/2 271/2/2 286/2/2
f 286/2/2 273/2/2 287/2/2
f 287/2/2 273/2/2 288/2/2
f 273/5/2 274/5/2 289/5/2
f 288/2/2 273/2/2 289/2/2
f 274/1/2 275/1/2 290/1/2
f 289/5/2 274/5/2 290/5/2
f 275/5/2 276/5/2 291/5/2
f 290/1/2 275/1/2 291/1/2
f 276/1/2 277/1/2 292/1/2
f 291/5/2 276/5/2 292/5/2
f 278/2/2 279/2/2 293/2/2
f 258/5/2 278/5/2 293/5/2
f 279/5/2 280/5/2 294/5/2
f 293/2/2 279/2/2 294/2/2
f 294/5/2 280/5/2 295/5/2
f 284/1/2 285/1/2 296/1/2
f 283/1/2 284/1/2 296/1/2
f 286/5/2 287/5/2 296/5/2
f 285/1/2 286/1/2 296/1/2
f 287/2/2 288/2/2 297/2/2
f 296/5/2 287/5/2 297/5/2
f 288/5/2 289/5/2 298/5/2
f 297/2/2 288/2/2 298/2/2
f 289/1/2 290/1/2 299/1/2
f 298/5/2 289/5/2 299/5/2
f 291/1/2 292/1/2 299/1/2
f 290/1/2 291/1/2 299/1/2
f 258/5/2 293/5/2 300/5/2
f 297/5/2 298/5/2 303/5/2
f 296/1/2 297/1/2 303/1/2
f 298/1/2 299/1/2 304/1/2
f 303/5/2 298/5/2 304/5/2
f 300/2/2 301/2/2 305/2/2
f 258/5/2 300/5/2 305/5/2
f 301/5/2 302/5/2 306/5/2
f 305/2/2 301/2/2 306/2/2
f 306/5/2 302/5/2 307/5/2
f 281/2/2 282/2/2 308/2/2
f 282/5/2 246/5/2 309/5/2
f 308/2/2 282/2/2 309/2/2
f 283/1/2 296/1/2 310/1/2
f 309/5/2 246/5/2 310/5/2
f 246/1/2 264/1/2 310/1/2
f 303/1/2 304/1/2 310/1/2
f 296/1/2 303/1/2 310/1/2
f 264/1/2 283/1/2 310/1/2
f 277/1/2 258/1/2 311/1/2
f 310/1/2 304/1/2 311/1/2
f 258/5/2 305/5/2 311/5/2
f 299/1/2 292/1/2 311/1/2
f 292/1/2 277/1/2 311/1/2
f 304/1/2 299/1/2 311/1/2
f 311/5/2 305/5/2 312/5/2
f 309/5/2 310/5/2 315/5/2
f 308/5/2 309/5/2 315/5/2
f 310/5/2 311/5/2 315/5/2
f 311/5/2 312/5/2 315/5/2
f 312/2/2 313/2/2 316/2/2
f 315/5/2 312/5/2 316/5/2
f 313/5/2 314/5/2 317/5/2
f 316/2/2 313/2/2 317/2/2
f 317/5/2 314/5/2 318/5/2
f 321/7/3 320/7/3 319/7/3
f 322/7/3 320/7/3 321/7/3
f 327/7/3 324/7/3 323/7/3
f 328/7/3 324/7/3 327/7/3
f 329/7/3 326/7/3 325/7/3
f 330/7/3 326/7/3 329/7/3
f 341/5/3 332/5/3 331/5/3
f 342/2/3 333/2/3 332/2/3
f 342/5/3 332/5/3 341/5/3
f 343/5/3 334/5/3 333/5/3
f 343/2/3 333/2/3 342/2/3
f 344/2/3 335/2/3 334/2/3
f 344/5/3 334/5/3 343/5/3
f 344/2/3 336/2/3 335/2/3
f 344/2/3 337/2/3 336/2/3
f 345/5/3 338/5/3 337/5/3
f 345/2/3 337/2/3 344/2/3
f 346/2/3 339/2/3 338/2/3
f 346/5/3 338/5/3 345/5/3
f 347/5/3 340/5/3 339/5/3
f 347/2/3 339/2/3 346/2/3
f 348/5/3 340/5/3 347/5/3
f 349/7/4 350/7/4 353/7/4
f 353/7/4 350/7/4 354/7/4
f 351/7/4 352/7/4 355/7/4
f 355/7/4 352/7/4 356/7/4
f 357/5/4 358/5/4 369/5/4
f 369/5/4 358/5/4 370/5/4
f 359/5/4 360/5/4 371/5/4
f 371/5/4 360/5/4 372/5/4
f 361/5/4 362/5/4 373/5/4
f 373/5/4 362/5/4 374/5/4
f 363/5/4 364/5/4 375/5/4
f 375/5/4 364/5/4 376/5/4
f 365/5/4 366/5/4 377/5/4
f 377/5/4 366/5/4 378/5/4
f 367/5/4 368/5/4 379/5/4
f 379/5/4 368/5/4 380/5/4
f 381/5/4 382/5/4 395/5/4
f 395/5/4 382/5/4 396/5/4
f 383/5/4 384/5/4 397/5/4
f 397/5/4 384/5/4 398/5/4
f 385/5/4 386/5/4 399/5/4
f 399/5/4 386/5/4 400/5/4
f 387/5/4 388/5/4 401/5/4
f 401/5/4 388/5/4 402/5/4
f 389/5/4 390/5/4 403/5/4
f 403/5/4 390/5/4 404/5/4
f 391/5/4 392/5/4 405/5/4
f 405/5/4 392/5/4 406/5/4
f 393/5/4 394/5/4 407/5/4
f 407/5/4 394/5/4 408/5/4
f 409/4/4 410/4/4 411/4/4
f 411/4/4 410/4/4 412/4/4
f 415/5/5 414/5/5 413/5/5
f 416/5/5 414/5/5 415/5/5
f 417/2/5 416/2/5 415/2/5
f 418/2/5 416/2/5 417/2/5
f 419/5/5 418/5/5 417/5/5
f 420/5/5 418/5/5 419/5/5
f 423/2/5 422/2/5 421/2/5
f 424/2/5 422/2/5 423/2/5
f 425/5/5 424/5/5 423/5/5
f 426/5/5 424/5/5 425/5/5
f 429/2/5 428/2/5 427/2/5
f 430/2/5 428/2/5 429/2/5
f 431/5/5 430/5/5 429/5/5
f 432/5/5 430/5/5 431/5/5
f 435/7/5 434/7/5 433/7/5
f 436/7/5 434/7/5 435/7/5
f 439/7/5 438/7/5 437/7/5
f 440/7/5 438/7/5 439/7/5
f 443/6/5 442/6/5 441/6/5
f 444/6/5 442/6/5 443/6/5
f 445/2/5 444/2/5 443/2/5
f 446/2/5 444/2/5 445/2/5
f 447/4/5 446/4/5 445/4/5
f 448/4/5 447/4/5 445/4/5
f 449/4/5 448/4/5 445/4/5
f 450/4/5 449/4/5 445/4/5
f 451/4/5 450/4/5 445/4/5
f 452/4/5 451/4/5 445/4/5
f 453/4/5 452/4/5 445/4/5
f 454/4/5 453/4/5 445/4/5
f 455/4/5 454/4/5 445/4/5
f 456/4/5 455/4/5 445/4/5
f 457/4/5 456/4/5 445/4/5
f 458/4/5 457/4/5 445/4/5
f 459/4/5 458/4/5 445/4/5
f 461/4/5 459/4/5 445/4/5
f 461/2/5 460/2/5 459/2/5
f 462/2/5 460/2/5 461/2/5
f 463/4/5 461/4/5 445/4/5
f 463/5/5 462/5/5 461/5/5
f 464/5/5 462/5/5 463/5/5
f 465/4/5 463/4/5 445/4/5
f 466/4/5 463/4/5 465/4/5
f 469/2/5 468/2/5 467/2/5
f 470/2/5 468/2/5 469/2/5
f 471/5/5 470/5/5 469/5/5
f 472/5/5 470/5/5 471/5/5
f 475/2/5 474/2/5 473/2/5
f 476/2/5 474/2/5 475/2/5
f 477/5/5 476/5/5 475/5/5
f 478/5/5 476/5/5 477/5/5
f 481/2/5 480/2/5 479/2/5
f 482/2/5 480/2/5 481/2/5
f 483/5/5 482/5/5 481/5/5
f 484/5/5 482/5/5 483/5/5
f 485/2/6 486/2/6 487/2/6
f 487/2/6 486/2/6 488/2/6
f 487/5/6 488/5/6 489/5/6
f 489/5/6 488/5/6 490/5/6
f 491/2/6 492/2/6 493/2/6
f 493/2/6 492/2/6 494/2/6
f 493/5/6 494/5/6 495/5/6
f 495/5/6 494/5/6 496/5/6
f 497/2/6 498/2/6 499/2/6
f 499/2/6 498/2/6 500/2/6
f 499/5/6 500/5/6 501/5/6
f 501/5/6 500/5/6 502/5/6
f 503/7/6 504/7/6 505/7/6
f 505/7/6 504/7/6 506/7/6
f 507/6/6 508/6/6 509/6/6
f 509/6/6 508/6/6 510/6/6
f 509/2/6 510/2/6 511/2/6
f 511/2/6 510/2/6 512/2/6
f 511/4/6 512/4/6 513/4/6
f 511/4/6 513/4/6 514/4/6
f 511/4/6 514/4/6 515/4/6
f 511/4/6 515/4/6 516/4/6
f 511/4/6 516/4/6 517/4/6
f 511/4/6 517/4/6 518/4/6
f 511/4/6 518/4/6 519/4/6
f 511/4/6 519/4/6 520/4/6
f 511/4/6 520/4/6 521/4/6
f 511/4/6 521/4/6 522/4/6
f 511/4/6 522/4/6 523/4/6
f 511/4/6 523/4/6 524/4/6
f 511/4/6 524/4/6 525/4/6
f 511/4/6 525/4/6 526/4/6
f 511/4/6 526/4/6 527/4/6
f 511/4/6 527/4/6 529/4/6
f 527/2/6 528/2/6 529/2/6
f 529/2/6 528/2/6 530/2/6
f 511/4/6 529/4/6 531/4/6
f 529/5/6 530/5/6 531/5/6
f 531/5/6 530/5/6 532/5/6
f 511/4/6 531/4/6 533/4/6
f 533/4/6 531/4/6 534/4/6
f 535/7/6 536/7/6 537/7/6
f 537/7/6 536/7/6 538/7/6
f 539/2/6 540/2/6 541/2/6
f 541/2/6 540/2/6 542/2/6
f 541/5/6 542/5/6 543/5/6
f 543/5/6 542/5/6 544/5/6
f 545/2/6 546/2/6 547/2/6
f 547/2/6 546/2/6 548/2/6
f 547/5/6 548/5/6 549/5/6
f 549/5/6 548/5/6 550/5/6
f 551/5/6 552/5/6 553/5/6
f 553/5/6 552/5/6 554/5/6
f 553/2/6 554/2/6 555/2/6
f 555/2/6 554/2/6 556/2/6
f 555/5/6 556/5/6 557/5/6
f 557/5/6 556/5/6 558/5/6
