# MagicaVoxel @ Ephtracy

# group
o leg_lgt_med_3b_sh_color

# material
mtllib character-128-leg_lgt_med_3b_sh_color.mtl
usemtl palette

# normals
vn -1 0 0
vn 1 0 0
vn 0 0 1
vn 0 0 -1
vn 0 -1 0
vn 0 1 0

# texcoords
vt 0.470703 0.5
vt 0.482422 0.5
vt 0.494141 0.5
vt 0.697266 0.5
vt 0.916016 0.5

# verts
v -0.4 0 0.4
v -0.4 0 -0.1
v -0.4 0.1 0.4
v -0.4 0.1 0.1
v -0.4 0.1 -0.1
v -0.4 0.4 0.2
v -0.4 0.4 0.1
v -0.4 0.4 -0.1
v -0.4 0.5 0.2
v -0.4 0.5 -0.1
v -0.4 1.4 0.2
v -0.4 1.4 -0.1
v -0.3 0 -0.1
v -0.3 0 -0.2
v -0.3 0.1 0.2
v -0.3 0.1 0.1
v -0.3 0.1 -0.1
v -0.3 0.1 -0.2
v -0.3 0.4 0.3
v -0.3 0.4 0.2
v -0.3 0.4 0.1
v -0.3 0.4 -0.1
v -0.3 0.4 -0.2
v -0.3 0.5 0.3
v -0.3 0.5 0.2
v -0.3 0.5 -0.1
v -0.3 0.5 -0.2
v -0.3 1.4 0.3
v -0.3 1.4 0.2
v -0.3 1.4 -0.1
v -0.3 1.4 -0.2
v -0.2 0.4 0.4
v -0.2 0.4 0.3
v -0.2 0.4 -0.2
v -0.2 0.4 -0.3
v -0.2 0.5 0.4
v -0.2 0.5 0.3
v -0.2 0.5 -0.2
v -0.2 0.5 -0.3
v -0.2 1.4 0.4
v -0.2 1.4 0.3
v -0.2 1.4 -0.2
v -0.2 1.4 -0.3
v -0.2 0 -0.1
v -0.2 0 -0.2
v -0.2 0.1 0.2
v -0.2 0.1 0.1
v -0.2 0.1 -0.1
v -0.2 0.1 -0.2
v -0.2 0.4 0.3
v -0.2 0.4 0.2
v -0.2 0.4 0.1
v -0.2 0.4 -0.1
v -0.2 0.4 -0.2
v -0.2 0.5 0.3
v -0.2 0.5 0.2
v -0.2 0.5 0.1
v -0.2 0.5 0
v -0.2 0.5 -0.1
v -0.2 0.5 -0.2
v -0.2 0.6 0
v -0.2 0.6 -0.1
v -0.1 0 0.4
v -0.1 0 -0.1
v -0.1 0.1 0.4
v -0.1 0.1 0.1
v -0.1 0.1 -0.1
v -0.1 0.5 0.3
v -0.1 0.5 0.1
v -0.1 0.5 0
v -0.1 0.5 -0.1
v -0.1 0.5 -0.2
v -0.1 0.6 0
v -0.1 0.6 -0.1
v -0.1 1.1 0.2
v -0.1 1.1 -0.1
v -0.1 1.3 0.3
v -0.1 1.3 0.2
v -0.1 1.3 -0.1
v -0.1 1.3 -0.2
v 0 0.4 0.4
v 0 0.4 0.3
v 0 0.4 -0.2
v 0 0.4 -0.3
v 0 0.5 0.4
v 0 0.5 0.3
v 0 0.5 -0.2
v 0 0.5 -0.3
v 0 1.1 0.2
v 0 1.1 -0.1
v 0 1.3 0.3
v 0 1.3 0.2
v 0 1.3 -0.1
v 0 1.3 -0.2
v 0 1.4 0.4
v 0 1.4 -0.3
v -0.4 0 0.4
v -0.4 0.1 0.4
v -0.2 0.4 0.4
v -0.2 0.5 0.4
v -0.2 1.4 0.4
v -0.1 0 0.4
v -0.1 0.1 0.4
v 0 0.4 0.4
v 0 0.5 0.4
v 0 1.4 0.4
v -0.3 0.4 0.3
v -0.3 0.5 0.3
v -0.3 1.4 0.3
v -0.2 0.4 0.3
v -0.2 0.5 0.3
v -0.2 1.4 0.3
v -0.4 0.4 0.2
v -0.4 0.5 0.2
v -0.4 1.4 0.2
v -0.3 0.1 0.2
v -0.3 0.4 0.2
v -0.3 0.5 0.2
v -0.3 1.4 0.2
v -0.2 0.1 0.2
v -0.2 0.4 0.2
v -0.1 1.1 0.2
v -0.1 1.3 0.2
v 0 1.1 0.2
v 0 1.3 0.2
v -0.4 0.1 0.1
v -0.4 0.4 0.1
v -0.3 0.1 0.1
v -0.3 0.4 0.1
v -0.2 0.1 0.1
v -0.2 0.4 0.1
v -0.2 0.5 0.1
v -0.1 0.1 0.1
v -0.1 0.5 0.1
v -0.2 0.5 -0.1
v -0.2 0.6 -0.1
v -0.1 0.5 -0.1
v -0.1 0.6 -0.1
v -0.2 0.4 -0.2
v -0.2 0.5 -0.2
v -0.1 0.5 -0.2
v -0.1 1.3 -0.2
v 0 0.4 -0.2
v 0 0.5 -0.2
v 0 1.3 -0.2
v -0.2 0.4 0.3
v -0.2 0.5 0.3
v -0.1 0.5 0.3
v -0.1 1.3 0.3
v 0 0.4 0.3
v 0 0.5 0.3
v 0 1.3 0.3
v -0.2 0.5 0
v -0.2 0.6 0
v -0.1 0.5 0
v -0.1 0.6 0
v -0.4 0 -0.1
v -0.4 0.1 -0.1
v -0.4 0.4 -0.1
v -0.4 0.5 -0.1
v -0.4 1.4 -0.1
v -0.3 0 -0.1
v -0.3 0.1 -0.1
v -0.3 0.4 -0.1
v -0.3 0.5 -0.1
v -0.3 1.4 -0.1
v -0.2 0 -0.1
v -0.2 0.1 -0.1
v -0.2 0.4 -0.1
v -0.2 0.5 -0.1
v -0.1 0 -0.1
v -0.1 0.1 -0.1
v -0.1 0.5 -0.1
v -0.1 1.1 -0.1
v -0.1 1.3 -0.1
v 0 1.1 -0.1
v 0 1.3 -0.1
v -0.3 0 -0.2
v -0.3 0.1 -0.2
v -0.3 0.4 -0.2
v -0.3 0.5 -0.2
v -0.3 1.4 -0.2
v -0.2 0 -0.2
v -0.2 0.1 -0.2
v -0.2 0.4 -0.2
v -0.2 0.5 -0.2
v -0.2 1.4 -0.2
v -0.2 0.4 -0.3
v -0.2 0.5 -0.3
v -0.2 1.4 -0.3
v 0 0.4 -0.3
v 0 0.5 -0.3
v 0 1.4 -0.3
v -0.4 0 0.4
v -0.1 0 0.4
v -0.4 0 -0.1
v -0.3 0 -0.1
v -0.2 0 -0.1
v -0.1 0 -0.1
v -0.3 0 -0.2
v -0.2 0 -0.2
v -0.2 0.4 0.4
v 0 0.4 0.4
v -0.3 0.4 0.3
v -0.2 0.4 0.3
v 0 0.4 0.3
v -0.4 0.4 0.2
v -0.3 0.4 0.2
v -0.2 0.4 0.2
v -0.4 0.4 0.1
v -0.3 0.4 0.1
v -0.2 0.4 -0.2
v 0 0.4 -0.2
v -0.2 0.4 -0.3
v 0 0.4 -0.3
v -0.2 0.5 0.3
v -0.1 0.5 0.3
v -0.2 0.5 0.2
v -0.2 0.5 0.1
v -0.1 0.5 0.1
v -0.2 0.5 -0.1
v -0.1 0.5 -0.1
v -0.2 0.5 -0.2
v -0.1 0.5 -0.2
v -0.2 0.6 0
v -0.1 0.6 0
v -0.2 0.6 -0.1
v -0.1 0.6 -0.1
v -0.1 1.1 0.2
v 0 1.1 0.2
v -0.1 1.1 -0.1
v 0 1.1 -0.1
v -0.1 1.3 0.3
v 0 1.3 0.3
v -0.1 1.3 0.2
v 0 1.3 0.2
v -0.1 1.3 -0.1
v 0 1.3 -0.1
v -0.1 1.3 -0.2
v 0 1.3 -0.2
v -0.4 0.1 0.4
v -0.1 0.1 0.4
v -0.3 0.1 0.2
v -0.2 0.1 0.2
v -0.4 0.1 0.1
v -0.3 0.1 0.1
v -0.2 0.1 0.1
v -0.1 0.1 0.1
v -0.2 0.5 0
v -0.1 0.5 0
v -0.2 0.5 -0.1
v -0.1 0.5 -0.1
v -0.2 1.4 0.4
v 0 1.4 0.4
v -0.3 1.4 0.3
v -0.2 1.4 0.3
v -0.4 1.4 0.2
v -0.3 1.4 0.2
v -0.4 1.4 -0.1
v -0.3 1.4 -0.1
v -0.3 1.4 -0.2
v -0.2 1.4 -0.2
v -0.2 1.4 -0.3
v 0 1.4 -0.3

# faces
f 3/4/1 2/4/1 1/4/1
f 4/4/1 2/4/1 3/4/1
f 5/4/1 2/4/1 4/4/1
f 7/2/1 5/2/1 4/2/1
f 8/2/1 5/2/1 7/2/1
f 9/5/1 7/5/1 6/5/1
f 9/5/1 8/5/1 7/5/1
f 10/5/1 8/5/1 9/5/1
f 11/3/1 10/3/1 9/3/1
f 12/3/1 10/3/1 11/3/1
f 17/4/1 14/4/1 13/4/1
f 18/4/1 14/4/1 17/4/1
f 20/2/1 16/2/1 15/2/1
f 21/2/1 16/2/1 20/2/1
f 22/2/1 18/2/1 17/2/1
f 23/2/1 18/2/1 22/2/1
f 24/5/1 20/5/1 19/5/1
f 25/5/1 20/5/1 24/5/1
f 26/5/1 23/5/1 22/5/1
f 27/5/1 23/5/1 26/5/1
f 28/3/1 25/3/1 24/3/1
f 29/3/1 25/3/1 28/3/1
f 30/3/1 27/3/1 26/3/1
f 31/3/1 27/3/1 30/3/1
f 36/5/1 33/5/1 32/5/1
f 37/5/1 33/5/1 36/5/1
f 38/5/1 35/5/1 34/5/1
f 39/5/1 35/5/1 38/5/1
f 40/3/1 37/3/1 36/3/1
f 41/3/1 37/3/1 40/3/1
f 42/3/1 39/3/1 38/3/1
f 43/3/1 39/3/1 42/3/1
f 44/4/2 45/4/2 48/4/2
f 48/4/2 45/4/2 49/4/2
f 46/2/2 47/2/2 51/2/2
f 51/2/2 47/2/2 52/2/2
f 48/2/2 49/2/2 53/2/2
f 53/2/2 49/2/2 54/2/2
f 50/5/2 51/5/2 55/5/2
f 51/3/2 52/3/2 56/3/2
f 55/5/2 51/5/2 56/5/2
f 56/3/2 52/3/2 57/3/2
f 53/5/2 54/5/2 59/5/2
f 59/5/2 54/5/2 60/5/2
f 58/1/2 59/1/2 61/1/2
f 61/1/2 59/1/2 62/1/2
f 63/4/2 64/4/2 65/4/2
f 65/4/2 64/4/2 66/4/2
f 66/4/2 64/4/2 67/4/2
f 66/2/2 67/2/2 69/2/2
f 69/2/2 67/2/2 70/2/2
f 70/2/2 67/2/2 71/2/2
f 68/1/2 69/1/2 73/1/2
f 69/1/2 70/1/2 73/1/2
f 71/1/2 72/1/2 74/1/2
f 68/1/2 73/1/2 75/1/2
f 73/1/2 74/1/2 75/1/2
f 74/1/2 72/1/2 76/1/2
f 75/1/2 74/1/2 76/1/2
f 68/1/2 75/1/2 77/1/2
f 77/1/2 75/1/2 78/1/2
f 76/1/2 72/1/2 79/1/2
f 79/1/2 72/1/2 80/1/2
f 81/5/2 82/5/2 85/5/2
f 85/5/2 82/5/2 86/5/2
f 83/5/2 84/5/2 87/5/2
f 87/5/2 84/5/2 88/5/2
f 85/3/2 86/3/2 91/3/2
f 89/1/2 90/1/2 92/1/2
f 92/1/2 90/1/2 93/1/2
f 87/3/2 88/3/2 94/3/2
f 85/3/2 91/3/2 95/3/2
f 93/3/2 94/3/2 95/3/2
f 92/3/2 93/3/2 95/3/2
f 91/3/2 92/3/2 95/3/2
f 94/3/2 88/3/2 96/3/2
f 95/3/2 94/3/2 96/3/2
f 102/4/3 98/4/3 97/4/3
f 103/4/3 98/4/3 102/4/3
f 104/5/3 100/5/3 99/5/3
f 105/3/3 101/3/3 100/3/3
f 105/5/3 100/5/3 104/5/3
f 106/3/3 101/3/3 105/3/3
f 110/5/3 108/5/3 107/5/3
f 111/3/3 109/3/3 108/3/3
f 111/5/3 108/5/3 110/5/3
f 112/3/3 109/3/3 111/3/3
f 117/5/3 114/5/3 113/5/3
f 118/3/3 115/3/3 114/3/3
f 118/5/3 114/5/3 117/5/3
f 119/3/3 115/3/3 118/3/3
f 120/2/3 117/2/3 116/2/3
f 121/2/3 117/2/3 120/2/3
f 124/1/3 123/1/3 122/1/3
f 125/1/3 123/1/3 124/1/3
f 128/2/3 127/2/3 126/2/3
f 129/2/3 127/2/3 128/2/3
f 133/2/3 131/2/3 130/2/3
f 133/2/3 132/2/3 131/2/3
f 134/2/3 132/2/3 133/2/3
f 137/1/3 136/1/3 135/1/3
f 138/1/3 136/1/3 137/1/3
f 141/5/3 140/5/3 139/5/3
f 143/5/3 141/5/3 139/5/3
f 144/3/3 142/3/3 141/3/3
f 144/5/3 141/5/3 143/5/3
f 145/3/3 142/3/3 144/3/3
f 146/5/4 147/5/4 148/5/4
f 146/5/4 148/5/4 150/5/4
f 148/3/4 149/3/4 151/3/4
f 150/5/4 148/5/4 151/5/4
f 151/3/4 149/3/4 152/3/4
f 153/1/4 154/1/4 155/1/4
f 155/1/4 154/1/4 156/1/4
f 157/4/4 158/4/4 162/4/4
f 158/2/4 159/2/4 163/2/4
f 162/4/4 158/4/4 163/4/4
f 159/5/4 160/5/4 164/5/4
f 163/2/4 159/2/4 164/2/4
f 160/3/4 161/3/4 165/3/4
f 164/5/4 160/5/4 165/5/4
f 165/3/4 161/3/4 166/3/4
f 167/4/4 168/4/4 171/4/4
f 169/2/4 170/2/4 172/2/4
f 171/4/4 168/4/4 172/4/4
f 168/2/4 169/2/4 172/2/4
f 172/2/4 170/2/4 173/2/4
f 174/1/4 175/1/4 176/1/4
f 176/1/4 175/1/4 177/1/4
f 178/4/4 179/4/4 183/4/4
f 179/2/4 180/2/4 184/2/4
f 183/4/4 179/4/4 184/4/4
f 180/5/4 181/5/4 185/5/4
f 184/2/4 180/2/4 185/2/4
f 181/3/4 182/3/4 186/3/4
f 185/5/4 181/5/4 186/5/4
f 186/3/4 182/3/4 187/3/4
f 188/5/4 189/5/4 191/5/4
f 189/3/4 190/3/4 192/3/4
f 191/5/4 189/5/4 192/5/4
f 192/3/4 190/3/4 193/3/4
f 196/4/5 195/4/5 194/4/5
f 197/4/5 195/4/5 196/4/5
f 198/4/5 195/4/5 197/4/5
f 199/4/5 195/4/5 198/4/5
f 200/4/5 198/4/5 197/4/5
f 201/4/5 198/4/5 200/4/5
f 205/5/5 203/5/5 202/5/5
f 206/5/5 203/5/5 205/5/5
f 208/5/5 205/5/5 204/5/5
f 209/5/5 205/5/5 208/5/5
f 210/5/5 208/5/5 207/5/5
f 211/5/5 208/5/5 210/5/5
f 214/5/5 213/5/5 212/5/5
f 215/5/5 213/5/5 214/5/5
f 218/1/5 217/1/5 216/1/5
f 219/1/5 217/1/5 218/1/5
f 220/1/5 217/1/5 219/1/5
f 223/1/5 222/1/5 221/1/5
f 224/1/5 222/1/5 223/1/5
f 227/1/5 226/1/5 225/1/5
f 228/1/5 226/1/5 227/1/5
f 231/1/5 230/1/5 229/1/5
f 232/1/5 230/1/5 231/1/5
f 235/3/5 234/3/5 233/3/5
f 236/3/5 234/3/5 235/3/5
f 239/3/5 238/3/5 237/3/5
f 240/3/5 238/3/5 239/3/5
f 241/4/6 242/4/6 243/4/6
f 243/4/6 242/4/6 244/4/6
f 241/4/6 243/4/6 245/4/6
f 245/4/6 243/4/6 246/4/6
f 244/4/6 242/4/6 247/4/6
f 247/4/6 242/4/6 248/4/6
f 249/2/6 250/2/6 251/2/6
f 251/2/6 250/2/6 252/2/6
f 253/3/6 254/3/6 256/3/6
f 255/3/6 256/3/6 258/3/6
f 257/3/6 258/3/6 259/3/6
f 258/3/6 256/3/6 260/3/6
f 259/3/6 258/3/6 260/3/6
f 260/3/6 256/3/6 261/3/6
f 256/3/6 254/3/6 262/3/6
f 261/3/6 256/3/6 262/3/6
f 262/3/6 254/3/6 263/3/6
f 263/3/6 254/3/6 264/3/6
