# MagicaVoxel @ Ephtracy

# group
o leg_lgt_1c_sh_ja_du_color

# material
mtllib char-136-leg_lgt_1c_sh_ja_du_color.mtl
usemtl palette

# normals
vn -1 0 0
vn 1 0 0
vn 0 0 1
vn 0 0 -1
vn 0 -1 0
vn 0 1 0

# texcoords
vt 0.470703 0.5
vt 0.494141 0.5
vt 0.697266 0.5

# verts
v -0.4 0 0.4
v -0.4 0 -0.1
v -0.4 0.1 0.4
v -0.4 0.1 0.1
v -0.4 0.1 -0.1
v -0.4 0.6 0.2
v -0.4 0.6 0.1
v -0.4 1 0.2
v -0.4 1 -0.1
v -0.4 1.4 0.2
v -0.4 1.4 -0.1
v -0.3 0 -0.1
v -0.3 0 -0.2
v -0.3 0.1 0.2
v -0.3 0.1 0.1
v -0.3 0.1 -0.1
v -0.3 0.1 -0.2
v -0.3 0.6 0.3
v -0.3 0.6 0.2
v -0.3 0.6 0.1
v -0.3 1 0.3
v -0.3 1 0.2
v -0.3 1 -0.1
v -0.3 1 -0.2
v -0.3 1.4 0.3
v -0.3 1.4 0.2
v -0.3 1.4 -0.1
v -0.3 1.4 -0.2
v -0.2 1 0.4
v -0.2 1 0.3
v -0.2 1 -0.2
v -0.2 1 -0.3
v -0.2 1.4 0.4
v -0.2 1.4 0.3
v -0.2 1.4 -0.2
v -0.2 1.4 -0.3
v -0.2 0 -0.1
v -0.2 0 -0.2
v -0.2 0.1 0.2
v -0.2 0.1 0.1
v -0.2 0.1 -0.1
v -0.2 0.1 -0.2
v -0.2 0.6 0.2
v -0.2 0.6 0.1
v -0.2 0.6 -0.1
v -0.2 0.6 -0.2
v -0.1 0 0.4
v -0.1 0 -0.1
v -0.1 0.1 0.4
v -0.1 0.1 0.1
v -0.1 0.1 -0.1
v -0.1 0.6 0.3
v -0.1 0.6 0.1
v -0.1 0.6 -0.1
v -0.1 0.6 -0.2
v -0.1 1 0.3
v -0.1 1 -0.2
v -0.1 1 -0.3
v -0.1 1.1 0.2
v -0.1 1.1 0.1
v -0.1 1.2 0.1
v -0.1 1.2 0
v -0.1 1.3 0.3
v -0.1 1.3 0.2
v -0.1 1.3 0
v -0.1 1.3 -0.2
v -0.1 1.4 0
v -0.1 1.4 -0.3
v 0 1 0.4
v 0 1 0.3
v 0 1.1 0.2
v 0 1.1 0.1
v 0 1.2 0.1
v 0 1.2 0
v 0 1.3 0.3
v 0 1.3 0.2
v 0 1.3 0
v 0 1.4 0.4
v 0 1.4 0
v -0.4 0 0.4
v -0.4 0.1 0.4
v -0.2 1 0.4
v -0.2 1.4 0.4
v -0.1 0 0.4
v -0.1 0.1 0.4
v 0 1 0.4
v 0 1.4 0.4
v -0.3 0.6 0.3
v -0.3 1 0.3
v -0.3 1.4 0.3
v -0.2 1 0.3
v -0.2 1.4 0.3
v -0.1 0.6 0.3
v -0.1 1 0.3
v -0.4 0.6 0.2
v -0.4 1 0.2
v -0.4 1.4 0.2
v -0.3 0.1 0.2
v -0.3 0.6 0.2
v -0.3 1 0.2
v -0.3 1.4 0.2
v -0.2 0.1 0.2
v -0.2 0.6 0.2
v -0.1 1.1 0.2
v -0.1 1.3 0.2
v 0 1.1 0.2
v 0 1.3 0.2
v -0.4 0.1 0.1
v -0.4 0.6 0.1
v -0.3 0.1 0.1
v -0.3 0.6 0.1
v -0.2 0.1 0.1
v -0.2 0.6 0.1
v -0.1 0.1 0.1
v -0.1 0.6 0.1
v -0.1 1 0.3
v -0.1 1.3 0.3
v 0 1 0.3
v 0 1.3 0.3
v -0.1 1.1 0.1
v -0.1 1.2 0.1
v 0 1.1 0.1
v 0 1.2 0.1
v -0.1 1.2 0
v -0.1 1.3 0
v -0.1 1.4 0
v 0 1.2 0
v 0 1.3 0
v 0 1.4 0
v -0.4 0 -0.1
v -0.4 0.1 -0.1
v -0.4 1 -0.1
v -0.4 1.4 -0.1
v -0.3 0 -0.1
v -0.3 0.1 -0.1
v -0.3 1 -0.1
v -0.3 1.4 -0.1
v -0.2 0 -0.1
v -0.2 0.1 -0.1
v -0.2 0.6 -0.1
v -0.1 0 -0.1
v -0.1 0.1 -0.1
v -0.1 0.6 -0.1
v -0.3 0 -0.2
v -0.3 0.1 -0.2
v -0.3 1 -0.2
v -0.3 1.4 -0.2
v -0.2 0 -0.2
v -0.2 0.1 -0.2
v -0.2 0.6 -0.2
v -0.2 1 -0.2
v -0.2 1.4 -0.2
v -0.1 0.6 -0.2
v -0.1 1 -0.2
v -0.2 1 -0.3
v -0.2 1.4 -0.3
v -0.1 1 -0.3
v -0.1 1.4 -0.3
v -0.4 0 0.4
v -0.1 0 0.4
v -0.4 0 -0.1
v -0.3 0 -0.1
v -0.2 0 -0.1
v -0.1 0 -0.1
v -0.3 0 -0.2
v -0.2 0 -0.2
v -0.3 0.6 0.3
v -0.1 0.6 0.3
v -0.4 0.6 0.2
v -0.3 0.6 0.2
v -0.2 0.6 0.2
v -0.4 0.6 0.1
v -0.3 0.6 0.1
v -0.2 0.6 0.1
v -0.1 0.6 0.1
v -0.2 0.6 -0.1
v -0.1 0.6 -0.1
v -0.2 0.6 -0.2
v -0.1 0.6 -0.2
v -0.2 1 0.4
v 0 1 0.4
v -0.2 1 0.3
v -0.1 1 0.3
v 0 1 0.3
v -0.2 1 -0.2
v -0.1 1 -0.2
v -0.2 1 -0.3
v -0.1 1 -0.3
v -0.1 1.1 0.2
v 0 1.1 0.2
v -0.1 1.1 0.1
v 0 1.1 0.1
v -0.1 1.2 0.1
v 0 1.2 0.1
v -0.1 1.2 0
v 0 1.2 0
v -0.1 1.3 0.3
v 0 1.3 0.3
v -0.1 1.3 0.2
v 0 1.3 0.2
v -0.4 0.1 0.4
v -0.1 0.1 0.4
v -0.3 0.1 0.2
v -0.2 0.1 0.2
v -0.4 0.1 0.1
v -0.3 0.1 0.1
v -0.2 0.1 0.1
v -0.1 0.1 0.1
v -0.2 1.4 0.4
v 0 1.4 0.4
v -0.3 1.4 0.3
v -0.2 1.4 0.3
v -0.4 1.4 0.2
v -0.3 1.4 0.2
v -0.1 1.4 0
v 0 1.4 0
v -0.4 1.4 -0.1
v -0.3 1.4 -0.1
v -0.3 1.4 -0.2
v -0.2 1.4 -0.2
v -0.2 1.4 -0.3
v -0.1 1.4 -0.3

# faces
f 3/3/1 2/3/1 1/3/1
f 4/3/1 2/3/1 3/3/1
f 5/3/1 2/3/1 4/3/1
f 7/1/1 5/1/1 4/1/1
f 8/1/1 7/1/1 6/1/1
f 9/1/1 5/1/1 7/1/1
f 9/1/1 7/1/1 8/1/1
f 10/2/1 9/2/1 8/2/1
f 11/2/1 9/2/1 10/2/1
f 16/3/1 13/3/1 12/3/1
f 17/3/1 13/3/1 16/3/1
f 19/1/1 15/1/1 14/1/1
f 20/1/1 15/1/1 19/1/1
f 21/1/1 19/1/1 18/1/1
f 22/1/1 19/1/1 21/1/1
f 23/1/1 17/1/1 16/1/1
f 24/1/1 17/1/1 23/1/1
f 25/2/1 22/2/1 21/2/1
f 26/2/1 22/2/1 25/2/1
f 27/2/1 24/2/1 23/2/1
f 28/2/1 24/2/1 27/2/1
f 33/2/1 30/2/1 29/2/1
f 34/2/1 30/2/1 33/2/1
f 35/2/1 32/2/1 31/2/1
f 36/2/1 32/2/1 35/2/1
f 37/3/2 38/3/2 41/3/2
f 41/3/2 38/3/2 42/3/2
f 39/1/2 40/1/2 43/1/2
f 43/1/2 40/1/2 44/1/2
f 41/1/2 42/1/2 45/1/2
f 45/1/2 42/1/2 46/1/2
f 47/3/2 48/3/2 49/3/2
f 49/3/2 48/3/2 50/3/2
f 50/3/2 48/3/2 51/3/2
f 50/1/2 51/1/2 53/1/2
f 53/1/2 51/1/2 54/1/2
f 53/1/2 54/1/2 56/1/2
f 54/1/2 55/1/2 56/1/2
f 52/1/2 53/1/2 56/1/2
f 56/1/2 55/1/2 57/1/2
f 56/1/2 57/1/2 59/1/2
f 59/1/2 57/1/2 60/1/2
f 60/1/2 57/1/2 61/1/2
f 61/1/2 57/1/2 62/1/2
f 56/1/2 59/1/2 63/1/2
f 63/1/2 59/1/2 64/1/2
f 62/1/2 57/1/2 65/1/2
f 57/2/2 58/2/2 66/2/2
f 65/1/2 57/1/2 66/1/2
f 65/2/2 66/2/2 67/2/2
f 66/2/2 58/2/2 68/2/2
f 67/2/2 66/2/2 68/2/2
f 71/1/2 72/1/2 73/1/2
f 69/2/2 70/2/2 75/2/2
f 73/1/2 74/1/2 76/1/2
f 71/1/2 73/1/2 76/1/2
f 76/1/2 74/1/2 77/1/2
f 69/2/2 75/2/2 78/2/2
f 75/2/2 76/2/2 78/2/2
f 76/2/2 77/2/2 78/2/2
f 78/2/2 77/2/2 79/2/2
f 84/3/3 81/3/3 80/3/3
f 85/3/3 81/3/3 84/3/3
f 86/2/3 83/2/3 82/2/3
f 87/2/3 83/2/3 86/2/3
f 91/1/3 89/1/3 88/1/3
f 91/2/3 90/2/3 89/2/3
f 92/2/3 90/2/3 91/2/3
f 93/1/3 91/1/3 88/1/3
f 94/1/3 91/1/3 93/1/3
f 99/1/3 96/1/3 95/1/3
f 100/2/3 97/2/3 96/2/3
f 100/1/3 96/1/3 99/1/3
f 101/2/3 97/2/3 100/2/3
f 102/1/3 99/1/3 98/1/3
f 103/1/3 99/1/3 102/1/3
f 106/1/3 105/1/3 104/1/3
f 107/1/3 105/1/3 106/1/3
f 110/1/3 109/1/3 108/1/3
f 111/1/3 109/1/3 110/1/3
f 114/1/3 113/1/3 112/1/3
f 115/1/3 113/1/3 114/1/3
f 116/2/4 117/2/4 118/2/4
f 118/2/4 117/2/4 119/2/4
f 120/1/4 121/1/4 122/1/4
f 122/1/4 121/1/4 123/1/4
f 124/1/4 125/1/4 127/1/4
f 125/2/4 126/2/4 128/2/4
f 127/1/4 125/1/4 128/1/4
f 128/2/4 126/2/4 129/2/4
f 130/3/4 131/3/4 134/3/4
f 131/1/4 132/1/4 135/1/4
f 134/3/4 131/3/4 135/3/4
f 132/2/4 133/2/4 136/2/4
f 135/1/4 132/1/4 136/1/4
f 136/2/4 133/2/4 137/2/4
f 138/3/4 139/3/4 141/3/4
f 139/1/4 140/1/4 142/1/4
f 141/3/4 139/3/4 142/3/4
f 142/1/4 140/1/4 143/1/4
f 144/3/4 145/3/4 148/3/4
f 145/1/4 146/1/4 149/1/4
f 148/3/4 145/3/4 149/3/4
f 149/1/4 146/1/4 150/1/4
f 146/2/4 147/2/4 151/2/4
f 150/1/4 146/1/4 151/1/4
f 151/2/4 147/2/4 152/2/4
f 150/1/4 151/1/4 153/1/4
f 153/1/4 151/1/4 154/1/4
f 155/2/4 156/2/4 157/2/4
f 157/2/4 156/2/4 158/2/4
f 161/3/5 160/3/5 159/3/5
f 162/3/5 160/3/5 161/3/5
f 163/3/5 160/3/5 162/3/5
f 164/3/5 160/3/5 163/3/5
f 165/3/5 163/3/5 162/3/5
f 166/3/5 163/3/5 165/3/5
f 170/1/5 168/1/5 167/1/5
f 171/1/5 168/1/5 170/1/5
f 172/1/5 170/1/5 169/1/5
f 173/1/5 170/1/5 172/1/5
f 174/1/5 168/1/5 171/1/5
f 175/1/5 168/1/5 174/1/5
f 178/1/5 177/1/5 176/1/5
f 179/1/5 177/1/5 178/1/5
f 182/2/5 181/2/5 180/2/5
f 183/2/5 181/2/5 182/2/5
f 184/2/5 181/2/5 183/2/5
f 187/2/5 186/2/5 185/2/5
f 188/2/5 186/2/5 187/2/5
f 191/1/5 190/1/5 189/1/5
f 192/1/5 190/1/5 191/1/5
f 195/1/5 194/1/5 193/1/5
f 196/1/5 194/1/5 195/1/5
f 199/2/5 198/2/5 197/2/5
f 200/2/5 198/2/5 199/2/5
f 201/3/6 202/3/6 203/3/6
f 203/3/6 202/3/6 204/3/6
f 201/3/6 203/3/6 205/3/6
f 205/3/6 203/3/6 206/3/6
f 204/3/6 202/3/6 207/3/6
f 207/3/6 202/3/6 208/3/6
f 209/2/6 210/2/6 212/2/6
f 211/2/6 212/2/6 214/2/6
f 212/2/6 210/2/6 215/2/6
f 213/2/6 214/2/6 215/2/6
f 214/2/6 212/2/6 215/2/6
f 215/2/6 210/2/6 216/2/6
f 213/2/6 215/2/6 217/2/6
f 217/2/6 215/2/6 218/2/6
f 218/2/6 215/2/6 219/2/6
f 219/2/6 215/2/6 220/2/6
f 220/2/6 215/2/6 221/2/6
f 221/2/6 215/2/6 222/2/6
