# MagicaVoxel @ Ephtracy

# group
o helm_lgt_1d_ja_color

# material
mtllib character-224-helm_lgt_1d_ja_color.mtl
usemtl palette

# normals
vn 0 0 -1
vn 0 0 1
vn -1 0 0
vn 1 0 0
vn 0 -1 0
vn 0 1 0

# texcoords
vt 0.607422 0.5
vt 0.740234 0.5

# verts
v -0.1 2.9 -0.4
v 0.1 2.9 -0.4
v -0.1 3 -0.4
v 0.1 3 -0.4
v -0.1 3.3 -0.4
v 0.1 3.3 -0.4
v -0.2 3.1 -0.3
v -0.1 3.1 -0.3
v 0.1 3.1 -0.3
v 0.2 3.1 -0.3
v -0.2 3.3 -0.3
v -0.1 3.3 -0.3
v 0.1 3.3 -0.3
v 0.2 3.3 -0.3
v -0.1 3.4 -0.3
v 0.1 3.4 -0.3
v -0.3 3.1 -0.2
v -0.2 3.1 -0.2
v 0.2 3.1 -0.2
v 0.3 3.1 -0.2
v -0.3 3.3 -0.2
v -0.2 3.3 -0.2
v -0.1 3.3 -0.2
v 0.1 3.3 -0.2
v 0.2 3.3 -0.2
v 0.3 3.3 -0.2
v -0.2 3.4 -0.2
v -0.1 3.4 -0.2
v 0.1 3.4 -0.2
v 0.2 3.4 -0.2
v -0.1 3.5 -0.2
v 0.1 3.5 -0.2
v -0.2 3.1 0.2
v 0.2 3.1 0.2
v -0.2 3.2 0.2
v 0.2 3.2 0.2
v -0.1 2.9 -0.3
v 0.1 2.9 -0.3
v -0.1 3 -0.3
v 0.1 3 -0.3
v -0.1 3.1 -0.3
v 0.1 3.1 -0.3
v -0.2 3.1 -0.2
v 0.2 3.1 -0.2
v -0.2 3.2 -0.2
v 0.2 3.2 -0.2
v -0.1 3.4 0.1
v 0.1 3.4 0.1
v -0.1 3.5 0.1
v 0.1 3.5 0.1
v -0.3 3.1 0.2
v -0.2 3.1 0.2
v 0.2 3.1 0.2
v 0.3 3.1 0.2
v -0.3 3.3 0.2
v -0.2 3.3 0.2
v 0.2 3.3 0.2
v 0.3 3.3 0.2
v -0.2 3.4 0.2
v 0.2 3.4 0.2
v -0.2 3.1 0.3
v 0.2 3.1 0.3
v -0.2 3.3 0.3
v 0.2 3.3 0.3
v -0.3 3.1 -0.2
v -0.3 3.3 -0.2
v -0.3 3.1 0.2
v -0.3 3.3 0.2
v -0.2 3.1 -0.3
v -0.2 3.3 -0.3
v -0.2 3.1 -0.2
v -0.2 3.3 -0.2
v -0.2 3.4 -0.2
v -0.2 3.1 0.2
v -0.2 3.3 0.2
v -0.2 3.4 0.2
v -0.2 3.1 0.3
v -0.2 3.3 0.3
v -0.1 2.9 -0.4
v -0.1 3 -0.4
v -0.1 3.3 -0.4
v -0.1 2.9 -0.3
v -0.1 3 -0.3
v -0.1 3.1 -0.3
v -0.1 3.3 -0.3
v -0.1 3.4 -0.3
v -0.1 3.3 -0.2
v -0.1 3.4 -0.2
v -0.1 3.5 -0.2
v -0.1 3.4 0.1
v -0.1 3.5 0.1
v 0.2 3.1 -0.2
v 0.2 3.2 -0.2
v 0.2 3.1 0.2
v 0.2 3.2 0.2
v -0.2 3.1 -0.2
v -0.2 3.2 -0.2
v -0.2 3.1 0.2
v -0.2 3.2 0.2
v 0.1 2.9 -0.4
v 0.1 3 -0.4
v 0.1 3.3 -0.4
v 0.1 2.9 -0.3
v 0.1 3 -0.3
v 0.1 3.1 -0.3
v 0.1 3.3 -0.3
v 0.1 3.4 -0.3
v 0.1 3.3 -0.2
v 0.1 3.4 -0.2
v 0.1 3.5 -0.2
v 0.1 3.4 0.1
v 0.1 3.5 0.1
v 0.2 3.1 -0.3
v 0.2 3.3 -0.3
v 0.2 3.1 -0.2
v 0.2 3.3 -0.2
v 0.2 3.4 -0.2
v 0.2 3.1 0.2
v 0.2 3.3 0.2
v 0.2 3.4 0.2
v 0.2 3.1 0.3
v 0.2 3.3 0.3
v 0.3 3.1 -0.2
v 0.3 3.3 -0.2
v 0.3 3.1 0.2
v 0.3 3.3 0.2
v -0.1 2.9 -0.4
v -0.1 2.9 -0.3
v 0.1 2.9 -0.4
v 0.1 2.9 -0.3
v -0.3 3.1 -0.2
v -0.3 3.1 0.2
v -0.2 3.1 -0.3
v -0.2 3.1 -0.2
v -0.2 3.1 0.2
v -0.2 3.1 0.3
v -0.1 3.1 -0.3
v 0.1 3.1 -0.3
v 0.2 3.1 -0.3
v 0.2 3.1 -0.2
v 0.2 3.1 0.2
v 0.2 3.1 0.3
v 0.3 3.1 -0.2
v 0.3 3.1 0.2
v -0.2 3.2 -0.2
v -0.2 3.2 0.2
v 0.2 3.2 -0.2
v 0.2 3.2 0.2
v -0.3 3.3 -0.2
v -0.3 3.3 0.2
v -0.2 3.3 -0.3
v -0.2 3.3 -0.2
v -0.2 3.3 0.2
v -0.2 3.3 0.3
v -0.1 3.3 -0.4
v -0.1 3.3 -0.3
v -0.1 3.3 -0.2
v 0.1 3.3 -0.4
v 0.1 3.3 -0.3
v 0.1 3.3 -0.2
v 0.2 3.3 -0.3
v 0.2 3.3 -0.2
v 0.2 3.3 0.2
v 0.2 3.3 0.3
v 0.3 3.3 -0.2
v 0.3 3.3 0.2
v -0.2 3.4 -0.2
v -0.2 3.4 0.2
v -0.1 3.4 -0.3
v -0.1 3.4 -0.2
v -0.1 3.4 0.1
v 0.1 3.4 -0.3
v 0.1 3.4 -0.2
v 0.1 3.4 0.1
v 0.2 3.4 -0.2
v 0.2 3.4 0.2
v -0.1 3.5 -0.2
v -0.1 3.5 0.1
v 0.1 3.5 -0.2
v 0.1 3.5 0.1

# faces
f 3/1/1 2/1/1 1/1/1
f 4/1/1 2/1/1 3/1/1
f 5/2/1 4/2/1 3/2/1
f 6/2/1 4/2/1 5/2/1
f 11/1/1 8/1/1 7/1/1
f 12/1/1 8/1/1 11/1/1
f 13/1/1 10/1/1 9/1/1
f 14/1/1 10/1/1 13/1/1
f 15/2/1 13/2/1 12/2/1
f 16/2/1 13/2/1 15/2/1
f 21/1/1 18/1/1 17/1/1
f 22/1/1 18/1/1 21/1/1
f 25/1/1 20/1/1 19/1/1
f 26/1/1 20/1/1 25/1/1
f 27/2/1 23/2/1 22/2/1
f 28/2/1 23/2/1 27/2/1
f 29/2/1 25/2/1 24/2/1
f 30/2/1 25/2/1 29/2/1
f 31/2/1 29/2/1 28/2/1
f 32/2/1 29/2/1 31/2/1
f 35/1/1 34/1/1 33/1/1
f 36/1/1 34/1/1 35/1/1
f 37/1/2 38/1/2 39/1/2
f 39/1/2 38/1/2 40/1/2
f 39/2/2 40/2/2 41/2/2
f 41/2/2 40/2/2 42/2/2
f 43/1/2 44/1/2 45/1/2
f 45/1/2 44/1/2 46/1/2
f 47/2/2 48/2/2 49/2/2
f 49/2/2 48/2/2 50/2/2
f 51/1/2 52/1/2 55/1/2
f 55/1/2 52/1/2 56/1/2
f 53/1/2 54/1/2 57/1/2
f 57/1/2 54/1/2 58/1/2
f 56/2/2 57/2/2 59/2/2
f 59/2/2 57/2/2 60/2/2
f 61/1/2 62/1/2 63/1/2
f 63/1/2 62/1/2 64/1/2
f 67/1/3 66/1/3 65/1/3
f 68/1/3 66/1/3 67/1/3
f 71/1/3 70/1/3 69/1/3
f 72/1/3 70/1/3 71/1/3
f 75/2/3 73/2/3 72/2/3
f 76/2/3 73/2/3 75/2/3
f 77/1/3 75/1/3 74/1/3
f 78/1/3 75/1/3 77/1/3
f 82/1/3 80/1/3 79/1/3
f 83/2/3 81/2/3 80/2/3
f 83/1/3 80/1/3 82/1/3
f 84/2/3 81/2/3 83/2/3
f 85/2/3 81/2/3 84/2/3
f 87/2/3 86/2/3 85/2/3
f 88/2/3 86/2/3 87/2/3
f 90/2/3 89/2/3 88/2/3
f 91/2/3 89/2/3 90/2/3
f 94/1/3 93/1/3 92/1/3
f 95/1/3 93/1/3 94/1/3
f 96/1/4 97/1/4 98/1/4
f 98/1/4 97/1/4 99/1/4
f 100/1/4 101/1/4 103/1/4
f 101/2/4 102/2/4 104/2/4
f 103/1/4 101/1/4 104/1/4
f 104/2/4 102/2/4 105/2/4
f 105/2/4 102/2/4 106/2/4
f 106/2/4 107/2/4 108/2/4
f 108/2/4 107/2/4 109/2/4
f 109/2/4 110/2/4 111/2/4
f 111/2/4 110/2/4 112/2/4
f 113/1/4 114/1/4 115/1/4
f 115/1/4 114/1/4 116/1/4
f 116/2/4 117/2/4 119/2/4
f 119/2/4 117/2/4 120/2/4
f 118/1/4 119/1/4 121/1/4
f 121/1/4 119/1/4 122/1/4
f 123/1/4 124/1/4 125/1/4
f 125/1/4 124/1/4 126/1/4
f 129/1/5 128/1/5 127/1/5
f 130/1/5 128/1/5 129/1/5
f 134/1/5 132/1/5 131/1/5
f 135/1/5 132/1/5 134/1/5
f 137/1/5 134/1/5 133/1/5
f 138/1/5 134/1/5 137/1/5
f 139/1/5 134/1/5 138/1/5
f 140/1/5 134/1/5 139/1/5
f 141/1/5 136/1/5 135/1/5
f 142/1/5 136/1/5 141/1/5
f 143/1/5 141/1/5 140/1/5
f 144/1/5 141/1/5 143/1/5
f 147/2/5 146/2/5 145/2/5
f 148/2/5 146/2/5 147/2/5
f 149/1/6 150/1/6 152/1/6
f 152/1/6 150/1/6 153/1/6
f 151/1/6 152/1/6 156/1/6
f 156/1/6 152/1/6 157/1/6
f 155/2/6 156/2/6 158/2/6
f 158/2/6 156/2/6 159/2/6
f 159/1/6 160/1/6 161/1/6
f 161/1/6 160/1/6 162/1/6
f 153/1/6 154/1/6 163/1/6
f 163/1/6 154/1/6 164/1/6
f 162/1/6 163/1/6 165/1/6
f 165/1/6 163/1/6 166/1/6
f 167/2/6 168/2/6 170/2/6
f 170/2/6 168/2/6 171/2/6
f 169/2/6 170/2/6 172/2/6
f 172/2/6 170/2/6 173/2/6
f 171/2/6 168/2/6 174/2/6
f 173/2/6 174/2/6 175/2/6
f 174/2/6 168/2/6 176/2/6
f 175/2/6 174/2/6 176/2/6
f 177/2/6 178/2/6 179/2/6
f 179/2/6 178/2/6 180/2/6
