# MagicaVoxel @ Ephtracy

# group
o head_bun

# material
mtllib character-281-head_bun.mtl
usemtl palette

# normals
vn -1 0 0
vn 1 0 0
vn 0 0 1
vn 0 0 -1
vn 0 -1 0
vn 0 1 0

# texcoords
vt 0.615234 0.5
vt 0.884766 0.5
vt 0.892578 0.5

# verts
v -0.2 2.8 0.2
v -0.2 2.8 0
v -0.2 2.8 -0.1
v -0.2 2.9 0.2
v -0.2 2.9 0.1
v -0.2 2.9 -0.1
v -0.2 2.9 -0.2
v -0.2 3 0.3
v -0.2 3 0.2
v -0.2 3 0.1
v -0.2 3.1 0.3
v -0.2 3.1 0.2
v -0.2 3.1 0.1
v -0.2 3.1 0
v -0.2 3.2 0.2
v -0.2 3.2 0.1
v -0.2 3.2 -0.2
v -0.1 2.6 0.1
v -0.1 2.6 -0.1
v -0.1 2.7 0.2
v -0.1 2.7 0.1
v -0.1 2.8 0.3
v -0.1 2.8 0.2
v -0.1 2.8 0
v -0.1 2.8 -0.1
v -0.1 2.8 -0.2
v -0.1 2.9 0.2
v -0.1 2.9 -0.1
v -0.1 2.9 -0.2
v -0.1 2.9 -0.3
v -0.1 3 0.3
v -0.1 3 0.2
v -0.1 3.1 -0.2
v -0.1 3.1 -0.3
v 0.1 2.6 0.1
v 0.1 2.6 -0.1
v 0.1 2.7 0.2
v 0.1 2.7 0.1
v 0.1 2.8 0.3
v 0.1 2.8 0.2
v 0.1 2.8 0
v 0.1 2.8 -0.1
v 0.1 2.8 -0.2
v 0.1 2.9 0.2
v 0.1 2.9 -0.1
v 0.1 2.9 -0.2
v 0.1 2.9 -0.3
v 0.1 3 0.3
v 0.1 3 0.2
v 0.1 3.1 -0.2
v 0.1 3.1 -0.3
v 0.2 2.8 0.2
v 0.2 2.8 0
v 0.2 2.8 -0.1
v 0.2 2.9 0.2
v 0.2 2.9 0.1
v 0.2 2.9 -0.1
v 0.2 2.9 -0.2
v 0.2 3 0.3
v 0.2 3 0.2
v 0.2 3 0.1
v 0.2 3.1 0.3
v 0.2 3.1 0.2
v 0.2 3.1 0.1
v 0.2 3.1 0
v 0.2 3.2 0.2
v 0.2 3.2 0.1
v 0.2 3.2 -0.2
v -0.2 3 0.3
v -0.2 3.1 0.3
v -0.1 2.8 0.3
v -0.1 3 0.3
v -0.1 3.1 0.3
v 0.1 2.8 0.3
v 0.1 3 0.3
v 0.1 3.1 0.3
v 0.2 3 0.3
v 0.2 3.1 0.3
v -0.2 2.8 0.2
v -0.2 2.9 0.2
v -0.2 3 0.2
v -0.2 3.1 0.2
v -0.2 3.2 0.2
v -0.1 2.7 0.2
v -0.1 2.8 0.2
v -0.1 2.9 0.2
v -0.1 3 0.2
v -0.1 3.1 0.2
v 0.1 2.7 0.2
v 0.1 2.8 0.2
v 0.1 2.9 0.2
v 0.1 3 0.2
v 0.1 3.1 0.2
v 0.2 2.8 0.2
v 0.2 2.9 0.2
v 0.2 3 0.2
v 0.2 3.1 0.2
v 0.2 3.2 0.2
v -0.1 2.6 0.1
v -0.1 2.7 0.1
v 0.1 2.6 0.1
v 0.1 2.7 0.1
v -0.2 2.8 -0.1
v -0.2 2.9 -0.1
v -0.1 2.6 -0.1
v -0.1 2.8 -0.1
v -0.1 2.9 -0.1
v 0.1 2.6 -0.1
v 0.1 2.8 -0.1
v 0.1 2.9 -0.1
v 0.2 2.8 -0.1
v 0.2 2.9 -0.1
v -0.2 2.9 -0.2
v -0.2 3.2 -0.2
v -0.1 2.8 -0.2
v -0.1 2.9 -0.2
v -0.1 3.1 -0.2
v 0.1 2.8 -0.2
v 0.1 2.9 -0.2
v 0.1 3.1 -0.2
v 0.2 2.9 -0.2
v 0.2 3.2 -0.2
v -0.1 2.9 -0.3
v -0.1 3.1 -0.3
v 0.1 2.9 -0.3
v 0.1 3.1 -0.3
v -0.1 2.6 0.1
v 0.1 2.6 0.1
v -0.1 2.6 -0.1
v 0.1 2.6 -0.1
v -0.1 2.7 0.2
v 0.1 2.7 0.2
v -0.1 2.7 0.1
v 0.1 2.7 0.1
v -0.1 2.8 0.3
v 0.1 2.8 0.3
v -0.2 2.8 0.2
v -0.1 2.8 0.2
v 0.1 2.8 0.2
v 0.2 2.8 0.2
v -0.2 2.8 0
v -0.1 2.8 0
v 0.1 2.8 0
v 0.2 2.8 0
v -0.2 2.8 -0.1
v -0.1 2.8 -0.1
v 0.1 2.8 -0.1
v 0.2 2.8 -0.1
v -0.1 2.8 -0.2
v 0.1 2.8 -0.2
v -0.2 2.9 -0.1
v -0.1 2.9 -0.1
v 0.1 2.9 -0.1
v 0.2 2.9 -0.1
v -0.2 2.9 -0.2
v -0.1 2.9 -0.2
v 0.1 2.9 -0.2
v 0.2 2.9 -0.2
v -0.1 2.9 -0.3
v 0.1 2.9 -0.3
v -0.2 3 0.3
v -0.1 3 0.3
v 0.1 3 0.3
v 0.2 3 0.3
v -0.2 3 0.2
v -0.1 3 0.2
v 0.1 3 0.2
v 0.2 3 0.2
v -0.2 3.1 0.3
v -0.1 3.1 0.3
v 0.1 3.1 0.3
v 0.2 3.1 0.3
v -0.2 3.1 0.2
v -0.1 3.1 0.2
v 0.1 3.1 0.2
v 0.2 3.1 0.2
v -0.1 3.1 -0.2
v 0.1 3.1 -0.2
v -0.1 3.1 -0.3
v 0.1 3.1 -0.3
v -0.2 3.2 0.2
v 0.2 3.2 0.2
v -0.2 3.2 0.1
v 0.2 3.2 0.1
v -0.2 3.2 -0.2
v 0.2 3.2 -0.2

# faces
f 4/3/1 2/3/1 1/3/1
f 5/3/1 2/3/1 4/3/1
f 6/1/1 3/1/1 2/1/1
f 9/2/1 5/2/1 4/2/1
f 10/3/1 2/3/1 5/3/1
f 10/2/1 5/2/1 9/2/1
f 11/1/1 9/1/1 8/1/1
f 12/3/1 10/3/1 9/3/1
f 12/1/1 9/1/1 11/1/1
f 13/3/1 2/3/1 10/3/1
f 13/3/1 10/3/1 12/3/1
f 14/1/1 7/1/1 6/1/1
f 14/3/1 2/3/1 13/3/1
f 14/1/1 6/1/1 2/1/1
f 15/3/1 13/3/1 12/3/1
f 16/1/1 14/1/1 13/1/1
f 16/3/1 13/3/1 15/3/1
f 17/1/1 7/1/1 14/1/1
f 17/1/1 14/1/1 16/1/1
f 21/3/1 19/3/1 18/3/1
f 23/3/1 21/3/1 20/3/1
f 24/3/1 19/3/1 21/3/1
f 24/3/1 21/3/1 23/3/1
f 25/3/1 19/3/1 24/3/1
f 27/3/1 23/3/1 22/3/1
f 28/1/1 26/1/1 25/1/1
f 29/1/1 26/1/1 28/1/1
f 31/3/1 27/3/1 22/3/1
f 32/3/1 27/3/1 31/3/1
f 33/1/1 30/1/1 29/1/1
f 34/1/1 30/1/1 33/1/1
f 35/3/2 36/3/2 38/3/2
f 37/3/2 38/3/2 40/3/2
f 38/3/2 36/3/2 41/3/2
f 40/3/2 38/3/2 41/3/2
f 41/3/2 36/3/2 42/3/2
f 39/3/2 40/3/2 44/3/2
f 42/1/2 43/1/2 45/1/2
f 45/1/2 43/1/2 46/1/2
f 39/3/2 44/3/2 48/3/2
f 48/3/2 44/3/2 49/3/2
f 46/1/2 47/1/2 50/1/2
f 50/1/2 47/1/2 51/1/2
f 52/3/2 53/3/2 55/3/2
f 55/3/2 53/3/2 56/3/2
f 53/1/2 54/1/2 57/1/2
f 55/2/2 56/2/2 60/2/2
f 56/3/2 53/3/2 61/3/2
f 60/2/2 56/2/2 61/2/2
f 59/1/2 60/1/2 62/1/2
f 60/3/2 61/3/2 63/3/2
f 62/1/2 60/1/2 63/1/2
f 61/3/2 53/3/2 64/3/2
f 63/3/2 61/3/2 64/3/2
f 57/1/2 58/1/2 65/1/2
f 64/3/2 53/3/2 65/3/2
f 53/1/2 57/1/2 65/1/2
f 63/3/2 64/3/2 66/3/2
f 64/1/2 65/1/2 67/1/2
f 66/3/2 64/3/2 67/3/2
f 65/1/2 58/1/2 68/1/2
f 67/1/2 65/1/2 68/1/2
f 72/1/3 70/1/3 69/1/3
f 73/1/3 70/1/3 72/1/3
f 74/3/3 72/3/3 71/3/3
f 74/3/3 73/3/3 72/3/3
f 75/3/3 73/3/3 74/3/3
f 76/3/3 73/3/3 75/3/3
f 77/1/3 76/1/3 75/1/3
f 78/1/3 76/1/3 77/1/3
f 85/3/3 80/3/3 79/3/3
f 86/2/3 81/2/3 80/2/3
f 86/3/3 80/3/3 85/3/3
f 87/2/3 81/2/3 86/2/3
f 88/3/3 83/3/3 82/3/3
f 89/3/3 85/3/3 84/3/3
f 90/3/3 85/3/3 89/3/3
f 93/3/3 83/3/3 88/3/3
f 94/3/3 91/3/3 90/3/3
f 95/2/3 92/2/3 91/2/3
f 95/3/3 91/3/3 94/3/3
f 96/2/3 92/2/3 95/2/3
f 97/3/3 83/3/3 93/3/3
f 98/3/3 83/3/3 97/3/3
f 101/3/3 100/3/3 99/3/3
f 102/3/3 100/3/3 101/3/3
f 103/1/4 104/1/4 106/1/4
f 106/1/4 104/1/4 107/1/4
f 105/3/4 106/3/4 108/3/4
f 108/3/4 106/3/4 109/3/4
f 109/1/4 110/1/4 111/1/4
f 111/1/4 110/1/4 112/1/4
f 113/1/4 114/1/4 116/1/4
f 116/1/4 114/1/4 117/1/4
f 115/1/4 116/1/4 118/1/4
f 118/1/4 116/1/4 119/1/4
f 117/1/4 114/1/4 120/1/4
f 119/1/4 120/1/4 121/1/4
f 120/1/4 114/1/4 122/1/4
f 121/1/4 120/1/4 122/1/4
f 123/1/4 124/1/4 125/1/4
f 125/1/4 124/1/4 126/1/4
f 129/3/5 128/3/5 127/3/5
f 130/3/5 128/3/5 129/3/5
f 133/3/5 132/3/5 131/3/5
f 134/3/5 132/3/5 133/3/5
f 138/3/5 136/3/5 135/3/5
f 139/3/5 136/3/5 138/3/5
f 141/3/5 138/3/5 137/3/5
f 142/3/5 138/3/5 141/3/5
f 143/3/5 140/3/5 139/3/5
f 144/3/5 140/3/5 143/3/5
f 145/1/5 142/1/5 141/1/5
f 146/1/5 142/1/5 145/1/5
f 147/1/5 144/1/5 143/1/5
f 148/1/5 144/1/5 147/1/5
f 149/1/5 147/1/5 146/1/5
f 150/1/5 147/1/5 149/1/5
f 155/1/5 152/1/5 151/1/5
f 156/1/5 152/1/5 155/1/5
f 157/1/5 154/1/5 153/1/5
f 158/1/5 154/1/5 157/1/5
f 159/1/5 157/1/5 156/1/5
f 160/1/5 157/1/5 159/1/5
f 165/1/5 162/1/5 161/1/5
f 166/1/5 162/1/5 165/1/5
f 167/1/5 164/1/5 163/1/5
f 168/1/5 164/1/5 167/1/5
f 169/1/6 170/1/6 173/1/6
f 170/3/6 171/3/6 174/3/6
f 173/1/6 170/1/6 174/1/6
f 171/1/6 172/1/6 175/1/6
f 174/3/6 171/3/6 175/3/6
f 175/1/6 172/1/6 176/1/6
f 177/1/6 178/1/6 179/1/6
f 179/1/6 178/1/6 180/1/6
f 181/3/6 182/3/6 183/3/6
f 183/3/6 182/3/6 184/3/6
f 183/1/6 184/1/6 185/1/6
f 185/1/6 184/1/6 186/1/6
