# MagicaVoxel @ Ephtracy

# group
o head_undercut_tail

# material
mtllib character-277-head_undercut_tail.mtl
usemtl palette

# normals
vn -1 0 0
vn 1 0 0
vn 0 0 1
vn 0 0 -1
vn 0 -1 0
vn 0 1 0

# texcoords
vt 0.615234 0.5
vt 0.884766 0.5
vt 0.892578 0.5

# verts
v -0.2 2.8 0.2
v -0.2 2.8 -0.1
v -0.2 2.9 0.2
v -0.2 2.9 0.1
v -0.2 2.9 -0.1
v -0.2 2.9 -0.2
v -0.2 3 0.3
v -0.2 3 0.2
v -0.2 3 0.1
v -0.2 3.1 0.3
v -0.2 3.1 0.2
v -0.2 3.2 0.2
v -0.2 3.2 -0.2
v -0.1 2.6 0.1
v -0.1 2.6 -0.1
v -0.1 2.6 -0.2
v -0.1 2.6 -0.3
v -0.1 2.7 0.2
v -0.1 2.7 0.1
v -0.1 2.8 0.3
v -0.1 2.8 0.2
v -0.1 2.8 -0.1
v -0.1 2.9 0.2
v -0.1 2.9 -0.2
v -0.1 3 0.3
v -0.1 3 0.2
v -0.1 3.2 0.2
v -0.1 3.2 -0.2
v -0.1 3.2 -0.3
v -0.1 3.3 0.2
v -0.1 3.3 -0.2
v 0.1 2.6 0.1
v 0.1 2.6 -0.1
v 0.1 2.6 -0.2
v 0.1 2.6 -0.3
v 0.1 2.7 0.2
v 0.1 2.7 0.1
v 0.1 2.8 0.3
v 0.1 2.8 0.2
v 0.1 2.8 -0.1
v 0.1 2.9 0.2
v 0.1 2.9 -0.2
v 0.1 3 0.3
v 0.1 3 0.2
v 0.1 3.2 0.2
v 0.1 3.2 -0.2
v 0.1 3.2 -0.3
v 0.1 3.3 0.2
v 0.1 3.3 -0.2
v 0.2 2.8 0.2
v 0.2 2.8 -0.1
v 0.2 2.9 0.2
v 0.2 2.9 0.1
v 0.2 2.9 -0.1
v 0.2 2.9 -0.2
v 0.2 3 0.3
v 0.2 3 0.2
v 0.2 3 0.1
v 0.2 3.1 0.3
v 0.2 3.1 0.2
v 0.2 3.2 0.2
v 0.2 3.2 -0.2
v -0.2 3 0.3
v -0.2 3.1 0.3
v -0.1 2.8 0.3
v -0.1 3 0.3
v -0.1 3.1 0.3
v 0.1 2.8 0.3
v 0.1 3 0.3
v 0.1 3.1 0.3
v 0.2 3 0.3
v 0.2 3.1 0.3
v -0.2 2.8 0.2
v -0.2 2.9 0.2
v -0.2 3 0.2
v -0.2 3.1 0.2
v -0.2 3.2 0.2
v -0.1 2.7 0.2
v -0.1 2.8 0.2
v -0.1 2.9 0.2
v -0.1 3 0.2
v -0.1 3.1 0.2
v -0.1 3.2 0.2
v -0.1 3.3 0.2
v 0.1 2.7 0.2
v 0.1 2.8 0.2
v 0.1 2.9 0.2
v 0.1 3 0.2
v 0.1 3.1 0.2
v 0.1 3.2 0.2
v 0.1 3.3 0.2
v 0.2 2.8 0.2
v 0.2 2.9 0.2
v 0.2 3 0.2
v 0.2 3.1 0.2
v 0.2 3.2 0.2
v -0.1 2.6 0.1
v -0.1 2.7 0.1
v 0.1 2.6 0.1
v 0.1 2.7 0.1
v -0.1 2.6 -0.2
v -0.1 2.9 -0.2
v 0.1 2.6 -0.2
v 0.1 2.9 -0.2
v -0.2 2.8 -0.1
v -0.2 2.9 -0.1
v -0.1 2.6 -0.1
v -0.1 2.8 -0.1
v 0.1 2.6 -0.1
v 0.1 2.8 -0.1
v 0.2 2.8 -0.1
v 0.2 2.9 -0.1
v -0.2 2.9 -0.2
v -0.2 3.2 -0.2
v -0.1 2.9 -0.2
v -0.1 3.2 -0.2
v -0.1 3.3 -0.2
v 0.1 2.9 -0.2
v 0.1 3.2 -0.2
v 0.1 3.3 -0.2
v 0.2 2.9 -0.2
v 0.2 3.2 -0.2
v -0.1 2.6 -0.3
v -0.1 3.2 -0.3
v 0.1 2.6 -0.3
v 0.1 3.2 -0.3
v -0.1 2.6 0.1
v 0.1 2.6 0.1
v -0.1 2.6 -0.1
v 0.1 2.6 -0.1
v -0.1 2.6 -0.2
v 0.1 2.6 -0.2
v -0.1 2.6 -0.3
v 0.1 2.6 -0.3
v -0.1 2.7 0.2
v 0.1 2.7 0.2
v -0.1 2.7 0.1
v 0.1 2.7 0.1
v -0.1 2.8 0.3
v 0.1 2.8 0.3
v -0.2 2.8 0.2
v -0.1 2.8 0.2
v 0.1 2.8 0.2
v 0.2 2.8 0.2
v -0.2 2.8 -0.1
v -0.1 2.8 -0.1
v 0.1 2.8 -0.1
v 0.2 2.8 -0.1
v -0.2 2.9 -0.1
v 0.2 2.9 -0.1
v -0.2 2.9 -0.2
v -0.1 2.9 -0.2
v 0.1 2.9 -0.2
v 0.2 2.9 -0.2
v -0.2 3 0.3
v -0.1 3 0.3
v 0.1 3 0.3
v 0.2 3 0.3
v -0.2 3 0.2
v -0.1 3 0.2
v 0.1 3 0.2
v 0.2 3 0.2
v -0.2 3.1 0.3
v -0.1 3.1 0.3
v 0.1 3.1 0.3
v 0.2 3.1 0.3
v -0.2 3.1 0.2
v -0.1 3.1 0.2
v 0.1 3.1 0.2
v 0.2 3.1 0.2
v -0.2 3.2 0.2
v -0.1 3.2 0.2
v 0.1 3.2 0.2
v 0.2 3.2 0.2
v -0.2 3.2 -0.2
v -0.1 3.2 -0.2
v 0.1 3.2 -0.2
v 0.2 3.2 -0.2
v -0.1 3.2 -0.3
v 0.1 3.2 -0.3
v -0.1 3.3 0.2
v 0.1 3.3 0.2
v -0.1 3.3 -0.2
v 0.1 3.3 -0.2

# faces
f 3/3/1 2/3/1 1/3/1
f 4/3/1 2/3/1 3/3/1
f 5/3/1 2/3/1 4/3/1
f 8/2/1 4/2/1 3/2/1
f 9/3/1 6/3/1 5/3/1
f 9/3/1 5/3/1 4/3/1
f 9/2/1 4/2/1 8/2/1
f 10/1/1 8/1/1 7/1/1
f 11/3/1 9/3/1 8/3/1
f 11/1/1 8/1/1 10/1/1
f 12/3/1 9/3/1 11/3/1
f 13/3/1 6/3/1 9/3/1
f 13/3/1 9/3/1 12/3/1
f 19/3/1 15/3/1 14/3/1
f 21/3/1 19/3/1 18/3/1
f 22/3/1 15/3/1 19/3/1
f 22/3/1 19/3/1 21/3/1
f 23/3/1 21/3/1 20/3/1
f 24/1/1 17/1/1 16/1/1
f 25/3/1 23/3/1 20/3/1
f 26/3/1 23/3/1 25/3/1
f 28/1/1 17/1/1 24/1/1
f 29/1/1 17/1/1 28/1/1
f 30/1/1 28/1/1 27/1/1
f 31/1/1 28/1/1 30/1/1
f 32/3/2 33/3/2 37/3/2
f 36/3/2 37/3/2 39/3/2
f 37/3/2 33/3/2 40/3/2
f 39/3/2 37/3/2 40/3/2
f 38/3/2 39/3/2 41/3/2
f 34/1/2 35/1/2 42/1/2
f 38/3/2 41/3/2 43/3/2
f 43/3/2 41/3/2 44/3/2
f 42/1/2 35/1/2 46/1/2
f 46/1/2 35/1/2 47/1/2
f 45/1/2 46/1/2 48/1/2
f 48/1/2 46/1/2 49/1/2
f 50/3/2 51/3/2 52/3/2
f 52/3/2 51/3/2 53/3/2
f 53/3/2 51/3/2 54/3/2
f 52/2/2 53/2/2 57/2/2
f 54/3/2 55/3/2 58/3/2
f 53/3/2 54/3/2 58/3/2
f 57/2/2 53/2/2 58/2/2
f 56/1/2 57/1/2 59/1/2
f 57/3/2 58/3/2 60/3/2
f 59/1/2 57/1/2 60/1/2
f 60/3/2 58/3/2 61/3/2
f 58/3/2 55/3/2 62/3/2
f 61/3/2 58/3/2 62/3/2
f 66/1/3 64/1/3 63/1/3
f 67/1/3 64/1/3 66/1/3
f 68/3/3 66/3/3 65/3/3
f 68/3/3 67/3/3 66/3/3
f 69/3/3 67/3/3 68/3/3
f 70/3/3 67/3/3 69/3/3
f 71/1/3 70/1/3 69/1/3
f 72/1/3 70/1/3 71/1/3
f 79/3/3 74/3/3 73/3/3
f 80/2/3 75/2/3 74/2/3
f 80/3/3 74/3/3 79/3/3
f 81/2/3 75/2/3 80/2/3
f 82/3/3 77/3/3 76/3/3
f 83/3/3 77/3/3 82/3/3
f 85/3/3 79/3/3 78/3/3
f 86/3/3 79/3/3 85/3/3
f 89/3/3 83/3/3 82/3/3
f 90/1/3 84/1/3 83/1/3
f 90/3/3 83/3/3 89/3/3
f 91/1/3 84/1/3 90/1/3
f 92/3/3 87/3/3 86/3/3
f 93/2/3 88/2/3 87/2/3
f 93/3/3 87/3/3 92/3/3
f 94/2/3 88/2/3 93/2/3
f 95/3/3 90/3/3 89/3/3
f 96/3/3 90/3/3 95/3/3
f 99/3/3 98/3/3 97/3/3
f 100/3/3 98/3/3 99/3/3
f 103/1/3 102/1/3 101/1/3
f 104/1/3 102/1/3 103/1/3
f 105/3/4 106/3/4 108/3/4
f 107/3/4 108/3/4 109/3/4
f 108/3/4 106/3/4 110/3/4
f 109/3/4 108/3/4 110/3/4
f 110/3/4 106/3/4 111/3/4
f 111/3/4 106/3/4 112/3/4
f 113/3/4 114/3/4 115/3/4
f 115/3/4 114/3/4 116/3/4
f 116/1/4 117/1/4 119/1/4
f 119/1/4 117/1/4 120/1/4
f 118/3/4 119/3/4 121/3/4
f 121/3/4 119/3/4 122/3/4
f 123/1/4 124/1/4 125/1/4
f 125/1/4 124/1/4 126/1/4
f 129/3/5 128/3/5 127/3/5
f 130/3/5 128/3/5 129/3/5
f 133/1/5 132/1/5 131/1/5
f 134/1/5 132/1/5 133/1/5
f 137/3/5 136/3/5 135/3/5
f 138/3/5 136/3/5 137/3/5
f 142/3/5 140/3/5 139/3/5
f 143/3/5 140/3/5 142/3/5
f 145/3/5 142/3/5 141/3/5
f 146/3/5 142/3/5 145/3/5
f 147/3/5 144/3/5 143/3/5
f 148/3/5 144/3/5 147/3/5
f 151/3/5 150/3/5 149/3/5
f 152/3/5 150/3/5 151/3/5
f 153/3/5 150/3/5 152/3/5
f 154/3/5 150/3/5 153/3/5
f 159/1/5 156/1/5 155/1/5
f 160/1/5 156/1/5 159/1/5
f 161/1/5 158/1/5 157/1/5
f 162/1/5 158/1/5 161/1/5
f 163/1/6 164/1/6 167/1/6
f 164/3/6 165/3/6 168/3/6
f 167/1/6 164/1/6 168/1/6
f 165/1/6 166/1/6 169/1/6
f 168/3/6 165/3/6 169/3/6
f 169/1/6 166/1/6 170/1/6
f 171/3/6 172/3/6 175/3/6
f 175/3/6 172/3/6 176/3/6
f 173/3/6 174/3/6 177/3/6
f 177/3/6 174/3/6 178/3/6
f 176/1/6 177/1/6 179/1/6
f 179/1/6 177/1/6 180/1/6
f 181/1/6 182/1/6 183/1/6
f 183/1/6 182/1/6 184/1/6
