# MagicaVoxel @ Ephtracy

# group
o chest_med_hvy_1c_du

# material
mtllib character-84-chest_med_hvy_1c_du.mtl
usemtl palette

# normals
vn -1 0 0
vn 1 0 0
vn 0 0 1
vn 0 0 -1
vn 0 -1 0
vn 0 1 0

# texcoords
vt 0.482422 0.5
vt 0.697266 0.5
vt 0.701172 0.5
vt 0.892578 0.5
vt 0.962891 0.5

# verts
v -0.4 1.4 0.2
v -0.4 1.4 -0.1
v -0.4 1.6 0.2
v -0.4 1.6 -0.1
v -0.4 1.7 0.2
v -0.4 1.7 0
v -0.4 1.7 -0.1
v -0.4 2 0.3
v -0.4 2 0.2
v -0.4 2 0
v -0.4 2 -0.1
v -0.4 2.1 -0.1
v -0.4 2.1 -0.2
v -0.4 2.4 0.3
v -0.4 2.4 0.2
v -0.4 2.5 0.2
v -0.4 2.5 -0.2
v -0.3 1.4 0.3
v -0.3 1.4 0.2
v -0.3 1.4 -0.1
v -0.3 1.4 -0.2
v -0.3 1.6 0.3
v -0.3 1.6 0.2
v -0.3 1.6 -0.1
v -0.3 1.6 -0.2
v -0.3 1.7 0.3
v -0.3 1.7 0.2
v -0.3 1.7 0
v -0.3 1.7 -0.1
v -0.3 1.7 -0.2
v -0.3 2 0.4
v -0.3 2 0.3
v -0.3 2 0.2
v -0.3 2 0
v -0.3 2 -0.1
v -0.3 2 -0.2
v -0.3 2.1 -0.1
v -0.3 2.1 -0.2
v -0.3 2.1 -0.3
v -0.3 2.4 0.4
v -0.3 2.4 0.3
v -0.3 2.4 0.2
v -0.3 2.5 0.3
v -0.3 2.5 0.2
v -0.3 2.5 -0.2
v -0.3 2.5 -0.3
v -0.2 1.4 0.4
v -0.2 1.4 0.3
v -0.2 1.4 -0.2
v -0.2 1.4 -0.3
v -0.2 1.6 0.4
v -0.2 1.6 0.3
v -0.2 1.6 -0.2
v -0.2 1.6 -0.3
v -0.2 1.7 0.4
v -0.2 1.7 0.3
v -0.2 1.7 -0.1
v -0.2 1.7 -0.2
v -0.2 1.7 -0.3
v -0.2 2 0.4
v -0.2 2 0.3
v -0.2 2 -0.1
v -0.2 2 -0.2
v -0.2 2 -0.3
v -0.2 2.1 -0.2
v -0.2 2.1 -0.3
v -0.2 2.5 0.1
v -0.2 2.5 -0.1
v -0.2 2.6 0.1
v -0.2 2.6 -0.1
v -0.1 2.5 0.2
v -0.1 2.5 0.1
v -0.1 2.5 -0.1
v -0.1 2.5 -0.2
v -0.1 2.6 0.2
v -0.1 2.6 0.1
v -0.1 2.6 -0.1
v -0.1 2.6 -0.2
v 0.2 1.6 -0.1
v 0.2 1.6 -0.2
v 0.2 1.7 -0.1
v 0.2 1.7 -0.2
v -0.2 1.6 -0.1
v -0.2 1.6 -0.2
v -0.2 1.7 -0.1
v -0.2 1.7 -0.2
v 0.1 2.5 0.2
v 0.1 2.5 0.1
v 0.1 2.5 -0.1
v 0.1 2.5 -0.2
v 0.1 2.6 0.2
v 0.1 2.6 0.1
v 0.1 2.6 -0.1
v 0.1 2.6 -0.2
v 0.2 1.4 0.4
v 0.2 1.4 0.3
v 0.2 1.4 -0.2
v 0.2 1.4 -0.3
v 0.2 1.6 0.4
v 0.2 1.6 0.3
v 0.2 1.6 -0.2
v 0.2 1.6 -0.3
v 0.2 1.7 0.4
v 0.2 1.7 0.3
v 0.2 1.7 -0.1
v 0.2 1.7 -0.2
v 0.2 1.7 -0.3
v 0.2 2 0.4
v 0.2 2 0.3
v 0.2 2 -0.1
v 0.2 2 -0.2
v 0.2 2 -0.3
v 0.2 2.1 -0.2
v 0.2 2.1 -0.3
v 0.2 2.5 0.1
v 0.2 2.5 -0.1
v 0.2 2.6 0.1
v 0.2 2.6 -0.1
v 0.3 1.4 0.3
v 0.3 1.4 0.2
v 0.3 1.4 -0.1
v 0.3 1.4 -0.2
v 0.3 1.6 0.3
v 0.3 1.6 0.2
v 0.3 1.6 -0.1
v 0.3 1.6 -0.2
v 0.3 1.7 0.3
v 0.3 1.7 0.2
v 0.3 1.7 0
v 0.3 1.7 -0.1
v 0.3 1.7 -0.2
v 0.3 2 0.4
v 0.3 2 0.3
v 0.3 2 0.2
v 0.3 2 0
v 0.3 2 -0.1
v 0.3 2 -0.2
v 0.3 2.1 -0.1
v 0.3 2.1 -0.2
v 0.3 2.1 -0.3
v 0.3 2.4 0.4
v 0.3 2.4 0.3
v 0.3 2.4 0.2
v 0.3 2.5 0.3
v 0.3 2.5 0.2
v 0.3 2.5 -0.2
v 0.3 2.5 -0.3
v 0.4 1.4 0.2
v 0.4 1.4 -0.1
v 0.4 1.6 0.2
v 0.4 1.6 -0.1
v 0.4 1.7 0.2
v 0.4 1.7 0
v 0.4 1.7 -0.1
v 0.4 2 0.3
v 0.4 2 0.2
v 0.4 2 0
v 0.4 2 -0.1
v 0.4 2.1 -0.1
v 0.4 2.1 -0.2
v 0.4 2.4 0.3
v 0.4 2.4 0.2
v 0.4 2.5 0.2
v 0.4 2.5 -0.2
v -0.3 2 0.4
v -0.3 2.4 0.4
v -0.2 1.4 0.4
v -0.2 1.6 0.4
v -0.2 1.7 0.4
v -0.2 2 0.4
v -0.1 1.6 0.4
v -0.1 1.7 0.4
v 0.1 1.6 0.4
v 0.1 1.7 0.4
v 0.2 1.4 0.4
v 0.2 1.6 0.4
v 0.2 1.7 0.4
v 0.2 2 0.4
v 0.3 2 0.4
v 0.3 2.4 0.4
v -0.4 2 0.3
v -0.4 2.4 0.3
v -0.3 1.4 0.3
v -0.3 1.6 0.3
v -0.3 1.7 0.3
v -0.3 2 0.3
v -0.3 2.4 0.3
v -0.3 2.5 0.3
v -0.2 1.4 0.3
v -0.2 1.6 0.3
v -0.2 1.7 0.3
v -0.2 2 0.3
v 0.2 1.4 0.3
v 0.2 1.6 0.3
v 0.2 1.7 0.3
v 0.2 2 0.3
v 0.3 1.4 0.3
v 0.3 1.6 0.3
v 0.3 1.7 0.3
v 0.3 2 0.3
v 0.3 2.4 0.3
v 0.3 2.5 0.3
v 0.4 2 0.3
v 0.4 2.4 0.3
v -0.4 1.4 0.2
v -0.4 1.6 0.2
v -0.4 1.7 0.2
v -0.4 2 0.2
v -0.4 2.4 0.2
v -0.4 2.5 0.2
v -0.3 1.4 0.2
v -0.3 1.6 0.2
v -0.3 1.7 0.2
v -0.3 2 0.2
v -0.3 2.4 0.2
v -0.3 2.5 0.2
v -0.1 2.5 0.2
v -0.1 2.6 0.2
v 0.1 2.5 0.2
v 0.1 2.6 0.2
v 0.3 1.4 0.2
v 0.3 1.6 0.2
v 0.3 1.7 0.2
v 0.3 2 0.2
v 0.3 2.4 0.2
v 0.3 2.5 0.2
v 0.4 1.4 0.2
v 0.4 1.6 0.2
v 0.4 1.7 0.2
v 0.4 2 0.2
v 0.4 2.4 0.2
v 0.4 2.5 0.2
v -0.2 2.5 0.1
v -0.2 2.6 0.1
v -0.1 2.5 0.1
v -0.1 2.6 0.1
v 0.1 2.5 0.1
v 0.1 2.6 0.1
v 0.2 2.5 0.1
v 0.2 2.6 0.1
v -0.2 1.6 -0.2
v -0.2 1.7 -0.2
v 0.2 1.6 -0.2
v 0.2 1.7 -0.2
v -0.4 1.7 0
v -0.4 2 0
v -0.3 1.7 0
v -0.3 2 0
v 0.3 1.7 0
v 0.3 2 0
v 0.4 1.7 0
v 0.4 2 0
v -0.4 1.4 -0.1
v -0.4 1.6 -0.1
v -0.4 1.7 -0.1
v -0.4 2 -0.1
v -0.4 2.1 -0.1
v -0.3 1.4 -0.1
v -0.3 1.6 -0.1
v -0.3 1.7 -0.1
v -0.3 2 -0.1
v -0.3 2.1 -0.1
v -0.2 1.6 -0.1
v -0.2 1.7 -0.1
v -0.2 2 -0.1
v -0.2 2.5 -0.1
v -0.2 2.6 -0.1
v -0.1 2.5 -0.1
v -0.1 2.6 -0.1
v 0.1 2.5 -0.1
v 0.1 2.6 -0.1
v 0.2 1.6 -0.1
v 0.2 1.7 -0.1
v 0.2 2 -0.1
v 0.2 2.5 -0.1
v 0.2 2.6 -0.1
v 0.3 1.4 -0.1
v 0.3 1.6 -0.1
v 0.3 1.7 -0.1
v 0.3 2 -0.1
v 0.3 2.1 -0.1
v 0.4 1.4 -0.1
v 0.4 1.6 -0.1
v 0.4 1.7 -0.1
v 0.4 2 -0.1
v 0.4 2.1 -0.1
v -0.4 2.1 -0.2
v -0.4 2.5 -0.2
v -0.3 1.4 -0.2
v -0.3 1.6 -0.2
v -0.3 1.7 -0.2
v -0.3 2 -0.2
v -0.3 2.1 -0.2
v -0.3 2.5 -0.2
v -0.2 1.4 -0.2
v -0.2 1.6 -0.2
v -0.2 1.7 -0.2
v -0.2 2 -0.2
v -0.2 2.1 -0.2
v -0.1 2.5 -0.2
v -0.1 2.6 -0.2
v 0.1 2.5 -0.2
v 0.1 2.6 -0.2
v 0.2 1.4 -0.2
v 0.2 1.6 -0.2
v 0.2 1.7 -0.2
v 0.2 2 -0.2
v 0.2 2.1 -0.2
v 0.3 1.4 -0.2
v 0.3 1.6 -0.2
v 0.3 1.7 -0.2
v 0.3 2 -0.2
v 0.3 2.1 -0.2
v 0.3 2.5 -0.2
v 0.4 2.1 -0.2
v 0.4 2.5 -0.2
v -0.3 2.1 -0.3
v -0.3 2.5 -0.3
v -0.2 1.4 -0.3
v -0.2 1.6 -0.3
v -0.2 1.7 -0.3
v -0.2 2 -0.3
v -0.2 2.1 -0.3
v 0.2 1.4 -0.3
v 0.2 1.6 -0.3
v 0.2 1.7 -0.3
v 0.2 2 -0.3
v 0.2 2.1 -0.3
v 0.3 2.1 -0.3
v 0.3 2.5 -0.3
v -0.2 1.4 0.4
v 0.2 1.4 0.4
v -0.3 1.4 0.3
v -0.2 1.4 0.3
v 0.2 1.4 0.3
v 0.3 1.4 0.3
v -0.4 1.4 0.2
v -0.3 1.4 0.2
v 0.3 1.4 0.2
v 0.4 1.4 0.2
v -0.4 1.4 -0.1
v -0.3 1.4 -0.1
v -0.2 1.4 -0.1
v 0.2 1.4 -0.1
v 0.3 1.4 -0.1
v 0.4 1.4 -0.1
v -0.3 1.4 -0.2
v -0.2 1.4 -0.2
v 0.2 1.4 -0.2
v 0.3 1.4 -0.2
v -0.2 1.4 -0.3
v 0.2 1.4 -0.3
v -0.2 1.7 -0.1
v 0.2 1.7 -0.1
v -0.2 1.7 -0.2
v 0.2 1.7 -0.2
v -0.3 2 0.4
v -0.2 2 0.4
v 0.2 2 0.4
v 0.3 2 0.4
v -0.4 2 0.3
v -0.3 2 0.3
v -0.2 2 0.3
v 0.2 2 0.3
v 0.3 2 0.3
v 0.4 2 0.3
v -0.4 2 0.2
v -0.3 2 0.2
v 0.3 2 0.2
v 0.4 2 0.2
v -0.4 2 0
v -0.3 2 0
v 0.3 2 0
v 0.4 2 0
v -0.4 2 -0.1
v -0.3 2 -0.1
v -0.2 2 -0.1
v 0.2 2 -0.1
v 0.3 2 -0.1
v 0.4 2 -0.1
v -0.3 2 -0.2
v -0.2 2 -0.2
v 0.2 2 -0.2
v 0.3 2 -0.2
v -0.2 2 -0.3
v 0.2 2 -0.3
v -0.4 2.1 -0.1
v -0.3 2.1 -0.1
v 0.3 2.1 -0.1
v 0.4 2.1 -0.1
v -0.4 2.1 -0.2
v -0.3 2.1 -0.2
v -0.2 2.1 -0.2
v 0.2 2.1 -0.2
v 0.3 2.1 -0.2
v 0.4 2.1 -0.2
v -0.3 2.1 -0.3
v -0.2 2.1 -0.3
v 0.2 2.1 -0.3
v 0.3 2.1 -0.3
v -0.2 1.6 -0.1
v 0.2 1.6 -0.1
v -0.2 1.6 -0.2
v 0.2 1.6 -0.2
v -0.4 1.7 0
v -0.3 1.7 0
v 0.3 1.7 0
v 0.4 1.7 0
v -0.4 1.7 -0.1
v -0.3 1.7 -0.1
v -0.2 1.7 -0.1
v 0.2 1.7 -0.1
v 0.3 1.7 -0.1
v 0.4 1.7 -0.1
v -0.3 1.7 -0.2
v -0.2 1.7 -0.2
v 0.2 1.7 -0.2
v 0.3 1.7 -0.2
v -0.2 1.7 -0.3
v 0.2 1.7 -0.3
v -0.3 2.4 0.4
v 0.3 2.4 0.4
v -0.4 2.4 0.3
v -0.3 2.4 0.3
v 0.3 2.4 0.3
v 0.4 2.4 0.3
v -0.4 2.4 0.2
v -0.3 2.4 0.2
v 0.3 2.4 0.2
v 0.4 2.4 0.2
v -0.3 2.5 0.3
v 0.3 2.5 0.3
v -0.4 2.5 0.2
v -0.3 2.5 0.2
v -0.1 2.5 0.2
v 0.1 2.5 0.2
v 0.3 2.5 0.2
v 0.4 2.5 0.2
v -0.2 2.5 0.1
v -0.1 2.5 0.1
v 0.1 2.5 0.1
v 0.2 2.5 0.1
v -0.2 2.5 -0.1
v -0.1 2.5 -0.1
v 0.1 2.5 -0.1
v 0.2 2.5 -0.1
v -0.4 2.5 -0.2
v -0.3 2.5 -0.2
v -0.1 2.5 -0.2
v 0.1 2.5 -0.2
v 0.3 2.5 -0.2
v 0.4 2.5 -0.2
v -0.3 2.5 -0.3
v 0.3 2.5 -0.3
v -0.1 2.6 0.2
v 0.1 2.6 0.2
v -0.2 2.6 0.1
v -0.1 2.6 0.1
v 0.1 2.6 0.1
v 0.2 2.6 0.1
v -0.2 2.6 -0.1
v -0.1 2.6 -0.1
v 0.1 2.6 -0.1
v 0.2 2.6 -0.1
v -0.1 2.6 -0.2
v 0.1 2.6 -0.2

# faces
f 3/3/1 2/3/1 1/3/1
f 4/3/1 2/3/1 3/3/1
f 5/2/1 4/2/1 3/2/1
f 6/2/1 4/2/1 5/2/1
f 7/2/1 4/2/1 6/2/1
f 9/3/1 6/3/1 5/3/1
f 10/3/1 6/3/1 9/3/1
f 12/3/1 9/3/1 8/3/1
f 12/3/1 11/3/1 10/3/1
f 12/3/1 10/3/1 9/3/1
f 14/3/1 12/3/1 8/3/1
f 14/3/1 13/3/1 12/3/1
f 15/3/1 13/3/1 14/3/1
f 16/3/1 13/3/1 15/3/1
f 17/3/1 13/3/1 16/3/1
f 22/3/1 19/3/1 18/3/1
f 23/3/1 19/3/1 22/3/1
f 24/3/1 21/3/1 20/3/1
f 25/3/1 21/3/1 24/3/1
f 26/2/1 23/2/1 22/2/1
f 27/2/1 23/2/1 26/2/1
f 29/2/1 25/2/1 24/2/1
f 30/2/1 25/2/1 29/2/1
f 32/3/1 27/3/1 26/3/1
f 33/3/1 27/3/1 32/3/1
f 34/3/1 29/3/1 28/3/1
f 35/3/1 29/3/1 34/3/1
f 37/3/1 36/3/1 35/3/1
f 38/3/1 36/3/1 37/3/1
f 40/3/1 32/3/1 31/3/1
f 41/3/1 32/3/1 40/3/1
f 43/3/1 42/3/1 41/3/1
f 44/3/1 42/3/1 43/3/1
f 45/3/1 39/3/1 38/3/1
f 46/3/1 39/3/1 45/3/1
f 51/3/1 48/3/1 47/3/1
f 52/3/1 48/3/1 51/3/1
f 53/3/1 50/3/1 49/3/1
f 54/3/1 50/3/1 53/3/1
f 55/2/1 52/2/1 51/2/1
f 56/2/1 52/2/1 55/2/1
f 58/2/1 54/2/1 53/2/1
f 59/2/1 54/2/1 58/2/1
f 60/3/1 56/3/1 55/3/1
f 61/3/1 56/3/1 60/3/1
f 62/3/1 58/3/1 57/3/1
f 63/3/1 58/3/1 62/3/1
f 65/3/1 64/3/1 63/3/1
f 66/3/1 64/3/1 65/3/1
f 69/1/1 68/1/1 67/1/1
f 70/1/1 68/1/1 69/1/1
f 75/1/1 72/1/1 71/1/1
f 76/1/1 72/1/1 75/1/1
f 77/1/1 74/1/1 73/1/1
f 78/1/1 74/1/1 77/1/1
f 81/2/1 80/2/1 79/2/1
f 82/2/1 80/2/1 81/2/1
f 83/2/2 84/2/2 85/2/2
f 85/2/2 84/2/2 86/2/2
f 87/1/2 88/1/2 91/1/2
f 91/1/2 88/1/2 92/1/2
f 89/1/2 90/1/2 93/1/2
f 93/1/2 90/1/2 94/1/2
f 95/3/2 96/3/2 99/3/2
f 99/3/2 96/3/2 100/3/2
f 97/3/2 98/3/2 101/3/2
f 101/3/2 98/3/2 102/3/2
f 99/2/2 100/2/2 103/2/2
f 103/2/2 100/2/2 104/2/2
f 101/2/2 102/2/2 106/2/2
f 106/2/2 102/2/2 107/2/2
f 103/3/2 104/3/2 108/3/2
f 108/3/2 104/3/2 109/3/2
f 105/3/2 106/3/2 110/3/2
f 110/3/2 106/3/2 111/3/2
f 111/3/2 112/3/2 113/3/2
f 113/3/2 112/3/2 114/3/2
f 115/1/2 116/1/2 117/1/2
f 117/1/2 116/1/2 118/1/2
f 119/3/2 120/3/2 123/3/2
f 123/3/2 120/3/2 124/3/2
f 121/3/2 122/3/2 125/3/2
f 125/3/2 122/3/2 126/3/2
f 123/2/2 124/2/2 127/2/2
f 127/2/2 124/2/2 128/2/2
f 125/2/2 126/2/2 130/2/2
f 130/2/2 126/2/2 131/2/2
f 127/3/2 128/3/2 133/3/2
f 133/3/2 128/3/2 134/3/2
f 129/3/2 130/3/2 135/3/2
f 135/3/2 130/3/2 136/3/2
f 136/3/2 137/3/2 138/3/2
f 138/3/2 137/3/2 139/3/2
f 132/3/2 133/3/2 141/3/2
f 141/3/2 133/3/2 142/3/2
f 142/3/2 143/3/2 144/3/2
f 144/3/2 143/3/2 145/3/2
f 139/3/2 140/3/2 146/3/2
f 146/3/2 140/3/2 147/3/2
f 148/3/2 149/3/2 150/3/2
f 150/3/2 149/3/2 151/3/2
f 150/2/2 151/2/2 152/2/2
f 152/2/2 151/2/2 153/2/2
f 153/2/2 151/2/2 154/2/2
f 152/3/2 153/3/2 156/3/2
f 156/3/2 153/3/2 157/3/2
f 155/3/2 156/3/2 159/3/2
f 157/3/2 158/3/2 159/3/2
f 156/3/2 157/3/2 159/3/2
f 155/3/2 159/3/2 161/3/2
f 159/3/2 160/3/2 161/3/2
f 161/3/2 160/3/2 162/3/2
f 162/3/2 160/3/2 163/3/2
f 163/3/2 160/3/2 164/3/2
f 170/3/3 166/3/3 165/3/3
f 171/2/3 169/2/3 168/2/3
f 171/3/3 168/3/3 167/3/3
f 172/3/3 170/3/3 169/3/3
f 172/2/3 169/2/3 171/2/3
f 173/3/3 171/3/3 167/3/3
f 173/5/3 172/5/3 171/5/3
f 174/3/3 170/3/3 172/3/3
f 174/5/3 172/5/3 173/5/3
f 175/3/3 173/3/3 167/3/3
f 176/2/3 174/2/3 173/2/3
f 176/3/3 173/3/3 175/3/3
f 177/3/3 170/3/3 174/3/3
f 177/2/3 174/2/3 176/2/3
f 178/3/3 166/3/3 170/3/3
f 178/3/3 170/3/3 177/3/3
f 179/3/3 166/3/3 178/3/3
f 180/3/3 166/3/3 179/3/3
f 186/3/3 182/3/3 181/3/3
f 187/3/3 182/3/3 186/3/3
f 189/3/3 184/3/3 183/3/3
f 190/2/3 185/2/3 184/2/3
f 190/3/3 184/3/3 189/3/3
f 191/3/3 186/3/3 185/3/3
f 191/2/3 185/2/3 190/2/3
f 192/3/3 186/3/3 191/3/3
f 197/3/3 194/3/3 193/3/3
f 198/2/3 195/2/3 194/2/3
f 198/3/3 194/3/3 197/3/3
f 199/3/3 196/3/3 195/3/3
f 199/2/3 195/2/3 198/2/3
f 200/3/3 196/3/3 199/3/3
f 201/3/3 188/3/3 187/3/3
f 202/3/3 188/3/3 201/3/3
f 203/3/3 201/3/3 200/3/3
f 204/3/3 201/3/3 203/3/3
f 211/3/3 206/3/3 205/3/3
f 212/2/3 207/2/3 206/2/3
f 212/3/3 206/3/3 211/3/3
f 213/3/3 208/3/3 207/3/3
f 213/2/3 207/2/3 212/2/3
f 214/3/3 208/3/3 213/3/3
f 215/3/3 210/3/3 209/3/3
f 216/3/3 210/3/3 215/3/3
f 219/1/3 218/1/3 217/1/3
f 220/1/3 218/1/3 219/1/3
f 227/3/3 222/3/3 221/3/3
f 228/2/3 223/2/3 222/2/3
f 228/3/3 222/3/3 227/3/3
f 229/3/3 224/3/3 223/3/3
f 229/2/3 223/2/3 228/2/3
f 230/3/3 224/3/3 229/3/3
f 231/3/3 226/3/3 225/3/3
f 232/3/3 226/3/3 231/3/3
f 235/1/3 234/1/3 233/1/3
f 236/1/3 234/1/3 235/1/3
f 239/1/3 238/1/3 237/1/3
f 240/1/3 238/1/3 239/1/3
f 243/2/3 242/2/3 241/2/3
f 244/2/3 242/2/3 243/2/3
f 245/3/4 246/3/4 247/3/4
f 247/3/4 246/3/4 248/3/4
f 249/3/4 250/3/4 251/3/4
f 251/3/4 250/3/4 252/3/4
f 253/3/4 254/3/4 258/3/4
f 254/2/4 255/2/4 259/2/4
f 258/3/4 254/3/4 259/3/4
f 259/2/4 255/2/4 260/2/4
f 256/3/4 257/3/4 261/3/4
f 261/3/4 257/3/4 262/3/4
f 260/3/4 261/3/4 264/3/4
f 264/3/4 261/3/4 265/3/4
f 266/1/4 267/1/4 268/1/4
f 268/1/4 267/1/4 269/1/4
f 263/4/4 264/4/4 272/4/4
f 272/4/4 264/4/4 273/4/4
f 270/1/4 271/1/4 275/1/4
f 275/1/4 271/1/4 276/1/4
f 273/3/4 274/3/4 279/3/4
f 279/3/4 274/3/4 280/3/4
f 277/3/4 278/3/4 282/3/4
f 278/2/4 279/2/4 283/2/4
f 282/3/4 278/3/4 283/3/4
f 283/2/4 279/2/4 284/2/4
f 280/3/4 281/3/4 285/3/4
f 285/3/4 281/3/4 286/3/4
f 287/3/4 288/3/4 293/3/4
f 293/3/4 288/3/4 294/3/4
f 289/3/4 290/3/4 295/3/4
f 290/2/4 291/2/4 296/2/4
f 295/3/4 290/3/4 296/3/4
f 296/2/4 291/2/4 297/2/4
f 292/3/4 293/3/4 298/3/4
f 298/3/4 293/3/4 299/3/4
f 300/1/4 301/1/4 302/1/4
f 302/1/4 301/1/4 303/1/4
f 297/3/4 298/3/4 306/3/4
f 306/3/4 298/3/4 307/3/4
f 304/3/4 305/3/4 309/3/4
f 305/2/4 306/2/4 310/2/4
f 309/3/4 305/3/4 310/3/4
f 310/2/4 306/2/4 311/2/4
f 307/3/4 308/3/4 312/3/4
f 312/3/4 308/3/4 313/3/4
f 313/3/4 314/3/4 315/3/4
f 315/3/4 314/3/4 316/3/4
f 317/3/4 318/3/4 323/3/4
f 319/3/4 320/3/4 324/3/4
f 320/2/4 321/2/4 325/2/4
f 324/3/4 320/3/4 325/3/4
f 325/2/4 321/2/4 326/2/4
f 322/3/4 323/3/4 327/3/4
f 323/3/4 318/3/4 328/3/4
f 327/3/4 323/3/4 328/3/4
f 328/3/4 318/3/4 329/3/4
f 329/3/4 318/3/4 330/3/4
f 334/3/5 332/3/5 331/3/5
f 335/3/5 332/3/5 334/3/5
f 338/3/5 334/3/5 333/3/5
f 338/3/5 336/3/5 335/3/5
f 338/3/5 335/3/5 334/3/5
f 339/3/5 336/3/5 338/3/5
f 341/3/5 338/3/5 337/3/5
f 342/4/5 339/4/5 338/4/5
f 342/3/5 338/3/5 341/3/5
f 343/4/5 339/4/5 342/4/5
f 344/4/5 339/4/5 343/4/5
f 345/3/5 340/3/5 339/3/5
f 345/4/5 339/4/5 344/4/5
f 346/3/5 340/3/5 345/3/5
f 347/3/5 343/3/5 342/3/5
f 348/4/5 344/4/5 343/4/5
f 348/3/5 343/3/5 347/3/5
f 349/3/5 345/3/5 344/3/5
f 349/4/5 344/4/5 348/4/5
f 350/3/5 345/3/5 349/3/5
f 351/3/5 349/3/5 348/3/5
f 352/3/5 349/3/5 351/3/5
f 355/3/5 354/3/5 353/3/5
f 356/3/5 354/3/5 355/3/5
f 362/3/5 358/3/5 357/3/5
f 363/3/5 358/3/5 362/3/5
f 364/3/5 360/3/5 359/3/5
f 365/3/5 360/3/5 364/3/5
f 367/3/5 362/3/5 361/3/5
f 368/3/5 362/3/5 367/3/5
f 369/3/5 366/3/5 365/3/5
f 370/3/5 366/3/5 369/3/5
f 375/3/5 372/3/5 371/3/5
f 376/3/5 372/3/5 375/3/5
f 379/3/5 374/3/5 373/3/5
f 380/3/5 374/3/5 379/3/5
f 381/3/5 377/3/5 376/3/5
f 382/3/5 377/3/5 381/3/5
f 383/3/5 379/3/5 378/3/5
f 384/3/5 379/3/5 383/3/5
f 385/3/5 383/3/5 382/3/5
f 386/3/5 383/3/5 385/3/5
f 391/3/5 388/3/5 387/3/5
f 392/3/5 388/3/5 391/3/5
f 395/3/5 390/3/5 389/3/5
f 396/3/5 390/3/5 395/3/5
f 397/3/5 393/3/5 392/3/5
f 398/3/5 393/3/5 397/3/5
f 399/3/5 395/3/5 394/3/5
f 400/3/5 395/3/5 399/3/5
f 401/4/6 402/4/6 403/4/6
f 403/4/6 402/4/6 404/4/6
f 405/2/6 406/2/6 409/2/6
f 409/2/6 406/2/6 410/2/6
f 407/2/6 408/2/6 413/2/6
f 413/2/6 408/2/6 414/2/6
f 410/2/6 411/2/6 415/2/6
f 415/2/6 411/2/6 416/2/6
f 412/2/6 413/2/6 417/2/6
f 417/2/6 413/2/6 418/2/6
f 416/2/6 417/2/6 419/2/6
f 419/2/6 417/2/6 420/2/6
f 421/3/6 422/3/6 424/3/6
f 424/3/6 422/3/6 425/3/6
f 423/3/6 424/3/6 427/3/6
f 427/3/6 424/3/6 428/3/6
f 425/3/6 426/3/6 429/3/6
f 429/3/6 426/3/6 430/3/6
f 431/3/6 432/3/6 434/3/6
f 434/3/6 432/3/6 435/3/6
f 435/3/6 432/3/6 436/3/6
f 436/3/6 432/3/6 437/3/6
f 433/3/6 434/3/6 439/3/6
f 434/3/6 435/3/6 439/3/6
f 439/3/6 435/3/6 440/3/6
f 437/3/6 438/3/6 441/3/6
f 436/3/6 437/3/6 441/3/6
f 441/3/6 438/3/6 442/3/6
f 433/3/6 439/3/6 443/3/6
f 442/3/6 438/3/6 446/3/6
f 443/3/6 444/3/6 447/3/6
f 433/3/6 443/3/6 447/3/6
f 447/3/6 444/3/6 448/3/6
f 448/3/6 444/3/6 449/3/6
f 445/3/6 446/3/6 450/3/6
f 446/3/6 438/3/6 451/3/6
f 450/3/6 446/3/6 451/3/6
f 451/3/6 438/3/6 452/3/6
f 448/3/6 449/3/6 453/3/6
f 449/3/6 450/3/6 453/3/6
f 450/3/6 451/3/6 453/3/6
f 453/3/6 451/3/6 454/3/6
f 455/1/6 456/1/6 458/1/6
f 458/1/6 456/1/6 459/1/6
f 457/1/6 458/1/6 461/1/6
f 458/4/6 459/4/6 462/4/6
f 461/1/6 458/1/6 462/1/6
f 459/1/6 460/1/6 463/1/6
f 462/4/6 459/4/6 463/4/6
f 463/1/6 460/1/6 464/1/6
f 462/1/6 463/1/6 465/1/6
f 465/1/6 463/1/6 466/1/6
