# MagicaVoxel @ Ephtracy

# group
o head_half_bun

# material
mtllib char-279-head_half_bun.mtl
usemtl palette

# normals
vn -1 0 0
vn 1 0 0
vn 0 0 1
vn 0 0 -1
vn 0 -1 0
vn 0 1 0

# texcoords
vt 0.615234 0.5
vt 0.884766 0.5
vt 0.892578 0.5

# verts
v -0.2 2.6 0
v -0.2 2.6 -0.2
v -0.2 2.8 0.2
v -0.2 2.8 0
v -0.2 2.9 0.2
v -0.2 2.9 0.1
v -0.2 3 0.3
v -0.2 3 0.2
v -0.2 3 0.1
v -0.2 3.1 0.3
v -0.2 3.1 0.2
v -0.2 3.1 0.1
v -0.2 3.1 0
v -0.2 3.2 0.2
v -0.2 3.2 0.1
v -0.2 3.2 -0.2
v -0.1 2.6 0.1
v -0.1 2.6 0
v -0.1 2.7 0.2
v -0.1 2.7 0.1
v -0.1 2.8 0.3
v -0.1 2.8 0.2
v -0.1 2.8 0
v -0.1 2.9 0.2
v -0.1 2.9 -0.2
v -0.1 2.9 -0.3
v -0.1 3 0.3
v -0.1 3 0.2
v -0.1 3.1 -0.2
v -0.1 3.1 -0.3
v 0.1 2.6 0.1
v 0.1 2.6 0
v 0.1 2.7 0.2
v 0.1 2.7 0.1
v 0.1 2.8 0.3
v 0.1 2.8 0.2
v 0.1 2.8 0
v 0.1 2.9 0.2
v 0.1 2.9 -0.2
v 0.1 2.9 -0.3
v 0.1 3 0.3
v 0.1 3 0.2
v 0.1 3.1 -0.2
v 0.1 3.1 -0.3
v 0.2 2.6 0
v 0.2 2.6 -0.2
v 0.2 2.8 0.2
v 0.2 2.8 0
v 0.2 2.9 0.2
v 0.2 2.9 0.1
v 0.2 3 0.3
v 0.2 3 0.2
v 0.2 3 0.1
v 0.2 3.1 0.3
v 0.2 3.1 0.2
v 0.2 3.1 0.1
v 0.2 3.1 0
v 0.2 3.2 0.2
v 0.2 3.2 0.1
v 0.2 3.2 -0.2
v -0.2 3 0.3
v -0.2 3.1 0.3
v -0.1 2.8 0.3
v -0.1 3 0.3
v -0.1 3.1 0.3
v 0.1 2.8 0.3
v 0.1 3 0.3
v 0.1 3.1 0.3
v 0.2 3 0.3
v 0.2 3.1 0.3
v -0.2 2.8 0.2
v -0.2 2.9 0.2
v -0.2 3 0.2
v -0.2 3.1 0.2
v -0.2 3.2 0.2
v -0.1 2.7 0.2
v -0.1 2.8 0.2
v -0.1 2.9 0.2
v -0.1 3 0.2
v -0.1 3.1 0.2
v 0.1 2.7 0.2
v 0.1 2.8 0.2
v 0.1 2.9 0.2
v 0.1 3 0.2
v 0.1 3.1 0.2
v 0.2 2.8 0.2
v 0.2 2.9 0.2
v 0.2 3 0.2
v 0.2 3.1 0.2
v 0.2 3.2 0.2
v -0.1 2.6 0.1
v -0.1 2.7 0.1
v 0.1 2.6 0.1
v 0.1 2.7 0.1
v -0.2 2.6 0
v -0.2 2.8 0
v -0.1 2.6 0
v -0.1 2.8 0
v 0.1 2.6 0
v 0.1 2.8 0
v 0.2 2.6 0
v 0.2 2.8 0
v -0.2 2.6 -0.2
v -0.2 3.2 -0.2
v -0.1 2.9 -0.2
v -0.1 3.1 -0.2
v 0.1 2.9 -0.2
v 0.1 3.1 -0.2
v 0.2 2.6 -0.2
v 0.2 3.2 -0.2
v -0.1 2.9 -0.3
v -0.1 3.1 -0.3
v 0.1 2.9 -0.3
v 0.1 3.1 -0.3
v -0.1 2.6 0.1
v 0.1 2.6 0.1
v -0.2 2.6 0
v -0.1 2.6 0
v 0.1 2.6 0
v 0.2 2.6 0
v -0.1 2.6 -0.1
v 0.1 2.6 -0.1
v -0.2 2.6 -0.2
v 0.2 2.6 -0.2
v -0.1 2.7 0.2
v 0.1 2.7 0.2
v -0.1 2.7 0.1
v 0.1 2.7 0.1
v -0.1 2.8 0.3
v 0.1 2.8 0.3
v -0.2 2.8 0.2
v -0.1 2.8 0.2
v 0.1 2.8 0.2
v 0.2 2.8 0.2
v -0.2 2.8 0
v -0.1 2.8 0
v 0.1 2.8 0
v 0.2 2.8 0
v -0.1 2.9 -0.2
v 0.1 2.9 -0.2
v -0.1 2.9 -0.3
v 0.1 2.9 -0.3
v -0.2 3 0.3
v -0.1 3 0.3
v 0.1 3 0.3
v 0.2 3 0.3
v -0.2 3 0.2
v -0.1 3 0.2
v 0.1 3 0.2
v 0.2 3 0.2
v -0.2 3.1 0.3
v -0.1 3.1 0.3
v 0.1 3.1 0.3
v 0.2 3.1 0.3
v -0.2 3.1 0.2
v -0.1 3.1 0.2
v 0.1 3.1 0.2
v 0.2 3.1 0.2
v -0.1 3.1 -0.2
v 0.1 3.1 -0.2
v -0.1 3.1 -0.3
v 0.1 3.1 -0.3
v -0.2 3.2 0.2
v 0.2 3.2 0.2
v -0.2 3.2 0.1
v 0.2 3.2 0.1
v -0.2 3.2 -0.2
v 0.2 3.2 -0.2

# faces
f 4/1/1 2/1/1 1/1/1
f 5/3/1 4/3/1 3/3/1
f 6/3/1 4/3/1 5/3/1
f 8/2/1 6/2/1 5/2/1
f 9/3/1 4/3/1 6/3/1
f 9/2/1 6/2/1 8/2/1
f 10/1/1 8/1/1 7/1/1
f 11/3/1 9/3/1 8/3/1
f 11/1/1 8/1/1 10/1/1
f 12/3/1 4/3/1 9/3/1
f 12/3/1 9/3/1 11/3/1
f 13/1/1 2/1/1 4/1/1
f 13/3/1 4/3/1 12/3/1
f 14/3/1 12/3/1 11/3/1
f 15/1/1 13/1/1 12/1/1
f 15/3/1 12/3/1 14/3/1
f 16/1/1 2/1/1 13/1/1
f 16/1/1 13/1/1 15/1/1
f 20/3/1 18/3/1 17/3/1
f 22/3/1 20/3/1 19/3/1
f 23/3/1 18/3/1 20/3/1
f 23/3/1 20/3/1 22/3/1
f 24/3/1 22/3/1 21/3/1
f 27/3/1 24/3/1 21/3/1
f 28/3/1 24/3/1 27/3/1
f 29/1/1 26/1/1 25/1/1
f 30/1/1 26/1/1 29/1/1
f 31/3/2 32/3/2 34/3/2
f 33/3/2 34/3/2 36/3/2
f 34/3/2 32/3/2 37/3/2
f 36/3/2 34/3/2 37/3/2
f 35/3/2 36/3/2 38/3/2
f 35/3/2 38/3/2 41/3/2
f 41/3/2 38/3/2 42/3/2
f 39/1/2 40/1/2 43/1/2
f 43/1/2 40/1/2 44/1/2
f 45/1/2 46/1/2 48/1/2
f 47/3/2 48/3/2 49/3/2
f 49/3/2 48/3/2 50/3/2
f 49/2/2 50/2/2 52/2/2
f 50/3/2 48/3/2 53/3/2
f 52/2/2 50/2/2 53/2/2
f 51/1/2 52/1/2 54/1/2
f 52/3/2 53/3/2 55/3/2
f 54/1/2 52/1/2 55/1/2
f 53/3/2 48/3/2 56/3/2
f 55/3/2 53/3/2 56/3/2
f 48/1/2 46/1/2 57/1/2
f 56/3/2 48/3/2 57/3/2
f 55/3/2 56/3/2 58/3/2
f 56/1/2 57/1/2 59/1/2
f 58/3/2 56/3/2 59/3/2
f 57/1/2 46/1/2 60/1/2
f 59/1/2 57/1/2 60/1/2
f 64/1/3 62/1/3 61/1/3
f 65/1/3 62/1/3 64/1/3
f 66/3/3 64/3/3 63/3/3
f 66/3/3 65/3/3 64/3/3
f 67/3/3 65/3/3 66/3/3
f 68/3/3 65/3/3 67/3/3
f 69/1/3 68/1/3 67/1/3
f 70/1/3 68/1/3 69/1/3
f 77/3/3 72/3/3 71/3/3
f 78/2/3 73/2/3 72/2/3
f 78/3/3 72/3/3 77/3/3
f 79/2/3 73/2/3 78/2/3
f 80/3/3 75/3/3 74/3/3
f 81/3/3 77/3/3 76/3/3
f 82/3/3 77/3/3 81/3/3
f 85/3/3 75/3/3 80/3/3
f 86/3/3 83/3/3 82/3/3
f 87/2/3 84/2/3 83/2/3
f 87/3/3 83/3/3 86/3/3
f 88/2/3 84/2/3 87/2/3
f 89/3/3 75/3/3 85/3/3
f 90/3/3 75/3/3 89/3/3
f 93/3/3 92/3/3 91/3/3
f 94/3/3 92/3/3 93/3/3
f 97/1/3 96/1/3 95/1/3
f 98/1/3 96/1/3 97/1/3
f 101/1/3 100/1/3 99/1/3
f 102/1/3 100/1/3 101/1/3
f 103/1/4 104/1/4 105/1/4
f 105/1/4 104/1/4 106/1/4
f 103/1/4 105/1/4 107/1/4
f 106/1/4 104/1/4 108/1/4
f 103/1/4 107/1/4 109/1/4
f 107/1/4 108/1/4 109/1/4
f 108/1/4 104/1/4 110/1/4
f 109/1/4 108/1/4 110/1/4
f 111/1/4 112/1/4 113/1/4
f 113/1/4 112/1/4 114/1/4
f 118/3/5 116/3/5 115/3/5
f 119/3/5 116/3/5 118/3/5
f 121/1/5 118/1/5 117/1/5
f 121/3/5 119/3/5 118/3/5
f 122/1/5 120/1/5 119/1/5
f 122/3/5 119/3/5 121/3/5
f 123/1/5 121/1/5 117/1/5
f 123/1/5 122/1/5 121/1/5
f 124/1/5 120/1/5 122/1/5
f 124/1/5 122/1/5 123/1/5
f 127/3/5 126/3/5 125/3/5
f 128/3/5 126/3/5 127/3/5
f 132/3/5 130/3/5 129/3/5
f 133/3/5 130/3/5 132/3/5
f 135/3/5 132/3/5 131/3/5
f 136/3/5 132/3/5 135/3/5
f 137/3/5 134/3/5 133/3/5
f 138/3/5 134/3/5 137/3/5
f 141/1/5 140/1/5 139/1/5
f 142/1/5 140/1/5 141/1/5
f 147/1/5 144/1/5 143/1/5
f 148/1/5 144/1/5 147/1/5
f 149/1/5 146/1/5 145/1/5
f 150/1/5 146/1/5 149/1/5
f 151/1/6 152/1/6 155/1/6
f 152/3/6 153/3/6 156/3/6
f 155/1/6 152/1/6 156/1/6
f 153/1/6 154/1/6 157/1/6
f 156/3/6 153/3/6 157/3/6
f 157/1/6 154/1/6 158/1/6
f 159/1/6 160/1/6 161/1/6
f 161/1/6 160/1/6 162/1/6
f 163/3/6 164/3/6 165/3/6
f 165/3/6 164/3/6 166/3/6
f 165/1/6 166/1/6 167/1/6
f 167/1/6 166/1/6 168/1/6
