# MagicaVoxel @ Ephtracy

# group
o helm_hvy_3a_sh

# material
mtllib char-146-helm_hvy_3a_sh.mtl
usemtl palette

# normals
vn -1 0 0
vn 1 0 0
vn 0 0 1
vn 0 0 -1
vn 0 -1 0
vn 0 1 0

# texcoords
vt 0.482422 0.5
vt 0.916016 0.5
vt 0.958984 0.5

# verts
v -0.4 3 0.3
v -0.4 3 -0.2
v -0.4 3.2 0.3
v -0.4 3.2 -0.2
v -0.3 2.5 0.2
v -0.3 2.5 -0.2
v -0.3 2.8 0.3
v -0.3 2.8 0.2
v -0.3 3 0.4
v -0.3 3 0.3
v -0.3 3 -0.2
v -0.3 3 -0.3
v -0.3 3.2 0.4
v -0.3 3.2 0.3
v -0.3 3.2 -0.2
v -0.3 3.2 -0.3
v -0.2 2.5 0.3
v -0.2 2.5 0.2
v -0.2 2.5 -0.2
v -0.2 2.5 -0.3
v -0.2 2.8 0.3
v -0.2 2.8 0.2
v -0.2 3 0.5
v -0.2 3 0.4
v -0.2 3 -0.2
v -0.2 3 -0.3
v -0.2 3 -0.4
v -0.2 3.2 0.5
v -0.2 3.2 0.4
v -0.2 3.2 0.3
v -0.2 3.2 -0.2
v -0.2 3.2 -0.3
v -0.2 3.2 -0.4
v -0.2 3.3 0.3
v -0.2 3.3 -0.2
v -0.1 2.8 0.4
v -0.1 2.8 0.3
v -0.1 3 0.4
v -0.1 3 0.3
v -0.1 3.3 0.2
v -0.1 3.3 -0.1
v -0.1 3.4 0.2
v -0.1 3.4 -0.1
v 0.2 2.5 0.2
v 0.2 2.5 -0.2
v 0.2 2.8 0.3
v 0.2 2.8 0.2
v 0.2 3 0.3
v 0.2 3 -0.2
v 0.2 3.1 0.3
v 0.2 3.1 0.2
v 0.2 3.2 0.2
v 0.2 3.2 -0.2
v -0.2 2.5 0.2
v -0.2 2.5 -0.2
v -0.2 2.8 0.3
v -0.2 2.8 0.2
v -0.2 3 0.3
v -0.2 3 -0.2
v -0.2 3.1 0.3
v -0.2 3.1 0.2
v -0.2 3.2 0.2
v -0.2 3.2 -0.2
v 0.1 2.8 0.4
v 0.1 2.8 0.3
v 0.1 3 0.4
v 0.1 3 0.3
v 0.1 3.3 0.2
v 0.1 3.3 -0.1
v 0.1 3.4 0.2
v 0.1 3.4 -0.1
v 0.2 2.5 0.3
v 0.2 2.5 0.2
v 0.2 2.5 -0.2
v 0.2 2.5 -0.3
v 0.2 2.8 0.3
v 0.2 2.8 0.2
v 0.2 3 0.5
v 0.2 3 0.4
v 0.2 3 -0.2
v 0.2 3 -0.3
v 0.2 3 -0.4
v 0.2 3.2 0.5
v 0.2 3.2 0.4
v 0.2 3.2 0.3
v 0.2 3.2 -0.2
v 0.2 3.2 -0.3
v 0.2 3.2 -0.4
v 0.2 3.3 0.3
v 0.2 3.3 -0.2
v 0.3 2.5 0.2
v 0.3 2.5 -0.2
v 0.3 2.8 0.3
v 0.3 2.8 0.2
v 0.3 3 0.4
v 0.3 3 0.3
v 0.3 3 -0.2
v 0.3 3 -0.3
v 0.3 3.2 0.4
v 0.3 3.2 0.3
v 0.3 3.2 -0.2
v 0.3 3.2 -0.3
v 0.4 3 0.3
v 0.4 3 -0.2
v 0.4 3.2 0.3
v 0.4 3.2 -0.2
v -0.2 3 0.5
v -0.2 3.2 0.5
v 0.2 3 0.5
v 0.2 3.2 0.5
v -0.3 3 0.4
v -0.3 3.2 0.4
v -0.2 3 0.4
v -0.2 3.2 0.4
v -0.1 2.8 0.4
v -0.1 3 0.4
v 0.1 2.8 0.4
v 0.1 3 0.4
v 0.2 3 0.4
v 0.2 3.2 0.4
v 0.3 3 0.4
v 0.3 3.2 0.4
v -0.4 3 0.3
v -0.4 3.2 0.3
v -0.3 2.8 0.3
v -0.3 3 0.3
v -0.3 3.2 0.3
v -0.2 2.5 0.3
v -0.2 2.8 0.3
v -0.2 3 0.3
v -0.2 3.2 0.3
v -0.2 3.3 0.3
v -0.1 2.8 0.3
v 0.1 2.8 0.3
v 0.2 2.5 0.3
v 0.2 2.8 0.3
v 0.2 3 0.3
v 0.2 3.2 0.3
v 0.2 3.3 0.3
v 0.3 2.8 0.3
v 0.3 3 0.3
v 0.3 3.2 0.3
v 0.4 3 0.3
v 0.4 3.2 0.3
v -0.3 2.5 0.2
v -0.3 2.8 0.2
v -0.2 2.5 0.2
v -0.2 2.8 0.2
v -0.1 3.3 0.2
v -0.1 3.4 0.2
v 0.1 3.3 0.2
v 0.1 3.4 0.2
v 0.2 2.5 0.2
v 0.2 2.8 0.2
v 0.3 2.5 0.2
v 0.3 2.8 0.2
v -0.2 2.5 -0.2
v -0.2 3 -0.2
v -0.2 3.2 -0.2
v 0.2 2.5 -0.2
v 0.2 3 -0.2
v 0.2 3.2 -0.2
v -0.2 3 0.3
v -0.2 3.1 0.3
v -0.1 2.8 0.3
v -0.1 3 0.3
v -0.1 3.1 0.3
v 0.1 2.8 0.3
v 0.1 3 0.3
v 0.1 3.1 0.3
v 0.2 3 0.3
v 0.2 3.1 0.3
v -0.2 2.5 0.2
v -0.2 2.8 0.2
v -0.2 3.1 0.2
v -0.2 3.2 0.2
v -0.1 3.1 0.2
v -0.1 3.2 0.2
v 0.1 3.1 0.2
v 0.1 3.2 0.2
v 0.2 2.5 0.2
v 0.2 2.8 0.2
v 0.2 3.1 0.2
v 0.2 3.2 0.2
v -0.1 3.3 -0.1
v -0.1 3.4 -0.1
v 0.1 3.3 -0.1
v 0.1 3.4 -0.1
v -0.4 3 -0.2
v -0.4 3.2 -0.2
v -0.3 2.5 -0.2
v -0.3 3 -0.2
v -0.3 3.2 -0.2
v -0.2 2.5 -0.2
v -0.2 3 -0.2
v -0.2 3.2 -0.2
v -0.2 3.3 -0.2
v 0.2 2.5 -0.2
v 0.2 3 -0.2
v 0.2 3.2 -0.2
v 0.2 3.3 -0.2
v 0.3 2.5 -0.2
v 0.3 3 -0.2
v 0.3 3.2 -0.2
v 0.4 3 -0.2
v 0.4 3.2 -0.2
v -0.3 3 -0.3
v -0.3 3.2 -0.3
v -0.2 2.5 -0.3
v -0.2 3 -0.3
v -0.2 3.2 -0.3
v 0.2 2.5 -0.3
v 0.2 3 -0.3
v 0.2 3.2 -0.3
v 0.3 3 -0.3
v 0.3 3.2 -0.3
v -0.2 3 -0.4
v -0.2 3.2 -0.4
v 0.2 3 -0.4
v 0.2 3.2 -0.4
v -0.2 2.5 0.3
v 0.2 2.5 0.3
v -0.3 2.5 0.2
v -0.2 2.5 0.2
v 0.2 2.5 0.2
v 0.3 2.5 0.2
v -0.3 2.5 -0.2
v -0.2 2.5 -0.2
v 0.2 2.5 -0.2
v 0.3 2.5 -0.2
v -0.2 2.5 -0.3
v 0.2 2.5 -0.3
v -0.1 2.8 0.4
v 0.1 2.8 0.4
v -0.3 2.8 0.3
v -0.2 2.8 0.3
v -0.1 2.8 0.3
v 0.1 2.8 0.3
v 0.2 2.8 0.3
v 0.3 2.8 0.3
v -0.3 2.8 0.2
v -0.2 2.8 0.2
v 0.2 2.8 0.2
v 0.3 2.8 0.2
v -0.2 3 0.5
v 0.2 3 0.5
v -0.3 3 0.4
v -0.2 3 0.4
v -0.1 3 0.4
v 0.1 3 0.4
v 0.2 3 0.4
v 0.3 3 0.4
v -0.4 3 0.3
v -0.3 3 0.3
v -0.2 3 0.3
v -0.1 3 0.3
v 0.1 3 0.3
v 0.2 3 0.3
v 0.3 3 0.3
v 0.4 3 0.3
v -0.4 3 -0.2
v -0.3 3 -0.2
v -0.2 3 -0.2
v 0.2 3 -0.2
v 0.3 3 -0.2
v 0.4 3 -0.2
v -0.3 3 -0.3
v -0.2 3 -0.3
v 0.2 3 -0.3
v 0.3 3 -0.3
v -0.2 3 -0.4
v 0.2 3 -0.4
v -0.2 3.1 0.3
v -0.1 3.1 0.3
v 0.1 3.1 0.3
v 0.2 3.1 0.3
v -0.2 3.1 0.2
v -0.1 3.1 0.2
v 0.1 3.1 0.2
v 0.2 3.1 0.2
v -0.2 3.2 0.2
v -0.1 3.2 0.2
v 0.1 3.2 0.2
v 0.2 3.2 0.2
v -0.2 3.2 -0.2
v 0.2 3.2 -0.2
v -0.2 2.8 0.3
v -0.1 2.8 0.3
v 0.1 2.8 0.3
v 0.2 2.8 0.3
v -0.2 2.8 0.2
v 0.2 2.8 0.2
v -0.2 3.2 0.5
v 0.2 3.2 0.5
v -0.3 3.2 0.4
v -0.2 3.2 0.4
v 0.2 3.2 0.4
v 0.3 3.2 0.4
v -0.4 3.2 0.3
v -0.3 3.2 0.3
v -0.2 3.2 0.3
v 0.2 3.2 0.3
v 0.3 3.2 0.3
v 0.4 3.2 0.3
v -0.4 3.2 -0.2
v -0.3 3.2 -0.2
v -0.2 3.2 -0.2
v 0.2 3.2 -0.2
v 0.3 3.2 -0.2
v 0.4 3.2 -0.2
v -0.3 3.2 -0.3
v -0.2 3.2 -0.3
v 0.2 3.2 -0.3
v 0.3 3.2 -0.3
v -0.2 3.2 -0.4
v 0.2 3.2 -0.4
v -0.2 3.3 0.3
v 0.2 3.3 0.3
v -0.1 3.3 0.2
v 0.1 3.3 0.2
v -0.1 3.3 -0.1
v 0.1 3.3 -0.1
v -0.2 3.3 -0.2
v 0.2 3.3 -0.2
v -0.1 3.4 0.2
v 0.1 3.4 0.2
v -0.1 3.4 -0.1
v 0.1 3.4 -0.1

# faces
f 3/1/1 2/1/1 1/1/1
f 4/1/1 2/1/1 3/1/1
f 8/3/1 6/3/1 5/3/1
f 10/3/1 8/3/1 7/3/1
f 11/3/1 6/3/1 8/3/1
f 11/3/1 8/3/1 10/3/1
f 13/1/1 10/1/1 9/1/1
f 14/1/1 10/1/1 13/1/1
f 15/1/1 12/1/1 11/1/1
f 16/1/1 12/1/1 15/1/1
f 21/3/1 18/3/1 17/3/1
f 22/3/1 18/3/1 21/3/1
f 25/3/1 20/3/1 19/3/1
f 26/3/1 20/3/1 25/3/1
f 28/1/1 24/1/1 23/1/1
f 29/1/1 24/1/1 28/1/1
f 32/1/1 27/1/1 26/1/1
f 33/1/1 27/1/1 32/1/1
f 34/2/1 31/2/1 30/2/1
f 35/2/1 31/2/1 34/2/1
f 38/2/1 37/2/1 36/2/1
f 39/2/1 37/2/1 38/2/1
f 42/2/1 41/2/1 40/2/1
f 43/2/1 41/2/1 42/2/1
f 47/3/1 45/3/1 44/3/1
f 48/3/1 47/3/1 46/3/1
f 49/3/1 45/3/1 47/3/1
f 49/3/1 47/3/1 48/3/1
f 50/2/1 49/2/1 48/2/1
f 51/2/1 49/2/1 50/2/1
f 52/2/1 49/2/1 51/2/1
f 53/2/1 49/2/1 52/2/1
f 54/3/2 55/3/2 57/3/2
f 56/3/2 57/3/2 58/3/2
f 57/3/2 55/3/2 59/3/2
f 58/3/2 57/3/2 59/3/2
f 58/2/2 59/2/2 60/2/2
f 60/2/2 59/2/2 61/2/2
f 61/2/2 59/2/2 62/2/2
f 62/2/2 59/2/2 63/2/2
f 64/2/2 65/2/2 66/2/2
f 66/2/2 65/2/2 67/2/2
f 68/2/2 69/2/2 70/2/2
f 70/2/2 69/2/2 71/2/2
f 72/3/2 73/3/2 76/3/2
f 76/3/2 73/3/2 77/3/2
f 74/3/2 75/3/2 80/3/2
f 80/3/2 75/3/2 81/3/2
f 78/1/2 79/1/2 83/1/2
f 83/1/2 79/1/2 84/1/2
f 81/1/2 82/1/2 87/1/2
f 87/1/2 82/1/2 88/1/2
f 85/2/2 86/2/2 89/2/2
f 89/2/2 86/2/2 90/2/2
f 91/3/2 92/3/2 94/3/2
f 93/3/2 94/3/2 96/3/2
f 94/3/2 92/3/2 97/3/2
f 96/3/2 94/3/2 97/3/2
f 95/1/2 96/1/2 99/1/2
f 99/1/2 96/1/2 100/1/2
f 97/1/2 98/1/2 101/1/2
f 101/1/2 98/1/2 102/1/2
f 103/1/2 104/1/2 105/1/2
f 105/1/2 104/1/2 106/1/2
f 109/1/3 108/1/3 107/1/3
f 110/1/3 108/1/3 109/1/3
f 113/1/3 112/1/3 111/1/3
f 114/1/3 112/1/3 113/1/3
f 117/2/3 116/2/3 115/2/3
f 118/2/3 116/2/3 117/2/3
f 121/1/3 120/1/3 119/1/3
f 122/1/3 120/1/3 121/1/3
f 126/1/3 124/1/3 123/1/3
f 127/1/3 124/1/3 126/1/3
f 129/3/3 126/3/3 125/3/3
f 130/3/3 126/3/3 129/3/3
f 133/3/3 129/3/3 128/3/3
f 134/3/3 133/3/3 128/3/3
f 135/3/3 134/3/3 128/3/3
f 136/3/3 134/3/3 135/3/3
f 138/2/3 132/2/3 131/2/3
f 139/2/3 132/2/3 138/2/3
f 140/3/3 137/3/3 136/3/3
f 141/3/3 137/3/3 140/3/3
f 143/1/3 142/1/3 141/1/3
f 144/1/3 142/1/3 143/1/3
f 147/3/3 146/3/3 145/3/3
f 148/3/3 146/3/3 147/3/3
f 151/2/3 150/2/3 149/2/3
f 152/2/3 150/2/3 151/2/3
f 155/3/3 154/3/3 153/3/3
f 156/3/3 154/3/3 155/3/3
f 160/3/3 158/3/3 157/3/3
f 161/2/3 159/2/3 158/2/3
f 161/3/3 158/3/3 160/3/3
f 162/2/3 159/2/3 161/2/3
f 163/2/4 164/2/4 166/2/4
f 166/2/4 164/2/4 167/2/4
f 165/2/4 166/2/4 168/2/4
f 166/2/4 167/2/4 168/2/4
f 168/2/4 167/2/4 169/2/4
f 169/2/4 167/2/4 170/2/4
f 169/2/4 170/2/4 171/2/4
f 171/2/4 170/2/4 172/2/4
f 175/2/4 176/2/4 177/2/4
f 177/2/4 176/2/4 178/2/4
f 177/3/4 178/3/4 179/3/4
f 179/3/4 178/3/4 180/3/4
f 173/3/4 174/3/4 181/3/4
f 181/3/4 174/3/4 182/3/4
f 179/2/4 180/2/4 183/2/4
f 183/2/4 180/2/4 184/2/4
f 185/2/4 186/2/4 187/2/4
f 187/2/4 186/2/4 188/2/4
f 189/1/4 190/1/4 192/1/4
f 192/1/4 190/1/4 193/1/4
f 191/3/4 192/3/4 194/3/4
f 194/3/4 192/3/4 195/3/4
f 196/2/4 197/2/4 200/2/4
f 200/2/4 197/2/4 201/2/4
f 198/3/4 199/3/4 202/3/4
f 202/3/4 199/3/4 203/3/4
f 203/1/4 204/1/4 205/1/4
f 205/1/4 204/1/4 206/1/4
f 207/1/4 208/1/4 210/1/4
f 210/1/4 208/1/4 211/1/4
f 209/3/4 210/3/4 212/3/4
f 212/3/4 210/3/4 213/3/4
f 213/1/4 214/1/4 215/1/4
f 215/1/4 214/1/4 216/1/4
f 217/1/4 218/1/4 219/1/4
f 219/1/4 218/1/4 220/1/4
f 224/3/5 222/3/5 221/3/5
f 225/3/5 222/3/5 224/3/5
f 227/3/5 224/3/5 223/3/5
f 228/3/5 224/3/5 227/3/5
f 229/3/5 226/3/5 225/3/5
f 230/3/5 226/3/5 229/3/5
f 231/3/5 229/3/5 228/3/5
f 232/3/5 229/3/5 231/3/5
f 237/2/5 234/2/5 233/2/5
f 238/2/5 234/2/5 237/2/5
f 241/3/5 236/3/5 235/3/5
f 242/3/5 236/3/5 241/3/5
f 243/3/5 240/3/5 239/3/5
f 244/3/5 240/3/5 243/3/5
f 248/1/5 246/1/5 245/1/5
f 249/1/5 246/1/5 248/1/5
f 250/1/5 246/1/5 249/1/5
f 251/1/5 246/1/5 250/1/5
f 254/1/5 248/1/5 247/1/5
f 255/2/5 249/2/5 248/2/5
f 255/1/5 248/1/5 254/1/5
f 256/2/5 249/2/5 255/2/5
f 257/2/5 251/2/5 250/2/5
f 258/1/5 252/1/5 251/1/5
f 258/2/5 251/2/5 257/2/5
f 259/1/5 252/1/5 258/1/5
f 261/1/5 254/1/5 253/1/5
f 262/1/5 254/1/5 261/1/5
f 265/1/5 260/1/5 259/1/5
f 266/1/5 260/1/5 265/1/5
f 267/1/5 263/1/5 262/1/5
f 268/1/5 263/1/5 267/1/5
f 269/1/5 265/1/5 264/1/5
f 270/1/5 265/1/5 269/1/5
f 271/1/5 269/1/5 268/1/5
f 272/1/5 269/1/5 271/1/5
f 277/2/5 274/2/5 273/2/5
f 278/3/5 275/3/5 274/3/5
f 278/2/5 274/2/5 277/2/5
f 279/2/5 276/2/5 275/2/5
f 279/3/5 275/3/5 278/3/5
f 280/2/5 276/2/5 279/2/5
f 285/2/5 282/2/5 281/2/5
f 285/2/5 284/2/5 283/2/5
f 285/2/5 283/2/5 282/2/5
f 286/2/5 284/2/5 285/2/5
f 287/3/6 288/3/6 291/3/6
f 289/3/6 290/3/6 291/3/6
f 288/3/6 289/3/6 291/3/6
f 291/3/6 290/3/6 292/3/6
f 293/1/6 294/1/6 296/1/6
f 296/1/6 294/1/6 297/1/6
f 295/1/6 296/1/6 300/1/6
f 296/2/6 297/2/6 301/2/6
f 300/1/6 296/1/6 301/1/6
f 297/1/6 298/1/6 302/1/6
f 301/2/6 297/2/6 302/2/6
f 302/1/6 298/1/6 303/1/6
f 299/1/6 300/1/6 305/1/6
f 300/2/6 301/2/6 306/2/6
f 305/1/6 300/1/6 306/1/6
f 306/2/6 301/2/6 307/2/6
f 302/2/6 303/2/6 308/2/6
f 303/1/6 304/1/6 309/1/6
f 308/2/6 303/2/6 309/2/6
f 309/1/6 304/1/6 310/1/6
f 306/1/6 307/1/6 311/1/6
f 307/2/6 308/2/6 312/2/6
f 311/1/6 307/1/6 312/1/6
f 308/1/6 309/1/6 313/1/6
f 312/2/6 308/2/6 313/2/6
f 313/1/6 309/1/6 314/1/6
f 312/1/6 313/1/6 315/1/6
f 315/1/6 313/1/6 316/1/6
f 317/2/6 318/2/6 319/2/6
f 319/2/6 318/2/6 320/2/6
f 317/2/6 319/2/6 321/2/6
f 320/2/6 318/2/6 322/2/6
f 317/2/6 321/2/6 323/2/6
f 321/2/6 322/2/6 323/2/6
f 322/2/6 318/2/6 324/2/6
f 323/2/6 322/2/6 324/2/6
f 325/2/6 326/2/6 327/2/6
f 327/2/6 326/2/6 328/2/6
