# MagicaVoxel @ Ephtracy

# group
o chest_hvy_2_sh_ja

# material
mtllib char-75-chest_hvy_2_sh_ja.mtl
usemtl palette

# normals
vn -1 0 0
vn 1 0 0
vn 0 0 1
vn 0 0 -1
vn 0 -1 0
vn 0 1 0

# texcoords
vt 0.482422 0.5
vt 0.697266 0.5
vt 0.701172 0.5
vt 0.892578 0.5
vt 0.955078 0.5
vt 0.958984 0.5
vt 0.962891 0.5

# verts
v -0.4 1.4 0.2
v -0.4 1.4 -0.1
v -0.4 1.6 0.2
v -0.4 1.6 -0.1
v -0.4 1.7 0.2
v -0.4 1.7 -0.1
v -0.4 1.9 0.2
v -0.4 1.9 -0.1
v -0.4 2 0.3
v -0.4 2 0.2
v -0.4 2 -0.1
v -0.4 2.1 -0.1
v -0.4 2.1 -0.2
v -0.4 2.4 0.3
v -0.4 2.4 -0.2
v -0.4 2.5 0.3
v -0.4 2.5 -0.2
v -0.3 1.4 0.3
v -0.3 1.4 0.2
v -0.3 1.4 -0.1
v -0.3 1.4 -0.2
v -0.3 1.6 0.3
v -0.3 1.6 0.2
v -0.3 1.6 -0.1
v -0.3 1.6 -0.2
v -0.3 1.7 0.3
v -0.3 1.7 0.2
v -0.3 1.7 -0.1
v -0.3 1.7 -0.2
v -0.3 1.9 0.4
v -0.3 1.9 0.3
v -0.3 1.9 0.2
v -0.3 1.9 -0.1
v -0.3 1.9 -0.2
v -0.3 1.9 -0.3
v -0.3 2 0.3
v -0.3 2 0.2
v -0.3 2 -0.1
v -0.3 2 -0.2
v -0.3 2.1 -0.1
v -0.3 2.1 -0.2
v -0.3 2.3 0.4
v -0.3 2.3 0.3
v -0.3 2.4 0.4
v -0.3 2.4 0.3
v -0.3 2.4 -0.2
v -0.3 2.4 -0.3
v -0.3 2.5 -0.2
v -0.3 2.5 -0.3
v -0.2 1.4 0.4
v -0.2 1.4 0.3
v -0.2 1.4 -0.2
v -0.2 1.4 -0.3
v -0.2 1.5 0.4
v -0.2 1.5 0.3
v -0.2 1.5 -0.2
v -0.2 1.5 -0.3
v -0.2 1.6 0.4
v -0.2 1.6 0.3
v -0.2 1.6 -0.2
v -0.2 1.6 -0.3
v -0.2 1.7 0.4
v -0.2 1.7 0.3
v -0.2 1.7 -0.2
v -0.2 1.7 -0.3
v -0.2 1.9 0.4
v -0.2 1.9 0.3
v -0.2 2.5 0.1
v -0.2 2.5 -0.1
v -0.2 2.6 0.1
v -0.2 2.6 -0.1
v -0.1 2.5 0.2
v -0.1 2.5 0.1
v -0.1 2.5 -0.1
v -0.1 2.5 -0.2
v -0.1 2.6 0.2
v -0.1 2.6 0.1
v -0.1 2.6 -0.1
v -0.1 2.6 -0.2
v 0.2 1.6 -0.1
v 0.2 1.6 -0.2
v 0.2 1.7 -0.1
v 0.2 1.7 -0.2
v -0.2 1.6 -0.1
v -0.2 1.6 -0.2
v -0.2 1.7 -0.1
v -0.2 1.7 -0.2
v 0.1 2.5 0.2
v 0.1 2.5 0.1
v 0.1 2.5 -0.1
v 0.1 2.5 -0.2
v 0.1 2.6 0.2
v 0.1 2.6 0.1
v 0.1 2.6 -0.1
v 0.1 2.6 -0.2
v 0.2 1.4 0.4
v 0.2 1.4 0.3
v 0.2 1.4 -0.2
v 0.2 1.4 -0.3
v 0.2 1.5 0.4
v 0.2 1.5 0.3
v 0.2 1.5 -0.2
v 0.2 1.5 -0.3
v 0.2 1.6 0.4
v 0.2 1.6 0.3
v 0.2 1.6 -0.2
v 0.2 1.6 -0.3
v 0.2 1.7 0.4
v 0.2 1.7 0.3
v 0.2 1.7 -0.2
v 0.2 1.7 -0.3
v 0.2 1.9 0.4
v 0.2 1.9 0.3
v 0.2 2.5 0.1
v 0.2 2.5 -0.1
v 0.2 2.6 0.1
v 0.2 2.6 -0.1
v 0.3 1.4 0.3
v 0.3 1.4 0.2
v 0.3 1.4 -0.1
v 0.3 1.4 -0.2
v 0.3 1.6 0.3
v 0.3 1.6 0.2
v 0.3 1.6 -0.1
v 0.3 1.6 -0.2
v 0.3 1.7 0.3
v 0.3 1.7 0.2
v 0.3 1.7 -0.1
v 0.3 1.7 -0.2
v 0.3 1.9 0.4
v 0.3 1.9 0.3
v 0.3 1.9 0.2
v 0.3 1.9 -0.1
v 0.3 1.9 -0.2
v 0.3 1.9 -0.3
v 0.3 2 0.3
v 0.3 2 0.2
v 0.3 2 -0.1
v 0.3 2 -0.2
v 0.3 2.1 -0.1
v 0.3 2.1 -0.2
v 0.3 2.3 0.4
v 0.3 2.3 0.3
v 0.3 2.4 0.4
v 0.3 2.4 0.3
v 0.3 2.4 -0.2
v 0.3 2.4 -0.3
v 0.3 2.5 -0.2
v 0.3 2.5 -0.3
v 0.4 1.4 0.2
v 0.4 1.4 -0.1
v 0.4 1.6 0.2
v 0.4 1.6 -0.1
v 0.4 1.7 0.2
v 0.4 1.7 -0.1
v 0.4 1.9 0.2
v 0.4 1.9 -0.1
v 0.4 2 0.3
v 0.4 2 0.2
v 0.4 2 -0.1
v 0.4 2.1 -0.1
v 0.4 2.1 -0.2
v 0.4 2.4 0.3
v 0.4 2.4 -0.2
v 0.4 2.5 0.3
v 0.4 2.5 -0.2
v -0.3 1.9 0.4
v -0.3 2.3 0.4
v -0.3 2.4 0.4
v -0.2 1.4 0.4
v -0.2 1.5 0.4
v -0.2 1.6 0.4
v -0.2 1.7 0.4
v -0.2 1.9 0.4
v -0.2 2.3 0.4
v -0.2 2.4 0.4
v -0.1 1.6 0.4
v -0.1 1.7 0.4
v 0.1 1.6 0.4
v 0.1 1.7 0.4
v 0.2 1.4 0.4
v 0.2 1.5 0.4
v 0.2 1.6 0.4
v 0.2 1.7 0.4
v 0.2 1.9 0.4
v 0.2 2.3 0.4
v 0.2 2.4 0.4
v 0.3 1.9 0.4
v 0.3 2.3 0.4
v 0.3 2.4 0.4
v -0.4 2 0.3
v -0.4 2.4 0.3
v -0.4 2.5 0.3
v -0.3 1.4 0.3
v -0.3 1.6 0.3
v -0.3 1.7 0.3
v -0.3 1.9 0.3
v -0.3 2 0.3
v -0.3 2.3 0.3
v -0.3 2.4 0.3
v -0.2 1.4 0.3
v -0.2 1.5 0.3
v -0.2 1.6 0.3
v -0.2 1.7 0.3
v -0.2 1.9 0.3
v -0.2 2.4 0.3
v -0.2 2.5 0.3
v 0.2 1.4 0.3
v 0.2 1.5 0.3
v 0.2 1.6 0.3
v 0.2 1.7 0.3
v 0.2 1.9 0.3
v 0.2 2.4 0.3
v 0.2 2.5 0.3
v 0.3 1.4 0.3
v 0.3 1.6 0.3
v 0.3 1.7 0.3
v 0.3 1.9 0.3
v 0.3 2 0.3
v 0.3 2.3 0.3
v 0.3 2.4 0.3
v 0.4 2 0.3
v 0.4 2.4 0.3
v 0.4 2.5 0.3
v -0.4 1.4 0.2
v -0.4 1.6 0.2
v -0.4 1.7 0.2
v -0.4 1.9 0.2
v -0.4 2 0.2
v -0.3 1.4 0.2
v -0.3 1.6 0.2
v -0.3 1.7 0.2
v -0.3 1.9 0.2
v -0.3 2 0.2
v -0.1 2.5 0.2
v -0.1 2.6 0.2
v 0.1 2.5 0.2
v 0.1 2.6 0.2
v 0.3 1.4 0.2
v 0.3 1.6 0.2
v 0.3 1.7 0.2
v 0.3 1.9 0.2
v 0.3 2 0.2
v 0.4 1.4 0.2
v 0.4 1.6 0.2
v 0.4 1.7 0.2
v 0.4 1.9 0.2
v 0.4 2 0.2
v -0.2 2.5 0.1
v -0.2 2.6 0.1
v -0.1 2.5 0.1
v -0.1 2.6 0.1
v 0.1 2.5 0.1
v 0.1 2.6 0.1
v 0.2 2.5 0.1
v 0.2 2.6 0.1
v -0.2 1.6 -0.2
v -0.2 1.7 -0.2
v 0.2 1.6 -0.2
v 0.2 1.7 -0.2
v -0.4 1.4 -0.1
v -0.4 1.6 -0.1
v -0.4 1.7 -0.1
v -0.4 1.9 -0.1
v -0.4 2 -0.1
v -0.4 2.1 -0.1
v -0.3 1.4 -0.1
v -0.3 1.6 -0.1
v -0.3 1.7 -0.1
v -0.3 1.9 -0.1
v -0.3 2 -0.1
v -0.3 2.1 -0.1
v -0.2 1.6 -0.1
v -0.2 1.7 -0.1
v -0.2 2.5 -0.1
v -0.2 2.6 -0.1
v -0.1 2.5 -0.1
v -0.1 2.6 -0.1
v 0.1 2.5 -0.1
v 0.1 2.6 -0.1
v 0.2 1.6 -0.1
v 0.2 1.7 -0.1
v 0.2 2.5 -0.1
v 0.2 2.6 -0.1
v 0.3 1.4 -0.1
v 0.3 1.6 -0.1
v 0.3 1.7 -0.1
v 0.3 1.9 -0.1
v 0.3 2 -0.1
v 0.3 2.1 -0.1
v 0.4 1.4 -0.1
v 0.4 1.6 -0.1
v 0.4 1.7 -0.1
v 0.4 1.9 -0.1
v 0.4 2 -0.1
v 0.4 2.1 -0.1
v -0.4 2.1 -0.2
v -0.4 2.4 -0.2
v -0.4 2.5 -0.2
v -0.3 1.4 -0.2
v -0.3 1.6 -0.2
v -0.3 1.7 -0.2
v -0.3 1.9 -0.2
v -0.3 2.1 -0.2
v -0.3 2.4 -0.2
v -0.3 2.5 -0.2
v -0.2 1.4 -0.2
v -0.2 1.5 -0.2
v -0.2 1.6 -0.2
v -0.2 1.7 -0.2
v -0.2 1.9 -0.2
v -0.1 2.5 -0.2
v -0.1 2.6 -0.2
v 0.1 2.5 -0.2
v 0.1 2.6 -0.2
v 0.2 1.4 -0.2
v 0.2 1.5 -0.2
v 0.2 1.6 -0.2
v 0.2 1.7 -0.2
v 0.2 1.9 -0.2
v 0.3 1.4 -0.2
v 0.3 1.6 -0.2
v 0.3 1.7 -0.2
v 0.3 1.9 -0.2
v 0.3 2.1 -0.2
v 0.3 2.4 -0.2
v 0.3 2.5 -0.2
v 0.4 2.1 -0.2
v 0.4 2.4 -0.2
v 0.4 2.5 -0.2
v -0.3 1.9 -0.3
v -0.3 2.4 -0.3
v -0.3 2.5 -0.3
v -0.2 1.4 -0.3
v -0.2 1.5 -0.3
v -0.2 1.6 -0.3
v -0.2 1.7 -0.3
v -0.2 1.9 -0.3
v -0.2 2.4 -0.3
v -0.2 2.5 -0.3
v 0.2 1.4 -0.3
v 0.2 1.5 -0.3
v 0.2 1.6 -0.3
v 0.2 1.7 -0.3
v 0.2 1.9 -0.3
v 0.2 2.4 -0.3
v 0.2 2.5 -0.3
v 0.3 1.9 -0.3
v 0.3 2.4 -0.3
v 0.3 2.5 -0.3
v -0.2 1.4 0.4
v 0.2 1.4 0.4
v -0.3 1.4 0.3
v -0.2 1.4 0.3
v 0.2 1.4 0.3
v 0.3 1.4 0.3
v -0.4 1.4 0.2
v -0.3 1.4 0.2
v -0.2 1.4 0.2
v 0.2 1.4 0.2
v 0.3 1.4 0.2
v 0.4 1.4 0.2
v -0.4 1.4 -0.1
v -0.3 1.4 -0.1
v -0.2 1.4 -0.1
v 0.2 1.4 -0.1
v 0.3 1.4 -0.1
v 0.4 1.4 -0.1
v -0.3 1.4 -0.2
v -0.2 1.4 -0.2
v 0.2 1.4 -0.2
v 0.3 1.4 -0.2
v -0.2 1.4 -0.3
v 0.2 1.4 -0.3
v -0.2 1.7 -0.1
v 0.2 1.7 -0.1
v -0.2 1.7 -0.2
v 0.2 1.7 -0.2
v -0.3 1.9 0.4
v -0.2 1.9 0.4
v 0.2 1.9 0.4
v 0.3 1.9 0.4
v -0.3 1.9 0.3
v -0.2 1.9 0.3
v 0.2 1.9 0.3
v 0.3 1.9 0.3
v -0.3 1.9 -0.2
v -0.2 1.9 -0.2
v 0.2 1.9 -0.2
v 0.3 1.9 -0.2
v -0.3 1.9 -0.3
v -0.2 1.9 -0.3
v 0.2 1.9 -0.3
v 0.3 1.9 -0.3
v -0.4 2 0.3
v -0.3 2 0.3
v 0.3 2 0.3
v 0.4 2 0.3
v -0.4 2 0.2
v -0.3 2 0.2
v 0.3 2 0.2
v 0.4 2 0.2
v -0.4 2.1 -0.1
v -0.3 2.1 -0.1
v 0.3 2.1 -0.1
v 0.4 2.1 -0.1
v -0.4 2.1 -0.2
v -0.3 2.1 -0.2
v 0.3 2.1 -0.2
v 0.4 2.1 -0.2
v -0.2 1.6 -0.1
v 0.2 1.6 -0.1
v -0.2 1.6 -0.2
v 0.2 1.6 -0.2
v -0.2 1.7 -0.2
v 0.2 1.7 -0.2
v -0.2 1.7 -0.3
v 0.2 1.7 -0.3
v -0.3 2.4 0.4
v -0.2 2.4 0.4
v 0.2 2.4 0.4
v 0.3 2.4 0.4
v -0.3 2.4 0.3
v -0.2 2.4 0.3
v 0.2 2.4 0.3
v 0.3 2.4 0.3
v -0.4 2.5 0.3
v -0.2 2.5 0.3
v 0.2 2.5 0.3
v 0.4 2.5 0.3
v -0.1 2.5 0.2
v 0.1 2.5 0.2
v -0.2 2.5 0.1
v -0.1 2.5 0.1
v 0.1 2.5 0.1
v 0.2 2.5 0.1
v -0.2 2.5 -0.1
v -0.1 2.5 -0.1
v 0.1 2.5 -0.1
v 0.2 2.5 -0.1
v -0.4 2.5 -0.2
v -0.3 2.5 -0.2
v -0.2 2.5 -0.2
v -0.1 2.5 -0.2
v 0.1 2.5 -0.2
v 0.2 2.5 -0.2
v 0.3 2.5 -0.2
v 0.4 2.5 -0.2
v -0.3 2.5 -0.3
v -0.2 2.5 -0.3
v 0.2 2.5 -0.3
v 0.3 2.5 -0.3
v -0.1 2.6 0.2
v 0.1 2.6 0.2
v -0.2 2.6 0.1
v -0.1 2.6 0.1
v 0.1 2.6 0.1
v 0.2 2.6 0.1
v -0.2 2.6 -0.1
v -0.1 2.6 -0.1
v 0.1 2.6 -0.1
v 0.2 2.6 -0.1
v -0.1 2.6 -0.2
v 0.1 2.6 -0.2

# faces
f 3/6/1 2/6/1 1/6/1
f 4/6/1 2/6/1 3/6/1
f 5/2/1 4/2/1 3/2/1
f 6/2/1 4/2/1 5/2/1
f 7/5/1 6/5/1 5/5/1
f 8/5/1 6/5/1 7/5/1
f 10/3/1 8/3/1 7/3/1
f 11/3/1 8/3/1 10/3/1
f 12/6/1 10/6/1 9/6/1
f 12/6/1 11/6/1 10/6/1
f 14/6/1 12/6/1 9/6/1
f 14/6/1 13/6/1 12/6/1
f 15/6/1 13/6/1 14/6/1
f 16/2/1 15/2/1 14/2/1
f 17/2/1 15/2/1 16/2/1
f 22/3/1 19/3/1 18/3/1
f 23/3/1 19/3/1 22/3/1
f 24/3/1 21/3/1 20/3/1
f 25/3/1 21/3/1 24/3/1
f 26/2/1 23/2/1 22/2/1
f 27/2/1 23/2/1 26/2/1
f 28/2/1 25/2/1 24/2/1
f 29/2/1 25/2/1 28/2/1
f 31/5/1 27/5/1 26/5/1
f 32/5/1 27/5/1 31/5/1
f 33/5/1 29/5/1 28/5/1
f 34/5/1 29/5/1 33/5/1
f 36/3/1 32/3/1 31/3/1
f 36/3/1 31/3/1 30/3/1
f 37/3/1 32/3/1 36/3/1
f 38/3/1 34/3/1 33/3/1
f 38/3/1 35/3/1 34/3/1
f 39/3/1 35/3/1 38/3/1
f 40/6/1 39/6/1 38/6/1
f 41/3/1 35/3/1 39/3/1
f 41/6/1 39/6/1 40/6/1
f 42/3/1 36/3/1 30/3/1
f 43/3/1 36/3/1 42/3/1
f 44/2/1 43/2/1 42/2/1
f 45/2/1 43/2/1 44/2/1
f 46/3/1 35/3/1 41/3/1
f 47/3/1 35/3/1 46/3/1
f 48/2/1 47/2/1 46/2/1
f 49/2/1 47/2/1 48/2/1
f 54/3/1 51/3/1 50/3/1
f 55/3/1 51/3/1 54/3/1
f 56/3/1 53/3/1 52/3/1
f 57/3/1 53/3/1 56/3/1
f 58/5/1 55/5/1 54/5/1
f 59/5/1 55/5/1 58/5/1
f 60/5/1 57/5/1 56/5/1
f 61/5/1 57/5/1 60/5/1
f 62/2/1 59/2/1 58/2/1
f 63/2/1 59/2/1 62/2/1
f 64/2/1 61/2/1 60/2/1
f 65/2/1 61/2/1 64/2/1
f 66/5/1 63/5/1 62/5/1
f 67/5/1 63/5/1 66/5/1
f 70/1/1 69/1/1 68/1/1
f 71/1/1 69/1/1 70/1/1
f 76/1/1 73/1/1 72/1/1
f 77/1/1 73/1/1 76/1/1
f 78/1/1 75/1/1 74/1/1
f 79/1/1 75/1/1 78/1/1
f 82/2/1 81/2/1 80/2/1
f 83/2/1 81/2/1 82/2/1
f 84/2/2 85/2/2 86/2/2
f 86/2/2 85/2/2 87/2/2
f 88/1/2 89/1/2 92/1/2
f 92/1/2 89/1/2 93/1/2
f 90/1/2 91/1/2 94/1/2
f 94/1/2 91/1/2 95/1/2
f 96/3/2 97/3/2 100/3/2
f 100/3/2 97/3/2 101/3/2
f 98/3/2 99/3/2 102/3/2
f 102/3/2 99/3/2 103/3/2
f 100/5/2 101/5/2 104/5/2
f 104/5/2 101/5/2 105/5/2
f 102/5/2 103/5/2 106/5/2
f 106/5/2 103/5/2 107/5/2
f 104/2/2 105/2/2 108/2/2
f 108/2/2 105/2/2 109/2/2
f 106/2/2 107/2/2 110/2/2
f 110/2/2 107/2/2 111/2/2
f 108/5/2 109/5/2 112/5/2
f 112/5/2 109/5/2 113/5/2
f 114/1/2 115/1/2 116/1/2
f 116/1/2 115/1/2 117/1/2
f 118/3/2 119/3/2 122/3/2
f 122/3/2 119/3/2 123/3/2
f 120/3/2 121/3/2 124/3/2
f 124/3/2 121/3/2 125/3/2
f 122/2/2 123/2/2 126/2/2
f 126/2/2 123/2/2 127/2/2
f 124/2/2 125/2/2 128/2/2
f 128/2/2 125/2/2 129/2/2
f 126/5/2 127/5/2 131/5/2
f 131/5/2 127/5/2 132/5/2
f 128/5/2 129/5/2 133/5/2
f 133/5/2 129/5/2 134/5/2
f 131/3/2 132/3/2 136/3/2
f 130/3/2 131/3/2 136/3/2
f 136/3/2 132/3/2 137/3/2
f 133/3/2 134/3/2 138/3/2
f 134/3/2 135/3/2 138/3/2
f 138/3/2 135/3/2 139/3/2
f 138/6/2 139/6/2 140/6/2
f 139/3/2 135/3/2 141/3/2
f 140/6/2 139/6/2 141/6/2
f 130/3/2 136/3/2 142/3/2
f 142/3/2 136/3/2 143/3/2
f 142/2/2 143/2/2 144/2/2
f 144/2/2 143/2/2 145/2/2
f 141/3/2 135/3/2 146/3/2
f 146/3/2 135/3/2 147/3/2
f 146/2/2 147/2/2 148/2/2
f 148/2/2 147/2/2 149/2/2
f 150/6/2 151/6/2 152/6/2
f 152/6/2 151/6/2 153/6/2
f 152/2/2 153/2/2 154/2/2
f 154/2/2 153/2/2 155/2/2
f 154/5/2 155/5/2 156/5/2
f 156/5/2 155/5/2 157/5/2
f 156/3/2 157/3/2 159/3/2
f 159/3/2 157/3/2 160/3/2
f 158/6/2 159/6/2 161/6/2
f 159/6/2 160/6/2 161/6/2
f 158/6/2 161/6/2 163/6/2
f 161/6/2 162/6/2 163/6/2
f 163/6/2 162/6/2 164/6/2
f 163/2/2 164/2/2 165/2/2
f 165/2/2 164/2/2 166/2/2
f 174/3/3 168/3/3 167/3/3
f 175/2/3 169/2/3 168/2/3
f 175/3/3 168/3/3 174/3/3
f 176/2/3 169/2/3 175/2/3
f 177/2/3 173/2/3 172/2/3
f 177/5/3 172/5/3 171/5/3
f 178/5/3 174/5/3 173/5/3
f 178/2/3 173/2/3 177/2/3
f 178/5/3 175/5/3 174/5/3
f 179/5/3 177/5/3 171/5/3
f 179/7/3 178/7/3 177/7/3
f 180/5/3 175/5/3 178/5/3
f 180/7/3 178/7/3 179/7/3
f 181/3/3 171/3/3 170/3/3
f 182/5/3 179/5/3 171/5/3
f 182/3/3 171/3/3 181/3/3
f 183/2/3 180/2/3 179/2/3
f 183/5/3 179/5/3 182/5/3
f 184/5/3 175/5/3 180/5/3
f 184/2/3 180/2/3 183/2/3
f 185/5/3 175/5/3 184/5/3
f 186/3/3 176/3/3 175/3/3
f 186/5/3 175/5/3 185/5/3
f 187/3/3 176/3/3 186/3/3
f 188/3/3 186/3/3 185/3/3
f 189/2/3 187/2/3 186/2/3
f 189/3/3 186/3/3 188/3/3
f 190/2/3 187/2/3 189/2/3
f 198/6/3 192/6/3 191/6/3
f 199/6/3 192/6/3 198/6/3
f 200/2/3 193/2/3 192/2/3
f 200/6/3 192/6/3 199/6/3
f 201/3/3 195/3/3 194/3/3
f 202/3/3 195/3/3 201/3/3
f 203/2/3 196/2/3 195/2/3
f 203/3/3 195/3/3 202/3/3
f 204/5/3 197/5/3 196/5/3
f 204/2/3 196/2/3 203/2/3
f 205/5/3 197/5/3 204/5/3
f 206/2/3 193/2/3 200/2/3
f 207/2/3 193/2/3 206/2/3
f 213/6/3 207/6/3 206/6/3
f 214/6/3 207/6/3 213/6/3
f 215/3/3 209/3/3 208/3/3
f 215/3/3 210/3/3 209/3/3
f 216/2/3 211/2/3 210/2/3
f 216/3/3 210/3/3 215/3/3
f 217/5/3 212/5/3 211/5/3
f 217/2/3 211/2/3 216/2/3
f 218/5/3 212/5/3 217/5/3
f 221/2/3 214/2/3 213/2/3
f 222/6/3 221/6/3 220/6/3
f 222/6/3 220/6/3 219/6/3
f 223/2/3 214/2/3 221/2/3
f 223/6/3 221/6/3 222/6/3
f 224/2/3 214/2/3 223/2/3
f 230/6/3 226/6/3 225/6/3
f 231/2/3 227/2/3 226/2/3
f 231/6/3 226/6/3 230/6/3
f 232/5/3 228/5/3 227/5/3
f 232/2/3 227/2/3 231/2/3
f 233/3/3 229/3/3 228/3/3
f 233/5/3 228/5/3 232/5/3
f 234/3/3 229/3/3 233/3/3
f 237/1/3 236/1/3 235/1/3
f 238/1/3 236/1/3 237/1/3
f 244/6/3 240/6/3 239/6/3
f 245/2/3 241/2/3 240/2/3
f 245/6/3 240/6/3 244/6/3
f 246/5/3 242/5/3 241/5/3
f 246/2/3 241/2/3 245/2/3
f 247/3/3 243/3/3 242/3/3
f 247/5/3 242/5/3 246/5/3
f 248/3/3 243/3/3 247/3/3
f 251/1/3 250/1/3 249/1/3
f 252/1/3 250/1/3 251/1/3
f 255/1/3 254/1/3 253/1/3
f 256/1/3 254/1/3 255/1/3
f 259/2/3 258/2/3 257/2/3
f 260/2/3 258/2/3 259/2/3
f 261/6/4 262/6/4 267/6/4
f 262/2/4 263/2/4 268/2/4
f 267/6/4 262/6/4 268/6/4
f 263/5/4 264/5/4 269/5/4
f 268/2/4 263/2/4 269/2/4
f 264/3/4 265/3/4 270/3/4
f 269/5/4 264/5/4 270/5/4
f 265/6/4 266/6/4 271/6/4
f 270/3/4 265/3/4 271/3/4
f 271/6/4 266/6/4 272/6/4
f 275/1/4 276/1/4 277/1/4
f 277/1/4 276/1/4 278/1/4
f 273/4/4 274/4/4 281/4/4
f 281/4/4 274/4/4 282/4/4
f 279/1/4 280/1/4 283/1/4
f 283/1/4 280/1/4 284/1/4
f 285/6/4 286/6/4 291/6/4
f 286/2/4 287/2/4 292/2/4
f 291/6/4 286/6/4 292/6/4
f 287/5/4 288/5/4 293/5/4
f 292/2/4 287/2/4 293/2/4
f 288/3/4 289/3/4 294/3/4
f 293/5/4 288/5/4 294/5/4
f 289/6/4 290/6/4 295/6/4
f 294/3/4 289/3/4 295/3/4
f 295/6/4 290/6/4 296/6/4
f 297/6/4 298/6/4 304/6/4
f 298/2/4 299/2/4 305/2/4
f 304/6/4 298/6/4 305/6/4
f 305/2/4 299/2/4 306/2/4
f 300/3/4 301/3/4 307/3/4
f 307/3/4 301/3/4 308/3/4
f 301/2/4 302/2/4 309/2/4
f 308/3/4 301/3/4 309/3/4
f 302/5/4 303/5/4 310/5/4
f 309/2/4 302/2/4 310/2/4
f 310/5/4 303/5/4 311/5/4
f 312/1/4 313/1/4 314/1/4
f 314/1/4 313/1/4 315/1/4
f 310/5/4 311/5/4 319/5/4
f 319/5/4 311/5/4 320/5/4
f 317/3/4 318/3/4 321/3/4
f 316/3/4 317/3/4 321/3/4
f 318/2/4 319/2/4 322/2/4
f 321/3/4 318/3/4 322/3/4
f 319/5/4 320/5/4 323/5/4
f 322/2/4 319/2/4 323/2/4
f 323/5/4 320/5/4 324/5/4
f 325/6/4 326/6/4 328/6/4
f 326/2/4 327/2/4 329/2/4
f 328/6/4 326/6/4 329/6/4
f 329/2/4 327/2/4 330/2/4
f 331/3/4 332/3/4 338/3/4
f 332/2/4 333/2/4 339/2/4
f 338/3/4 332/3/4 339/3/4
f 339/2/4 333/2/4 340/2/4
f 334/3/4 335/3/4 341/3/4
f 335/5/4 336/5/4 342/5/4
f 341/3/4 335/3/4 342/3/4
f 336/2/4 337/2/4 343/2/4
f 342/5/4 336/5/4 343/5/4
f 343/2/4 337/2/4 344/2/4
f 338/5/4 339/5/4 345/5/4
f 339/3/4 340/3/4 346/3/4
f 345/5/4 339/5/4 346/5/4
f 346/3/4 340/3/4 347/3/4
f 345/3/4 346/3/4 348/3/4
f 346/2/4 347/2/4 349/2/4
f 348/3/4 346/3/4 349/3/4
f 349/2/4 347/2/4 350/2/4
f 354/3/5 352/3/5 351/3/5
f 355/3/5 352/3/5 354/3/5
f 358/3/5 354/3/5 353/3/5
f 359/6/5 355/6/5 354/6/5
f 359/3/5 354/3/5 358/3/5
f 360/3/5 356/3/5 355/3/5
f 360/6/5 355/6/5 359/6/5
f 361/3/5 356/3/5 360/3/5
f 363/6/5 358/6/5 357/6/5
f 364/4/5 359/4/5 358/4/5
f 364/6/5 358/6/5 363/6/5
f 364/4/5 360/4/5 359/4/5
f 364/4/5 361/4/5 360/4/5
f 365/4/5 361/4/5 364/4/5
f 366/4/5 361/4/5 365/4/5
f 367/6/5 362/6/5 361/6/5
f 367/4/5 361/4/5 366/4/5
f 368/6/5 362/6/5 367/6/5
f 369/3/5 365/3/5 364/3/5
f 370/4/5 366/4/5 365/4/5
f 370/3/5 365/3/5 369/3/5
f 371/3/5 367/3/5 366/3/5
f 371/4/5 366/4/5 370/4/5
f 372/3/5 367/3/5 371/3/5
f 373/3/5 371/3/5 370/3/5
f 374/3/5 371/3/5 373/3/5
f 377/5/5 376/5/5 375/5/5
f 378/5/5 376/5/5 377/5/5
f 383/3/5 380/3/5 379/3/5
f 384/3/5 380/3/5 383/3/5
f 385/3/5 382/3/5 381/3/5
f 386/3/5 382/3/5 385/3/5
f 391/3/5 388/3/5 387/3/5
f 392/5/5 389/5/5 388/5/5
f 392/3/5 388/3/5 391/3/5
f 393/3/5 390/3/5 389/3/5
f 393/5/5 389/5/5 392/5/5
f 394/3/5 390/3/5 393/3/5
f 399/6/5 396/6/5 395/6/5
f 400/6/5 396/6/5 399/6/5
f 401/6/5 398/6/5 397/6/5
f 402/6/5 398/6/5 401/6/5
f 407/6/5 404/6/5 403/6/5
f 408/6/5 404/6/5 407/6/5
f 409/6/5 406/6/5 405/6/5
f 410/6/5 406/6/5 409/6/5
f 411/4/6 412/4/6 413/4/6
f 413/4/6 412/4/6 414/4/6
f 415/2/6 416/2/6 417/2/6
f 417/2/6 416/2/6 418/2/6
f 419/2/6 420/2/6 423/2/6
f 420/3/6 421/3/6 424/3/6
f 423/2/6 420/2/6 424/2/6
f 421/2/6 422/2/6 425/2/6
f 424/3/6 421/3/6 425/3/6
f 425/2/6 422/2/6 426/2/6
f 428/6/6 429/6/6 431/6/6
f 431/6/6 429/6/6 432/6/6
f 427/2/6 428/2/6 433/2/6
f 428/6/6 431/6/6 433/6/6
f 433/6/6 431/6/6 434/6/6
f 432/6/6 429/6/6 435/6/6
f 429/2/6 430/2/6 436/2/6
f 435/6/6 429/6/6 436/6/6
f 427/2/6 433/2/6 437/2/6
f 436/2/6 430/2/6 440/2/6
f 427/2/6 437/2/6 441/2/6
f 441/2/6 437/2/6 442/2/6
f 437/6/6 438/6/6 443/6/6
f 442/2/6 437/2/6 443/2/6
f 443/6/6 438/6/6 444/6/6
f 439/6/6 440/6/6 445/6/6
f 440/2/6 430/2/6 446/2/6
f 445/6/6 440/6/6 446/6/6
f 446/2/6 430/2/6 447/2/6
f 447/2/6 430/2/6 448/2/6
f 442/2/6 443/2/6 449/2/6
f 443/3/6 444/3/6 450/3/6
f 449/2/6 443/2/6 450/2/6
f 444/3/6 445/3/6 450/3/6
f 445/3/6 446/3/6 450/3/6
f 446/2/6 447/2/6 451/2/6
f 450/3/6 446/3/6 451/3/6
f 451/2/6 447/2/6 452/2/6
f 453/1/6 454/1/6 456/1/6
f 456/1/6 454/1/6 457/1/6
f 455/1/6 456/1/6 459/1/6
f 456/4/6 457/4/6 460/4/6
f 459/1/6 456/1/6 460/1/6
f 457/1/6 458/1/6 461/1/6
f 460/4/6 457/4/6 461/4/6
f 461/1/6 458/1/6 462/1/6
f 460/1/6 461/1/6 463/1/6
f 463/1/6 461/1/6 464/1/6
