# MagicaVoxel @ Ephtracy

# group
o longaxe_3

# material
mtllib character-6-longaxe_3.mtl
usemtl palette

# normals
vn 0 0 -1
vn 0 0 1
vn 0 1 0
vn 0 -1 0
vn -1 0 0
vn 1 0 0

# texcoords
vt 0.740234 0.5
vt 0.794922 0.5
vt 0.958984 0.5
vt 0.966797 0.5

# verts
v -0.6 3.3 0.5
v -0.6 3.2 0.5
v -0.6 2.7 0.5
v -0.6 2.5 0.5
v -0.6 2.1 0.5
v -0.6 1.9 0.5
v -0.6 1.5 0.5
v -0.6 1.3 0.5
v -0.6 0.9 0.5
v -0.6 0.7 0.5
v -0.5 3.3 0.5
v -0.5 3.2 0.5
v -0.5 2.7 0.5
v -0.5 2.5 0.5
v -0.5 2.1 0.5
v -0.5 1.9 0.5
v -0.5 1.5 0.5
v -0.5 1.3 0.5
v -0.5 0.9 0.5
v -0.5 0.7 0.5
v -0.6 3.3 0.7
v -0.6 3.2 0.7
v -0.6 2.9 0.7
v -0.6 2.7 0.7
v -0.6 2.6 0.7
v -0.5 3.3 0.7
v -0.5 3.2 0.7
v -0.5 2.9 0.7
v -0.5 2.7 0.7
v -0.5 2.6 0.7
v -0.6 3.4 0.8
v -0.6 3.3 0.8
v -0.5 3.4 0.8
v -0.5 3.3 0.8
v -0.6 3.3 0.6
v -0.6 3.2 0.6
v -0.6 2.9 0.6
v -0.6 2.7 0.6
v -0.6 2.5 0.6
v -0.6 2.1 0.6
v -0.6 1.9 0.6
v -0.6 1.5 0.6
v -0.6 1.3 0.6
v -0.6 0.9 0.6
v -0.6 0.7 0.6
v -0.5 3.3 0.6
v -0.5 3.2 0.6
v -0.5 2.9 0.6
v -0.5 2.7 0.6
v -0.5 2.5 0.6
v -0.5 2.1 0.6
v -0.5 1.9 0.6
v -0.5 1.5 0.6
v -0.5 1.3 0.6
v -0.5 0.9 0.6
v -0.5 0.7 0.6
v -0.6 2.7 0.8
v -0.6 2.6 0.8
v -0.5 2.7 0.8
v -0.5 2.6 0.8
v -0.6 3.4 0.9
v -0.6 3.2 0.9
v -0.6 2.9 0.9
v -0.6 2.7 0.9
v -0.5 3.4 0.9
v -0.5 3.2 0.9
v -0.5 2.9 0.9
v -0.5 2.7 0.9
v -0.6 3.2 1
v -0.6 2.9 1
v -0.5 3.2 1
v -0.5 2.9 1
v -0.6 3.4 0.8
v -0.5 3.4 0.8
v -0.6 3.4 0.9
v -0.5 3.4 0.9
v -0.6 3.3 0.5
v -0.5 3.3 0.5
v -0.6 3.3 0.6
v -0.5 3.3 0.6
v -0.6 3.3 0.7
v -0.5 3.3 0.7
v -0.6 3.3 0.8
v -0.5 3.3 0.8
v -0.6 3.2 0.6
v -0.5 3.2 0.6
v -0.6 3.2 0.7
v -0.5 3.2 0.7
v -0.6 3.2 0.9
v -0.5 3.2 0.9
v -0.6 3.2 1
v -0.5 3.2 1
v -0.6 2.9 0.6
v -0.5 2.9 0.6
v -0.6 2.9 0.7
v -0.5 2.9 0.7
v -0.6 2.9 0.9
v -0.5 2.9 0.9
v -0.6 2.9 1
v -0.5 2.9 1
v -0.6 2.7 0.8
v -0.5 2.7 0.8
v -0.6 2.7 0.9
v -0.5 2.7 0.9
v -0.6 2.6 0.7
v -0.5 2.6 0.7
v -0.6 2.6 0.8
v -0.5 2.6 0.8
v -0.6 0.7 0.5
v -0.5 0.7 0.5
v -0.6 0.7 0.6
v -0.5 0.7 0.6
v -0.6 3.4 0.8
v -0.6 3.4 0.9
v -0.6 3.3 0.5
v -0.6 3.3 0.6
v -0.6 3.3 0.7
v -0.6 3.3 0.8
v -0.6 3.2 0.5
v -0.6 3.2 0.6
v -0.6 3.2 0.7
v -0.6 3.2 0.8
v -0.6 3.2 0.9
v -0.6 3.2 1
v -0.6 2.9 0.6
v -0.6 2.9 0.7
v -0.6 2.9 0.8
v -0.6 2.9 0.9
v -0.6 2.9 1
v -0.6 2.7 0.5
v -0.6 2.7 0.6
v -0.6 2.7 0.7
v -0.6 2.7 0.8
v -0.6 2.7 0.9
v -0.6 2.6 0.7
v -0.6 2.6 0.8
v -0.6 2.5 0.5
v -0.6 2.5 0.6
v -0.6 2.1 0.5
v -0.6 2.1 0.6
v -0.6 1.9 0.5
v -0.6 1.9 0.6
v -0.6 1.5 0.5
v -0.6 1.5 0.6
v -0.6 1.3 0.5
v -0.6 1.3 0.6
v -0.6 0.9 0.5
v -0.6 0.9 0.6
v -0.6 0.7 0.5
v -0.6 0.7 0.6
v -0.5 3.4 0.8
v -0.5 3.4 0.9
v -0.5 3.3 0.5
v -0.5 3.3 0.6
v -0.5 3.3 0.7
v -0.5 3.3 0.8
v -0.5 3.2 0.5
v -0.5 3.2 0.6
v -0.5 3.2 0.7
v -0.5 3.2 0.8
v -0.5 3.2 0.9
v -0.5 3.2 1
v -0.5 2.9 0.6
v -0.5 2.9 0.7
v -0.5 2.9 0.8
v -0.5 2.9 0.9
v -0.5 2.9 1
v -0.5 2.7 0.5
v -0.5 2.7 0.6
v -0.5 2.7 0.7
v -0.5 2.7 0.8
v -0.5 2.7 0.9
v -0.5 2.6 0.7
v -0.5 2.6 0.8
v -0.5 2.5 0.5
v -0.5 2.5 0.6
v -0.5 2.1 0.5
v -0.5 2.1 0.6
v -0.5 1.9 0.5
v -0.5 1.9 0.6
v -0.5 1.5 0.5
v -0.5 1.5 0.6
v -0.5 1.3 0.5
v -0.5 1.3 0.6
v -0.5 0.9 0.5
v -0.5 0.9 0.6
v -0.5 0.7 0.5
v -0.5 0.7 0.6

# faces
f 11/2/1 2/2/1 1/2/1
f 12/1/1 3/1/1 2/1/1
f 12/2/1 2/2/1 11/2/1
f 13/2/1 4/2/1 3/2/1
f 13/1/1 3/1/1 12/1/1
f 14/1/1 5/1/1 4/1/1
f 14/2/1 4/2/1 13/2/1
f 15/2/1 6/2/1 5/2/1
f 15/1/1 5/1/1 14/1/1
f 16/1/1 7/1/1 6/1/1
f 16/2/1 6/2/1 15/2/1
f 17/2/1 8/2/1 7/2/1
f 17/1/1 7/1/1 16/1/1
f 18/1/1 9/1/1 8/1/1
f 18/2/1 8/2/1 17/2/1
f 19/2/1 10/2/1 9/2/1
f 19/1/1 9/1/1 18/1/1
f 20/2/1 10/2/1 19/2/1
f 26/3/1 22/3/1 21/3/1
f 27/3/1 22/3/1 26/3/1
f 28/3/1 24/3/1 23/3/1
f 29/4/1 25/4/1 24/4/1
f 29/3/1 24/3/1 28/3/1
f 30/4/1 25/4/1 29/4/1
f 33/4/1 32/4/1 31/4/1
f 34/4/1 32/4/1 33/4/1
f 35/2/2 36/2/2 46/2/2
f 46/2/2 36/2/2 47/2/2
f 37/1/2 38/1/2 48/1/2
f 38/2/2 39/2/2 49/2/2
f 48/1/2 38/1/2 49/1/2
f 39/1/2 40/1/2 50/1/2
f 49/2/2 39/2/2 50/2/2
f 40/2/2 41/2/2 51/2/2
f 50/1/2 40/1/2 51/1/2
f 41/1/2 42/1/2 52/1/2
f 51/2/2 41/2/2 52/2/2
f 42/2/2 43/2/2 53/2/2
f 52/1/2 42/1/2 53/1/2
f 43/1/2 44/1/2 54/1/2
f 53/2/2 43/2/2 54/2/2
f 44/2/2 45/2/2 55/2/2
f 54/1/2 44/1/2 55/1/2
f 55/2/2 45/2/2 56/2/2
f 57/4/2 58/4/2 59/4/2
f 59/4/2 58/4/2 60/4/2
f 61/4/2 62/4/2 65/4/2
f 65/4/2 62/4/2 66/4/2
f 63/4/2 64/4/2 67/4/2
f 67/4/2 64/4/2 68/4/2
f 69/4/2 70/4/2 71/4/2
f 71/4/2 70/4/2 72/4/2
f 75/4/3 74/4/3 73/4/3
f 76/4/3 74/4/3 75/4/3
f 79/2/3 78/2/3 77/2/3
f 80/2/3 78/2/3 79/2/3
f 83/3/3 82/3/3 81/3/3
f 84/3/3 82/3/3 83/3/3
f 87/3/3 86/3/3 85/3/3
f 88/3/3 86/3/3 87/3/3
f 91/4/3 90/4/3 89/4/3
f 92/4/3 90/4/3 91/4/3
f 93/3/4 94/3/4 95/3/4
f 95/3/4 94/3/4 96/3/4
f 97/4/4 98/4/4 99/4/4
f 99/4/4 98/4/4 100/4/4
f 101/4/4 102/4/4 103/4/4
f 103/4/4 102/4/4 104/4/4
f 105/4/4 106/4/4 107/4/4
f 107/4/4 106/4/4 108/4/4
f 109/2/4 110/2/4 111/2/4
f 111/2/4 110/2/4 112/2/4
f 118/4/5 114/4/5 113/4/5
f 119/2/5 116/2/5 115/2/5
f 120/2/5 116/2/5 119/2/5
f 121/3/5 118/3/5 117/3/5
f 122/4/5 114/4/5 118/4/5
f 122/3/5 118/3/5 121/3/5
f 123/4/5 114/4/5 122/4/5
f 125/1/5 120/1/5 119/1/5
f 125/3/5 121/3/5 120/3/5
f 125/3/5 123/3/5 122/3/5
f 125/3/5 122/3/5 121/3/5
f 126/3/5 123/3/5 125/3/5
f 127/3/5 123/3/5 126/3/5
f 128/4/5 124/4/5 123/4/5
f 128/3/5 123/3/5 127/3/5
f 129/4/5 124/4/5 128/4/5
f 130/1/5 125/1/5 119/1/5
f 131/1/5 125/1/5 130/1/5
f 132/3/5 127/3/5 126/3/5
f 133/4/5 128/4/5 127/4/5
f 133/3/5 127/3/5 132/3/5
f 134/4/5 128/4/5 133/4/5
f 135/4/5 133/4/5 132/4/5
f 136/4/5 133/4/5 135/4/5
f 137/2/5 131/2/5 130/2/5
f 138/2/5 131/2/5 137/2/5
f 139/1/5 138/1/5 137/1/5
f 140/1/5 138/1/5 139/1/5
f 141/2/5 140/2/5 139/2/5
f 142/2/5 140/2/5 141/2/5
f 143/1/5 142/1/5 141/1/5
f 144/1/5 142/1/5 143/1/5
f 145/2/5 144/2/5 143/2/5
f 146/2/5 144/2/5 145/2/5
f 147/1/5 146/1/5 145/1/5
f 148/1/5 146/1/5 147/1/5
f 149/2/5 148/2/5 147/2/5
f 150/2/5 148/2/5 149/2/5
f 151/4/6 152/4/6 156/4/6
f 153/2/6 154/2/6 157/2/6
f 157/2/6 154/2/6 158/2/6
f 155/3/6 156/3/6 159/3/6
f 156/4/6 152/4/6 160/4/6
f 159/3/6 156/3/6 160/3/6
f 160/4/6 152/4/6 161/4/6
f 157/1/6 158/1/6 163/1/6
f 158/3/6 159/3/6 163/3/6
f 160/3/6 161/3/6 163/3/6
f 159/3/6 160/3/6 163/3/6
f 163/3/6 161/3/6 164/3/6
f 164/3/6 161/3/6 165/3/6
f 161/4/6 162/4/6 166/4/6
f 165/3/6 161/3/6 166/3/6
f 166/4/6 162/4/6 167/4/6
f 157/1/6 163/1/6 168/1/6
f 168/1/6 163/1/6 169/1/6
f 164/3/6 165/3/6 170/3/6
f 165/4/6 166/4/6 171/4/6
f 170/3/6 165/3/6 171/3/6
f 171/4/6 166/4/6 172/4/6
f 170/4/6 171/4/6 173/4/6
f 173/4/6 171/4/6 174/4/6
f 168/2/6 169/2/6 175/2/6
f 175/2/6 169/2/6 176/2/6
f 175/1/6 176/1/6 177/1/6
f 177/1/6 176/1/6 178/1/6
f 177/2/6 178/2/6 179/2/6
f 179/2/6 178/2/6 180/2/6
f 179/1/6 180/1/6 181/1/6
f 181/1/6 180/1/6 182/1/6
f 181/2/6 182/2/6 183/2/6
f 183/2/6 182/2/6 184/2/6
f 183/1/6 184/1/6 185/1/6
f 185/1/6 184/1/6 186/1/6
f 185/2/6 186/2/6 187/2/6
f 187/2/6 186/2/6 188/2/6
