# MagicaVoxel @ Ephtracy

# group
o axe_3

# material
mtllib char-4-axe_3.mtl
usemtl palette

# normals
vn 0 0 -1
vn 0 0 1
vn 0 1 0
vn 0 -1 0
vn -1 0 0
vn 1 0 0

# texcoords
vt 0.740234 0.5
vt 0.794922 0.5
vt 0.958984 0.5
vt 0.966797 0.5

# verts
v -0.6 3.2 0.5
v -0.6 3.1 0.5
v -0.6 2.9 0.5
v -0.6 2.6 0.5
v -0.6 2.5 0.5
v -0.6 2.2 0.5
v -0.6 1.2 0.5
v -0.6 1.1 0.5
v -0.5 3.2 0.5
v -0.5 3.1 0.5
v -0.5 2.9 0.5
v -0.5 2.6 0.5
v -0.5 2.5 0.5
v -0.5 2.2 0.5
v -0.5 1.2 0.5
v -0.5 1.1 0.5
v -0.6 3.2 0.7
v -0.6 3.1 0.7
v -0.6 2.9 0.7
v -0.6 2.7 0.7
v -0.6 2.6 0.7
v -0.5 3.2 0.7
v -0.5 3.1 0.7
v -0.5 2.9 0.7
v -0.5 2.7 0.7
v -0.5 2.6 0.7
v -0.6 3.2 0.6
v -0.6 3.1 0.6
v -0.6 2.9 0.6
v -0.6 2.6 0.6
v -0.6 2.5 0.6
v -0.6 2.2 0.6
v -0.6 1.2 0.6
v -0.6 1.1 0.6
v -0.5 3.2 0.6
v -0.5 3.1 0.6
v -0.5 2.9 0.6
v -0.5 2.6 0.6
v -0.5 2.5 0.6
v -0.5 2.2 0.6
v -0.5 1.2 0.6
v -0.5 1.1 0.6
v -0.6 3.2 0.8
v -0.6 3.1 0.8
v -0.6 2.7 0.8
v -0.6 2.6 0.8
v -0.5 3.2 0.8
v -0.5 3.1 0.8
v -0.5 2.7 0.8
v -0.5 2.6 0.8
v -0.6 3.1 0.9
v -0.6 2.7 0.9
v -0.5 3.1 0.9
v -0.5 2.7 0.9
v -0.6 3.2 0.5
v -0.5 3.2 0.5
v -0.6 3.2 0.6
v -0.5 3.2 0.6
v -0.6 3.2 0.7
v -0.5 3.2 0.7
v -0.6 3.2 0.8
v -0.5 3.2 0.8
v -0.6 3.1 0.6
v -0.5 3.1 0.6
v -0.6 3.1 0.7
v -0.5 3.1 0.7
v -0.6 3.1 0.8
v -0.5 3.1 0.8
v -0.6 3.1 0.9
v -0.5 3.1 0.9
v -0.6 2.9 0.6
v -0.5 2.9 0.6
v -0.6 2.9 0.7
v -0.5 2.9 0.7
v -0.6 2.7 0.8
v -0.5 2.7 0.8
v -0.6 2.7 0.9
v -0.5 2.7 0.9
v -0.6 2.6 0.7
v -0.5 2.6 0.7
v -0.6 2.6 0.8
v -0.5 2.6 0.8
v -0.6 1.1 0.5
v -0.5 1.1 0.5
v -0.6 1.1 0.6
v -0.5 1.1 0.6
v -0.6 3.2 0.5
v -0.6 3.2 0.6
v -0.6 3.2 0.7
v -0.6 3.2 0.8
v -0.6 3.1 0.5
v -0.6 3.1 0.6
v -0.6 3.1 0.7
v -0.6 3.1 0.8
v -0.6 3.1 0.9
v -0.6 2.9 0.5
v -0.6 2.9 0.6
v -0.6 2.9 0.7
v -0.6 2.7 0.7
v -0.6 2.7 0.8
v -0.6 2.7 0.9
v -0.6 2.6 0.5
v -0.6 2.6 0.6
v -0.6 2.6 0.7
v -0.6 2.6 0.8
v -0.6 2.5 0.5
v -0.6 2.5 0.6
v -0.6 2.2 0.5
v -0.6 2.2 0.6
v -0.6 1.2 0.5
v -0.6 1.2 0.6
v -0.6 1.1 0.5
v -0.6 1.1 0.6
v -0.5 3.2 0.5
v -0.5 3.2 0.6
v -0.5 3.2 0.7
v -0.5 3.2 0.8
v -0.5 3.1 0.5
v -0.5 3.1 0.6
v -0.5 3.1 0.7
v -0.5 3.1 0.8
v -0.5 3.1 0.9
v -0.5 2.9 0.5
v -0.5 2.9 0.6
v -0.5 2.9 0.7
v -0.5 2.7 0.7
v -0.5 2.7 0.8
v -0.5 2.7 0.9
v -0.5 2.6 0.5
v -0.5 2.6 0.6
v -0.5 2.6 0.7
v -0.5 2.6 0.8
v -0.5 2.5 0.5
v -0.5 2.5 0.6
v -0.5 2.2 0.5
v -0.5 2.2 0.6
v -0.5 1.2 0.5
v -0.5 1.2 0.6
v -0.5 1.1 0.5
v -0.5 1.1 0.6

# faces
f 9/2/1 2/2/1 1/2/1
f 10/1/1 3/1/1 2/1/1
f 10/2/1 2/2/1 9/2/1
f 11/2/1 4/2/1 3/2/1
f 11/1/1 3/1/1 10/1/1
f 12/1/1 5/1/1 4/1/1
f 12/2/1 4/2/1 11/2/1
f 13/2/1 6/2/1 5/2/1
f 13/1/1 5/1/1 12/1/1
f 14/1/1 7/1/1 6/1/1
f 14/2/1 6/2/1 13/2/1
f 15/2/1 8/2/1 7/2/1
f 15/1/1 7/1/1 14/1/1
f 16/2/1 8/2/1 15/2/1
f 22/4/1 18/4/1 17/4/1
f 23/4/1 18/4/1 22/4/1
f 24/3/1 20/3/1 19/3/1
f 25/4/1 21/4/1 20/4/1
f 25/3/1 20/3/1 24/3/1
f 26/4/1 21/4/1 25/4/1
f 27/2/2 28/2/2 35/2/2
f 35/2/2 28/2/2 36/2/2
f 29/2/2 30/2/2 37/2/2
f 30/1/2 31/1/2 38/1/2
f 37/2/2 30/2/2 38/2/2
f 31/2/2 32/2/2 39/2/2
f 38/1/2 31/1/2 39/1/2
f 32/1/2 33/1/2 40/1/2
f 39/2/2 32/2/2 40/2/2
f 33/2/2 34/2/2 41/2/2
f 40/1/2 33/1/2 41/1/2
f 41/2/2 34/2/2 42/2/2
f 43/4/2 44/4/2 47/4/2
f 47/4/2 44/4/2 48/4/2
f 45/4/2 46/4/2 49/4/2
f 49/4/2 46/4/2 50/4/2
f 51/4/2 52/4/2 53/4/2
f 53/4/2 52/4/2 54/4/2
f 57/2/3 56/2/3 55/2/3
f 58/2/3 56/2/3 57/2/3
f 61/4/3 60/4/3 59/4/3
f 62/4/3 60/4/3 61/4/3
f 65/3/3 64/3/3 63/3/3
f 66/3/3 64/3/3 65/3/3
f 69/4/3 68/4/3 67/4/3
f 70/4/3 68/4/3 69/4/3
f 71/3/4 72/3/4 73/3/4
f 73/3/4 72/3/4 74/3/4
f 75/4/4 76/4/4 77/4/4
f 77/4/4 76/4/4 78/4/4
f 79/4/4 80/4/4 81/4/4
f 81/4/4 80/4/4 82/4/4
f 83/2/4 84/2/4 85/2/4
f 85/2/4 84/2/4 86/2/4
f 91/2/5 88/2/5 87/2/5
f 92/2/5 88/2/5 91/2/5
f 93/4/5 90/4/5 89/4/5
f 94/4/5 90/4/5 93/4/5
f 96/1/5 92/1/5 91/1/5
f 97/3/5 93/3/5 92/3/5
f 97/1/5 92/1/5 96/1/5
f 97/3/5 94/3/5 93/3/5
f 98/3/5 94/3/5 97/3/5
f 99/3/5 94/3/5 98/3/5
f 100/4/5 95/4/5 94/4/5
f 100/3/5 94/3/5 99/3/5
f 101/4/5 95/4/5 100/4/5
f 102/2/5 97/2/5 96/2/5
f 103/2/5 97/2/5 102/2/5
f 104/4/5 100/4/5 99/4/5
f 105/4/5 100/4/5 104/4/5
f 106/1/5 103/1/5 102/1/5
f 107/1/5 103/1/5 106/1/5
f 108/2/5 107/2/5 106/2/5
f 109/2/5 107/2/5 108/2/5
f 110/1/5 109/1/5 108/1/5
f 111/1/5 109/1/5 110/1/5
f 112/2/5 111/2/5 110/2/5
f 113/2/5 111/2/5 112/2/5
f 114/2/6 115/2/6 118/2/6
f 118/2/6 115/2/6 119/2/6
f 116/4/6 117/4/6 120/4/6
f 120/4/6 117/4/6 121/4/6
f 118/1/6 119/1/6 123/1/6
f 119/3/6 120/3/6 124/3/6
f 123/1/6 119/1/6 124/1/6
f 120/3/6 121/3/6 124/3/6
f 124/3/6 121/3/6 125/3/6
f 125/3/6 121/3/6 126/3/6
f 121/4/6 122/4/6 127/4/6
f 126/3/6 121/3/6 127/3/6
f 127/4/6 122/4/6 128/4/6
f 123/2/6 124/2/6 129/2/6
f 129/2/6 124/2/6 130/2/6
f 126/4/6 127/4/6 131/4/6
f 131/4/6 127/4/6 132/4/6
f 129/1/6 130/1/6 133/1/6
f 133/1/6 130/1/6 134/1/6
f 133/2/6 134/2/6 135/2/6
f 135/2/6 134/2/6 136/2/6
f 135/1/6 136/1/6 137/1/6
f 137/1/6 136/1/6 138/1/6
f 137/2/6 138/2/6 139/2/6
f 139/2/6 138/2/6 140/2/6
