# MagicaVoxel @ Ephtracy

# group
o arm_up_hvy_3b_sh

# material
mtllib character-40-arm_up_hvy_3b_sh.mtl
usemtl palette

# normals
vn -1 0 0
vn 1 0 0
vn 0 0 1
vn 0 0 -1
vn 0 -1 0
vn 0 1 0

# texcoords
vt 0.701172 0.5
vt 0.955078 0.5
vt 0.958984 0.5

# verts
v -0.7 1.8 0.2
v -0.7 1.8 -0.2
v -0.7 1.9 0.1
v -0.7 1.9 -0.1
v -0.7 2.4 0.2
v -0.7 2.4 0.1
v -0.7 2.4 -0.1
v -0.7 2.4 -0.2
v -0.6 2.4 0.2
v -0.6 2.4 0.1
v -0.6 2.4 -0.1
v -0.6 2.4 -0.2
v -0.6 2.5 0.2
v -0.6 2.5 0.1
v -0.6 2.5 -0.1
v -0.6 2.5 -0.2
v -0.5 1.8 0.2
v -0.5 1.8 0.1
v -0.5 1.8 -0.1
v -0.5 1.8 -0.2
v -0.5 2.1 0.2
v -0.5 2.1 0.1
v -0.5 2.1 -0.1
v -0.5 2.1 -0.2
v -0.4 1.8 0.1
v -0.4 1.8 -0.1
v -0.4 2.1 0.2
v -0.4 2.1 0.1
v -0.4 2.1 -0.1
v -0.4 2.1 -0.2
v -0.4 2.4 0.2
v -0.4 2.4 -0.2
v -0.4 2.5 0.2
v -0.4 2.5 -0.2
v -0.7 1.8 0.2
v -0.7 2.4 0.2
v -0.6 1.8 0.2
v -0.6 2.4 0.2
v -0.6 2.5 0.2
v -0.5 1.8 0.2
v -0.5 2.1 0.2
v -0.4 2.1 0.2
v -0.4 2.4 0.2
v -0.4 2.5 0.2
v -0.5 1.8 0.1
v -0.5 2.1 0.1
v -0.4 1.8 0.1
v -0.4 2.1 0.1
v -0.5 1.8 -0.1
v -0.5 2.1 -0.1
v -0.4 1.8 -0.1
v -0.4 2.1 -0.1
v -0.7 1.8 -0.2
v -0.7 2.4 -0.2
v -0.6 1.8 -0.2
v -0.6 2.4 -0.2
v -0.6 2.5 -0.2
v -0.5 1.8 -0.2
v -0.5 2.1 -0.2
v -0.4 2.1 -0.2
v -0.4 2.4 -0.2
v -0.4 2.5 -0.2
v -0.7 1.8 0.2
v -0.6 1.8 0.2
v -0.5 1.8 0.2
v -0.5 1.8 0.1
v -0.4 1.8 0.1
v -0.5 1.8 -0.1
v -0.4 1.8 -0.1
v -0.7 1.8 -0.2
v -0.6 1.8 -0.2
v -0.5 1.8 -0.2
v -0.5 2.1 0.2
v -0.4 2.1 0.2
v -0.5 2.1 0.1
v -0.4 2.1 0.1
v -0.5 2.1 -0.1
v -0.4 2.1 -0.1
v -0.5 2.1 -0.2
v -0.4 2.1 -0.2
v -0.7 2.4 0.2
v -0.6 2.4 0.2
v -0.7 2.4 0.1
v -0.6 2.4 0.1
v -0.7 2.4 -0.1
v -0.6 2.4 -0.1
v -0.7 2.4 -0.2
v -0.6 2.4 -0.2
v -0.6 2.5 0.2
v -0.4 2.5 0.2
v -0.6 2.5 0.1
v -0.5 2.5 0.1
v -0.6 2.5 -0.1
v -0.5 2.5 -0.1
v -0.6 2.5 -0.2
v -0.4 2.5 -0.2

# faces
f 3/1/1 2/1/1 1/1/1
f 4/1/1 2/1/1 3/1/1
f 5/1/1 3/1/1 1/1/1
f 6/2/1 4/2/1 3/2/1
f 6/1/1 3/1/1 5/1/1
f 7/1/1 2/1/1 4/1/1
f 7/2/1 4/2/1 6/2/1
f 8/1/1 2/1/1 7/1/1
f 13/1/1 10/1/1 9/1/1
f 14/2/1 11/2/1 10/2/1
f 14/1/1 10/1/1 13/1/1
f 15/1/1 12/1/1 11/1/1
f 15/2/1 11/2/1 14/2/1
f 16/1/1 12/1/1 15/1/1
f 17/3/2 18/3/2 21/3/2
f 21/3/2 18/3/2 22/3/2
f 19/3/2 20/3/2 23/3/2
f 23/3/2 20/3/2 24/3/2
f 25/3/2 26/3/2 28/3/2
f 28/3/2 26/3/2 29/3/2
f 27/3/2 28/3/2 31/3/2
f 29/3/2 30/3/2 31/3/2
f 28/3/2 29/3/2 31/3/2
f 31/3/2 30/3/2 32/3/2
f 31/1/2 32/1/2 33/1/2
f 33/1/2 32/1/2 34/1/2
f 37/1/3 36/1/3 35/1/3
f 38/1/3 36/1/3 37/1/3
f 40/3/3 38/3/3 37/3/3
f 41/3/3 38/3/3 40/3/3
f 42/3/3 38/3/3 41/3/3
f 43/1/3 39/1/3 38/1/3
f 43/3/3 38/3/3 42/3/3
f 44/1/3 39/1/3 43/1/3
f 47/3/3 46/3/3 45/3/3
f 48/3/3 46/3/3 47/3/3
f 49/3/4 50/3/4 51/3/4
f 51/3/4 50/3/4 52/3/4
f 53/1/4 54/1/4 55/1/4
f 55/1/4 54/1/4 56/1/4
f 55/3/4 56/3/4 58/3/4
f 58/3/4 56/3/4 59/3/4
f 59/3/4 56/3/4 60/3/4
f 56/1/4 57/1/4 61/1/4
f 60/3/4 56/3/4 61/3/4
f 61/1/4 57/1/4 62/1/4
f 66/3/5 65/3/5 64/3/5
f 68/3/5 66/3/5 64/3/5
f 68/3/5 67/3/5 66/3/5
f 69/3/5 67/3/5 68/3/5
f 70/1/5 64/1/5 63/1/5
f 71/3/5 68/3/5 64/3/5
f 71/1/5 64/1/5 70/1/5
f 72/3/5 68/3/5 71/3/5
f 75/3/5 74/3/5 73/3/5
f 76/3/5 74/3/5 75/3/5
f 79/3/5 78/3/5 77/3/5
f 80/3/5 78/3/5 79/3/5
f 81/1/6 82/1/6 83/1/6
f 83/1/6 82/1/6 84/1/6
f 83/2/6 84/2/6 85/2/6
f 85/2/6 84/2/6 86/2/6
f 85/1/6 86/1/6 87/1/6
f 87/1/6 86/1/6 88/1/6
f 89/1/6 90/1/6 91/1/6
f 91/1/6 90/1/6 92/1/6
f 91/2/6 92/2/6 93/2/6
f 92/1/6 90/1/6 94/1/6
f 93/2/6 92/2/6 94/2/6
f 93/1/6 94/1/6 95/1/6
f 94/1/6 90/1/6 96/1/6
f 95/1/6 94/1/6 96/1/6
