# MagicaVoxel @ Ephtracy

# group
o shield_hvy_1

# material
mtllib char-39-shield_hvy_1.mtl
usemtl palette

# normals
vn 0 1 0
vn 0 -1 0
vn 1 0 0
vn -1 0 0
vn 0 0 1
vn 0 0 -1

# texcoords
vt 0.697266 0.5
vt 0.794922 0.5
vt 0.958984 0.5

# verts
v 0.8 2.8 0.7
v 0.4 2.8 0.7
v 0.8 2.8 0.6
v 0.4 2.8 0.6
v 1 2.7 0.7
v 0.8 2.7 0.7
v 0.4 2.7 0.7
v 0.2 2.7 0.7
v 1 2.7 0.6
v 0.8 2.7 0.6
v 0.4 2.7 0.6
v 0.2 2.7 0.6
v 1.1 2.6 0.7
v 1 2.6 0.7
v 0.2 2.6 0.7
v 0.1 2.6 0.7
v 1.1 2.6 0.6
v 1 2.6 0.6
v 0.2 2.6 0.6
v 0.1 2.6 0.6
v 1.2 2.5 0.7
v 1.1 2.5 0.7
v 0.1 2.5 0.7
v 1.19209e-07 2.5 0.7
v 1.2 2.5 0.6
v 1.1 2.5 0.6
v 0.1 2.5 0.6
v 1.19209e-07 2.5 0.6
v 1.3 2.3 0.7
v 1.2 2.3 0.7
v 1.19209e-07 2.3 0.7
v -0.0999999 2.3 0.7
v 1.3 2.3 0.6
v 1.2 2.3 0.6
v 1.19209e-07 2.3 0.6
v -0.0999999 2.3 0.6
v 0.7 1.8 0.8
v 0.5 1.8 0.8
v 0.7 1.8 0.7
v 0.5 1.8 0.7
v 0.7 1.6 0.7
v 0.5 1.6 0.7
v 0.7 1.6 0.6
v 0.5 1.6 0.6
v 0.7 1.8 0.7
v 0.5 1.8 0.7
v 0.7 1.8 0.6
v 0.5 1.8 0.6
v 0.7 1.6 0.8
v 0.5 1.6 0.8
v 0.7 1.6 0.7
v 0.5 1.6 0.7
v 1.3 1.1 0.7
v 1.2 1.1 0.7
v 1.19209e-07 1.1 0.7
v -0.0999999 1.1 0.7
v 1.3 1.1 0.6
v 1.2 1.1 0.6
v 1.19209e-07 1.1 0.6
v -0.0999999 1.1 0.6
v 1.2 0.9 0.7
v 1.1 0.9 0.7
v 0.1 0.9 0.7
v 1.19209e-07 0.9 0.7
v 1.2 0.9 0.6
v 1.1 0.9 0.6
v 0.1 0.9 0.6
v 1.19209e-07 0.9 0.6
v 1.1 0.8 0.7
v 1 0.8 0.7
v 0.2 0.8 0.7
v 0.1 0.8 0.7
v 1.1 0.8 0.6
v 1 0.8 0.6
v 0.2 0.8 0.6
v 0.1 0.8 0.6
v 1 0.7 0.7
v 0.8 0.7 0.7
v 0.4 0.7 0.7
v 0.2 0.7 0.7
v 1 0.7 0.6
v 0.8 0.7 0.6
v 0.4 0.7 0.6
v 0.2 0.7 0.6
v 0.8 0.6 0.7
v 0.4 0.6 0.7
v 0.8 0.6 0.6
v 0.4 0.6 0.6
v 1.3 2.3 0.7
v 1.3 2.3 0.6
v 1.3 1.1 0.7
v 1.3 1.1 0.6
v 1.2 2.5 0.7
v 1.2 2.5 0.6
v 1.2 2.3 0.7
v 1.2 2.3 0.6
v 1.2 1.1 0.7
v 1.2 1.1 0.6
v 1.2 0.9 0.7
v 1.2 0.9 0.6
v 1.1 2.6 0.7
v 1.1 2.6 0.6
v 1.1 2.5 0.7
v 1.1 2.5 0.6
v 1.1 0.9 0.7
v 1.1 0.9 0.6
v 1.1 0.8 0.7
v 1.1 0.8 0.6
v 1 2.7 0.7
v 1 2.7 0.6
v 1 2.6 0.7
v 1 2.6 0.6
v 1 0.8 0.7
v 1 0.8 0.6
v 1 0.7 0.7
v 1 0.7 0.6
v 0.8 2.8 0.7
v 0.8 2.8 0.6
v 0.8 2.7 0.7
v 0.8 2.7 0.6
v 0.8 0.7 0.7
v 0.8 0.7 0.6
v 0.8 0.6 0.7
v 0.8 0.6 0.6
v 0.7 1.8 0.8
v 0.7 1.8 0.7
v 0.7 1.6 0.8
v 0.7 1.6 0.7
v 0.5 1.8 0.7
v 0.5 1.8 0.6
v 0.5 1.6 0.7
v 0.5 1.6 0.6
v 0.7 1.8 0.7
v 0.7 1.8 0.6
v 0.7 1.6 0.7
v 0.7 1.6 0.6
v 0.5 1.8 0.8
v 0.5 1.8 0.7
v 0.5 1.6 0.8
v 0.5 1.6 0.7
v 0.4 2.8 0.7
v 0.4 2.8 0.6
v 0.4 2.7 0.7
v 0.4 2.7 0.6
v 0.4 0.7 0.7
v 0.4 0.7 0.6
v 0.4 0.6 0.7
v 0.4 0.6 0.6
v 0.2 2.7 0.7
v 0.2 2.7 0.6
v 0.2 2.6 0.7
v 0.2 2.6 0.6
v 0.2 0.8 0.7
v 0.2 0.8 0.6
v 0.2 0.7 0.7
v 0.2 0.7 0.6
v 0.1 2.6 0.7
v 0.1 2.6 0.6
v 0.1 2.5 0.7
v 0.1 2.5 0.6
v 0.1 0.9 0.7
v 0.1 0.9 0.6
v 0.1 0.8 0.7
v 0.1 0.8 0.6
v 1.19209e-07 2.5 0.7
v 1.19209e-07 2.5 0.6
v 1.19209e-07 2.3 0.7
v 1.19209e-07 2.3 0.6
v 1.19209e-07 1.1 0.7
v 1.19209e-07 1.1 0.6
v 1.19209e-07 0.9 0.7
v 1.19209e-07 0.9 0.6
v -0.0999999 2.3 0.7
v -0.0999999 2.3 0.6
v -0.0999999 1.1 0.7
v -0.0999999 1.1 0.6
v 0.7 1.8 0.8
v 0.7 1.6 0.8
v 0.5 1.8 0.8
v 0.5 1.6 0.8
v 1.3 2.3 0.7
v 1.3 1.1 0.7
v 1.2 2.5 0.7
v 1.2 2.3 0.7
v 1.2 2.2 0.7
v 1.2 1.2 0.7
v 1.2 1.1 0.7
v 1.2 0.9 0.7
v 1.1 2.6 0.7
v 1.1 2.5 0.7
v 1.1 2.4 0.7
v 1.1 2.2 0.7
v 1.1 1.2 0.7
v 1.1 1 0.7
v 1.1 0.9 0.7
v 1.1 0.8 0.7
v 1 2.7 0.7
v 1 2.6 0.7
v 1 2.5 0.7
v 1 2.4 0.7
v 1 1 0.7
v 1 0.9 0.7
v 1 0.8 0.7
v 1 0.7 0.7
v 0.9 2.6 0.7
v 0.9 2.5 0.7
v 0.9 0.9 0.7
v 0.9 0.8 0.7
v 0.8 2.8 0.7
v 0.8 2.7 0.7
v 0.8 0.7 0.7
v 0.8 0.6 0.7
v 0.7 2.7 0.7
v 0.7 2.6 0.7
v 0.7 1.8 0.7
v 0.7 1.6 0.7
v 0.7 0.8 0.7
v 0.7 0.7 0.7
v 0.5 2.7 0.7
v 0.5 2.6 0.7
v 0.5 1.8 0.7
v 0.5 1.6 0.7
v 0.5 0.8 0.7
v 0.5 0.7 0.7
v 0.4 2.8 0.7
v 0.4 2.7 0.7
v 0.4 0.7 0.7
v 0.4 0.6 0.7
v 0.3 2.6 0.7
v 0.3 2.5 0.7
v 0.3 0.9 0.7
v 0.3 0.8 0.7
v 0.2 2.7 0.7
v 0.2 2.6 0.7
v 0.2 2.5 0.7
v 0.2 2.4 0.7
v 0.2 1 0.7
v 0.2 0.9 0.7
v 0.2 0.8 0.7
v 0.2 0.7 0.7
v 0.1 2.6 0.7
v 0.1 2.5 0.7
v 0.1 2.4 0.7
v 0.1 2.2 0.7
v 0.1 1.2 0.7
v 0.1 1 0.7
v 0.1 0.9 0.7
v 0.1 0.8 0.7
v 1.19209e-07 2.5 0.7
v 1.19209e-07 2.3 0.7
v 1.19209e-07 2.2 0.7
v 1.19209e-07 1.2 0.7
v 1.19209e-07 1.1 0.7
v 1.19209e-07 0.9 0.7
v -0.0999999 2.3 0.7
v -0.0999999 1.1 0.7
v 0.7 1.8 0.7
v 0.7 1.6 0.7
v 0.5 1.8 0.7
v 0.5 1.6 0.7
v 1.3 2.3 0.6
v 1.3 1.1 0.6
v 1.2 2.5 0.6
v 1.2 2.3 0.6
v 1.2 2.2 0.6
v 1.2 1.2 0.6
v 1.2 1.1 0.6
v 1.2 0.9 0.6
v 1.1 2.6 0.6
v 1.1 2.5 0.6
v 1.1 2.4 0.6
v 1.1 2.2 0.6
v 1.1 1.2 0.6
v 1.1 1 0.6
v 1.1 0.9 0.6
v 1.1 0.8 0.6
v 1 2.7 0.6
v 1 2.6 0.6
v 1 2.5 0.6
v 1 2.4 0.6
v 1 1 0.6
v 1 0.9 0.6
v 1 0.8 0.6
v 1 0.7 0.6
v 0.9 2.6 0.6
v 0.9 2.5 0.6
v 0.9 0.9 0.6
v 0.9 0.8 0.6
v 0.8 2.8 0.6
v 0.8 2.7 0.6
v 0.8 0.7 0.6
v 0.8 0.6 0.6
v 0.7 2.7 0.6
v 0.7 2.6 0.6
v 0.7 1.8 0.6
v 0.7 1.6 0.6
v 0.7 0.8 0.6
v 0.7 0.7 0.6
v 0.5 2.7 0.6
v 0.5 2.6 0.6
v 0.5 1.8 0.6
v 0.5 1.6 0.6
v 0.5 0.8 0.6
v 0.5 0.7 0.6
v 0.4 2.8 0.6
v 0.4 2.7 0.6
v 0.4 0.7 0.6
v 0.4 0.6 0.6
v 0.3 2.6 0.6
v 0.3 2.5 0.6
v 0.3 0.9 0.6
v 0.3 0.8 0.6
v 0.2 2.7 0.6
v 0.2 2.6 0.6
v 0.2 2.5 0.6
v 0.2 2.4 0.6
v 0.2 1 0.6
v 0.2 0.9 0.6
v 0.2 0.8 0.6
v 0.2 0.7 0.6
v 0.1 2.6 0.6
v 0.1 2.5 0.6
v 0.1 2.4 0.6
v 0.1 2.2 0.6
v 0.1 1.2 0.6
v 0.1 1 0.6
v 0.1 0.9 0.6
v 0.1 0.8 0.6
v 1.19209e-07 2.5 0.6
v 1.19209e-07 2.3 0.6
v 1.19209e-07 2.2 0.6
v 1.19209e-07 1.2 0.6
v 1.19209e-07 1.1 0.6
v 1.19209e-07 0.9 0.6
v -0.0999999 2.3 0.6
v -0.0999999 1.1 0.6

# faces
f 3/1/1 2/1/1 1/1/1
f 4/1/1 2/1/1 3/1/1
f 9/1/1 6/1/1 5/1/1
f 10/1/1 6/1/1 9/1/1
f 11/1/1 8/1/1 7/1/1
f 12/1/1 8/1/1 11/1/1
f 17/1/1 14/1/1 13/1/1
f 18/1/1 14/1/1 17/1/1
f 19/1/1 16/1/1 15/1/1
f 20/1/1 16/1/1 19/1/1
f 25/1/1 22/1/1 21/1/1
f 26/1/1 22/1/1 25/1/1
f 27/1/1 24/1/1 23/1/1
f 28/1/1 24/1/1 27/1/1
f 33/1/1 30/1/1 29/1/1
f 34/1/1 30/1/1 33/1/1
f 35/1/1 32/1/1 31/1/1
f 36/1/1 32/1/1 35/1/1
f 39/3/1 38/3/1 37/3/1
f 40/3/1 38/3/1 39/3/1
f 43/2/1 42/2/1 41/2/1
f 44/2/1 42/2/1 43/2/1
f 45/2/2 46/2/2 47/2/2
f 47/2/2 46/2/2 48/2/2
f 49/3/2 50/3/2 51/3/2
f 51/3/2 50/3/2 52/3/2
f 53/1/2 54/1/2 57/1/2
f 57/1/2 54/1/2 58/1/2
f 55/1/2 56/1/2 59/1/2
f 59/1/2 56/1/2 60/1/2
f 61/1/2 62/1/2 65/1/2
f 65/1/2 62/1/2 66/1/2
f 63/1/2 64/1/2 67/1/2
f 67/1/2 64/1/2 68/1/2
f 69/1/2 70/1/2 73/1/2
f 73/1/2 70/1/2 74/1/2
f 71/1/2 72/1/2 75/1/2
f 75/1/2 72/1/2 76/1/2
f 77/1/2 78/1/2 81/1/2
f 81/1/2 78/1/2 82/1/2
f 79/1/2 80/1/2 83/1/2
f 83/1/2 80/1/2 84/1/2
f 85/1/2 86/1/2 87/1/2
f 87/1/2 86/1/2 88/1/2
f 91/1/3 90/1/3 89/1/3
f 92/1/3 90/1/3 91/1/3
f 95/1/3 94/1/3 93/1/3
f 96/1/3 94/1/3 95/1/3
f 99/1/3 98/1/3 97/1/3
f 100/1/3 98/1/3 99/1/3
f 103/1/3 102/1/3 101/1/3
f 104/1/3 102/1/3 103/1/3
f 107/1/3 106/1/3 105/1/3
f 108/1/3 106/1/3 107/1/3
f 111/1/3 110/1/3 109/1/3
f 112/1/3 110/1/3 111/1/3
f 115/1/3 114/1/3 113/1/3
f 116/1/3 114/1/3 115/1/3
f 119/1/3 118/1/3 117/1/3
f 120/1/3 118/1/3 119/1/3
f 123/1/3 122/1/3 121/1/3
f 124/1/3 122/1/3 123/1/3
f 127/3/3 126/3/3 125/3/3
f 128/3/3 126/3/3 127/3/3
f 131/2/3 130/2/3 129/2/3
f 132/2/3 130/2/3 131/2/3
f 133/2/4 134/2/4 135/2/4
f 135/2/4 134/2/4 136/2/4
f 137/3/4 138/3/4 139/3/4
f 139/3/4 138/3/4 140/3/4
f 141/1/4 142/1/4 143/1/4
f 143/1/4 142/1/4 144/1/4
f 145/1/4 146/1/4 147/1/4
f 147/1/4 146/1/4 148/1/4
f 149/1/4 150/1/4 151/1/4
f 151/1/4 150/1/4 152/1/4
f 153/1/4 154/1/4 155/1/4
f 155/1/4 154/1/4 156/1/4
f 157/1/4 158/1/4 159/1/4
f 159/1/4 158/1/4 160/1/4
f 161/1/4 162/1/4 163/1/4
f 163/1/4 162/1/4 164/1/4
f 165/1/4 166/1/4 167/1/4
f 167/1/4 166/1/4 168/1/4
f 169/1/4 170/1/4 171/1/4
f 171/1/4 170/1/4 172/1/4
f 173/1/4 174/1/4 175/1/4
f 175/1/4 174/1/4 176/1/4
f 179/3/5 178/3/5 177/3/5
f 180/3/5 178/3/5 179/3/5
f 184/1/5 182/1/5 181/1/5
f 185/1/5 182/1/5 184/1/5
f 186/1/5 182/1/5 185/1/5
f 187/1/5 182/1/5 186/1/5
f 190/1/5 184/1/5 183/1/5
f 190/1/5 185/1/5 184/1/5
f 191/1/5 185/1/5 190/1/5
f 192/2/5 186/2/5 185/2/5
f 192/1/5 185/1/5 191/1/5
f 193/1/5 188/1/5 187/1/5
f 193/2/5 186/2/5 192/2/5
f 193/1/5 187/1/5 186/1/5
f 194/1/5 188/1/5 193/1/5
f 195/1/5 188/1/5 194/1/5
f 198/1/5 190/1/5 189/1/5
f 198/1/5 191/1/5 190/1/5
f 199/1/5 191/1/5 198/1/5
f 200/2/5 192/2/5 191/2/5
f 200/1/5 191/1/5 199/1/5
f 200/2/5 193/2/5 192/2/5
f 200/2/5 194/2/5 193/2/5
f 201/1/5 196/1/5 195/1/5
f 201/2/5 194/2/5 200/2/5
f 201/1/5 195/1/5 194/1/5
f 202/1/5 196/1/5 201/1/5
f 203/1/5 196/1/5 202/1/5
f 205/1/5 199/1/5 198/1/5
f 205/1/5 198/1/5 197/1/5
f 206/2/5 200/2/5 199/2/5
f 206/1/5 199/1/5 205/1/5
f 206/2/5 201/2/5 200/2/5
f 206/2/5 202/2/5 201/2/5
f 207/1/5 204/1/5 203/1/5
f 207/2/5 202/2/5 206/2/5
f 207/1/5 203/1/5 202/1/5
f 208/1/5 204/1/5 207/1/5
f 210/1/5 205/1/5 197/1/5
f 211/1/5 204/1/5 208/1/5
f 213/1/5 210/1/5 209/1/5
f 213/1/5 205/1/5 210/1/5
f 214/2/5 206/2/5 205/2/5
f 214/1/5 205/1/5 213/1/5
f 214/2/5 207/2/5 206/2/5
f 214/2/5 208/2/5 207/2/5
f 215/2/5 208/2/5 214/2/5
f 216/2/5 208/2/5 215/2/5
f 217/1/5 212/1/5 211/1/5
f 217/2/5 208/2/5 216/2/5
f 217/1/5 211/1/5 208/1/5
f 218/1/5 212/1/5 217/1/5
f 219/1/5 213/1/5 209/1/5
f 219/2/5 215/2/5 214/2/5
f 219/2/5 214/2/5 213/2/5
f 220/2/5 215/2/5 219/2/5
f 221/2/5 215/2/5 220/2/5
f 222/2/5 218/2/5 217/2/5
f 222/2/5 217/2/5 216/2/5
f 223/2/5 218/2/5 222/2/5
f 224/1/5 212/1/5 218/1/5
f 224/2/5 218/2/5 223/2/5
f 225/1/5 220/1/5 219/1/5
f 225/1/5 219/1/5 209/1/5
f 226/1/5 220/1/5 225/1/5
f 227/1/5 212/1/5 224/1/5
f 227/1/5 224/1/5 223/1/5
f 228/1/5 212/1/5 227/1/5
f 229/2/5 223/2/5 222/2/5
f 229/2/5 221/2/5 220/2/5
f 229/1/5 220/1/5 226/1/5
f 229/2/5 222/2/5 221/2/5
f 230/2/5 223/2/5 229/2/5
f 231/2/5 223/2/5 230/2/5
f 232/1/5 227/1/5 223/1/5
f 232/2/5 223/2/5 231/2/5
f 233/1/5 229/1/5 226/1/5
f 233/1/5 230/1/5 229/1/5
f 234/1/5 230/1/5 233/1/5
f 235/2/5 231/2/5 230/2/5
f 235/1/5 230/1/5 234/1/5
f 236/2/5 231/2/5 235/2/5
f 237/2/5 231/2/5 236/2/5
f 238/1/5 232/1/5 231/1/5
f 238/2/5 231/2/5 237/2/5
f 239/1/5 227/1/5 232/1/5
f 239/1/5 232/1/5 238/1/5
f 240/1/5 227/1/5 239/1/5
f 241/1/5 235/1/5 234/1/5
f 241/1/5 236/1/5 235/1/5
f 242/1/5 236/1/5 241/1/5
f 243/2/5 237/2/5 236/2/5
f 243/1/5 236/1/5 242/1/5
f 244/2/5 237/2/5 243/2/5
f 245/2/5 237/2/5 244/2/5
f 246/1/5 238/1/5 237/1/5
f 246/2/5 237/2/5 245/2/5
f 246/1/5 239/1/5 238/1/5
f 247/1/5 239/1/5 246/1/5
f 248/1/5 239/1/5 247/1/5
f 249/1/5 244/1/5 243/1/5
f 249/1/5 243/1/5 242/1/5
f 250/1/5 244/1/5 249/1/5
f 251/2/5 245/2/5 244/2/5
f 251/1/5 244/1/5 250/1/5
f 252/1/5 247/1/5 246/1/5
f 252/2/5 245/2/5 251/2/5
f 252/1/5 246/1/5 245/1/5
f 253/1/5 247/1/5 252/1/5
f 254/1/5 247/1/5 253/1/5
f 255/1/5 251/1/5 250/1/5
f 255/1/5 253/1/5 252/1/5
f 255/1/5 252/1/5 251/1/5
f 256/1/5 253/1/5 255/1/5
f 257/3/6 258/3/6 259/3/6
f 259/3/6 258/3/6 260/3/6
f 261/1/6 262/1/6 264/1/6
f 264/1/6 262/1/6 265/1/6
f 265/1/6 262/1/6 266/1/6
f 266/1/6 262/1/6 267/1/6
f 263/1/6 264/1/6 270/1/6
f 264/1/6 265/1/6 270/1/6
f 270/1/6 265/1/6 271/1/6
f 265/2/6 266/2/6 272/2/6
f 271/1/6 265/1/6 272/1/6
f 267/1/6 268/1/6 273/1/6
f 272/2/6 266/2/6 273/2/6
f 266/1/6 267/1/6 273/1/6
f 273/1/6 268/1/6 274/1/6
f 274/1/6 268/1/6 275/1/6
f 269/1/6 270/1/6 278/1/6
f 270/1/6 271/1/6 278/1/6
f 278/1/6 271/1/6 279/1/6
f 271/2/6 272/2/6 280/2/6
f 279/1/6 271/1/6 280/1/6
f 272/2/6 273/2/6 280/2/6
f 273/2/6 274/2/6 280/2/6
f 275/1/6 276/1/6 281/1/6
f 280/2/6 274/2/6 281/2/6
f 274/1/6 275/1/6 281/1/6
f 281/1/6 276/1/6 282/1/6
f 282/1/6 276/1/6 283/1/6
f 278/1/6 279/1/6 285/1/6
f 277/1/6 278/1/6 285/1/6
f 279/2/6 280/2/6 286/2/6
f 285/1/6 279/1/6 286/1/6
f 280/2/6 281/2/6 286/2/6
f 281/2/6 282/2/6 286/2/6
f 283/1/6 284/1/6 287/1/6
f 286/2/6 282/2/6 287/2/6
f 282/1/6 283/1/6 287/1/6
f 287/1/6 284/1/6 288/1/6
f 277/1/6 285/1/6 290/1/6
f 288/1/6 284/1/6 291/1/6
f 289/1/6 290/1/6 293/1/6
f 290/1/6 285/1/6 293/1/6
f 285/2/6 286/2/6 294/2/6
f 293/1/6 285/1/6 294/1/6
f 286/2/6 287/2/6 294/2/6
f 287/2/6 288/2/6 294/2/6
f 294/2/6 288/2/6 295/2/6
f 295/2/6 288/2/6 296/2/6
f 291/1/6 292/1/6 297/1/6
f 296/2/6 288/2/6 297/2/6
f 288/1/6 291/1/6 297/1/6
f 297/1/6 292/1/6 298/1/6
f 289/1/6 293/1/6 299/1/6
f 294/2/6 295/2/6 299/2/6
f 293/2/6 294/2/6 299/2/6
f 299/2/6 295/2/6 300/2/6
f 300/2/6 295/2/6 301/2/6
f 297/2/6 298/2/6 302/2/6
f 296/2/6 297/2/6 302/2/6
f 302/2/6 298/2/6 303/2/6
f 298/1/6 292/1/6 304/1/6
f 303/2/6 298/2/6 304/2/6
f 299/1/6 300/1/6 305/1/6
f 289/1/6 299/1/6 305/1/6
f 305/1/6 300/1/6 306/1/6
f 304/1/6 292/1/6 307/1/6
f 303/1/6 304/1/6 307/1/6
f 307/1/6 292/1/6 308/1/6
f 302/2/6 303/2/6 309/2/6
f 300/2/6 301/2/6 309/2/6
f 306/1/6 300/1/6 309/1/6
f 301/2/6 302/2/6 309/2/6
f 309/2/6 303/2/6 310/2/6
f 310/2/6 303/2/6 311/2/6
f 303/1/6 307/1/6 312/1/6
f 311/2/6 303/2/6 312/2/6
f 306/1/6 309/1/6 313/1/6
f 309/1/6 310/1/6 313/1/6
f 313/1/6 310/1/6 314/1/6
f 310/2/6 311/2/6 315/2/6
f 314/1/6 310/1/6 315/1/6
f 315/2/6 311/2/6 316/2/6
f 316/2/6 311/2/6 317/2/6
f 311/1/6 312/1/6 318/1/6
f 317/2/6 311/2/6 318/2/6
f 312/1/6 307/1/6 319/1/6
f 318/1/6 312/1/6 319/1/6
f 319/1/6 307/1/6 320/1/6
f 314/1/6 315/1/6 321/1/6
f 315/1/6 316/1/6 321/1/6
f 321/1/6 316/1/6 322/1/6
f 316/2/6 317/2/6 323/2/6
f 322/1/6 316/1/6 323/1/6
f 323/2/6 317/2/6 324/2/6
f 324/2/6 317/2/6 325/2/6
f 317/1/6 318/1/6 326/1/6
f 325/2/6 317/2/6 326/2/6
f 318/1/6 319/1/6 326/1/6
f 326/1/6 319/1/6 327/1/6
f 327/1/6 319/1/6 328/1/6
f 323/1/6 324/1/6 329/1/6
f 322/1/6 323/1/6 329/1/6
f 329/1/6 324/1/6 330/1/6
f 324/2/6 325/2/6 331/2/6
f 330/1/6 324/1/6 331/1/6
f 326/1/6 327/1/6 332/1/6
f 331/2/6 325/2/6 332/2/6
f 325/1/6 326/1/6 332/1/6
f 332/1/6 327/1/6 333/1/6
f 333/1/6 327/1/6 334/1/6
f 330/1/6 331/1/6 335/1/6
f 332/1/6 333/1/6 335/1/6
f 331/1/6 332/1/6 335/1/6
f 335/1/6 333/1/6 336/1/6
