# MagicaVoxel @ Ephtracy

# group
o head_undercut

# material
mtllib character-278-head_undercut.mtl
usemtl palette

# normals
vn -1 0 0
vn 1 0 0
vn 0 0 1
vn 0 0 -1
vn 0 -1 0
vn 0 1 0

# texcoords
vt 0.615234 0.5
vt 0.884766 0.5
vt 0.892578 0.5

# verts
v -0.2 2.8 0.2
v -0.2 2.8 -0.1
v -0.2 2.9 0.2
v -0.2 2.9 0.1
v -0.2 2.9 -0.1
v -0.2 2.9 -0.2
v -0.2 3 0.3
v -0.2 3 0.2
v -0.2 3 0.1
v -0.2 3.1 0.3
v -0.2 3.1 0.2
v -0.2 3.2 0.2
v -0.2 3.2 -0.2
v -0.1 2.6 0.1
v -0.1 2.6 -0.1
v -0.1 2.7 0.2
v -0.1 2.7 0.1
v -0.1 2.8 0.3
v -0.1 2.8 0.2
v -0.1 2.8 -0.1
v -0.1 2.9 0.2
v -0.1 3 0.3
v -0.1 3 0.2
v -0.1 3.2 0.2
v -0.1 3.2 -0.2
v -0.1 3.3 0.2
v -0.1 3.3 -0.2
v 0.1 2.6 0.1
v 0.1 2.6 -0.1
v 0.1 2.7 0.2
v 0.1 2.7 0.1
v 0.1 2.8 0.3
v 0.1 2.8 0.2
v 0.1 2.8 -0.1
v 0.1 2.9 0.2
v 0.1 3 0.3
v 0.1 3 0.2
v 0.1 3.2 0.2
v 0.1 3.2 -0.2
v 0.1 3.3 0.2
v 0.1 3.3 -0.2
v 0.2 2.8 0.2
v 0.2 2.8 -0.1
v 0.2 2.9 0.2
v 0.2 2.9 0.1
v 0.2 2.9 -0.1
v 0.2 2.9 -0.2
v 0.2 3 0.3
v 0.2 3 0.2
v 0.2 3 0.1
v 0.2 3.1 0.3
v 0.2 3.1 0.2
v 0.2 3.2 0.2
v 0.2 3.2 -0.2
v -0.2 3 0.3
v -0.2 3.1 0.3
v -0.1 2.8 0.3
v -0.1 3 0.3
v -0.1 3.1 0.3
v 0.1 2.8 0.3
v 0.1 3 0.3
v 0.1 3.1 0.3
v 0.2 3 0.3
v 0.2 3.1 0.3
v -0.2 2.8 0.2
v -0.2 2.9 0.2
v -0.2 3 0.2
v -0.2 3.1 0.2
v -0.2 3.2 0.2
v -0.1 2.7 0.2
v -0.1 2.8 0.2
v -0.1 2.9 0.2
v -0.1 3 0.2
v -0.1 3.1 0.2
v -0.1 3.2 0.2
v -0.1 3.3 0.2
v 0.1 2.7 0.2
v 0.1 2.8 0.2
v 0.1 2.9 0.2
v 0.1 3 0.2
v 0.1 3.1 0.2
v 0.1 3.2 0.2
v 0.1 3.3 0.2
v 0.2 2.8 0.2
v 0.2 2.9 0.2
v 0.2 3 0.2
v 0.2 3.1 0.2
v 0.2 3.2 0.2
v -0.1 2.6 0.1
v -0.1 2.7 0.1
v 0.1 2.6 0.1
v 0.1 2.7 0.1
v -0.2 2.8 -0.1
v -0.2 2.9 -0.1
v -0.1 2.6 -0.1
v -0.1 2.8 -0.1
v 0.1 2.6 -0.1
v 0.1 2.8 -0.1
v 0.2 2.8 -0.1
v 0.2 2.9 -0.1
v -0.2 2.9 -0.2
v -0.2 3.2 -0.2
v -0.1 3.2 -0.2
v -0.1 3.3 -0.2
v 0.1 3.2 -0.2
v 0.1 3.3 -0.2
v 0.2 2.9 -0.2
v 0.2 3.2 -0.2
v -0.1 2.6 0.1
v 0.1 2.6 0.1
v -0.1 2.6 -0.1
v 0.1 2.6 -0.1
v -0.1 2.7 0.2
v 0.1 2.7 0.2
v -0.1 2.7 0.1
v 0.1 2.7 0.1
v -0.1 2.8 0.3
v 0.1 2.8 0.3
v -0.2 2.8 0.2
v -0.1 2.8 0.2
v 0.1 2.8 0.2
v 0.2 2.8 0.2
v -0.2 2.8 -0.1
v -0.1 2.8 -0.1
v 0.1 2.8 -0.1
v 0.2 2.8 -0.1
v -0.2 2.9 -0.1
v 0.2 2.9 -0.1
v -0.2 2.9 -0.2
v 0.2 2.9 -0.2
v -0.2 3 0.3
v -0.1 3 0.3
v 0.1 3 0.3
v 0.2 3 0.3
v -0.2 3 0.2
v -0.1 3 0.2
v 0.1 3 0.2
v 0.2 3 0.2
v -0.2 3.1 0.3
v -0.1 3.1 0.3
v 0.1 3.1 0.3
v 0.2 3.1 0.3
v -0.2 3.1 0.2
v -0.1 3.1 0.2
v 0.1 3.1 0.2
v 0.2 3.1 0.2
v -0.2 3.2 0.2
v -0.1 3.2 0.2
v 0.1 3.2 0.2
v 0.2 3.2 0.2
v -0.2 3.2 -0.2
v -0.1 3.2 -0.2
v 0.1 3.2 -0.2
v 0.2 3.2 -0.2
v -0.1 3.3 0.2
v 0.1 3.3 0.2
v -0.1 3.3 -0.2
v 0.1 3.3 -0.2

# faces
f 3/3/1 2/3/1 1/3/1
f 4/3/1 2/3/1 3/3/1
f 5/3/1 2/3/1 4/3/1
f 8/2/1 4/2/1 3/2/1
f 9/3/1 6/3/1 5/3/1
f 9/3/1 5/3/1 4/3/1
f 9/2/1 4/2/1 8/2/1
f 10/1/1 8/1/1 7/1/1
f 11/3/1 9/3/1 8/3/1
f 11/1/1 8/1/1 10/1/1
f 12/3/1 9/3/1 11/3/1
f 13/3/1 6/3/1 9/3/1
f 13/3/1 9/3/1 12/3/1
f 17/3/1 15/3/1 14/3/1
f 19/3/1 17/3/1 16/3/1
f 20/3/1 15/3/1 17/3/1
f 20/3/1 17/3/1 19/3/1
f 21/3/1 19/3/1 18/3/1
f 22/3/1 21/3/1 18/3/1
f 23/3/1 21/3/1 22/3/1
f 26/1/1 25/1/1 24/1/1
f 27/1/1 25/1/1 26/1/1
f 28/3/2 29/3/2 31/3/2
f 30/3/2 31/3/2 33/3/2
f 31/3/2 29/3/2 34/3/2
f 33/3/2 31/3/2 34/3/2
f 32/3/2 33/3/2 35/3/2
f 32/3/2 35/3/2 36/3/2
f 36/3/2 35/3/2 37/3/2
f 38/1/2 39/1/2 40/1/2
f 40/1/2 39/1/2 41/1/2
f 42/3/2 43/3/2 44/3/2
f 44/3/2 43/3/2 45/3/2
f 45/3/2 43/3/2 46/3/2
f 44/2/2 45/2/2 49/2/2
f 46/3/2 47/3/2 50/3/2
f 45/3/2 46/3/2 50/3/2
f 49/2/2 45/2/2 50/2/2
f 48/1/2 49/1/2 51/1/2
f 49/3/2 50/3/2 52/3/2
f 51/1/2 49/1/2 52/1/2
f 52/3/2 50/3/2 53/3/2
f 50/3/2 47/3/2 54/3/2
f 53/3/2 50/3/2 54/3/2
f 58/1/3 56/1/3 55/1/3
f 59/1/3 56/1/3 58/1/3
f 60/3/3 58/3/3 57/3/3
f 60/3/3 59/3/3 58/3/3
f 61/3/3 59/3/3 60/3/3
f 62/3/3 59/3/3 61/3/3
f 63/1/3 62/1/3 61/1/3
f 64/1/3 62/1/3 63/1/3
f 71/3/3 66/3/3 65/3/3
f 72/2/3 67/2/3 66/2/3
f 72/3/3 66/3/3 71/3/3
f 73/2/3 67/2/3 72/2/3
f 74/3/3 69/3/3 68/3/3
f 75/3/3 69/3/3 74/3/3
f 77/3/3 71/3/3 70/3/3
f 78/3/3 71/3/3 77/3/3
f 81/3/3 75/3/3 74/3/3
f 82/1/3 76/1/3 75/1/3
f 82/3/3 75/3/3 81/3/3
f 83/1/3 76/1/3 82/1/3
f 84/3/3 79/3/3 78/3/3
f 85/2/3 80/2/3 79/2/3
f 85/3/3 79/3/3 84/3/3
f 86/2/3 80/2/3 85/2/3
f 87/3/3 82/3/3 81/3/3
f 88/3/3 82/3/3 87/3/3
f 91/3/3 90/3/3 89/3/3
f 92/3/3 90/3/3 91/3/3
f 93/3/4 94/3/4 96/3/4
f 95/3/4 96/3/4 97/3/4
f 96/3/4 94/3/4 98/3/4
f 97/3/4 96/3/4 98/3/4
f 98/3/4 94/3/4 99/3/4
f 99/3/4 94/3/4 100/3/4
f 101/3/4 102/3/4 103/3/4
f 101/3/4 103/3/4 105/3/4
f 103/1/4 104/1/4 105/1/4
f 105/1/4 104/1/4 106/1/4
f 101/3/4 105/3/4 107/3/4
f 107/3/4 105/3/4 108/3/4
f 111/3/5 110/3/5 109/3/5
f 112/3/5 110/3/5 111/3/5
f 115/3/5 114/3/5 113/3/5
f 116/3/5 114/3/5 115/3/5
f 120/3/5 118/3/5 117/3/5
f 121/3/5 118/3/5 120/3/5
f 123/3/5 120/3/5 119/3/5
f 124/3/5 120/3/5 123/3/5
f 125/3/5 122/3/5 121/3/5
f 126/3/5 122/3/5 125/3/5
f 129/3/5 128/3/5 127/3/5
f 130/3/5 128/3/5 129/3/5
f 135/1/5 132/1/5 131/1/5
f 136/1/5 132/1/5 135/1/5
f 137/1/5 134/1/5 133/1/5
f 138/1/5 134/1/5 137/1/5
f 139/1/6 140/1/6 143/1/6
f 140/3/6 141/3/6 144/3/6
f 143/1/6 140/1/6 144/1/6
f 141/1/6 142/1/6 145/1/6
f 144/3/6 141/3/6 145/3/6
f 145/1/6 142/1/6 146/1/6
f 147/3/6 148/3/6 151/3/6
f 151/3/6 148/3/6 152/3/6
f 149/3/6 150/3/6 153/3/6
f 153/3/6 150/3/6 154/3/6
f 155/1/6 156/1/6 157/1/6
f 157/1/6 156/1/6 158/1/6
