# MagicaVoxel @ Ephtracy

# group
o shield_med_1_ja

# material
mtllib char-31-shield_med_1_ja.mtl
usemtl palette

# normals
vn 0 -1 0
vn 0 1 0
vn 0 0 1
vn 0 0 -1
vn 1 0 0
vn -1 0 0

# texcoords
vt 0.701172 0.5
vt 0.794922 0.5
vt 0.962891 0.5

# verts
v 0.9 0.9 0.7
v 0.9 0.9 0.6
v 0.3 0.9 0.7
v 0.3 0.9 0.6
v 1.1 1 0.7
v 1.1 1 0.6
v 0.9 1 0.7
v 0.9 1 0.6
v 0.3 1 0.7
v 0.3 1 0.6
v 0.1 1 0.7
v 0.1 1 0.6
v 1.2 1.1 0.7
v 1.2 1.1 0.6
v 1.1 1.1 0.7
v 1.1 1.1 0.6
v 0.1 1.1 0.7
v 0.1 1.1 0.6
v 0 1.1 0.7
v 0 1.1 0.6
v 1.3 1.2 0.7
v 1.3 1.2 0.6
v 1.2 1.2 0.7
v 1.2 1.2 0.6
v 0 1.2 0.7
v 0 1.2 0.6
v -0.1 1.2 0.7
v -0.1 1.2 0.6
v 1.4 1.4 0.7
v 1.4 1.4 0.6
v 1.3 1.4 0.7
v 1.3 1.4 0.6
v -0.1 1.4 0.7
v -0.1 1.4 0.6
v -0.2 1.4 0.7
v -0.2 1.4 0.6
v 0.7 1.6 0.8
v 0.7 1.6 0.7
v 0.5 1.6 0.8
v 0.5 1.6 0.7
v 0.7 1.8 0.7
v 0.7 1.8 0.6
v 0.5 1.8 0.7
v 0.5 1.8 0.6
v 0.7 1.6 0.7
v 0.7 1.6 0.6
v 0.5 1.6 0.7
v 0.5 1.6 0.6
v 0.7 1.8 0.8
v 0.7 1.8 0.7
v 0.5 1.8 0.8
v 0.5 1.8 0.7
v 1.4 2 0.7
v 1.4 2 0.6
v 1.3 2 0.7
v 1.3 2 0.6
v -0.1 2 0.7
v -0.1 2 0.6
v -0.2 2 0.7
v -0.2 2 0.6
v 1.3 2.2 0.7
v 1.3 2.2 0.6
v 1.2 2.2 0.7
v 1.2 2.2 0.6
v 0 2.2 0.7
v 0 2.2 0.6
v -0.1 2.2 0.7
v -0.1 2.2 0.6
v 1.2 2.3 0.7
v 1.2 2.3 0.6
v 1.1 2.3 0.7
v 1.1 2.3 0.6
v 0.1 2.3 0.7
v 0.1 2.3 0.6
v 0 2.3 0.7
v 0 2.3 0.6
v 1.1 2.4 0.7
v 1.1 2.4 0.6
v 0.9 2.4 0.7
v 0.9 2.4 0.6
v 0.3 2.4 0.7
v 0.3 2.4 0.6
v 0.1 2.4 0.7
v 0.1 2.4 0.6
v 0.9 2.5 0.7
v 0.9 2.5 0.6
v 0.3 2.5 0.7
v 0.3 2.5 0.6
v 0.7 1.6 0.8
v 0.5 1.6 0.8
v 0.7 1.8 0.8
v 0.5 1.8 0.8
v 0.9 0.9 0.7
v 0.3 0.9 0.7
v 1.1 1 0.7
v 0.9 1 0.7
v 0.8 1 0.7
v 0.4 1 0.7
v 0.3 1 0.7
v 0.1 1 0.7
v 1.2 1.1 0.7
v 1.1 1.1 0.7
v 1 1.1 0.7
v 0.8 1.1 0.7
v 0.4 1.1 0.7
v 0.2 1.1 0.7
v 0.1 1.1 0.7
v 0 1.1 0.7
v 1.3 1.2 0.7
v 1.2 1.2 0.7
v 1.1 1.2 0.7
v 1 1.2 0.7
v 0.2 1.2 0.7
v 0.1 1.2 0.7
v 0 1.2 0.7
v -0.1 1.2 0.7
v 1.2 1.3 0.7
v 1.1 1.3 0.7
v 0.1 1.3 0.7
v 0 1.3 0.7
v 1.4 1.4 0.7
v 1.3 1.4 0.7
v -0.1 1.4 0.7
v -0.2 1.4 0.7
v 1.3 1.5 0.7
v 1.2 1.5 0.7
v 0 1.5 0.7
v -0.1 1.5 0.7
v 0.7 1.6 0.7
v 0.5 1.6 0.7
v 0.7 1.8 0.7
v 0.5 1.8 0.7
v 1.3 1.9 0.7
v 1.2 1.9 0.7
v 0 1.9 0.7
v -0.1 1.9 0.7
v 1.4 2 0.7
v 1.3 2 0.7
v -0.1 2 0.7
v -0.2 2 0.7
v 1.2 2.1 0.7
v 1.1 2.1 0.7
v 0.1 2.1 0.7
v 0 2.1 0.7
v 1.3 2.2 0.7
v 1.2 2.2 0.7
v 1.1 2.2 0.7
v 1 2.2 0.7
v 0.2 2.2 0.7
v 0.1 2.2 0.7
v 0 2.2 0.7
v -0.1 2.2 0.7
v 1.2 2.3 0.7
v 1.1 2.3 0.7
v 1 2.3 0.7
v 0.8 2.3 0.7
v 0.4 2.3 0.7
v 0.2 2.3 0.7
v 0.1 2.3 0.7
v 0 2.3 0.7
v 1.1 2.4 0.7
v 0.9 2.4 0.7
v 0.8 2.4 0.7
v 0.4 2.4 0.7
v 0.3 2.4 0.7
v 0.1 2.4 0.7
v 0.9 2.5 0.7
v 0.3 2.5 0.7
v 0.7 1.6 0.7
v 0.5 1.6 0.7
v 0.7 1.8 0.7
v 0.5 1.8 0.7
v 0.9 0.9 0.6
v 0.3 0.9 0.6
v 1.1 1 0.6
v 0.9 1 0.6
v 0.8 1 0.6
v 0.4 1 0.6
v 0.3 1 0.6
v 0.1 1 0.6
v 1.2 1.1 0.6
v 1.1 1.1 0.6
v 1 1.1 0.6
v 0.8 1.1 0.6
v 0.4 1.1 0.6
v 0.2 1.1 0.6
v 0.1 1.1 0.6
v 0 1.1 0.6
v 1.3 1.2 0.6
v 1.2 1.2 0.6
v 1.1 1.2 0.6
v 1 1.2 0.6
v 0.2 1.2 0.6
v 0.1 1.2 0.6
v 0 1.2 0.6
v -0.1 1.2 0.6
v 1.2 1.3 0.6
v 1.1 1.3 0.6
v 0.1 1.3 0.6
v 0 1.3 0.6
v 1.4 1.4 0.6
v 1.3 1.4 0.6
v -0.1 1.4 0.6
v -0.2 1.4 0.6
v 1.3 1.5 0.6
v 1.2 1.5 0.6
v 0 1.5 0.6
v -0.1 1.5 0.6
v 0.7 1.6 0.6
v 0.5 1.6 0.6
v 0.7 1.8 0.6
v 0.5 1.8 0.6
v 1.3 1.9 0.6
v 1.2 1.9 0.6
v 0 1.9 0.6
v -0.1 1.9 0.6
v 1.4 2 0.6
v 1.3 2 0.6
v -0.1 2 0.6
v -0.2 2 0.6
v 1.2 2.1 0.6
v 1.1 2.1 0.6
v 0.1 2.1 0.6
v 0 2.1 0.6
v 1.3 2.2 0.6
v 1.2 2.2 0.6
v 1.1 2.2 0.6
v 1 2.2 0.6
v 0.2 2.2 0.6
v 0.1 2.2 0.6
v 0 2.2 0.6
v -0.1 2.2 0.6
v 1.2 2.3 0.6
v 1.1 2.3 0.6
v 1 2.3 0.6
v 0.8 2.3 0.6
v 0.4 2.3 0.6
v 0.2 2.3 0.6
v 0.1 2.3 0.6
v 0 2.3 0.6
v 1.1 2.4 0.6
v 0.9 2.4 0.6
v 0.8 2.4 0.6
v 0.4 2.4 0.6
v 0.3 2.4 0.6
v 0.1 2.4 0.6
v 0.9 2.5 0.6
v 0.3 2.5 0.6
v 1.4 1.4 0.7
v 1.4 2 0.7
v 1.4 1.4 0.6
v 1.4 2 0.6
v 1.3 1.2 0.7
v 1.3 1.4 0.7
v 1.3 2 0.7
v 1.3 2.2 0.7
v 1.3 1.2 0.6
v 1.3 1.4 0.6
v 1.3 2 0.6
v 1.3 2.2 0.6
v 1.2 1.1 0.7
v 1.2 1.2 0.7
v 1.2 2.2 0.7
v 1.2 2.3 0.7
v 1.2 1.1 0.6
v 1.2 1.2 0.6
v 1.2 2.2 0.6
v 1.2 2.3 0.6
v 1.1 1 0.7
v 1.1 1.1 0.7
v 1.1 2.3 0.7
v 1.1 2.4 0.7
v 1.1 1 0.6
v 1.1 1.1 0.6
v 1.1 2.3 0.6
v 1.1 2.4 0.6
v 0.9 0.9 0.7
v 0.9 1 0.7
v 0.9 2.4 0.7
v 0.9 2.5 0.7
v 0.9 0.9 0.6
v 0.9 1 0.6
v 0.9 2.4 0.6
v 0.9 2.5 0.6
v 0.7 1.6 0.8
v 0.7 1.8 0.8
v 0.7 1.6 0.7
v 0.7 1.8 0.7
v 0.5 1.6 0.7
v 0.5 1.8 0.7
v 0.5 1.6 0.6
v 0.5 1.8 0.6
v 0.7 1.6 0.7
v 0.7 1.8 0.7
v 0.7 1.6 0.6
v 0.7 1.8 0.6
v 0.5 1.6 0.8
v 0.5 1.8 0.8
v 0.5 1.6 0.7
v 0.5 1.8 0.7
v 0.3 0.9 0.7
v 0.3 1 0.7
v 0.3 2.4 0.7
v 0.3 2.5 0.7
v 0.3 0.9 0.6
v 0.3 1 0.6
v 0.3 2.4 0.6
v 0.3 2.5 0.6
v 0.1 1 0.7
v 0.1 1.1 0.7
v 0.1 2.3 0.7
v 0.1 2.4 0.7
v 0.1 1 0.6
v 0.1 1.1 0.6
v 0.1 2.3 0.6
v 0.1 2.4 0.6
v 0 1.1 0.7
v 0 1.2 0.7
v 0 2.2 0.7
v 0 2.3 0.7
v 0 1.1 0.6
v 0 1.2 0.6
v 0 2.2 0.6
v 0 2.3 0.6
v -0.1 1.2 0.7
v -0.1 1.4 0.7
v -0.1 2 0.7
v -0.1 2.2 0.7
v -0.1 1.2 0.6
v -0.1 1.4 0.6
v -0.1 2 0.6
v -0.1 2.2 0.6
v -0.2 1.4 0.7
v -0.2 2 0.7
v -0.2 1.4 0.6
v -0.2 2 0.6

# faces
f 3/1/1 2/1/1 1/1/1
f 4/1/1 2/1/1 3/1/1
f 7/1/1 6/1/1 5/1/1
f 8/1/1 6/1/1 7/1/1
f 11/1/1 10/1/1 9/1/1
f 12/1/1 10/1/1 11/1/1
f 15/1/1 14/1/1 13/1/1
f 16/1/1 14/1/1 15/1/1
f 19/1/1 18/1/1 17/1/1
f 20/1/1 18/1/1 19/1/1
f 23/1/1 22/1/1 21/1/1
f 24/1/1 22/1/1 23/1/1
f 27/1/1 26/1/1 25/1/1
f 28/1/1 26/1/1 27/1/1
f 31/1/1 30/1/1 29/1/1
f 32/1/1 30/1/1 31/1/1
f 35/1/1 34/1/1 33/1/1
f 36/1/1 34/1/1 35/1/1
f 39/3/1 38/3/1 37/3/1
f 40/3/1 38/3/1 39/3/1
f 43/2/1 42/2/1 41/2/1
f 44/2/1 42/2/1 43/2/1
f 45/2/2 46/2/2 47/2/2
f 47/2/2 46/2/2 48/2/2
f 49/3/2 50/3/2 51/3/2
f 51/3/2 50/3/2 52/3/2
f 53/1/2 54/1/2 55/1/2
f 55/1/2 54/1/2 56/1/2
f 57/1/2 58/1/2 59/1/2
f 59/1/2 58/1/2 60/1/2
f 61/1/2 62/1/2 63/1/2
f 63/1/2 62/1/2 64/1/2
f 65/1/2 66/1/2 67/1/2
f 67/1/2 66/1/2 68/1/2
f 69/1/2 70/1/2 71/1/2
f 71/1/2 70/1/2 72/1/2
f 73/1/2 74/1/2 75/1/2
f 75/1/2 74/1/2 76/1/2
f 77/1/2 78/1/2 79/1/2
f 79/1/2 78/1/2 80/1/2
f 81/1/2 82/1/2 83/1/2
f 83/1/2 82/1/2 84/1/2
f 85/1/2 86/1/2 87/1/2
f 87/1/2 86/1/2 88/1/2
f 91/3/3 90/3/3 89/3/3
f 92/3/3 90/3/3 91/3/3
f 96/1/3 94/1/3 93/1/3
f 97/1/3 94/1/3 96/1/3
f 98/1/3 94/1/3 97/1/3
f 99/1/3 94/1/3 98/1/3
f 102/1/3 96/1/3 95/1/3
f 102/1/3 97/1/3 96/1/3
f 103/1/3 97/1/3 102/1/3
f 104/2/3 98/2/3 97/2/3
f 104/1/3 97/1/3 103/1/3
f 105/1/3 100/1/3 99/1/3
f 105/2/3 98/2/3 104/2/3
f 105/1/3 99/1/3 98/1/3
f 106/1/3 100/1/3 105/1/3
f 107/1/3 100/1/3 106/1/3
f 110/1/3 102/1/3 101/1/3
f 110/1/3 103/1/3 102/1/3
f 111/1/3 103/1/3 110/1/3
f 112/2/3 104/2/3 103/2/3
f 112/1/3 103/1/3 111/1/3
f 112/2/3 105/2/3 104/2/3
f 112/2/3 106/2/3 105/2/3
f 113/1/3 108/1/3 107/1/3
f 113/2/3 106/2/3 112/2/3
f 113/1/3 107/1/3 106/1/3
f 114/1/3 108/1/3 113/1/3
f 115/1/3 108/1/3 114/1/3
f 117/1/3 111/1/3 110/1/3
f 117/1/3 110/1/3 109/1/3
f 118/2/3 112/2/3 111/2/3
f 118/1/3 111/1/3 117/1/3
f 118/2/3 113/2/3 112/2/3
f 118/2/3 114/2/3 113/2/3
f 119/1/3 116/1/3 115/1/3
f 119/2/3 114/2/3 118/2/3
f 119/1/3 115/1/3 114/1/3
f 120/1/3 116/1/3 119/1/3
f 122/1/3 117/1/3 109/1/3
f 123/1/3 116/1/3 120/1/3
f 125/1/3 122/1/3 121/1/3
f 125/1/3 117/1/3 122/1/3
f 126/2/3 118/2/3 117/2/3
f 126/1/3 117/1/3 125/1/3
f 126/2/3 119/2/3 118/2/3
f 126/2/3 120/2/3 119/2/3
f 127/1/3 124/1/3 123/1/3
f 127/2/3 120/2/3 126/2/3
f 127/1/3 123/1/3 120/1/3
f 128/1/3 124/1/3 127/1/3
f 129/2/3 126/2/3 125/2/3
f 129/2/3 127/2/3 126/2/3
f 129/2/3 128/2/3 127/2/3
f 130/2/3 128/2/3 129/2/3
f 131/2/3 129/2/3 125/2/3
f 132/2/3 128/2/3 130/2/3
f 133/1/3 125/1/3 121/1/3
f 133/2/3 132/2/3 131/2/3
f 133/2/3 131/2/3 125/2/3
f 134/2/3 132/2/3 133/2/3
f 135/2/3 128/2/3 132/2/3
f 135/2/3 132/2/3 134/2/3
f 136/1/3 124/1/3 128/1/3
f 136/2/3 128/2/3 135/2/3
f 137/1/3 134/1/3 133/1/3
f 137/1/3 133/1/3 121/1/3
f 138/1/3 134/1/3 137/1/3
f 139/1/3 124/1/3 136/1/3
f 139/1/3 136/1/3 135/1/3
f 140/1/3 124/1/3 139/1/3
f 141/1/3 134/1/3 138/1/3
f 141/2/3 135/2/3 134/2/3
f 142/2/3 135/2/3 141/2/3
f 143/2/3 135/2/3 142/2/3
f 144/1/3 139/1/3 135/1/3
f 144/2/3 135/2/3 143/2/3
f 145/1/3 141/1/3 138/1/3
f 145/1/3 142/1/3 141/1/3
f 146/1/3 142/1/3 145/1/3
f 147/2/3 143/2/3 142/2/3
f 147/1/3 142/1/3 146/1/3
f 148/2/3 143/2/3 147/2/3
f 149/2/3 143/2/3 148/2/3
f 150/1/3 144/1/3 143/1/3
f 150/2/3 143/2/3 149/2/3
f 151/1/3 139/1/3 144/1/3
f 151/1/3 144/1/3 150/1/3
f 152/1/3 139/1/3 151/1/3
f 153/1/3 147/1/3 146/1/3
f 153/1/3 148/1/3 147/1/3
f 154/1/3 148/1/3 153/1/3
f 155/2/3 149/2/3 148/2/3
f 155/1/3 148/1/3 154/1/3
f 156/2/3 149/2/3 155/2/3
f 157/2/3 149/2/3 156/2/3
f 158/1/3 150/1/3 149/1/3
f 158/2/3 149/2/3 157/2/3
f 158/1/3 151/1/3 150/1/3
f 159/1/3 151/1/3 158/1/3
f 160/1/3 151/1/3 159/1/3
f 161/1/3 156/1/3 155/1/3
f 161/1/3 155/1/3 154/1/3
f 162/1/3 156/1/3 161/1/3
f 163/2/3 157/2/3 156/2/3
f 163/1/3 156/1/3 162/1/3
f 164/1/3 159/1/3 158/1/3
f 164/2/3 157/2/3 163/2/3
f 164/1/3 158/1/3 157/1/3
f 165/1/3 159/1/3 164/1/3
f 166/1/3 159/1/3 165/1/3
f 167/1/3 163/1/3 162/1/3
f 167/1/3 165/1/3 164/1/3
f 167/1/3 164/1/3 163/1/3
f 168/1/3 165/1/3 167/1/3
f 169/3/4 170/3/4 171/3/4
f 171/3/4 170/3/4 172/3/4
f 173/1/4 174/1/4 176/1/4
f 176/1/4 174/1/4 177/1/4
f 177/1/4 174/1/4 178/1/4
f 178/1/4 174/1/4 179/1/4
f 175/1/4 176/1/4 182/1/4
f 176/1/4 177/1/4 182/1/4
f 182/1/4 177/1/4 183/1/4
f 177/2/4 178/2/4 184/2/4
f 183/1/4 177/1/4 184/1/4
f 179/1/4 180/1/4 185/1/4
f 184/2/4 178/2/4 185/2/4
f 178/1/4 179/1/4 185/1/4
f 185/1/4 180/1/4 186/1/4
f 186/1/4 180/1/4 187/1/4
f 181/1/4 182/1/4 190/1/4
f 182/1/4 183/1/4 190/1/4
f 190/1/4 183/1/4 191/1/4
f 183/2/4 184/2/4 192/2/4
f 191/1/4 183/1/4 192/1/4
f 184/2/4 185/2/4 192/2/4
f 185/2/4 186/2/4 192/2/4
f 187/1/4 188/1/4 193/1/4
f 192/2/4 186/2/4 193/2/4
f 186/1/4 187/1/4 193/1/4
f 193/1/4 188/1/4 194/1/4
f 194/1/4 188/1/4 195/1/4
f 190/1/4 191/1/4 197/1/4
f 189/1/4 190/1/4 197/1/4
f 191/2/4 192/2/4 198/2/4
f 197/1/4 191/1/4 198/1/4
f 192/2/4 193/2/4 198/2/4
f 193/2/4 194/2/4 198/2/4
f 195/1/4 196/1/4 199/1/4
f 198/2/4 194/2/4 199/2/4
f 194/1/4 195/1/4 199/1/4
f 199/1/4 196/1/4 200/1/4
f 189/1/4 197/1/4 202/1/4
f 200/1/4 196/1/4 203/1/4
f 201/1/4 202/1/4 205/1/4
f 202/1/4 197/1/4 205/1/4
f 197/2/4 198/2/4 206/2/4
f 205/1/4 197/1/4 206/1/4
f 198/2/4 199/2/4 206/2/4
f 199/2/4 200/2/4 206/2/4
f 203/1/4 204/1/4 207/1/4
f 206/2/4 200/2/4 207/2/4
f 200/1/4 203/1/4 207/1/4
f 207/1/4 204/1/4 208/1/4
f 205/2/4 206/2/4 209/2/4
f 206/2/4 207/2/4 209/2/4
f 207/2/4 208/2/4 209/2/4
f 209/2/4 208/2/4 210/2/4
f 205/2/4 209/2/4 211/2/4
f 210/2/4 208/2/4 212/2/4
f 201/1/4 205/1/4 213/1/4
f 211/2/4 212/2/4 213/2/4
f 205/2/4 211/2/4 213/2/4
f 213/2/4 212/2/4 214/2/4
f 212/2/4 208/2/4 215/2/4
f 214/2/4 212/2/4 215/2/4
f 208/1/4 204/1/4 216/1/4
f 215/2/4 208/2/4 216/2/4
f 213/1/4 214/1/4 217/1/4
f 201/1/4 213/1/4 217/1/4
f 217/1/4 214/1/4 218/1/4
f 216/1/4 204/1/4 219/1/4
f 215/1/4 216/1/4 219/1/4
f 219/1/4 204/1/4 220/1/4
f 218/1/4 214/1/4 221/1/4
f 214/2/4 215/2/4 221/2/4
f 221/2/4 215/2/4 222/2/4
f 222/2/4 215/2/4 223/2/4
f 215/1/4 219/1/4 224/1/4
f 223/2/4 215/2/4 224/2/4
f 218/1/4 221/1/4 225/1/4
f 221/1/4 222/1/4 225/1/4
f 225/1/4 222/1/4 226/1/4
f 222/2/4 223/2/4 227/2/4
f 226/1/4 222/1/4 227/1/4
f 227/2/4 223/2/4 228/2/4
f 228/2/4 223/2/4 229/2/4
f 223/1/4 224/1/4 230/1/4
f 229/2/4 223/2/4 230/2/4
f 224/1/4 219/1/4 231/1/4
f 230/1/4 224/1/4 231/1/4
f 231/1/4 219/1/4 232/1/4
f 226/1/4 227/1/4 233/1/4
f 227/1/4 228/1/4 233/1/4
f 233/1/4 228/1/4 234/1/4
f 228/2/4 229/2/4 235/2/4
f 234/1/4 228/1/4 235/1/4
f 235/2/4 229/2/4 236/2/4
f 236/2/4 229/2/4 237/2/4
f 229/1/4 230/1/4 238/1/4
f 237/2/4 229/2/4 238/2/4
f 230/1/4 231/1/4 238/1/4
f 238/1/4 231/1/4 239/1/4
f 239/1/4 231/1/4 240/1/4
f 235/1/4 236/1/4 241/1/4
f 234/1/4 235/1/4 241/1/4
f 241/1/4 236/1/4 242/1/4
f 236/2/4 237/2/4 243/2/4
f 242/1/4 236/1/4 243/1/4
f 238/1/4 239/1/4 244/1/4
f 243/2/4 237/2/4 244/2/4
f 237/1/4 238/1/4 244/1/4
f 244/1/4 239/1/4 245/1/4
f 245/1/4 239/1/4 246/1/4
f 242/1/4 243/1/4 247/1/4
f 244/1/4 245/1/4 247/1/4
f 243/1/4 244/1/4 247/1/4
f 247/1/4 245/1/4 248/1/4
f 251/1/5 250/1/5 249/1/5
f 252/1/5 250/1/5 251/1/5
f 257/1/5 254/1/5 253/1/5
f 258/1/5 254/1/5 257/1/5
f 259/1/5 256/1/5 255/1/5
f 260/1/5 256/1/5 259/1/5
f 265/1/5 262/1/5 261/1/5
f 266/1/5 262/1/5 265/1/5
f 267/1/5 264/1/5 263/1/5
f 268/1/5 264/1/5 267/1/5
f 273/1/5 270/1/5 269/1/5
f 274/1/5 270/1/5 273/1/5
f 275/1/5 272/1/5 271/1/5
f 276/1/5 272/1/5 275/1/5
f 281/1/5 278/1/5 277/1/5
f 282/1/5 278/1/5 281/1/5
f 283/1/5 280/1/5 279/1/5
f 284/1/5 280/1/5 283/1/5
f 287/3/5 286/3/5 285/3/5
f 288/3/5 286/3/5 287/3/5
f 291/2/5 290/2/5 289/2/5
f 292/2/5 290/2/5 291/2/5
f 293/2/6 294/2/6 295/2/6
f 295/2/6 294/2/6 296/2/6
f 297/3/6 298/3/6 299/3/6
f 299/3/6 298/3/6 300/3/6
f 301/1/6 302/1/6 305/1/6
f 305/1/6 302/1/6 306/1/6
f 303/1/6 304/1/6 307/1/6
f 307/1/6 304/1/6 308/1/6
f 309/1/6 310/1/6 313/1/6
f 313/1/6 310/1/6 314/1/6
f 311/1/6 312/1/6 315/1/6
f 315/1/6 312/1/6 316/1/6
f 317/1/6 318/1/6 321/1/6
f 321/1/6 318/1/6 322/1/6
f 319/1/6 320/1/6 323/1/6
f 323/1/6 320/1/6 324/1/6
f 325/1/6 326/1/6 329/1/6
f 329/1/6 326/1/6 330/1/6
f 327/1/6 328/1/6 331/1/6
f 331/1/6 328/1/6 332/1/6
f 333/1/6 334/1/6 335/1/6
f 335/1/6 334/1/6 336/1/6
