# MagicaVoxel @ Ephtracy

# group
o helm_lgt_3a_ja_color

# material
mtllib humanoid-217-helm_lgt_3a_ja_color.mtl
usemtl palette

# normals
vn -1 0 0
vn 1 0 0
vn 0 0 1
vn 0 0 -1
vn 0 -1 0
vn 0 1 0

# texcoords
vt 0.494141 0.5
vt 0.623047 0.5

# verts
v -0.3 3.1 0.2
v -0.3 3.1 -0.2
v -0.3 3.3 0.2
v -0.3 3.3 -0.2
v -0.2 3.1 0.3
v -0.2 3.1 0.2
v -0.2 3.1 -0.2
v -0.2 3.1 -0.3
v -0.2 3.3 0.3
v -0.2 3.3 0.2
v -0.2 3.3 -0.2
v -0.2 3.3 -0.3
v -0.2 3.4 0.2
v -0.2 3.4 -0.2
v 0.2 3.1 0.2
v 0.2 3.1 -0.2
v 0.2 3.2 0.2
v 0.2 3.2 -0.2
v -0.2 3.1 0.2
v -0.2 3.1 -0.2
v -0.2 3.2 0.2
v -0.2 3.2 -0.2
v 0.2 3.1 0.3
v 0.2 3.1 0.2
v 0.2 3.1 -0.2
v 0.2 3.1 -0.3
v 0.2 3.3 0.3
v 0.2 3.3 0.2
v 0.2 3.3 -0.2
v 0.2 3.3 -0.3
v 0.2 3.4 0.2
v 0.2 3.4 -0.2
v 0.3 3.1 0.2
v 0.3 3.1 -0.2
v 0.3 3.3 0.2
v 0.3 3.3 -0.2
v -0.2 3.1 0.3
v -0.2 3.3 0.3
v 0.2 3.1 0.3
v 0.2 3.3 0.3
v -0.3 3.1 0.2
v -0.3 3.3 0.2
v -0.2 3.1 0.2
v -0.2 3.3 0.2
v -0.2 3.4 0.2
v 0.2 3.1 0.2
v 0.2 3.3 0.2
v 0.2 3.4 0.2
v 0.3 3.1 0.2
v 0.3 3.3 0.2
v -0.2 3.1 -0.2
v -0.2 3.2 -0.2
v 0.2 3.1 -0.2
v 0.2 3.2 -0.2
v -0.2 3.1 0.2
v -0.2 3.2 0.2
v 0.2 3.1 0.2
v 0.2 3.2 0.2
v -0.3 3.1 -0.2
v -0.3 3.3 -0.2
v -0.2 3.1 -0.2
v -0.2 3.3 -0.2
v -0.2 3.4 -0.2
v 0.2 3.1 -0.2
v 0.2 3.3 -0.2
v 0.2 3.4 -0.2
v 0.3 3.1 -0.2
v 0.3 3.3 -0.2
v -0.2 3.1 -0.3
v -0.2 3.3 -0.3
v 0.2 3.1 -0.3
v 0.2 3.3 -0.3
v -0.2 3.1 0.3
v 0.2 3.1 0.3
v -0.3 3.1 0.2
v -0.2 3.1 0.2
v 0.2 3.1 0.2
v 0.3 3.1 0.2
v -0.3 3.1 -0.2
v -0.2 3.1 -0.2
v 0.2 3.1 -0.2
v 0.3 3.1 -0.2
v -0.2 3.1 -0.3
v 0.2 3.1 -0.3
v -0.2 3.2 0.2
v 0.2 3.2 0.2
v -0.2 3.2 -0.2
v 0.2 3.2 -0.2
v -0.2 3.3 0.3
v 0.2 3.3 0.3
v -0.3 3.3 0.2
v -0.2 3.3 0.2
v 0.2 3.3 0.2
v 0.3 3.3 0.2
v -0.3 3.3 -0.2
v -0.2 3.3 -0.2
v 0.2 3.3 -0.2
v 0.3 3.3 -0.2
v -0.2 3.3 -0.3
v 0.2 3.3 -0.3
v -0.2 3.4 0.2
v 0.2 3.4 0.2
v -0.2 3.4 -0.2
v 0.2 3.4 -0.2

# faces
f 3/2/1 2/2/1 1/2/1
f 4/2/1 2/2/1 3/2/1
f 9/2/1 6/2/1 5/2/1
f 10/2/1 6/2/1 9/2/1
f 11/2/1 8/2/1 7/2/1
f 12/2/1 8/2/1 11/2/1
f 13/1/1 11/1/1 10/1/1
f 14/1/1 11/1/1 13/1/1
f 17/2/1 16/2/1 15/2/1
f 18/2/1 16/2/1 17/2/1
f 19/2/2 20/2/2 21/2/2
f 21/2/2 20/2/2 22/2/2
f 23/2/2 24/2/2 27/2/2
f 27/2/2 24/2/2 28/2/2
f 25/2/2 26/2/2 29/2/2
f 29/2/2 26/2/2 30/2/2
f 28/1/2 29/1/2 31/1/2
f 31/1/2 29/1/2 32/1/2
f 33/2/2 34/2/2 35/2/2
f 35/2/2 34/2/2 36/2/2
f 39/2/3 38/2/3 37/2/3
f 40/2/3 38/2/3 39/2/3
f 43/2/3 42/2/3 41/2/3
f 44/2/3 42/2/3 43/2/3
f 47/1/3 45/1/3 44/1/3
f 48/1/3 45/1/3 47/1/3
f 49/2/3 47/2/3 46/2/3
f 50/2/3 47/2/3 49/2/3
f 53/2/3 52/2/3 51/2/3
f 54/2/3 52/2/3 53/2/3
f 55/2/4 56/2/4 57/2/4
f 57/2/4 56/2/4 58/2/4
f 59/2/4 60/2/4 61/2/4
f 61/2/4 60/2/4 62/2/4
f 62/1/4 63/1/4 65/1/4
f 65/1/4 63/1/4 66/1/4
f 64/2/4 65/2/4 67/2/4
f 67/2/4 65/2/4 68/2/4
f 69/2/4 70/2/4 71/2/4
f 71/2/4 70/2/4 72/2/4
f 76/2/5 74/2/5 73/2/5
f 77/2/5 74/2/5 76/2/5
f 79/2/5 76/2/5 75/2/5
f 80/2/5 76/2/5 79/2/5
f 81/2/5 78/2/5 77/2/5
f 82/2/5 78/2/5 81/2/5
f 83/2/5 81/2/5 80/2/5
f 84/2/5 81/2/5 83/2/5
f 87/1/5 86/1/5 85/1/5
f 88/1/5 86/1/5 87/1/5
f 89/2/6 90/2/6 92/2/6
f 92/2/6 90/2/6 93/2/6
f 91/2/6 92/2/6 95/2/6
f 95/2/6 92/2/6 96/2/6
f 93/2/6 94/2/6 97/2/6
f 97/2/6 94/2/6 98/2/6
f 96/2/6 97/2/6 99/2/6
f 99/2/6 97/2/6 100/2/6
f 101/1/6 102/1/6 103/1/6
f 103/1/6 102/1/6 104/1/6
