# MagicaVoxel @ Ephtracy

# group
o crossbow

# material
mtllib humanoid-1-crossbow.mtl
usemtl palette

# normals
vn 0 0 -1
vn 0 0 1
vn 0 1 0
vn 0 -1 0
vn -1 0 0
vn 1 0 0

# texcoords
vt 0.791016 0.5
vt 0.794922 0.5

# verts
v -1.3 2.6 0.4
v -1.3 2.4 0.4
v -1.2 2.7 0.4
v -1.2 2.6 0.4
v -1.2 2.5 0.4
v -1.2 2.4 0.4
v -1.1 2.6 0.4
v -1.1 2.5 0.4
v -1 2.8 0.4
v -1 2.7 0.4
v -0.9 2.7 0.4
v -0.9 2.6 0.4
v -0.6 2.9 0.4
v -0.6 2.8 0.4
v -0.6 2.7 0.4
v -0.6 1.9 0.4
v -0.5 2.9 0.4
v -0.5 2.8 0.4
v -0.5 2.7 0.4
v -0.5 1.9 0.4
v -0.2 2.7 0.4
v -0.2 2.6 0.4
v -0.1 2.8 0.4
v -0.1 2.7 0.4
v -1.19209e-07 2.6 0.4
v -1.19209e-07 2.5 0.4
v 0.0999999 2.7 0.4
v 0.0999999 2.6 0.4
v 0.0999999 2.5 0.4
v 0.0999999 2.4 0.4
v 0.2 2.6 0.4
v 0.2 2.4 0.4
v -0.6 1.9 0.5
v -0.6 1 0.5
v -0.5 1.9 0.5
v -0.5 1 0.5
v -1.3 2.6 0.5
v -1.3 2.4 0.5
v -1.2 2.7 0.5
v -1.2 2.6 0.5
v -1.2 2.5 0.5
v -1.2 2.4 0.5
v -1.1 2.6 0.5
v -1.1 2.5 0.5
v -1 2.8 0.5
v -1 2.7 0.5
v -0.9 2.8 0.5
v -0.9 2.7 0.5
v -0.9 2.6 0.5
v -0.6 2.6 0.5
v -0.6 2.1 0.5
v -0.5 2.6 0.5
v -0.5 2.1 0.5
v -0.2 2.8 0.5
v -0.2 2.7 0.5
v -0.2 2.6 0.5
v -0.1 2.8 0.5
v -0.1 2.7 0.5
v -1.19209e-07 2.6 0.5
v -1.19209e-07 2.5 0.5
v 0.0999999 2.7 0.5
v 0.0999999 2.6 0.5
v 0.0999999 2.5 0.5
v 0.0999999 2.4 0.5
v 0.2 2.6 0.5
v 0.2 2.4 0.5
v -0.9 2.8 0.6
v -0.9 2.7 0.6
v -0.6 2.9 0.6
v -0.6 2.8 0.6
v -0.6 2.7 0.6
v -0.6 2.6 0.6
v -0.6 2.1 0.6
v -0.6 1 0.6
v -0.5 2.9 0.6
v -0.5 2.8 0.6
v -0.5 2.7 0.6
v -0.5 2.6 0.6
v -0.5 2.1 0.6
v -0.5 1 0.6
v -0.2 2.8 0.6
v -0.2 2.7 0.6
v -0.6 2.9 0.4
v -0.5 2.9 0.4
v -0.6 2.9 0.6
v -0.5 2.9 0.6
v -1 2.8 0.4
v -0.6 2.8 0.4
v -0.5 2.8 0.4
v -0.1 2.8 0.4
v -1 2.8 0.5
v -0.9 2.8 0.5
v -0.2 2.8 0.5
v -0.1 2.8 0.5
v -0.9 2.8 0.6
v -0.6 2.8 0.6
v -0.5 2.8 0.6
v -0.2 2.8 0.6
v -1.2 2.7 0.4
v -1 2.7 0.4
v -0.1 2.7 0.4
v 0.0999999 2.7 0.4
v -1.2 2.7 0.5
v -1 2.7 0.5
v -0.1 2.7 0.5
v 0.0999999 2.7 0.5
v -1.3 2.6 0.4
v -1.2 2.6 0.4
v 0.0999999 2.6 0.4
v 0.2 2.6 0.4
v -1.3 2.6 0.5
v -1.2 2.6 0.5
v 0.0999999 2.6 0.5
v 0.2 2.6 0.5
v -0.6 2.1 0.5
v -0.5 2.1 0.5
v -0.6 2.1 0.6
v -0.5 2.1 0.6
v -0.9 2.7 0.4
v -0.6 2.7 0.4
v -0.5 2.7 0.4
v -0.2 2.7 0.4
v -0.9 2.7 0.5
v -0.2 2.7 0.5
v -0.9 2.7 0.6
v -0.6 2.7 0.6
v -0.5 2.7 0.6
v -0.2 2.7 0.6
v -1.1 2.6 0.4
v -0.9 2.6 0.4
v -0.2 2.6 0.4
v -1.19209e-07 2.6 0.4
v -1.1 2.6 0.5
v -0.9 2.6 0.5
v -0.6 2.6 0.5
v -0.5 2.6 0.5
v -0.2 2.6 0.5
v -1.19209e-07 2.6 0.5
v -0.6 2.6 0.6
v -0.5 2.6 0.6
v -1.2 2.5 0.4
v -1.1 2.5 0.4
v -1.19209e-07 2.5 0.4
v 0.0999999 2.5 0.4
v -1.2 2.5 0.5
v -1.1 2.5 0.5
v -1.19209e-07 2.5 0.5
v 0.0999999 2.5 0.5
v -1.3 2.4 0.4
v -1.2 2.4 0.4
v 0.0999999 2.4 0.4
v 0.2 2.4 0.4
v -1.3 2.4 0.5
v -1.2 2.4 0.5
v 0.0999999 2.4 0.5
v 0.2 2.4 0.5
v -0.6 1.9 0.4
v -0.5 1.9 0.4
v -0.6 1.9 0.5
v -0.5 1.9 0.5
v -0.6 1 0.5
v -0.5 1 0.5
v -0.6 1 0.6
v -0.5 1 0.6
v -1.3 2.6 0.4
v -1.3 2.6 0.5
v -1.3 2.4 0.4
v -1.3 2.4 0.5
v -1.2 2.7 0.4
v -1.2 2.7 0.5
v -1.2 2.6 0.4
v -1.2 2.6 0.5
v -1 2.8 0.4
v -1 2.8 0.5
v -1 2.7 0.4
v -1 2.7 0.5
v -0.9 2.8 0.5
v -0.9 2.8 0.6
v -0.9 2.7 0.5
v -0.9 2.7 0.6
v -0.6 2.9 0.4
v -0.6 2.9 0.6
v -0.6 2.8 0.4
v -0.6 2.8 0.6
v -0.6 2.7 0.4
v -0.6 2.7 0.6
v -0.6 2.6 0.5
v -0.6 2.6 0.6
v -0.6 2.1 0.5
v -0.6 2.1 0.6
v -0.6 1.9 0.4
v -0.6 1.9 0.5
v -0.6 1 0.5
v -0.6 1 0.6
v -0.2 2.7 0.4
v -0.2 2.7 0.5
v -0.2 2.6 0.4
v -0.2 2.6 0.5
v -1.19209e-07 2.6 0.4
v -1.19209e-07 2.6 0.5
v -1.19209e-07 2.5 0.4
v -1.19209e-07 2.5 0.5
v 0.0999999 2.5 0.4
v 0.0999999 2.5 0.5
v 0.0999999 2.4 0.4
v 0.0999999 2.4 0.5
v -1.2 2.5 0.4
v -1.2 2.5 0.5
v -1.2 2.4 0.4
v -1.2 2.4 0.5
v -1.1 2.6 0.4
v -1.1 2.6 0.5
v -1.1 2.5 0.4
v -1.1 2.5 0.5
v -0.9 2.7 0.4
v -0.9 2.7 0.5
v -0.9 2.6 0.4
v -0.9 2.6 0.5
v -0.5 2.9 0.4
v -0.5 2.9 0.6
v -0.5 2.8 0.4
v -0.5 2.8 0.6
v -0.5 2.7 0.4
v -0.5 2.7 0.6
v -0.5 2.6 0.5
v -0.5 2.6 0.6
v -0.5 2.1 0.5
v -0.5 2.1 0.6
v -0.5 1.9 0.4
v -0.5 1.9 0.5
v -0.5 1 0.5
v -0.5 1 0.6
v -0.2 2.8 0.5
v -0.2 2.8 0.6
v -0.2 2.7 0.5
v -0.2 2.7 0.6
v -0.1 2.8 0.4
v -0.1 2.8 0.5
v -0.1 2.7 0.4
v -0.1 2.7 0.5
v 0.0999999 2.7 0.4
v 0.0999999 2.7 0.5
v 0.0999999 2.6 0.4
v 0.0999999 2.6 0.5
v 0.2 2.6 0.4
v 0.2 2.6 0.5
v 0.2 2.4 0.4
v 0.2 2.4 0.5

# faces
f 4/1/1 2/1/1 1/1/1
f 5/1/1 2/1/1 4/1/1
f 6/1/1 2/1/1 5/1/1
f 7/1/1 4/1/1 3/1/1
f 7/1/1 5/1/1 4/1/1
f 8/1/1 5/1/1 7/1/1
f 10/1/1 7/1/1 3/1/1
f 11/1/1 7/1/1 10/1/1
f 11/1/1 10/1/1 9/1/1
f 12/1/1 7/1/1 11/1/1
f 14/1/1 11/1/1 9/1/1
f 15/1/1 11/1/1 14/1/1
f 17/2/1 15/2/1 14/2/1
f 17/2/1 16/2/1 15/2/1
f 17/2/1 14/2/1 13/2/1
f 18/2/1 16/2/1 17/2/1
f 19/2/1 16/2/1 18/2/1
f 20/2/1 16/2/1 19/2/1
f 21/1/1 19/1/1 18/1/1
f 23/1/1 21/1/1 18/1/1
f 23/1/1 22/1/1 21/1/1
f 24/1/1 22/1/1 23/1/1
f 25/1/1 22/1/1 24/1/1
f 27/1/1 25/1/1 24/1/1
f 27/1/1 26/1/1 25/1/1
f 28/1/1 26/1/1 27/1/1
f 29/1/1 26/1/1 28/1/1
f 31/1/1 30/1/1 29/1/1
f 31/1/1 29/1/1 28/1/1
f 32/1/1 30/1/1 31/1/1
f 35/2/1 34/2/1 33/2/1
f 36/2/1 34/2/1 35/2/1
f 37/1/2 38/1/2 40/1/2
f 40/1/2 38/1/2 41/1/2
f 41/1/2 38/1/2 42/1/2
f 39/1/2 40/1/2 43/1/2
f 40/1/2 41/1/2 43/1/2
f 43/1/2 41/1/2 44/1/2
f 39/1/2 43/1/2 46/1/2
f 45/1/2 46/1/2 47/1/2
f 46/1/2 43/1/2 48/1/2
f 47/1/2 46/1/2 48/1/2
f 48/1/2 43/1/2 49/1/2
f 50/2/2 51/2/2 52/2/2
f 52/2/2 51/2/2 53/2/2
f 54/1/2 55/1/2 57/1/2
f 55/1/2 56/1/2 57/1/2
f 57/1/2 56/1/2 58/1/2
f 58/1/2 56/1/2 59/1/2
f 58/1/2 59/1/2 61/1/2
f 59/1/2 60/1/2 61/1/2
f 61/1/2 60/1/2 62/1/2
f 62/1/2 60/1/2 63/1/2
f 63/1/2 64/1/2 65/1/2
f 62/1/2 63/1/2 65/1/2
f 65/1/2 64/1/2 66/1/2
f 67/1/2 68/1/2 70/1/2
f 70/1/2 68/1/2 71/1/2
f 69/2/2 70/2/2 75/2/2
f 70/2/2 71/2/2 75/2/2
f 71/2/2 72/2/2 75/2/2
f 75/2/2 72/2/2 76/2/2
f 76/2/2 72/2/2 77/2/2
f 77/2/2 72/2/2 78/2/2
f 73/2/2 74/2/2 79/2/2
f 79/2/2 74/2/2 80/2/2
f 76/1/2 77/1/2 81/1/2
f 81/1/2 77/1/2 82/1/2
f 85/2/3 84/2/3 83/2/3
f 86/2/3 84/2/3 85/2/3
f 91/1/3 88/1/3 87/1/3
f 92/1/3 88/1/3 91/1/3
f 93/1/3 90/1/3 89/1/3
f 94/1/3 90/1/3 93/1/3
f 95/1/3 88/1/3 92/1/3
f 96/1/3 88/1/3 95/1/3
f 97/1/3 93/1/3 89/1/3
f 98/1/3 93/1/3 97/1/3
f 103/1/3 100/1/3 99/1/3
f 104/1/3 100/1/3 103/1/3
f 105/1/3 102/1/3 101/1/3
f 106/1/3 102/1/3 105/1/3
f 111/1/3 108/1/3 107/1/3
f 112/1/3 108/1/3 111/1/3
f 113/1/3 110/1/3 109/1/3
f 114/1/3 110/1/3 113/1/3
f 117/2/3 116/2/3 115/2/3
f 118/2/3 116/2/3 117/2/3
f 119/1/4 120/1/4 123/1/4
f 121/1/4 122/1/4 124/1/4
f 123/1/4 120/1/4 125/1/4
f 125/1/4 120/1/4 126/1/4
f 121/1/4 124/1/4 127/1/4
f 127/1/4 124/1/4 128/1/4
f 129/1/4 130/1/4 133/1/4
f 133/1/4 130/1/4 134/1/4
f 131/1/4 132/1/4 137/1/4
f 137/1/4 132/1/4 138/1/4
f 135/2/4 136/2/4 139/2/4
f 139/2/4 136/2/4 140/2/4
f 141/1/4 142/1/4 145/1/4
f 145/1/4 142/1/4 146/1/4
f 143/1/4 144/1/4 147/1/4
f 147/1/4 144/1/4 148/1/4
f 149/1/4 150/1/4 153/1/4
f 153/1/4 150/1/4 154/1/4
f 151/1/4 152/1/4 155/1/4
f 155/1/4 152/1/4 156/1/4
f 157/2/4 158/2/4 159/2/4
f 159/2/4 158/2/4 160/2/4
f 161/2/4 162/2/4 163/2/4
f 163/2/4 162/2/4 164/2/4
f 167/1/5 166/1/5 165/1/5
f 168/1/5 166/1/5 167/1/5
f 171/1/5 170/1/5 169/1/5
f 172/1/5 170/1/5 171/1/5
f 175/1/5 174/1/5 173/1/5
f 176/1/5 174/1/5 175/1/5
f 179/1/5 178/1/5 177/1/5
f 180/1/5 178/1/5 179/1/5
f 183/2/5 182/2/5 181/2/5
f 184/2/5 182/2/5 183/2/5
f 187/2/5 186/2/5 185/2/5
f 188/2/5 186/2/5 187/2/5
f 189/2/5 187/2/5 185/2/5
f 191/2/5 189/2/5 185/2/5
f 191/2/5 190/2/5 189/2/5
f 192/2/5 190/2/5 191/2/5
f 193/2/5 190/2/5 192/2/5
f 194/2/5 190/2/5 193/2/5
f 197/1/5 196/1/5 195/1/5
f 198/1/5 196/1/5 197/1/5
f 201/1/5 200/1/5 199/1/5
f 202/1/5 200/1/5 201/1/5
f 205/1/5 204/1/5 203/1/5
f 206/1/5 204/1/5 205/1/5
f 207/1/6 208/1/6 209/1/6
f 209/1/6 208/1/6 210/1/6
f 211/1/6 212/1/6 213/1/6
f 213/1/6 212/1/6 214/1/6
f 215/1/6 216/1/6 217/1/6
f 217/1/6 216/1/6 218/1/6
f 219/2/6 220/2/6 221/2/6
f 221/2/6 220/2/6 222/2/6
f 223/2/6 224/2/6 225/2/6
f 225/2/6 224/2/6 226/2/6
f 223/2/6 225/2/6 227/2/6
f 223/2/6 227/2/6 229/2/6
f 227/2/6 228/2/6 229/2/6
f 229/2/6 228/2/6 230/2/6
f 230/2/6 228/2/6 231/2/6
f 231/2/6 228/2/6 232/2/6
f 233/1/6 234/1/6 235/1/6
f 235/1/6 234/1/6 236/1/6
f 237/1/6 238/1/6 239/1/6
f 239/1/6 238/1/6 240/1/6
f 241/1/6 242/1/6 243/1/6
f 243/1/6 242/1/6 244/1/6
f 245/1/6 246/1/6 247/1/6
f 247/1/6 246/1/6 248/1/6
