# MagicaVoxel @ Ephtracy

# group
o helm_med_1f_sh

# material
mtllib humanoid-163-helm_med_1f_sh.mtl
usemtl palette

# normals
vn -1 0 0
vn 1 0 0
vn 0 0 1
vn 0 0 -1
vn 0 -1 0
vn 0 1 0

# texcoords
vt 0.958984 0.5
vt 0.962891 0.5

# verts
v -0.3 2.6 0.3
v -0.3 2.6 -0.2
v -0.3 3 0.3
v -0.3 3 -0.2
v -0.3 3.2 0.3
v -0.3 3.2 -0.2
v -0.2 2.6 -0.2
v -0.2 2.6 -0.3
v -0.2 3 0.4
v -0.2 3 0.3
v -0.2 3 -0.2
v -0.2 3 -0.3
v -0.2 3.2 0.4
v -0.2 3.2 0.3
v -0.2 3.2 -0.2
v -0.2 3.2 -0.3
v -0.2 3.3 0.3
v -0.2 3.3 -0.2
v -0.1 2.8 0.4
v -0.1 2.8 0.3
v -0.1 3 0.4
v -0.1 3 0.3
v -0.1 3.2 0.4
v -0.1 3.2 0.3
v -0.1 3.3 0.3
v -0.1 3.3 0.2
v -0.1 3.3 -0.1
v -0.1 3.4 0.2
v -0.1 3.4 0.1
v -0.1 3.4 0
v -0.1 3.4 -0.1
v -0.1 3.5 0.4
v -0.1 3.5 0.3
v -0.1 3.7 0.1
v -0.1 3.7 0
v 0.2 2.6 0.3
v 0.2 2.6 -0.2
v 0.2 3 0.3
v 0.2 3 -0.2
v 0.2 3.1 0.3
v 0.2 3.1 0.2
v 0.2 3.2 0.2
v 0.2 3.2 -0.2
v -0.2 2.6 0.3
v -0.2 2.6 -0.2
v -0.2 3 0.3
v -0.2 3 -0.2
v -0.2 3.1 0.3
v -0.2 3.1 0.2
v -0.2 3.2 0.2
v -0.2 3.2 -0.2
v 0.1 2.8 0.4
v 0.1 2.8 0.3
v 0.1 3 0.4
v 0.1 3 0.3
v 0.1 3.2 0.4
v 0.1 3.2 0.3
v 0.1 3.3 0.3
v 0.1 3.3 0.2
v 0.1 3.3 -0.1
v 0.1 3.4 0.2
v 0.1 3.4 0.1
v 0.1 3.4 0
v 0.1 3.4 -0.1
v 0.1 3.5 0.4
v 0.1 3.5 0.3
v 0.1 3.7 0.1
v 0.1 3.7 0
v 0.2 2.6 -0.2
v 0.2 2.6 -0.3
v 0.2 3 0.4
v 0.2 3 0.3
v 0.2 3 -0.2
v 0.2 3 -0.3
v 0.2 3.2 0.4
v 0.2 3.2 0.3
v 0.2 3.2 -0.2
v 0.2 3.2 -0.3
v 0.2 3.3 0.3
v 0.2 3.3 -0.2
v 0.3 2.6 0.3
v 0.3 2.6 -0.2
v 0.3 3 0.3
v 0.3 3 -0.2
v 0.3 3.2 0.3
v 0.3 3.2 -0.2
v -0.2 3 0.4
v -0.2 3.2 0.4
v -0.1 2.8 0.4
v -0.1 3 0.4
v -0.1 3.2 0.4
v -0.1 3.5 0.4
v 0.1 2.8 0.4
v 0.1 3 0.4
v 0.1 3.2 0.4
v 0.1 3.5 0.4
v 0.2 3 0.4
v 0.2 3.2 0.4
v -0.3 2.6 0.3
v -0.3 3 0.3
v -0.3 3.2 0.3
v -0.2 2.6 0.3
v -0.2 3 0.3
v -0.2 3.2 0.3
v -0.2 3.3 0.3
v -0.1 3.2 0.3
v -0.1 3.3 0.3
v 0.1 3.2 0.3
v 0.1 3.3 0.3
v 0.2 2.6 0.3
v 0.2 3 0.3
v 0.2 3.2 0.3
v 0.2 3.3 0.3
v 0.3 2.6 0.3
v 0.3 3 0.3
v 0.3 3.2 0.3
v -0.1 3.3 0.2
v -0.1 3.4 0.2
v 0.1 3.3 0.2
v 0.1 3.4 0.2
v -0.1 3.4 0.1
v -0.1 3.7 0.1
v 0.1 3.4 0.1
v 0.1 3.7 0.1
v -0.2 2.6 -0.2
v -0.2 3 -0.2
v -0.2 3.2 -0.2
v 0.2 2.6 -0.2
v 0.2 3 -0.2
v 0.2 3.2 -0.2
v -0.2 3 0.3
v -0.2 3.1 0.3
v -0.1 2.8 0.3
v -0.1 3 0.3
v -0.1 3.1 0.3
v -0.1 3.3 0.3
v -0.1 3.5 0.3
v 0.1 2.8 0.3
v 0.1 3 0.3
v 0.1 3.1 0.3
v 0.1 3.3 0.3
v 0.1 3.5 0.3
v 0.2 3 0.3
v 0.2 3.1 0.3
v -0.2 3.1 0.2
v -0.2 3.2 0.2
v -0.1 3.1 0.2
v -0.1 3.2 0.2
v 0.1 3.1 0.2
v 0.1 3.2 0.2
v 0.2 3.1 0.2
v 0.2 3.2 0.2
v -0.1 3.4 0
v -0.1 3.7 0
v 0.1 3.4 0
v 0.1 3.7 0
v -0.1 3.3 -0.1
v -0.1 3.4 -0.1
v 0.1 3.3 -0.1
v 0.1 3.4 -0.1
v -0.3 2.6 -0.2
v -0.3 3 -0.2
v -0.3 3.2 -0.2
v -0.2 2.6 -0.2
v -0.2 3 -0.2
v -0.2 3.2 -0.2
v -0.2 3.3 -0.2
v 0.2 2.6 -0.2
v 0.2 3 -0.2
v 0.2 3.2 -0.2
v 0.2 3.3 -0.2
v 0.3 2.6 -0.2
v 0.3 3 -0.2
v 0.3 3.2 -0.2
v -0.2 2.6 -0.3
v -0.2 3 -0.3
v -0.2 3.2 -0.3
v 0.2 2.6 -0.3
v 0.2 3 -0.3
v 0.2 3.2 -0.3
v -0.3 2.6 0.3
v -0.2 2.6 0.3
v 0.2 2.6 0.3
v 0.3 2.6 0.3
v -0.3 2.6 -0.2
v -0.2 2.6 -0.2
v 0.2 2.6 -0.2
v 0.3 2.6 -0.2
v -0.2 2.6 -0.3
v 0.2 2.6 -0.3
v -0.1 2.8 0.4
v 0.1 2.8 0.4
v -0.1 2.8 0.3
v 0.1 2.8 0.3
v -0.2 3 0.4
v -0.1 3 0.4
v 0.1 3 0.4
v 0.2 3 0.4
v -0.2 3 0.3
v -0.1 3 0.3
v 0.1 3 0.3
v 0.2 3 0.3
v -0.2 3.1 0.3
v -0.1 3.1 0.3
v 0.1 3.1 0.3
v 0.2 3.1 0.3
v -0.2 3.1 0.2
v -0.1 3.1 0.2
v 0.1 3.1 0.2
v 0.2 3.1 0.2
v -0.2 3.2 0.2
v -0.1 3.2 0.2
v 0.1 3.2 0.2
v 0.2 3.2 0.2
v -0.2 3.2 -0.2
v 0.2 3.2 -0.2
v -0.2 3.2 0.4
v -0.1 3.2 0.4
v 0.1 3.2 0.4
v 0.2 3.2 0.4
v -0.3 3.2 0.3
v -0.2 3.2 0.3
v -0.1 3.2 0.3
v 0.1 3.2 0.3
v 0.2 3.2 0.3
v 0.3 3.2 0.3
v -0.3 3.2 -0.2
v -0.2 3.2 -0.2
v 0.2 3.2 -0.2
v 0.3 3.2 -0.2
v -0.2 3.2 -0.3
v 0.2 3.2 -0.3
v -0.2 3.3 0.3
v -0.1 3.3 0.3
v 0.1 3.3 0.3
v 0.2 3.3 0.3
v -0.1 3.3 0.2
v 0.1 3.3 0.2
v -0.1 3.3 -0.1
v 0.1 3.3 -0.1
v -0.2 3.3 -0.2
v 0.2 3.3 -0.2
v -0.1 3.4 0.2
v 0.1 3.4 0.2
v -0.1 3.4 0.1
v 0.1 3.4 0.1
v -0.1 3.4 0
v 0.1 3.4 0
v -0.1 3.4 -0.1
v 0.1 3.4 -0.1
v -0.1 3.5 0.4
v 0.1 3.5 0.4
v -0.1 3.5 0.3
v 0.1 3.5 0.3
v -0.1 3.7 0.1
v 0.1 3.7 0.1
v -0.1 3.7 0
v 0.1 3.7 0

# faces
f 3/1/1 2/1/1 1/1/1
f 4/1/1 2/1/1 3/1/1
f 5/2/1 4/2/1 3/2/1
f 6/2/1 4/2/1 5/2/1
f 11/1/1 8/1/1 7/1/1
f 12/1/1 8/1/1 11/1/1
f 13/2/1 10/2/1 9/2/1
f 14/2/1 10/2/1 13/2/1
f 15/2/1 12/2/1 11/2/1
f 16/2/1 12/2/1 15/2/1
f 17/2/1 15/2/1 14/2/1
f 18/2/1 15/2/1 17/2/1
f 21/2/1 20/2/1 19/2/1
f 22/2/1 20/2/1 21/2/1
f 25/2/1 24/2/1 23/2/1
f 28/2/1 27/2/1 26/2/1
f 29/2/1 27/2/1 28/2/1
f 30/2/1 27/2/1 29/2/1
f 31/2/1 27/2/1 30/2/1
f 32/2/1 25/2/1 23/2/1
f 33/2/1 25/2/1 32/2/1
f 34/2/1 30/2/1 29/2/1
f 35/2/1 30/2/1 34/2/1
f 38/1/1 37/1/1 36/1/1
f 39/1/1 37/1/1 38/1/1
f 40/2/1 39/2/1 38/2/1
f 41/2/1 39/2/1 40/2/1
f 42/2/1 39/2/1 41/2/1
f 43/2/1 39/2/1 42/2/1
f 44/1/2 45/1/2 46/1/2
f 46/1/2 45/1/2 47/1/2
f 46/2/2 47/2/2 48/2/2
f 48/2/2 47/2/2 49/2/2
f 49/2/2 47/2/2 50/2/2
f 50/2/2 47/2/2 51/2/2
f 52/2/2 53/2/2 54/2/2
f 54/2/2 53/2/2 55/2/2
f 56/2/2 57/2/2 58/2/2
f 59/2/2 60/2/2 61/2/2
f 61/2/2 60/2/2 62/2/2
f 62/2/2 60/2/2 63/2/2
f 63/2/2 60/2/2 64/2/2
f 56/2/2 58/2/2 65/2/2
f 65/2/2 58/2/2 66/2/2
f 62/2/2 63/2/2 67/2/2
f 67/2/2 63/2/2 68/2/2
f 69/1/2 70/1/2 73/1/2
f 73/1/2 70/1/2 74/1/2
f 71/2/2 72/2/2 75/2/2
f 75/2/2 72/2/2 76/2/2
f 73/2/2 74/2/2 77/2/2
f 77/2/2 74/2/2 78/2/2
f 76/2/2 77/2/2 79/2/2
f 79/2/2 77/2/2 80/2/2
f 81/1/2 82/1/2 83/1/2
f 83/1/2 82/1/2 84/1/2
f 83/2/2 84/2/2 85/2/2
f 85/2/2 84/2/2 86/2/2
f 90/2/3 88/2/3 87/2/3
f 91/2/3 88/2/3 90/2/3
f 93/2/3 90/2/3 89/2/3
f 93/2/3 92/2/3 91/2/3
f 93/2/3 91/2/3 90/2/3
f 94/2/3 92/2/3 93/2/3
f 95/2/3 92/2/3 94/2/3
f 96/2/3 92/2/3 95/2/3
f 97/2/3 95/2/3 94/2/3
f 98/2/3 95/2/3 97/2/3
f 102/1/3 100/1/3 99/1/3
f 103/2/3 101/2/3 100/2/3
f 103/1/3 100/1/3 102/1/3
f 104/2/3 101/2/3 103/2/3
f 106/2/3 105/2/3 104/2/3
f 107/2/3 105/2/3 106/2/3
f 112/2/3 109/2/3 108/2/3
f 113/2/3 109/2/3 112/2/3
f 114/1/3 111/1/3 110/1/3
f 115/2/3 112/2/3 111/2/3
f 115/1/3 111/1/3 114/1/3
f 116/2/3 112/2/3 115/2/3
f 119/2/3 118/2/3 117/2/3
f 120/2/3 118/2/3 119/2/3
f 123/2/3 122/2/3 121/2/3
f 124/2/3 122/2/3 123/2/3
f 128/1/3 126/1/3 125/1/3
f 129/2/3 127/2/3 126/2/3
f 129/1/3 126/1/3 128/1/3
f 130/2/3 127/2/3 129/2/3
f 131/2/4 132/2/4 134/2/4
f 134/2/4 132/2/4 135/2/4
f 133/2/4 134/2/4 138/2/4
f 134/2/4 135/2/4 138/2/4
f 138/2/4 135/2/4 139/2/4
f 139/2/4 135/2/4 140/2/4
f 136/2/4 137/2/4 141/2/4
f 141/2/4 137/2/4 142/2/4
f 139/2/4 140/2/4 143/2/4
f 143/2/4 140/2/4 144/2/4
f 145/2/4 146/2/4 147/2/4
f 147/2/4 146/2/4 148/2/4
f 147/1/4 148/1/4 149/1/4
f 149/1/4 148/1/4 150/1/4
f 149/2/4 150/2/4 151/2/4
f 151/2/4 150/2/4 152/2/4
f 153/2/4 154/2/4 155/2/4
f 155/2/4 154/2/4 156/2/4
f 157/2/4 158/2/4 159/2/4
f 159/2/4 158/2/4 160/2/4
f 161/1/4 162/1/4 164/1/4
f 162/2/4 163/2/4 165/2/4
f 164/1/4 162/1/4 165/1/4
f 165/2/4 163/2/4 166/2/4
f 166/2/4 167/2/4 170/2/4
f 170/2/4 167/2/4 171/2/4
f 168/1/4 169/1/4 172/1/4
f 169/2/4 170/2/4 173/2/4
f 172/1/4 169/1/4 173/1/4
f 173/2/4 170/2/4 174/2/4
f 175/1/4 176/1/4 178/1/4
f 176/2/4 177/2/4 179/2/4
f 178/1/4 176/1/4 179/1/4
f 179/2/4 177/2/4 180/2/4
f 185/1/5 182/1/5 181/1/5
f 186/1/5 182/1/5 185/1/5
f 187/1/5 184/1/5 183/1/5
f 188/1/5 184/1/5 187/1/5
f 189/1/5 187/1/5 186/1/5
f 190/1/5 187/1/5 189/1/5
f 193/2/5 192/2/5 191/2/5
f 194/2/5 192/2/5 193/2/5
f 199/2/5 196/2/5 195/2/5
f 200/2/5 196/2/5 199/2/5
f 201/2/5 198/2/5 197/2/5
f 202/2/5 198/2/5 201/2/5
f 207/2/5 204/2/5 203/2/5
f 208/1/5 205/1/5 204/1/5
f 208/2/5 204/2/5 207/2/5
f 209/2/5 206/2/5 205/2/5
f 209/1/5 205/1/5 208/1/5
f 210/2/5 206/2/5 209/2/5
f 215/2/5 212/2/5 211/2/5
f 215/2/5 214/2/5 213/2/5
f 215/2/5 213/2/5 212/2/5
f 216/2/5 214/2/5 215/2/5
f 217/2/6 218/2/6 222/2/6
f 222/2/6 218/2/6 223/2/6
f 219/2/6 220/2/6 224/2/6
f 224/2/6 220/2/6 225/2/6
f 221/2/6 222/2/6 227/2/6
f 227/2/6 222/2/6 228/2/6
f 225/2/6 226/2/6 229/2/6
f 229/2/6 226/2/6 230/2/6
f 228/2/6 229/2/6 231/2/6
f 231/2/6 229/2/6 232/2/6
f 233/2/6 234/2/6 237/2/6
f 235/2/6 236/2/6 237/2/6
f 234/2/6 235/2/6 237/2/6
f 237/2/6 236/2/6 238/2/6
f 233/2/6 237/2/6 239/2/6
f 238/2/6 236/2/6 240/2/6
f 233/2/6 239/2/6 241/2/6
f 239/2/6 240/2/6 241/2/6
f 240/2/6 236/2/6 242/2/6
f 241/2/6 240/2/6 242/2/6
f 243/2/6 244/2/6 245/2/6
f 245/2/6 244/2/6 246/2/6
f 247/2/6 248/2/6 249/2/6
f 249/2/6 248/2/6 250/2/6
f 251/2/6 252/2/6 253/2/6
f 253/2/6 252/2/6 254/2/6
f 255/2/6 256/2/6 257/2/6
f 257/2/6 256/2/6 258/2/6
