# MagicaVoxel @ Ephtracy

# group
o sword_straight

# material
mtllib humanoid-15-sword_straight.mtl
usemtl palette

# normals
vn 0 0 1
vn 0 0 -1
vn 1 0 0
vn -1 0 0
vn 0 -1 0
vn 0 1 0

# texcoords
vt 0.736328 0.5
vt 0.958984 0.5
vt 0.966797 0.5

# verts
v -0.5 1.8 0.7
v -0.6 1.8 0.7
v -0.5 1.9 0.7
v -0.6 1.9 0.7
v -0.5 1.4 0.6
v -0.6 1.4 0.6
v -0.5 1.5 0.6
v -0.6 1.5 0.6
v -0.5 1.8 0.6
v -0.6 1.8 0.6
v -0.5 1.9 0.6
v -0.6 1.9 0.6
v -0.5 3.5 0.6
v -0.6 3.5 0.6
v -0.5 1.4 0.5
v -0.6 1.4 0.5
v -0.5 1.5 0.5
v -0.6 1.5 0.5
v -0.5 1.8 0.5
v -0.6 1.8 0.5
v -0.5 1.9 0.5
v -0.6 1.9 0.5
v -0.5 3.5 0.5
v -0.6 3.5 0.5
v -0.5 1.8 0.4
v -0.6 1.8 0.4
v -0.5 1.9 0.4
v -0.6 1.9 0.4
v -0.5 1.8 0.7
v -0.5 1.9 0.7
v -0.5 1.4 0.6
v -0.5 1.5 0.6
v -0.5 1.8 0.6
v -0.5 1.9 0.6
v -0.5 3.5 0.6
v -0.5 1.4 0.5
v -0.5 1.5 0.5
v -0.5 1.8 0.5
v -0.5 1.9 0.5
v -0.5 3.5 0.5
v -0.5 1.8 0.4
v -0.5 1.9 0.4
v -0.6 1.8 0.7
v -0.6 1.9 0.7
v -0.6 1.4 0.6
v -0.6 1.5 0.6
v -0.6 1.8 0.6
v -0.6 1.9 0.6
v -0.6 3.5 0.6
v -0.6 1.4 0.5
v -0.6 1.5 0.5
v -0.6 1.8 0.5
v -0.6 1.9 0.5
v -0.6 3.5 0.5
v -0.6 1.8 0.4
v -0.6 1.9 0.4
v -0.5 1.4 0.6
v -0.5 1.4 0.5
v -0.6 1.4 0.6
v -0.6 1.4 0.5
v -0.5 1.8 0.7
v -0.5 1.8 0.6
v -0.5 1.8 0.5
v -0.5 1.8 0.4
v -0.6 1.8 0.7
v -0.6 1.8 0.6
v -0.6 1.8 0.5
v -0.6 1.8 0.4
v -0.5 1.9 0.7
v -0.5 1.9 0.6
v -0.5 1.9 0.5
v -0.5 1.9 0.4
v -0.6 1.9 0.7
v -0.6 1.9 0.6
v -0.6 1.9 0.5
v -0.6 1.9 0.4
v -0.5 3.5 0.6
v -0.5 3.5 0.5
v -0.6 3.5 0.6
v -0.6 3.5 0.5

# faces
f 3/2/1 2/2/1 1/2/1
f 4/2/1 2/2/1 3/2/1
f 7/2/1 6/2/1 5/2/1
f 8/2/1 6/2/1 7/2/1
f 9/1/1 8/1/1 7/1/1
f 10/1/1 8/1/1 9/1/1
f 13/3/1 12/3/1 11/3/1
f 14/3/1 12/3/1 13/3/1
f 15/2/2 16/2/2 17/2/2
f 17/2/2 16/2/2 18/2/2
f 17/1/2 18/1/2 19/1/2
f 19/1/2 18/1/2 20/1/2
f 21/3/2 22/3/2 23/3/2
f 23/3/2 22/3/2 24/3/2
f 25/2/2 26/2/2 27/2/2
f 27/2/2 26/2/2 28/2/2
f 33/2/3 30/2/3 29/2/3
f 34/2/3 30/2/3 33/2/3
f 36/2/3 32/2/3 31/2/3
f 37/1/3 33/1/3 32/1/3
f 37/2/3 32/2/3 36/2/3
f 38/2/3 34/2/3 33/2/3
f 38/1/3 33/1/3 37/1/3
f 39/3/3 35/3/3 34/3/3
f 39/2/3 34/2/3 38/2/3
f 40/3/3 35/3/3 39/3/3
f 41/2/3 39/2/3 38/2/3
f 42/2/3 39/2/3 41/2/3
f 43/2/4 44/2/4 47/2/4
f 47/2/4 44/2/4 48/2/4
f 45/2/4 46/2/4 50/2/4
f 46/1/4 47/1/4 51/1/4
f 50/2/4 46/2/4 51/2/4
f 47/2/4 48/2/4 52/2/4
f 51/1/4 47/1/4 52/1/4
f 48/3/4 49/3/4 53/3/4
f 52/2/4 48/2/4 53/2/4
f 53/3/4 49/3/4 54/3/4
f 52/2/4 53/2/4 55/2/4
f 55/2/4 53/2/4 56/2/4
f 59/2/5 58/2/5 57/2/5
f 60/2/5 58/2/5 59/2/5
f 65/2/5 62/2/5 61/2/5
f 66/2/5 62/2/5 65/2/5
f 67/2/5 64/2/5 63/2/5
f 68/2/5 64/2/5 67/2/5
f 69/2/6 70/2/6 73/2/6
f 73/2/6 70/2/6 74/2/6
f 71/2/6 72/2/6 75/2/6
f 75/2/6 72/2/6 76/2/6
f 77/3/6 78/3/6 79/3/6
f 79/3/6 78/3/6 80/3/6
