# MagicaVoxel @ Ephtracy

# group
o leg_lgt_3c_color

# material
mtllib humanoid-132-leg_lgt_3c_color.mtl
usemtl palette

# normals
vn -1 0 0
vn 1 0 0
vn 0 0 1
vn 0 0 -1
vn 0 -1 0
vn 0 1 0

# texcoords
vt 0.470703 0.5
vt 0.482422 0.5
vt 0.494141 0.5
vt 0.697266 0.5
vt 0.916016 0.5

# verts
v -0.4 0 0.4
v -0.4 0 -0.1
v -0.4 0.1 0.4
v -0.4 0.1 0.1
v -0.4 0.1 -0.1
v -0.4 0.6 0.2
v -0.4 0.6 0.1
v -0.4 1 0.2
v -0.4 1 -0.1
v -0.4 1.1 0.2
v -0.4 1.1 -0.1
v -0.4 1.2 0.2
v -0.4 1.2 -0.1
v -0.4 1.4 0.2
v -0.4 1.4 -0.1
v -0.3 0 -0.1
v -0.3 0 -0.2
v -0.3 0.1 0.2
v -0.3 0.1 0.1
v -0.3 0.1 -0.1
v -0.3 0.1 -0.2
v -0.3 0.6 0.3
v -0.3 0.6 0.2
v -0.3 0.6 0.1
v -0.3 1 0.3
v -0.3 1 0.2
v -0.3 1 -0.1
v -0.3 1 -0.2
v -0.3 1.1 0.3
v -0.3 1.1 0.2
v -0.3 1.1 -0.1
v -0.3 1.1 -0.2
v -0.3 1.2 0.3
v -0.3 1.2 0.2
v -0.3 1.2 -0.1
v -0.3 1.2 -0.2
v -0.3 1.4 0.3
v -0.3 1.4 0.2
v -0.3 1.4 -0.1
v -0.3 1.4 -0.2
v -0.2 1 0.4
v -0.2 1 0.3
v -0.2 1 -0.2
v -0.2 1 -0.3
v -0.2 1.1 0.4
v -0.2 1.1 0.3
v -0.2 1.1 -0.2
v -0.2 1.1 -0.3
v -0.2 1.2 0.4
v -0.2 1.2 0.3
v -0.2 1.2 -0.2
v -0.2 1.2 -0.3
v -0.2 1.4 0.4
v -0.2 1.4 0.3
v -0.2 1.4 -0.2
v -0.2 1.4 -0.3
v -0.2 0 -0.1
v -0.2 0 -0.2
v -0.2 0.1 0.2
v -0.2 0.1 0.1
v -0.2 0.1 -0.1
v -0.2 0.1 -0.2
v -0.2 0.6 0.2
v -0.2 0.6 0.1
v -0.2 0.6 -0.1
v -0.2 0.6 -0.2
v -0.1 0 0.4
v -0.1 0 -0.1
v -0.1 0.1 0.4
v -0.1 0.1 0.1
v -0.1 0.1 -0.1
v -0.1 0.6 0.3
v -0.1 0.6 0.1
v -0.1 0.6 -0.1
v -0.1 0.6 -0.2
v -0.1 1 0.3
v -0.1 1 -0.2
v -0.1 1.1 0.3
v -0.1 1.1 0.2
v -0.1 1.1 -0.1
v -0.1 1.1 -0.2
v -0.1 1.2 0.3
v -0.1 1.2 -0.2
v -0.1 1.3 0.3
v -0.1 1.3 0.2
v -0.1 1.3 -0.1
v -0.1 1.3 -0.2
v 0 1 0.4
v 0 1 0.3
v 0 1 -0.2
v 0 1 -0.3
v 0 1.1 0.4
v 0 1.1 0.3
v 0 1.1 0.2
v 0 1.1 -0.1
v 0 1.1 -0.2
v 0 1.1 -0.3
v 0 1.2 0.4
v 0 1.2 0.3
v 0 1.2 -0.2
v 0 1.2 -0.3
v 0 1.3 0.3
v 0 1.3 0.2
v 0 1.3 -0.1
v 0 1.3 -0.2
v 0 1.4 0.4
v 0 1.4 -0.3
v -0.4 0 0.4
v -0.4 0.1 0.4
v -0.2 1 0.4
v -0.2 1.1 0.4
v -0.2 1.2 0.4
v -0.2 1.4 0.4
v -0.1 0 0.4
v -0.1 0.1 0.4
v 0 1 0.4
v 0 1.1 0.4
v 0 1.2 0.4
v 0 1.4 0.4
v -0.3 0.6 0.3
v -0.3 1 0.3
v -0.3 1.1 0.3
v -0.3 1.2 0.3
v -0.3 1.4 0.3
v -0.2 1 0.3
v -0.2 1.1 0.3
v -0.2 1.2 0.3
v -0.2 1.4 0.3
v -0.1 0.6 0.3
v -0.1 1 0.3
v -0.4 0.6 0.2
v -0.4 1 0.2
v -0.4 1.1 0.2
v -0.4 1.2 0.2
v -0.4 1.4 0.2
v -0.3 0.1 0.2
v -0.3 0.6 0.2
v -0.3 1 0.2
v -0.3 1.1 0.2
v -0.3 1.2 0.2
v -0.3 1.4 0.2
v -0.2 0.1 0.2
v -0.2 0.6 0.2
v -0.1 1.1 0.2
v -0.1 1.3 0.2
v 0 1.1 0.2
v 0 1.3 0.2
v -0.4 0.1 0.1
v -0.4 0.6 0.1
v -0.3 0.1 0.1
v -0.3 0.6 0.1
v -0.2 0.1 0.1
v -0.2 0.6 0.1
v -0.1 0.1 0.1
v -0.1 0.6 0.1
v -0.1 1 -0.2
v -0.1 1.1 -0.2
v -0.1 1.2 -0.2
v -0.1 1.3 -0.2
v 0 1 -0.2
v 0 1.1 -0.2
v 0 1.2 -0.2
v 0 1.3 -0.2
v -0.1 1 0.3
v -0.1 1.1 0.3
v -0.1 1.2 0.3
v -0.1 1.3 0.3
v 0 1 0.3
v 0 1.1 0.3
v 0 1.2 0.3
v 0 1.3 0.3
v -0.4 0 -0.1
v -0.4 0.1 -0.1
v -0.4 1 -0.1
v -0.4 1.1 -0.1
v -0.4 1.2 -0.1
v -0.4 1.4 -0.1
v -0.3 0 -0.1
v -0.3 0.1 -0.1
v -0.3 1 -0.1
v -0.3 1.1 -0.1
v -0.3 1.2 -0.1
v -0.3 1.4 -0.1
v -0.2 0 -0.1
v -0.2 0.1 -0.1
v -0.2 0.6 -0.1
v -0.1 0 -0.1
v -0.1 0.1 -0.1
v -0.1 0.6 -0.1
v -0.1 1.1 -0.1
v -0.1 1.3 -0.1
v 0 1.1 -0.1
v 0 1.3 -0.1
v -0.3 0 -0.2
v -0.3 0.1 -0.2
v -0.3 1 -0.2
v -0.3 1.1 -0.2
v -0.3 1.2 -0.2
v -0.3 1.4 -0.2
v -0.2 0 -0.2
v -0.2 0.1 -0.2
v -0.2 0.6 -0.2
v -0.2 1 -0.2
v -0.2 1.1 -0.2
v -0.2 1.2 -0.2
v -0.2 1.4 -0.2
v -0.1 0.6 -0.2
v -0.1 1 -0.2
v -0.2 1 -0.3
v -0.2 1.1 -0.3
v -0.2 1.2 -0.3
v -0.2 1.4 -0.3
v 0 1 -0.3
v 0 1.1 -0.3
v 0 1.2 -0.3
v 0 1.4 -0.3
v -0.4 0 0.4
v -0.1 0 0.4
v -0.4 0 -0.1
v -0.3 0 -0.1
v -0.2 0 -0.1
v -0.1 0 -0.1
v -0.3 0 -0.2
v -0.2 0 -0.2
v -0.3 0.6 0.3
v -0.1 0.6 0.3
v -0.4 0.6 0.2
v -0.3 0.6 0.2
v -0.2 0.6 0.2
v -0.4 0.6 0.1
v -0.3 0.6 0.1
v -0.2 0.6 0.1
v -0.1 0.6 0.1
v -0.2 0.6 -0.1
v -0.1 0.6 -0.1
v -0.2 0.6 -0.2
v -0.1 0.6 -0.2
v -0.2 1 0.4
v 0 1 0.4
v -0.2 1 0.3
v -0.1 1 0.3
v 0 1 0.3
v -0.2 1 -0.2
v -0.1 1 -0.2
v 0 1 -0.2
v -0.2 1 -0.3
v 0 1 -0.3
v -0.1 1.1 0.2
v 0 1.1 0.2
v -0.1 1.1 -0.1
v 0 1.1 -0.1
v -0.1 1.3 0.3
v 0 1.3 0.3
v -0.1 1.3 0.2
v 0 1.3 0.2
v -0.1 1.3 -0.1
v 0 1.3 -0.1
v -0.1 1.3 -0.2
v 0 1.3 -0.2
v -0.4 0.1 0.4
v -0.1 0.1 0.4
v -0.3 0.1 0.2
v -0.2 0.1 0.2
v -0.4 0.1 0.1
v -0.3 0.1 0.1
v -0.2 0.1 0.1
v -0.1 0.1 0.1
v -0.2 1.4 0.4
v 0 1.4 0.4
v -0.3 1.4 0.3
v -0.2 1.4 0.3
v -0.4 1.4 0.2
v -0.3 1.4 0.2
v -0.4 1.4 -0.1
v -0.3 1.4 -0.1
v -0.3 1.4 -0.2
v -0.2 1.4 -0.2
v -0.2 1.4 -0.3
v 0 1.4 -0.3

# faces
f 3/4/1 2/4/1 1/4/1
f 4/4/1 2/4/1 3/4/1
f 5/4/1 2/4/1 4/4/1
f 7/1/1 5/1/1 4/1/1
f 8/1/1 7/1/1 6/1/1
f 9/1/1 5/1/1 7/1/1
f 9/1/1 7/1/1 8/1/1
f 10/5/1 9/5/1 8/5/1
f 11/5/1 9/5/1 10/5/1
f 12/2/1 11/2/1 10/2/1
f 13/2/1 11/2/1 12/2/1
f 14/3/1 13/3/1 12/3/1
f 15/3/1 13/3/1 14/3/1
f 20/4/1 17/4/1 16/4/1
f 21/4/1 17/4/1 20/4/1
f 23/1/1 19/1/1 18/1/1
f 24/1/1 19/1/1 23/1/1
f 25/1/1 23/1/1 22/1/1
f 26/1/1 23/1/1 25/1/1
f 27/1/1 21/1/1 20/1/1
f 28/1/1 21/1/1 27/1/1
f 29/5/1 26/5/1 25/5/1
f 30/5/1 26/5/1 29/5/1
f 31/5/1 28/5/1 27/5/1
f 32/5/1 28/5/1 31/5/1
f 33/2/1 30/2/1 29/2/1
f 34/2/1 30/2/1 33/2/1
f 35/2/1 32/2/1 31/2/1
f 36/2/1 32/2/1 35/2/1
f 37/3/1 34/3/1 33/3/1
f 38/3/1 34/3/1 37/3/1
f 39/3/1 36/3/1 35/3/1
f 40/3/1 36/3/1 39/3/1
f 45/5/1 42/5/1 41/5/1
f 46/5/1 42/5/1 45/5/1
f 47/5/1 44/5/1 43/5/1
f 48/5/1 44/5/1 47/5/1
f 49/2/1 46/2/1 45/2/1
f 50/2/1 46/2/1 49/2/1
f 51/2/1 48/2/1 47/2/1
f 52/2/1 48/2/1 51/2/1
f 53/3/1 50/3/1 49/3/1
f 54/3/1 50/3/1 53/3/1
f 55/3/1 52/3/1 51/3/1
f 56/3/1 52/3/1 55/3/1
f 57/4/2 58/4/2 61/4/2
f 61/4/2 58/4/2 62/4/2
f 59/1/2 60/1/2 63/1/2
f 63/1/2 60/1/2 64/1/2
f 61/1/2 62/1/2 65/1/2
f 65/1/2 62/1/2 66/1/2
f 67/4/2 68/4/2 69/4/2
f 69/4/2 68/4/2 70/4/2
f 70/4/2 68/4/2 71/4/2
f 70/1/2 71/1/2 73/1/2
f 73/1/2 71/1/2 74/1/2
f 73/1/2 74/1/2 76/1/2
f 74/1/2 75/1/2 76/1/2
f 72/1/2 73/1/2 76/1/2
f 76/1/2 75/1/2 77/1/2
f 76/1/2 77/1/2 78/1/2
f 78/1/2 77/1/2 79/1/2
f 79/1/2 77/1/2 80/1/2
f 80/1/2 77/1/2 81/1/2
f 78/1/2 79/1/2 82/1/2
f 80/1/2 81/1/2 83/1/2
f 82/1/2 79/1/2 84/1/2
f 84/1/2 79/1/2 85/1/2
f 80/1/2 83/1/2 86/1/2
f 86/1/2 83/1/2 87/1/2
f 88/5/2 89/5/2 92/5/2
f 92/5/2 89/5/2 93/5/2
f 90/5/2 91/5/2 96/5/2
f 96/5/2 91/5/2 97/5/2
f 92/2/2 93/2/2 98/2/2
f 98/2/2 93/2/2 99/2/2
f 96/2/2 97/2/2 100/2/2
f 100/2/2 97/2/2 101/2/2
f 98/3/2 99/3/2 102/3/2
f 94/1/2 95/1/2 103/1/2
f 103/1/2 95/1/2 104/1/2
f 100/3/2 101/3/2 105/3/2
f 98/3/2 102/3/2 106/3/2
f 104/3/2 105/3/2 106/3/2
f 103/3/2 104/3/2 106/3/2
f 102/3/2 103/3/2 106/3/2
f 105/3/2 101/3/2 107/3/2
f 106/3/2 105/3/2 107/3/2
f 114/4/3 109/4/3 108/4/3
f 115/4/3 109/4/3 114/4/3
f 116/5/3 111/5/3 110/5/3
f 117/2/3 112/2/3 111/2/3
f 117/5/3 111/5/3 116/5/3
f 118/3/3 113/3/3 112/3/3
f 118/2/3 112/2/3 117/2/3
f 119/3/3 113/3/3 118/3/3
f 125/1/3 121/1/3 120/1/3
f 125/5/3 122/5/3 121/5/3
f 126/2/3 123/2/3 122/2/3
f 126/5/3 122/5/3 125/5/3
f 127/3/3 124/3/3 123/3/3
f 127/2/3 123/2/3 126/2/3
f 128/3/3 124/3/3 127/3/3
f 129/1/3 125/1/3 120/1/3
f 130/1/3 125/1/3 129/1/3
f 137/1/3 132/1/3 131/1/3
f 138/5/3 133/5/3 132/5/3
f 138/1/3 132/1/3 137/1/3
f 139/2/3 134/2/3 133/2/3
f 139/5/3 133/5/3 138/5/3
f 140/3/3 135/3/3 134/3/3
f 140/2/3 134/2/3 139/2/3
f 141/3/3 135/3/3 140/3/3
f 142/1/3 137/1/3 136/1/3
f 143/1/3 137/1/3 142/1/3
f 146/1/3 145/1/3 144/1/3
f 147/1/3 145/1/3 146/1/3
f 150/1/3 149/1/3 148/1/3
f 151/1/3 149/1/3 150/1/3
f 154/1/3 153/1/3 152/1/3
f 155/1/3 153/1/3 154/1/3
f 160/5/3 157/5/3 156/5/3
f 161/2/3 158/2/3 157/2/3
f 161/5/3 157/5/3 160/5/3
f 162/3/3 159/3/3 158/3/3
f 162/2/3 158/2/3 161/2/3
f 163/3/3 159/3/3 162/3/3
f 164/5/4 165/5/4 168/5/4
f 165/2/4 166/2/4 169/2/4
f 168/5/4 165/5/4 169/5/4
f 166/3/4 167/3/4 170/3/4
f 169/2/4 166/2/4 170/2/4
f 170/3/4 167/3/4 171/3/4
f 172/4/4 173/4/4 178/4/4
f 173/1/4 174/1/4 179/1/4
f 178/4/4 173/4/4 179/4/4
f 174/5/4 175/5/4 180/5/4
f 179/1/4 174/1/4 180/1/4
f 175/2/4 176/2/4 181/2/4
f 180/5/4 175/5/4 181/5/4
f 176/3/4 177/3/4 182/3/4
f 181/2/4 176/2/4 182/2/4
f 182/3/4 177/3/4 183/3/4
f 184/4/4 185/4/4 187/4/4
f 185/1/4 186/1/4 188/1/4
f 187/4/4 185/4/4 188/4/4
f 188/1/4 186/1/4 189/1/4
f 190/1/4 191/1/4 192/1/4
f 192/1/4 191/1/4 193/1/4
f 194/4/4 195/4/4 200/4/4
f 195/1/4 196/1/4 201/1/4
f 200/4/4 195/4/4 201/4/4
f 201/1/4 196/1/4 202/1/4
f 196/5/4 197/5/4 203/5/4
f 202/1/4 196/1/4 203/1/4
f 197/2/4 198/2/4 204/2/4
f 203/5/4 197/5/4 204/5/4
f 198/3/4 199/3/4 205/3/4
f 204/2/4 198/2/4 205/2/4
f 205/3/4 199/3/4 206/3/4
f 202/1/4 203/1/4 207/1/4
f 207/1/4 203/1/4 208/1/4
f 209/5/4 210/5/4 213/5/4
f 210/2/4 211/2/4 214/2/4
f 213/5/4 210/5/4 214/5/4
f 211/3/4 212/3/4 215/3/4
f 214/2/4 211/2/4 215/2/4
f 215/3/4 212/3/4 216/3/4
f 219/4/5 218/4/5 217/4/5
f 220/4/5 218/4/5 219/4/5
f 221/4/5 218/4/5 220/4/5
f 222/4/5 218/4/5 221/4/5
f 223/4/5 221/4/5 220/4/5
f 224/4/5 221/4/5 223/4/5
f 228/1/5 226/1/5 225/1/5
f 229/1/5 226/1/5 228/1/5
f 230/1/5 228/1/5 227/1/5
f 231/1/5 228/1/5 230/1/5
f 232/1/5 226/1/5 229/1/5
f 233/1/5 226/1/5 232/1/5
f 236/1/5 235/1/5 234/1/5
f 237/1/5 235/1/5 236/1/5
f 240/5/5 239/5/5 238/5/5
f 241/5/5 239/5/5 240/5/5
f 242/5/5 239/5/5 241/5/5
f 246/5/5 244/5/5 243/5/5
f 246/5/5 245/5/5 244/5/5
f 247/5/5 245/5/5 246/5/5
f 250/1/5 249/1/5 248/1/5
f 251/1/5 249/1/5 250/1/5
f 254/3/5 253/3/5 252/3/5
f 255/3/5 253/3/5 254/3/5
f 258/3/5 257/3/5 256/3/5
f 259/3/5 257/3/5 258/3/5
f 260/4/6 261/4/6 262/4/6
f 262/4/6 261/4/6 263/4/6
f 260/4/6 262/4/6 264/4/6
f 264/4/6 262/4/6 265/4/6
f 263/4/6 261/4/6 266/4/6
f 266/4/6 261/4/6 267/4/6
f 268/3/6 269/3/6 271/3/6
f 270/3/6 271/3/6 273/3/6
f 272/3/6 273/3/6 274/3/6
f 273/3/6 271/3/6 275/3/6
f 274/3/6 273/3/6 275/3/6
f 275/3/6 271/3/6 276/3/6
f 271/3/6 269/3/6 277/3/6
f 276/3/6 271/3/6 277/3/6
f 277/3/6 269/3/6 278/3/6
f 278/3/6 269/3/6 279/3/6
