# MagicaVoxel @ Ephtracy

# group
o helm_med_3b_ja

# material
mtllib humanoid-204-helm_med_3b_ja.mtl
usemtl palette

# normals
vn -1 0 0
vn 1 0 0
vn 0 0 1
vn 0 0 -1
vn 0 -1 0
vn 0 1 0

# texcoords
vt 0.916016 0.5
vt 0.958984 0.5
vt 0.962891 0.5

# verts
v -0.3 2.6 0.3
v -0.3 2.6 -0.2
v -0.3 2.9 0.4
v -0.3 2.9 0.3
v -0.3 3 0.3
v -0.3 3 -0.2
v -0.3 3.1 0.4
v -0.3 3.1 0.3
v -0.3 3.2 0.3
v -0.3 3.2 -0.2
v -0.2 2.6 -0.2
v -0.2 2.6 -0.3
v -0.2 2.8 0.4
v -0.2 2.8 0.3
v -0.2 2.9 0.4
v -0.2 2.9 0.3
v -0.2 3 -0.2
v -0.2 3 -0.3
v -0.2 3.1 0.4
v -0.2 3.1 0.3
v -0.2 3.2 0.4
v -0.2 3.2 0.3
v -0.2 3.2 -0.2
v -0.2 3.2 -0.3
v -0.2 3.3 0.3
v -0.2 3.3 -0.2
v -0.1 2.7 0.4
v -0.1 2.7 0.3
v -0.1 2.8 0.4
v -0.1 2.8 0.3
v -0.1 2.9 0.4
v -0.1 2.9 0.3
v -0.1 3 0.4
v -0.1 3 0.3
v -0.1 3.2 0.4
v -0.1 3.2 0.3
v -0.1 3.2 -0.2
v -0.1 3.2 -0.3
v -0.1 3.3 0.4
v -0.1 3.3 0.3
v -0.1 3.3 -0.2
v -0.1 3.3 -0.3
v -0.1 3.4 0.3
v -0.1 3.4 -0.2
v 0.2 2.6 0.3
v 0.2 2.6 -0.2
v 0.2 2.8 0.3
v 0.2 2.9 0.4
v 0.2 2.9 0.3
v 0.2 3 0.4
v 0.2 3 0.3
v 0.2 3 -0.2
v 0.2 3.1 0.3
v 0.2 3.1 0.2
v 0.2 3.2 0.2
v 0.2 3.2 -0.2
v -0.2 2.6 0.3
v -0.2 2.6 -0.2
v -0.2 2.8 0.3
v -0.2 2.9 0.4
v -0.2 2.9 0.3
v -0.2 3 0.4
v -0.2 3 0.3
v -0.2 3 -0.2
v -0.2 3.1 0.3
v -0.2 3.1 0.2
v -0.2 3.2 0.2
v -0.2 3.2 -0.2
v 0.1 2.7 0.4
v 0.1 2.7 0.3
v 0.1 2.8 0.4
v 0.1 2.8 0.3
v 0.1 2.9 0.4
v 0.1 2.9 0.3
v 0.1 3 0.4
v 0.1 3 0.3
v 0.1 3.2 0.4
v 0.1 3.2 0.3
v 0.1 3.2 -0.2
v 0.1 3.2 -0.3
v 0.1 3.3 0.4
v 0.1 3.3 0.3
v 0.1 3.3 -0.2
v 0.1 3.3 -0.3
v 0.1 3.4 0.3
v 0.1 3.4 -0.2
v 0.2 2.6 -0.2
v 0.2 2.6 -0.3
v 0.2 2.8 0.4
v 0.2 2.8 0.3
v 0.2 2.9 0.4
v 0.2 2.9 0.3
v 0.2 3 -0.2
v 0.2 3 -0.3
v 0.2 3.1 0.4
v 0.2 3.1 0.3
v 0.2 3.2 0.4
v 0.2 3.2 0.3
v 0.2 3.2 -0.2
v 0.2 3.2 -0.3
v 0.2 3.3 0.3
v 0.2 3.3 -0.2
v 0.3 2.6 0.3
v 0.3 2.6 -0.2
v 0.3 2.9 0.4
v 0.3 2.9 0.3
v 0.3 3 0.3
v 0.3 3 -0.2
v 0.3 3.1 0.4
v 0.3 3.1 0.3
v 0.3 3.2 0.3
v 0.3 3.2 -0.2
v -0.3 2.9 0.4
v -0.3 3.1 0.4
v -0.2 2.8 0.4
v -0.2 2.9 0.4
v -0.2 3 0.4
v -0.2 3.1 0.4
v -0.2 3.2 0.4
v -0.1 2.7 0.4
v -0.1 2.8 0.4
v -0.1 2.9 0.4
v -0.1 3 0.4
v -0.1 3.2 0.4
v -0.1 3.3 0.4
v 0.1 2.7 0.4
v 0.1 2.8 0.4
v 0.1 2.9 0.4
v 0.1 3 0.4
v 0.1 3.2 0.4
v 0.1 3.3 0.4
v 0.2 2.8 0.4
v 0.2 2.9 0.4
v 0.2 3 0.4
v 0.2 3.1 0.4
v 0.2 3.2 0.4
v 0.3 2.9 0.4
v 0.3 3.1 0.4
v -0.3 2.6 0.3
v -0.3 2.9 0.3
v -0.3 3.1 0.3
v -0.3 3.2 0.3
v -0.2 2.6 0.3
v -0.2 2.8 0.3
v -0.2 2.9 0.3
v -0.2 3.1 0.3
v -0.2 3.2 0.3
v -0.2 3.3 0.3
v -0.1 3.2 0.3
v -0.1 3.3 0.3
v -0.1 3.4 0.3
v 0.1 3.2 0.3
v 0.1 3.3 0.3
v 0.1 3.4 0.3
v 0.2 2.6 0.3
v 0.2 2.8 0.3
v 0.2 2.9 0.3
v 0.2 3.1 0.3
v 0.2 3.2 0.3
v 0.2 3.3 0.3
v 0.3 2.6 0.3
v 0.3 2.9 0.3
v 0.3 3.1 0.3
v 0.3 3.2 0.3
v -0.2 2.6 -0.2
v -0.2 3 -0.2
v -0.2 3.2 -0.2
v -0.1 3.2 -0.2
v 0.1 3.2 -0.2
v 0.2 2.6 -0.2
v 0.2 3 -0.2
v 0.2 3.2 -0.2
v -0.2 2.8 0.3
v -0.2 2.9 0.3
v -0.2 3 0.3
v -0.2 3.1 0.3
v -0.1 2.7 0.3
v -0.1 2.8 0.3
v -0.1 2.9 0.3
v -0.1 3 0.3
v -0.1 3.1 0.3
v 0.1 2.7 0.3
v 0.1 2.8 0.3
v 0.1 2.9 0.3
v 0.1 3 0.3
v 0.1 3.1 0.3
v 0.2 2.8 0.3
v 0.2 2.9 0.3
v 0.2 3 0.3
v 0.2 3.1 0.3
v -0.2 3.1 0.2
v -0.2 3.2 0.2
v -0.1 3.1 0.2
v -0.1 3.2 0.2
v 0.1 3.1 0.2
v 0.1 3.2 0.2
v 0.2 3.1 0.2
v 0.2 3.2 0.2
v -0.3 2.6 -0.2
v -0.3 3 -0.2
v -0.3 3.2 -0.2
v -0.2 2.6 -0.2
v -0.2 3 -0.2
v -0.2 3.2 -0.2
v -0.2 3.3 -0.2
v -0.1 3.2 -0.2
v -0.1 3.3 -0.2
v -0.1 3.4 -0.2
v 0.1 3.2 -0.2
v 0.1 3.3 -0.2
v 0.1 3.4 -0.2
v 0.2 2.6 -0.2
v 0.2 3 -0.2
v 0.2 3.2 -0.2
v 0.2 3.3 -0.2
v 0.3 2.6 -0.2
v 0.3 3 -0.2
v 0.3 3.2 -0.2
v -0.2 2.6 -0.3
v -0.2 3 -0.3
v -0.2 3.2 -0.3
v -0.1 3.2 -0.3
v -0.1 3.3 -0.3
v 0.1 3.2 -0.3
v 0.1 3.3 -0.3
v 0.2 2.6 -0.3
v 0.2 3 -0.3
v 0.2 3.2 -0.3
v -0.3 2.6 0.3
v -0.2 2.6 0.3
v 0.2 2.6 0.3
v 0.3 2.6 0.3
v -0.3 2.6 -0.2
v -0.2 2.6 -0.2
v 0.2 2.6 -0.2
v 0.3 2.6 -0.2
v -0.2 2.6 -0.3
v 0.2 2.6 -0.3
v -0.1 2.7 0.4
v 0.1 2.7 0.4
v -0.1 2.7 0.3
v 0.1 2.7 0.3
v -0.2 2.8 0.4
v -0.1 2.8 0.4
v 0.1 2.8 0.4
v 0.2 2.8 0.4
v -0.2 2.8 0.3
v -0.1 2.8 0.3
v 0.1 2.8 0.3
v 0.2 2.8 0.3
v -0.3 2.9 0.4
v -0.2 2.9 0.4
v 0.2 2.9 0.4
v 0.3 2.9 0.4
v -0.3 2.9 0.3
v -0.2 2.9 0.3
v 0.2 2.9 0.3
v 0.3 2.9 0.3
v -0.2 3 0.4
v -0.1 3 0.4
v 0.1 3 0.4
v 0.2 3 0.4
v -0.2 3 0.3
v -0.1 3 0.3
v 0.1 3 0.3
v 0.2 3 0.3
v -0.2 3.1 0.3
v -0.1 3.1 0.3
v 0.1 3.1 0.3
v 0.2 3.1 0.3
v -0.2 3.1 0.2
v -0.1 3.1 0.2
v 0.1 3.1 0.2
v 0.2 3.1 0.2
v -0.2 3.2 0.2
v -0.1 3.2 0.2
v 0.1 3.2 0.2
v 0.2 3.2 0.2
v -0.2 3.2 -0.2
v -0.1 3.2 -0.2
v 0.1 3.2 -0.2
v 0.2 3.2 -0.2
v -0.2 2.9 0.4
v -0.1 2.9 0.4
v 0.1 2.9 0.4
v 0.2 2.9 0.4
v -0.2 2.9 0.3
v -0.1 2.9 0.3
v 0.1 2.9 0.3
v 0.2 2.9 0.3
v -0.3 3.1 0.4
v -0.2 3.1 0.4
v 0.2 3.1 0.4
v 0.3 3.1 0.4
v -0.3 3.1 0.3
v -0.2 3.1 0.3
v 0.2 3.1 0.3
v 0.3 3.1 0.3
v -0.2 3.2 0.4
v -0.1 3.2 0.4
v 0.1 3.2 0.4
v 0.2 3.2 0.4
v -0.3 3.2 0.3
v -0.2 3.2 0.3
v -0.1 3.2 0.3
v 0.1 3.2 0.3
v 0.2 3.2 0.3
v 0.3 3.2 0.3
v -0.3 3.2 -0.2
v -0.2 3.2 -0.2
v -0.1 3.2 -0.2
v 0.1 3.2 -0.2
v 0.2 3.2 -0.2
v 0.3 3.2 -0.2
v -0.2 3.2 -0.3
v -0.1 3.2 -0.3
v 0.1 3.2 -0.3
v 0.2 3.2 -0.3
v -0.1 3.3 0.4
v 0.1 3.3 0.4
v -0.2 3.3 0.3
v -0.1 3.3 0.3
v 0.1 3.3 0.3
v 0.2 3.3 0.3
v -0.2 3.3 -0.2
v -0.1 3.3 -0.2
v 0.1 3.3 -0.2
v 0.2 3.3 -0.2
v -0.1 3.3 -0.3
v 0.1 3.3 -0.3
v -0.1 3.4 0.3
v 0.1 3.4 0.3
v -0.1 3.4 -0.2
v 0.1 3.4 -0.2

# faces
f 4/2/1 2/2/1 1/2/1
f 5/2/1 2/2/1 4/2/1
f 5/1/1 4/1/1 3/1/1
f 6/2/1 2/2/1 5/2/1
f 7/1/1 5/1/1 3/1/1
f 7/1/1 6/1/1 5/1/1
f 8/1/1 6/1/1 7/1/1
f 9/1/1 6/1/1 8/1/1
f 10/1/1 6/1/1 9/1/1
f 15/1/1 14/1/1 13/1/1
f 16/1/1 14/1/1 15/1/1
f 17/2/1 12/2/1 11/2/1
f 18/2/1 12/2/1 17/2/1
f 21/1/1 20/1/1 19/1/1
f 22/1/1 20/1/1 21/1/1
f 23/1/1 18/1/1 17/1/1
f 24/1/1 18/1/1 23/1/1
f 25/3/1 23/3/1 22/3/1
f 26/3/1 23/3/1 25/3/1
f 29/1/1 28/1/1 27/1/1
f 30/1/1 28/1/1 29/1/1
f 33/1/1 32/1/1 31/1/1
f 34/1/1 32/1/1 33/1/1
f 39/1/1 36/1/1 35/1/1
f 40/1/1 36/1/1 39/1/1
f 41/1/1 38/1/1 37/1/1
f 42/1/1 38/1/1 41/1/1
f 43/1/1 41/1/1 40/1/1
f 44/1/1 41/1/1 43/1/1
f 47/2/1 46/2/1 45/2/1
f 49/2/1 46/2/1 47/2/1
f 50/1/1 49/1/1 48/1/1
f 51/2/1 46/2/1 49/2/1
f 51/1/1 49/1/1 50/1/1
f 52/2/1 46/2/1 51/2/1
f 53/1/1 52/1/1 51/1/1
f 54/1/1 52/1/1 53/1/1
f 55/1/1 52/1/1 54/1/1
f 56/1/1 52/1/1 55/1/1
f 57/2/2 58/2/2 59/2/2
f 59/2/2 58/2/2 61/2/2
f 60/1/2 61/1/2 62/1/2
f 61/2/2 58/2/2 63/2/2
f 62/1/2 61/1/2 63/1/2
f 63/2/2 58/2/2 64/2/2
f 63/1/2 64/1/2 65/1/2
f 65/1/2 64/1/2 66/1/2
f 66/1/2 64/1/2 67/1/2
f 67/1/2 64/1/2 68/1/2
f 69/1/2 70/1/2 71/1/2
f 71/1/2 70/1/2 72/1/2
f 73/1/2 74/1/2 75/1/2
f 75/1/2 74/1/2 76/1/2
f 77/1/2 78/1/2 81/1/2
f 81/1/2 78/1/2 82/1/2
f 79/1/2 80/1/2 83/1/2
f 83/1/2 80/1/2 84/1/2
f 82/1/2 83/1/2 85/1/2
f 85/1/2 83/1/2 86/1/2
f 89/1/2 90/1/2 91/1/2
f 91/1/2 90/1/2 92/1/2
f 87/2/2 88/2/2 93/2/2
f 93/2/2 88/2/2 94/2/2
f 95/1/2 96/1/2 97/1/2
f 97/1/2 96/1/2 98/1/2
f 93/1/2 94/1/2 99/1/2
f 99/1/2 94/1/2 100/1/2
f 98/3/2 99/3/2 101/3/2
f 101/3/2 99/3/2 102/3/2
f 103/2/2 104/2/2 106/2/2
f 106/2/2 104/2/2 107/2/2
f 105/1/2 106/1/2 107/1/2
f 107/2/2 104/2/2 108/2/2
f 105/1/2 107/1/2 109/1/2
f 107/1/2 108/1/2 109/1/2
f 109/1/2 108/1/2 110/1/2
f 110/1/2 108/1/2 111/1/2
f 111/1/2 108/1/2 112/1/2
f 116/1/3 114/1/3 113/1/3
f 117/1/3 114/1/3 116/1/3
f 118/1/3 114/1/3 117/1/3
f 121/1/3 116/1/3 115/1/3
f 122/1/3 116/1/3 121/1/3
f 123/1/3 118/1/3 117/1/3
f 123/1/3 119/1/3 118/1/3
f 124/1/3 119/1/3 123/1/3
f 126/1/3 122/1/3 121/1/3
f 126/1/3 125/1/3 124/1/3
f 126/1/3 124/1/3 123/1/3
f 126/1/3 123/1/3 122/1/3
f 126/1/3 121/1/3 120/1/3
f 127/1/3 125/1/3 126/1/3
f 128/1/3 125/1/3 127/1/3
f 129/1/3 125/1/3 128/1/3
f 130/1/3 125/1/3 129/1/3
f 131/1/3 125/1/3 130/1/3
f 132/1/3 128/1/3 127/1/3
f 133/1/3 128/1/3 132/1/3
f 134/1/3 130/1/3 129/1/3
f 135/1/3 130/1/3 134/1/3
f 136/1/3 130/1/3 135/1/3
f 137/1/3 134/1/3 133/1/3
f 137/1/3 135/1/3 134/1/3
f 138/1/3 135/1/3 137/1/3
f 143/2/3 140/2/3 139/2/3
f 144/2/3 140/2/3 143/2/3
f 145/2/3 140/2/3 144/2/3
f 146/1/3 142/1/3 141/1/3
f 147/1/3 142/1/3 146/1/3
f 149/3/3 148/3/3 147/3/3
f 150/3/3 148/3/3 149/3/3
f 153/1/3 151/1/3 150/1/3
f 154/1/3 151/1/3 153/1/3
f 159/3/3 153/3/3 152/3/3
f 160/3/3 153/3/3 159/3/3
f 161/2/3 157/2/3 156/2/3
f 161/2/3 156/2/3 155/2/3
f 162/2/3 157/2/3 161/2/3
f 163/1/3 159/1/3 158/1/3
f 164/1/3 159/1/3 163/1/3
f 168/1/3 167/1/3 166/1/3
f 169/1/3 168/1/3 166/1/3
f 170/2/3 166/2/3 165/2/3
f 171/1/3 169/1/3 166/1/3
f 171/2/3 166/2/3 170/2/3
f 172/1/3 169/1/3 171/1/3
f 173/1/4 174/1/4 178/1/4
f 178/1/4 174/1/4 179/1/4
f 175/1/4 176/1/4 180/1/4
f 180/1/4 176/1/4 181/1/4
f 178/1/4 179/1/4 182/1/4
f 177/1/4 178/1/4 182/1/4
f 180/1/4 181/1/4 182/1/4
f 179/1/4 180/1/4 182/1/4
f 182/1/4 181/1/4 183/1/4
f 183/1/4 181/1/4 184/1/4
f 184/1/4 181/1/4 185/1/4
f 185/1/4 181/1/4 186/1/4
f 183/1/4 184/1/4 187/1/4
f 187/1/4 184/1/4 188/1/4
f 185/1/4 186/1/4 189/1/4
f 189/1/4 186/1/4 190/1/4
f 191/1/4 192/1/4 193/1/4
f 193/1/4 192/1/4 194/1/4
f 193/2/4 194/2/4 195/2/4
f 195/2/4 194/2/4 196/2/4
f 195/1/4 196/1/4 197/1/4
f 197/1/4 196/1/4 198/1/4
f 199/2/4 200/2/4 202/2/4
f 200/1/4 201/1/4 203/1/4
f 202/2/4 200/2/4 203/2/4
f 203/1/4 201/1/4 204/1/4
f 204/3/4 205/3/4 206/3/4
f 206/3/4 205/3/4 207/3/4
f 207/1/4 208/1/4 210/1/4
f 210/1/4 208/1/4 211/1/4
f 209/3/4 210/3/4 214/3/4
f 214/3/4 210/3/4 215/3/4
f 212/2/4 213/2/4 216/2/4
f 213/1/4 214/1/4 217/1/4
f 216/2/4 213/2/4 217/2/4
f 217/1/4 214/1/4 218/1/4
f 220/1/4 221/1/4 222/1/4
f 220/1/4 222/1/4 224/1/4
f 222/1/4 223/1/4 224/1/4
f 224/1/4 223/1/4 225/1/4
f 219/2/4 220/2/4 226/2/4
f 220/1/4 224/1/4 227/1/4
f 226/2/4 220/2/4 227/2/4
f 227/1/4 224/1/4 228/1/4
f 233/2/5 230/2/5 229/2/5
f 234/2/5 230/2/5 233/2/5
f 235/2/5 232/2/5 231/2/5
f 236/2/5 232/2/5 235/2/5
f 237/2/5 235/2/5 234/2/5
f 238/2/5 235/2/5 237/2/5
f 241/1/5 240/1/5 239/1/5
f 242/1/5 240/1/5 241/1/5
f 247/1/5 244/1/5 243/1/5
f 248/1/5 244/1/5 247/1/5
f 249/1/5 246/1/5 245/1/5
f 250/1/5 246/1/5 249/1/5
f 255/1/5 252/1/5 251/1/5
f 256/1/5 252/1/5 255/1/5
f 257/1/5 254/1/5 253/1/5
f 258/1/5 254/1/5 257/1/5
f 263/1/5 260/1/5 259/1/5
f 264/1/5 260/1/5 263/1/5
f 265/1/5 262/1/5 261/1/5
f 266/1/5 262/1/5 265/1/5
f 271/1/5 268/1/5 267/1/5
f 272/2/5 269/2/5 268/2/5
f 272/1/5 268/1/5 271/1/5
f 273/1/5 270/1/5 269/1/5
f 273/2/5 269/2/5 272/2/5
f 274/1/5 270/1/5 273/1/5
f 279/3/5 276/3/5 275/3/5
f 280/1/5 277/1/5 276/1/5
f 280/3/5 276/3/5 279/3/5
f 281/3/5 278/3/5 277/3/5
f 281/1/5 277/1/5 280/1/5
f 282/3/5 278/3/5 281/3/5
f 283/1/6 284/1/6 287/1/6
f 287/1/6 284/1/6 288/1/6
f 285/1/6 286/1/6 289/1/6
f 289/1/6 286/1/6 290/1/6
f 291/1/6 292/1/6 295/1/6
f 295/1/6 292/1/6 296/1/6
f 293/1/6 294/1/6 297/1/6
f 297/1/6 294/1/6 298/1/6
f 299/1/6 300/1/6 304/1/6
f 304/1/6 300/1/6 305/1/6
f 301/1/6 302/1/6 306/1/6
f 306/1/6 302/1/6 307/1/6
f 303/1/6 304/1/6 309/1/6
f 309/1/6 304/1/6 310/1/6
f 307/1/6 308/1/6 313/1/6
f 313/1/6 308/1/6 314/1/6
f 310/1/6 311/1/6 315/1/6
f 315/1/6 311/1/6 316/1/6
f 312/1/6 313/1/6 317/1/6
f 317/1/6 313/1/6 318/1/6
f 319/1/6 320/1/6 322/1/6
f 322/1/6 320/1/6 323/1/6
f 321/3/6 322/3/6 325/3/6
f 325/3/6 322/3/6 326/3/6
f 323/3/6 324/3/6 327/3/6
f 327/3/6 324/3/6 328/3/6
f 326/1/6 327/1/6 329/1/6
f 329/1/6 327/1/6 330/1/6
f 331/1/6 332/1/6 333/1/6
f 333/1/6 332/1/6 334/1/6
