# MagicaVoxel @ Ephtracy

# group
o legs_lgt_med_2b_sh_color

# material
mtllib humanoid-127-legs_lgt_med_2b_sh_color.mtl
usemtl palette

# normals
vn -1 0 0
vn 1 0 0
vn 0 0 1
vn 0 0 -1
vn 0 -1 0
vn 0 1 0

# texcoords
vt 0.466797 0.5
vt 0.470703 0.5
vt 0.482422 0.5
vt 0.494141 0.5
vt 0.697266 0.5

# verts
v -0.4 0 0.4
v -0.4 0 -0.1
v -0.4 0.1 0.4
v -0.4 0.1 0.1
v -0.4 0.1 -0.1
v -0.4 0.4 0.2
v -0.4 0.4 0.1
v -0.4 0.4 -0.1
v -0.4 0.5 0.2
v -0.4 0.5 -0.1
v -0.4 1.4 0.2
v -0.4 1.4 -0.1
v -0.3 0 -0.1
v -0.3 0 -0.2
v -0.3 0.1 0.2
v -0.3 0.1 0.1
v -0.3 0.1 -0.1
v -0.3 0.1 -0.2
v -0.3 0.4 0.3
v -0.3 0.4 0.2
v -0.3 0.4 0.1
v -0.3 0.4 -0.1
v -0.3 0.4 -0.2
v -0.3 0.5 0.3
v -0.3 0.5 0.2
v -0.3 0.5 -0.1
v -0.3 0.5 -0.2
v -0.3 1.4 0.3
v -0.3 1.4 0.2
v -0.3 1.4 -0.1
v -0.3 1.4 -0.2
v -0.2 0.4 0.4
v -0.2 0.4 0.3
v -0.2 0.4 -0.2
v -0.2 0.4 -0.3
v -0.2 0.5 0.4
v -0.2 0.5 0.3
v -0.2 0.5 -0.2
v -0.2 0.5 -0.3
v -0.2 1.4 0.4
v -0.2 1.4 0.3
v -0.2 1.4 -0.2
v -0.2 1.4 -0.3
v -0.2 0 -0.1
v -0.2 0 -0.2
v -0.2 0.1 0.2
v -0.2 0.1 0.1
v -0.2 0.1 -0.1
v -0.2 0.1 -0.2
v -0.2 0.4 0.3
v -0.2 0.4 0.2
v -0.2 0.4 0.1
v -0.2 0.4 -0.1
v -0.2 0.4 -0.2
v -0.2 0.5 0.3
v -0.2 0.5 0.2
v -0.2 0.5 0.1
v -0.2 0.5 0
v -0.2 0.5 -0.1
v -0.2 0.5 -0.2
v -0.2 0.6 0
v -0.2 0.6 -0.1
v -0.1 0 0.4
v -0.1 0 -0.1
v -0.1 0.1 0.4
v -0.1 0.1 0.1
v -0.1 0.1 -0.1
v -0.1 0.5 0.3
v -0.1 0.5 0.1
v -0.1 0.5 0
v -0.1 0.5 -0.1
v -0.1 0.5 -0.2
v -0.1 0.6 0
v -0.1 0.6 -0.1
v -0.1 1.1 0.2
v -0.1 1.1 -0.1
v -0.1 1.3 0.3
v -0.1 1.3 0.2
v -0.1 1.3 -0.1
v -0.1 1.3 -0.2
v 0 0.4 0.4
v 0 0.4 0.3
v 0 0.4 -0.2
v 0 0.4 -0.3
v 0 0.5 0.4
v 0 0.5 0.3
v 0 0.5 -0.2
v 0 0.5 -0.3
v 0 1.1 0.2
v 0 1.1 -0.1
v 0 1.3 0.3
v 0 1.3 0.2
v 0 1.3 -0.1
v 0 1.3 -0.2
v 0 1.4 0.4
v 0 1.4 -0.3
v -0.4 0 0.4
v -0.4 0.1 0.4
v -0.2 0.4 0.4
v -0.2 0.5 0.4
v -0.2 1.4 0.4
v -0.1 0 0.4
v -0.1 0.1 0.4
v 0 0.4 0.4
v 0 0.5 0.4
v 0 1.4 0.4
v -0.3 0.4 0.3
v -0.3 0.5 0.3
v -0.3 1.4 0.3
v -0.2 0.4 0.3
v -0.2 0.5 0.3
v -0.2 1.4 0.3
v -0.4 0.4 0.2
v -0.4 0.5 0.2
v -0.4 1.4 0.2
v -0.3 0.1 0.2
v -0.3 0.4 0.2
v -0.3 0.5 0.2
v -0.3 1.4 0.2
v -0.2 0.1 0.2
v -0.2 0.4 0.2
v -0.1 1.1 0.2
v -0.1 1.3 0.2
v 0 1.1 0.2
v 0 1.3 0.2
v -0.4 0.1 0.1
v -0.4 0.4 0.1
v -0.3 0.1 0.1
v -0.3 0.4 0.1
v -0.2 0.1 0.1
v -0.2 0.4 0.1
v -0.2 0.5 0.1
v -0.1 0.1 0.1
v -0.1 0.5 0.1
v -0.2 0.5 -0.1
v -0.2 0.6 -0.1
v -0.1 0.5 -0.1
v -0.1 0.6 -0.1
v -0.2 0.4 -0.2
v -0.2 0.5 -0.2
v -0.1 0.5 -0.2
v -0.1 1.3 -0.2
v 0 0.4 -0.2
v 0 0.5 -0.2
v 0 1.3 -0.2
v -0.2 0.4 0.3
v -0.2 0.5 0.3
v -0.1 0.5 0.3
v -0.1 1.3 0.3
v 0 0.4 0.3
v 0 0.5 0.3
v 0 1.3 0.3
v -0.2 0.5 0
v -0.2 0.6 0
v -0.1 0.5 0
v -0.1 0.6 0
v -0.4 0 -0.1
v -0.4 0.1 -0.1
v -0.4 0.4 -0.1
v -0.4 0.5 -0.1
v -0.4 1.4 -0.1
v -0.3 0 -0.1
v -0.3 0.1 -0.1
v -0.3 0.4 -0.1
v -0.3 0.5 -0.1
v -0.3 1.4 -0.1
v -0.2 0 -0.1
v -0.2 0.1 -0.1
v -0.2 0.4 -0.1
v -0.2 0.5 -0.1
v -0.1 0 -0.1
v -0.1 0.1 -0.1
v -0.1 0.5 -0.1
v -0.1 1.1 -0.1
v -0.1 1.3 -0.1
v 0 1.1 -0.1
v 0 1.3 -0.1
v -0.3 0 -0.2
v -0.3 0.1 -0.2
v -0.3 0.4 -0.2
v -0.3 0.5 -0.2
v -0.3 1.4 -0.2
v -0.2 0 -0.2
v -0.2 0.1 -0.2
v -0.2 0.4 -0.2
v -0.2 0.5 -0.2
v -0.2 1.4 -0.2
v -0.2 0.4 -0.3
v -0.2 0.5 -0.3
v -0.2 1.4 -0.3
v 0 0.4 -0.3
v 0 0.5 -0.3
v 0 1.4 -0.3
v -0.4 0 0.4
v -0.1 0 0.4
v -0.4 0 -0.1
v -0.3 0 -0.1
v -0.2 0 -0.1
v -0.1 0 -0.1
v -0.3 0 -0.2
v -0.2 0 -0.2
v -0.2 0.4 0.4
v 0 0.4 0.4
v -0.3 0.4 0.3
v -0.2 0.4 0.3
v 0 0.4 0.3
v -0.4 0.4 0.2
v -0.3 0.4 0.2
v -0.2 0.4 0.2
v -0.4 0.4 0.1
v -0.3 0.4 0.1
v -0.2 0.4 -0.2
v 0 0.4 -0.2
v -0.2 0.4 -0.3
v 0 0.4 -0.3
v -0.2 0.5 0.3
v -0.1 0.5 0.3
v -0.2 0.5 0.2
v -0.2 0.5 0.1
v -0.1 0.5 0.1
v -0.2 0.5 -0.1
v -0.1 0.5 -0.1
v -0.2 0.5 -0.2
v -0.1 0.5 -0.2
v -0.2 0.6 0
v -0.1 0.6 0
v -0.2 0.6 -0.1
v -0.1 0.6 -0.1
v -0.1 1.1 0.2
v 0 1.1 0.2
v -0.1 1.1 -0.1
v 0 1.1 -0.1
v -0.1 1.3 0.3
v 0 1.3 0.3
v -0.1 1.3 0.2
v 0 1.3 0.2
v -0.1 1.3 -0.1
v 0 1.3 -0.1
v -0.1 1.3 -0.2
v 0 1.3 -0.2
v -0.4 0.1 0.4
v -0.1 0.1 0.4
v -0.3 0.1 0.2
v -0.2 0.1 0.2
v -0.4 0.1 0.1
v -0.3 0.1 0.1
v -0.2 0.1 0.1
v -0.1 0.1 0.1
v -0.2 0.5 0
v -0.1 0.5 0
v -0.2 0.5 -0.1
v -0.1 0.5 -0.1
v -0.2 1.4 0.4
v 0 1.4 0.4
v -0.3 1.4 0.3
v -0.2 1.4 0.3
v -0.4 1.4 0.2
v -0.3 1.4 0.2
v -0.4 1.4 -0.1
v -0.3 1.4 -0.1
v -0.3 1.4 -0.2
v -0.2 1.4 -0.2
v -0.2 1.4 -0.3
v 0 1.4 -0.3

# faces
f 3/5/1 2/5/1 1/5/1
f 4/5/1 2/5/1 3/5/1
f 5/5/1 2/5/1 4/5/1
f 7/3/1 5/3/1 4/3/1
f 8/3/1 5/3/1 7/3/1
f 9/1/1 7/1/1 6/1/1
f 9/1/1 8/1/1 7/1/1
f 10/1/1 8/1/1 9/1/1
f 11/4/1 10/4/1 9/4/1
f 12/4/1 10/4/1 11/4/1
f 17/5/1 14/5/1 13/5/1
f 18/5/1 14/5/1 17/5/1
f 20/3/1 16/3/1 15/3/1
f 21/3/1 16/3/1 20/3/1
f 22/3/1 18/3/1 17/3/1
f 23/3/1 18/3/1 22/3/1
f 24/1/1 20/1/1 19/1/1
f 25/1/1 20/1/1 24/1/1
f 26/1/1 23/1/1 22/1/1
f 27/1/1 23/1/1 26/1/1
f 28/4/1 25/4/1 24/4/1
f 29/4/1 25/4/1 28/4/1
f 30/4/1 27/4/1 26/4/1
f 31/4/1 27/4/1 30/4/1
f 36/1/1 33/1/1 32/1/1
f 37/1/1 33/1/1 36/1/1
f 38/1/1 35/1/1 34/1/1
f 39/1/1 35/1/1 38/1/1
f 40/4/1 37/4/1 36/4/1
f 41/4/1 37/4/1 40/4/1
f 42/4/1 39/4/1 38/4/1
f 43/4/1 39/4/1 42/4/1
f 44/5/2 45/5/2 48/5/2
f 48/5/2 45/5/2 49/5/2
f 46/3/2 47/3/2 51/3/2
f 51/3/2 47/3/2 52/3/2
f 48/3/2 49/3/2 53/3/2
f 53/3/2 49/3/2 54/3/2
f 50/1/2 51/1/2 55/1/2
f 51/4/2 52/4/2 56/4/2
f 55/1/2 51/1/2 56/1/2
f 56/4/2 52/4/2 57/4/2
f 53/1/2 54/1/2 59/1/2
f 59/1/2 54/1/2 60/1/2
f 58/2/2 59/2/2 61/2/2
f 61/2/2 59/2/2 62/2/2
f 63/5/2 64/5/2 65/5/2
f 65/5/2 64/5/2 66/5/2
f 66/5/2 64/5/2 67/5/2
f 66/3/2 67/3/2 69/3/2
f 69/3/2 67/3/2 70/3/2
f 70/3/2 67/3/2 71/3/2
f 68/2/2 69/2/2 73/2/2
f 69/2/2 70/2/2 73/2/2
f 71/2/2 72/2/2 74/2/2
f 68/2/2 73/2/2 75/2/2
f 73/2/2 74/2/2 75/2/2
f 74/2/2 72/2/2 76/2/2
f 75/2/2 74/2/2 76/2/2
f 68/2/2 75/2/2 77/2/2
f 77/2/2 75/2/2 78/2/2
f 76/2/2 72/2/2 79/2/2
f 79/2/2 72/2/2 80/2/2
f 81/1/2 82/1/2 85/1/2
f 85/1/2 82/1/2 86/1/2
f 83/1/2 84/1/2 87/1/2
f 87/1/2 84/1/2 88/1/2
f 85/4/2 86/4/2 91/4/2
f 89/2/2 90/2/2 92/2/2
f 92/2/2 90/2/2 93/2/2
f 87/4/2 88/4/2 94/4/2
f 85/4/2 91/4/2 95/4/2
f 93/4/2 94/4/2 95/4/2
f 92/4/2 93/4/2 95/4/2
f 91/4/2 92/4/2 95/4/2
f 94/4/2 88/4/2 96/4/2
f 95/4/2 94/4/2 96/4/2
f 102/5/3 98/5/3 97/5/3
f 103/5/3 98/5/3 102/5/3
f 104/1/3 100/1/3 99/1/3
f 105/4/3 101/4/3 100/4/3
f 105/1/3 100/1/3 104/1/3
f 106/4/3 101/4/3 105/4/3
f 110/1/3 108/1/3 107/1/3
f 111/4/3 109/4/3 108/4/3
f 111/1/3 108/1/3 110/1/3
f 112/4/3 109/4/3 111/4/3
f 117/1/3 114/1/3 113/1/3
f 118/4/3 115/4/3 114/4/3
f 118/1/3 114/1/3 117/1/3
f 119/4/3 115/4/3 118/4/3
f 120/3/3 117/3/3 116/3/3
f 121/3/3 117/3/3 120/3/3
f 124/2/3 123/2/3 122/2/3
f 125/2/3 123/2/3 124/2/3
f 128/3/3 127/3/3 126/3/3
f 129/3/3 127/3/3 128/3/3
f 133/3/3 131/3/3 130/3/3
f 133/3/3 132/3/3 131/3/3
f 134/3/3 132/3/3 133/3/3
f 137/2/3 136/2/3 135/2/3
f 138/2/3 136/2/3 137/2/3
f 141/1/3 140/1/3 139/1/3
f 143/1/3 141/1/3 139/1/3
f 144/4/3 142/4/3 141/4/3
f 144/1/3 141/1/3 143/1/3
f 145/4/3 142/4/3 144/4/3
f 146/1/4 147/1/4 148/1/4
f 146/1/4 148/1/4 150/1/4
f 148/4/4 149/4/4 151/4/4
f 150/1/4 148/1/4 151/1/4
f 151/4/4 149/4/4 152/4/4
f 153/2/4 154/2/4 155/2/4
f 155/2/4 154/2/4 156/2/4
f 157/5/4 158/5/4 162/5/4
f 158/3/4 159/3/4 163/3/4
f 162/5/4 158/5/4 163/5/4
f 159/1/4 160/1/4 164/1/4
f 163/3/4 159/3/4 164/3/4
f 160/4/4 161/4/4 165/4/4
f 164/1/4 160/1/4 165/1/4
f 165/4/4 161/4/4 166/4/4
f 167/5/4 168/5/4 171/5/4
f 169/3/4 170/3/4 172/3/4
f 171/5/4 168/5/4 172/5/4
f 168/3/4 169/3/4 172/3/4
f 172/3/4 170/3/4 173/3/4
f 174/2/4 175/2/4 176/2/4
f 176/2/4 175/2/4 177/2/4
f 178/5/4 179/5/4 183/5/4
f 179/3/4 180/3/4 184/3/4
f 183/5/4 179/5/4 184/5/4
f 180/1/4 181/1/4 185/1/4
f 184/3/4 180/3/4 185/3/4
f 181/4/4 182/4/4 186/4/4
f 185/1/4 181/1/4 186/1/4
f 186/4/4 182/4/4 187/4/4
f 188/1/4 189/1/4 191/1/4
f 189/4/4 190/4/4 192/4/4
f 191/1/4 189/1/4 192/1/4
f 192/4/4 190/4/4 193/4/4
f 196/5/5 195/5/5 194/5/5
f 197/5/5 195/5/5 196/5/5
f 198/5/5 195/5/5 197/5/5
f 199/5/5 195/5/5 198/5/5
f 200/5/5 198/5/5 197/5/5
f 201/5/5 198/5/5 200/5/5
f 205/1/5 203/1/5 202/1/5
f 206/1/5 203/1/5 205/1/5
f 208/1/5 205/1/5 204/1/5
f 209/1/5 205/1/5 208/1/5
f 210/1/5 208/1/5 207/1/5
f 211/1/5 208/1/5 210/1/5
f 214/1/5 213/1/5 212/1/5
f 215/1/5 213/1/5 214/1/5
f 218/2/5 217/2/5 216/2/5
f 219/2/5 217/2/5 218/2/5
f 220/2/5 217/2/5 219/2/5
f 223/2/5 222/2/5 221/2/5
f 224/2/5 222/2/5 223/2/5
f 227/2/5 226/2/5 225/2/5
f 228/2/5 226/2/5 227/2/5
f 231/2/5 230/2/5 229/2/5
f 232/2/5 230/2/5 231/2/5
f 235/4/5 234/4/5 233/4/5
f 236/4/5 234/4/5 235/4/5
f 239/4/5 238/4/5 237/4/5
f 240/4/5 238/4/5 239/4/5
f 241/5/6 242/5/6 243/5/6
f 243/5/6 242/5/6 244/5/6
f 241/5/6 243/5/6 245/5/6
f 245/5/6 243/5/6 246/5/6
f 244/5/6 242/5/6 247/5/6
f 247/5/6 242/5/6 248/5/6
f 249/3/6 250/3/6 251/3/6
f 251/3/6 250/3/6 252/3/6
f 253/4/6 254/4/6 256/4/6
f 255/4/6 256/4/6 258/4/6
f 257/4/6 258/4/6 259/4/6
f 258/4/6 256/4/6 260/4/6
f 259/4/6 258/4/6 260/4/6
f 260/4/6 256/4/6 261/4/6
f 256/4/6 254/4/6 262/4/6
f 261/4/6 256/4/6 262/4/6
f 262/4/6 254/4/6 263/4/6
f 263/4/6 254/4/6 264/4/6
