# MagicaVoxel @ Ephtracy

# group
o axe

# material
mtllib humanoid-5-axe.mtl
usemtl palette

# normals
vn 0 0 -1
vn 0 0 1
vn 0 1 0
vn 0 -1 0
vn -1 0 0
vn 1 0 0

# texcoords
vt 0.794922 0.5
vt 0.958984 0.5
vt 0.966797 0.5

# verts
v -0.6 3.2 0.5
v -0.6 3.1 0.5
v -0.6 2.9 0.5
v -0.6 1.1 0.5
v -0.5 3.2 0.5
v -0.5 3.1 0.5
v -0.5 2.9 0.5
v -0.5 1.1 0.5
v -0.6 3.2 0.7
v -0.6 3.1 0.7
v -0.6 2.9 0.7
v -0.6 2.7 0.7
v -0.6 2.6 0.7
v -0.5 3.2 0.7
v -0.5 3.1 0.7
v -0.5 2.9 0.7
v -0.5 2.7 0.7
v -0.5 2.6 0.7
v -0.6 3.2 0.6
v -0.6 3.1 0.6
v -0.6 2.9 0.6
v -0.6 1.1 0.6
v -0.5 3.2 0.6
v -0.5 3.1 0.6
v -0.5 2.9 0.6
v -0.5 1.1 0.6
v -0.6 3.2 0.8
v -0.6 3.1 0.8
v -0.6 2.7 0.8
v -0.6 2.6 0.8
v -0.5 3.2 0.8
v -0.5 3.1 0.8
v -0.5 2.7 0.8
v -0.5 2.6 0.8
v -0.6 3.1 0.9
v -0.6 2.7 0.9
v -0.5 3.1 0.9
v -0.5 2.7 0.9
v -0.6 3.2 0.5
v -0.5 3.2 0.5
v -0.6 3.2 0.6
v -0.5 3.2 0.6
v -0.6 3.2 0.7
v -0.5 3.2 0.7
v -0.6 3.2 0.8
v -0.5 3.2 0.8
v -0.6 3.1 0.6
v -0.5 3.1 0.6
v -0.6 3.1 0.7
v -0.5 3.1 0.7
v -0.6 3.1 0.8
v -0.5 3.1 0.8
v -0.6 3.1 0.9
v -0.5 3.1 0.9
v -0.6 2.9 0.6
v -0.5 2.9 0.6
v -0.6 2.9 0.7
v -0.5 2.9 0.7
v -0.6 2.7 0.8
v -0.5 2.7 0.8
v -0.6 2.7 0.9
v -0.5 2.7 0.9
v -0.6 2.6 0.7
v -0.5 2.6 0.7
v -0.6 2.6 0.8
v -0.5 2.6 0.8
v -0.6 1.1 0.5
v -0.5 1.1 0.5
v -0.6 1.1 0.6
v -0.5 1.1 0.6
v -0.6 3.2 0.5
v -0.6 3.2 0.6
v -0.6 3.2 0.7
v -0.6 3.2 0.8
v -0.6 3.1 0.5
v -0.6 3.1 0.6
v -0.6 3.1 0.7
v -0.6 3.1 0.8
v -0.6 3.1 0.9
v -0.6 2.9 0.5
v -0.6 2.9 0.6
v -0.6 2.9 0.7
v -0.6 2.7 0.7
v -0.6 2.7 0.8
v -0.6 2.7 0.9
v -0.6 2.6 0.7
v -0.6 2.6 0.8
v -0.6 1.1 0.5
v -0.6 1.1 0.6
v -0.5 3.2 0.5
v -0.5 3.2 0.6
v -0.5 3.2 0.7
v -0.5 3.2 0.8
v -0.5 3.1 0.5
v -0.5 3.1 0.6
v -0.5 3.1 0.7
v -0.5 3.1 0.8
v -0.5 3.1 0.9
v -0.5 2.9 0.5
v -0.5 2.9 0.6
v -0.5 2.9 0.7
v -0.5 2.7 0.7
v -0.5 2.7 0.8
v -0.5 2.7 0.9
v -0.5 2.6 0.7
v -0.5 2.6 0.8
v -0.5 1.1 0.5
v -0.5 1.1 0.6

# faces
f 5/1/1 2/1/1 1/1/1
f 6/2/1 3/2/1 2/2/1
f 6/1/1 2/1/1 5/1/1
f 7/1/1 4/1/1 3/1/1
f 7/2/1 3/2/1 6/2/1
f 8/1/1 4/1/1 7/1/1
f 14/3/1 10/3/1 9/3/1
f 15/3/1 10/3/1 14/3/1
f 16/2/1 12/2/1 11/2/1
f 17/3/1 13/3/1 12/3/1
f 17/2/1 12/2/1 16/2/1
f 18/3/1 13/3/1 17/3/1
f 19/1/2 20/1/2 23/1/2
f 23/1/2 20/1/2 24/1/2
f 21/1/2 22/1/2 25/1/2
f 25/1/2 22/1/2 26/1/2
f 27/3/2 28/3/2 31/3/2
f 31/3/2 28/3/2 32/3/2
f 29/3/2 30/3/2 33/3/2
f 33/3/2 30/3/2 34/3/2
f 35/3/2 36/3/2 37/3/2
f 37/3/2 36/3/2 38/3/2
f 41/1/3 40/1/3 39/1/3
f 42/1/3 40/1/3 41/1/3
f 45/3/3 44/3/3 43/3/3
f 46/3/3 44/3/3 45/3/3
f 49/2/3 48/2/3 47/2/3
f 50/2/3 48/2/3 49/2/3
f 53/3/3 52/3/3 51/3/3
f 54/3/3 52/3/3 53/3/3
f 55/2/4 56/2/4 57/2/4
f 57/2/4 56/2/4 58/2/4
f 59/3/4 60/3/4 61/3/4
f 61/3/4 60/3/4 62/3/4
f 63/3/4 64/3/4 65/3/4
f 65/3/4 64/3/4 66/3/4
f 67/1/4 68/1/4 69/1/4
f 69/1/4 68/1/4 70/1/4
f 75/1/5 72/1/5 71/1/5
f 76/1/5 72/1/5 75/1/5
f 77/3/5 74/3/5 73/3/5
f 78/3/5 74/3/5 77/3/5
f 80/2/5 76/2/5 75/2/5
f 80/2/5 77/2/5 76/2/5
f 80/2/5 78/2/5 77/2/5
f 81/2/5 78/2/5 80/2/5
f 82/2/5 78/2/5 81/2/5
f 83/2/5 78/2/5 82/2/5
f 84/3/5 79/3/5 78/3/5
f 84/2/5 78/2/5 83/2/5
f 85/3/5 79/3/5 84/3/5
f 86/3/5 84/3/5 83/3/5
f 87/3/5 84/3/5 86/3/5
f 88/1/5 81/1/5 80/1/5
f 89/1/5 81/1/5 88/1/5
f 90/1/6 91/1/6 94/1/6
f 94/1/6 91/1/6 95/1/6
f 92/3/6 93/3/6 96/3/6
f 96/3/6 93/3/6 97/3/6
f 94/2/6 95/2/6 99/2/6
f 95/2/6 96/2/6 99/2/6
f 96/2/6 97/2/6 99/2/6
f 99/2/6 97/2/6 100/2/6
f 100/2/6 97/2/6 101/2/6
f 101/2/6 97/2/6 102/2/6
f 97/3/6 98/3/6 103/3/6
f 102/2/6 97/2/6 103/2/6
f 103/3/6 98/3/6 104/3/6
f 102/3/6 103/3/6 105/3/6
f 105/3/6 103/3/6 106/3/6
f 99/1/6 100/1/6 107/1/6
f 107/1/6 100/1/6 108/1/6
