# MagicaVoxel @ Ephtracy

# group
o head_short

# material
mtllib humanoid-282-head_short.mtl
usemtl palette

# normals
vn -1 0 0
vn 1 0 0
vn 0 0 1
vn 0 0 -1
vn 0 -1 0
vn 0 1 0

# texcoords
vt 0.615234 0.5
vt 0.884766 0.5
vt 0.892578 0.5

# verts
v -0.2 2.8 0.2
v -0.2 2.8 0
v -0.2 2.8 -0.1
v -0.2 2.9 0.2
v -0.2 2.9 0.1
v -0.2 2.9 -0.1
v -0.2 2.9 -0.2
v -0.2 3 0.3
v -0.2 3 0.2
v -0.2 3 0.1
v -0.2 3.1 0.3
v -0.2 3.1 0.2
v -0.2 3.1 0.1
v -0.2 3.1 0
v -0.2 3.2 0.2
v -0.2 3.2 0.1
v -0.2 3.2 -0.2
v -0.1 2.6 0.1
v -0.1 2.6 -0.1
v -0.1 2.7 0.2
v -0.1 2.7 0.1
v -0.1 2.8 0.3
v -0.1 2.8 0.2
v -0.1 2.8 0
v -0.1 2.8 -0.1
v -0.1 2.9 0.2
v -0.1 3 0.3
v -0.1 3 0.2
v 0.1 2.6 0.1
v 0.1 2.6 -0.1
v 0.1 2.7 0.2
v 0.1 2.7 0.1
v 0.1 2.8 0.3
v 0.1 2.8 0.2
v 0.1 2.8 0
v 0.1 2.8 -0.1
v 0.1 2.9 0.2
v 0.1 3 0.3
v 0.1 3 0.2
v 0.2 2.8 0.2
v 0.2 2.8 0
v 0.2 2.8 -0.1
v 0.2 2.9 0.2
v 0.2 2.9 0.1
v 0.2 2.9 -0.1
v 0.2 2.9 -0.2
v 0.2 3 0.3
v 0.2 3 0.2
v 0.2 3 0.1
v 0.2 3.1 0.3
v 0.2 3.1 0.2
v 0.2 3.1 0.1
v 0.2 3.1 0
v 0.2 3.2 0.2
v 0.2 3.2 0.1
v 0.2 3.2 -0.2
v -0.2 3 0.3
v -0.2 3.1 0.3
v -0.1 2.8 0.3
v -0.1 3 0.3
v -0.1 3.1 0.3
v 0.1 2.8 0.3
v 0.1 3 0.3
v 0.1 3.1 0.3
v 0.2 3 0.3
v 0.2 3.1 0.3
v -0.2 2.8 0.2
v -0.2 2.9 0.2
v -0.2 3 0.2
v -0.2 3.1 0.2
v -0.2 3.2 0.2
v -0.1 2.7 0.2
v -0.1 2.8 0.2
v -0.1 2.9 0.2
v -0.1 3 0.2
v -0.1 3.1 0.2
v 0.1 2.7 0.2
v 0.1 2.8 0.2
v 0.1 2.9 0.2
v 0.1 3 0.2
v 0.1 3.1 0.2
v 0.2 2.8 0.2
v 0.2 2.9 0.2
v 0.2 3 0.2
v 0.2 3.1 0.2
v 0.2 3.2 0.2
v -0.1 2.6 0.1
v -0.1 2.7 0.1
v 0.1 2.6 0.1
v 0.1 2.7 0.1
v -0.2 2.8 -0.1
v -0.2 2.9 -0.1
v -0.1 2.6 -0.1
v -0.1 2.8 -0.1
v 0.1 2.6 -0.1
v 0.1 2.8 -0.1
v 0.2 2.8 -0.1
v 0.2 2.9 -0.1
v -0.2 2.9 -0.2
v -0.2 3.2 -0.2
v 0.2 2.9 -0.2
v 0.2 3.2 -0.2
v -0.1 2.6 0.1
v 0.1 2.6 0.1
v -0.1 2.6 -0.1
v 0.1 2.6 -0.1
v -0.1 2.7 0.2
v 0.1 2.7 0.2
v -0.1 2.7 0.1
v 0.1 2.7 0.1
v -0.1 2.8 0.3
v 0.1 2.8 0.3
v -0.2 2.8 0.2
v -0.1 2.8 0.2
v 0.1 2.8 0.2
v 0.2 2.8 0.2
v -0.2 2.8 0
v -0.1 2.8 0
v 0.1 2.8 0
v 0.2 2.8 0
v -0.2 2.8 -0.1
v -0.1 2.8 -0.1
v 0.1 2.8 -0.1
v 0.2 2.8 -0.1
v -0.2 2.9 -0.1
v 0.2 2.9 -0.1
v -0.2 2.9 -0.2
v 0.2 2.9 -0.2
v -0.2 3 0.3
v -0.1 3 0.3
v 0.1 3 0.3
v 0.2 3 0.3
v -0.2 3 0.2
v -0.1 3 0.2
v 0.1 3 0.2
v 0.2 3 0.2
v -0.2 3.1 0.3
v -0.1 3.1 0.3
v 0.1 3.1 0.3
v 0.2 3.1 0.3
v -0.2 3.1 0.2
v -0.1 3.1 0.2
v 0.1 3.1 0.2
v 0.2 3.1 0.2
v -0.2 3.2 0.2
v 0.2 3.2 0.2
v -0.2 3.2 0.1
v 0.2 3.2 0.1
v -0.2 3.2 -0.2
v 0.2 3.2 -0.2

# faces
f 4/3/1 2/3/1 1/3/1
f 5/3/1 2/3/1 4/3/1
f 6/1/1 3/1/1 2/1/1
f 9/2/1 5/2/1 4/2/1
f 10/3/1 2/3/1 5/3/1
f 10/2/1 5/2/1 9/2/1
f 11/1/1 9/1/1 8/1/1
f 12/3/1 10/3/1 9/3/1
f 12/1/1 9/1/1 11/1/1
f 13/3/1 2/3/1 10/3/1
f 13/3/1 10/3/1 12/3/1
f 14/1/1 7/1/1 6/1/1
f 14/3/1 2/3/1 13/3/1
f 14/1/1 6/1/1 2/1/1
f 15/3/1 13/3/1 12/3/1
f 16/1/1 14/1/1 13/1/1
f 16/3/1 13/3/1 15/3/1
f 17/1/1 7/1/1 14/1/1
f 17/1/1 14/1/1 16/1/1
f 21/3/1 19/3/1 18/3/1
f 23/3/1 21/3/1 20/3/1
f 24/3/1 19/3/1 21/3/1
f 24/3/1 21/3/1 23/3/1
f 25/3/1 19/3/1 24/3/1
f 26/3/1 23/3/1 22/3/1
f 27/3/1 26/3/1 22/3/1
f 28/3/1 26/3/1 27/3/1
f 29/3/2 30/3/2 32/3/2
f 31/3/2 32/3/2 34/3/2
f 32/3/2 30/3/2 35/3/2
f 34/3/2 32/3/2 35/3/2
f 35/3/2 30/3/2 36/3/2
f 33/3/2 34/3/2 37/3/2
f 33/3/2 37/3/2 38/3/2
f 38/3/2 37/3/2 39/3/2
f 40/3/2 41/3/2 43/3/2
f 43/3/2 41/3/2 44/3/2
f 41/1/2 42/1/2 45/1/2
f 43/2/2 44/2/2 48/2/2
f 44/3/2 41/3/2 49/3/2
f 48/2/2 44/2/2 49/2/2
f 47/1/2 48/1/2 50/1/2
f 48/3/2 49/3/2 51/3/2
f 50/1/2 48/1/2 51/1/2
f 49/3/2 41/3/2 52/3/2
f 51/3/2 49/3/2 52/3/2
f 45/1/2 46/1/2 53/1/2
f 52/3/2 41/3/2 53/3/2
f 41/1/2 45/1/2 53/1/2
f 51/3/2 52/3/2 54/3/2
f 52/1/2 53/1/2 55/1/2
f 54/3/2 52/3/2 55/3/2
f 53/1/2 46/1/2 56/1/2
f 55/1/2 53/1/2 56/1/2
f 60/1/3 58/1/3 57/1/3
f 61/1/3 58/1/3 60/1/3
f 62/3/3 60/3/3 59/3/3
f 62/3/3 61/3/3 60/3/3
f 63/3/3 61/3/3 62/3/3
f 64/3/3 61/3/3 63/3/3
f 65/1/3 64/1/3 63/1/3
f 66/1/3 64/1/3 65/1/3
f 73/3/3 68/3/3 67/3/3
f 74/2/3 69/2/3 68/2/3
f 74/3/3 68/3/3 73/3/3
f 75/2/3 69/2/3 74/2/3
f 76/3/3 71/3/3 70/3/3
f 77/3/3 73/3/3 72/3/3
f 78/3/3 73/3/3 77/3/3
f 81/3/3 71/3/3 76/3/3
f 82/3/3 79/3/3 78/3/3
f 83/2/3 80/2/3 79/2/3
f 83/3/3 79/3/3 82/3/3
f 84/2/3 80/2/3 83/2/3
f 85/3/3 71/3/3 81/3/3
f 86/3/3 71/3/3 85/3/3
f 89/3/3 88/3/3 87/3/3
f 90/3/3 88/3/3 89/3/3
f 91/1/4 92/1/4 94/1/4
f 93/3/4 94/3/4 95/3/4
f 94/1/4 92/1/4 96/1/4
f 95/3/4 94/3/4 96/3/4
f 96/1/4 92/1/4 97/1/4
f 97/1/4 92/1/4 98/1/4
f 99/1/4 100/1/4 101/1/4
f 101/1/4 100/1/4 102/1/4
f 105/3/5 104/3/5 103/3/5
f 106/3/5 104/3/5 105/3/5
f 109/3/5 108/3/5 107/3/5
f 110/3/5 108/3/5 109/3/5
f 114/3/5 112/3/5 111/3/5
f 115/3/5 112/3/5 114/3/5
f 117/3/5 114/3/5 113/3/5
f 118/3/5 114/3/5 117/3/5
f 119/3/5 116/3/5 115/3/5
f 120/3/5 116/3/5 119/3/5
f 121/1/5 118/1/5 117/1/5
f 122/1/5 118/1/5 121/1/5
f 123/1/5 120/1/5 119/1/5
f 124/1/5 120/1/5 123/1/5
f 127/1/5 126/1/5 125/1/5
f 128/1/5 126/1/5 127/1/5
f 133/1/5 130/1/5 129/1/5
f 134/1/5 130/1/5 133/1/5
f 135/1/5 132/1/5 131/1/5
f 136/1/5 132/1/5 135/1/5
f 137/1/6 138/1/6 141/1/6
f 138/3/6 139/3/6 142/3/6
f 141/1/6 138/1/6 142/1/6
f 139/1/6 140/1/6 143/1/6
f 142/3/6 139/3/6 143/3/6
f 143/1/6 140/1/6 144/1/6
f 145/3/6 146/3/6 147/3/6
f 147/3/6 146/3/6 148/3/6
f 147/1/6 148/1/6 149/1/6
f 149/1/6 148/1/6 150/1/6
