# MagicaVoxel @ Ephtracy

# group
o chest_med_3_sh_ja_color

# material
mtllib humanoid-89-chest_med_3_sh_ja_color.mtl
usemtl palette

# normals
vn -1 0 0
vn 1 0 0
vn 0 0 1
vn 0 0 -1
vn 0 -1 0
vn 0 1 0

# texcoords
vt 0.482422 0.5
vt 0.494141 0.5
vt 0.697266 0.5
vt 0.701172 0.5
vt 0.892578 0.5
vt 0.916016 0.5
vt 0.955078 0.5

# verts
v -0.4 1.4 0.2
v -0.4 1.4 -0.1
v -0.4 1.6 0.2
v -0.4 1.6 -0.1
v -0.4 1.7 0.2
v -0.4 1.7 -0.1
v -0.4 1.9 0.2
v -0.4 1.9 -0.1
v -0.4 2 0.3
v -0.4 2 0.2
v -0.4 2 -0.1
v -0.4 2.1 -0.1
v -0.4 2.1 -0.2
v -0.4 2.4 0.3
v -0.4 2.4 -0.2
v -0.4 2.5 0.3
v -0.4 2.5 -0.2
v -0.3 1.4 0.3
v -0.3 1.4 0.2
v -0.3 1.4 -0.1
v -0.3 1.4 -0.2
v -0.3 1.6 0.3
v -0.3 1.6 0.2
v -0.3 1.6 -0.1
v -0.3 1.6 -0.2
v -0.3 1.7 0.3
v -0.3 1.7 0.2
v -0.3 1.7 -0.1
v -0.3 1.7 -0.2
v -0.3 1.9 0.4
v -0.3 1.9 0.3
v -0.3 1.9 0.2
v -0.3 1.9 -0.1
v -0.3 1.9 -0.2
v -0.3 1.9 -0.3
v -0.3 2 0.3
v -0.3 2 0.2
v -0.3 2 -0.1
v -0.3 2 -0.2
v -0.3 2.1 -0.1
v -0.3 2.1 -0.2
v -0.3 2.3 0.4
v -0.3 2.3 0.3
v -0.3 2.4 0.4
v -0.3 2.4 0.3
v -0.3 2.4 -0.2
v -0.3 2.4 -0.3
v -0.3 2.5 -0.2
v -0.3 2.5 -0.3
v -0.2 1.4 0.4
v -0.2 1.4 0.3
v -0.2 1.4 -0.2
v -0.2 1.4 -0.3
v -0.2 1.5 0.4
v -0.2 1.5 0.3
v -0.2 1.5 -0.2
v -0.2 1.5 -0.3
v -0.2 1.6 0.4
v -0.2 1.6 0.3
v -0.2 1.6 -0.2
v -0.2 1.6 -0.3
v -0.2 1.7 0.4
v -0.2 1.7 0.3
v -0.2 1.7 -0.2
v -0.2 1.7 -0.3
v -0.2 1.9 0.4
v -0.2 1.9 0.3
v -0.2 2.5 0.1
v -0.2 2.5 -0.1
v -0.2 2.6 0.1
v -0.2 2.6 -0.1
v -0.1 2.5 0.2
v -0.1 2.5 0.1
v -0.1 2.5 -0.1
v -0.1 2.5 -0.2
v -0.1 2.6 0.2
v -0.1 2.6 0.1
v -0.1 2.6 -0.1
v -0.1 2.6 -0.2
v 0.2 1.6 -0.1
v 0.2 1.6 -0.2
v 0.2 1.7 -0.1
v 0.2 1.7 -0.2
v -0.2 1.6 -0.1
v -0.2 1.6 -0.2
v -0.2 1.7 -0.1
v -0.2 1.7 -0.2
v 0.1 2.5 0.2
v 0.1 2.5 0.1
v 0.1 2.5 -0.1
v 0.1 2.5 -0.2
v 0.1 2.6 0.2
v 0.1 2.6 0.1
v 0.1 2.6 -0.1
v 0.1 2.6 -0.2
v 0.2 1.4 0.4
v 0.2 1.4 0.3
v 0.2 1.4 -0.2
v 0.2 1.4 -0.3
v 0.2 1.5 0.4
v 0.2 1.5 0.3
v 0.2 1.5 -0.2
v 0.2 1.5 -0.3
v 0.2 1.6 0.4
v 0.2 1.6 0.3
v 0.2 1.6 -0.2
v 0.2 1.6 -0.3
v 0.2 1.7 0.4
v 0.2 1.7 0.3
v 0.2 1.7 -0.2
v 0.2 1.7 -0.3
v 0.2 1.9 0.4
v 0.2 1.9 0.3
v 0.2 2.5 0.1
v 0.2 2.5 -0.1
v 0.2 2.6 0.1
v 0.2 2.6 -0.1
v 0.3 1.4 0.3
v 0.3 1.4 0.2
v 0.3 1.4 -0.1
v 0.3 1.4 -0.2
v 0.3 1.6 0.3
v 0.3 1.6 0.2
v 0.3 1.6 -0.1
v 0.3 1.6 -0.2
v 0.3 1.7 0.3
v 0.3 1.7 0.2
v 0.3 1.7 -0.1
v 0.3 1.7 -0.2
v 0.3 1.9 0.4
v 0.3 1.9 0.3
v 0.3 1.9 0.2
v 0.3 1.9 -0.1
v 0.3 1.9 -0.2
v 0.3 1.9 -0.3
v 0.3 2 0.3
v 0.3 2 0.2
v 0.3 2 -0.1
v 0.3 2 -0.2
v 0.3 2.1 -0.1
v 0.3 2.1 -0.2
v 0.3 2.3 0.4
v 0.3 2.3 0.3
v 0.3 2.4 0.4
v 0.3 2.4 0.3
v 0.3 2.4 -0.2
v 0.3 2.4 -0.3
v 0.3 2.5 -0.2
v 0.3 2.5 -0.3
v 0.4 1.4 0.2
v 0.4 1.4 -0.1
v 0.4 1.6 0.2
v 0.4 1.6 -0.1
v 0.4 1.7 0.2
v 0.4 1.7 -0.1
v 0.4 1.9 0.2
v 0.4 1.9 -0.1
v 0.4 2 0.3
v 0.4 2 0.2
v 0.4 2 -0.1
v 0.4 2.1 -0.1
v 0.4 2.1 -0.2
v 0.4 2.4 0.3
v 0.4 2.4 -0.2
v 0.4 2.5 0.3
v 0.4 2.5 -0.2
v -0.3 1.9 0.4
v -0.3 2.3 0.4
v -0.3 2.4 0.4
v -0.2 1.4 0.4
v -0.2 1.5 0.4
v -0.2 1.6 0.4
v -0.2 1.7 0.4
v -0.2 1.9 0.4
v -0.2 2.3 0.4
v -0.2 2.4 0.4
v -0.1 1.6 0.4
v -0.1 1.7 0.4
v 0.1 1.6 0.4
v 0.1 1.7 0.4
v 0.2 1.4 0.4
v 0.2 1.5 0.4
v 0.2 1.6 0.4
v 0.2 1.7 0.4
v 0.2 1.9 0.4
v 0.2 2.3 0.4
v 0.2 2.4 0.4
v 0.3 1.9 0.4
v 0.3 2.3 0.4
v 0.3 2.4 0.4
v -0.4 2 0.3
v -0.4 2.4 0.3
v -0.4 2.5 0.3
v -0.3 1.4 0.3
v -0.3 1.6 0.3
v -0.3 1.7 0.3
v -0.3 1.9 0.3
v -0.3 2 0.3
v -0.3 2.3 0.3
v -0.3 2.4 0.3
v -0.2 1.4 0.3
v -0.2 1.5 0.3
v -0.2 1.6 0.3
v -0.2 1.7 0.3
v -0.2 1.9 0.3
v -0.2 2.4 0.3
v -0.2 2.5 0.3
v -0.1 2.4 0.3
v -0.1 2.5 0.3
v 0.1 2.4 0.3
v 0.1 2.5 0.3
v 0.2 1.4 0.3
v 0.2 1.5 0.3
v 0.2 1.6 0.3
v 0.2 1.7 0.3
v 0.2 1.9 0.3
v 0.2 2.4 0.3
v 0.2 2.5 0.3
v 0.3 1.4 0.3
v 0.3 1.6 0.3
v 0.3 1.7 0.3
v 0.3 1.9 0.3
v 0.3 2 0.3
v 0.3 2.3 0.3
v 0.3 2.4 0.3
v 0.4 2 0.3
v 0.4 2.4 0.3
v 0.4 2.5 0.3
v -0.4 1.4 0.2
v -0.4 1.6 0.2
v -0.4 1.7 0.2
v -0.4 1.9 0.2
v -0.4 2 0.2
v -0.3 1.4 0.2
v -0.3 1.6 0.2
v -0.3 1.7 0.2
v -0.3 1.9 0.2
v -0.3 2 0.2
v -0.1 2.5 0.2
v -0.1 2.6 0.2
v 0.1 2.5 0.2
v 0.1 2.6 0.2
v 0.3 1.4 0.2
v 0.3 1.6 0.2
v 0.3 1.7 0.2
v 0.3 1.9 0.2
v 0.3 2 0.2
v 0.4 1.4 0.2
v 0.4 1.6 0.2
v 0.4 1.7 0.2
v 0.4 1.9 0.2
v 0.4 2 0.2
v -0.2 2.5 0.1
v -0.2 2.6 0.1
v -0.1 2.5 0.1
v -0.1 2.6 0.1
v 0.1 2.5 0.1
v 0.1 2.6 0.1
v 0.2 2.5 0.1
v 0.2 2.6 0.1
v -0.2 1.6 -0.2
v -0.2 1.7 -0.2
v 0.2 1.6 -0.2
v 0.2 1.7 -0.2
v -0.4 1.4 -0.1
v -0.4 1.6 -0.1
v -0.4 1.7 -0.1
v -0.4 1.9 -0.1
v -0.4 2 -0.1
v -0.4 2.1 -0.1
v -0.3 1.4 -0.1
v -0.3 1.6 -0.1
v -0.3 1.7 -0.1
v -0.3 1.9 -0.1
v -0.3 2 -0.1
v -0.3 2.1 -0.1
v -0.2 1.6 -0.1
v -0.2 1.7 -0.1
v -0.2 2.5 -0.1
v -0.2 2.6 -0.1
v -0.1 2.5 -0.1
v -0.1 2.6 -0.1
v 0.1 2.5 -0.1
v 0.1 2.6 -0.1
v 0.2 1.6 -0.1
v 0.2 1.7 -0.1
v 0.2 2.5 -0.1
v 0.2 2.6 -0.1
v 0.3 1.4 -0.1
v 0.3 1.6 -0.1
v 0.3 1.7 -0.1
v 0.3 1.9 -0.1
v 0.3 2 -0.1
v 0.3 2.1 -0.1
v 0.4 1.4 -0.1
v 0.4 1.6 -0.1
v 0.4 1.7 -0.1
v 0.4 1.9 -0.1
v 0.4 2 -0.1
v 0.4 2.1 -0.1
v -0.4 2.1 -0.2
v -0.4 2.4 -0.2
v -0.4 2.5 -0.2
v -0.3 1.4 -0.2
v -0.3 1.6 -0.2
v -0.3 1.7 -0.2
v -0.3 1.9 -0.2
v -0.3 2.1 -0.2
v -0.3 2.4 -0.2
v -0.3 2.5 -0.2
v -0.2 1.4 -0.2
v -0.2 1.5 -0.2
v -0.2 1.6 -0.2
v -0.2 1.7 -0.2
v -0.2 1.9 -0.2
v -0.1 2.5 -0.2
v -0.1 2.6 -0.2
v 0.1 2.5 -0.2
v 0.1 2.6 -0.2
v 0.2 1.4 -0.2
v 0.2 1.5 -0.2
v 0.2 1.6 -0.2
v 0.2 1.7 -0.2
v 0.2 1.9 -0.2
v 0.3 1.4 -0.2
v 0.3 1.6 -0.2
v 0.3 1.7 -0.2
v 0.3 1.9 -0.2
v 0.3 2.1 -0.2
v 0.3 2.4 -0.2
v 0.3 2.5 -0.2
v 0.4 2.1 -0.2
v 0.4 2.4 -0.2
v 0.4 2.5 -0.2
v -0.3 1.9 -0.3
v -0.3 2.4 -0.3
v -0.3 2.5 -0.3
v -0.2 1.4 -0.3
v -0.2 1.5 -0.3
v -0.2 1.6 -0.3
v -0.2 1.7 -0.3
v -0.2 1.9 -0.3
v -0.2 2.4 -0.3
v -0.2 2.5 -0.3
v 0.2 1.4 -0.3
v 0.2 1.5 -0.3
v 0.2 1.6 -0.3
v 0.2 1.7 -0.3
v 0.2 1.9 -0.3
v 0.2 2.4 -0.3
v 0.2 2.5 -0.3
v 0.3 1.9 -0.3
v 0.3 2.4 -0.3
v 0.3 2.5 -0.3
v -0.2 1.4 0.4
v 0.2 1.4 0.4
v -0.3 1.4 0.3
v -0.2 1.4 0.3
v 0.2 1.4 0.3
v 0.3 1.4 0.3
v -0.4 1.4 0.2
v -0.3 1.4 0.2
v -0.2 1.4 0.2
v 0.2 1.4 0.2
v 0.3 1.4 0.2
v 0.4 1.4 0.2
v -0.4 1.4 -0.1
v -0.3 1.4 -0.1
v -0.2 1.4 -0.1
v 0.2 1.4 -0.1
v 0.3 1.4 -0.1
v 0.4 1.4 -0.1
v -0.3 1.4 -0.2
v -0.2 1.4 -0.2
v 0.2 1.4 -0.2
v 0.3 1.4 -0.2
v -0.2 1.4 -0.3
v 0.2 1.4 -0.3
v -0.2 1.7 -0.1
v 0.2 1.7 -0.1
v -0.2 1.7 -0.2
v 0.2 1.7 -0.2
v -0.3 1.9 0.4
v -0.2 1.9 0.4
v 0.2 1.9 0.4
v 0.3 1.9 0.4
v -0.3 1.9 0.3
v -0.2 1.9 0.3
v 0.2 1.9 0.3
v 0.3 1.9 0.3
v -0.3 1.9 -0.2
v -0.2 1.9 -0.2
v 0.2 1.9 -0.2
v 0.3 1.9 -0.2
v -0.3 1.9 -0.3
v -0.2 1.9 -0.3
v 0.2 1.9 -0.3
v 0.3 1.9 -0.3
v -0.4 2 0.3
v -0.3 2 0.3
v 0.3 2 0.3
v 0.4 2 0.3
v -0.4 2 0.2
v -0.3 2 0.2
v 0.3 2 0.2
v 0.4 2 0.2
v -0.4 2.1 -0.1
v -0.3 2.1 -0.1
v 0.3 2.1 -0.1
v 0.4 2.1 -0.1
v -0.4 2.1 -0.2
v -0.3 2.1 -0.2
v 0.3 2.1 -0.2
v 0.4 2.1 -0.2
v -0.2 1.6 -0.1
v 0.2 1.6 -0.1
v -0.2 1.6 -0.2
v 0.2 1.6 -0.2
v -0.2 1.7 -0.2
v 0.2 1.7 -0.2
v -0.2 1.7 -0.3
v 0.2 1.7 -0.3
v -0.3 2.4 0.4
v -0.2 2.4 0.4
v 0.2 2.4 0.4
v 0.3 2.4 0.4
v -0.3 2.4 0.3
v -0.2 2.4 0.3
v -0.1 2.4 0.3
v 0.1 2.4 0.3
v 0.2 2.4 0.3
v 0.3 2.4 0.3
v -0.4 2.5 0.3
v -0.2 2.5 0.3
v -0.1 2.5 0.3
v 0.1 2.5 0.3
v 0.2 2.5 0.3
v 0.4 2.5 0.3
v -0.1 2.5 0.2
v 0.1 2.5 0.2
v -0.2 2.5 0.1
v -0.1 2.5 0.1
v 0.1 2.5 0.1
v 0.2 2.5 0.1
v -0.2 2.5 -0.1
v -0.1 2.5 -0.1
v 0.1 2.5 -0.1
v 0.2 2.5 -0.1
v -0.4 2.5 -0.2
v -0.3 2.5 -0.2
v -0.2 2.5 -0.2
v -0.1 2.5 -0.2
v 0.1 2.5 -0.2
v 0.2 2.5 -0.2
v 0.3 2.5 -0.2
v 0.4 2.5 -0.2
v -0.3 2.5 -0.3
v -0.2 2.5 -0.3
v 0.2 2.5 -0.3
v 0.3 2.5 -0.3
v -0.1 2.6 0.2
v 0.1 2.6 0.2
v -0.2 2.6 0.1
v -0.1 2.6 0.1
v 0.1 2.6 0.1
v 0.2 2.6 0.1
v -0.2 2.6 -0.1
v -0.1 2.6 -0.1
v 0.1 2.6 -0.1
v 0.2 2.6 -0.1
v -0.1 2.6 -0.2
v 0.1 2.6 -0.2

# faces
f 3/2/1 2/2/1 1/2/1
f 4/2/1 2/2/1 3/2/1
f 5/3/1 4/3/1 3/3/1
f 6/3/1 4/3/1 5/3/1
f 7/7/1 6/7/1 5/7/1
f 8/7/1 6/7/1 7/7/1
f 10/4/1 8/4/1 7/4/1
f 11/4/1 8/4/1 10/4/1
f 12/2/1 10/2/1 9/2/1
f 12/2/1 11/2/1 10/2/1
f 14/2/1 12/2/1 9/2/1
f 14/2/1 13/2/1 12/2/1
f 15/2/1 13/2/1 14/2/1
f 16/3/1 15/3/1 14/3/1
f 17/3/1 15/3/1 16/3/1
f 22/4/1 19/4/1 18/4/1
f 23/4/1 19/4/1 22/4/1
f 24/4/1 21/4/1 20/4/1
f 25/4/1 21/4/1 24/4/1
f 26/3/1 23/3/1 22/3/1
f 27/3/1 23/3/1 26/3/1
f 28/3/1 25/3/1 24/3/1
f 29/3/1 25/3/1 28/3/1
f 31/7/1 27/7/1 26/7/1
f 32/7/1 27/7/1 31/7/1
f 33/7/1 29/7/1 28/7/1
f 34/7/1 29/7/1 33/7/1
f 36/4/1 32/4/1 31/4/1
f 36/4/1 31/4/1 30/4/1
f 37/4/1 32/4/1 36/4/1
f 38/4/1 34/4/1 33/4/1
f 38/4/1 35/4/1 34/4/1
f 39/4/1 35/4/1 38/4/1
f 40/2/1 39/2/1 38/2/1
f 41/4/1 35/4/1 39/4/1
f 41/2/1 39/2/1 40/2/1
f 42/4/1 36/4/1 30/4/1
f 43/4/1 36/4/1 42/4/1
f 44/3/1 43/3/1 42/3/1
f 45/3/1 43/3/1 44/3/1
f 46/4/1 35/4/1 41/4/1
f 47/4/1 35/4/1 46/4/1
f 48/3/1 47/3/1 46/3/1
f 49/3/1 47/3/1 48/3/1
f 54/4/1 51/4/1 50/4/1
f 55/4/1 51/4/1 54/4/1
f 56/4/1 53/4/1 52/4/1
f 57/4/1 53/4/1 56/4/1
f 58/7/1 55/7/1 54/7/1
f 59/7/1 55/7/1 58/7/1
f 60/7/1 57/7/1 56/7/1
f 61/7/1 57/7/1 60/7/1
f 62/3/1 59/3/1 58/3/1
f 63/3/1 59/3/1 62/3/1
f 64/3/1 61/3/1 60/3/1
f 65/3/1 61/3/1 64/3/1
f 66/7/1 63/7/1 62/7/1
f 67/7/1 63/7/1 66/7/1
f 70/1/1 69/1/1 68/1/1
f 71/1/1 69/1/1 70/1/1
f 76/1/1 73/1/1 72/1/1
f 77/1/1 73/1/1 76/1/1
f 78/1/1 75/1/1 74/1/1
f 79/1/1 75/1/1 78/1/1
f 82/3/1 81/3/1 80/3/1
f 83/3/1 81/3/1 82/3/1
f 84/3/2 85/3/2 86/3/2
f 86/3/2 85/3/2 87/3/2
f 88/1/2 89/1/2 92/1/2
f 92/1/2 89/1/2 93/1/2
f 90/1/2 91/1/2 94/1/2
f 94/1/2 91/1/2 95/1/2
f 96/4/2 97/4/2 100/4/2
f 100/4/2 97/4/2 101/4/2
f 98/4/2 99/4/2 102/4/2
f 102/4/2 99/4/2 103/4/2
f 100/7/2 101/7/2 104/7/2
f 104/7/2 101/7/2 105/7/2
f 102/7/2 103/7/2 106/7/2
f 106/7/2 103/7/2 107/7/2
f 104/3/2 105/3/2 108/3/2
f 108/3/2 105/3/2 109/3/2
f 106/3/2 107/3/2 110/3/2
f 110/3/2 107/3/2 111/3/2
f 108/7/2 109/7/2 112/7/2
f 112/7/2 109/7/2 113/7/2
f 114/1/2 115/1/2 116/1/2
f 116/1/2 115/1/2 117/1/2
f 118/4/2 119/4/2 122/4/2
f 122/4/2 119/4/2 123/4/2
f 120/4/2 121/4/2 124/4/2
f 124/4/2 121/4/2 125/4/2
f 122/3/2 123/3/2 126/3/2
f 126/3/2 123/3/2 127/3/2
f 124/3/2 125/3/2 128/3/2
f 128/3/2 125/3/2 129/3/2
f 126/7/2 127/7/2 131/7/2
f 131/7/2 127/7/2 132/7/2
f 128/7/2 129/7/2 133/7/2
f 133/7/2 129/7/2 134/7/2
f 131/4/2 132/4/2 136/4/2
f 130/4/2 131/4/2 136/4/2
f 136/4/2 132/4/2 137/4/2
f 133/4/2 134/4/2 138/4/2
f 134/4/2 135/4/2 138/4/2
f 138/4/2 135/4/2 139/4/2
f 138/2/2 139/2/2 140/2/2
f 139/4/2 135/4/2 141/4/2
f 140/2/2 139/2/2 141/2/2
f 130/4/2 136/4/2 142/4/2
f 142/4/2 136/4/2 143/4/2
f 142/3/2 143/3/2 144/3/2
f 144/3/2 143/3/2 145/3/2
f 141/4/2 135/4/2 146/4/2
f 146/4/2 135/4/2 147/4/2
f 146/3/2 147/3/2 148/3/2
f 148/3/2 147/3/2 149/3/2
f 150/2/2 151/2/2 152/2/2
f 152/2/2 151/2/2 153/2/2
f 152/3/2 153/3/2 154/3/2
f 154/3/2 153/3/2 155/3/2
f 154/7/2 155/7/2 156/7/2
f 156/7/2 155/7/2 157/7/2
f 156/4/2 157/4/2 159/4/2
f 159/4/2 157/4/2 160/4/2
f 158/2/2 159/2/2 161/2/2
f 159/2/2 160/2/2 161/2/2
f 158/2/2 161/2/2 163/2/2
f 161/2/2 162/2/2 163/2/2
f 163/2/2 162/2/2 164/2/2
f 163/3/2 164/3/2 165/3/2
f 165/3/2 164/3/2 166/3/2
f 174/4/3 168/4/3 167/4/3
f 175/3/3 169/3/3 168/3/3
f 175/4/3 168/4/3 174/4/3
f 176/3/3 169/3/3 175/3/3
f 177/3/3 173/3/3 172/3/3
f 177/7/3 172/7/3 171/7/3
f 178/7/3 174/7/3 173/7/3
f 178/3/3 173/3/3 177/3/3
f 178/7/3 175/7/3 174/7/3
f 179/7/3 177/7/3 171/7/3
f 179/6/3 178/6/3 177/6/3
f 180/7/3 175/7/3 178/7/3
f 180/6/3 178/6/3 179/6/3
f 181/4/3 171/4/3 170/4/3
f 182/7/3 179/7/3 171/7/3
f 182/4/3 171/4/3 181/4/3
f 183/3/3 180/3/3 179/3/3
f 183/7/3 179/7/3 182/7/3
f 184/7/3 175/7/3 180/7/3
f 184/3/3 180/3/3 183/3/3
f 185/7/3 175/7/3 184/7/3
f 186/4/3 176/4/3 175/4/3
f 186/7/3 175/7/3 185/7/3
f 187/4/3 176/4/3 186/4/3
f 188/4/3 186/4/3 185/4/3
f 189/3/3 187/3/3 186/3/3
f 189/4/3 186/4/3 188/4/3
f 190/3/3 187/3/3 189/3/3
f 198/2/3 192/2/3 191/2/3
f 199/2/3 192/2/3 198/2/3
f 200/3/3 193/3/3 192/3/3
f 200/2/3 192/2/3 199/2/3
f 201/4/3 195/4/3 194/4/3
f 202/4/3 195/4/3 201/4/3
f 203/3/3 196/3/3 195/3/3
f 203/4/3 195/4/3 202/4/3
f 204/7/3 197/7/3 196/7/3
f 204/3/3 196/3/3 203/3/3
f 205/7/3 197/7/3 204/7/3
f 206/3/3 193/3/3 200/3/3
f 207/3/3 193/3/3 206/3/3
f 208/2/3 207/2/3 206/2/3
f 209/2/3 207/2/3 208/2/3
f 210/1/3 209/1/3 208/1/3
f 211/1/3 209/1/3 210/1/3
f 217/2/3 211/2/3 210/2/3
f 218/2/3 211/2/3 217/2/3
f 219/4/3 213/4/3 212/4/3
f 219/4/3 214/4/3 213/4/3
f 220/3/3 215/3/3 214/3/3
f 220/4/3 214/4/3 219/4/3
f 221/7/3 216/7/3 215/7/3
f 221/3/3 215/3/3 220/3/3
f 222/7/3 216/7/3 221/7/3
f 225/3/3 218/3/3 217/3/3
f 226/2/3 225/2/3 224/2/3
f 226/2/3 224/2/3 223/2/3
f 227/3/3 218/3/3 225/3/3
f 227/2/3 225/2/3 226/2/3
f 228/3/3 218/3/3 227/3/3
f 234/2/3 230/2/3 229/2/3
f 235/3/3 231/3/3 230/3/3
f 235/2/3 230/2/3 234/2/3
f 236/7/3 232/7/3 231/7/3
f 236/3/3 231/3/3 235/3/3
f 237/4/3 233/4/3 232/4/3
f 237/7/3 232/7/3 236/7/3
f 238/4/3 233/4/3 237/4/3
f 241/1/3 240/1/3 239/1/3
f 242/1/3 240/1/3 241/1/3
f 248/2/3 244/2/3 243/2/3
f 249/3/3 245/3/3 244/3/3
f 249/2/3 244/2/3 248/2/3
f 250/7/3 246/7/3 245/7/3
f 250/3/3 245/3/3 249/3/3
f 251/4/3 247/4/3 246/4/3
f 251/7/3 246/7/3 250/7/3
f 252/4/3 247/4/3 251/4/3
f 255/1/3 254/1/3 253/1/3
f 256/1/3 254/1/3 255/1/3
f 259/1/3 258/1/3 257/1/3
f 260/1/3 258/1/3 259/1/3
f 263/3/3 262/3/3 261/3/3
f 264/3/3 262/3/3 263/3/3
f 265/2/4 266/2/4 271/2/4
f 266/3/4 267/3/4 272/3/4
f 271/2/4 266/2/4 272/2/4
f 267/7/4 268/7/4 273/7/4
f 272/3/4 267/3/4 273/3/4
f 268/4/4 269/4/4 274/4/4
f 273/7/4 268/7/4 274/7/4
f 269/2/4 270/2/4 275/2/4
f 274/4/4 269/4/4 275/4/4
f 275/2/4 270/2/4 276/2/4
f 279/1/4 280/1/4 281/1/4
f 281/1/4 280/1/4 282/1/4
f 277/5/4 278/5/4 285/5/4
f 285/5/4 278/5/4 286/5/4
f 283/1/4 284/1/4 287/1/4
f 287/1/4 284/1/4 288/1/4
f 289/2/4 290/2/4 295/2/4
f 290/3/4 291/3/4 296/3/4
f 295/2/4 290/2/4 296/2/4
f 291/7/4 292/7/4 297/7/4
f 296/3/4 291/3/4 297/3/4
f 292/4/4 293/4/4 298/4/4
f 297/7/4 292/7/4 298/7/4
f 293/2/4 294/2/4 299/2/4
f 298/4/4 293/4/4 299/4/4
f 299/2/4 294/2/4 300/2/4
f 301/2/4 302/2/4 308/2/4
f 302/3/4 303/3/4 309/3/4
f 308/2/4 302/2/4 309/2/4
f 309/3/4 303/3/4 310/3/4
f 304/4/4 305/4/4 311/4/4
f 311/4/4 305/4/4 312/4/4
f 305/3/4 306/3/4 313/3/4
f 312/4/4 305/4/4 313/4/4
f 306/7/4 307/7/4 314/7/4
f 313/3/4 306/3/4 314/3/4
f 314/7/4 307/7/4 315/7/4
f 316/1/4 317/1/4 318/1/4
f 318/1/4 317/1/4 319/1/4
f 314/7/4 315/7/4 323/7/4
f 323/7/4 315/7/4 324/7/4
f 321/4/4 322/4/4 325/4/4
f 320/4/4 321/4/4 325/4/4
f 322/3/4 323/3/4 326/3/4
f 325/4/4 322/4/4 326/4/4
f 323/7/4 324/7/4 327/7/4
f 326/3/4 323/3/4 327/3/4
f 327/7/4 324/7/4 328/7/4
f 329/2/4 330/2/4 332/2/4
f 330/3/4 331/3/4 333/3/4
f 332/2/4 330/2/4 333/2/4
f 333/3/4 331/3/4 334/3/4
f 335/4/4 336/4/4 342/4/4
f 336/3/4 337/3/4 343/3/4
f 342/4/4 336/4/4 343/4/4
f 343/3/4 337/3/4 344/3/4
f 338/4/4 339/4/4 345/4/4
f 339/7/4 340/7/4 346/7/4
f 345/4/4 339/4/4 346/4/4
f 340/3/4 341/3/4 347/3/4
f 346/7/4 340/7/4 347/7/4
f 347/3/4 341/3/4 348/3/4
f 342/7/4 343/7/4 349/7/4
f 343/4/4 344/4/4 350/4/4
f 349/7/4 343/7/4 350/7/4
f 350/4/4 344/4/4 351/4/4
f 349/4/4 350/4/4 352/4/4
f 350/3/4 351/3/4 353/3/4
f 352/4/4 350/4/4 353/4/4
f 353/3/4 351/3/4 354/3/4
f 358/4/5 356/4/5 355/4/5
f 359/4/5 356/4/5 358/4/5
f 362/4/5 358/4/5 357/4/5
f 363/2/5 359/2/5 358/2/5
f 363/4/5 358/4/5 362/4/5
f 364/4/5 360/4/5 359/4/5
f 364/2/5 359/2/5 363/2/5
f 365/4/5 360/4/5 364/4/5
f 367/2/5 362/2/5 361/2/5
f 368/5/5 363/5/5 362/5/5
f 368/2/5 362/2/5 367/2/5
f 368/5/5 364/5/5 363/5/5
f 368/5/5 365/5/5 364/5/5
f 369/5/5 365/5/5 368/5/5
f 370/5/5 365/5/5 369/5/5
f 371/2/5 366/2/5 365/2/5
f 371/5/5 365/5/5 370/5/5
f 372/2/5 366/2/5 371/2/5
f 373/4/5 369/4/5 368/4/5
f 374/5/5 370/5/5 369/5/5
f 374/4/5 369/4/5 373/4/5
f 375/4/5 371/4/5 370/4/5
f 375/5/5 370/5/5 374/5/5
f 376/4/5 371/4/5 375/4/5
f 377/4/5 375/4/5 374/4/5
f 378/4/5 375/4/5 377/4/5
f 381/7/5 380/7/5 379/7/5
f 382/7/5 380/7/5 381/7/5
f 387/4/5 384/4/5 383/4/5
f 388/4/5 384/4/5 387/4/5
f 389/4/5 386/4/5 385/4/5
f 390/4/5 386/4/5 389/4/5
f 395/4/5 392/4/5 391/4/5
f 396/7/5 393/7/5 392/7/5
f 396/4/5 392/4/5 395/4/5
f 397/4/5 394/4/5 393/4/5
f 397/7/5 393/7/5 396/7/5
f 398/4/5 394/4/5 397/4/5
f 403/2/5 400/2/5 399/2/5
f 404/2/5 400/2/5 403/2/5
f 405/2/5 402/2/5 401/2/5
f 406/2/5 402/2/5 405/2/5
f 411/2/5 408/2/5 407/2/5
f 412/2/5 408/2/5 411/2/5
f 413/2/5 410/2/5 409/2/5
f 414/2/5 410/2/5 413/2/5
f 415/5/6 416/5/6 417/5/6
f 417/5/6 416/5/6 418/5/6
f 419/3/6 420/3/6 421/3/6
f 421/3/6 420/3/6 422/3/6
f 423/3/6 424/3/6 427/3/6
f 424/4/6 425/4/6 428/4/6
f 427/3/6 424/3/6 428/3/6
f 428/4/6 425/4/6 429/4/6
f 429/4/6 425/4/6 430/4/6
f 425/3/6 426/3/6 431/3/6
f 430/4/6 425/4/6 431/4/6
f 431/3/6 426/3/6 432/3/6
f 434/2/6 435/2/6 439/2/6
f 435/1/6 436/1/6 439/1/6
f 436/2/6 437/2/6 440/2/6
f 439/1/6 436/1/6 440/1/6
f 433/3/6 434/3/6 441/3/6
f 434/2/6 439/2/6 441/2/6
f 441/2/6 439/2/6 442/2/6
f 440/2/6 437/2/6 443/2/6
f 437/3/6 438/3/6 444/3/6
f 443/2/6 437/2/6 444/2/6
f 433/3/6 441/3/6 445/3/6
f 444/3/6 438/3/6 448/3/6
f 433/3/6 445/3/6 449/3/6
f 449/3/6 445/3/6 450/3/6
f 445/2/6 446/2/6 451/2/6
f 450/3/6 445/3/6 451/3/6
f 451/2/6 446/2/6 452/2/6
f 447/2/6 448/2/6 453/2/6
f 448/3/6 438/3/6 454/3/6
f 453/2/6 448/2/6 454/2/6
f 454/3/6 438/3/6 455/3/6
f 455/3/6 438/3/6 456/3/6
f 450/3/6 451/3/6 457/3/6
f 451/4/6 452/4/6 458/4/6
f 457/3/6 451/3/6 458/3/6
f 452/4/6 453/4/6 458/4/6
f 453/4/6 454/4/6 458/4/6
f 454/3/6 455/3/6 459/3/6
f 458/4/6 454/4/6 459/4/6
f 459/3/6 455/3/6 460/3/6
f 461/1/6 462/1/6 464/1/6
f 464/1/6 462/1/6 465/1/6
f 463/1/6 464/1/6 467/1/6
f 464/5/6 465/5/6 468/5/6
f 467/1/6 464/1/6 468/1/6
f 465/1/6 466/1/6 469/1/6
f 468/5/6 465/5/6 469/5/6
f 469/1/6 466/1/6 470/1/6
f 468/1/6 469/1/6 471/1/6
f 471/1/6 469/1/6 472/1/6
