# MagicaVoxel @ Ephtracy

# group
o head_ponytail

# material
mtllib humanoid-280-head_ponytail.mtl
usemtl palette

# normals
vn -1 0 0
vn 1 0 0
vn 0 0 1
vn 0 0 -1
vn 0 -1 0
vn 0 1 0

# texcoords
vt 0.615234 0.5
vt 0.884766 0.5
vt 0.892578 0.5

# verts
v -0.2 2.8 0.2
v -0.2 2.8 0
v -0.2 2.8 -0.1
v -0.2 2.9 0.2
v -0.2 2.9 0.1
v -0.2 2.9 -0.1
v -0.2 2.9 -0.2
v -0.2 3 0.3
v -0.2 3 0.2
v -0.2 3 0.1
v -0.2 3.1 0.3
v -0.2 3.1 0.2
v -0.2 3.1 0.1
v -0.2 3.1 0
v -0.2 3.2 0.2
v -0.2 3.2 0.1
v -0.2 3.2 -0.2
v -0.1 2.6 0.1
v -0.1 2.6 -0.1
v -0.1 2.6 -0.2
v -0.1 2.6 -0.3
v -0.1 2.7 0.2
v -0.1 2.7 0.1
v -0.1 2.8 0.3
v -0.1 2.8 0.2
v -0.1 2.8 0
v -0.1 2.8 -0.1
v -0.1 2.8 -0.2
v -0.1 2.9 0.2
v -0.1 2.9 -0.1
v -0.1 2.9 -0.2
v -0.1 3 0.3
v -0.1 3 0.2
v -0.1 3.1 -0.2
v -0.1 3.1 -0.3
v 0.1 2.6 0.1
v 0.1 2.6 -0.1
v 0.1 2.6 -0.2
v 0.1 2.6 -0.3
v 0.1 2.7 0.2
v 0.1 2.7 0.1
v 0.1 2.8 0.3
v 0.1 2.8 0.2
v 0.1 2.8 0
v 0.1 2.8 -0.1
v 0.1 2.8 -0.2
v 0.1 2.9 0.2
v 0.1 2.9 -0.1
v 0.1 2.9 -0.2
v 0.1 3 0.3
v 0.1 3 0.2
v 0.1 3.1 -0.2
v 0.1 3.1 -0.3
v 0.2 2.8 0.2
v 0.2 2.8 0
v 0.2 2.8 -0.1
v 0.2 2.9 0.2
v 0.2 2.9 0.1
v 0.2 2.9 -0.1
v 0.2 2.9 -0.2
v 0.2 3 0.3
v 0.2 3 0.2
v 0.2 3 0.1
v 0.2 3.1 0.3
v 0.2 3.1 0.2
v 0.2 3.1 0.1
v 0.2 3.1 0
v 0.2 3.2 0.2
v 0.2 3.2 0.1
v 0.2 3.2 -0.2
v -0.2 3 0.3
v -0.2 3.1 0.3
v -0.1 2.8 0.3
v -0.1 3 0.3
v -0.1 3.1 0.3
v 0.1 2.8 0.3
v 0.1 3 0.3
v 0.1 3.1 0.3
v 0.2 3 0.3
v 0.2 3.1 0.3
v -0.2 2.8 0.2
v -0.2 2.9 0.2
v -0.2 3 0.2
v -0.2 3.1 0.2
v -0.2 3.2 0.2
v -0.1 2.7 0.2
v -0.1 2.8 0.2
v -0.1 2.9 0.2
v -0.1 3 0.2
v -0.1 3.1 0.2
v 0.1 2.7 0.2
v 0.1 2.8 0.2
v 0.1 2.9 0.2
v 0.1 3 0.2
v 0.1 3.1 0.2
v 0.2 2.8 0.2
v 0.2 2.9 0.2
v 0.2 3 0.2
v 0.2 3.1 0.2
v 0.2 3.2 0.2
v -0.1 2.6 0.1
v -0.1 2.7 0.1
v 0.1 2.6 0.1
v 0.1 2.7 0.1
v -0.1 2.6 -0.2
v -0.1 2.8 -0.2
v 0.1 2.6 -0.2
v 0.1 2.8 -0.2
v -0.2 2.8 -0.1
v -0.2 2.9 -0.1
v -0.1 2.6 -0.1
v -0.1 2.8 -0.1
v -0.1 2.9 -0.1
v 0.1 2.6 -0.1
v 0.1 2.8 -0.1
v 0.1 2.9 -0.1
v 0.2 2.8 -0.1
v 0.2 2.9 -0.1
v -0.2 2.9 -0.2
v -0.2 3.2 -0.2
v -0.1 2.9 -0.2
v -0.1 3.1 -0.2
v 0.1 2.9 -0.2
v 0.1 3.1 -0.2
v 0.2 2.9 -0.2
v 0.2 3.2 -0.2
v -0.1 2.6 -0.3
v -0.1 3.1 -0.3
v 0.1 2.6 -0.3
v 0.1 3.1 -0.3
v -0.1 2.6 0.1
v 0.1 2.6 0.1
v -0.1 2.6 -0.1
v 0.1 2.6 -0.1
v -0.1 2.6 -0.2
v 0.1 2.6 -0.2
v -0.1 2.6 -0.3
v 0.1 2.6 -0.3
v -0.1 2.7 0.2
v 0.1 2.7 0.2
v -0.1 2.7 0.1
v 0.1 2.7 0.1
v -0.1 2.8 0.3
v 0.1 2.8 0.3
v -0.2 2.8 0.2
v -0.1 2.8 0.2
v 0.1 2.8 0.2
v 0.2 2.8 0.2
v -0.2 2.8 0
v -0.1 2.8 0
v 0.1 2.8 0
v 0.2 2.8 0
v -0.2 2.8 -0.1
v -0.1 2.8 -0.1
v 0.1 2.8 -0.1
v 0.2 2.8 -0.1
v -0.1 2.8 -0.2
v 0.1 2.8 -0.2
v -0.2 2.9 -0.1
v -0.1 2.9 -0.1
v 0.1 2.9 -0.1
v 0.2 2.9 -0.1
v -0.2 2.9 -0.2
v -0.1 2.9 -0.2
v 0.1 2.9 -0.2
v 0.2 2.9 -0.2
v -0.2 3 0.3
v -0.1 3 0.3
v 0.1 3 0.3
v 0.2 3 0.3
v -0.2 3 0.2
v -0.1 3 0.2
v 0.1 3 0.2
v 0.2 3 0.2
v -0.2 3.1 0.3
v -0.1 3.1 0.3
v 0.1 3.1 0.3
v 0.2 3.1 0.3
v -0.2 3.1 0.2
v -0.1 3.1 0.2
v 0.1 3.1 0.2
v 0.2 3.1 0.2
v -0.1 3.1 -0.2
v 0.1 3.1 -0.2
v -0.1 3.1 -0.3
v 0.1 3.1 -0.3
v -0.2 3.2 0.2
v 0.2 3.2 0.2
v -0.2 3.2 0.1
v 0.2 3.2 0.1
v -0.2 3.2 -0.2
v 0.2 3.2 -0.2

# faces
f 4/3/1 2/3/1 1/3/1
f 5/3/1 2/3/1 4/3/1
f 6/1/1 3/1/1 2/1/1
f 9/2/1 5/2/1 4/2/1
f 10/3/1 2/3/1 5/3/1
f 10/2/1 5/2/1 9/2/1
f 11/1/1 9/1/1 8/1/1
f 12/3/1 10/3/1 9/3/1
f 12/1/1 9/1/1 11/1/1
f 13/3/1 2/3/1 10/3/1
f 13/3/1 10/3/1 12/3/1
f 14/1/1 7/1/1 6/1/1
f 14/3/1 2/3/1 13/3/1
f 14/1/1 6/1/1 2/1/1
f 15/3/1 13/3/1 12/3/1
f 16/1/1 14/1/1 13/1/1
f 16/3/1 13/3/1 15/3/1
f 17/1/1 7/1/1 14/1/1
f 17/1/1 14/1/1 16/1/1
f 23/3/1 19/3/1 18/3/1
f 25/3/1 23/3/1 22/3/1
f 26/3/1 19/3/1 23/3/1
f 26/3/1 23/3/1 25/3/1
f 27/3/1 19/3/1 26/3/1
f 28/1/1 21/1/1 20/1/1
f 29/3/1 25/3/1 24/3/1
f 30/1/1 28/1/1 27/1/1
f 31/1/1 21/1/1 28/1/1
f 31/1/1 28/1/1 30/1/1
f 32/3/1 29/3/1 24/3/1
f 33/3/1 29/3/1 32/3/1
f 34/1/1 21/1/1 31/1/1
f 35/1/1 21/1/1 34/1/1
f 36/3/2 37/3/2 41/3/2
f 40/3/2 41/3/2 43/3/2
f 41/3/2 37/3/2 44/3/2
f 43/3/2 41/3/2 44/3/2
f 44/3/2 37/3/2 45/3/2
f 38/1/2 39/1/2 46/1/2
f 42/3/2 43/3/2 47/3/2
f 45/1/2 46/1/2 48/1/2
f 46/1/2 39/1/2 49/1/2
f 48/1/2 46/1/2 49/1/2
f 42/3/2 47/3/2 50/3/2
f 50/3/2 47/3/2 51/3/2
f 49/1/2 39/1/2 52/1/2
f 52/1/2 39/1/2 53/1/2
f 54/3/2 55/3/2 57/3/2
f 57/3/2 55/3/2 58/3/2
f 55/1/2 56/1/2 59/1/2
f 57/2/2 58/2/2 62/2/2
f 58/3/2 55/3/2 63/3/2
f 62/2/2 58/2/2 63/2/2
f 61/1/2 62/1/2 64/1/2
f 62/3/2 63/3/2 65/3/2
f 64/1/2 62/1/2 65/1/2
f 63/3/2 55/3/2 66/3/2
f 65/3/2 63/3/2 66/3/2
f 59/1/2 60/1/2 67/1/2
f 66/3/2 55/3/2 67/3/2
f 55/1/2 59/1/2 67/1/2
f 65/3/2 66/3/2 68/3/2
f 66/1/2 67/1/2 69/1/2
f 68/3/2 66/3/2 69/3/2
f 67/1/2 60/1/2 70/1/2
f 69/1/2 67/1/2 70/1/2
f 74/1/3 72/1/3 71/1/3
f 75/1/3 72/1/3 74/1/3
f 76/3/3 74/3/3 73/3/3
f 76/3/3 75/3/3 74/3/3
f 77/3/3 75/3/3 76/3/3
f 78/3/3 75/3/3 77/3/3
f 79/1/3 78/1/3 77/1/3
f 80/1/3 78/1/3 79/1/3
f 87/3/3 82/3/3 81/3/3
f 88/2/3 83/2/3 82/2/3
f 88/3/3 82/3/3 87/3/3
f 89/2/3 83/2/3 88/2/3
f 90/3/3 85/3/3 84/3/3
f 91/3/3 87/3/3 86/3/3
f 92/3/3 87/3/3 91/3/3
f 95/3/3 85/3/3 90/3/3
f 96/3/3 93/3/3 92/3/3
f 97/2/3 94/2/3 93/2/3
f 97/3/3 93/3/3 96/3/3
f 98/2/3 94/2/3 97/2/3
f 99/3/3 85/3/3 95/3/3
f 100/3/3 85/3/3 99/3/3
f 103/3/3 102/3/3 101/3/3
f 104/3/3 102/3/3 103/3/3
f 107/1/3 106/1/3 105/1/3
f 108/1/3 106/1/3 107/1/3
f 109/1/4 110/1/4 112/1/4
f 112/1/4 110/1/4 113/1/4
f 111/3/4 112/3/4 114/3/4
f 114/3/4 112/3/4 115/3/4
f 115/1/4 116/1/4 117/1/4
f 117/1/4 116/1/4 118/1/4
f 119/1/4 120/1/4 121/1/4
f 121/1/4 120/1/4 122/1/4
f 122/1/4 120/1/4 124/1/4
f 123/1/4 124/1/4 125/1/4
f 124/1/4 120/1/4 126/1/4
f 125/1/4 124/1/4 126/1/4
f 127/1/4 128/1/4 129/1/4
f 129/1/4 128/1/4 130/1/4
f 133/3/5 132/3/5 131/3/5
f 134/3/5 132/3/5 133/3/5
f 137/1/5 136/1/5 135/1/5
f 138/1/5 136/1/5 137/1/5
f 141/3/5 140/3/5 139/3/5
f 142/3/5 140/3/5 141/3/5
f 146/3/5 144/3/5 143/3/5
f 147/3/5 144/3/5 146/3/5
f 149/3/5 146/3/5 145/3/5
f 150/3/5 146/3/5 149/3/5
f 151/3/5 148/3/5 147/3/5
f 152/3/5 148/3/5 151/3/5
f 153/1/5 150/1/5 149/1/5
f 154/1/5 150/1/5 153/1/5
f 155/1/5 152/1/5 151/1/5
f 156/1/5 152/1/5 155/1/5
f 157/1/5 155/1/5 154/1/5
f 158/1/5 155/1/5 157/1/5
f 163/1/5 160/1/5 159/1/5
f 164/1/5 160/1/5 163/1/5
f 165/1/5 162/1/5 161/1/5
f 166/1/5 162/1/5 165/1/5
f 171/1/5 168/1/5 167/1/5
f 172/1/5 168/1/5 171/1/5
f 173/1/5 170/1/5 169/1/5
f 174/1/5 170/1/5 173/1/5
f 175/1/6 176/1/6 179/1/6
f 176/3/6 177/3/6 180/3/6
f 179/1/6 176/1/6 180/1/6
f 177/1/6 178/1/6 181/1/6
f 180/3/6 177/3/6 181/3/6
f 181/1/6 178/1/6 182/1/6
f 183/1/6 184/1/6 185/1/6
f 185/1/6 184/1/6 186/1/6
f 187/3/6 188/3/6 189/3/6
f 189/3/6 188/3/6 190/3/6
f 189/1/6 190/1/6 191/1/6
f 191/1/6 190/1/6 192/1/6
