# MagicaVoxel @ Ephtracy

# group
o leg_lgt_3a_color

# material
mtllib humanoid-138-leg_lgt_3a_color.mtl
usemtl palette

# normals
vn -1 0 0
vn 1 0 0
vn 0 0 1
vn 0 0 -1
vn 0 -1 0
vn 0 1 0

# texcoords
vt 0.470703 0.5
vt 0.482422 0.5
vt 0.494141 0.5
vt 0.697266 0.5
vt 0.916016 0.5

# verts
v -0.4 0 0.4
v -0.4 0 -0.1
v -0.4 0.1 0.4
v -0.4 0.1 0.1
v -0.4 0.1 -0.1
v -0.4 0.5 0.2
v -0.4 0.5 0.1
v -0.4 0.5 -0.1
v -0.4 1 0.2
v -0.4 1 -0.1
v -0.4 1.1 0.2
v -0.4 1.1 -0.1
v -0.4 1.2 0.2
v -0.4 1.2 -0.1
v -0.4 1.4 0.2
v -0.4 1.4 -0.1
v -0.3 0 -0.1
v -0.3 0 -0.2
v -0.3 0.1 0.2
v -0.3 0.1 0.1
v -0.3 0.1 -0.1
v -0.3 0.1 -0.2
v -0.3 0.5 0.3
v -0.3 0.5 0.2
v -0.3 0.5 0.1
v -0.3 0.5 -0.1
v -0.3 0.5 -0.2
v -0.3 1 0.3
v -0.3 1 0.2
v -0.3 1 -0.1
v -0.3 1 -0.2
v -0.3 1.1 0.3
v -0.3 1.1 0.2
v -0.3 1.1 -0.1
v -0.3 1.1 -0.2
v -0.3 1.2 0.3
v -0.3 1.2 0.2
v -0.3 1.2 -0.1
v -0.3 1.2 -0.2
v -0.3 1.4 0.3
v -0.3 1.4 0.2
v -0.3 1.4 -0.1
v -0.3 1.4 -0.2
v -0.2 1 0.4
v -0.2 1 0.3
v -0.2 1 -0.2
v -0.2 1 -0.3
v -0.2 1.1 0.4
v -0.2 1.1 0.3
v -0.2 1.1 -0.2
v -0.2 1.1 -0.3
v -0.2 1.2 0.4
v -0.2 1.2 0.3
v -0.2 1.2 -0.2
v -0.2 1.2 -0.3
v -0.2 1.4 0.4
v -0.2 1.4 0.3
v -0.2 1.4 -0.2
v -0.2 1.4 -0.3
v -0.2 0 -0.1
v -0.2 0 -0.2
v -0.2 0.1 0.2
v -0.2 0.1 0.1
v -0.2 0.1 -0.1
v -0.2 0.1 -0.2
v -0.2 0.5 0.2
v -0.2 0.5 0.1
v -0.2 0.5 -0.1
v -0.2 0.5 -0.2
v -0.1 0 0.4
v -0.1 0 -0.1
v -0.1 0.1 0.4
v -0.1 0.1 0.1
v -0.1 0.1 -0.1
v -0.1 0.5 0.3
v -0.1 0.5 0.1
v -0.1 0.5 -0.1
v -0.1 0.5 -0.2
v -0.1 1 0.3
v -0.1 1 -0.2
v -0.1 1 -0.3
v -0.1 1.1 0.3
v -0.1 1.1 0.2
v -0.1 1.1 0.1
v -0.1 1.1 -0.2
v -0.1 1.1 -0.3
v -0.1 1.2 0.3
v -0.1 1.2 0.1
v -0.1 1.2 0
v -0.1 1.2 -0.2
v -0.1 1.2 -0.3
v -0.1 1.3 0.3
v -0.1 1.3 0.2
v -0.1 1.3 0
v -0.1 1.3 -0.2
v -0.1 1.4 0
v -0.1 1.4 -0.3
v 0 1 0.4
v 0 1 0.3
v 0 1.1 0.4
v 0 1.1 0.3
v 0 1.1 0.2
v 0 1.1 0.1
v 0 1.2 0.4
v 0 1.2 0.3
v 0 1.2 0.1
v 0 1.2 0
v 0 1.3 0.3
v 0 1.3 0.2
v 0 1.3 0
v 0 1.4 0.4
v 0 1.4 0
v -0.4 0 0.4
v -0.4 0.1 0.4
v -0.2 1 0.4
v -0.2 1.1 0.4
v -0.2 1.2 0.4
v -0.2 1.4 0.4
v -0.1 0 0.4
v -0.1 0.1 0.4
v 0 1 0.4
v 0 1.1 0.4
v 0 1.2 0.4
v 0 1.4 0.4
v -0.3 0.5 0.3
v -0.3 1 0.3
v -0.3 1.1 0.3
v -0.3 1.2 0.3
v -0.3 1.4 0.3
v -0.2 1 0.3
v -0.2 1.1 0.3
v -0.2 1.2 0.3
v -0.2 1.4 0.3
v -0.1 0.5 0.3
v -0.1 1 0.3
v -0.4 0.5 0.2
v -0.4 1 0.2
v -0.4 1.1 0.2
v -0.4 1.2 0.2
v -0.4 1.4 0.2
v -0.3 0.1 0.2
v -0.3 0.5 0.2
v -0.3 1 0.2
v -0.3 1.1 0.2
v -0.3 1.2 0.2
v -0.3 1.4 0.2
v -0.2 0.1 0.2
v -0.2 0.5 0.2
v -0.1 1.1 0.2
v -0.1 1.3 0.2
v 0 1.1 0.2
v 0 1.3 0.2
v -0.4 0.1 0.1
v -0.4 0.5 0.1
v -0.3 0.1 0.1
v -0.3 0.5 0.1
v -0.2 0.1 0.1
v -0.2 0.5 0.1
v -0.1 0.1 0.1
v -0.1 0.5 0.1
v -0.1 1 0.3
v -0.1 1.1 0.3
v -0.1 1.2 0.3
v -0.1 1.3 0.3
v 0 1 0.3
v 0 1.1 0.3
v 0 1.2 0.3
v 0 1.3 0.3
v -0.1 1.1 0.1
v -0.1 1.2 0.1
v 0 1.1 0.1
v 0 1.2 0.1
v -0.1 1.2 0
v -0.1 1.3 0
v -0.1 1.4 0
v 0 1.2 0
v 0 1.3 0
v 0 1.4 0
v -0.4 0 -0.1
v -0.4 0.1 -0.1
v -0.4 0.5 -0.1
v -0.4 1 -0.1
v -0.4 1.1 -0.1
v -0.4 1.2 -0.1
v -0.4 1.4 -0.1
v -0.3 0 -0.1
v -0.3 0.1 -0.1
v -0.3 0.5 -0.1
v -0.3 1 -0.1
v -0.3 1.1 -0.1
v -0.3 1.2 -0.1
v -0.3 1.4 -0.1
v -0.2 0 -0.1
v -0.2 0.1 -0.1
v -0.2 0.5 -0.1
v -0.1 0 -0.1
v -0.1 0.1 -0.1
v -0.1 0.5 -0.1
v -0.3 0 -0.2
v -0.3 0.1 -0.2
v -0.3 0.5 -0.2
v -0.3 1 -0.2
v -0.3 1.1 -0.2
v -0.3 1.2 -0.2
v -0.3 1.4 -0.2
v -0.2 0 -0.2
v -0.2 0.1 -0.2
v -0.2 0.5 -0.2
v -0.2 1 -0.2
v -0.2 1.1 -0.2
v -0.2 1.2 -0.2
v -0.2 1.4 -0.2
v -0.1 0.5 -0.2
v -0.1 1 -0.2
v -0.2 1 -0.3
v -0.2 1.1 -0.3
v -0.2 1.2 -0.3
v -0.2 1.4 -0.3
v -0.1 1 -0.3
v -0.1 1.1 -0.3
v -0.1 1.2 -0.3
v -0.1 1.4 -0.3
v -0.4 0 0.4
v -0.1 0 0.4
v -0.4 0 -0.1
v -0.3 0 -0.1
v -0.2 0 -0.1
v -0.1 0 -0.1
v -0.3 0 -0.2
v -0.2 0 -0.2
v -0.3 0.5 0.3
v -0.1 0.5 0.3
v -0.4 0.5 0.2
v -0.3 0.5 0.2
v -0.2 0.5 0.2
v -0.4 0.5 0.1
v -0.3 0.5 0.1
v -0.2 0.5 0.1
v -0.1 0.5 0.1
v -0.2 0.5 -0.1
v -0.1 0.5 -0.1
v -0.2 0.5 -0.2
v -0.1 0.5 -0.2
v -0.2 1 0.4
v 0 1 0.4
v -0.2 1 0.3
v -0.1 1 0.3
v 0 1 0.3
v -0.2 1 -0.2
v -0.1 1 -0.2
v -0.2 1 -0.3
v -0.1 1 -0.3
v -0.1 1.1 0.2
v 0 1.1 0.2
v -0.1 1.1 0.1
v 0 1.1 0.1
v -0.1 1.2 0.1
v 0 1.2 0.1
v -0.1 1.2 0
v 0 1.2 0
v -0.1 1.3 0.3
v 0 1.3 0.3
v -0.1 1.3 0.2
v 0 1.3 0.2
v -0.4 0.1 0.4
v -0.1 0.1 0.4
v -0.3 0.1 0.2
v -0.2 0.1 0.2
v -0.4 0.1 0.1
v -0.3 0.1 0.1
v -0.2 0.1 0.1
v -0.1 0.1 0.1
v -0.2 1.4 0.4
v 0 1.4 0.4
v -0.3 1.4 0.3
v -0.2 1.4 0.3
v -0.4 1.4 0.2
v -0.3 1.4 0.2
v -0.1 1.4 0
v 0 1.4 0
v -0.4 1.4 -0.1
v -0.3 1.4 -0.1
v -0.3 1.4 -0.2
v -0.2 1.4 -0.2
v -0.2 1.4 -0.3
v -0.1 1.4 -0.3

# faces
f 3/4/1 2/4/1 1/4/1
f 4/4/1 2/4/1 3/4/1
f 5/4/1 2/4/1 4/4/1
f 7/2/1 5/2/1 4/2/1
f 8/2/1 5/2/1 7/2/1
f 9/1/1 7/1/1 6/1/1
f 9/1/1 8/1/1 7/1/1
f 10/1/1 8/1/1 9/1/1
f 11/5/1 10/5/1 9/5/1
f 12/5/1 10/5/1 11/5/1
f 13/2/1 12/2/1 11/2/1
f 14/2/1 12/2/1 13/2/1
f 15/3/1 14/3/1 13/3/1
f 16/3/1 14/3/1 15/3/1
f 21/4/1 18/4/1 17/4/1
f 22/4/1 18/4/1 21/4/1
f 24/2/1 20/2/1 19/2/1
f 25/2/1 20/2/1 24/2/1
f 26/2/1 22/2/1 21/2/1
f 27/2/1 22/2/1 26/2/1
f 28/1/1 24/1/1 23/1/1
f 29/1/1 24/1/1 28/1/1
f 30/1/1 27/1/1 26/1/1
f 31/1/1 27/1/1 30/1/1
f 32/5/1 29/5/1 28/5/1
f 33/5/1 29/5/1 32/5/1
f 34/5/1 31/5/1 30/5/1
f 35/5/1 31/5/1 34/5/1
f 36/2/1 33/2/1 32/2/1
f 37/2/1 33/2/1 36/2/1
f 38/2/1 35/2/1 34/2/1
f 39/2/1 35/2/1 38/2/1
f 40/3/1 37/3/1 36/3/1
f 41/3/1 37/3/1 40/3/1
f 42/3/1 39/3/1 38/3/1
f 43/3/1 39/3/1 42/3/1
f 48/5/1 45/5/1 44/5/1
f 49/5/1 45/5/1 48/5/1
f 50/5/1 47/5/1 46/5/1
f 51/5/1 47/5/1 50/5/1
f 52/2/1 49/2/1 48/2/1
f 53/2/1 49/2/1 52/2/1
f 54/2/1 51/2/1 50/2/1
f 55/2/1 51/2/1 54/2/1
f 56/3/1 53/3/1 52/3/1
f 57/3/1 53/3/1 56/3/1
f 58/3/1 55/3/1 54/3/1
f 59/3/1 55/3/1 58/3/1
f 60/4/2 61/4/2 64/4/2
f 64/4/2 61/4/2 65/4/2
f 62/2/2 63/2/2 66/2/2
f 66/2/2 63/2/2 67/2/2
f 64/2/2 65/2/2 68/2/2
f 68/2/2 65/2/2 69/2/2
f 70/4/2 71/4/2 72/4/2
f 72/4/2 71/4/2 73/4/2
f 73/4/2 71/4/2 74/4/2
f 73/2/2 74/2/2 76/2/2
f 76/2/2 74/2/2 77/2/2
f 76/1/2 77/1/2 79/1/2
f 77/1/2 78/1/2 79/1/2
f 75/1/2 76/1/2 79/1/2
f 79/1/2 78/1/2 80/1/2
f 79/1/2 80/1/2 82/1/2
f 82/1/2 80/1/2 83/1/2
f 83/1/2 80/1/2 84/1/2
f 80/5/2 81/5/2 85/5/2
f 84/1/2 80/1/2 85/1/2
f 85/5/2 81/5/2 86/5/2
f 82/1/2 83/1/2 87/1/2
f 84/1/2 85/1/2 88/1/2
f 88/1/2 85/1/2 89/1/2
f 85/2/2 86/2/2 90/2/2
f 89/1/2 85/1/2 90/1/2
f 90/2/2 86/2/2 91/2/2
f 87/1/2 83/1/2 92/1/2
f 92/1/2 83/1/2 93/1/2
f 89/1/2 90/1/2 94/1/2
f 90/3/2 91/3/2 95/3/2
f 94/1/2 90/1/2 95/1/2
f 94/3/2 95/3/2 96/3/2
f 95/3/2 91/3/2 97/3/2
f 96/3/2 95/3/2 97/3/2
f 98/5/2 99/5/2 100/5/2
f 100/5/2 99/5/2 101/5/2
f 100/2/2 101/2/2 104/2/2
f 104/2/2 101/2/2 105/2/2
f 102/1/2 103/1/2 106/1/2
f 104/3/2 105/3/2 108/3/2
f 106/1/2 107/1/2 109/1/2
f 102/1/2 106/1/2 109/1/2
f 109/1/2 107/1/2 110/1/2
f 104/3/2 108/3/2 111/3/2
f 108/3/2 109/3/2 111/3/2
f 109/3/2 110/3/2 111/3/2
f 111/3/2 110/3/2 112/3/2
f 119/4/3 114/4/3 113/4/3
f 120/4/3 114/4/3 119/4/3
f 121/5/3 116/5/3 115/5/3
f 122/2/3 117/2/3 116/2/3
f 122/5/3 116/5/3 121/5/3
f 123/3/3 118/3/3 117/3/3
f 123/2/3 117/2/3 122/2/3
f 124/3/3 118/3/3 123/3/3
f 130/1/3 126/1/3 125/1/3
f 130/5/3 127/5/3 126/5/3
f 131/2/3 128/2/3 127/2/3
f 131/5/3 127/5/3 130/5/3
f 132/3/3 129/3/3 128/3/3
f 132/2/3 128/2/3 131/2/3
f 133/3/3 129/3/3 132/3/3
f 134/1/3 130/1/3 125/1/3
f 135/1/3 130/1/3 134/1/3
f 142/1/3 137/1/3 136/1/3
f 143/5/3 138/5/3 137/5/3
f 143/1/3 137/1/3 142/1/3
f 144/2/3 139/2/3 138/2/3
f 144/5/3 138/5/3 143/5/3
f 145/3/3 140/3/3 139/3/3
f 145/2/3 139/2/3 144/2/3
f 146/3/3 140/3/3 145/3/3
f 147/2/3 142/2/3 141/2/3
f 148/2/3 142/2/3 147/2/3
f 151/1/3 150/1/3 149/1/3
f 152/1/3 150/1/3 151/1/3
f 155/2/3 154/2/3 153/2/3
f 156/2/3 154/2/3 155/2/3
f 159/2/3 158/2/3 157/2/3
f 160/2/3 158/2/3 159/2/3
f 161/5/4 162/5/4 165/5/4
f 162/2/4 163/2/4 166/2/4
f 165/5/4 162/5/4 166/5/4
f 163/3/4 164/3/4 167/3/4
f 166/2/4 163/2/4 167/2/4
f 167/3/4 164/3/4 168/3/4
f 169/1/4 170/1/4 171/1/4
f 171/1/4 170/1/4 172/1/4
f 173/1/4 174/1/4 176/1/4
f 174/3/4 175/3/4 177/3/4
f 176/1/4 174/1/4 177/1/4
f 177/3/4 175/3/4 178/3/4
f 179/4/4 180/4/4 186/4/4
f 180/2/4 181/2/4 187/2/4
f 186/4/4 180/4/4 187/4/4
f 181/1/4 182/1/4 188/1/4
f 187/2/4 181/2/4 188/2/4
f 182/5/4 183/5/4 189/5/4
f 188/1/4 182/1/4 189/1/4
f 183/2/4 184/2/4 190/2/4
f 189/5/4 183/5/4 190/5/4
f 184/3/4 185/3/4 191/3/4
f 190/2/4 184/2/4 191/2/4
f 191/3/4 185/3/4 192/3/4
f 193/4/4 194/4/4 196/4/4
f 194/2/4 195/2/4 197/2/4
f 196/4/4 194/4/4 197/4/4
f 197/2/4 195/2/4 198/2/4
f 199/4/4 200/4/4 206/4/4
f 200/2/4 201/2/4 207/2/4
f 206/4/4 200/4/4 207/4/4
f 201/1/4 202/1/4 208/1/4
f 207/2/4 201/2/4 208/2/4
f 202/5/4 203/5/4 209/5/4
f 208/1/4 202/1/4 209/1/4
f 203/2/4 204/2/4 210/2/4
f 209/5/4 203/5/4 210/5/4
f 204/3/4 205/3/4 211/3/4
f 210/2/4 204/2/4 211/2/4
f 211/3/4 205/3/4 212/3/4
f 208/1/4 209/1/4 213/1/4
f 213/1/4 209/1/4 214/1/4
f 215/5/4 216/5/4 219/5/4
f 216/2/4 217/2/4 220/2/4
f 219/5/4 216/5/4 220/5/4
f 217/3/4 218/3/4 221/3/4
f 220/2/4 217/2/4 221/2/4
f 221/3/4 218/3/4 222/3/4
f 225/4/5 224/4/5 223/4/5
f 226/4/5 224/4/5 225/4/5
f 227/4/5 224/4/5 226/4/5
f 228/4/5 224/4/5 227/4/5
f 229/4/5 227/4/5 226/4/5
f 230/4/5 227/4/5 229/4/5
f 234/1/5 232/1/5 231/1/5
f 235/1/5 232/1/5 234/1/5
f 236/1/5 234/1/5 233/1/5
f 237/1/5 234/1/5 236/1/5
f 238/1/5 232/1/5 235/1/5
f 239/1/5 232/1/5 238/1/5
f 242/1/5 241/1/5 240/1/5
f 243/1/5 241/1/5 242/1/5
f 246/5/5 245/5/5 244/5/5
f 247/5/5 245/5/5 246/5/5
f 248/5/5 245/5/5 247/5/5
f 251/5/5 250/5/5 249/5/5
f 252/5/5 250/5/5 251/5/5
f 255/1/5 254/1/5 253/1/5
f 256/1/5 254/1/5 255/1/5
f 259/1/5 258/1/5 257/1/5
f 260/1/5 258/1/5 259/1/5
f 263/3/5 262/3/5 261/3/5
f 264/3/5 262/3/5 263/3/5
f 265/4/6 266/4/6 267/4/6
f 267/4/6 266/4/6 268/4/6
f 265/4/6 267/4/6 269/4/6
f 269/4/6 267/4/6 270/4/6
f 268/4/6 266/4/6 271/4/6
f 271/4/6 266/4/6 272/4/6
f 273/3/6 274/3/6 276/3/6
f 275/3/6 276/3/6 278/3/6
f 276/3/6 274/3/6 279/3/6
f 277/3/6 278/3/6 279/3/6
f 278/3/6 276/3/6 279/3/6
f 279/3/6 274/3/6 280/3/6
f 277/3/6 279/3/6 281/3/6
f 281/3/6 279/3/6 282/3/6
f 282/3/6 279/3/6 283/3/6
f 283/3/6 279/3/6 284/3/6
f 284/3/6 279/3/6 285/3/6
f 285/3/6 279/3/6 286/3/6
