# MagicaVoxel @ Ephtracy

# group
o helm_lgt_3c_du_color

# material
mtllib humanoid-255-helm_lgt_3c_du_color.mtl
usemtl palette

# normals
vn -1 0 0
vn 1 0 0
vn 0 0 1
vn 0 0 -1
vn 0 -1 0
vn 0 1 0

# texcoords
vt 0.482422 0.5
vt 0.494141 0.5
vt 0.916016 0.5

# verts
v -0.3 3.1 0.2
v -0.3 3.1 -0.2
v -0.3 3.2 0.2
v -0.3 3.2 -0.2
v -0.2 3.1 0.3
v -0.2 3.1 0.2
v -0.2 3.1 -0.2
v -0.2 3.1 -0.3
v -0.2 3.2 0.3
v -0.2 3.2 0.2
v -0.2 3.2 -0.2
v -0.2 3.2 -0.3
v -0.2 3.3 0.2
v -0.2 3.3 -0.2
v -0.1 3.2 0.3
v -0.1 3.2 0.2
v -0.1 3.3 0.2
v -0.1 3.3 -0.1
v -0.1 3.4 0.3
v -0.1 3.4 0.2
v -0.1 3.4 -0.1
v 0.2 3.1 0.2
v 0.2 3.1 -0.2
v 0.2 3.2 0.2
v 0.2 3.2 -0.2
v -0.2 3.1 0.2
v -0.2 3.1 -0.2
v -0.2 3.2 0.2
v -0.2 3.2 -0.2
v 0.1 3.2 0.3
v 0.1 3.2 0.2
v 0.1 3.3 0.2
v 0.1 3.3 -0.1
v 0.1 3.4 0.3
v 0.1 3.4 0.2
v 0.1 3.4 -0.1
v 0.2 3.1 0.3
v 0.2 3.1 0.2
v 0.2 3.1 -0.2
v 0.2 3.1 -0.3
v 0.2 3.2 0.3
v 0.2 3.2 0.2
v 0.2 3.2 -0.2
v 0.2 3.2 -0.3
v 0.2 3.3 0.2
v 0.2 3.3 -0.2
v 0.3 3.1 0.2
v 0.3 3.1 -0.2
v 0.3 3.2 0.2
v 0.3 3.2 -0.2
v -0.2 3.1 0.3
v -0.2 3.2 0.3
v -0.1 3.2 0.3
v -0.1 3.4 0.3
v 0.1 3.2 0.3
v 0.1 3.4 0.3
v 0.2 3.1 0.3
v 0.2 3.2 0.3
v -0.3 3.1 0.2
v -0.3 3.2 0.2
v -0.2 3.1 0.2
v -0.2 3.2 0.2
v -0.2 3.3 0.2
v -0.1 3.2 0.2
v -0.1 3.3 0.2
v 0.1 3.2 0.2
v 0.1 3.3 0.2
v 0.2 3.1 0.2
v 0.2 3.2 0.2
v 0.2 3.3 0.2
v 0.3 3.1 0.2
v 0.3 3.2 0.2
v -0.2 3.1 -0.2
v -0.2 3.2 -0.2
v 0.2 3.1 -0.2
v 0.2 3.2 -0.2
v -0.2 3.1 0.2
v -0.2 3.2 0.2
v 0.2 3.1 0.2
v 0.2 3.2 0.2
v -0.1 3.3 -0.1
v -0.1 3.4 -0.1
v 0.1 3.3 -0.1
v 0.1 3.4 -0.1
v -0.3 3.1 -0.2
v -0.3 3.2 -0.2
v -0.2 3.1 -0.2
v -0.2 3.2 -0.2
v -0.2 3.3 -0.2
v 0.2 3.1 -0.2
v 0.2 3.2 -0.2
v 0.2 3.3 -0.2
v 0.3 3.1 -0.2
v 0.3 3.2 -0.2
v -0.2 3.1 -0.3
v -0.2 3.2 -0.3
v 0.2 3.1 -0.3
v 0.2 3.2 -0.3
v -0.2 3.1 0.3
v 0.2 3.1 0.3
v -0.3 3.1 0.2
v -0.2 3.1 0.2
v 0.2 3.1 0.2
v 0.3 3.1 0.2
v -0.3 3.1 -0.2
v -0.2 3.1 -0.2
v 0.2 3.1 -0.2
v 0.3 3.1 -0.2
v -0.2 3.1 -0.3
v 0.2 3.1 -0.3
v -0.2 3.2 0.2
v 0.2 3.2 0.2
v -0.2 3.2 -0.2
v 0.2 3.2 -0.2
v -0.2 3.2 0.3
v -0.1 3.2 0.3
v 0.1 3.2 0.3
v 0.2 3.2 0.3
v -0.3 3.2 0.2
v -0.2 3.2 0.2
v -0.1 3.2 0.2
v 0.1 3.2 0.2
v 0.2 3.2 0.2
v 0.3 3.2 0.2
v -0.3 3.2 -0.2
v -0.2 3.2 -0.2
v 0.2 3.2 -0.2
v 0.3 3.2 -0.2
v -0.2 3.2 -0.3
v 0.2 3.2 -0.3
v -0.2 3.3 0.2
v -0.1 3.3 0.2
v 0.1 3.3 0.2
v 0.2 3.3 0.2
v -0.1 3.3 -0.1
v 0.1 3.3 -0.1
v -0.2 3.3 -0.2
v 0.2 3.3 -0.2
v -0.1 3.4 0.3
v 0.1 3.4 0.3
v -0.1 3.4 0.2
v 0.1 3.4 0.2
v -0.1 3.4 -0.1
v 0.1 3.4 -0.1

# faces
f 3/1/1 2/1/1 1/1/1
f 4/1/1 2/1/1 3/1/1
f 9/1/1 6/1/1 5/1/1
f 10/1/1 6/1/1 9/1/1
f 11/1/1 8/1/1 7/1/1
f 12/1/1 8/1/1 11/1/1
f 13/2/1 11/2/1 10/2/1
f 14/2/1 11/2/1 13/2/1
f 17/3/1 16/3/1 15/3/1
f 19/3/1 17/3/1 15/3/1
f 20/2/1 18/2/1 17/2/1
f 20/3/1 17/3/1 19/3/1
f 21/2/1 18/2/1 20/2/1
f 24/1/1 23/1/1 22/1/1
f 25/1/1 23/1/1 24/1/1
f 26/1/2 27/1/2 28/1/2
f 28/1/2 27/1/2 29/1/2
f 30/3/2 31/3/2 32/3/2
f 30/3/2 32/3/2 34/3/2
f 32/2/2 33/2/2 35/2/2
f 34/3/2 32/3/2 35/3/2
f 35/2/2 33/2/2 36/2/2
f 37/1/2 38/1/2 41/1/2
f 41/1/2 38/1/2 42/1/2
f 39/1/2 40/1/2 43/1/2
f 43/1/2 40/1/2 44/1/2
f 42/2/2 43/2/2 45/2/2
f 45/2/2 43/2/2 46/2/2
f 47/1/2 48/1/2 49/1/2
f 49/1/2 48/1/2 50/1/2
f 53/1/3 52/1/3 51/1/3
f 55/1/3 53/1/3 51/1/3
f 55/3/3 54/3/3 53/3/3
f 56/3/3 54/3/3 55/3/3
f 57/1/3 55/1/3 51/1/3
f 58/1/3 55/1/3 57/1/3
f 61/1/3 60/1/3 59/1/3
f 62/1/3 60/1/3 61/1/3
f 64/2/3 63/2/3 62/2/3
f 65/2/3 63/2/3 64/2/3
f 69/2/3 67/2/3 66/2/3
f 70/2/3 67/2/3 69/2/3
f 71/1/3 69/1/3 68/1/3
f 72/1/3 69/1/3 71/1/3
f 75/1/3 74/1/3 73/1/3
f 76/1/3 74/1/3 75/1/3
f 77/1/4 78/1/4 79/1/4
f 79/1/4 78/1/4 80/1/4
f 81/2/4 82/2/4 83/2/4
f 83/2/4 82/2/4 84/2/4
f 85/1/4 86/1/4 87/1/4
f 87/1/4 86/1/4 88/1/4
f 88/2/4 89/2/4 91/2/4
f 91/2/4 89/2/4 92/2/4
f 90/1/4 91/1/4 93/1/4
f 93/1/4 91/1/4 94/1/4
f 95/1/4 96/1/4 97/1/4
f 97/1/4 96/1/4 98/1/4
f 102/1/5 100/1/5 99/1/5
f 103/1/5 100/1/5 102/1/5
f 105/1/5 102/1/5 101/1/5
f 106/1/5 102/1/5 105/1/5
f 107/1/5 104/1/5 103/1/5
f 108/1/5 104/1/5 107/1/5
f 109/1/5 107/1/5 106/1/5
f 110/1/5 107/1/5 109/1/5
f 113/2/5 112/2/5 111/2/5
f 114/2/5 112/2/5 113/2/5
f 115/1/6 116/1/6 120/1/6
f 120/1/6 116/1/6 121/1/6
f 117/1/6 118/1/6 122/1/6
f 122/1/6 118/1/6 123/1/6
f 119/1/6 120/1/6 125/1/6
f 125/1/6 120/1/6 126/1/6
f 123/1/6 124/1/6 127/1/6
f 127/1/6 124/1/6 128/1/6
f 126/1/6 127/1/6 129/1/6
f 129/1/6 127/1/6 130/1/6
f 131/2/6 132/2/6 135/2/6
f 133/2/6 134/2/6 136/2/6
f 131/2/6 135/2/6 137/2/6
f 135/2/6 136/2/6 137/2/6
f 136/2/6 134/2/6 138/2/6
f 137/2/6 136/2/6 138/2/6
f 139/3/6 140/3/6 141/3/6
f 141/3/6 140/3/6 142/3/6
f 141/2/6 142/2/6 143/2/6
f 143/2/6 142/2/6 144/2/6
