# MagicaVoxel @ Ephtracy

# group
o helm_med_2d_du

# material
mtllib char-247-helm_med_2d_du.mtl
usemtl palette

# normals
vn -1 0 0
vn 1 0 0
vn 0 0 1
vn 0 0 -1
vn 0 -1 0
vn 0 1 0

# texcoords
vt 0.958984 0.5
vt 0.962891 0.5

# verts
v -0.3 2.6 0.4
v -0.3 2.6 0.1
v -0.3 2.6 -0.2
v -0.3 2.7 0.4
v -0.3 2.7 0.3
v -0.3 2.7 0.1
v -0.3 2.7 0
v -0.3 2.8 0
v -0.3 2.8 -0.1
v -0.3 3 -0.1
v -0.3 3 -0.2
v -0.3 3.2 0.3
v -0.3 3.2 -0.2
v -0.2 2.6 -0.2
v -0.2 2.6 -0.3
v -0.2 3 0.4
v -0.2 3 0.3
v -0.2 3 -0.2
v -0.2 3 -0.3
v -0.2 3.2 0.4
v -0.2 3.2 0.3
v -0.2 3.2 -0.2
v -0.2 3.2 -0.3
v -0.2 3.3 0.3
v -0.2 3.3 -0.2
v -0.1 3.2 0.4
v -0.1 3.2 0.3
v -0.1 3.2 -0.2
v -0.1 3.2 -0.3
v -0.1 3.3 0.4
v -0.1 3.3 0.3
v -0.1 3.3 -0.2
v -0.1 3.3 -0.3
v -0.1 3.4 0.3
v -0.1 3.4 -0.2
v 0.2 2.6 0.4
v 0.2 2.6 0.1
v 0.2 2.6 -0.2
v 0.2 2.7 0.4
v 0.2 2.7 0.3
v 0.2 2.7 0.1
v 0.2 2.7 0
v 0.2 2.8 0
v 0.2 2.8 -0.1
v 0.2 3 0.3
v 0.2 3 -0.1
v 0.2 3 -0.2
v 0.2 3.1 0.3
v 0.2 3.1 0.2
v 0.2 3.2 0.2
v 0.2 3.2 -0.2
v -0.2 2.6 0.4
v -0.2 2.6 0.1
v -0.2 2.6 -0.2
v -0.2 2.7 0.4
v -0.2 2.7 0.3
v -0.2 2.7 0.1
v -0.2 2.7 0
v -0.2 2.8 0
v -0.2 2.8 -0.1
v -0.2 3 0.3
v -0.2 3 -0.1
v -0.2 3 -0.2
v -0.2 3.1 0.3
v -0.2 3.1 0.2
v -0.2 3.2 0.2
v -0.2 3.2 -0.2
v 0.1 3.2 0.4
v 0.1 3.2 0.3
v 0.1 3.2 -0.2
v 0.1 3.2 -0.3
v 0.1 3.3 0.4
v 0.1 3.3 0.3
v 0.1 3.3 -0.2
v 0.1 3.3 -0.3
v 0.1 3.4 0.3
v 0.1 3.4 -0.2
v 0.2 2.6 -0.2
v 0.2 2.6 -0.3
v 0.2 3 0.4
v 0.2 3 0.3
v 0.2 3 -0.2
v 0.2 3 -0.3
v 0.2 3.2 0.4
v 0.2 3.2 0.3
v 0.2 3.2 -0.2
v 0.2 3.2 -0.3
v 0.2 3.3 0.3
v 0.2 3.3 -0.2
v 0.3 2.6 0.4
v 0.3 2.6 0.1
v 0.3 2.6 -0.2
v 0.3 2.7 0.4
v 0.3 2.7 0.3
v 0.3 2.7 0.1
v 0.3 2.7 0
v 0.3 2.8 0
v 0.3 2.8 -0.1
v 0.3 3 -0.1
v 0.3 3 -0.2
v 0.3 3.2 0.3
v 0.3 3.2 -0.2
v -0.3 2.6 0.4
v -0.3 2.7 0.4
v -0.2 2.6 0.4
v -0.2 2.7 0.4
v -0.2 3 0.4
v -0.2 3.2 0.4
v -0.1 3.2 0.4
v -0.1 3.3 0.4
v 0.1 3.2 0.4
v 0.1 3.3 0.4
v 0.2 2.6 0.4
v 0.2 2.7 0.4
v 0.2 3 0.4
v 0.2 3.2 0.4
v 0.3 2.6 0.4
v 0.3 2.7 0.4
v -0.3 2.7 0.3
v -0.3 3.2 0.3
v -0.2 2.7 0.3
v -0.2 3 0.3
v -0.2 3.2 0.3
v -0.2 3.3 0.3
v -0.1 3.2 0.3
v -0.1 3.3 0.3
v -0.1 3.4 0.3
v 0.1 3.2 0.3
v 0.1 3.3 0.3
v 0.1 3.4 0.3
v 0.2 2.7 0.3
v 0.2 3 0.3
v 0.2 3.2 0.3
v 0.2 3.3 0.3
v 0.3 2.7 0.3
v 0.3 3.2 0.3
v -0.2 2.6 -0.2
v -0.2 3 -0.2
v -0.2 3.2 -0.2
v 0.2 2.6 -0.2
v 0.2 3 -0.2
v 0.2 3.2 -0.2
v -0.2 3 0.3
v -0.2 3.1 0.3
v -0.1 3.1 0.3
v 0.1 3.1 0.3
v 0.2 3 0.3
v 0.2 3.1 0.3
v -0.2 3.1 0.2
v -0.2 3.2 0.2
v -0.1 3.1 0.2
v -0.1 3.2 0.2
v 0.1 3.1 0.2
v 0.1 3.2 0.2
v 0.2 3.1 0.2
v 0.2 3.2 0.2
v -0.3 2.6 -0.2
v -0.3 3 -0.2
v -0.3 3.2 -0.2
v -0.2 2.6 -0.2
v -0.2 3 -0.2
v -0.2 3.2 -0.2
v -0.2 3.3 -0.2
v -0.1 3.2 -0.2
v -0.1 3.3 -0.2
v -0.1 3.4 -0.2
v 0.1 3.2 -0.2
v 0.1 3.3 -0.2
v 0.1 3.4 -0.2
v 0.2 2.6 -0.2
v 0.2 3 -0.2
v 0.2 3.2 -0.2
v 0.2 3.3 -0.2
v 0.3 2.6 -0.2
v 0.3 3 -0.2
v 0.3 3.2 -0.2
v -0.2 2.6 -0.3
v -0.2 3 -0.3
v -0.2 3.2 -0.3
v -0.1 3.2 -0.3
v -0.1 3.3 -0.3
v 0.1 3.2 -0.3
v 0.1 3.3 -0.3
v 0.2 2.6 -0.3
v 0.2 3 -0.3
v 0.2 3.2 -0.3
v -0.3 2.6 0.4
v -0.2 2.6 0.4
v 0.2 2.6 0.4
v 0.3 2.6 0.4
v -0.3 2.6 0.1
v -0.2 2.6 0.1
v 0.2 2.6 0.1
v 0.3 2.6 0.1
v -0.3 2.6 -0.2
v -0.2 2.6 -0.2
v 0.2 2.6 -0.2
v 0.3 2.6 -0.2
v -0.2 2.6 -0.3
v 0.2 2.6 -0.3
v -0.2 3 0.4
v 0.2 3 0.4
v -0.2 3 0.3
v 0.2 3 0.3
v -0.2 3.1 0.3
v -0.1 3.1 0.3
v 0.1 3.1 0.3
v 0.2 3.1 0.3
v -0.2 3.1 0.2
v -0.1 3.1 0.2
v 0.1 3.1 0.2
v 0.2 3.1 0.2
v -0.2 3.2 0.2
v -0.1 3.2 0.2
v 0.1 3.2 0.2
v 0.2 3.2 0.2
v -0.2 3.2 -0.2
v 0.2 3.2 -0.2
v -0.3 2.7 0.4
v -0.2 2.7 0.4
v 0.2 2.7 0.4
v 0.3 2.7 0.4
v -0.3 2.7 0.3
v -0.2 2.7 0.3
v 0.2 2.7 0.3
v 0.3 2.7 0.3
v -0.2 3.2 0.4
v -0.1 3.2 0.4
v 0.1 3.2 0.4
v 0.2 3.2 0.4
v -0.3 3.2 0.3
v -0.2 3.2 0.3
v -0.1 3.2 0.3
v 0.1 3.2 0.3
v 0.2 3.2 0.3
v 0.3 3.2 0.3
v -0.3 3.2 -0.2
v -0.2 3.2 -0.2
v -0.1 3.2 -0.2
v 0.1 3.2 -0.2
v 0.2 3.2 -0.2
v 0.3 3.2 -0.2
v -0.2 3.2 -0.3
v -0.1 3.2 -0.3
v 0.1 3.2 -0.3
v 0.2 3.2 -0.3
v -0.1 3.3 0.4
v 0.1 3.3 0.4
v -0.2 3.3 0.3
v -0.1 3.3 0.3
v 0.1 3.3 0.3
v 0.2 3.3 0.3
v -0.2 3.3 -0.2
v -0.1 3.3 -0.2
v 0.1 3.3 -0.2
v 0.2 3.3 -0.2
v -0.1 3.3 -0.3
v 0.1 3.3 -0.3
v -0.1 3.4 0.3
v 0.1 3.4 0.3
v -0.1 3.4 -0.2
v 0.1 3.4 -0.2

# faces
f 4/2/1 2/2/1 1/2/1
f 5/2/1 2/2/1 4/2/1
f 6/1/1 3/1/1 2/1/1
f 6/2/1 2/2/1 5/2/1
f 7/1/1 3/1/1 6/1/1
f 8/1/1 3/1/1 7/1/1
f 8/2/1 7/2/1 6/2/1
f 8/2/1 6/2/1 5/2/1
f 9/1/1 3/1/1 8/1/1
f 10/2/1 9/2/1 8/2/1
f 10/1/1 3/1/1 9/1/1
f 11/1/1 3/1/1 10/1/1
f 12/2/1 8/2/1 5/2/1
f 12/2/1 10/2/1 8/2/1
f 12/2/1 11/2/1 10/2/1
f 13/2/1 11/2/1 12/2/1
f 18/1/1 15/1/1 14/1/1
f 19/1/1 15/1/1 18/1/1
f 20/2/1 17/2/1 16/2/1
f 21/2/1 17/2/1 20/2/1
f 22/2/1 19/2/1 18/2/1
f 23/2/1 19/2/1 22/2/1
f 24/2/1 22/2/1 21/2/1
f 25/2/1 22/2/1 24/2/1
f 30/2/1 27/2/1 26/2/1
f 31/2/1 27/2/1 30/2/1
f 32/2/1 29/2/1 28/2/1
f 33/2/1 29/2/1 32/2/1
f 34/2/1 32/2/1 31/2/1
f 35/2/1 32/2/1 34/2/1
f 39/2/1 37/2/1 36/2/1
f 40/2/1 37/2/1 39/2/1
f 41/1/1 38/1/1 37/1/1
f 41/2/1 37/2/1 40/2/1
f 42/1/1 38/1/1 41/1/1
f 43/1/1 38/1/1 42/1/1
f 43/2/1 42/2/1 41/2/1
f 43/2/1 41/2/1 40/2/1
f 44/1/1 38/1/1 43/1/1
f 45/2/1 43/2/1 40/2/1
f 45/2/1 44/2/1 43/2/1
f 46/1/1 38/1/1 44/1/1
f 46/2/1 44/2/1 45/2/1
f 47/1/1 38/1/1 46/1/1
f 48/2/1 46/2/1 45/2/1
f 48/2/1 47/2/1 46/2/1
f 49/2/1 47/2/1 48/2/1
f 50/2/1 47/2/1 49/2/1
f 51/2/1 47/2/1 50/2/1
f 52/2/2 53/2/2 55/2/2
f 55/2/2 53/2/2 56/2/2
f 53/1/2 54/1/2 57/1/2
f 56/2/2 53/2/2 57/2/2
f 57/1/2 54/1/2 58/1/2
f 58/1/2 54/1/2 59/1/2
f 57/2/2 58/2/2 59/2/2
f 56/2/2 57/2/2 59/2/2
f 59/1/2 54/1/2 60/1/2
f 56/2/2 59/2/2 61/2/2
f 59/2/2 60/2/2 61/2/2
f 60/1/2 54/1/2 62/1/2
f 61/2/2 60/2/2 62/2/2
f 62/1/2 54/1/2 63/1/2
f 61/2/2 62/2/2 64/2/2
f 62/2/2 63/2/2 64/2/2
f 64/2/2 63/2/2 65/2/2
f 65/2/2 63/2/2 66/2/2
f 66/2/2 63/2/2 67/2/2
f 68/2/2 69/2/2 72/2/2
f 72/2/2 69/2/2 73/2/2
f 70/2/2 71/2/2 74/2/2
f 74/2/2 71/2/2 75/2/2
f 73/2/2 74/2/2 76/2/2
f 76/2/2 74/2/2 77/2/2
f 78/1/2 79/1/2 82/1/2
f 82/1/2 79/1/2 83/1/2
f 80/2/2 81/2/2 84/2/2
f 84/2/2 81/2/2 85/2/2
f 82/2/2 83/2/2 86/2/2
f 86/2/2 83/2/2 87/2/2
f 85/2/2 86/2/2 88/2/2
f 88/2/2 86/2/2 89/2/2
f 90/2/2 91/2/2 93/2/2
f 93/2/2 91/2/2 94/2/2
f 91/1/2 92/1/2 95/1/2
f 94/2/2 91/2/2 95/2/2
f 95/1/2 92/1/2 96/1/2
f 96/1/2 92/1/2 97/1/2
f 95/2/2 96/2/2 97/2/2
f 94/2/2 95/2/2 97/2/2
f 97/1/2 92/1/2 98/1/2
f 97/2/2 98/2/2 99/2/2
f 98/1/2 92/1/2 99/1/2
f 99/1/2 92/1/2 100/1/2
f 94/2/2 97/2/2 101/2/2
f 97/2/2 99/2/2 101/2/2
f 99/2/2 100/2/2 101/2/2
f 101/2/2 100/2/2 102/2/2
f 105/2/3 104/2/3 103/2/3
f 106/2/3 104/2/3 105/2/3
f 109/2/3 108/2/3 107/2/3
f 111/2/3 109/2/3 107/2/3
f 111/2/3 110/2/3 109/2/3
f 112/2/3 110/2/3 111/2/3
f 115/2/3 111/2/3 107/2/3
f 116/2/3 111/2/3 115/2/3
f 117/2/3 114/2/3 113/2/3
f 118/2/3 114/2/3 117/2/3
f 121/2/3 120/2/3 119/2/3
f 122/2/3 120/2/3 121/2/3
f 123/2/3 120/2/3 122/2/3
f 125/2/3 124/2/3 123/2/3
f 126/2/3 124/2/3 125/2/3
f 129/2/3 127/2/3 126/2/3
f 130/2/3 127/2/3 129/2/3
f 133/2/3 129/2/3 128/2/3
f 134/2/3 129/2/3 133/2/3
f 135/2/3 132/2/3 131/2/3
f 135/2/3 133/2/3 132/2/3
f 136/2/3 133/2/3 135/2/3
f 140/1/3 138/1/3 137/1/3
f 141/2/3 139/2/3 138/2/3
f 141/1/3 138/1/3 140/1/3
f 142/2/3 139/2/3 141/2/3
f 143/2/4 144/2/4 145/2/4
f 143/2/4 145/2/4 146/2/4
f 143/2/4 146/2/4 147/2/4
f 147/2/4 146/2/4 148/2/4
f 149/2/4 150/2/4 151/2/4
f 151/2/4 150/2/4 152/2/4
f 151/1/4 152/1/4 153/1/4
f 153/1/4 152/1/4 154/1/4
f 153/2/4 154/2/4 155/2/4
f 155/2/4 154/2/4 156/2/4
f 157/1/4 158/1/4 160/1/4
f 158/2/4 159/2/4 161/2/4
f 160/1/4 158/1/4 161/1/4
f 161/2/4 159/2/4 162/2/4
f 162/2/4 163/2/4 164/2/4
f 164/2/4 163/2/4 165/2/4
f 165/2/4 166/2/4 168/2/4
f 168/2/4 166/2/4 169/2/4
f 167/2/4 168/2/4 172/2/4
f 172/2/4 168/2/4 173/2/4
f 170/1/4 171/1/4 174/1/4
f 171/2/4 172/2/4 175/2/4
f 174/1/4 171/1/4 175/1/4
f 175/2/4 172/2/4 176/2/4
f 178/2/4 179/2/4 180/2/4
f 178/2/4 180/2/4 182/2/4
f 180/2/4 181/2/4 182/2/4
f 182/2/4 181/2/4 183/2/4
f 177/1/4 178/1/4 184/1/4
f 178/2/4 182/2/4 185/2/4
f 184/1/4 178/1/4 185/1/4
f 185/2/4 182/2/4 186/2/4
f 191/2/5 188/2/5 187/2/5
f 192/2/5 188/2/5 191/2/5
f 193/2/5 190/2/5 189/2/5
f 194/2/5 190/2/5 193/2/5
f 195/1/5 192/1/5 191/1/5
f 196/1/5 192/1/5 195/1/5
f 197/1/5 194/1/5 193/1/5
f 198/1/5 194/1/5 197/1/5
f 199/1/5 197/1/5 196/1/5
f 200/1/5 197/1/5 199/1/5
f 203/2/5 202/2/5 201/2/5
f 204/2/5 202/2/5 203/2/5
f 209/2/5 206/2/5 205/2/5
f 210/1/5 207/1/5 206/1/5
f 210/2/5 206/2/5 209/2/5
f 211/2/5 208/2/5 207/2/5
f 211/1/5 207/1/5 210/1/5
f 212/2/5 208/2/5 211/2/5
f 217/2/5 214/2/5 213/2/5
f 217/2/5 216/2/5 215/2/5
f 217/2/5 215/2/5 214/2/5
f 218/2/5 216/2/5 217/2/5
f 219/2/6 220/2/6 223/2/6
f 223/2/6 220/2/6 224/2/6
f 221/2/6 222/2/6 225/2/6
f 225/2/6 222/2/6 226/2/6
f 227/2/6 228/2/6 232/2/6
f 232/2/6 228/2/6 233/2/6
f 229/2/6 230/2/6 234/2/6
f 234/2/6 230/2/6 235/2/6
f 231/2/6 232/2/6 237/2/6
f 237/2/6 232/2/6 238/2/6
f 235/2/6 236/2/6 241/2/6
f 241/2/6 236/2/6 242/2/6
f 238/2/6 239/2/6 243/2/6
f 243/2/6 239/2/6 244/2/6
f 240/2/6 241/2/6 245/2/6
f 245/2/6 241/2/6 246/2/6
f 247/2/6 248/2/6 250/2/6
f 250/2/6 248/2/6 251/2/6
f 249/2/6 250/2/6 253/2/6
f 253/2/6 250/2/6 254/2/6
f 251/2/6 252/2/6 255/2/6
f 255/2/6 252/2/6 256/2/6
f 254/2/6 255/2/6 257/2/6
f 257/2/6 255/2/6 258/2/6
f 259/2/6 260/2/6 261/2/6
f 261/2/6 260/2/6 262/2/6
