# MagicaVoxel @ Ephtracy

# group
o shield_med_2_du_color

# material
mtllib char-19-shield_med_2_du_color.mtl
usemtl palette

# normals
vn 0 -1 0
vn 0 1 0
vn 1 0 0
vn -1 0 0
vn 0 0 -1
vn 0 0 1

# texcoords
vt 0.482422 0.5
vt 0.498047 0.5
vt 0.701172 0.5
vt 0.962891 0.5

# verts
v 0.8 0.9 0.3
v 0.7 0.9 0.3
v 0.8 0.9 0.9
v 0.7 0.9 0.9
v 0.8 1 0.1
v 0.7 1 0.1
v 0.8 1 0.3
v 0.7 1 0.3
v 0.8 1 0.9
v 0.7 1 0.9
v 0.8 1 1.1
v 0.7 1 1.1
v 0.8 1.1 0
v 0.7 1.1 0
v 0.8 1.1 0.1
v 0.7 1.1 0.1
v 0.8 1.1 1.1
v 0.7 1.1 1.1
v 0.8 1.1 1.2
v 0.7 1.1 1.2
v 0.8 1.2 -0.1
v 0.7 1.2 -0.1
v 0.8 1.2 0
v 0.7 1.2 0
v 0.8 1.2 1.2
v 0.7 1.2 1.2
v 0.8 1.2 1.3
v 0.7 1.2 1.3
v 0.8 1.4 -0.2
v 0.7 1.4 -0.2
v 0.8 1.4 -0.1
v 0.7 1.4 -0.1
v 0.8 1.4 1.3
v 0.7 1.4 1.3
v 0.8 1.4 1.4
v 0.7 1.4 1.4
v 0.9 1.6 0.5
v 0.8 1.6 0.5
v 0.8 1.6 0.6
v 0.9 1.6 0.7
v 0.8 1.6 0.7
v 0.8 1.8 0.5
v 0.7 1.8 0.5
v 0.8 1.8 0.6
v 0.7 1.8 0.6
v 0.8 1.8 0.7
v 0.7 1.8 0.7
v 0.8 1.6 0.5
v 0.7 1.6 0.5
v 0.8 1.6 0.6
v 0.7 1.6 0.6
v 0.8 1.6 0.7
v 0.7 1.6 0.7
v 0.9 1.8 0.5
v 0.8 1.8 0.5
v 0.8 1.8 0.6
v 0.9 1.8 0.7
v 0.8 1.8 0.7
v 0.8 2 -0.2
v 0.7 2 -0.2
v 0.8 2 -0.1
v 0.7 2 -0.1
v 0.8 2 1.3
v 0.7 2 1.3
v 0.8 2 1.4
v 0.7 2 1.4
v 0.8 2.2 -0.1
v 0.7 2.2 -0.1
v 0.8 2.2 0
v 0.7 2.2 0
v 0.8 2.2 1.2
v 0.7 2.2 1.2
v 0.8 2.2 1.3
v 0.7 2.2 1.3
v 0.8 2.3 0
v 0.7 2.3 0
v 0.8 2.3 0.1
v 0.7 2.3 0.1
v 0.8 2.3 1.1
v 0.7 2.3 1.1
v 0.8 2.3 1.2
v 0.7 2.3 1.2
v 0.8 2.4 0.1
v 0.7 2.4 0.1
v 0.8 2.4 0.3
v 0.7 2.4 0.3
v 0.8 2.4 0.9
v 0.7 2.4 0.9
v 0.8 2.4 1.1
v 0.7 2.4 1.1
v 0.8 2.5 0.3
v 0.7 2.5 0.3
v 0.8 2.5 0.9
v 0.7 2.5 0.9
v 0.9 1.6 0.5
v 0.9 1.6 0.7
v 0.9 1.8 0.5
v 0.9 1.8 0.7
v 0.8 0.9 0.3
v 0.8 0.9 0.9
v 0.8 1 0.1
v 0.8 1 0.3
v 0.8 1 0.4
v 0.8 1 0.5
v 0.8 1 0.7
v 0.8 1 0.8
v 0.8 1 0.9
v 0.8 1 1.1
v 0.8 1.1 0
v 0.8 1.1 0.1
v 0.8 1.1 0.2
v 0.8 1.1 0.4
v 0.8 1.1 0.6
v 0.8 1.1 0.7
v 0.8 1.1 0.8
v 0.8 1.1 1
v 0.8 1.1 1.1
v 0.8 1.1 1.2
v 0.8 1.2 -0.1
v 0.8 1.2 0
v 0.8 1.2 0.1
v 0.8 1.2 0.2
v 0.8 1.2 0.6
v 0.8 1.2 0.7
v 0.8 1.2 1
v 0.8 1.2 1.1
v 0.8 1.2 1.2
v 0.8 1.2 1.3
v 0.8 1.3 0
v 0.8 1.3 0.1
v 0.8 1.3 0.5
v 0.8 1.3 0.6
v 0.8 1.3 1.1
v 0.8 1.3 1.2
v 0.8 1.4 -0.2
v 0.8 1.4 -0.1
v 0.8 1.4 0.5
v 0.8 1.4 0.6
v 0.8 1.4 1.3
v 0.8 1.4 1.4
v 0.8 1.5 -0.1
v 0.8 1.5 0
v 0.8 1.5 0.6
v 0.8 1.5 0.7
v 0.8 1.5 1.2
v 0.8 1.5 1.3
v 0.8 1.6 -0.1
v 0.8 1.6 0
v 0.8 1.6 0.1
v 0.8 1.6 0.4
v 0.8 1.6 0.5
v 0.8 1.6 0.6
v 0.8 1.6 0.7
v 0.8 1.6 0.9
v 0.8 1.6 1
v 0.8 1.6 1.3
v 0.8 1.7 0
v 0.8 1.7 0.1
v 0.8 1.7 0.2
v 0.8 1.7 0.3
v 0.8 1.7 0.4
v 0.8 1.7 0.5
v 0.8 1.7 0.7
v 0.8 1.7 0.8
v 0.8 1.7 0.9
v 0.8 1.7 1
v 0.8 1.7 1.1
v 0.8 1.7 1.2
v 0.8 1.8 -0.1
v 0.8 1.8 0.2
v 0.8 1.8 0.3
v 0.8 1.8 0.5
v 0.8 1.8 0.6
v 0.8 1.8 0.7
v 0.8 1.8 0.8
v 0.8 1.8 1.1
v 0.8 1.8 1.2
v 0.8 1.8 1.3
v 0.8 1.9 -0.1
v 0.8 1.9 0
v 0.8 1.9 0.5
v 0.8 1.9 0.6
v 0.8 1.9 1.2
v 0.8 1.9 1.3
v 0.8 2 -0.2
v 0.8 2 -0.1
v 0.8 2 0.6
v 0.8 2 0.7
v 0.8 2 1.3
v 0.8 2 1.4
v 0.8 2.1 0
v 0.8 2.1 0.1
v 0.8 2.1 0.6
v 0.8 2.1 0.7
v 0.8 2.1 1.1
v 0.8 2.1 1.2
v 0.8 2.2 -0.1
v 0.8 2.2 0
v 0.8 2.2 0.1
v 0.8 2.2 0.2
v 0.8 2.2 0.5
v 0.8 2.2 0.6
v 0.8 2.2 1
v 0.8 2.2 1.1
v 0.8 2.2 1.2
v 0.8 2.2 1.3
v 0.8 2.3 0
v 0.8 2.3 0.1
v 0.8 2.3 0.2
v 0.8 2.3 0.4
v 0.8 2.3 0.5
v 0.8 2.3 0.6
v 0.8 2.3 0.8
v 0.8 2.3 1
v 0.8 2.3 1.1
v 0.8 2.3 1.2
v 0.8 2.4 0.1
v 0.8 2.4 0.3
v 0.8 2.4 0.4
v 0.8 2.4 0.5
v 0.8 2.4 0.7
v 0.8 2.4 0.8
v 0.8 2.4 0.9
v 0.8 2.4 1.1
v 0.8 2.5 0.3
v 0.8 2.5 0.9
v 0.8 1.6 0.5
v 0.8 1.6 0.6
v 0.8 1.6 0.7
v 0.8 1.7 0.5
v 0.8 1.7 0.7
v 0.8 1.8 0.5
v 0.8 1.8 0.6
v 0.8 1.8 0.7
v 0.7 0.9 0.3
v 0.7 0.9 0.9
v 0.7 1 0.1
v 0.7 1 0.3
v 0.7 1 0.4
v 0.7 1 0.5
v 0.7 1 0.7
v 0.7 1 0.8
v 0.7 1 0.9
v 0.7 1 1.1
v 0.7 1.1 0
v 0.7 1.1 0.1
v 0.7 1.1 0.2
v 0.7 1.1 0.4
v 0.7 1.1 0.6
v 0.7 1.1 0.7
v 0.7 1.1 0.8
v 0.7 1.1 1
v 0.7 1.1 1.1
v 0.7 1.1 1.2
v 0.7 1.2 -0.1
v 0.7 1.2 0
v 0.7 1.2 0.1
v 0.7 1.2 0.2
v 0.7 1.2 0.6
v 0.7 1.2 0.7
v 0.7 1.2 1
v 0.7 1.2 1.1
v 0.7 1.2 1.2
v 0.7 1.2 1.3
v 0.7 1.3 0
v 0.7 1.3 0.1
v 0.7 1.3 0.5
v 0.7 1.3 0.6
v 0.7 1.3 1.1
v 0.7 1.3 1.2
v 0.7 1.4 -0.2
v 0.7 1.4 -0.1
v 0.7 1.4 0.5
v 0.7 1.4 0.6
v 0.7 1.4 1.3
v 0.7 1.4 1.4
v 0.7 1.5 -0.1
v 0.7 1.5 0
v 0.7 1.5 0.6
v 0.7 1.5 0.7
v 0.7 1.5 1.2
v 0.7 1.5 1.3
v 0.7 1.6 -0.1
v 0.7 1.6 0
v 0.7 1.6 0.1
v 0.7 1.6 0.4
v 0.7 1.6 0.5
v 0.7 1.6 0.6
v 0.7 1.6 0.7
v 0.7 1.6 0.9
v 0.7 1.6 1
v 0.7 1.6 1.3
v 0.7 1.7 0
v 0.7 1.7 0.1
v 0.7 1.7 0.2
v 0.7 1.7 0.3
v 0.7 1.7 0.4
v 0.7 1.7 0.5
v 0.7 1.7 0.7
v 0.7 1.7 0.8
v 0.7 1.7 0.9
v 0.7 1.7 1
v 0.7 1.7 1.1
v 0.7 1.7 1.2
v 0.7 1.8 -0.1
v 0.7 1.8 0.2
v 0.7 1.8 0.3
v 0.7 1.8 0.5
v 0.7 1.8 0.6
v 0.7 1.8 0.7
v 0.7 1.8 0.8
v 0.7 1.8 1.1
v 0.7 1.8 1.2
v 0.7 1.8 1.3
v 0.7 1.9 -0.1
v 0.7 1.9 0
v 0.7 1.9 0.5
v 0.7 1.9 0.6
v 0.7 1.9 1.2
v 0.7 1.9 1.3
v 0.7 2 -0.2
v 0.7 2 -0.1
v 0.7 2 0.6
v 0.7 2 0.7
v 0.7 2 1.3
v 0.7 2 1.4
v 0.7 2.1 0
v 0.7 2.1 0.1
v 0.7 2.1 0.6
v 0.7 2.1 0.7
v 0.7 2.1 1.1
v 0.7 2.1 1.2
v 0.7 2.2 -0.1
v 0.7 2.2 0
v 0.7 2.2 0.1
v 0.7 2.2 0.2
v 0.7 2.2 0.5
v 0.7 2.2 0.6
v 0.7 2.2 1
v 0.7 2.2 1.1
v 0.7 2.2 1.2
v 0.7 2.2 1.3
v 0.7 2.3 0
v 0.7 2.3 0.1
v 0.7 2.3 0.2
v 0.7 2.3 0.4
v 0.7 2.3 0.5
v 0.7 2.3 0.6
v 0.7 2.3 0.8
v 0.7 2.3 1
v 0.7 2.3 1.1
v 0.7 2.3 1.2
v 0.7 2.4 0.1
v 0.7 2.4 0.3
v 0.7 2.4 0.4
v 0.7 2.4 0.5
v 0.7 2.4 0.7
v 0.7 2.4 0.8
v 0.7 2.4 0.9
v 0.7 2.4 1.1
v 0.7 2.5 0.3
v 0.7 2.5 0.9
v 0.8 1.4 -0.2
v 0.8 2 -0.2
v 0.7 1.4 -0.2
v 0.7 2 -0.2
v 0.8 1.2 -0.1
v 0.8 1.4 -0.1
v 0.8 2 -0.1
v 0.8 2.2 -0.1
v 0.7 1.2 -0.1
v 0.7 1.4 -0.1
v 0.7 2 -0.1
v 0.7 2.2 -0.1
v 0.8 1.1 0
v 0.8 1.2 0
v 0.8 2.2 0
v 0.8 2.3 0
v 0.7 1.1 0
v 0.7 1.2 0
v 0.7 2.2 0
v 0.7 2.3 0
v 0.8 1 0.1
v 0.8 1.1 0.1
v 0.8 2.3 0.1
v 0.8 2.4 0.1
v 0.7 1 0.1
v 0.7 1.1 0.1
v 0.7 2.3 0.1
v 0.7 2.4 0.1
v 0.8 0.9 0.3
v 0.8 1 0.3
v 0.8 2.4 0.3
v 0.8 2.5 0.3
v 0.7 0.9 0.3
v 0.7 1 0.3
v 0.7 2.4 0.3
v 0.7 2.5 0.3
v 0.9 1.6 0.5
v 0.9 1.8 0.5
v 0.8 1.6 0.5
v 0.8 1.7 0.5
v 0.8 1.8 0.5
v 0.8 1.6 0.7
v 0.8 1.7 0.7
v 0.8 1.8 0.7
v 0.7 1.6 0.7
v 0.7 1.7 0.7
v 0.7 1.8 0.7
v 0.8 1.6 0.5
v 0.8 1.7 0.5
v 0.8 1.8 0.5
v 0.7 1.6 0.5
v 0.7 1.7 0.5
v 0.7 1.8 0.5
v 0.9 1.6 0.7
v 0.9 1.8 0.7
v 0.8 1.6 0.7
v 0.8 1.7 0.7
v 0.8 1.8 0.7
v 0.8 0.9 0.9
v 0.8 1 0.9
v 0.8 2.4 0.9
v 0.8 2.5 0.9
v 0.7 0.9 0.9
v 0.7 1 0.9
v 0.7 2.4 0.9
v 0.7 2.5 0.9
v 0.8 1 1.1
v 0.8 1.1 1.1
v 0.8 2.3 1.1
v 0.8 2.4 1.1
v 0.7 1 1.1
v 0.7 1.1 1.1
v 0.7 2.3 1.1
v 0.7 2.4 1.1
v 0.8 1.1 1.2
v 0.8 1.2 1.2
v 0.8 2.2 1.2
v 0.8 2.3 1.2
v 0.7 1.1 1.2
v 0.7 1.2 1.2
v 0.7 2.2 1.2
v 0.7 2.3 1.2
v 0.8 1.2 1.3
v 0.8 1.4 1.3
v 0.8 2 1.3
v 0.8 2.2 1.3
v 0.7 1.2 1.3
v 0.7 1.4 1.3
v 0.7 2 1.3
v 0.7 2.2 1.3
v 0.8 1.4 1.4
v 0.8 2 1.4
v 0.7 1.4 1.4
v 0.7 2 1.4

# faces
f 3/3/1 2/3/1 1/3/1
f 4/3/1 2/3/1 3/3/1
f 7/3/1 6/3/1 5/3/1
f 8/3/1 6/3/1 7/3/1
f 11/3/1 10/3/1 9/3/1
f 12/3/1 10/3/1 11/3/1
f 15/3/1 14/3/1 13/3/1
f 16/3/1 14/3/1 15/3/1
f 19/3/1 18/3/1 17/3/1
f 20/3/1 18/3/1 19/3/1
f 23/3/1 22/3/1 21/3/1
f 24/3/1 22/3/1 23/3/1
f 27/3/1 26/3/1 25/3/1
f 28/3/1 26/3/1 27/3/1
f 31/3/1 30/3/1 29/3/1
f 32/3/1 30/3/1 31/3/1
f 35/3/1 34/3/1 33/3/1
f 36/3/1 34/3/1 35/3/1
f 39/4/1 38/4/1 37/4/1
f 40/4/1 39/4/1 37/4/1
f 41/4/1 39/4/1 40/4/1
f 44/2/1 43/2/1 42/2/1
f 45/2/1 43/2/1 44/2/1
f 46/1/1 45/1/1 44/1/1
f 47/1/1 45/1/1 46/1/1
f 48/1/2 49/1/2 50/1/2
f 50/1/2 49/1/2 51/1/2
f 50/2/2 51/2/2 52/2/2
f 52/2/2 51/2/2 53/2/2
f 54/4/2 55/4/2 56/4/2
f 54/4/2 56/4/2 57/4/2
f 57/4/2 56/4/2 58/4/2
f 59/3/2 60/3/2 61/3/2
f 61/3/2 60/3/2 62/3/2
f 63/3/2 64/3/2 65/3/2
f 65/3/2 64/3/2 66/3/2
f 67/3/2 68/3/2 69/3/2
f 69/3/2 68/3/2 70/3/2
f 71/3/2 72/3/2 73/3/2
f 73/3/2 72/3/2 74/3/2
f 75/3/2 76/3/2 77/3/2
f 77/3/2 76/3/2 78/3/2
f 79/3/2 80/3/2 81/3/2
f 81/3/2 80/3/2 82/3/2
f 83/3/2 84/3/2 85/3/2
f 85/3/2 84/3/2 86/3/2
f 87/3/2 88/3/2 89/3/2
f 89/3/2 88/3/2 90/3/2
f 91/3/2 92/3/2 93/3/2
f 93/3/2 92/3/2 94/3/2
f 97/4/3 96/4/3 95/4/3
f 98/4/3 96/4/3 97/4/3
f 102/3/3 100/3/3 99/3/3
f 103/3/3 100/3/3 102/3/3
f 104/3/3 100/3/3 103/3/3
f 105/3/3 100/3/3 104/3/3
f 106/3/3 100/3/3 105/3/3
f 107/3/3 100/3/3 106/3/3
f 110/3/3 102/3/3 101/3/3
f 110/3/3 103/3/3 102/3/3
f 111/3/3 103/3/3 110/3/3
f 112/2/3 104/2/3 103/2/3
f 112/3/3 103/3/3 111/3/3
f 113/1/3 105/1/3 104/1/3
f 114/2/3 106/2/3 105/2/3
f 114/1/3 105/1/3 113/1/3
f 115/3/3 108/3/3 107/3/3
f 115/2/3 106/2/3 114/2/3
f 115/3/3 107/3/3 106/3/3
f 116/3/3 108/3/3 115/3/3
f 117/3/3 108/3/3 116/3/3
f 120/3/3 111/3/3 110/3/3
f 120/3/3 110/3/3 109/3/3
f 121/3/3 111/3/3 120/3/3
f 122/2/3 112/2/3 111/2/3
f 122/3/3 111/3/3 121/3/3
f 123/2/3 114/2/3 113/2/3
f 123/1/3 113/1/3 104/1/3
f 123/2/3 115/2/3 114/2/3
f 123/2/3 116/2/3 115/2/3
f 124/2/3 116/2/3 123/2/3
f 125/3/3 118/3/3 117/3/3
f 125/2/3 116/2/3 124/2/3
f 125/3/3 117/3/3 116/3/3
f 126/3/3 118/3/3 125/3/3
f 127/3/3 118/3/3 126/3/3
f 129/3/3 121/3/3 120/3/3
f 129/3/3 120/3/3 119/3/3
f 130/2/3 122/2/3 121/2/3
f 130/3/3 121/3/3 129/3/3
f 131/2/3 112/2/3 122/2/3
f 131/2/3 122/2/3 130/2/3
f 131/1/3 124/1/3 123/1/3
f 131/2/3 104/2/3 112/2/3
f 131/1/3 123/1/3 104/1/3
f 132/1/3 124/1/3 131/1/3
f 133/3/3 128/3/3 127/3/3
f 133/2/3 126/2/3 125/2/3
f 133/2/3 125/2/3 124/2/3
f 133/3/3 127/3/3 126/3/3
f 134/3/3 128/3/3 133/3/3
f 136/3/3 129/3/3 119/3/3
f 137/2/3 130/2/3 129/2/3
f 137/2/3 132/2/3 131/2/3
f 137/2/3 131/2/3 130/2/3
f 138/1/3 124/1/3 132/1/3
f 138/2/3 132/2/3 137/2/3
f 139/3/3 128/3/3 134/3/3
f 141/3/3 136/3/3 135/3/3
f 141/3/3 129/3/3 136/3/3
f 142/2/3 137/2/3 129/2/3
f 142/3/3 129/3/3 141/3/3
f 143/1/3 124/1/3 138/1/3
f 143/1/3 138/1/3 137/1/3
f 144/2/3 133/2/3 124/2/3
f 144/1/3 124/1/3 143/1/3
f 144/2/3 134/2/3 133/2/3
f 145/3/3 140/3/3 139/3/3
f 145/2/3 134/2/3 144/2/3
f 145/3/3 139/3/3 134/3/3
f 146/3/3 140/3/3 145/3/3
f 147/3/3 141/3/3 135/3/3
f 147/2/3 142/2/3 141/2/3
f 148/2/3 137/2/3 142/2/3
f 148/2/3 142/2/3 147/2/3
f 149/2/3 137/2/3 148/2/3
f 150/2/3 137/2/3 149/2/3
f 151/1/3 143/1/3 137/1/3
f 151/2/3 137/2/3 150/2/3
f 152/2/3 144/2/3 143/2/3
f 152/1/3 143/1/3 151/1/3
f 152/2/3 146/2/3 145/2/3
f 152/2/3 145/2/3 144/2/3
f 153/2/3 146/2/3 152/2/3
f 154/2/3 146/2/3 153/2/3
f 155/2/3 146/2/3 154/2/3
f 156/3/3 140/3/3 146/3/3
f 156/2/3 146/2/3 155/2/3
f 157/2/3 149/2/3 148/2/3
f 157/1/3 148/1/3 147/1/3
f 158/1/3 150/1/3 149/1/3
f 158/2/3 149/2/3 157/2/3
f 159/1/3 150/1/3 158/1/3
f 160/1/3 150/1/3 159/1/3
f 161/2/3 151/2/3 150/2/3
f 161/1/3 150/1/3 160/1/3
f 162/2/3 151/2/3 161/2/3
f 163/1/3 154/1/3 153/1/3
f 164/1/3 154/1/3 163/1/3
f 165/2/3 155/2/3 154/2/3
f 165/1/3 154/1/3 164/1/3
f 166/1/3 156/1/3 155/1/3
f 166/2/3 155/2/3 165/2/3
f 167/1/3 156/1/3 166/1/3
f 168/1/3 156/1/3 167/1/3
f 169/3/3 147/3/3 135/3/3
f 169/1/3 157/1/3 147/1/3
f 169/1/3 158/1/3 157/1/3
f 169/1/3 159/1/3 158/1/3
f 170/2/3 160/2/3 159/2/3
f 170/1/3 159/1/3 169/1/3
f 171/1/3 162/1/3 161/1/3
f 171/2/3 160/2/3 170/2/3
f 171/1/3 161/1/3 160/1/3
f 172/1/3 162/1/3 171/1/3
f 174/2/3 164/2/3 163/2/3
f 175/1/3 165/1/3 164/1/3
f 175/1/3 167/1/3 166/1/3
f 175/2/3 164/2/3 174/2/3
f 175/1/3 166/1/3 165/1/3
f 176/2/3 168/2/3 167/2/3
f 176/1/3 167/1/3 175/1/3
f 177/1/3 156/1/3 168/1/3
f 177/2/3 168/2/3 176/2/3
f 178/3/3 140/3/3 156/3/3
f 178/1/3 156/1/3 177/1/3
f 179/3/3 169/3/3 135/3/3
f 179/2/3 173/2/3 172/2/3
f 179/2/3 170/2/3 169/2/3
f 179/2/3 171/2/3 170/2/3
f 179/2/3 172/2/3 171/2/3
f 180/2/3 173/2/3 179/2/3
f 181/2/3 173/2/3 180/2/3
f 182/1/3 174/1/3 173/1/3
f 182/2/3 173/2/3 181/2/3
f 183/2/3 178/2/3 177/2/3
f 183/2/3 177/2/3 176/2/3
f 183/2/3 176/2/3 175/2/3
f 183/2/3 175/2/3 174/2/3
f 184/3/3 140/3/3 178/3/3
f 184/2/3 178/2/3 183/2/3
f 185/3/3 180/3/3 179/3/3
f 185/3/3 179/3/3 135/3/3
f 186/3/3 180/3/3 185/3/3
f 187/1/3 174/1/3 182/1/3
f 187/1/3 182/1/3 181/1/3
f 188/2/3 183/2/3 174/2/3
f 188/1/3 174/1/3 187/1/3
f 189/3/3 140/3/3 184/3/3
f 189/3/3 184/3/3 183/3/3
f 190/3/3 140/3/3 189/3/3
f 191/3/3 180/3/3 186/3/3
f 191/2/3 181/2/3 180/2/3
f 192/2/3 181/2/3 191/2/3
f 193/1/3 187/1/3 181/1/3
f 193/2/3 188/2/3 187/2/3
f 194/2/3 183/2/3 188/2/3
f 194/2/3 188/2/3 193/2/3
f 195/2/3 183/2/3 194/2/3
f 196/3/3 189/3/3 183/3/3
f 196/2/3 183/2/3 195/2/3
f 197/3/3 192/3/3 191/3/3
f 197/3/3 191/3/3 186/3/3
f 198/3/3 192/3/3 197/3/3
f 199/2/3 181/2/3 192/2/3
f 199/3/3 192/3/3 198/3/3
f 200/2/3 181/2/3 199/2/3
f 201/1/3 193/1/3 181/1/3
f 201/2/3 181/2/3 200/2/3
f 201/1/3 194/1/3 193/1/3
f 202/1/3 194/1/3 201/1/3
f 203/2/3 195/2/3 194/2/3
f 204/3/3 196/3/3 195/3/3
f 204/2/3 195/2/3 203/2/3
f 205/3/3 189/3/3 196/3/3
f 205/3/3 196/3/3 204/3/3
f 206/3/3 189/3/3 205/3/3
f 207/3/3 200/3/3 199/3/3
f 207/3/3 199/3/3 198/3/3
f 208/3/3 200/3/3 207/3/3
f 209/2/3 202/2/3 201/2/3
f 209/3/3 200/3/3 208/3/3
f 209/2/3 201/2/3 200/2/3
f 210/2/3 202/2/3 209/2/3
f 211/2/3 202/2/3 210/2/3
f 212/1/3 194/1/3 202/1/3
f 212/2/3 202/2/3 211/2/3
f 213/2/3 203/2/3 194/2/3
f 214/3/3 205/3/3 204/3/3
f 214/2/3 203/2/3 213/2/3
f 214/3/3 204/3/3 203/3/3
f 215/3/3 205/3/3 214/3/3
f 216/3/3 205/3/3 215/3/3
f 217/3/3 209/3/3 208/3/3
f 217/3/3 210/3/3 209/3/3
f 218/3/3 210/3/3 217/3/3
f 219/2/3 211/2/3 210/2/3
f 219/3/3 210/3/3 218/3/3
f 220/1/3 212/1/3 211/1/3
f 220/2/3 211/2/3 219/2/3
f 221/2/3 213/2/3 194/2/3
f 221/1/3 212/1/3 220/1/3
f 221/1/3 194/1/3 212/1/3
f 222/3/3 215/3/3 214/3/3
f 222/2/3 213/2/3 221/2/3
f 222/3/3 214/3/3 213/3/3
f 223/3/3 215/3/3 222/3/3
f 224/3/3 215/3/3 223/3/3
f 225/3/3 220/3/3 219/3/3
f 225/3/3 223/3/3 222/3/3
f 225/3/3 222/3/3 221/3/3
f 225/3/3 221/3/3 220/3/3
f 225/3/3 219/3/3 218/3/3
f 226/3/3 223/3/3 225/3/3
f 227/4/4 228/4/4 230/4/4
f 228/4/4 229/4/4 230/4/4
f 230/4/4 229/4/4 231/4/4
f 230/4/4 231/4/4 232/4/4
f 232/4/4 231/4/4 233/4/4
f 233/4/4 231/4/4 234/4/4
f 235/3/4 236/3/4 238/3/4
f 238/3/4 236/3/4 239/3/4
f 239/3/4 236/3/4 240/3/4
f 240/3/4 236/3/4 241/3/4
f 241/3/4 236/3/4 242/3/4
f 242/3/4 236/3/4 243/3/4
f 237/3/4 238/3/4 246/3/4
f 238/3/4 239/3/4 246/3/4
f 246/3/4 239/3/4 247/3/4
f 239/2/4 240/2/4 248/2/4
f 247/3/4 239/3/4 248/3/4
f 240/1/4 241/1/4 249/1/4
f 241/2/4 242/2/4 250/2/4
f 249/1/4 241/1/4 250/1/4
f 243/3/4 244/3/4 251/3/4
f 250/2/4 242/2/4 251/2/4
f 242/3/4 243/3/4 251/3/4
f 251/3/4 244/3/4 252/3/4
f 252/3/4 244/3/4 253/3/4
f 246/3/4 247/3/4 256/3/4
f 245/3/4 246/3/4 256/3/4
f 256/3/4 247/3/4 257/3/4
f 247/2/4 248/2/4 258/2/4
f 257/3/4 247/3/4 258/3/4
f 249/2/4 250/2/4 259/2/4
f 240/1/4 249/1/4 259/1/4
f 250/2/4 251/2/4 259/2/4
f 251/2/4 252/2/4 259/2/4
f 259/2/4 252/2/4 260/2/4
f 253/3/4 254/3/4 261/3/4
f 260/2/4 252/2/4 261/2/4
f 252/3/4 253/3/4 261/3/4
f 261/3/4 254/3/4 262/3/4
f 262/3/4 254/3/4 263/3/4
f 256/3/4 257/3/4 265/3/4
f 255/3/4 256/3/4 265/3/4
f 257/2/4 258/2/4 266/2/4
f 265/3/4 257/3/4 266/3/4
f 258/2/4 248/2/4 267/2/4
f 266/2/4 258/2/4 267/2/4
f 259/1/4 260/1/4 267/1/4
f 248/2/4 240/2/4 267/2/4
f 240/1/4 259/1/4 267/1/4
f 267/1/4 260/1/4 268/1/4
f 263/3/4 264/3/4 269/3/4
f 261/2/4 262/2/4 269/2/4
f 260/2/4 261/2/4 269/2/4
f 262/3/4 263/3/4 269/3/4
f 269/3/4 264/3/4 270/3/4
f 255/3/4 265/3/4 272/3/4
f 265/2/4 266/2/4 273/2/4
f 267/2/4 268/2/4 273/2/4
f 266/2/4 267/2/4 273/2/4
f 268/1/4 260/1/4 274/1/4
f 273/2/4 268/2/4 274/2/4
f 270/3/4 264/3/4 275/3/4
f 271/3/4 272/3/4 277/3/4
f 272/3/4 265/3/4 277/3/4
f 265/2/4 273/2/4 278/2/4
f 277/3/4 265/3/4 278/3/4
f 274/1/4 260/1/4 279/1/4
f 273/1/4 274/1/4 279/1/4
f 260/2/4 269/2/4 280/2/4
f 279/1/4 260/1/4 280/1/4
f 269/2/4 270/2/4 280/2/4
f 275/3/4 276/3/4 281/3/4
f 280/2/4 270/2/4 281/2/4
f 270/3/4 275/3/4 281/3/4
f 281/3/4 276/3/4 282/3/4
f 271/3/4 277/3/4 283/3/4
f 277/2/4 278/2/4 283/2/4
f 278/2/4 273/2/4 284/2/4
f 283/2/4 278/2/4 284/2/4
f 284/2/4 273/2/4 285/2/4
f 285/2/4 273/2/4 286/2/4
f 273/1/4 279/1/4 287/1/4
f 286/2/4 273/2/4 287/2/4
f 279/2/4 280/2/4 288/2/4
f 287/1/4 279/1/4 288/1/4
f 281/2/4 282/2/4 288/2/4
f 280/2/4 281/2/4 288/2/4
f 288/2/4 282/2/4 289/2/4
f 289/2/4 282/2/4 290/2/4
f 290/2/4 282/2/4 291/2/4
f 282/3/4 276/3/4 292/3/4
f 291/2/4 282/2/4 292/2/4
f 284/2/4 285/2/4 293/2/4
f 283/1/4 284/1/4 293/1/4
f 285/1/4 286/1/4 294/1/4
f 293/2/4 285/2/4 294/2/4
f 294/1/4 286/1/4 295/1/4
f 295/1/4 286/1/4 296/1/4
f 286/2/4 287/2/4 297/2/4
f 296/1/4 286/1/4 297/1/4
f 297/2/4 287/2/4 298/2/4
f 289/1/4 290/1/4 299/1/4
f 299/1/4 290/1/4 300/1/4
f 290/2/4 291/2/4 301/2/4
f 300/1/4 290/1/4 301/1/4
f 291/1/4 292/1/4 302/1/4
f 301/2/4 291/2/4 302/2/4
f 302/1/4 292/1/4 303/1/4
f 303/1/4 292/1/4 304/1/4
f 271/3/4 283/3/4 305/3/4
f 283/1/4 293/1/4 305/1/4
f 293/1/4 294/1/4 305/1/4
f 294/1/4 295/1/4 305/1/4
f 295/2/4 296/2/4 306/2/4
f 305/1/4 295/1/4 306/1/4
f 297/1/4 298/1/4 307/1/4
f 306/2/4 296/2/4 307/2/4
f 296/1/4 297/1/4 307/1/4
f 307/1/4 298/1/4 308/1/4
f 299/2/4 300/2/4 310/2/4
f 300/1/4 301/1/4 311/1/4
f 302/1/4 303/1/4 311/1/4
f 310/2/4 300/2/4 311/2/4
f 301/1/4 302/1/4 311/1/4
f 303/2/4 304/2/4 312/2/4
f 311/1/4 303/1/4 312/1/4
f 304/1/4 292/1/4 313/1/4
f 312/2/4 304/2/4 313/2/4
f 292/3/4 276/3/4 314/3/4
f 313/1/4 292/1/4 314/1/4
f 271/3/4 305/3/4 315/3/4
f 308/2/4 309/2/4 315/2/4
f 305/2/4 306/2/4 315/2/4
f 306/2/4 307/2/4 315/2/4
f 307/2/4 308/2/4 315/2/4
f 315/2/4 309/2/4 316/2/4
f 316/2/4 309/2/4 317/2/4
f 309/1/4 310/1/4 318/1/4
f 317/2/4 309/2/4 318/2/4
f 313/2/4 314/2/4 319/2/4
f 312/2/4 313/2/4 319/2/4
f 311/2/4 312/2/4 319/2/4
f 310/2/4 311/2/4 319/2/4
f 314/3/4 276/3/4 320/3/4
f 319/2/4 314/2/4 320/2/4
f 315/3/4 316/3/4 321/3/4
f 271/3/4 315/3/4 321/3/4
f 321/3/4 316/3/4 322/3/4
f 318/1/4 310/1/4 323/1/4
f 317/1/4 318/1/4 323/1/4
f 310/2/4 319/2/4 324/2/4
f 323/1/4 310/1/4 324/1/4
f 320/3/4 276/3/4 325/3/4
f 319/3/4 320/3/4 325/3/4
f 325/3/4 276/3/4 326/3/4
f 322/3/4 316/3/4 327/3/4
f 316/2/4 317/2/4 327/2/4
f 327/2/4 317/2/4 328/2/4
f 317/1/4 323/1/4 329/1/4
f 323/2/4 324/2/4 329/2/4
f 324/2/4 319/2/4 330/2/4
f 329/2/4 324/2/4 330/2/4
f 330/2/4 319/2/4 331/2/4
f 319/3/4 325/3/4 332/3/4
f 331/2/4 319/2/4 332/2/4
f 327/3/4 328/3/4 333/3/4
f 322/3/4 327/3/4 333/3/4
f 333/3/4 328/3/4 334/3/4
f 328/2/4 317/2/4 335/2/4
f 334/3/4 328/3/4 335/3/4
f 335/2/4 317/2/4 336/2/4
f 317/1/4 329/1/4 337/1/4
f 336/2/4 317/2/4 337/2/4
f 329/1/4 330/1/4 337/1/4
f 337/1/4 330/1/4 338/1/4
f 330/2/4 331/2/4 339/2/4
f 331/3/4 332/3/4 340/3/4
f 339/2/4 331/2/4 340/2/4
f 332/3/4 325/3/4 341/3/4
f 340/3/4 332/3/4 341/3/4
f 341/3/4 325/3/4 342/3/4
f 335/3/4 336/3/4 343/3/4
f 334/3/4 335/3/4 343/3/4
f 343/3/4 336/3/4 344/3/4
f 337/2/4 338/2/4 345/2/4
f 344/3/4 336/3/4 345/3/4
f 336/2/4 337/2/4 345/2/4
f 345/2/4 338/2/4 346/2/4
f 346/2/4 338/2/4 347/2/4
f 338/1/4 330/1/4 348/1/4
f 347/2/4 338/2/4 348/2/4
f 330/2/4 339/2/4 349/2/4
f 340/3/4 341/3/4 350/3/4
f 349/2/4 339/2/4 350/2/4
f 339/3/4 340/3/4 350/3/4
f 350/3/4 341/3/4 351/3/4
f 351/3/4 341/3/4 352/3/4
f 344/3/4 345/3/4 353/3/4
f 345/3/4 346/3/4 353/3/4
f 353/3/4 346/3/4 354/3/4
f 346/2/4 347/2/4 355/2/4
f 354/3/4 346/3/4 355/3/4
f 347/1/4 348/1/4 356/1/4
f 355/2/4 347/2/4 356/2/4
f 330/2/4 349/2/4 357/2/4
f 356/1/4 348/1/4 357/1/4
f 348/1/4 330/1/4 357/1/4
f 350/3/4 351/3/4 358/3/4
f 357/2/4 349/2/4 358/2/4
f 349/3/4 350/3/4 358/3/4
f 358/3/4 351/3/4 359/3/4
f 359/3/4 351/3/4 360/3/4
f 355/3/4 356/3/4 361/3/4
f 358/3/4 359/3/4 361/3/4
f 357/3/4 358/3/4 361/3/4
f 356/3/4 357/3/4 361/3/4
f 354/3/4 355/3/4 361/3/4
f 361/3/4 359/3/4 362/3/4
f 365/3/5 364/3/5 363/3/5
f 366/3/5 364/3/5 365/3/5
f 371/3/5 368/3/5 367/3/5
f 372/3/5 368/3/5 371/3/5
f 373/3/5 370/3/5 369/3/5
f 374/3/5 370/3/5 373/3/5
f 379/3/5 376/3/5 375/3/5
f 380/3/5 376/3/5 379/3/5
f 381/3/5 378/3/5 377/3/5
f 382/3/5 378/3/5 381/3/5
f 387/3/5 384/3/5 383/3/5
f 388/3/5 384/3/5 387/3/5
f 389/3/5 386/3/5 385/3/5
f 390/3/5 386/3/5 389/3/5
f 395/3/5 392/3/5 391/3/5
f 396/3/5 392/3/5 395/3/5
f 397/3/5 394/3/5 393/3/5
f 398/3/5 394/3/5 397/3/5
f 401/4/5 400/4/5 399/4/5
f 402/4/5 400/4/5 401/4/5
f 403/4/5 400/4/5 402/4/5
f 407/1/5 405/1/5 404/1/5
f 408/2/5 406/2/5 405/2/5
f 408/1/5 405/1/5 407/1/5
f 409/2/5 406/2/5 408/2/5
f 410/2/6 411/2/6 413/2/6
f 411/1/6 412/1/6 414/1/6
f 413/2/6 411/2/6 414/2/6
f 414/1/6 412/1/6 415/1/6
f 416/4/6 417/4/6 418/4/6
f 418/4/6 417/4/6 419/4/6
f 419/4/6 417/4/6 420/4/6
f 421/3/6 422/3/6 425/3/6
f 425/3/6 422/3/6 426/3/6
f 423/3/6 424/3/6 427/3/6
f 427/3/6 424/3/6 428/3/6
f 429/3/6 430/3/6 433/3/6
f 433/3/6 430/3/6 434/3/6
f 431/3/6 432/3/6 435/3/6
f 435/3/6 432/3/6 436/3/6
f 437/3/6 438/3/6 441/3/6
f 441/3/6 438/3/6 442/3/6
f 439/3/6 440/3/6 443/3/6
f 443/3/6 440/3/6 444/3/6
f 445/3/6 446/3/6 449/3/6
f 449/3/6 446/3/6 450/3/6
f 447/3/6 448/3/6 451/3/6
f 451/3/6 448/3/6 452/3/6
f 453/3/6 454/3/6 455/3/6
f 455/3/6 454/3/6 456/3/6
