# MagicaVoxel @ Ephtracy

# group
o helm_hvy_3c_ja

# material
mtllib char-193-helm_hvy_3c_ja.mtl
usemtl palette

# normals
vn -1 0 0
vn 1 0 0
vn 0 0 1
vn 0 0 -1
vn 0 -1 0
vn 0 1 0

# texcoords
vt 0.916016 0.5
vt 0.958984 0.5
vt 0.962891 0.5

# verts
v -0.3 2.5 0.2
v -0.3 2.5 -0.2
v -0.3 2.6 0.4
v -0.3 2.6 0.2
v -0.3 2.6 0.1
v -0.3 2.7 0.4
v -0.3 2.7 0.3
v -0.3 2.7 0.1
v -0.3 2.7 0
v -0.3 2.9 0.4
v -0.3 2.9 0.3
v -0.3 3 0.3
v -0.3 3 0
v -0.3 3 -0.2
v -0.3 3.1 0.4
v -0.3 3.1 0.3
v -0.3 3.2 0.3
v -0.3 3.2 -0.2
v -0.2 2.5 0.3
v -0.2 2.5 0.2
v -0.2 2.5 -0.2
v -0.2 2.5 -0.3
v -0.2 2.6 0.3
v -0.2 2.6 0.2
v -0.2 2.8 0.4
v -0.2 2.8 0.3
v -0.2 2.9 0.4
v -0.2 2.9 0.3
v -0.2 3 -0.2
v -0.2 3 -0.3
v -0.2 3.1 0.4
v -0.2 3.1 0.3
v -0.2 3.2 0.4
v -0.2 3.2 0.3
v -0.2 3.2 -0.2
v -0.2 3.2 -0.3
v -0.2 3.3 0.3
v -0.2 3.3 -0.2
v -0.1 2.9 0.4
v -0.1 2.9 0.3
v -0.1 3 0.4
v -0.1 3 0.3
v -0.1 3.2 0.4
v -0.1 3.2 0.3
v -0.1 3.2 -0.2
v -0.1 3.2 -0.3
v -0.1 3.3 0.4
v -0.1 3.3 0.3
v -0.1 3.3 -0.2
v -0.1 3.3 -0.3
v -0.1 3.4 0.3
v -0.1 3.4 -0.2
v 0.2 2.5 0.2
v 0.2 2.5 -0.2
v 0.2 2.6 0.4
v 0.2 2.6 0.3
v 0.2 2.6 0.2
v 0.2 2.6 0.1
v 0.2 2.7 0.4
v 0.2 2.7 0.3
v 0.2 2.7 0.1
v 0.2 2.7 0
v 0.2 2.8 0.3
v 0.2 2.8 0.2
v 0.2 2.9 0.4
v 0.2 2.9 0.3
v 0.2 3 0.4
v 0.2 3 0.3
v 0.2 3 0
v 0.2 3 -0.2
v 0.2 3.1 0.3
v 0.2 3.1 0.2
v 0.2 3.2 0.2
v 0.2 3.2 -0.2
v -0.2 2.5 0.2
v -0.2 2.5 -0.2
v -0.2 2.6 0.4
v -0.2 2.6 0.3
v -0.2 2.6 0.2
v -0.2 2.6 0.1
v -0.2 2.7 0.4
v -0.2 2.7 0.3
v -0.2 2.7 0.1
v -0.2 2.7 0
v -0.2 2.8 0.3
v -0.2 2.8 0.2
v -0.2 2.9 0.4
v -0.2 2.9 0.3
v -0.2 3 0.4
v -0.2 3 0.3
v -0.2 3 0
v -0.2 3 -0.2
v -0.2 3.1 0.3
v -0.2 3.1 0.2
v -0.2 3.2 0.2
v -0.2 3.2 -0.2
v 0.1 2.9 0.4
v 0.1 2.9 0.3
v 0.1 3 0.4
v 0.1 3 0.3
v 0.1 3.2 0.4
v 0.1 3.2 0.3
v 0.1 3.2 -0.2
v 0.1 3.2 -0.3
v 0.1 3.3 0.4
v 0.1 3.3 0.3
v 0.1 3.3 -0.2
v 0.1 3.3 -0.3
v 0.1 3.4 0.3
v 0.1 3.4 -0.2
v 0.2 2.5 0.3
v 0.2 2.5 0.2
v 0.2 2.5 -0.2
v 0.2 2.5 -0.3
v 0.2 2.6 0.3
v 0.2 2.6 0.2
v 0.2 2.8 0.4
v 0.2 2.8 0.3
v 0.2 2.9 0.4
v 0.2 2.9 0.3
v 0.2 3 -0.2
v 0.2 3 -0.3
v 0.2 3.1 0.4
v 0.2 3.1 0.3
v 0.2 3.2 0.4
v 0.2 3.2 0.3
v 0.2 3.2 -0.2
v 0.2 3.2 -0.3
v 0.2 3.3 0.3
v 0.2 3.3 -0.2
v 0.3 2.5 0.2
v 0.3 2.5 -0.2
v 0.3 2.6 0.4
v 0.3 2.6 0.2
v 0.3 2.6 0.1
v 0.3 2.7 0.4
v 0.3 2.7 0.3
v 0.3 2.7 0.1
v 0.3 2.7 0
v 0.3 2.9 0.4
v 0.3 2.9 0.3
v 0.3 3 0.3
v 0.3 3 0
v 0.3 3 -0.2
v 0.3 3.1 0.4
v 0.3 3.1 0.3
v 0.3 3.2 0.3
v 0.3 3.2 -0.2
v -0.3 2.6 0.4
v -0.3 2.7 0.4
v -0.3 2.9 0.4
v -0.3 3.1 0.4
v -0.2 2.6 0.4
v -0.2 2.7 0.4
v -0.2 2.8 0.4
v -0.2 2.9 0.4
v -0.2 3 0.4
v -0.2 3.1 0.4
v -0.2 3.2 0.4
v -0.1 2.9 0.4
v -0.1 3 0.4
v -0.1 3.2 0.4
v -0.1 3.3 0.4
v 0.1 2.9 0.4
v 0.1 3 0.4
v 0.1 3.2 0.4
v 0.1 3.3 0.4
v 0.2 2.6 0.4
v 0.2 2.7 0.4
v 0.2 2.8 0.4
v 0.2 2.9 0.4
v 0.2 3 0.4
v 0.2 3.1 0.4
v 0.2 3.2 0.4
v 0.3 2.6 0.4
v 0.3 2.7 0.4
v 0.3 2.9 0.4
v 0.3 3.1 0.4
v -0.3 2.7 0.3
v -0.3 2.9 0.3
v -0.3 3.1 0.3
v -0.3 3.2 0.3
v -0.2 2.5 0.3
v -0.2 2.6 0.3
v -0.2 2.7 0.3
v -0.2 2.8 0.3
v -0.2 2.9 0.3
v -0.2 3.1 0.3
v -0.2 3.2 0.3
v -0.2 3.3 0.3
v -0.1 3.2 0.3
v -0.1 3.3 0.3
v -0.1 3.4 0.3
v 0.1 3.2 0.3
v 0.1 3.3 0.3
v 0.1 3.4 0.3
v 0.2 2.5 0.3
v 0.2 2.6 0.3
v 0.2 2.7 0.3
v 0.2 2.8 0.3
v 0.2 2.9 0.3
v 0.2 3.1 0.3
v 0.2 3.2 0.3
v 0.2 3.3 0.3
v 0.3 2.7 0.3
v 0.3 2.9 0.3
v 0.3 3.1 0.3
v 0.3 3.2 0.3
v -0.3 2.5 0.2
v -0.3 2.6 0.2
v -0.2 2.5 0.2
v -0.2 2.6 0.2
v 0.2 2.5 0.2
v 0.2 2.6 0.2
v 0.3 2.5 0.2
v 0.3 2.6 0.2
v -0.2 2.5 -0.2
v -0.2 3 -0.2
v -0.2 3.2 -0.2
v -0.1 3.2 -0.2
v 0.1 3.2 -0.2
v 0.2 2.5 -0.2
v 0.2 3 -0.2
v 0.2 3.2 -0.2
v -0.2 2.8 0.3
v -0.2 2.9 0.3
v -0.2 3 0.3
v -0.2 3.1 0.3
v -0.1 2.9 0.3
v -0.1 3 0.3
v -0.1 3.1 0.3
v 0.1 2.9 0.3
v 0.1 3 0.3
v 0.1 3.1 0.3
v 0.2 2.8 0.3
v 0.2 2.9 0.3
v 0.2 3 0.3
v 0.2 3.1 0.3
v -0.2 2.5 0.2
v -0.2 2.6 0.2
v -0.2 2.8 0.2
v -0.2 3.1 0.2
v -0.2 3.2 0.2
v -0.1 3.1 0.2
v -0.1 3.2 0.2
v 0.1 3.1 0.2
v 0.1 3.2 0.2
v 0.2 2.5 0.2
v 0.2 2.6 0.2
v 0.2 2.8 0.2
v 0.2 3.1 0.2
v 0.2 3.2 0.2
v -0.3 2.5 -0.2
v -0.3 3 -0.2
v -0.3 3.2 -0.2
v -0.2 2.5 -0.2
v -0.2 3 -0.2
v -0.2 3.2 -0.2
v -0.2 3.3 -0.2
v -0.1 3.2 -0.2
v -0.1 3.3 -0.2
v -0.1 3.4 -0.2
v 0.1 3.2 -0.2
v 0.1 3.3 -0.2
v 0.1 3.4 -0.2
v 0.2 2.5 -0.2
v 0.2 3 -0.2
v 0.2 3.2 -0.2
v 0.2 3.3 -0.2
v 0.3 2.5 -0.2
v 0.3 3 -0.2
v 0.3 3.2 -0.2
v -0.2 2.5 -0.3
v -0.2 3 -0.3
v -0.2 3.2 -0.3
v -0.1 3.2 -0.3
v -0.1 3.3 -0.3
v 0.1 3.2 -0.3
v 0.1 3.3 -0.3
v 0.2 2.5 -0.3
v 0.2 3 -0.3
v 0.2 3.2 -0.3
v -0.2 2.5 0.3
v 0.2 2.5 0.3
v -0.3 2.5 0.2
v -0.2 2.5 0.2
v 0.2 2.5 0.2
v 0.3 2.5 0.2
v -0.3 2.5 -0.2
v -0.2 2.5 -0.2
v 0.2 2.5 -0.2
v 0.3 2.5 -0.2
v -0.2 2.5 -0.3
v 0.2 2.5 -0.3
v -0.3 2.6 0.4
v -0.2 2.6 0.4
v 0.2 2.6 0.4
v 0.3 2.6 0.4
v -0.2 2.6 0.3
v 0.2 2.6 0.3
v -0.3 2.6 0.2
v -0.2 2.6 0.2
v 0.2 2.6 0.2
v 0.3 2.6 0.2
v -0.2 2.8 0.4
v 0.2 2.8 0.4
v -0.2 2.8 0.3
v 0.2 2.8 0.3
v -0.3 2.9 0.4
v -0.2 2.9 0.4
v 0.2 2.9 0.4
v 0.3 2.9 0.4
v -0.3 2.9 0.3
v -0.2 2.9 0.3
v 0.2 2.9 0.3
v 0.3 2.9 0.3
v -0.2 3 0.4
v -0.1 3 0.4
v 0.1 3 0.4
v 0.2 3 0.4
v -0.2 3 0.3
v -0.1 3 0.3
v 0.1 3 0.3
v 0.2 3 0.3
v -0.2 3.1 0.3
v -0.1 3.1 0.3
v 0.1 3.1 0.3
v 0.2 3.1 0.3
v -0.2 3.1 0.2
v -0.1 3.1 0.2
v 0.1 3.1 0.2
v 0.2 3.1 0.2
v -0.2 3.2 0.2
v -0.1 3.2 0.2
v 0.1 3.2 0.2
v 0.2 3.2 0.2
v -0.2 3.2 -0.2
v -0.1 3.2 -0.2
v 0.1 3.2 -0.2
v 0.2 3.2 -0.2
v -0.3 2.7 0.4
v -0.2 2.7 0.4
v 0.2 2.7 0.4
v 0.3 2.7 0.4
v -0.3 2.7 0.3
v -0.2 2.7 0.3
v 0.2 2.7 0.3
v 0.3 2.7 0.3
v -0.2 2.8 0.3
v 0.2 2.8 0.3
v -0.2 2.8 0.2
v 0.2 2.8 0.2
v -0.2 2.9 0.4
v -0.1 2.9 0.4
v 0.1 2.9 0.4
v 0.2 2.9 0.4
v -0.2 2.9 0.3
v -0.1 2.9 0.3
v 0.1 2.9 0.3
v 0.2 2.9 0.3
v -0.3 3.1 0.4
v -0.2 3.1 0.4
v 0.2 3.1 0.4
v 0.3 3.1 0.4
v -0.3 3.1 0.3
v -0.2 3.1 0.3
v 0.2 3.1 0.3
v 0.3 3.1 0.3
v -0.2 3.2 0.4
v -0.1 3.2 0.4
v 0.1 3.2 0.4
v 0.2 3.2 0.4
v -0.3 3.2 0.3
v -0.2 3.2 0.3
v -0.1 3.2 0.3
v 0.1 3.2 0.3
v 0.2 3.2 0.3
v 0.3 3.2 0.3
v -0.3 3.2 -0.2
v -0.2 3.2 -0.2
v -0.1 3.2 -0.2
v 0.1 3.2 -0.2
v 0.2 3.2 -0.2
v 0.3 3.2 -0.2
v -0.2 3.2 -0.3
v -0.1 3.2 -0.3
v 0.1 3.2 -0.3
v 0.2 3.2 -0.3
v -0.1 3.3 0.4
v 0.1 3.3 0.4
v -0.2 3.3 0.3
v -0.1 3.3 0.3
v 0.1 3.3 0.3
v 0.2 3.3 0.3
v -0.2 3.3 -0.2
v -0.1 3.3 -0.2
v 0.1 3.3 -0.2
v 0.2 3.3 -0.2
v -0.1 3.3 -0.3
v 0.1 3.3 -0.3
v -0.1 3.4 0.3
v 0.1 3.4 0.3
v -0.1 3.4 -0.2
v 0.1 3.4 -0.2

# faces
f 4/2/1 2/2/1 1/2/1
f 5/2/1 2/2/1 4/2/1
f 6/3/1 4/3/1 3/3/1
f 6/3/1 5/3/1 4/3/1
f 7/3/1 5/3/1 6/3/1
f 8/2/1 2/2/1 5/2/1
f 8/3/1 5/3/1 7/3/1
f 9/2/1 2/2/1 8/2/1
f 11/3/1 8/3/1 7/3/1
f 11/3/1 9/3/1 8/3/1
f 12/3/1 9/3/1 11/3/1
f 12/1/1 11/1/1 10/1/1
f 13/2/1 2/2/1 9/2/1
f 13/3/1 9/3/1 12/3/1
f 14/2/1 2/2/1 13/2/1
f 15/1/1 12/1/1 10/1/1
f 15/1/1 13/1/1 12/1/1
f 15/1/1 14/1/1 13/1/1
f 16/1/1 14/1/1 15/1/1
f 17/1/1 14/1/1 16/1/1
f 18/1/1 14/1/1 17/1/1
f 23/2/1 20/2/1 19/2/1
f 24/2/1 20/2/1 23/2/1
f 27/1/1 26/1/1 25/1/1
f 28/1/1 26/1/1 27/1/1
f 29/2/1 22/2/1 21/2/1
f 30/2/1 22/2/1 29/2/1
f 33/1/1 32/1/1 31/1/1
f 34/1/1 32/1/1 33/1/1
f 35/1/1 30/1/1 29/1/1
f 36/1/1 30/1/1 35/1/1
f 37/3/1 35/3/1 34/3/1
f 38/3/1 35/3/1 37/3/1
f 41/1/1 40/1/1 39/1/1
f 42/1/1 40/1/1 41/1/1
f 47/1/1 44/1/1 43/1/1
f 48/1/1 44/1/1 47/1/1
f 49/1/1 46/1/1 45/1/1
f 50/1/1 46/1/1 49/1/1
f 51/1/1 49/1/1 48/1/1
f 52/1/1 49/1/1 51/1/1
f 57/2/1 54/2/1 53/2/1
f 58/2/1 54/2/1 57/2/1
f 59/3/1 56/3/1 55/3/1
f 60/3/1 56/3/1 59/3/1
f 61/2/1 54/2/1 58/2/1
f 61/3/1 58/3/1 57/3/1
f 62/2/1 54/2/1 61/2/1
f 64/3/1 61/3/1 57/3/1
f 64/3/1 62/3/1 61/3/1
f 66/3/1 64/3/1 63/3/1
f 67/1/1 66/1/1 65/1/1
f 68/3/1 64/3/1 66/3/1
f 68/1/1 66/1/1 67/1/1
f 69/2/1 54/2/1 62/2/1
f 69/3/1 64/3/1 68/3/1
f 69/3/1 62/3/1 64/3/1
f 70/2/1 54/2/1 69/2/1
f 71/1/1 69/1/1 68/1/1
f 71/1/1 70/1/1 69/1/1
f 72/1/1 70/1/1 71/1/1
f 73/1/1 70/1/1 72/1/1
f 74/1/1 70/1/1 73/1/1
f 75/2/2 76/2/2 79/2/2
f 79/2/2 76/2/2 80/2/2
f 77/3/2 78/3/2 81/3/2
f 81/3/2 78/3/2 82/3/2
f 80/2/2 76/2/2 83/2/2
f 79/3/2 80/3/2 83/3/2
f 83/2/2 76/2/2 84/2/2
f 79/3/2 83/3/2 86/3/2
f 83/3/2 84/3/2 86/3/2
f 85/3/2 86/3/2 88/3/2
f 87/1/2 88/1/2 89/1/2
f 88/3/2 86/3/2 90/3/2
f 89/1/2 88/1/2 90/1/2
f 84/2/2 76/2/2 91/2/2
f 90/3/2 86/3/2 91/3/2
f 86/3/2 84/3/2 91/3/2
f 91/2/2 76/2/2 92/2/2
f 90/1/2 91/1/2 93/1/2
f 91/1/2 92/1/2 93/1/2
f 93/1/2 92/1/2 94/1/2
f 94/1/2 92/1/2 95/1/2
f 95/1/2 92/1/2 96/1/2
f 97/1/2 98/1/2 99/1/2
f 99/1/2 98/1/2 100/1/2
f 101/1/2 102/1/2 105/1/2
f 105/1/2 102/1/2 106/1/2
f 103/1/2 104/1/2 107/1/2
f 107/1/2 104/1/2 108/1/2
f 106/1/2 107/1/2 109/1/2
f 109/1/2 107/1/2 110/1/2
f 111/2/2 112/2/2 115/2/2
f 115/2/2 112/2/2 116/2/2
f 117/1/2 118/1/2 119/1/2
f 119/1/2 118/1/2 120/1/2
f 113/2/2 114/2/2 121/2/2
f 121/2/2 114/2/2 122/2/2
f 123/1/2 124/1/2 125/1/2
f 125/1/2 124/1/2 126/1/2
f 121/1/2 122/1/2 127/1/2
f 127/1/2 122/1/2 128/1/2
f 126/3/2 127/3/2 129/3/2
f 129/3/2 127/3/2 130/3/2
f 131/2/2 132/2/2 134/2/2
f 134/2/2 132/2/2 135/2/2
f 133/3/2 134/3/2 136/3/2
f 134/3/2 135/3/2 136/3/2
f 136/3/2 135/3/2 137/3/2
f 135/2/2 132/2/2 138/2/2
f 137/3/2 135/3/2 138/3/2
f 138/2/2 132/2/2 139/2/2
f 137/3/2 138/3/2 141/3/2
f 138/3/2 139/3/2 141/3/2
f 141/3/2 139/3/2 142/3/2
f 140/1/2 141/1/2 142/1/2
f 139/2/2 132/2/2 143/2/2
f 142/3/2 139/3/2 143/3/2
f 143/2/2 132/2/2 144/2/2
f 140/1/2 142/1/2 145/1/2
f 142/1/2 143/1/2 145/1/2
f 143/1/2 144/1/2 145/1/2
f 145/1/2 144/1/2 146/1/2
f 146/1/2 144/1/2 147/1/2
f 147/1/2 144/1/2 148/1/2
f 153/3/3 150/3/3 149/3/3
f 154/3/3 150/3/3 153/3/3
f 156/1/3 152/1/3 151/1/3
f 157/1/3 152/1/3 156/1/3
f 158/1/3 152/1/3 157/1/3
f 160/1/3 156/1/3 155/1/3
f 161/1/3 159/1/3 158/1/3
f 161/1/3 158/1/3 157/1/3
f 162/1/3 159/1/3 161/1/3
f 164/1/3 160/1/3 155/1/3
f 164/1/3 163/1/3 162/1/3
f 164/1/3 162/1/3 161/1/3
f 164/1/3 161/1/3 160/1/3
f 165/1/3 163/1/3 164/1/3
f 166/1/3 163/1/3 165/1/3
f 167/1/3 163/1/3 166/1/3
f 170/1/3 164/1/3 155/1/3
f 171/1/3 164/1/3 170/1/3
f 172/1/3 166/1/3 165/1/3
f 173/1/3 166/1/3 172/1/3
f 174/1/3 166/1/3 173/1/3
f 175/3/3 169/3/3 168/3/3
f 176/3/3 169/3/3 175/3/3
f 177/1/3 173/1/3 172/1/3
f 177/1/3 172/1/3 171/1/3
f 178/1/3 173/1/3 177/1/3
f 185/3/3 180/3/3 179/3/3
f 186/3/3 180/3/3 185/3/3
f 187/3/3 180/3/3 186/3/3
f 188/1/3 182/1/3 181/1/3
f 189/1/3 182/1/3 188/1/3
f 191/3/3 190/3/3 189/3/3
f 192/3/3 190/3/3 191/3/3
f 195/1/3 193/1/3 192/1/3
f 196/1/3 193/1/3 195/1/3
f 197/2/3 184/2/3 183/2/3
f 197/2/3 185/2/3 184/2/3
f 197/2/3 186/2/3 185/2/3
f 198/2/3 186/2/3 197/2/3
f 199/2/3 186/2/3 198/2/3
f 200/2/3 186/2/3 199/2/3
f 203/3/3 195/3/3 194/3/3
f 204/3/3 195/3/3 203/3/3
f 205/3/3 201/3/3 200/3/3
f 205/3/3 200/3/3 199/3/3
f 206/3/3 201/3/3 205/3/3
f 207/1/3 203/1/3 202/1/3
f 208/1/3 203/1/3 207/1/3
f 211/2/3 210/2/3 209/2/3
f 212/2/3 210/2/3 211/2/3
f 215/2/3 214/2/3 213/2/3
f 216/2/3 214/2/3 215/2/3
f 220/1/3 219/1/3 218/1/3
f 221/1/3 220/1/3 218/1/3
f 222/2/3 218/2/3 217/2/3
f 223/1/3 221/1/3 218/1/3
f 223/2/3 218/2/3 222/2/3
f 224/1/3 221/1/3 223/1/3
f 225/1/4 226/1/4 229/1/4
f 227/1/4 228/1/4 230/1/4
f 230/1/4 228/1/4 231/1/4
f 225/1/4 229/1/4 232/1/4
f 229/1/4 230/1/4 232/1/4
f 230/1/4 231/1/4 232/1/4
f 232/1/4 231/1/4 233/1/4
f 233/1/4 231/1/4 234/1/4
f 225/1/4 232/1/4 235/1/4
f 235/1/4 232/1/4 236/1/4
f 233/1/4 234/1/4 237/1/4
f 237/1/4 234/1/4 238/1/4
f 242/1/4 243/1/4 244/1/4
f 244/1/4 243/1/4 245/1/4
f 244/2/4 245/2/4 246/2/4
f 246/2/4 245/2/4 247/2/4
f 239/2/4 240/2/4 248/2/4
f 240/2/4 241/2/4 248/2/4
f 248/2/4 241/2/4 249/2/4
f 249/2/4 241/2/4 250/2/4
f 246/1/4 247/1/4 251/1/4
f 251/1/4 247/1/4 252/1/4
f 253/2/4 254/2/4 256/2/4
f 254/1/4 255/1/4 257/1/4
f 256/2/4 254/2/4 257/2/4
f 257/1/4 255/1/4 258/1/4
f 258/3/4 259/3/4 260/3/4
f 260/3/4 259/3/4 261/3/4
f 261/1/4 262/1/4 264/1/4
f 264/1/4 262/1/4 265/1/4
f 263/3/4 264/3/4 268/3/4
f 268/3/4 264/3/4 269/3/4
f 266/2/4 267/2/4 270/2/4
f 267/1/4 268/1/4 271/1/4
f 270/2/4 267/2/4 271/2/4
f 271/1/4 268/1/4 272/1/4
f 274/1/4 275/1/4 276/1/4
f 274/1/4 276/1/4 278/1/4
f 276/1/4 277/1/4 278/1/4
f 278/1/4 277/1/4 279/1/4
f 273/2/4 274/2/4 280/2/4
f 274/1/4 278/1/4 281/1/4
f 280/2/4 274/2/4 281/2/4
f 281/1/4 278/1/4 282/1/4
f 286/2/5 284/2/5 283/2/5
f 287/2/5 284/2/5 286/2/5
f 289/2/5 286/2/5 285/2/5
f 290/2/5 286/2/5 289/2/5
f 291/2/5 288/2/5 287/2/5
f 292/2/5 288/2/5 291/2/5
f 293/2/5 291/2/5 290/2/5
f 294/2/5 291/2/5 293/2/5
f 299/3/5 296/3/5 295/3/5
f 300/3/5 298/3/5 297/3/5
f 301/3/5 299/3/5 295/3/5
f 302/3/5 299/3/5 301/3/5
f 303/3/5 298/3/5 300/3/5
f 304/3/5 298/3/5 303/3/5
f 307/1/5 306/1/5 305/1/5
f 308/1/5 306/1/5 307/1/5
f 313/1/5 310/1/5 309/1/5
f 314/1/5 310/1/5 313/1/5
f 315/1/5 312/1/5 311/1/5
f 316/1/5 312/1/5 315/1/5
f 321/1/5 318/1/5 317/1/5
f 322/1/5 318/1/5 321/1/5
f 323/1/5 320/1/5 319/1/5
f 324/1/5 320/1/5 323/1/5
f 329/1/5 326/1/5 325/1/5
f 330/2/5 327/2/5 326/2/5
f 330/1/5 326/1/5 329/1/5
f 331/1/5 328/1/5 327/1/5
f 331/2/5 327/2/5 330/2/5
f 332/1/5 328/1/5 331/1/5
f 337/3/5 334/3/5 333/3/5
f 338/1/5 335/1/5 334/1/5
f 338/3/5 334/3/5 337/3/5
f 339/3/5 336/3/5 335/3/5
f 339/1/5 335/1/5 338/1/5
f 340/3/5 336/3/5 339/3/5
f 341/3/6 342/3/6 345/3/6
f 345/3/6 342/3/6 346/3/6
f 343/3/6 344/3/6 347/3/6
f 347/3/6 344/3/6 348/3/6
f 349/2/6 350/2/6 351/2/6
f 351/2/6 350/2/6 352/2/6
f 353/1/6 354/1/6 357/1/6
f 357/1/6 354/1/6 358/1/6
f 355/1/6 356/1/6 359/1/6
f 359/1/6 356/1/6 360/1/6
f 361/1/6 362/1/6 365/1/6
f 365/1/6 362/1/6 366/1/6
f 363/1/6 364/1/6 367/1/6
f 367/1/6 364/1/6 368/1/6
f 369/1/6 370/1/6 374/1/6
f 374/1/6 370/1/6 375/1/6
f 371/1/6 372/1/6 376/1/6
f 376/1/6 372/1/6 377/1/6
f 373/1/6 374/1/6 379/1/6
f 379/1/6 374/1/6 380/1/6
f 377/1/6 378/1/6 383/1/6
f 383/1/6 378/1/6 384/1/6
f 380/1/6 381/1/6 385/1/6
f 385/1/6 381/1/6 386/1/6
f 382/1/6 383/1/6 387/1/6
f 387/1/6 383/1/6 388/1/6
f 389/1/6 390/1/6 392/1/6
f 392/1/6 390/1/6 393/1/6
f 391/3/6 392/3/6 395/3/6
f 395/3/6 392/3/6 396/3/6
f 393/3/6 394/3/6 397/3/6
f 397/3/6 394/3/6 398/3/6
f 396/1/6 397/1/6 399/1/6
f 399/1/6 397/1/6 400/1/6
f 401/1/6 402/1/6 403/1/6
f 403/1/6 402/1/6 404/1/6
