# MagicaVoxel @ Ephtracy

# group
o sword_curved_3

# material
mtllib char-14-sword_curved_3.mtl
usemtl palette

# normals
vn -1 0 0
vn 1 0 0
vn 0 1 0
vn 0 -1 0
vn 0 0 1
vn 0 0 -1

# texcoords
vt 0.736328 0.5
vt 0.916016 0.5
vt 0.966797 0.5

# verts
v -0.6 1.9 0.7
v -0.6 1.8 0.7
v -0.6 1.5 0.7
v -0.6 1.4 0.7
v -0.6 2.8 0.6
v -0.6 1.9 0.6
v -0.6 1.8 0.6
v -0.6 1.5 0.6
v -0.6 3 0.5
v -0.6 2.8 0.5
v -0.6 2.7 0.5
v -0.6 1.9 0.5
v -0.6 1.8 0.5
v -0.6 1.5 0.5
v -0.6 1.4 0.5
v -0.6 3.1 0.4
v -0.6 3 0.4
v -0.6 2.9 0.4
v -0.6 2.7 0.4
v -0.6 1.9 0.4
v -0.6 1.8 0.4
v -0.6 3.2 0.3
v -0.6 3.1 0.3
v -0.6 3 0.3
v -0.6 2.9 0.3
v -0.6 3.1 0.2
v -0.6 3 0.2
v -0.6 3.2 0.1
v -0.6 3.1 0.1
v -0.5 1.9 0.7
v -0.5 1.8 0.7
v -0.5 1.5 0.7
v -0.5 1.4 0.7
v -0.5 2.8 0.6
v -0.5 1.9 0.6
v -0.5 1.8 0.6
v -0.5 1.5 0.6
v -0.5 3 0.5
v -0.5 2.8 0.5
v -0.5 2.7 0.5
v -0.5 1.9 0.5
v -0.5 1.8 0.5
v -0.5 1.5 0.5
v -0.5 1.4 0.5
v -0.5 3.1 0.4
v -0.5 3 0.4
v -0.5 2.9 0.4
v -0.5 2.7 0.4
v -0.5 1.9 0.4
v -0.5 1.8 0.4
v -0.5 3.2 0.3
v -0.5 3.1 0.3
v -0.5 3 0.3
v -0.5 2.9 0.3
v -0.5 3.1 0.2
v -0.5 3 0.2
v -0.5 3.2 0.1
v -0.5 3.1 0.1
v -0.6 3.2 0.3
v -0.6 3.2 0.1
v -0.5 3.2 0.3
v -0.5 3.2 0.1
v -0.6 3.1 0.4
v -0.6 3.1 0.3
v -0.5 3.1 0.4
v -0.5 3.1 0.3
v -0.6 3 0.5
v -0.6 3 0.4
v -0.5 3 0.5
v -0.5 3 0.4
v -0.6 2.8 0.6
v -0.6 2.8 0.5
v -0.5 2.8 0.6
v -0.5 2.8 0.5
v -0.6 1.9 0.7
v -0.6 1.9 0.6
v -0.6 1.9 0.5
v -0.6 1.9 0.4
v -0.5 1.9 0.7
v -0.5 1.9 0.6
v -0.5 1.9 0.5
v -0.5 1.9 0.4
v -0.6 1.5 0.7
v -0.6 1.5 0.6
v -0.5 1.5 0.7
v -0.5 1.5 0.6
v -0.6 3.1 0.2
v -0.6 3.1 0.1
v -0.5 3.1 0.2
v -0.5 3.1 0.1
v -0.6 3 0.3
v -0.6 3 0.2
v -0.5 3 0.3
v -0.5 3 0.2
v -0.6 2.9 0.4
v -0.6 2.9 0.3
v -0.5 2.9 0.4
v -0.5 2.9 0.3
v -0.6 2.7 0.5
v -0.6 2.7 0.4
v -0.5 2.7 0.5
v -0.5 2.7 0.4
v -0.6 1.8 0.7
v -0.6 1.8 0.6
v -0.6 1.8 0.5
v -0.6 1.8 0.4
v -0.5 1.8 0.7
v -0.5 1.8 0.6
v -0.5 1.8 0.5
v -0.5 1.8 0.4
v -0.6 1.4 0.7
v -0.6 1.4 0.5
v -0.5 1.4 0.7
v -0.5 1.4 0.5
v -0.6 1.9 0.7
v -0.5 1.9 0.7
v -0.6 1.8 0.7
v -0.5 1.8 0.7
v -0.6 1.5 0.7
v -0.5 1.5 0.7
v -0.6 1.4 0.7
v -0.5 1.4 0.7
v -0.6 2.8 0.6
v -0.5 2.8 0.6
v -0.6 1.9 0.6
v -0.5 1.9 0.6
v -0.6 1.8 0.6
v -0.5 1.8 0.6
v -0.6 1.5 0.6
v -0.5 1.5 0.6
v -0.6 3 0.5
v -0.5 3 0.5
v -0.6 2.8 0.5
v -0.5 2.8 0.5
v -0.6 3.1 0.4
v -0.5 3.1 0.4
v -0.6 3 0.4
v -0.5 3 0.4
v -0.6 3.2 0.3
v -0.5 3.2 0.3
v -0.6 3.1 0.3
v -0.5 3.1 0.3
v -0.6 2.7 0.5
v -0.5 2.7 0.5
v -0.6 1.9 0.5
v -0.5 1.9 0.5
v -0.6 1.8 0.5
v -0.5 1.8 0.5
v -0.6 1.5 0.5
v -0.5 1.5 0.5
v -0.6 1.4 0.5
v -0.5 1.4 0.5
v -0.6 2.9 0.4
v -0.5 2.9 0.4
v -0.6 2.7 0.4
v -0.5 2.7 0.4
v -0.6 1.9 0.4
v -0.5 1.9 0.4
v -0.6 1.8 0.4
v -0.5 1.8 0.4
v -0.6 3 0.3
v -0.5 3 0.3
v -0.6 2.9 0.3
v -0.5 2.9 0.3
v -0.6 3.1 0.2
v -0.5 3.1 0.2
v -0.6 3 0.2
v -0.5 3 0.2
v -0.6 3.2 0.1
v -0.5 3.2 0.1
v -0.6 3.1 0.1
v -0.5 3.1 0.1

# faces
f 6/2/1 2/2/1 1/2/1
f 7/2/1 2/2/1 6/2/1
f 8/2/1 4/2/1 3/2/1
f 10/3/1 6/3/1 5/3/1
f 11/3/1 6/3/1 10/3/1
f 12/2/1 7/2/1 6/2/1
f 12/3/1 6/3/1 11/3/1
f 13/1/1 8/1/1 7/1/1
f 13/2/1 7/2/1 12/2/1
f 14/2/1 4/2/1 8/2/1
f 14/1/1 8/1/1 13/1/1
f 15/2/1 4/2/1 14/2/1
f 17/3/1 11/3/1 10/3/1
f 17/3/1 10/3/1 9/3/1
f 18/3/1 11/3/1 17/3/1
f 19/3/1 11/3/1 18/3/1
f 20/2/1 13/2/1 12/2/1
f 21/2/1 13/2/1 20/2/1
f 23/3/1 17/3/1 16/3/1
f 23/3/1 18/3/1 17/3/1
f 24/3/1 18/3/1 23/3/1
f 25/3/1 18/3/1 24/3/1
f 26/3/1 23/3/1 22/3/1
f 26/3/1 24/3/1 23/3/1
f 27/3/1 24/3/1 26/3/1
f 28/3/1 26/3/1 22/3/1
f 29/3/1 26/3/1 28/3/1
f 30/2/2 31/2/2 35/2/2
f 35/2/2 31/2/2 36/2/2
f 32/2/2 33/2/2 37/2/2
f 34/3/2 35/3/2 39/3/2
f 39/3/2 35/3/2 40/3/2
f 35/2/2 36/2/2 41/2/2
f 40/3/2 35/3/2 41/3/2
f 36/1/2 37/1/2 42/1/2
f 41/2/2 36/2/2 42/2/2
f 37/2/2 33/2/2 43/2/2
f 42/1/2 37/1/2 43/1/2
f 43/2/2 33/2/2 44/2/2
f 39/3/2 40/3/2 46/3/2
f 38/3/2 39/3/2 46/3/2
f 46/3/2 40/3/2 47/3/2
f 47/3/2 40/3/2 48/3/2
f 41/2/2 42/2/2 49/2/2
f 49/2/2 42/2/2 50/2/2
f 45/3/2 46/3/2 52/3/2
f 46/3/2 47/3/2 52/3/2
f 52/3/2 47/3/2 53/3/2
f 53/3/2 47/3/2 54/3/2
f 51/3/2 52/3/2 55/3/2
f 52/3/2 53/3/2 55/3/2
f 55/3/2 53/3/2 56/3/2
f 51/3/2 55/3/2 57/3/2
f 57/3/2 55/3/2 58/3/2
f 61/3/3 60/3/3 59/3/3
f 62/3/3 60/3/3 61/3/3
f 65/3/3 64/3/3 63/3/3
f 66/3/3 64/3/3 65/3/3
f 69/3/3 68/3/3 67/3/3
f 70/3/3 68/3/3 69/3/3
f 73/3/3 72/3/3 71/3/3
f 74/3/3 72/3/3 73/3/3
f 79/2/3 76/2/3 75/2/3
f 80/2/3 76/2/3 79/2/3
f 81/2/3 78/2/3 77/2/3
f 82/2/3 78/2/3 81/2/3
f 85/2/3 84/2/3 83/2/3
f 86/2/3 84/2/3 85/2/3
f 87/3/4 88/3/4 89/3/4
f 89/3/4 88/3/4 90/3/4
f 91/3/4 92/3/4 93/3/4
f 93/3/4 92/3/4 94/3/4
f 95/3/4 96/3/4 97/3/4
f 97/3/4 96/3/4 98/3/4
f 99/3/4 100/3/4 101/3/4
f 101/3/4 100/3/4 102/3/4
f 103/2/4 104/2/4 107/2/4
f 107/2/4 104/2/4 108/2/4
f 105/2/4 106/2/4 109/2/4
f 109/2/4 106/2/4 110/2/4
f 111/2/4 112/2/4 113/2/4
f 113/2/4 112/2/4 114/2/4
f 117/2/5 116/2/5 115/2/5
f 118/2/5 116/2/5 117/2/5
f 121/2/5 120/2/5 119/2/5
f 122/2/5 120/2/5 121/2/5
f 125/3/5 124/3/5 123/3/5
f 126/3/5 124/3/5 125/3/5
f 129/1/5 128/1/5 127/1/5
f 130/1/5 128/1/5 129/1/5
f 133/3/5 132/3/5 131/3/5
f 134/3/5 132/3/5 133/3/5
f 137/3/5 136/3/5 135/3/5
f 138/3/5 136/3/5 137/3/5
f 141/3/5 140/3/5 139/3/5
f 142/3/5 140/3/5 141/3/5
f 143/3/6 144/3/6 145/3/6
f 145/3/6 144/3/6 146/3/6
f 147/1/6 148/1/6 149/1/6
f 149/1/6 148/1/6 150/1/6
f 149/2/6 150/2/6 151/2/6
f 151/2/6 150/2/6 152/2/6
f 153/3/6 154/3/6 155/3/6
f 155/3/6 154/3/6 156/3/6
f 157/2/6 158/2/6 159/2/6
f 159/2/6 158/2/6 160/2/6
f 161/3/6 162/3/6 163/3/6
f 163/3/6 162/3/6 164/3/6
f 165/3/6 166/3/6 167/3/6
f 167/3/6 166/3/6 168/3/6
f 169/3/6 170/3/6 171/3/6
f 171/3/6 170/3/6 172/3/6
