# MagicaVoxel @ Ephtracy

# group
o legs_lgt_med_1a_sh_color

# material
mtllib characters_export_red-131-legs_lgt_med_1a_sh_color.mtl
usemtl palette

# normals
vn -1 0 0
vn 1 0 0
vn 0 0 1
vn 0 0 -1
vn 0 -1 0
vn 0 1 0

# texcoords
vt 0.470703 0.5
vt 0.482422 0.5
vt 0.494141 0.5
vt 0.697266 0.5
vt 0.744141 0.5

# verts
v -0.4 0 0.4
v -0.4 0 -0.1
v -0.4 0.1 0.4
v -0.4 0.1 0.1
v -0.4 0.1 -0.1
v -0.4 0.5 0.2
v -0.4 0.5 0.1
v -0.4 0.5 -0.1
v -0.4 0.7 0.2
v -0.4 0.7 -0.1
v -0.4 0.8 0.2
v -0.4 0.8 -0.1
v -0.4 1.4 0.2
v -0.4 1.4 -0.1
v -0.3 0 -0.1
v -0.3 0 -0.2
v -0.3 0.1 0.2
v -0.3 0.1 0.1
v -0.3 0.1 -0.1
v -0.3 0.1 -0.2
v -0.3 0.5 0.3
v -0.3 0.5 0.2
v -0.3 0.5 0.1
v -0.3 0.5 -0.1
v -0.3 0.5 -0.2
v -0.3 0.7 0.3
v -0.3 0.7 0.2
v -0.3 0.7 -0.1
v -0.3 0.7 -0.2
v -0.3 0.8 0.3
v -0.3 0.8 0.2
v -0.3 0.8 -0.1
v -0.3 0.8 -0.2
v -0.3 1.4 0.3
v -0.3 1.4 0.2
v -0.3 1.4 -0.1
v -0.3 1.4 -0.2
v -0.2 0.7 0.4
v -0.2 0.7 0.3
v -0.2 0.7 -0.2
v -0.2 0.7 -0.3
v -0.2 0.8 0.4
v -0.2 0.8 0.3
v -0.2 0.8 -0.2
v -0.2 0.8 -0.3
v -0.2 1.4 0.4
v -0.2 1.4 0.3
v -0.2 1.4 -0.2
v -0.2 1.4 -0.3
v -0.2 0 -0.1
v -0.2 0 -0.2
v -0.2 0.1 0.2
v -0.2 0.1 0.1
v -0.2 0.1 -0.1
v -0.2 0.1 -0.2
v -0.2 0.5 0.2
v -0.2 0.5 0.1
v -0.2 0.5 0
v -0.2 0.5 -0.1
v -0.2 0.5 -0.2
v -0.2 0.6 0
v -0.2 0.6 -0.1
v -0.1 0 0.4
v -0.1 0 -0.1
v -0.1 0.1 0.4
v -0.1 0.1 0.1
v -0.1 0.1 -0.1
v -0.1 0.5 0.3
v -0.1 0.5 0.1
v -0.1 0.5 0
v -0.1 0.5 -0.1
v -0.1 0.5 -0.2
v -0.1 0.6 0
v -0.1 0.6 -0.1
v -0.1 0.7 0.3
v -0.1 0.7 -0.2
v -0.1 0.8 0.3
v -0.1 0.8 -0.2
v -0.1 1.1 0.2
v -0.1 1.1 -0.1
v -0.1 1.3 0.3
v -0.1 1.3 0.2
v -0.1 1.3 -0.1
v -0.1 1.3 -0.2
v 0 0.7 0.4
v 0 0.7 0.3
v 0 0.7 -0.2
v 0 0.7 -0.3
v 0 0.8 0.4
v 0 0.8 0.3
v 0 0.8 -0.2
v 0 0.8 -0.3
v 0 1.1 0.2
v 0 1.1 -0.1
v 0 1.3 0.3
v 0 1.3 0.2
v 0 1.3 -0.1
v 0 1.3 -0.2
v 0 1.4 0.4
v 0 1.4 -0.3
v -0.4 0 0.4
v -0.4 0.1 0.4
v -0.2 0.7 0.4
v -0.2 0.8 0.4
v -0.2 1.4 0.4
v -0.1 0 0.4
v -0.1 0.1 0.4
v 0 0.7 0.4
v 0 0.8 0.4
v 0 1.4 0.4
v -0.3 0.5 0.3
v -0.3 0.7 0.3
v -0.3 0.8 0.3
v -0.3 1.4 0.3
v -0.2 0.7 0.3
v -0.2 0.8 0.3
v -0.2 1.4 0.3
v -0.1 0.5 0.3
v -0.1 0.7 0.3
v -0.4 0.5 0.2
v -0.4 0.7 0.2
v -0.4 0.8 0.2
v -0.4 1.4 0.2
v -0.3 0.1 0.2
v -0.3 0.5 0.2
v -0.3 0.7 0.2
v -0.3 0.8 0.2
v -0.3 1.4 0.2
v -0.2 0.1 0.2
v -0.2 0.5 0.2
v -0.1 1.1 0.2
v -0.1 1.3 0.2
v 0 1.1 0.2
v 0 1.3 0.2
v -0.4 0.1 0.1
v -0.4 0.5 0.1
v -0.3 0.1 0.1
v -0.3 0.5 0.1
v -0.2 0.1 0.1
v -0.2 0.5 0.1
v -0.1 0.1 0.1
v -0.1 0.5 0.1
v -0.2 0.5 -0.1
v -0.2 0.6 -0.1
v -0.1 0.5 -0.1
v -0.1 0.6 -0.1
v -0.1 0.7 -0.2
v -0.1 0.8 -0.2
v -0.1 1.3 -0.2
v 0 0.7 -0.2
v 0 0.8 -0.2
v 0 1.3 -0.2
v -0.1 0.7 0.3
v -0.1 0.8 0.3
v -0.1 1.3 0.3
v 0 0.7 0.3
v 0 0.8 0.3
v 0 1.3 0.3
v -0.2 0.5 0
v -0.2 0.6 0
v -0.1 0.5 0
v -0.1 0.6 0
v -0.4 0 -0.1
v -0.4 0.1 -0.1
v -0.4 0.5 -0.1
v -0.4 0.7 -0.1
v -0.4 0.8 -0.1
v -0.4 1.4 -0.1
v -0.3 0 -0.1
v -0.3 0.1 -0.1
v -0.3 0.5 -0.1
v -0.3 0.7 -0.1
v -0.3 0.8 -0.1
v -0.3 1.4 -0.1
v -0.2 0 -0.1
v -0.2 0.1 -0.1
v -0.2 0.5 -0.1
v -0.1 0 -0.1
v -0.1 0.1 -0.1
v -0.1 0.5 -0.1
v -0.1 1.1 -0.1
v -0.1 1.3 -0.1
v 0 1.1 -0.1
v 0 1.3 -0.1
v -0.3 0 -0.2
v -0.3 0.1 -0.2
v -0.3 0.5 -0.2
v -0.3 0.7 -0.2
v -0.3 0.8 -0.2
v -0.3 1.4 -0.2
v -0.2 0 -0.2
v -0.2 0.1 -0.2
v -0.2 0.5 -0.2
v -0.2 0.7 -0.2
v -0.2 0.8 -0.2
v -0.2 1.4 -0.2
v -0.1 0.5 -0.2
v -0.1 0.7 -0.2
v -0.2 0.7 -0.3
v -0.2 0.8 -0.3
v -0.2 1.4 -0.3
v 0 0.7 -0.3
v 0 0.8 -0.3
v 0 1.4 -0.3
v -0.4 0 0.4
v -0.1 0 0.4
v -0.4 0 -0.1
v -0.3 0 -0.1
v -0.2 0 -0.1
v -0.1 0 -0.1
v -0.3 0 -0.2
v -0.2 0 -0.2
v -0.3 0.5 0.3
v -0.1 0.5 0.3
v -0.4 0.5 0.2
v -0.3 0.5 0.2
v -0.2 0.5 0.2
v -0.4 0.5 0.1
v -0.3 0.5 0.1
v -0.2 0.5 0.1
v -0.1 0.5 0.1
v -0.2 0.5 -0.1
v -0.1 0.5 -0.1
v -0.2 0.5 -0.2
v -0.1 0.5 -0.2
v -0.2 0.6 0
v -0.1 0.6 0
v -0.2 0.6 -0.1
v -0.1 0.6 -0.1
v -0.2 0.7 0.4
v 0 0.7 0.4
v -0.2 0.7 0.3
v -0.1 0.7 0.3
v 0 0.7 0.3
v -0.2 0.7 -0.2
v -0.1 0.7 -0.2
v 0 0.7 -0.2
v -0.2 0.7 -0.3
v 0 0.7 -0.3
v -0.1 1.1 0.2
v 0 1.1 0.2
v -0.1 1.1 -0.1
v 0 1.1 -0.1
v -0.1 1.3 0.3
v 0 1.3 0.3
v -0.1 1.3 0.2
v 0 1.3 0.2
v -0.1 1.3 -0.1
v 0 1.3 -0.1
v -0.1 1.3 -0.2
v 0 1.3 -0.2
v -0.4 0.1 0.4
v -0.1 0.1 0.4
v -0.3 0.1 0.2
v -0.2 0.1 0.2
v -0.4 0.1 0.1
v -0.3 0.1 0.1
v -0.2 0.1 0.1
v -0.1 0.1 0.1
v -0.2 0.5 0
v -0.1 0.5 0
v -0.2 0.5 -0.1
v -0.1 0.5 -0.1
v -0.2 1.4 0.4
v 0 1.4 0.4
v -0.3 1.4 0.3
v -0.2 1.4 0.3
v -0.4 1.4 0.2
v -0.3 1.4 0.2
v -0.4 1.4 -0.1
v -0.3 1.4 -0.1
v -0.3 1.4 -0.2
v -0.2 1.4 -0.2
v -0.2 1.4 -0.3
v 0 1.4 -0.3

# faces
f 3/4/1 2/4/1 1/4/1
f 4/4/1 2/4/1 3/4/1
f 5/4/1 2/4/1 4/4/1
f 7/2/1 5/2/1 4/2/1
f 8/2/1 5/2/1 7/2/1
f 9/1/1 7/1/1 6/1/1
f 9/1/1 8/1/1 7/1/1
f 10/1/1 8/1/1 9/1/1
f 11/5/1 10/5/1 9/5/1
f 12/5/1 10/5/1 11/5/1
f 13/3/1 12/3/1 11/3/1
f 14/3/1 12/3/1 13/3/1
f 19/4/1 16/4/1 15/4/1
f 20/4/1 16/4/1 19/4/1
f 22/2/1 18/2/1 17/2/1
f 23/2/1 18/2/1 22/2/1
f 24/2/1 20/2/1 19/2/1
f 25/2/1 20/2/1 24/2/1
f 26/1/1 22/1/1 21/1/1
f 27/1/1 22/1/1 26/1/1
f 28/1/1 25/1/1 24/1/1
f 29/1/1 25/1/1 28/1/1
f 30/5/1 27/5/1 26/5/1
f 31/5/1 27/5/1 30/5/1
f 32/5/1 29/5/1 28/5/1
f 33/5/1 29/5/1 32/5/1
f 34/3/1 31/3/1 30/3/1
f 35/3/1 31/3/1 34/3/1
f 36/3/1 33/3/1 32/3/1
f 37/3/1 33/3/1 36/3/1
f 42/5/1 39/5/1 38/5/1
f 43/5/1 39/5/1 42/5/1
f 44/5/1 41/5/1 40/5/1
f 45/5/1 41/5/1 44/5/1
f 46/3/1 43/3/1 42/3/1
f 47/3/1 43/3/1 46/3/1
f 48/3/1 45/3/1 44/3/1
f 49/3/1 45/3/1 48/3/1
f 50/4/2 51/4/2 54/4/2
f 54/4/2 51/4/2 55/4/2
f 52/2/2 53/2/2 56/2/2
f 56/2/2 53/2/2 57/2/2
f 54/2/2 55/2/2 59/2/2
f 59/2/2 55/2/2 60/2/2
f 58/1/2 59/1/2 61/1/2
f 61/1/2 59/1/2 62/1/2
f 63/4/2 64/4/2 65/4/2
f 65/4/2 64/4/2 66/4/2
f 66/4/2 64/4/2 67/4/2
f 66/2/2 67/2/2 69/2/2
f 69/2/2 67/2/2 70/2/2
f 70/2/2 67/2/2 71/2/2
f 68/1/2 69/1/2 73/1/2
f 69/1/2 70/1/2 73/1/2
f 71/1/2 72/1/2 74/1/2
f 68/1/2 73/1/2 75/1/2
f 73/1/2 74/1/2 75/1/2
f 74/1/2 72/1/2 76/1/2
f 75/1/2 74/1/2 76/1/2
f 75/1/2 76/1/2 77/1/2
f 77/1/2 76/1/2 78/1/2
f 77/1/2 78/1/2 79/1/2
f 79/1/2 78/1/2 80/1/2
f 77/1/2 79/1/2 81/1/2
f 81/1/2 79/1/2 82/1/2
f 80/1/2 78/1/2 83/1/2
f 83/1/2 78/1/2 84/1/2
f 85/5/2 86/5/2 89/5/2
f 89/5/2 86/5/2 90/5/2
f 87/5/2 88/5/2 91/5/2
f 91/5/2 88/5/2 92/5/2
f 89/3/2 90/3/2 95/3/2
f 93/1/2 94/1/2 96/1/2
f 96/1/2 94/1/2 97/1/2
f 91/3/2 92/3/2 98/3/2
f 89/3/2 95/3/2 99/3/2
f 97/3/2 98/3/2 99/3/2
f 96/3/2 97/3/2 99/3/2
f 95/3/2 96/3/2 99/3/2
f 98/3/2 92/3/2 100/3/2
f 99/3/2 98/3/2 100/3/2
f 106/4/3 102/4/3 101/4/3
f 107/4/3 102/4/3 106/4/3
f 108/5/3 104/5/3 103/5/3
f 109/3/3 105/3/3 104/3/3
f 109/5/3 104/5/3 108/5/3
f 110/3/3 105/3/3 109/3/3
f 115/1/3 112/1/3 111/1/3
f 115/5/3 113/5/3 112/5/3
f 116/3/3 114/3/3 113/3/3
f 116/5/3 113/5/3 115/5/3
f 117/3/3 114/3/3 116/3/3
f 118/1/3 115/1/3 111/1/3
f 119/1/3 115/1/3 118/1/3
f 125/1/3 121/1/3 120/1/3
f 126/5/3 122/5/3 121/5/3
f 126/1/3 121/1/3 125/1/3
f 127/3/3 123/3/3 122/3/3
f 127/5/3 122/5/3 126/5/3
f 128/3/3 123/3/3 127/3/3
f 129/2/3 125/2/3 124/2/3
f 130/2/3 125/2/3 129/2/3
f 133/1/3 132/1/3 131/1/3
f 134/1/3 132/1/3 133/1/3
f 137/2/3 136/2/3 135/2/3
f 138/2/3 136/2/3 137/2/3
f 141/2/3 140/2/3 139/2/3
f 142/2/3 140/2/3 141/2/3
f 145/1/3 144/1/3 143/1/3
f 146/1/3 144/1/3 145/1/3
f 150/5/3 148/5/3 147/5/3
f 151/3/3 149/3/3 148/3/3
f 151/5/3 148/5/3 150/5/3
f 152/3/3 149/3/3 151/3/3
f 153/5/4 154/5/4 156/5/4
f 154/3/4 155/3/4 157/3/4
f 156/5/4 154/5/4 157/5/4
f 157/3/4 155/3/4 158/3/4
f 159/1/4 160/1/4 161/1/4
f 161/1/4 160/1/4 162/1/4
f 163/4/4 164/4/4 169/4/4
f 164/2/4 165/2/4 170/2/4
f 169/4/4 164/4/4 170/4/4
f 165/1/4 166/1/4 171/1/4
f 170/2/4 165/2/4 171/2/4
f 166/5/4 167/5/4 172/5/4
f 171/1/4 166/1/4 172/1/4
f 167/3/4 168/3/4 173/3/4
f 172/5/4 167/5/4 173/5/4
f 173/3/4 168/3/4 174/3/4
f 175/4/4 176/4/4 178/4/4
f 176/2/4 177/2/4 179/2/4
f 178/4/4 176/4/4 179/4/4
f 179/2/4 177/2/4 180/2/4
f 181/1/4 182/1/4 183/1/4
f 183/1/4 182/1/4 184/1/4
f 185/4/4 186/4/4 191/4/4
f 186/2/4 187/2/4 192/2/4
f 191/4/4 186/4/4 192/4/4
f 187/1/4 188/1/4 193/1/4
f 192/2/4 187/2/4 193/2/4
f 188/5/4 189/5/4 194/5/4
f 193/1/4 188/1/4 194/1/4
f 189/3/4 190/3/4 195/3/4
f 194/5/4 189/5/4 195/5/4
f 195/3/4 190/3/4 196/3/4
f 193/1/4 194/1/4 197/1/4
f 197/1/4 194/1/4 198/1/4
f 199/5/4 200/5/4 202/5/4
f 200/3/4 201/3/4 203/3/4
f 202/5/4 200/5/4 203/5/4
f 203/3/4 201/3/4 204/3/4
f 207/4/5 206/4/5 205/4/5
f 208/4/5 206/4/5 207/4/5
f 209/4/5 206/4/5 208/4/5
f 210/4/5 206/4/5 209/4/5
f 211/4/5 209/4/5 208/4/5
f 212/4/5 209/4/5 211/4/5
f 216/1/5 214/1/5 213/1/5
f 217/1/5 214/1/5 216/1/5
f 218/1/5 216/1/5 215/1/5
f 219/1/5 216/1/5 218/1/5
f 220/1/5 214/1/5 217/1/5
f 221/1/5 214/1/5 220/1/5
f 224/1/5 223/1/5 222/1/5
f 225/1/5 223/1/5 224/1/5
f 228/1/5 227/1/5 226/1/5
f 229/1/5 227/1/5 228/1/5
f 232/5/5 231/5/5 230/5/5
f 233/5/5 231/5/5 232/5/5
f 234/5/5 231/5/5 233/5/5
f 238/5/5 236/5/5 235/5/5
f 238/5/5 237/5/5 236/5/5
f 239/5/5 237/5/5 238/5/5
f 242/1/5 241/1/5 240/1/5
f 243/1/5 241/1/5 242/1/5
f 246/3/5 245/3/5 244/3/5
f 247/3/5 245/3/5 246/3/5
f 250/3/5 249/3/5 248/3/5
f 251/3/5 249/3/5 250/3/5
f 252/4/6 253/4/6 254/4/6
f 254/4/6 253/4/6 255/4/6
f 252/4/6 254/4/6 256/4/6
f 256/4/6 254/4/6 257/4/6
f 255/4/6 253/4/6 258/4/6
f 258/4/6 253/4/6 259/4/6
f 260/2/6 261/2/6 262/2/6
f 262/2/6 261/2/6 263/2/6
f 264/3/6 265/3/6 267/3/6
f 266/3/6 267/3/6 269/3/6
f 268/3/6 269/3/6 270/3/6
f 269/3/6 267/3/6 271/3/6
f 270/3/6 269/3/6 271/3/6
f 271/3/6 267/3/6 272/3/6
f 267/3/6 265/3/6 273/3/6
f 272/3/6 267/3/6 273/3/6
f 273/3/6 265/3/6 274/3/6
f 274/3/6 265/3/6 275/3/6
