# MagicaVoxel @ Ephtracy

# group
o shield_med_3_ja_color

# material
mtllib characters_export_red-27-shield_med_3_ja_color.mtl
usemtl palette

# normals
vn 0 -1 0
vn 0 1 0
vn 0 0 1
vn 0 0 -1
vn 1 0 0
vn -1 0 0

# texcoords
vt 0.462891 0.5
vt 0.470703 0.5
vt 0.498047 0.5
vt 0.962891 0.5

# verts
v 0.9 0.9 0.7
v 0.9 0.9 0.6
v 0.3 0.9 0.7
v 0.3 0.9 0.6
v 1.1 1 0.7
v 1.1 1 0.6
v 0.9 1 0.7
v 0.9 1 0.6
v 0.3 1 0.7
v 0.3 1 0.6
v 0.1 1 0.7
v 0.1 1 0.6
v 1.2 1.1 0.7
v 1.2 1.1 0.6
v 1.1 1.1 0.7
v 1.1 1.1 0.6
v 0.1 1.1 0.7
v 0.1 1.1 0.6
v 0 1.1 0.7
v 0 1.1 0.6
v 1.3 1.2 0.7
v 1.3 1.2 0.6
v 1.2 1.2 0.7
v 1.2 1.2 0.6
v 0 1.2 0.7
v 0 1.2 0.6
v -0.1 1.2 0.7
v -0.1 1.2 0.6
v 1.4 1.4 0.7
v 1.4 1.4 0.6
v 1.3 1.4 0.7
v 1.3 1.4 0.6
v -0.1 1.4 0.7
v -0.1 1.4 0.6
v -0.2 1.4 0.7
v -0.2 1.4 0.6
v 0.7 1.6 0.8
v 0.7 1.6 0.7
v 0.6 1.6 0.7
v 0.5 1.6 0.8
v 0.5 1.6 0.7
v 0.7 1.8 0.7
v 0.7 1.8 0.6
v 0.6 1.8 0.7
v 0.6 1.8 0.6
v 0.5 1.8 0.7
v 0.5 1.8 0.6
v 0.7 1.6 0.7
v 0.7 1.6 0.6
v 0.6 1.6 0.7
v 0.6 1.6 0.6
v 0.5 1.6 0.7
v 0.5 1.6 0.6
v 0.7 1.8 0.8
v 0.7 1.8 0.7
v 0.6 1.8 0.7
v 0.5 1.8 0.8
v 0.5 1.8 0.7
v 1.4 2 0.7
v 1.4 2 0.6
v 1.3 2 0.7
v 1.3 2 0.6
v -0.1 2 0.7
v -0.1 2 0.6
v -0.2 2 0.7
v -0.2 2 0.6
v 1.3 2.2 0.7
v 1.3 2.2 0.6
v 1.2 2.2 0.7
v 1.2 2.2 0.6
v 0 2.2 0.7
v 0 2.2 0.6
v -0.1 2.2 0.7
v -0.1 2.2 0.6
v 1.2 2.3 0.7
v 1.2 2.3 0.6
v 1.1 2.3 0.7
v 1.1 2.3 0.6
v 0.1 2.3 0.7
v 0.1 2.3 0.6
v 0 2.3 0.7
v 0 2.3 0.6
v 1.1 2.4 0.7
v 1.1 2.4 0.6
v 0.9 2.4 0.7
v 0.9 2.4 0.6
v 0.3 2.4 0.7
v 0.3 2.4 0.6
v 0.1 2.4 0.7
v 0.1 2.4 0.6
v 0.9 2.5 0.7
v 0.9 2.5 0.6
v 0.3 2.5 0.7
v 0.3 2.5 0.6
v 0.7 1.6 0.8
v 0.5 1.6 0.8
v 0.7 1.8 0.8
v 0.5 1.8 0.8
v 0.9 0.9 0.7
v 0.3 0.9 0.7
v 1.1 1 0.7
v 0.9 1 0.7
v 0.8 1 0.7
v 0.6 1 0.7
v 0.4 1 0.7
v 0.3 1 0.7
v 0.1 1 0.7
v 1.2 1.1 0.7
v 1.1 1.1 0.7
v 1 1.1 0.7
v 0.8 1.1 0.7
v 0.4 1.1 0.7
v 0.2 1.1 0.7
v 0.1 1.1 0.7
v 0 1.1 0.7
v 1.3 1.2 0.7
v 1.2 1.2 0.7
v 1.1 1.2 0.7
v 1 1.2 0.7
v 0.9 1.2 0.7
v 0.7 1.2 0.7
v 0.4 1.2 0.7
v 0.3 1.2 0.7
v 0.2 1.2 0.7
v 0.1 1.2 0.7
v 0 1.2 0.7
v -0.1 1.2 0.7
v 1.2 1.3 0.7
v 1.1 1.3 0.7
v 1 1.3 0.7
v 0.9 1.3 0.7
v 0.8 1.3 0.7
v 0.7 1.3 0.7
v 0.4 1.3 0.7
v 0.3 1.3 0.7
v 0.2 1.3 0.7
v 0.1 1.3 0.7
v 0 1.3 0.7
v 1.4 1.4 0.7
v 1.3 1.4 0.7
v 1.1 1.4 0.7
v 1 1.4 0.7
v 0.2 1.4 0.7
v 0.1 1.4 0.7
v -0.1 1.4 0.7
v -0.2 1.4 0.7
v 1.3 1.5 0.7
v 1.2 1.5 0.7
v 0.9 1.5 0.7
v 0.8 1.5 0.7
v 0.3 1.5 0.7
v 0.2 1.5 0.7
v 0 1.5 0.7
v -0.1 1.5 0.7
v 1.2 1.6 0.7
v 1.1 1.6 0.7
v 0.7 1.6 0.7
v 0.6 1.6 0.7
v 0.5 1.6 0.7
v 0.1 1.6 0.7
v 0 1.6 0.7
v 1 1.7 0.7
v 0.9 1.7 0.7
v 0.3 1.7 0.7
v 0.2 1.7 0.7
v 1.2 1.8 0.7
v 1.1 1.8 0.7
v 0.7 1.8 0.7
v 0.6 1.8 0.7
v 0.5 1.8 0.7
v 0.1 1.8 0.7
v 0 1.8 0.7
v 1.3 1.9 0.7
v 1.2 1.9 0.7
v 1 1.9 0.7
v 0.9 1.9 0.7
v 0.4 1.9 0.7
v 0.3 1.9 0.7
v 0 1.9 0.7
v -0.1 1.9 0.7
v 1.4 2 0.7
v 1.3 2 0.7
v 1.1 2 0.7
v 1 2 0.7
v 0.2 2 0.7
v 0.1 2 0.7
v -0.1 2 0.7
v -0.2 2 0.7
v 1.2 2.1 0.7
v 1.1 2.1 0.7
v 1 2.1 0.7
v 0.9 2.1 0.7
v 0.8 2.1 0.7
v 0.5 2.1 0.7
v 0.4 2.1 0.7
v 0.3 2.1 0.7
v 0.2 2.1 0.7
v 0.1 2.1 0.7
v 0 2.1 0.7
v 1.3 2.2 0.7
v 1.2 2.2 0.7
v 1.1 2.2 0.7
v 1 2.2 0.7
v 0.9 2.2 0.7
v 0.8 2.2 0.7
v 0.5 2.2 0.7
v 0.3 2.2 0.7
v 0.2 2.2 0.7
v 0.1 2.2 0.7
v 0 2.2 0.7
v -0.1 2.2 0.7
v 1.2 2.3 0.7
v 1.1 2.3 0.7
v 1 2.3 0.7
v 0.8 2.3 0.7
v 0.4 2.3 0.7
v 0.2 2.3 0.7
v 0.1 2.3 0.7
v 0 2.3 0.7
v 1.1 2.4 0.7
v 0.9 2.4 0.7
v 0.8 2.4 0.7
v 0.6 2.4 0.7
v 0.4 2.4 0.7
v 0.3 2.4 0.7
v 0.1 2.4 0.7
v 0.9 2.5 0.7
v 0.3 2.5 0.7
v 0.7 1.6 0.7
v 0.6 1.6 0.7
v 0.5 1.6 0.7
v 0.7 1.8 0.7
v 0.6 1.8 0.7
v 0.5 1.8 0.7
v 0.9 0.9 0.6
v 0.3 0.9 0.6
v 1.1 1 0.6
v 0.9 1 0.6
v 0.8 1 0.6
v 0.6 1 0.6
v 0.4 1 0.6
v 0.3 1 0.6
v 0.1 1 0.6
v 1.2 1.1 0.6
v 1.1 1.1 0.6
v 1 1.1 0.6
v 0.8 1.1 0.6
v 0.4 1.1 0.6
v 0.2 1.1 0.6
v 0.1 1.1 0.6
v 0 1.1 0.6
v 1.3 1.2 0.6
v 1.2 1.2 0.6
v 1.1 1.2 0.6
v 1 1.2 0.6
v 0.9 1.2 0.6
v 0.7 1.2 0.6
v 0.4 1.2 0.6
v 0.3 1.2 0.6
v 0.2 1.2 0.6
v 0.1 1.2 0.6
v 0 1.2 0.6
v -0.1 1.2 0.6
v 1.2 1.3 0.6
v 1.1 1.3 0.6
v 1 1.3 0.6
v 0.9 1.3 0.6
v 0.8 1.3 0.6
v 0.7 1.3 0.6
v 0.4 1.3 0.6
v 0.3 1.3 0.6
v 0.2 1.3 0.6
v 0.1 1.3 0.6
v 0 1.3 0.6
v 1.4 1.4 0.6
v 1.3 1.4 0.6
v 1.1 1.4 0.6
v 1 1.4 0.6
v 0.2 1.4 0.6
v 0.1 1.4 0.6
v -0.1 1.4 0.6
v -0.2 1.4 0.6
v 1.3 1.5 0.6
v 1.2 1.5 0.6
v 0.9 1.5 0.6
v 0.8 1.5 0.6
v 0.3 1.5 0.6
v 0.2 1.5 0.6
v 0 1.5 0.6
v -0.1 1.5 0.6
v 1.2 1.6 0.6
v 1.1 1.6 0.6
v 0.7 1.6 0.6
v 0.6 1.6 0.6
v 0.5 1.6 0.6
v 0.1 1.6 0.6
v 0 1.6 0.6
v 1 1.7 0.6
v 0.9 1.7 0.6
v 0.3 1.7 0.6
v 0.2 1.7 0.6
v 1.2 1.8 0.6
v 1.1 1.8 0.6
v 0.7 1.8 0.6
v 0.6 1.8 0.6
v 0.5 1.8 0.6
v 0.1 1.8 0.6
v 0 1.8 0.6
v 1.3 1.9 0.6
v 1.2 1.9 0.6
v 1 1.9 0.6
v 0.9 1.9 0.6
v 0.4 1.9 0.6
v 0.3 1.9 0.6
v 0 1.9 0.6
v -0.1 1.9 0.6
v 1.4 2 0.6
v 1.3 2 0.6
v 1.1 2 0.6
v 1 2 0.6
v 0.2 2 0.6
v 0.1 2 0.6
v -0.1 2 0.6
v -0.2 2 0.6
v 1.2 2.1 0.6
v 1.1 2.1 0.6
v 1 2.1 0.6
v 0.9 2.1 0.6
v 0.8 2.1 0.6
v 0.5 2.1 0.6
v 0.4 2.1 0.6
v 0.3 2.1 0.6
v 0.2 2.1 0.6
v 0.1 2.1 0.6
v 0 2.1 0.6
v 1.3 2.2 0.6
v 1.2 2.2 0.6
v 1.1 2.2 0.6
v 1 2.2 0.6
v 0.9 2.2 0.6
v 0.8 2.2 0.6
v 0.5 2.2 0.6
v 0.3 2.2 0.6
v 0.2 2.2 0.6
v 0.1 2.2 0.6
v 0 2.2 0.6
v -0.1 2.2 0.6
v 1.2 2.3 0.6
v 1.1 2.3 0.6
v 1 2.3 0.6
v 0.8 2.3 0.6
v 0.4 2.3 0.6
v 0.2 2.3 0.6
v 0.1 2.3 0.6
v 0 2.3 0.6
v 1.1 2.4 0.6
v 0.9 2.4 0.6
v 0.8 2.4 0.6
v 0.6 2.4 0.6
v 0.4 2.4 0.6
v 0.3 2.4 0.6
v 0.1 2.4 0.6
v 0.9 2.5 0.6
v 0.3 2.5 0.6
v 1.4 1.4 0.7
v 1.4 2 0.7
v 1.4 1.4 0.6
v 1.4 2 0.6
v 1.3 1.2 0.7
v 1.3 1.4 0.7
v 1.3 2 0.7
v 1.3 2.2 0.7
v 1.3 1.2 0.6
v 1.3 1.4 0.6
v 1.3 2 0.6
v 1.3 2.2 0.6
v 1.2 1.1 0.7
v 1.2 1.2 0.7
v 1.2 2.2 0.7
v 1.2 2.3 0.7
v 1.2 1.1 0.6
v 1.2 1.2 0.6
v 1.2 2.2 0.6
v 1.2 2.3 0.6
v 1.1 1 0.7
v 1.1 1.1 0.7
v 1.1 2.3 0.7
v 1.1 2.4 0.7
v 1.1 1 0.6
v 1.1 1.1 0.6
v 1.1 2.3 0.6
v 1.1 2.4 0.6
v 0.9 0.9 0.7
v 0.9 1 0.7
v 0.9 2.4 0.7
v 0.9 2.5 0.7
v 0.9 0.9 0.6
v 0.9 1 0.6
v 0.9 2.4 0.6
v 0.9 2.5 0.6
v 0.7 1.6 0.8
v 0.7 1.8 0.8
v 0.7 1.6 0.7
v 0.7 1.8 0.7
v 0.5 1.6 0.7
v 0.5 1.8 0.7
v 0.5 1.6 0.6
v 0.5 1.8 0.6
v 0.7 1.6 0.7
v 0.7 1.8 0.7
v 0.7 1.6 0.6
v 0.7 1.8 0.6
v 0.5 1.6 0.8
v 0.5 1.8 0.8
v 0.5 1.6 0.7
v 0.5 1.8 0.7
v 0.3 0.9 0.7
v 0.3 1 0.7
v 0.3 2.4 0.7
v 0.3 2.5 0.7
v 0.3 0.9 0.6
v 0.3 1 0.6
v 0.3 2.4 0.6
v 0.3 2.5 0.6
v 0.1 1 0.7
v 0.1 1.1 0.7
v 0.1 2.3 0.7
v 0.1 2.4 0.7
v 0.1 1 0.6
v 0.1 1.1 0.6
v 0.1 2.3 0.6
v 0.1 2.4 0.6
v 0 1.1 0.7
v 0 1.2 0.7
v 0 2.2 0.7
v 0 2.3 0.7
v 0 1.1 0.6
v 0 1.2 0.6
v 0 2.2 0.6
v 0 2.3 0.6
v -0.1 1.2 0.7
v -0.1 1.4 0.7
v -0.1 2 0.7
v -0.1 2.2 0.7
v -0.1 1.2 0.6
v -0.1 1.4 0.6
v -0.1 2 0.6
v -0.1 2.2 0.6
v -0.2 1.4 0.7
v -0.2 2 0.7
v -0.2 1.4 0.6
v -0.2 2 0.6

# faces
f 3/4/1 2/4/1 1/4/1
f 4/4/1 2/4/1 3/4/1
f 7/4/1 6/4/1 5/4/1
f 8/4/1 6/4/1 7/4/1
f 11/4/1 10/4/1 9/4/1
f 12/4/1 10/4/1 11/4/1
f 15/4/1 14/4/1 13/4/1
f 16/4/1 14/4/1 15/4/1
f 19/4/1 18/4/1 17/4/1
f 20/4/1 18/4/1 19/4/1
f 23/4/1 22/4/1 21/4/1
f 24/4/1 22/4/1 23/4/1
f 27/4/1 26/4/1 25/4/1
f 28/4/1 26/4/1 27/4/1
f 31/4/1 30/4/1 29/4/1
f 32/4/1 30/4/1 31/4/1
f 35/4/1 34/4/1 33/4/1
f 36/4/1 34/4/1 35/4/1
f 39/4/1 38/4/1 37/4/1
f 40/4/1 39/4/1 37/4/1
f 41/4/1 39/4/1 40/4/1
f 44/3/1 43/3/1 42/3/1
f 45/3/1 43/3/1 44/3/1
f 46/1/1 45/1/1 44/1/1
f 47/1/1 45/1/1 46/1/1
f 48/3/2 49/3/2 50/3/2
f 50/3/2 49/3/2 51/3/2
f 50/1/2 51/1/2 52/1/2
f 52/1/2 51/1/2 53/1/2
f 54/4/2 55/4/2 56/4/2
f 54/4/2 56/4/2 57/4/2
f 57/4/2 56/4/2 58/4/2
f 59/4/2 60/4/2 61/4/2
f 61/4/2 60/4/2 62/4/2
f 63/4/2 64/4/2 65/4/2
f 65/4/2 64/4/2 66/4/2
f 67/4/2 68/4/2 69/4/2
f 69/4/2 68/4/2 70/4/2
f 71/4/2 72/4/2 73/4/2
f 73/4/2 72/4/2 74/4/2
f 75/4/2 76/4/2 77/4/2
f 77/4/2 76/4/2 78/4/2
f 79/4/2 80/4/2 81/4/2
f 81/4/2 80/4/2 82/4/2
f 83/4/2 84/4/2 85/4/2
f 85/4/2 84/4/2 86/4/2
f 87/4/2 88/4/2 89/4/2
f 89/4/2 88/4/2 90/4/2
f 91/4/2 92/4/2 93/4/2
f 93/4/2 92/4/2 94/4/2
f 97/4/3 96/4/3 95/4/3
f 98/4/3 96/4/3 97/4/3
f 102/4/3 100/4/3 99/4/3
f 103/4/3 100/4/3 102/4/3
f 104/4/3 100/4/3 103/4/3
f 105/4/3 100/4/3 104/4/3
f 106/4/3 100/4/3 105/4/3
f 109/4/3 102/4/3 101/4/3
f 109/4/3 103/4/3 102/4/3
f 110/4/3 103/4/3 109/4/3
f 111/3/3 104/3/3 103/3/3
f 111/4/3 103/4/3 110/4/3
f 112/4/3 107/4/3 106/4/3
f 112/4/3 106/4/3 105/4/3
f 112/1/3 105/1/3 104/1/3
f 113/4/3 107/4/3 112/4/3
f 114/4/3 107/4/3 113/4/3
f 117/4/3 110/4/3 109/4/3
f 117/4/3 109/4/3 108/4/3
f 118/4/3 110/4/3 117/4/3
f 119/3/3 111/3/3 110/3/3
f 119/4/3 110/4/3 118/4/3
f 120/3/3 111/3/3 119/3/3
f 121/3/3 104/3/3 111/3/3
f 121/3/3 111/3/3 120/3/3
f 122/1/3 112/1/3 104/1/3
f 122/1/3 113/1/3 112/1/3
f 123/1/3 113/1/3 122/1/3
f 124/4/3 115/4/3 114/4/3
f 124/1/3 113/1/3 123/1/3
f 124/4/3 114/4/3 113/4/3
f 125/4/3 115/4/3 124/4/3
f 126/4/3 115/4/3 125/4/3
f 128/4/3 118/4/3 117/4/3
f 128/4/3 117/4/3 116/4/3
f 129/3/3 120/3/3 119/3/3
f 129/4/3 118/4/3 128/4/3
f 129/3/3 119/3/3 118/3/3
f 130/3/3 120/3/3 129/3/3
f 131/2/3 121/2/3 120/2/3
f 131/3/3 120/3/3 130/3/3
f 132/2/3 121/2/3 131/2/3
f 133/3/3 104/3/3 121/3/3
f 133/2/3 121/2/3 132/2/3
f 134/2/3 123/2/3 122/2/3
f 134/1/3 122/1/3 104/1/3
f 135/1/3 125/1/3 124/1/3
f 135/2/3 123/2/3 134/2/3
f 135/1/3 124/1/3 123/1/3
f 136/1/3 125/1/3 135/1/3
f 137/4/3 127/4/3 126/4/3
f 137/1/3 125/1/3 136/1/3
f 137/4/3 126/4/3 125/4/3
f 138/4/3 127/4/3 137/4/3
f 140/4/3 128/4/3 116/4/3
f 141/3/3 130/3/3 129/3/3
f 141/3/3 129/3/3 128/3/3
f 142/2/3 132/2/3 131/2/3
f 142/3/3 130/3/3 141/3/3
f 142/2/3 131/2/3 130/2/3
f 143/2/3 136/2/3 135/2/3
f 143/1/3 137/1/3 136/1/3
f 143/1/3 138/1/3 137/1/3
f 144/1/3 138/1/3 143/1/3
f 145/4/3 127/4/3 138/4/3
f 147/4/3 140/4/3 139/4/3
f 147/4/3 128/4/3 140/4/3
f 148/3/3 141/3/3 128/3/3
f 148/4/3 128/4/3 147/4/3
f 149/2/3 132/2/3 142/2/3
f 149/2/3 142/2/3 141/2/3
f 150/3/3 133/3/3 132/3/3
f 150/2/3 132/2/3 149/2/3
f 151/1/3 135/1/3 134/1/3
f 151/2/3 143/2/3 135/2/3
f 151/2/3 144/2/3 143/2/3
f 152/2/3 144/2/3 151/2/3
f 153/1/3 138/1/3 144/1/3
f 153/4/3 146/4/3 145/4/3
f 153/4/3 145/4/3 138/4/3
f 154/4/3 146/4/3 153/4/3
f 155/3/3 141/3/3 148/3/3
f 155/3/3 148/3/3 147/3/3
f 156/2/3 149/2/3 141/2/3
f 156/3/3 141/3/3 155/3/3
f 157/3/3 104/3/3 133/3/3
f 157/3/3 133/3/3 150/3/3
f 157/3/3 150/3/3 149/3/3
f 158/1/3 152/1/3 151/1/3
f 158/3/3 104/3/3 157/3/3
f 158/1/3 134/1/3 104/1/3
f 158/1/3 151/1/3 134/1/3
f 159/1/3 152/1/3 158/1/3
f 160/2/3 144/2/3 152/2/3
f 160/1/3 153/1/3 144/1/3
f 160/1/3 154/1/3 153/1/3
f 161/1/3 154/1/3 160/1/3
f 162/2/3 149/2/3 156/2/3
f 162/2/3 156/2/3 155/2/3
f 163/3/3 157/3/3 149/3/3
f 163/2/3 149/2/3 162/2/3
f 164/1/3 152/1/3 159/1/3
f 165/2/3 161/2/3 160/2/3
f 165/1/3 152/1/3 164/1/3
f 165/2/3 160/2/3 152/2/3
f 166/3/3 155/3/3 147/3/3
f 166/2/3 162/2/3 155/2/3
f 167/2/3 162/2/3 166/2/3
f 168/3/3 157/3/3 163/3/3
f 168/3/3 163/3/3 162/3/3
f 170/1/3 164/1/3 159/1/3
f 171/2/3 161/2/3 165/2/3
f 171/2/3 165/2/3 164/2/3
f 172/1/3 154/1/3 161/1/3
f 172/2/3 161/2/3 171/2/3
f 173/4/3 147/4/3 139/4/3
f 173/3/3 167/3/3 166/3/3
f 173/3/3 166/3/3 147/3/3
f 174/3/3 167/3/3 173/3/3
f 175/2/3 162/2/3 167/2/3
f 175/3/3 169/3/3 168/3/3
f 175/3/3 168/3/3 162/3/3
f 176/3/3 169/3/3 175/3/3
f 177/1/3 170/1/3 169/1/3
f 177/1/3 164/1/3 170/1/3
f 178/2/3 171/2/3 164/2/3
f 178/1/3 164/1/3 177/1/3
f 179/1/3 154/1/3 172/1/3
f 179/1/3 172/1/3 171/1/3
f 180/4/3 146/4/3 154/4/3
f 180/1/3 154/1/3 179/1/3
f 181/4/3 174/4/3 173/4/3
f 181/4/3 173/4/3 139/4/3
f 182/4/3 174/4/3 181/4/3
f 183/3/3 167/3/3 174/3/3
f 183/2/3 176/2/3 175/2/3
f 183/2/3 175/2/3 167/2/3
f 184/2/3 176/2/3 183/2/3
f 185/2/3 171/2/3 178/2/3
f 185/2/3 178/2/3 177/2/3
f 186/1/3 179/1/3 171/1/3
f 186/2/3 171/2/3 185/2/3
f 187/4/3 146/4/3 180/4/3
f 187/4/3 180/4/3 179/4/3
f 188/4/3 146/4/3 187/4/3
f 189/4/3 174/4/3 182/4/3
f 189/3/3 184/3/3 183/3/3
f 189/3/3 183/3/3 174/3/3
f 190/3/3 184/3/3 189/3/3
f 191/2/3 176/2/3 184/2/3
f 191/3/3 184/3/3 190/3/3
f 192/3/3 169/3/3 176/3/3
f 192/2/3 176/2/3 191/2/3
f 193/3/3 169/3/3 192/3/3
f 194/1/3 177/1/3 169/1/3
f 195/2/3 185/2/3 177/2/3
f 195/1/3 177/1/3 194/1/3
f 196/2/3 185/2/3 195/2/3
f 197/1/3 186/1/3 185/1/3
f 197/2/3 185/2/3 196/2/3
f 198/1/3 179/1/3 186/1/3
f 198/1/3 186/1/3 197/1/3
f 199/4/3 187/4/3 179/4/3
f 199/1/3 179/1/3 198/1/3
f 200/4/3 190/4/3 189/4/3
f 200/4/3 189/4/3 182/4/3
f 201/4/3 190/4/3 200/4/3
f 202/3/3 191/3/3 190/3/3
f 202/4/3 190/4/3 201/4/3
f 202/3/3 192/3/3 191/3/3
f 203/3/3 192/3/3 202/3/3
f 204/2/3 193/2/3 192/2/3
f 204/3/3 192/3/3 203/3/3
f 205/3/3 169/3/3 193/3/3
f 205/2/3 193/2/3 204/2/3
f 206/1/3 194/1/3 169/1/3
f 206/2/3 196/2/3 195/2/3
f 206/2/3 195/2/3 194/2/3
f 207/1/3 198/1/3 197/1/3
f 207/2/3 196/2/3 206/2/3
f 207/1/3 197/1/3 196/1/3
f 208/1/3 198/1/3 207/1/3
f 209/4/3 199/4/3 198/4/3
f 209/1/3 198/1/3 208/1/3
f 210/4/3 187/4/3 199/4/3
f 210/4/3 199/4/3 209/4/3
f 211/4/3 187/4/3 210/4/3
f 212/4/3 202/4/3 201/4/3
f 212/4/3 203/4/3 202/4/3
f 213/4/3 203/4/3 212/4/3
f 214/3/3 204/3/3 203/3/3
f 214/4/3 203/4/3 213/4/3
f 214/3/3 205/3/3 204/3/3
f 215/3/3 169/3/3 205/3/3
f 215/3/3 205/3/3 214/3/3
f 216/1/3 208/1/3 207/1/3
f 216/1/3 207/1/3 206/1/3
f 217/4/3 209/4/3 208/4/3
f 217/1/3 208/1/3 216/1/3
f 217/4/3 210/4/3 209/4/3
f 218/4/3 210/4/3 217/4/3
f 219/4/3 210/4/3 218/4/3
f 220/4/3 214/4/3 213/4/3
f 220/4/3 215/4/3 214/4/3
f 221/4/3 215/4/3 220/4/3
f 222/3/3 169/3/3 215/3/3
f 222/4/3 215/4/3 221/4/3
f 223/1/3 216/1/3 206/1/3
f 223/3/3 169/3/3 222/3/3
f 223/1/3 206/1/3 169/1/3
f 224/4/3 218/4/3 217/4/3
f 224/1/3 216/1/3 223/1/3
f 224/4/3 217/4/3 216/4/3
f 225/4/3 218/4/3 224/4/3
f 226/4/3 218/4/3 225/4/3
f 227/4/3 223/4/3 222/4/3
f 227/4/3 222/4/3 221/4/3
f 227/4/3 225/4/3 224/4/3
f 227/4/3 224/4/3 223/4/3
f 228/4/3 225/4/3 227/4/3
f 229/4/4 230/4/4 232/4/4
f 230/4/4 231/4/4 232/4/4
f 232/4/4 231/4/4 233/4/4
f 233/4/4 231/4/4 234/4/4
f 235/4/4 236/4/4 238/4/4
f 238/4/4 236/4/4 239/4/4
f 239/4/4 236/4/4 240/4/4
f 240/4/4 236/4/4 241/4/4
f 241/4/4 236/4/4 242/4/4
f 237/4/4 238/4/4 245/4/4
f 238/4/4 239/4/4 245/4/4
f 245/4/4 239/4/4 246/4/4
f 239/3/4 240/3/4 247/3/4
f 246/4/4 239/4/4 247/4/4
f 242/4/4 243/4/4 248/4/4
f 241/4/4 242/4/4 248/4/4
f 240/1/4 241/1/4 248/1/4
f 248/4/4 243/4/4 249/4/4
f 249/4/4 243/4/4 250/4/4
f 245/4/4 246/4/4 253/4/4
f 244/4/4 245/4/4 253/4/4
f 253/4/4 246/4/4 254/4/4
f 246/3/4 247/3/4 255/3/4
f 254/4/4 246/4/4 255/4/4
f 255/3/4 247/3/4 256/3/4
f 247/3/4 240/3/4 257/3/4
f 256/3/4 247/3/4 257/3/4
f 240/1/4 248/1/4 258/1/4
f 248/1/4 249/1/4 258/1/4
f 258/1/4 249/1/4 259/1/4
f 250/4/4 251/4/4 260/4/4
f 259/1/4 249/1/4 260/1/4
f 249/4/4 250/4/4 260/4/4
f 260/4/4 251/4/4 261/4/4
f 261/4/4 251/4/4 262/4/4
f 253/4/4 254/4/4 264/4/4
f 252/4/4 253/4/4 264/4/4
f 255/3/4 256/3/4 265/3/4
f 264/4/4 254/4/4 265/4/4
f 254/3/4 255/3/4 265/3/4
f 265/3/4 256/3/4 266/3/4
f 256/2/4 257/2/4 267/2/4
f 266/3/4 256/3/4 267/3/4
f 267/2/4 257/2/4 268/2/4
f 257/3/4 240/3/4 269/3/4
f 268/2/4 257/2/4 269/2/4
f 258/2/4 259/2/4 270/2/4
f 240/1/4 258/1/4 270/1/4
f 260/1/4 261/1/4 271/1/4
f 270/2/4 259/2/4 271/2/4
f 259/1/4 260/1/4 271/1/4
f 271/1/4 261/1/4 272/1/4
f 262/4/4 263/4/4 273/4/4
f 272/1/4 261/1/4 273/1/4
f 261/4/4 262/4/4 273/4/4
f 273/4/4 263/4/4 274/4/4
f 252/4/4 264/4/4 276/4/4
f 265/3/4 266/3/4 277/3/4
f 264/3/4 265/3/4 277/3/4
f 267/2/4 268/2/4 278/2/4
f 277/3/4 266/3/4 278/3/4
f 266/2/4 267/2/4 278/2/4
f 271/2/4 272/2/4 279/2/4
f 272/1/4 273/1/4 279/1/4
f 273/1/4 274/1/4 279/1/4
f 279/1/4 274/1/4 280/1/4
f 274/4/4 263/4/4 281/4/4
f 275/4/4 276/4/4 283/4/4
f 276/4/4 264/4/4 283/4/4
f 264/3/4 277/3/4 284/3/4
f 283/4/4 264/4/4 284/4/4
f 278/2/4 268/2/4 285/2/4
f 277/2/4 278/2/4 285/2/4
f 268/3/4 269/3/4 286/3/4
f 285/2/4 268/2/4 286/2/4
f 270/1/4 271/1/4 287/1/4
f 271/2/4 279/2/4 287/2/4
f 279/2/4 280/2/4 287/2/4
f 287/2/4 280/2/4 288/2/4
f 280/1/4 274/1/4 289/1/4
f 281/4/4 282/4/4 289/4/4
f 274/4/4 281/4/4 289/4/4
f 289/4/4 282/4/4 290/4/4
f 284/3/4 277/3/4 291/3/4
f 283/3/4 284/3/4 291/3/4
f 277/2/4 285/2/4 292/2/4
f 291/3/4 277/3/4 292/3/4
f 269/3/4 240/3/4 293/3/4
f 286/3/4 269/3/4 293/3/4
f 285/3/4 286/3/4 293/3/4
f 287/1/4 288/1/4 294/1/4
f 293/3/4 240/3/4 294/3/4
f 240/1/4 270/1/4 294/1/4
f 270/1/4 287/1/4 294/1/4
f 294/1/4 288/1/4 295/1/4
f 288/2/4 280/2/4 296/2/4
f 280/1/4 289/1/4 296/1/4
f 289/1/4 290/1/4 296/1/4
f 296/1/4 290/1/4 297/1/4
f 292/2/4 285/2/4 298/2/4
f 291/2/4 292/2/4 298/2/4
f 285/3/4 293/3/4 299/3/4
f 298/2/4 285/2/4 299/2/4
f 295/1/4 288/1/4 300/1/4
f 296/2/4 297/2/4 301/2/4
f 300/1/4 288/1/4 301/1/4
f 288/2/4 296/2/4 301/2/4
f 283/3/4 291/3/4 302/3/4
f 291/2/4 298/2/4 302/2/4
f 302/2/4 298/2/4 303/2/4
f 299/3/4 293/3/4 304/3/4
f 298/3/4 299/3/4 304/3/4
f 295/1/4 300/1/4 306/1/4
f 301/2/4 297/2/4 307/2/4
f 300/2/4 301/2/4 307/2/4
f 297/1/4 290/1/4 308/1/4
f 307/2/4 297/2/4 308/2/4
f 275/4/4 283/4/4 309/4/4
f 302/3/4 303/3/4 309/3/4
f 283/3/4 302/3/4 309/3/4
f 309/3/4 303/3/4 310/3/4
f 303/2/4 298/2/4 311/2/4
f 304/3/4 305/3/4 311/3/4
f 298/3/4 304/3/4 311/3/4
f 311/3/4 305/3/4 312/3/4
f 305/1/4 306/1/4 313/1/4
f 306/1/4 300/1/4 313/1/4
f 300/2/4 307/2/4 314/2/4
f 313/1/4 300/1/4 314/1/4
f 308/1/4 290/1/4 315/1/4
f 307/1/4 308/1/4 315/1/4
f 290/4/4 282/4/4 316/4/4
f 315/1/4 290/1/4 316/1/4
f 309/4/4 310/4/4 317/4/4
f 275/4/4 309/4/4 317/4/4
f 317/4/4 310/4/4 318/4/4
f 310/3/4 303/3/4 319/3/4
f 311/2/4 312/2/4 319/2/4
f 303/2/4 311/2/4 319/2/4
f 319/2/4 312/2/4 320/2/4
f 314/2/4 307/2/4 321/2/4
f 313/2/4 314/2/4 321/2/4
f 307/1/4 315/1/4 322/1/4
f 321/2/4 307/2/4 322/2/4
f 316/4/4 282/4/4 323/4/4
f 315/4/4 316/4/4 323/4/4
f 323/4/4 282/4/4 324/4/4
f 318/4/4 310/4/4 325/4/4
f 319/3/4 320/3/4 325/3/4
f 310/3/4 319/3/4 325/3/4
f 325/3/4 320/3/4 326/3/4
f 320/2/4 312/2/4 327/2/4
f 326/3/4 320/3/4 327/3/4
f 312/3/4 305/3/4 328/3/4
f 327/2/4 312/2/4 328/2/4
f 328/3/4 305/3/4 329/3/4
f 305/1/4 313/1/4 330/1/4
f 313/2/4 321/2/4 331/2/4
f 330/1/4 313/1/4 331/1/4
f 331/2/4 321/2/4 332/2/4
f 321/1/4 322/1/4 333/1/4
f 332/2/4 321/2/4 333/2/4
f 322/1/4 315/1/4 334/1/4
f 333/1/4 322/1/4 334/1/4
f 315/4/4 323/4/4 335/4/4
f 334/1/4 315/1/4 335/1/4
f 325/4/4 326/4/4 336/4/4
f 318/4/4 325/4/4 336/4/4
f 336/4/4 326/4/4 337/4/4
f 326/3/4 327/3/4 338/3/4
f 337/4/4 326/4/4 338/4/4
f 327/3/4 328/3/4 338/3/4
f 338/3/4 328/3/4 339/3/4
f 328/2/4 329/2/4 340/2/4
f 339/3/4 328/3/4 340/3/4
f 329/3/4 305/3/4 341/3/4
f 340/2/4 329/2/4 341/2/4
f 305/1/4 330/1/4 342/1/4
f 331/2/4 332/2/4 342/2/4
f 330/2/4 331/2/4 342/2/4
f 333/1/4 334/1/4 343/1/4
f 342/2/4 332/2/4 343/2/4
f 332/1/4 333/1/4 343/1/4
f 343/1/4 334/1/4 344/1/4
f 334/4/4 335/4/4 345/4/4
f 344/1/4 334/1/4 345/1/4
f 335/4/4 323/4/4 346/4/4
f 345/4/4 335/4/4 346/4/4
f 346/4/4 323/4/4 347/4/4
f 337/4/4 338/4/4 348/4/4
f 338/4/4 339/4/4 348/4/4
f 348/4/4 339/4/4 349/4/4
f 339/3/4 340/3/4 350/3/4
f 349/4/4 339/4/4 350/4/4
f 340/3/4 341/3/4 350/3/4
f 341/3/4 305/3/4 351/3/4
f 350/3/4 341/3/4 351/3/4
f 343/1/4 344/1/4 352/1/4
f 342/1/4 343/1/4 352/1/4
f 344/4/4 345/4/4 353/4/4
f 352/1/4 344/1/4 353/1/4
f 345/4/4 346/4/4 353/4/4
f 353/4/4 346/4/4 354/4/4
f 354/4/4 346/4/4 355/4/4
f 349/4/4 350/4/4 356/4/4
f 350/4/4 351/4/4 356/4/4
f 356/4/4 351/4/4 357/4/4
f 351/3/4 305/3/4 358/3/4
f 357/4/4 351/4/4 358/4/4
f 342/1/4 352/1/4 359/1/4
f 358/3/4 305/3/4 359/3/4
f 305/1/4 342/1/4 359/1/4
f 353/4/4 354/4/4 360/4/4
f 359/1/4 352/1/4 360/1/4
f 352/4/4 353/4/4 360/4/4
f 360/4/4 354/4/4 361/4/4
f 361/4/4 354/4/4 362/4/4
f 358/4/4 359/4/4 363/4/4
f 357/4/4 358/4/4 363/4/4
f 360/4/4 361/4/4 363/4/4
f 359/4/4 360/4/4 363/4/4
f 363/4/4 361/4/4 364/4/4
f 367/4/5 366/4/5 365/4/5
f 368/4/5 366/4/5 367/4/5
f 373/4/5 370/4/5 369/4/5
f 374/4/5 370/4/5 373/4/5
f 375/4/5 372/4/5 371/4/5
f 376/4/5 372/4/5 375/4/5
f 381/4/5 378/4/5 377/4/5
f 382/4/5 378/4/5 381/4/5
f 383/4/5 380/4/5 379/4/5
f 384/4/5 380/4/5 383/4/5
f 389/4/5 386/4/5 385/4/5
f 390/4/5 386/4/5 389/4/5
f 391/4/5 388/4/5 387/4/5
f 392/4/5 388/4/5 391/4/5
f 397/4/5 394/4/5 393/4/5
f 398/4/5 394/4/5 397/4/5
f 399/4/5 396/4/5 395/4/5
f 400/4/5 396/4/5 399/4/5
f 403/4/5 402/4/5 401/4/5
f 404/4/5 402/4/5 403/4/5
f 407/1/5 406/1/5 405/1/5
f 408/1/5 406/1/5 407/1/5
f 409/3/6 410/3/6 411/3/6
f 411/3/6 410/3/6 412/3/6
f 413/4/6 414/4/6 415/4/6
f 415/4/6 414/4/6 416/4/6
f 417/4/6 418/4/6 421/4/6
f 421/4/6 418/4/6 422/4/6
f 419/4/6 420/4/6 423/4/6
f 423/4/6 420/4/6 424/4/6
f 425/4/6 426/4/6 429/4/6
f 429/4/6 426/4/6 430/4/6
f 427/4/6 428/4/6 431/4/6
f 431/4/6 428/4/6 432/4/6
f 433/4/6 434/4/6 437/4/6
f 437/4/6 434/4/6 438/4/6
f 435/4/6 436/4/6 439/4/6
f 439/4/6 436/4/6 440/4/6
f 441/4/6 442/4/6 445/4/6
f 445/4/6 442/4/6 446/4/6
f 443/4/6 444/4/6 447/4/6
f 447/4/6 444/4/6 448/4/6
f 449/4/6 450/4/6 451/4/6
f 451/4/6 450/4/6 452/4/6
