# MagicaVoxel @ Ephtracy

# group
o lance

# material
mtllib characters_export_red-9-lance.mtl
usemtl palette

# normals
vn 0 0 -1
vn 0 0 1
vn 0 1 0
vn 0 -1 0
vn -1 0 0
vn 1 0 0

# texcoords
vt 0.794922 0.5
vt 0.958984 0.5
vt 0.966797 0.5

# verts
v -0.6 6.1 0.4
v -0.6 6 0.4
v -0.5 6.1 0.4
v -0.5 6 0.4
v -0.6 6.4 0.5
v -0.6 6.1 0.5
v -0.6 6 0.5
v -0.6 5.9 0.5
v -0.6 0 0.5
v -0.5 6.4 0.5
v -0.5 6.1 0.5
v -0.5 6 0.5
v -0.5 5.9 0.5
v -0.5 0 0.5
v -0.6 6.4 0.6
v -0.6 6.1 0.6
v -0.6 6 0.6
v -0.6 5.9 0.6
v -0.6 0 0.6
v -0.5 6.4 0.6
v -0.5 6.1 0.6
v -0.5 6 0.6
v -0.5 5.9 0.6
v -0.5 0 0.6
v -0.6 6.1 0.7
v -0.6 6 0.7
v -0.5 6.1 0.7
v -0.5 6 0.7
v -0.6 6.4 0.5
v -0.5 6.4 0.5
v -0.6 6.4 0.6
v -0.5 6.4 0.6
v -0.6 6.1 0.4
v -0.5 6.1 0.4
v -0.6 6.1 0.5
v -0.5 6.1 0.5
v -0.6 6.1 0.6
v -0.5 6.1 0.6
v -0.6 6.1 0.7
v -0.5 6.1 0.7
v -0.6 6 0.4
v -0.5 6 0.4
v -0.6 6 0.5
v -0.5 6 0.5
v -0.6 6 0.6
v -0.5 6 0.6
v -0.6 6 0.7
v -0.5 6 0.7
v -0.6 0 0.5
v -0.5 0 0.5
v -0.6 0 0.6
v -0.5 0 0.6
v -0.6 6.4 0.5
v -0.6 6.4 0.6
v -0.6 6.1 0.4
v -0.6 6.1 0.5
v -0.6 6.1 0.6
v -0.6 6.1 0.7
v -0.6 6 0.4
v -0.6 6 0.5
v -0.6 6 0.6
v -0.6 6 0.7
v -0.6 5.9 0.5
v -0.6 5.9 0.6
v -0.6 0 0.5
v -0.6 0 0.6
v -0.5 6.4 0.5
v -0.5 6.4 0.6
v -0.5 6.1 0.4
v -0.5 6.1 0.5
v -0.5 6.1 0.6
v -0.5 6.1 0.7
v -0.5 6 0.4
v -0.5 6 0.5
v -0.5 6 0.6
v -0.5 6 0.7
v -0.5 5.9 0.5
v -0.5 5.9 0.6
v -0.5 0 0.5
v -0.5 0 0.6

# faces
f 3/3/1 2/3/1 1/3/1
f 4/3/1 2/3/1 3/3/1
f 10/3/1 6/3/1 5/3/1
f 11/3/1 6/3/1 10/3/1
f 12/2/1 8/2/1 7/2/1
f 13/1/1 9/1/1 8/1/1
f 13/2/1 8/2/1 12/2/1
f 14/1/1 9/1/1 13/1/1
f 15/3/2 16/3/2 20/3/2
f 20/3/2 16/3/2 21/3/2
f 17/2/2 18/2/2 22/2/2
f 18/1/2 19/1/2 23/1/2
f 22/2/2 18/2/2 23/2/2
f 23/1/2 19/1/2 24/1/2
f 25/3/2 26/3/2 27/3/2
f 27/3/2 26/3/2 28/3/2
f 31/3/3 30/3/3 29/3/3
f 32/3/3 30/3/3 31/3/3
f 35/3/3 34/3/3 33/3/3
f 36/3/3 34/3/3 35/3/3
f 39/3/3 38/3/3 37/3/3
f 40/3/3 38/3/3 39/3/3
f 41/3/4 42/3/4 43/3/4
f 43/3/4 42/3/4 44/3/4
f 45/3/4 46/3/4 47/3/4
f 47/3/4 46/3/4 48/3/4
f 49/1/4 50/1/4 51/1/4
f 51/1/4 50/1/4 52/1/4
f 56/3/5 54/3/5 53/3/5
f 57/3/5 54/3/5 56/3/5
f 59/3/5 56/3/5 55/3/5
f 60/2/5 57/2/5 56/2/5
f 60/3/5 56/3/5 59/3/5
f 61/3/5 58/3/5 57/3/5
f 61/2/5 57/2/5 60/2/5
f 62/3/5 58/3/5 61/3/5
f 63/2/5 61/2/5 60/2/5
f 64/2/5 61/2/5 63/2/5
f 65/1/5 64/1/5 63/1/5
f 66/1/5 64/1/5 65/1/5
f 67/3/6 68/3/6 70/3/6
f 70/3/6 68/3/6 71/3/6
f 69/3/6 70/3/6 73/3/6
f 70/2/6 71/2/6 74/2/6
f 73/3/6 70/3/6 74/3/6
f 71/3/6 72/3/6 75/3/6
f 74/2/6 71/2/6 75/2/6
f 75/3/6 72/3/6 76/3/6
f 74/2/6 75/2/6 77/2/6
f 77/2/6 75/2/6 78/2/6
f 77/1/6 78/1/6 79/1/6
f 79/1/6 78/1/6 80/1/6
