# MagicaVoxel @ Ephtracy

# group
o helm_hvy_3e_du

# material
mtllib characters_export_red-226-helm_hvy_3e_du.mtl
usemtl palette

# normals
vn -1 0 0
vn 1 0 0
vn 0 0 1
vn 0 0 -1
vn 0 -1 0
vn 0 1 0

# texcoords
vt 0.916016 0.5
vt 0.958984 0.5
vt 0.962891 0.5

# verts
v -0.3 2.5 0.2
v -0.3 2.5 -0.2
v -0.3 2.6 0.4
v -0.3 2.6 0.2
v -0.3 2.6 0.1
v -0.3 2.7 0.4
v -0.3 2.7 0.3
v -0.3 2.7 0.1
v -0.3 2.7 0
v -0.3 2.8 0
v -0.3 2.8 -0.1
v -0.3 3 0.3
v -0.3 3 -0.1
v -0.3 3 -0.2
v -0.3 3.2 0.3
v -0.3 3.2 -0.2
v -0.2 2.5 0.3
v -0.2 2.5 0.2
v -0.2 2.5 -0.2
v -0.2 2.5 -0.3
v -0.2 2.6 0.3
v -0.2 2.6 0.2
v -0.2 3 0.4
v -0.2 3 0.3
v -0.2 3 -0.2
v -0.2 3 -0.3
v -0.2 3.2 0.4
v -0.2 3.2 0.3
v -0.2 3.2 -0.2
v -0.2 3.2 -0.3
v -0.2 3.3 0.3
v -0.2 3.3 -0.2
v -0.1 2.7 0.4
v -0.1 2.7 0.3
v -0.1 2.8 0.3
v -0.1 3 0.4
v -0.1 3 0.3
v -0.1 3.2 0.4
v -0.1 3.2 0.3
v -0.1 3.2 -0.2
v -0.1 3.2 -0.3
v -0.1 3.3 0.4
v -0.1 3.3 0.3
v -0.1 3.3 -0.2
v -0.1 3.3 -0.3
v -0.1 3.4 0.3
v -0.1 3.4 -0.2
v 0.2 2.5 0.2
v 0.2 2.5 -0.2
v 0.2 2.6 0.4
v 0.2 2.6 0.3
v 0.2 2.6 0.2
v 0.2 2.6 0.1
v 0.2 2.7 0.4
v 0.2 2.7 0.3
v 0.2 2.7 0.1
v 0.2 2.7 0
v 0.2 2.8 0.3
v 0.2 2.8 0.2
v 0.2 2.8 0
v 0.2 2.8 -0.1
v 0.2 3 0.3
v 0.2 3 -0.1
v 0.2 3 -0.2
v 0.2 3.1 0.3
v 0.2 3.1 0.2
v 0.2 3.2 0.2
v 0.2 3.2 -0.2
v -0.2 2.5 0.2
v -0.2 2.5 -0.2
v -0.2 2.6 0.4
v -0.2 2.6 0.3
v -0.2 2.6 0.2
v -0.2 2.6 0.1
v -0.2 2.7 0.4
v -0.2 2.7 0.3
v -0.2 2.7 0.1
v -0.2 2.7 0
v -0.2 2.8 0.3
v -0.2 2.8 0.2
v -0.2 2.8 0
v -0.2 2.8 -0.1
v -0.2 3 0.3
v -0.2 3 -0.1
v -0.2 3 -0.2
v -0.2 3.1 0.3
v -0.2 3.1 0.2
v -0.2 3.2 0.2
v -0.2 3.2 -0.2
v 0.1 2.7 0.4
v 0.1 2.7 0.3
v 0.1 2.8 0.3
v 0.1 3 0.4
v 0.1 3 0.3
v 0.1 3.2 0.4
v 0.1 3.2 0.3
v 0.1 3.2 -0.2
v 0.1 3.2 -0.3
v 0.1 3.3 0.4
v 0.1 3.3 0.3
v 0.1 3.3 -0.2
v 0.1 3.3 -0.3
v 0.1 3.4 0.3
v 0.1 3.4 -0.2
v 0.2 2.5 0.3
v 0.2 2.5 0.2
v 0.2 2.5 -0.2
v 0.2 2.5 -0.3
v 0.2 2.6 0.3
v 0.2 2.6 0.2
v 0.2 3 0.4
v 0.2 3 0.3
v 0.2 3 -0.2
v 0.2 3 -0.3
v 0.2 3.2 0.4
v 0.2 3.2 0.3
v 0.2 3.2 -0.2
v 0.2 3.2 -0.3
v 0.2 3.3 0.3
v 0.2 3.3 -0.2
v 0.3 2.5 0.2
v 0.3 2.5 -0.2
v 0.3 2.6 0.4
v 0.3 2.6 0.2
v 0.3 2.6 0.1
v 0.3 2.7 0.4
v 0.3 2.7 0.3
v 0.3 2.7 0.1
v 0.3 2.7 0
v 0.3 2.8 0
v 0.3 2.8 -0.1
v 0.3 3 0.3
v 0.3 3 -0.1
v 0.3 3 -0.2
v 0.3 3.2 0.3
v 0.3 3.2 -0.2
v -0.3 2.6 0.4
v -0.3 2.7 0.4
v -0.2 2.6 0.4
v -0.2 2.7 0.4
v -0.2 3 0.4
v -0.2 3.2 0.4
v -0.1 2.7 0.4
v -0.1 3 0.4
v -0.1 3.2 0.4
v -0.1 3.3 0.4
v 0.1 2.7 0.4
v 0.1 3 0.4
v 0.1 3.2 0.4
v 0.1 3.3 0.4
v 0.2 2.6 0.4
v 0.2 2.7 0.4
v 0.2 3 0.4
v 0.2 3.2 0.4
v 0.3 2.6 0.4
v 0.3 2.7 0.4
v -0.3 2.7 0.3
v -0.3 3 0.3
v -0.3 3.2 0.3
v -0.2 2.5 0.3
v -0.2 2.6 0.3
v -0.2 2.7 0.3
v -0.2 2.8 0.3
v -0.2 3 0.3
v -0.2 3.2 0.3
v -0.2 3.3 0.3
v -0.1 2.7 0.3
v -0.1 2.8 0.3
v -0.1 3.2 0.3
v -0.1 3.3 0.3
v -0.1 3.4 0.3
v 0.1 2.7 0.3
v 0.1 2.8 0.3
v 0.1 3.2 0.3
v 0.1 3.3 0.3
v 0.1 3.4 0.3
v 0.2 2.5 0.3
v 0.2 2.6 0.3
v 0.2 2.7 0.3
v 0.2 2.8 0.3
v 0.2 3 0.3
v 0.2 3.2 0.3
v 0.2 3.3 0.3
v 0.3 2.7 0.3
v 0.3 3 0.3
v 0.3 3.2 0.3
v -0.3 2.5 0.2
v -0.3 2.6 0.2
v -0.2 2.5 0.2
v -0.2 2.6 0.2
v 0.2 2.5 0.2
v 0.2 2.6 0.2
v 0.3 2.5 0.2
v 0.3 2.6 0.2
v -0.2 2.5 -0.2
v -0.2 3 -0.2
v -0.2 3.2 -0.2
v -0.1 3.2 -0.2
v 0.1 3.2 -0.2
v 0.2 2.5 -0.2
v 0.2 3 -0.2
v 0.2 3.2 -0.2
v -0.2 3 0.3
v -0.2 3.1 0.3
v -0.1 2.8 0.3
v -0.1 3 0.3
v -0.1 3.1 0.3
v 0.1 2.8 0.3
v 0.1 3 0.3
v 0.1 3.1 0.3
v 0.2 3 0.3
v 0.2 3.1 0.3
v -0.2 2.5 0.2
v -0.2 2.6 0.2
v -0.2 2.8 0.2
v -0.2 3.1 0.2
v -0.2 3.2 0.2
v -0.1 3.1 0.2
v -0.1 3.2 0.2
v 0.1 3.1 0.2
v 0.1 3.2 0.2
v 0.2 2.5 0.2
v 0.2 2.6 0.2
v 0.2 2.8 0.2
v 0.2 3.1 0.2
v 0.2 3.2 0.2
v -0.3 2.5 -0.2
v -0.3 3 -0.2
v -0.3 3.2 -0.2
v -0.2 2.5 -0.2
v -0.2 3 -0.2
v -0.2 3.2 -0.2
v -0.2 3.3 -0.2
v -0.1 3.2 -0.2
v -0.1 3.3 -0.2
v -0.1 3.4 -0.2
v 0.1 3.2 -0.2
v 0.1 3.3 -0.2
v 0.1 3.4 -0.2
v 0.2 2.5 -0.2
v 0.2 3 -0.2
v 0.2 3.2 -0.2
v 0.2 3.3 -0.2
v 0.3 2.5 -0.2
v 0.3 3 -0.2
v 0.3 3.2 -0.2
v -0.2 2.5 -0.3
v -0.2 3 -0.3
v -0.2 3.2 -0.3
v -0.1 3.2 -0.3
v -0.1 3.3 -0.3
v 0.1 3.2 -0.3
v 0.1 3.3 -0.3
v 0.2 2.5 -0.3
v 0.2 3 -0.3
v 0.2 3.2 -0.3
v -0.2 2.5 0.3
v 0.2 2.5 0.3
v -0.3 2.5 0.2
v -0.2 2.5 0.2
v 0.2 2.5 0.2
v 0.3 2.5 0.2
v -0.3 2.5 -0.2
v -0.2 2.5 -0.2
v 0.2 2.5 -0.2
v 0.3 2.5 -0.2
v -0.2 2.5 -0.3
v 0.2 2.5 -0.3
v -0.3 2.6 0.4
v -0.2 2.6 0.4
v 0.2 2.6 0.4
v 0.3 2.6 0.4
v -0.2 2.6 0.3
v 0.2 2.6 0.3
v -0.3 2.6 0.2
v -0.2 2.6 0.2
v 0.2 2.6 0.2
v 0.3 2.6 0.2
v -0.1 2.7 0.4
v 0.1 2.7 0.4
v -0.1 2.7 0.3
v 0.1 2.7 0.3
v -0.2 3 0.4
v -0.1 3 0.4
v 0.1 3 0.4
v 0.2 3 0.4
v -0.2 3 0.3
v -0.1 3 0.3
v 0.1 3 0.3
v 0.2 3 0.3
v -0.2 3.1 0.3
v -0.1 3.1 0.3
v 0.1 3.1 0.3
v 0.2 3.1 0.3
v -0.2 3.1 0.2
v -0.1 3.1 0.2
v 0.1 3.1 0.2
v 0.2 3.1 0.2
v -0.2 3.2 0.2
v -0.1 3.2 0.2
v 0.1 3.2 0.2
v 0.2 3.2 0.2
v -0.2 3.2 -0.2
v -0.1 3.2 -0.2
v 0.1 3.2 -0.2
v 0.2 3.2 -0.2
v -0.3 2.7 0.4
v -0.2 2.7 0.4
v 0.2 2.7 0.4
v 0.3 2.7 0.4
v -0.3 2.7 0.3
v -0.2 2.7 0.3
v 0.2 2.7 0.3
v 0.3 2.7 0.3
v -0.2 2.8 0.3
v -0.1 2.8 0.3
v 0.1 2.8 0.3
v 0.2 2.8 0.3
v -0.2 2.8 0.2
v 0.2 2.8 0.2
v -0.2 3.2 0.4
v -0.1 3.2 0.4
v 0.1 3.2 0.4
v 0.2 3.2 0.4
v -0.3 3.2 0.3
v -0.2 3.2 0.3
v -0.1 3.2 0.3
v 0.1 3.2 0.3
v 0.2 3.2 0.3
v 0.3 3.2 0.3
v -0.3 3.2 -0.2
v -0.2 3.2 -0.2
v -0.1 3.2 -0.2
v 0.1 3.2 -0.2
v 0.2 3.2 -0.2
v 0.3 3.2 -0.2
v -0.2 3.2 -0.3
v -0.1 3.2 -0.3
v 0.1 3.2 -0.3
v 0.2 3.2 -0.3
v -0.1 3.3 0.4
v 0.1 3.3 0.4
v -0.2 3.3 0.3
v -0.1 3.3 0.3
v 0.1 3.3 0.3
v 0.2 3.3 0.3
v -0.2 3.3 -0.2
v -0.1 3.3 -0.2
v 0.1 3.3 -0.2
v 0.2 3.3 -0.2
v -0.1 3.3 -0.3
v 0.1 3.3 -0.3
v -0.1 3.4 0.3
v 0.1 3.4 0.3
v -0.1 3.4 -0.2
v 0.1 3.4 -0.2

# faces
f 4/2/1 2/2/1 1/2/1
f 5/2/1 2/2/1 4/2/1
f 6/3/1 4/3/1 3/3/1
f 6/3/1 5/3/1 4/3/1
f 7/3/1 5/3/1 6/3/1
f 8/2/1 2/2/1 5/2/1
f 8/3/1 5/3/1 7/3/1
f 9/2/1 2/2/1 8/2/1
f 10/2/1 2/2/1 9/2/1
f 10/3/1 9/3/1 8/3/1
f 10/3/1 8/3/1 7/3/1
f 11/2/1 2/2/1 10/2/1
f 12/3/1 10/3/1 7/3/1
f 12/3/1 11/3/1 10/3/1
f 13/2/1 2/2/1 11/2/1
f 13/3/1 11/3/1 12/3/1
f 14/2/1 2/2/1 13/2/1
f 15/1/1 13/1/1 12/1/1
f 15/1/1 14/1/1 13/1/1
f 16/1/1 14/1/1 15/1/1
f 21/2/1 18/2/1 17/2/1
f 22/2/1 18/2/1 21/2/1
f 25/2/1 20/2/1 19/2/1
f 26/2/1 20/2/1 25/2/1
f 27/1/1 24/1/1 23/1/1
f 28/1/1 24/1/1 27/1/1
f 29/1/1 26/1/1 25/1/1
f 30/1/1 26/1/1 29/1/1
f 31/3/1 29/3/1 28/3/1
f 32/3/1 29/3/1 31/3/1
f 35/1/1 34/1/1 33/1/1
f 36/1/1 35/1/1 33/1/1
f 37/1/1 35/1/1 36/1/1
f 42/1/1 39/1/1 38/1/1
f 43/1/1 39/1/1 42/1/1
f 44/1/1 41/1/1 40/1/1
f 45/1/1 41/1/1 44/1/1
f 46/1/1 44/1/1 43/1/1
f 47/1/1 44/1/1 46/1/1
f 52/2/1 49/2/1 48/2/1
f 53/2/1 49/2/1 52/2/1
f 54/3/1 51/3/1 50/3/1
f 55/3/1 51/3/1 54/3/1
f 56/2/1 49/2/1 53/2/1
f 56/3/1 53/3/1 52/3/1
f 57/2/1 49/2/1 56/2/1
f 59/3/1 56/3/1 52/3/1
f 59/3/1 57/3/1 56/3/1
f 60/2/1 49/2/1 57/2/1
f 60/3/1 57/3/1 59/3/1
f 61/2/1 49/2/1 60/2/1
f 62/3/1 59/3/1 58/3/1
f 62/3/1 60/3/1 59/3/1
f 62/3/1 61/3/1 60/3/1
f 63/2/1 49/2/1 61/2/1
f 63/3/1 61/3/1 62/3/1
f 64/2/1 49/2/1 63/2/1
f 65/1/1 63/1/1 62/1/1
f 65/1/1 64/1/1 63/1/1
f 66/1/1 64/1/1 65/1/1
f 67/1/1 64/1/1 66/1/1
f 68/1/1 64/1/1 67/1/1
f 69/2/2 70/2/2 73/2/2
f 73/2/2 70/2/2 74/2/2
f 71/3/2 72/3/2 75/3/2
f 75/3/2 72/3/2 76/3/2
f 74/2/2 70/2/2 77/2/2
f 73/3/2 74/3/2 77/3/2
f 77/2/2 70/2/2 78/2/2
f 73/3/2 77/3/2 80/3/2
f 77/3/2 78/3/2 80/3/2
f 78/2/2 70/2/2 81/2/2
f 80/3/2 78/3/2 81/3/2
f 81/2/2 70/2/2 82/2/2
f 79/3/2 80/3/2 83/3/2
f 80/3/2 81/3/2 83/3/2
f 81/3/2 82/3/2 83/3/2
f 82/2/2 70/2/2 84/2/2
f 83/3/2 82/3/2 84/3/2
f 84/2/2 70/2/2 85/2/2
f 83/1/2 84/1/2 86/1/2
f 84/1/2 85/1/2 86/1/2
f 86/1/2 85/1/2 87/1/2
f 87/1/2 85/1/2 88/1/2
f 88/1/2 85/1/2 89/1/2
f 90/1/2 91/1/2 92/1/2
f 90/1/2 92/1/2 93/1/2
f 93/1/2 92/1/2 94/1/2
f 95/1/2 96/1/2 99/1/2
f 99/1/2 96/1/2 100/1/2
f 97/1/2 98/1/2 101/1/2
f 101/1/2 98/1/2 102/1/2
f 100/1/2 101/1/2 103/1/2
f 103/1/2 101/1/2 104/1/2
f 105/2/2 106/2/2 109/2/2
f 109/2/2 106/2/2 110/2/2
f 107/2/2 108/2/2 113/2/2
f 113/2/2 108/2/2 114/2/2
f 111/1/2 112/1/2 115/1/2
f 115/1/2 112/1/2 116/1/2
f 113/1/2 114/1/2 117/1/2
f 117/1/2 114/1/2 118/1/2
f 116/3/2 117/3/2 119/3/2
f 119/3/2 117/3/2 120/3/2
f 121/2/2 122/2/2 124/2/2
f 124/2/2 122/2/2 125/2/2
f 123/3/2 124/3/2 126/3/2
f 124/3/2 125/3/2 126/3/2
f 126/3/2 125/3/2 127/3/2
f 125/2/2 122/2/2 128/2/2
f 127/3/2 125/3/2 128/3/2
f 128/2/2 122/2/2 129/2/2
f 129/2/2 122/2/2 130/2/2
f 128/3/2 129/3/2 130/3/2
f 127/3/2 128/3/2 130/3/2
f 130/2/2 122/2/2 131/2/2
f 127/3/2 130/3/2 132/3/2
f 130/3/2 131/3/2 132/3/2
f 131/2/2 122/2/2 133/2/2
f 132/3/2 131/3/2 133/3/2
f 133/2/2 122/2/2 134/2/2
f 132/1/2 133/1/2 135/1/2
f 133/1/2 134/1/2 135/1/2
f 135/1/2 134/1/2 136/1/2
f 139/3/3 138/3/3 137/3/3
f 140/3/3 138/3/3 139/3/3
f 144/1/3 142/1/3 141/1/3
f 145/1/3 142/1/3 144/1/3
f 147/1/3 144/1/3 143/1/3
f 147/1/3 146/1/3 145/1/3
f 147/1/3 145/1/3 144/1/3
f 148/1/3 146/1/3 147/1/3
f 149/1/3 146/1/3 148/1/3
f 150/1/3 146/1/3 149/1/3
f 153/1/3 149/1/3 148/1/3
f 154/1/3 149/1/3 153/1/3
f 155/3/3 152/3/3 151/3/3
f 156/3/3 152/3/3 155/3/3
f 162/3/3 158/3/3 157/3/3
f 163/3/3 158/3/3 162/3/3
f 164/1/3 159/1/3 158/1/3
f 164/3/3 158/3/3 163/3/3
f 165/1/3 159/1/3 164/1/3
f 167/2/3 161/2/3 160/2/3
f 167/2/3 163/2/3 162/2/3
f 167/2/3 162/2/3 161/2/3
f 168/2/3 163/2/3 167/2/3
f 169/3/3 166/3/3 165/3/3
f 170/3/3 166/3/3 169/3/3
f 172/2/3 167/2/3 160/2/3
f 175/1/3 171/1/3 170/1/3
f 176/1/3 171/1/3 175/1/3
f 177/2/3 173/2/3 172/2/3
f 177/2/3 172/2/3 160/2/3
f 178/2/3 173/2/3 177/2/3
f 179/2/3 173/2/3 178/2/3
f 180/2/3 173/2/3 179/2/3
f 182/3/3 175/3/3 174/3/3
f 183/3/3 175/3/3 182/3/3
f 184/3/3 181/3/3 180/3/3
f 184/3/3 180/3/3 179/3/3
f 185/1/3 182/1/3 181/1/3
f 185/3/3 181/3/3 184/3/3
f 186/1/3 182/1/3 185/1/3
f 189/2/3 188/2/3 187/2/3
f 190/2/3 188/2/3 189/2/3
f 193/2/3 192/2/3 191/2/3
f 194/2/3 192/2/3 193/2/3
f 198/1/3 197/1/3 196/1/3
f 199/1/3 198/1/3 196/1/3
f 200/2/3 196/2/3 195/2/3
f 201/1/3 199/1/3 196/1/3
f 201/2/3 196/2/3 200/2/3
f 202/1/3 199/1/3 201/1/3
f 203/1/4 204/1/4 206/1/4
f 206/1/4 204/1/4 207/1/4
f 205/1/4 206/1/4 208/1/4
f 206/1/4 207/1/4 208/1/4
f 208/1/4 207/1/4 209/1/4
f 209/1/4 207/1/4 210/1/4
f 209/1/4 210/1/4 211/1/4
f 211/1/4 210/1/4 212/1/4
f 216/1/4 217/1/4 218/1/4
f 218/1/4 217/1/4 219/1/4
f 218/2/4 219/2/4 220/2/4
f 220/2/4 219/2/4 221/2/4
f 213/2/4 214/2/4 222/2/4
f 214/2/4 215/2/4 222/2/4
f 222/2/4 215/2/4 223/2/4
f 223/2/4 215/2/4 224/2/4
f 220/1/4 221/1/4 225/1/4
f 225/1/4 221/1/4 226/1/4
f 227/2/4 228/2/4 230/2/4
f 228/1/4 229/1/4 231/1/4
f 230/2/4 228/2/4 231/2/4
f 231/1/4 229/1/4 232/1/4
f 232/3/4 233/3/4 234/3/4
f 234/3/4 233/3/4 235/3/4
f 235/1/4 236/1/4 238/1/4
f 238/1/4 236/1/4 239/1/4
f 237/3/4 238/3/4 242/3/4
f 242/3/4 238/3/4 243/3/4
f 240/2/4 241/2/4 244/2/4
f 241/1/4 242/1/4 245/1/4
f 244/2/4 241/2/4 245/2/4
f 245/1/4 242/1/4 246/1/4
f 248/1/4 249/1/4 250/1/4
f 248/1/4 250/1/4 252/1/4
f 250/1/4 251/1/4 252/1/4
f 252/1/4 251/1/4 253/1/4
f 247/2/4 248/2/4 254/2/4
f 248/1/4 252/1/4 255/1/4
f 254/2/4 248/2/4 255/2/4
f 255/1/4 252/1/4 256/1/4
f 260/2/5 258/2/5 257/2/5
f 261/2/5 258/2/5 260/2/5
f 263/2/5 260/2/5 259/2/5
f 264/2/5 260/2/5 263/2/5
f 265/2/5 262/2/5 261/2/5
f 266/2/5 262/2/5 265/2/5
f 267/2/5 265/2/5 264/2/5
f 268/2/5 265/2/5 267/2/5
f 273/3/5 270/3/5 269/3/5
f 274/3/5 272/3/5 271/3/5
f 275/3/5 273/3/5 269/3/5
f 276/3/5 273/3/5 275/3/5
f 277/3/5 272/3/5 274/3/5
f 278/3/5 272/3/5 277/3/5
f 281/1/5 280/1/5 279/1/5
f 282/1/5 280/1/5 281/1/5
f 287/1/5 284/1/5 283/1/5
f 288/1/5 284/1/5 287/1/5
f 289/1/5 286/1/5 285/1/5
f 290/1/5 286/1/5 289/1/5
f 295/1/5 292/1/5 291/1/5
f 296/2/5 293/2/5 292/2/5
f 296/1/5 292/1/5 295/1/5
f 297/1/5 294/1/5 293/1/5
f 297/2/5 293/2/5 296/2/5
f 298/1/5 294/1/5 297/1/5
f 303/3/5 300/3/5 299/3/5
f 304/1/5 301/1/5 300/1/5
f 304/3/5 300/3/5 303/3/5
f 305/3/5 302/3/5 301/3/5
f 305/1/5 301/1/5 304/1/5
f 306/3/5 302/3/5 305/3/5
f 307/3/6 308/3/6 311/3/6
f 311/3/6 308/3/6 312/3/6
f 309/3/6 310/3/6 313/3/6
f 313/3/6 310/3/6 314/3/6
f 315/2/6 316/2/6 319/2/6
f 317/2/6 318/2/6 319/2/6
f 316/2/6 317/2/6 319/2/6
f 319/2/6 318/2/6 320/2/6
f 321/1/6 322/1/6 326/1/6
f 326/1/6 322/1/6 327/1/6
f 323/1/6 324/1/6 328/1/6
f 328/1/6 324/1/6 329/1/6
f 325/1/6 326/1/6 331/1/6
f 331/1/6 326/1/6 332/1/6
f 329/1/6 330/1/6 335/1/6
f 335/1/6 330/1/6 336/1/6
f 332/1/6 333/1/6 337/1/6
f 337/1/6 333/1/6 338/1/6
f 334/1/6 335/1/6 339/1/6
f 339/1/6 335/1/6 340/1/6
f 341/1/6 342/1/6 344/1/6
f 344/1/6 342/1/6 345/1/6
f 343/3/6 344/3/6 347/3/6
f 347/3/6 344/3/6 348/3/6
f 345/3/6 346/3/6 349/3/6
f 349/3/6 346/3/6 350/3/6
f 348/1/6 349/1/6 351/1/6
f 351/1/6 349/1/6 352/1/6
f 353/1/6 354/1/6 355/1/6
f 355/1/6 354/1/6 356/1/6
