# MagicaVoxel @ Ephtracy

# group
o helm_hvy_1e_du

# material
mtllib characters_export_red-236-helm_hvy_1e_du.mtl
usemtl palette

# normals
vn -1 0 0
vn 1 0 0
vn 0 0 1
vn 0 0 -1
vn 0 -1 0
vn 0 1 0

# texcoords
vt 0.744141 0.5
vt 0.962891 0.5

# verts
v -0.3 2.5 0.2
v -0.3 2.5 -0.2
v -0.3 2.6 0.4
v -0.3 2.6 0.2
v -0.3 2.6 0.1
v -0.3 2.7 0.4
v -0.3 2.7 0.3
v -0.3 2.7 0.1
v -0.3 2.7 0
v -0.3 2.8 0
v -0.3 2.8 -0.1
v -0.3 3 -0.1
v -0.3 3 -0.2
v -0.3 3.2 0.3
v -0.3 3.2 -0.2
v -0.2 2.5 0.3
v -0.2 2.5 0.2
v -0.2 2.5 -0.2
v -0.2 2.5 -0.3
v -0.2 2.6 0.3
v -0.2 2.6 0.2
v -0.2 3 0.4
v -0.2 3 0.3
v -0.2 3 -0.2
v -0.2 3 -0.3
v -0.2 3.2 0.4
v -0.2 3.2 0.3
v -0.2 3.2 -0.2
v -0.2 3.2 -0.3
v -0.2 3.3 0.3
v -0.2 3.3 -0.2
v -0.1 2.7 0.4
v -0.1 2.7 0.3
v -0.1 2.8 0.3
v -0.1 3 0.4
v -0.1 3 0.3
v -0.1 3.2 0.4
v -0.1 3.2 0.3
v -0.1 3.2 -0.2
v -0.1 3.2 -0.3
v -0.1 3.3 0.4
v -0.1 3.3 0.3
v -0.1 3.3 -0.2
v -0.1 3.3 -0.3
v -0.1 3.4 0.3
v -0.1 3.4 -0.2
v 0.2 2.5 0.2
v 0.2 2.5 -0.2
v 0.2 2.6 0.4
v 0.2 2.6 0.3
v 0.2 2.6 0.2
v 0.2 2.6 0.1
v 0.2 2.7 0.4
v 0.2 2.7 0.3
v 0.2 2.7 0.1
v 0.2 2.7 0
v 0.2 2.8 0.3
v 0.2 2.8 0.2
v 0.2 2.8 0
v 0.2 2.8 -0.1
v 0.2 3 0.3
v 0.2 3 -0.1
v 0.2 3 -0.2
v 0.2 3.1 0.3
v 0.2 3.1 0.2
v 0.2 3.2 0.2
v 0.2 3.2 -0.2
v -0.2 2.5 0.2
v -0.2 2.5 -0.2
v -0.2 2.6 0.4
v -0.2 2.6 0.3
v -0.2 2.6 0.2
v -0.2 2.6 0.1
v -0.2 2.7 0.4
v -0.2 2.7 0.3
v -0.2 2.7 0.1
v -0.2 2.7 0
v -0.2 2.8 0.3
v -0.2 2.8 0.2
v -0.2 2.8 0
v -0.2 2.8 -0.1
v -0.2 3 0.3
v -0.2 3 -0.1
v -0.2 3 -0.2
v -0.2 3.1 0.3
v -0.2 3.1 0.2
v -0.2 3.2 0.2
v -0.2 3.2 -0.2
v 0.1 2.7 0.4
v 0.1 2.7 0.3
v 0.1 2.8 0.3
v 0.1 3 0.4
v 0.1 3 0.3
v 0.1 3.2 0.4
v 0.1 3.2 0.3
v 0.1 3.2 -0.2
v 0.1 3.2 -0.3
v 0.1 3.3 0.4
v 0.1 3.3 0.3
v 0.1 3.3 -0.2
v 0.1 3.3 -0.3
v 0.1 3.4 0.3
v 0.1 3.4 -0.2
v 0.2 2.5 0.3
v 0.2 2.5 0.2
v 0.2 2.5 -0.2
v 0.2 2.5 -0.3
v 0.2 2.6 0.3
v 0.2 2.6 0.2
v 0.2 3 0.4
v 0.2 3 0.3
v 0.2 3 -0.2
v 0.2 3 -0.3
v 0.2 3.2 0.4
v 0.2 3.2 0.3
v 0.2 3.2 -0.2
v 0.2 3.2 -0.3
v 0.2 3.3 0.3
v 0.2 3.3 -0.2
v 0.3 2.5 0.2
v 0.3 2.5 -0.2
v 0.3 2.6 0.4
v 0.3 2.6 0.2
v 0.3 2.6 0.1
v 0.3 2.7 0.4
v 0.3 2.7 0.3
v 0.3 2.7 0.1
v 0.3 2.7 0
v 0.3 2.8 0
v 0.3 2.8 -0.1
v 0.3 3 -0.1
v 0.3 3 -0.2
v 0.3 3.2 0.3
v 0.3 3.2 -0.2
v -0.3 2.6 0.4
v -0.3 2.7 0.4
v -0.2 2.6 0.4
v -0.2 2.7 0.4
v -0.2 3 0.4
v -0.2 3.2 0.4
v -0.1 2.7 0.4
v -0.1 3 0.4
v -0.1 3.2 0.4
v -0.1 3.3 0.4
v 0.1 2.7 0.4
v 0.1 3 0.4
v 0.1 3.2 0.4
v 0.1 3.3 0.4
v 0.2 2.6 0.4
v 0.2 2.7 0.4
v 0.2 3 0.4
v 0.2 3.2 0.4
v 0.3 2.6 0.4
v 0.3 2.7 0.4
v -0.3 2.7 0.3
v -0.3 3.2 0.3
v -0.2 2.5 0.3
v -0.2 2.6 0.3
v -0.2 2.7 0.3
v -0.2 2.8 0.3
v -0.2 3 0.3
v -0.2 3.2 0.3
v -0.2 3.3 0.3
v -0.1 2.7 0.3
v -0.1 2.8 0.3
v -0.1 3.2 0.3
v -0.1 3.3 0.3
v -0.1 3.4 0.3
v 0.1 2.7 0.3
v 0.1 2.8 0.3
v 0.1 3.2 0.3
v 0.1 3.3 0.3
v 0.1 3.4 0.3
v 0.2 2.5 0.3
v 0.2 2.6 0.3
v 0.2 2.7 0.3
v 0.2 2.8 0.3
v 0.2 3 0.3
v 0.2 3.2 0.3
v 0.2 3.3 0.3
v 0.3 2.7 0.3
v 0.3 3.2 0.3
v -0.3 2.5 0.2
v -0.3 2.6 0.2
v -0.2 2.5 0.2
v -0.2 2.6 0.2
v 0.2 2.5 0.2
v 0.2 2.6 0.2
v 0.3 2.5 0.2
v 0.3 2.6 0.2
v -0.2 2.5 -0.2
v -0.2 3 -0.2
v -0.2 3.2 -0.2
v 0.2 2.5 -0.2
v 0.2 3 -0.2
v 0.2 3.2 -0.2
v -0.2 3 0.3
v -0.2 3.1 0.3
v -0.1 2.8 0.3
v -0.1 3 0.3
v -0.1 3.1 0.3
v 0.1 2.8 0.3
v 0.1 3 0.3
v 0.1 3.1 0.3
v 0.2 3 0.3
v 0.2 3.1 0.3
v -0.2 2.5 0.2
v -0.2 2.6 0.2
v -0.2 2.8 0.2
v -0.2 3.1 0.2
v -0.2 3.2 0.2
v -0.1 3.1 0.2
v -0.1 3.2 0.2
v 0.1 3.1 0.2
v 0.1 3.2 0.2
v 0.2 2.5 0.2
v 0.2 2.6 0.2
v 0.2 2.8 0.2
v 0.2 3.1 0.2
v 0.2 3.2 0.2
v -0.3 2.5 -0.2
v -0.3 3 -0.2
v -0.3 3.2 -0.2
v -0.2 2.5 -0.2
v -0.2 3 -0.2
v -0.2 3.2 -0.2
v -0.2 3.3 -0.2
v -0.1 3.2 -0.2
v -0.1 3.3 -0.2
v -0.1 3.4 -0.2
v 0.1 3.2 -0.2
v 0.1 3.3 -0.2
v 0.1 3.4 -0.2
v 0.2 2.5 -0.2
v 0.2 3 -0.2
v 0.2 3.2 -0.2
v 0.2 3.3 -0.2
v 0.3 2.5 -0.2
v 0.3 3 -0.2
v 0.3 3.2 -0.2
v -0.2 2.5 -0.3
v -0.2 3 -0.3
v -0.2 3.2 -0.3
v -0.1 3.2 -0.3
v -0.1 3.3 -0.3
v 0.1 3.2 -0.3
v 0.1 3.3 -0.3
v 0.2 2.5 -0.3
v 0.2 3 -0.3
v 0.2 3.2 -0.3
v -0.2 2.5 0.3
v 0.2 2.5 0.3
v -0.3 2.5 0.2
v -0.2 2.5 0.2
v 0.2 2.5 0.2
v 0.3 2.5 0.2
v -0.3 2.5 -0.2
v -0.2 2.5 -0.2
v 0.2 2.5 -0.2
v 0.3 2.5 -0.2
v -0.2 2.5 -0.3
v 0.2 2.5 -0.3
v -0.3 2.6 0.4
v -0.2 2.6 0.4
v 0.2 2.6 0.4
v 0.3 2.6 0.4
v -0.2 2.6 0.3
v 0.2 2.6 0.3
v -0.3 2.6 0.2
v -0.2 2.6 0.2
v 0.2 2.6 0.2
v 0.3 2.6 0.2
v -0.1 2.7 0.4
v 0.1 2.7 0.4
v -0.1 2.7 0.3
v 0.1 2.7 0.3
v -0.2 3 0.4
v -0.1 3 0.4
v 0.1 3 0.4
v 0.2 3 0.4
v -0.2 3 0.3
v -0.1 3 0.3
v 0.1 3 0.3
v 0.2 3 0.3
v -0.2 3.1 0.3
v -0.1 3.1 0.3
v 0.1 3.1 0.3
v 0.2 3.1 0.3
v -0.2 3.1 0.2
v -0.1 3.1 0.2
v 0.1 3.1 0.2
v 0.2 3.1 0.2
v -0.2 3.2 0.2
v -0.1 3.2 0.2
v 0.1 3.2 0.2
v 0.2 3.2 0.2
v -0.2 3.2 -0.2
v 0.2 3.2 -0.2
v -0.3 2.7 0.4
v -0.2 2.7 0.4
v 0.2 2.7 0.4
v 0.3 2.7 0.4
v -0.3 2.7 0.3
v -0.2 2.7 0.3
v 0.2 2.7 0.3
v 0.3 2.7 0.3
v -0.2 2.8 0.3
v -0.1 2.8 0.3
v 0.1 2.8 0.3
v 0.2 2.8 0.3
v -0.2 2.8 0.2
v 0.2 2.8 0.2
v -0.2 3.2 0.4
v -0.1 3.2 0.4
v 0.1 3.2 0.4
v 0.2 3.2 0.4
v -0.3 3.2 0.3
v -0.2 3.2 0.3
v -0.1 3.2 0.3
v 0.1 3.2 0.3
v 0.2 3.2 0.3
v 0.3 3.2 0.3
v -0.3 3.2 -0.2
v -0.2 3.2 -0.2
v -0.1 3.2 -0.2
v 0.1 3.2 -0.2
v 0.2 3.2 -0.2
v 0.3 3.2 -0.2
v -0.2 3.2 -0.3
v -0.1 3.2 -0.3
v 0.1 3.2 -0.3
v 0.2 3.2 -0.3
v -0.1 3.3 0.4
v 0.1 3.3 0.4
v -0.2 3.3 0.3
v -0.1 3.3 0.3
v 0.1 3.3 0.3
v 0.2 3.3 0.3
v -0.2 3.3 -0.2
v -0.1 3.3 -0.2
v 0.1 3.3 -0.2
v 0.2 3.3 -0.2
v -0.1 3.3 -0.3
v 0.1 3.3 -0.3
v -0.1 3.4 0.3
v 0.1 3.4 0.3
v -0.1 3.4 -0.2
v 0.1 3.4 -0.2

# faces
f 4/1/1 2/1/1 1/1/1
f 5/1/1 2/1/1 4/1/1
f 6/2/1 4/2/1 3/2/1
f 6/2/1 5/2/1 4/2/1
f 7/2/1 5/2/1 6/2/1
f 8/1/1 2/1/1 5/1/1
f 8/2/1 5/2/1 7/2/1
f 9/1/1 2/1/1 8/1/1
f 10/1/1 2/1/1 9/1/1
f 10/2/1 9/2/1 8/2/1
f 10/2/1 8/2/1 7/2/1
f 11/1/1 2/1/1 10/1/1
f 12/2/1 11/2/1 10/2/1
f 12/1/1 2/1/1 11/1/1
f 13/1/1 2/1/1 12/1/1
f 14/2/1 10/2/1 7/2/1
f 14/2/1 12/2/1 10/2/1
f 14/2/1 13/2/1 12/2/1
f 15/2/1 13/2/1 14/2/1
f 20/1/1 17/1/1 16/1/1
f 21/1/1 17/1/1 20/1/1
f 24/1/1 19/1/1 18/1/1
f 25/1/1 19/1/1 24/1/1
f 26/2/1 23/2/1 22/2/1
f 27/2/1 23/2/1 26/2/1
f 28/2/1 25/2/1 24/2/1
f 29/2/1 25/2/1 28/2/1
f 30/2/1 28/2/1 27/2/1
f 31/2/1 28/2/1 30/2/1
f 34/2/1 33/2/1 32/2/1
f 35/2/1 34/2/1 32/2/1
f 36/2/1 34/2/1 35/2/1
f 41/2/1 38/2/1 37/2/1
f 42/2/1 38/2/1 41/2/1
f 43/2/1 40/2/1 39/2/1
f 44/2/1 40/2/1 43/2/1
f 45/2/1 43/2/1 42/2/1
f 46/2/1 43/2/1 45/2/1
f 51/1/1 48/1/1 47/1/1
f 52/1/1 48/1/1 51/1/1
f 53/2/1 50/2/1 49/2/1
f 54/2/1 50/2/1 53/2/1
f 55/1/1 48/1/1 52/1/1
f 55/2/1 52/2/1 51/2/1
f 56/1/1 48/1/1 55/1/1
f 58/2/1 55/2/1 51/2/1
f 58/2/1 56/2/1 55/2/1
f 59/1/1 48/1/1 56/1/1
f 59/2/1 56/2/1 58/2/1
f 60/1/1 48/1/1 59/1/1
f 61/2/1 58/2/1 57/2/1
f 61/2/1 59/2/1 58/2/1
f 61/2/1 60/2/1 59/2/1
f 62/1/1 48/1/1 60/1/1
f 62/2/1 60/2/1 61/2/1
f 63/1/1 48/1/1 62/1/1
f 64/2/1 62/2/1 61/2/1
f 64/2/1 63/2/1 62/2/1
f 65/2/1 63/2/1 64/2/1
f 66/2/1 63/2/1 65/2/1
f 67/2/1 63/2/1 66/2/1
f 68/1/2 69/1/2 72/1/2
f 72/1/2 69/1/2 73/1/2
f 70/2/2 71/2/2 74/2/2
f 74/2/2 71/2/2 75/2/2
f 73/1/2 69/1/2 76/1/2
f 72/2/2 73/2/2 76/2/2
f 76/1/2 69/1/2 77/1/2
f 72/2/2 76/2/2 79/2/2
f 76/2/2 77/2/2 79/2/2
f 77/1/2 69/1/2 80/1/2
f 79/2/2 77/2/2 80/2/2
f 80/1/2 69/1/2 81/1/2
f 78/2/2 79/2/2 82/2/2
f 79/2/2 80/2/2 82/2/2
f 80/2/2 81/2/2 82/2/2
f 81/1/2 69/1/2 83/1/2
f 82/2/2 81/2/2 83/2/2
f 83/1/2 69/1/2 84/1/2
f 82/2/2 83/2/2 85/2/2
f 83/2/2 84/2/2 85/2/2
f 85/2/2 84/2/2 86/2/2
f 86/2/2 84/2/2 87/2/2
f 87/2/2 84/2/2 88/2/2
f 89/2/2 90/2/2 91/2/2
f 89/2/2 91/2/2 92/2/2
f 92/2/2 91/2/2 93/2/2
f 94/2/2 95/2/2 98/2/2
f 98/2/2 95/2/2 99/2/2
f 96/2/2 97/2/2 100/2/2
f 100/2/2 97/2/2 101/2/2
f 99/2/2 100/2/2 102/2/2
f 102/2/2 100/2/2 103/2/2
f 104/1/2 105/1/2 108/1/2
f 108/1/2 105/1/2 109/1/2
f 106/1/2 107/1/2 112/1/2
f 112/1/2 107/1/2 113/1/2
f 110/2/2 111/2/2 114/2/2
f 114/2/2 111/2/2 115/2/2
f 112/2/2 113/2/2 116/2/2
f 116/2/2 113/2/2 117/2/2
f 115/2/2 116/2/2 118/2/2
f 118/2/2 116/2/2 119/2/2
f 120/1/2 121/1/2 123/1/2
f 123/1/2 121/1/2 124/1/2
f 122/2/2 123/2/2 125/2/2
f 123/2/2 124/2/2 125/2/2
f 125/2/2 124/2/2 126/2/2
f 124/1/2 121/1/2 127/1/2
f 126/2/2 124/2/2 127/2/2
f 127/1/2 121/1/2 128/1/2
f 128/1/2 121/1/2 129/1/2
f 127/2/2 128/2/2 129/2/2
f 126/2/2 127/2/2 129/2/2
f 129/1/2 121/1/2 130/1/2
f 129/2/2 130/2/2 131/2/2
f 130/1/2 121/1/2 131/1/2
f 131/1/2 121/1/2 132/1/2
f 126/2/2 129/2/2 133/2/2
f 129/2/2 131/2/2 133/2/2
f 131/2/2 132/2/2 133/2/2
f 133/2/2 132/2/2 134/2/2
f 137/2/3 136/2/3 135/2/3
f 138/2/3 136/2/3 137/2/3
f 142/2/3 140/2/3 139/2/3
f 143/2/3 140/2/3 142/2/3
f 145/2/3 142/2/3 141/2/3
f 145/2/3 144/2/3 143/2/3
f 145/2/3 143/2/3 142/2/3
f 146/2/3 144/2/3 145/2/3
f 147/2/3 144/2/3 146/2/3
f 148/2/3 144/2/3 147/2/3
f 151/2/3 147/2/3 146/2/3
f 152/2/3 147/2/3 151/2/3
f 153/2/3 150/2/3 149/2/3
f 154/2/3 150/2/3 153/2/3
f 159/2/3 156/2/3 155/2/3
f 160/2/3 156/2/3 159/2/3
f 161/2/3 156/2/3 160/2/3
f 162/2/3 156/2/3 161/2/3
f 164/1/3 158/1/3 157/1/3
f 164/1/3 159/1/3 158/1/3
f 164/1/3 160/1/3 159/1/3
f 165/1/3 160/1/3 164/1/3
f 166/2/3 163/2/3 162/2/3
f 167/2/3 163/2/3 166/2/3
f 169/1/3 164/1/3 157/1/3
f 172/2/3 168/2/3 167/2/3
f 173/2/3 168/2/3 172/2/3
f 174/1/3 170/1/3 169/1/3
f 174/1/3 169/1/3 157/1/3
f 175/1/3 170/1/3 174/1/3
f 176/1/3 170/1/3 175/1/3
f 177/1/3 170/1/3 176/1/3
f 179/2/3 172/2/3 171/2/3
f 180/2/3 172/2/3 179/2/3
f 181/2/3 178/2/3 177/2/3
f 181/2/3 179/2/3 178/2/3
f 181/2/3 177/2/3 176/2/3
f 182/2/3 179/2/3 181/2/3
f 185/1/3 184/1/3 183/1/3
f 186/1/3 184/1/3 185/1/3
f 189/1/3 188/1/3 187/1/3
f 190/1/3 188/1/3 189/1/3
f 194/1/3 192/1/3 191/1/3
f 195/2/3 193/2/3 192/2/3
f 195/1/3 192/1/3 194/1/3
f 196/2/3 193/2/3 195/2/3
f 197/2/4 198/2/4 200/2/4
f 200/2/4 198/2/4 201/2/4
f 199/2/4 200/2/4 202/2/4
f 200/2/4 201/2/4 202/2/4
f 202/2/4 201/2/4 203/2/4
f 203/2/4 201/2/4 204/2/4
f 203/2/4 204/2/4 205/2/4
f 205/2/4 204/2/4 206/2/4
f 210/2/4 211/2/4 212/2/4
f 212/2/4 211/2/4 213/2/4
f 212/1/4 213/1/4 214/1/4
f 214/1/4 213/1/4 215/1/4
f 207/1/4 208/1/4 216/1/4
f 208/1/4 209/1/4 216/1/4
f 216/1/4 209/1/4 217/1/4
f 217/1/4 209/1/4 218/1/4
f 214/2/4 215/2/4 219/2/4
f 219/2/4 215/2/4 220/2/4
f 221/1/4 222/1/4 224/1/4
f 222/2/4 223/2/4 225/2/4
f 224/1/4 222/1/4 225/1/4
f 225/2/4 223/2/4 226/2/4
f 226/2/4 227/2/4 228/2/4
f 228/2/4 227/2/4 229/2/4
f 229/2/4 230/2/4 232/2/4
f 232/2/4 230/2/4 233/2/4
f 231/2/4 232/2/4 236/2/4
f 236/2/4 232/2/4 237/2/4
f 234/1/4 235/1/4 238/1/4
f 235/2/4 236/2/4 239/2/4
f 238/1/4 235/1/4 239/1/4
f 239/2/4 236/2/4 240/2/4
f 242/2/4 243/2/4 244/2/4
f 242/2/4 244/2/4 246/2/4
f 244/2/4 245/2/4 246/2/4
f 246/2/4 245/2/4 247/2/4
f 241/1/4 242/1/4 248/1/4
f 242/2/4 246/2/4 249/2/4
f 248/1/4 242/1/4 249/1/4
f 249/2/4 246/2/4 250/2/4
f 254/1/5 252/1/5 251/1/5
f 255/1/5 252/1/5 254/1/5
f 257/1/5 254/1/5 253/1/5
f 258/1/5 254/1/5 257/1/5
f 259/1/5 256/1/5 255/1/5
f 260/1/5 256/1/5 259/1/5
f 261/1/5 259/1/5 258/1/5
f 262/1/5 259/1/5 261/1/5
f 267/2/5 264/2/5 263/2/5
f 268/2/5 266/2/5 265/2/5
f 269/2/5 267/2/5 263/2/5
f 270/2/5 267/2/5 269/2/5
f 271/2/5 266/2/5 268/2/5
f 272/2/5 266/2/5 271/2/5
f 275/2/5 274/2/5 273/2/5
f 276/2/5 274/2/5 275/2/5
f 281/2/5 278/2/5 277/2/5
f 282/2/5 278/2/5 281/2/5
f 283/2/5 280/2/5 279/2/5
f 284/2/5 280/2/5 283/2/5
f 289/2/5 286/2/5 285/2/5
f 290/1/5 287/1/5 286/1/5
f 290/2/5 286/2/5 289/2/5
f 291/2/5 288/2/5 287/2/5
f 291/1/5 287/1/5 290/1/5
f 292/2/5 288/2/5 291/2/5
f 297/2/5 294/2/5 293/2/5
f 297/2/5 296/2/5 295/2/5
f 297/2/5 295/2/5 294/2/5
f 298/2/5 296/2/5 297/2/5
f 299/2/6 300/2/6 303/2/6
f 303/2/6 300/2/6 304/2/6
f 301/2/6 302/2/6 305/2/6
f 305/2/6 302/2/6 306/2/6
f 307/1/6 308/1/6 311/1/6
f 309/1/6 310/1/6 311/1/6
f 308/1/6 309/1/6 311/1/6
f 311/1/6 310/1/6 312/1/6
f 313/2/6 314/2/6 318/2/6
f 318/2/6 314/2/6 319/2/6
f 315/2/6 316/2/6 320/2/6
f 320/2/6 316/2/6 321/2/6
f 317/2/6 318/2/6 323/2/6
f 323/2/6 318/2/6 324/2/6
f 321/2/6 322/2/6 327/2/6
f 327/2/6 322/2/6 328/2/6
f 324/2/6 325/2/6 329/2/6
f 329/2/6 325/2/6 330/2/6
f 326/2/6 327/2/6 331/2/6
f 331/2/6 327/2/6 332/2/6
f 333/2/6 334/2/6 336/2/6
f 336/2/6 334/2/6 337/2/6
f 335/2/6 336/2/6 339/2/6
f 339/2/6 336/2/6 340/2/6
f 337/2/6 338/2/6 341/2/6
f 341/2/6 338/2/6 342/2/6
f 340/2/6 341/2/6 343/2/6
f 343/2/6 341/2/6 344/2/6
f 345/2/6 346/2/6 347/2/6
f 347/2/6 346/2/6 348/2/6
