# MagicaVoxel @ Ephtracy

# group
o arm_med_2_up_sh_ja_color

# material
mtllib characters_export_red-50-arm_med_2_up_sh_ja_color.mtl
usemtl palette

# normals
vn -1 0 0
vn 1 0 0
vn 0 0 1
vn 0 0 -1
vn 0 -1 0
vn 0 1 0

# texcoords
vt 0.494141 0.5
vt 0.701172 0.5
vt 0.740234 0.5

# verts
v -0.7 1.8 0.1
v -0.7 1.8 -0.1
v -0.7 2.1 0.2
v -0.7 2.1 0.1
v -0.7 2.1 -0.1
v -0.7 2.1 -0.2
v -0.7 2.2 0.2
v -0.7 2.2 -0.2
v -0.7 2.3 0.2
v -0.7 2.3 -0.2
v -0.7 2.4 0.2
v -0.7 2.4 -0.2
v -0.6 1.8 0.2
v -0.6 1.8 0.1
v -0.6 1.8 -0.1
v -0.6 1.8 -0.2
v -0.6 2.1 0.2
v -0.6 2.1 0.1
v -0.6 2.1 -0.1
v -0.6 2.1 -0.2
v -0.6 2.4 0.1
v -0.6 2.4 -0.1
v -0.6 2.5 0.1
v -0.6 2.5 -0.1
v -0.5 1.8 0.2
v -0.5 1.8 0.1
v -0.5 1.8 -0.1
v -0.5 1.8 -0.2
v -0.5 2.1 0.2
v -0.5 2.1 0.1
v -0.5 2.1 -0.1
v -0.5 2.1 -0.2
v -0.4 1.8 0.1
v -0.4 1.8 -0.1
v -0.4 2.1 0.2
v -0.4 2.1 0.1
v -0.4 2.1 -0.1
v -0.4 2.1 -0.2
v -0.4 2.4 0.2
v -0.4 2.4 0.1
v -0.4 2.4 -0.1
v -0.4 2.4 -0.2
v -0.4 2.5 0.1
v -0.4 2.5 -0.1
v -0.7 2.1 0.2
v -0.7 2.2 0.2
v -0.7 2.3 0.2
v -0.7 2.4 0.2
v -0.6 1.8 0.2
v -0.6 2.1 0.2
v -0.6 2.2 0.2
v -0.6 2.3 0.2
v -0.5 1.8 0.2
v -0.5 2.1 0.2
v -0.5 2.4 0.2
v -0.4 2.1 0.2
v -0.4 2.4 0.2
v -0.7 1.8 0.1
v -0.7 2.1 0.1
v -0.6 1.8 0.1
v -0.6 2.1 0.1
v -0.6 2.4 0.1
v -0.6 2.5 0.1
v -0.5 1.8 0.1
v -0.5 2.1 0.1
v -0.5 2.4 0.1
v -0.4 1.8 0.1
v -0.4 2.1 0.1
v -0.4 2.4 0.1
v -0.4 2.5 0.1
v -0.7 1.8 -0.1
v -0.7 2.1 -0.1
v -0.6 1.8 -0.1
v -0.6 2.1 -0.1
v -0.6 2.4 -0.1
v -0.6 2.5 -0.1
v -0.5 1.8 -0.1
v -0.5 2.1 -0.1
v -0.5 2.4 -0.1
v -0.4 1.8 -0.1
v -0.4 2.1 -0.1
v -0.4 2.4 -0.1
v -0.4 2.5 -0.1
v -0.7 2.1 -0.2
v -0.7 2.2 -0.2
v -0.7 2.3 -0.2
v -0.7 2.4 -0.2
v -0.6 1.8 -0.2
v -0.6 2.1 -0.2
v -0.6 2.2 -0.2
v -0.6 2.3 -0.2
v -0.5 1.8 -0.2
v -0.5 2.1 -0.2
v -0.5 2.4 -0.2
v -0.4 2.1 -0.2
v -0.4 2.4 -0.2
v -0.6 1.8 0.2
v -0.5 1.8 0.2
v -0.7 1.8 0.1
v -0.6 1.8 0.1
v -0.5 1.8 0.1
v -0.4 1.8 0.1
v -0.7 1.8 -0.1
v -0.6 1.8 -0.1
v -0.5 1.8 -0.1
v -0.4 1.8 -0.1
v -0.6 1.8 -0.2
v -0.5 1.8 -0.2
v -0.7 2.1 0.2
v -0.6 2.1 0.2
v -0.5 2.1 0.2
v -0.4 2.1 0.2
v -0.7 2.1 0.1
v -0.6 2.1 0.1
v -0.5 2.1 0.1
v -0.4 2.1 0.1
v -0.7 2.1 -0.1
v -0.6 2.1 -0.1
v -0.5 2.1 -0.1
v -0.4 2.1 -0.1
v -0.7 2.1 -0.2
v -0.6 2.1 -0.2
v -0.5 2.1 -0.2
v -0.4 2.1 -0.2
v -0.7 2.4 0.2
v -0.5 2.4 0.2
v -0.4 2.4 0.2
v -0.6 2.4 0.1
v -0.5 2.4 0.1
v -0.4 2.4 0.1
v -0.6 2.4 -0.1
v -0.5 2.4 -0.1
v -0.4 2.4 -0.1
v -0.7 2.4 -0.2
v -0.5 2.4 -0.2
v -0.4 2.4 -0.2
v -0.6 2.5 0.1
v -0.4 2.5 0.1
v -0.6 2.5 -0.1
v -0.4 2.5 -0.1

# faces
f 4/1/1 2/1/1 1/1/1
f 5/1/1 2/1/1 4/1/1
f 7/2/1 4/2/1 3/2/1
f 7/2/1 6/2/1 5/2/1
f 7/2/1 5/2/1 4/2/1
f 8/2/1 6/2/1 7/2/1
f 9/3/1 8/3/1 7/3/1
f 10/3/1 8/3/1 9/3/1
f 11/2/1 10/2/1 9/2/1
f 12/2/1 10/2/1 11/2/1
f 17/1/1 14/1/1 13/1/1
f 18/1/1 14/1/1 17/1/1
f 19/1/1 16/1/1 15/1/1
f 20/1/1 16/1/1 19/1/1
f 23/1/1 22/1/1 21/1/1
f 24/1/1 22/1/1 23/1/1
f 25/1/2 26/1/2 29/1/2
f 29/1/2 26/1/2 30/1/2
f 27/1/2 28/1/2 31/1/2
f 31/1/2 28/1/2 32/1/2
f 33/1/2 34/1/2 36/1/2
f 36/1/2 34/1/2 37/1/2
f 35/1/2 36/1/2 39/1/2
f 37/1/2 38/1/2 39/1/2
f 36/1/2 37/1/2 39/1/2
f 39/1/2 38/1/2 40/1/2
f 40/1/2 38/1/2 41/1/2
f 41/1/2 38/1/2 42/1/2
f 40/1/2 41/1/2 43/1/2
f 43/1/2 41/1/2 44/1/2
f 50/2/3 46/2/3 45/2/3
f 51/3/3 47/3/3 46/3/3
f 51/2/3 46/2/3 50/2/3
f 52/2/3 48/2/3 47/2/3
f 52/3/3 47/3/3 51/3/3
f 53/1/3 50/1/3 49/1/3
f 54/2/3 51/2/3 50/2/3
f 54/1/3 50/1/3 53/1/3
f 54/2/3 52/2/3 51/2/3
f 55/2/3 48/2/3 52/2/3
f 55/2/3 52/2/3 54/2/3
f 56/1/3 55/1/3 54/1/3
f 57/1/3 55/1/3 56/1/3
f 60/1/3 59/1/3 58/1/3
f 61/1/3 59/1/3 60/1/3
f 66/1/3 63/1/3 62/1/3
f 67/1/3 65/1/3 64/1/3
f 68/1/3 65/1/3 67/1/3
f 69/1/3 63/1/3 66/1/3
f 70/1/3 63/1/3 69/1/3
f 71/1/4 72/1/4 73/1/4
f 73/1/4 72/1/4 74/1/4
f 75/1/4 76/1/4 79/1/4
f 77/1/4 78/1/4 80/1/4
f 80/1/4 78/1/4 81/1/4
f 79/1/4 76/1/4 82/1/4
f 82/1/4 76/1/4 83/1/4
f 84/2/4 85/2/4 89/2/4
f 85/3/4 86/3/4 90/3/4
f 89/2/4 85/2/4 90/2/4
f 86/2/4 87/2/4 91/2/4
f 90/3/4 86/3/4 91/3/4
f 88/1/4 89/1/4 92/1/4
f 89/2/4 90/2/4 93/2/4
f 92/1/4 89/1/4 93/1/4
f 90/2/4 91/2/4 93/2/4
f 91/2/4 87/2/4 94/2/4
f 93/2/4 91/2/4 94/2/4
f 93/1/4 94/1/4 95/1/4
f 95/1/4 94/1/4 96/1/4
f 100/1/5 98/1/5 97/1/5
f 101/1/5 98/1/5 100/1/5
f 103/1/5 100/1/5 99/1/5
f 103/1/5 102/1/5 101/1/5
f 103/1/5 101/1/5 100/1/5
f 104/1/5 102/1/5 103/1/5
f 105/1/5 102/1/5 104/1/5
f 106/1/5 102/1/5 105/1/5
f 107/1/5 105/1/5 104/1/5
f 108/1/5 105/1/5 107/1/5
f 113/2/5 110/2/5 109/2/5
f 114/2/5 110/2/5 113/2/5
f 115/1/5 112/1/5 111/1/5
f 116/1/5 112/1/5 115/1/5
f 121/2/5 118/2/5 117/2/5
f 122/2/5 118/2/5 121/2/5
f 123/1/5 120/1/5 119/1/5
f 124/1/5 120/1/5 123/1/5
f 125/2/6 126/2/6 128/2/6
f 126/1/6 127/1/6 129/1/6
f 128/2/6 126/2/6 129/2/6
f 129/1/6 127/1/6 130/1/6
f 125/2/6 128/2/6 131/2/6
f 125/2/6 131/2/6 134/2/6
f 131/2/6 132/2/6 134/2/6
f 132/1/6 133/1/6 135/1/6
f 134/2/6 132/2/6 135/2/6
f 135/1/6 133/1/6 136/1/6
f 137/1/6 138/1/6 139/1/6
f 139/1/6 138/1/6 140/1/6
