# MagicaVoxel @ Ephtracy

# group
o helm_lgt_3b_du_color

# material
mtllib characters_export_red-256-helm_lgt_3b_du_color.mtl
usemtl palette

# normals
vn -1 0 0
vn 1 0 0
vn 0 0 1
vn 0 0 -1
vn 0 -1 0
vn 0 1 0

# texcoords
vt 0.482422 0.5
vt 0.494141 0.5
vt 0.916016 0.5

# verts
v -0.3 3.1 0.2
v -0.3 3.1 -0.2
v -0.3 3.2 0.2
v -0.3 3.2 -0.2
v -0.2 3.1 0.3
v -0.2 3.1 0.2
v -0.2 3.1 -0.2
v -0.2 3.1 -0.3
v -0.2 3.2 0.3
v -0.2 3.2 0.2
v -0.2 3.2 -0.2
v -0.2 3.2 -0.3
v -0.2 3.3 -0.1
v -0.2 3.3 -0.2
v -0.2 3.4 0.2
v -0.2 3.4 -0.1
v -0.1 3.2 0.3
v -0.1 3.2 0.2
v -0.1 3.4 0.2
v -0.1 3.4 -0.1
v -0.1 3.5 0.3
v -0.1 3.5 0.2
v -0.1 3.5 -0.1
v 0.2 3.1 0.2
v 0.2 3.1 -0.2
v 0.2 3.2 0.2
v 0.2 3.2 -0.2
v -0.2 3.1 0.2
v -0.2 3.1 -0.2
v -0.2 3.2 0.2
v -0.2 3.2 -0.2
v 0.1 3.2 0.3
v 0.1 3.2 0.2
v 0.1 3.4 0.2
v 0.1 3.4 -0.1
v 0.1 3.5 0.3
v 0.1 3.5 0.2
v 0.1 3.5 -0.1
v 0.2 3.1 0.3
v 0.2 3.1 0.2
v 0.2 3.1 -0.2
v 0.2 3.1 -0.3
v 0.2 3.2 0.3
v 0.2 3.2 0.2
v 0.2 3.2 -0.2
v 0.2 3.2 -0.3
v 0.2 3.3 -0.1
v 0.2 3.3 -0.2
v 0.2 3.4 0.2
v 0.2 3.4 -0.1
v 0.3 3.1 0.2
v 0.3 3.1 -0.2
v 0.3 3.2 0.2
v 0.3 3.2 -0.2
v -0.2 3.1 0.3
v -0.2 3.2 0.3
v -0.1 3.2 0.3
v -0.1 3.5 0.3
v 0.1 3.2 0.3
v 0.1 3.5 0.3
v 0.2 3.1 0.3
v 0.2 3.2 0.3
v -0.3 3.1 0.2
v -0.3 3.2 0.2
v -0.2 3.1 0.2
v -0.2 3.2 0.2
v -0.2 3.4 0.2
v -0.1 3.2 0.2
v -0.1 3.4 0.2
v 0.1 3.2 0.2
v 0.1 3.4 0.2
v 0.2 3.1 0.2
v 0.2 3.2 0.2
v 0.2 3.4 0.2
v 0.3 3.1 0.2
v 0.3 3.2 0.2
v -0.2 3.1 -0.2
v -0.2 3.2 -0.2
v 0.2 3.1 -0.2
v 0.2 3.2 -0.2
v -0.2 3.1 0.2
v -0.2 3.2 0.2
v 0.2 3.1 0.2
v 0.2 3.2 0.2
v -0.2 3.3 -0.1
v -0.2 3.4 -0.1
v -0.1 3.4 -0.1
v -0.1 3.5 -0.1
v 0.1 3.4 -0.1
v 0.1 3.5 -0.1
v 0.2 3.3 -0.1
v 0.2 3.4 -0.1
v -0.3 3.1 -0.2
v -0.3 3.2 -0.2
v -0.2 3.1 -0.2
v -0.2 3.2 -0.2
v -0.2 3.3 -0.2
v 0.2 3.1 -0.2
v 0.2 3.2 -0.2
v 0.2 3.3 -0.2
v 0.3 3.1 -0.2
v 0.3 3.2 -0.2
v -0.2 3.1 -0.3
v -0.2 3.2 -0.3
v 0.2 3.1 -0.3
v 0.2 3.2 -0.3
v -0.2 3.1 0.3
v 0.2 3.1 0.3
v -0.3 3.1 0.2
v -0.2 3.1 0.2
v 0.2 3.1 0.2
v 0.3 3.1 0.2
v -0.3 3.1 -0.2
v -0.2 3.1 -0.2
v 0.2 3.1 -0.2
v 0.3 3.1 -0.2
v -0.2 3.1 -0.3
v 0.2 3.1 -0.3
v -0.2 3.2 0.2
v 0.2 3.2 0.2
v -0.2 3.2 -0.2
v 0.2 3.2 -0.2
v -0.2 3.2 0.3
v -0.1 3.2 0.3
v 0.1 3.2 0.3
v 0.2 3.2 0.3
v -0.3 3.2 0.2
v -0.2 3.2 0.2
v -0.1 3.2 0.2
v 0.1 3.2 0.2
v 0.2 3.2 0.2
v 0.3 3.2 0.2
v -0.3 3.2 -0.2
v -0.2 3.2 -0.2
v 0.2 3.2 -0.2
v 0.3 3.2 -0.2
v -0.2 3.2 -0.3
v 0.2 3.2 -0.3
v -0.2 3.3 -0.1
v 0.2 3.3 -0.1
v -0.2 3.3 -0.2
v 0.2 3.3 -0.2
v -0.2 3.4 0.2
v -0.1 3.4 0.2
v 0.1 3.4 0.2
v 0.2 3.4 0.2
v -0.2 3.4 -0.1
v -0.1 3.4 -0.1
v 0.1 3.4 -0.1
v 0.2 3.4 -0.1
v -0.1 3.5 0.3
v 0.1 3.5 0.3
v -0.1 3.5 0.2
v 0.1 3.5 0.2
v -0.1 3.5 -0.1
v 0.1 3.5 -0.1

# faces
f 3/1/1 2/1/1 1/1/1
f 4/1/1 2/1/1 3/1/1
f 9/1/1 6/1/1 5/1/1
f 10/1/1 6/1/1 9/1/1
f 11/1/1 8/1/1 7/1/1
f 12/1/1 8/1/1 11/1/1
f 13/2/1 11/2/1 10/2/1
f 14/2/1 11/2/1 13/2/1
f 15/2/1 13/2/1 10/2/1
f 16/2/1 13/2/1 15/2/1
f 19/3/1 18/3/1 17/3/1
f 21/3/1 19/3/1 17/3/1
f 22/2/1 20/2/1 19/2/1
f 22/3/1 19/3/1 21/3/1
f 23/2/1 20/2/1 22/2/1
f 26/1/1 25/1/1 24/1/1
f 27/1/1 25/1/1 26/1/1
f 28/1/2 29/1/2 30/1/2
f 30/1/2 29/1/2 31/1/2
f 32/3/2 33/3/2 34/3/2
f 32/3/2 34/3/2 36/3/2
f 34/2/2 35/2/2 37/2/2
f 36/3/2 34/3/2 37/3/2
f 37/2/2 35/2/2 38/2/2
f 39/1/2 40/1/2 43/1/2
f 43/1/2 40/1/2 44/1/2
f 41/1/2 42/1/2 45/1/2
f 45/1/2 42/1/2 46/1/2
f 44/2/2 45/2/2 47/2/2
f 47/2/2 45/2/2 48/2/2
f 44/2/2 47/2/2 49/2/2
f 49/2/2 47/2/2 50/2/2
f 51/1/2 52/1/2 53/1/2
f 53/1/2 52/1/2 54/1/2
f 57/1/3 56/1/3 55/1/3
f 59/1/3 57/1/3 55/1/3
f 59/3/3 58/3/3 57/3/3
f 60/3/3 58/3/3 59/3/3
f 61/1/3 59/1/3 55/1/3
f 62/1/3 59/1/3 61/1/3
f 65/1/3 64/1/3 63/1/3
f 66/1/3 64/1/3 65/1/3
f 68/2/3 67/2/3 66/2/3
f 69/2/3 67/2/3 68/2/3
f 73/2/3 71/2/3 70/2/3
f 74/2/3 71/2/3 73/2/3
f 75/1/3 73/1/3 72/1/3
f 76/1/3 73/1/3 75/1/3
f 79/1/3 78/1/3 77/1/3
f 80/1/3 78/1/3 79/1/3
f 81/1/4 82/1/4 83/1/4
f 83/1/4 82/1/4 84/1/4
f 85/2/4 86/2/4 87/2/4
f 85/2/4 87/2/4 89/2/4
f 87/2/4 88/2/4 89/2/4
f 89/2/4 88/2/4 90/2/4
f 85/2/4 89/2/4 91/2/4
f 91/2/4 89/2/4 92/2/4
f 93/1/4 94/1/4 95/1/4
f 95/1/4 94/1/4 96/1/4
f 96/2/4 97/2/4 99/2/4
f 99/2/4 97/2/4 100/2/4
f 98/1/4 99/1/4 101/1/4
f 101/1/4 99/1/4 102/1/4
f 103/1/4 104/1/4 105/1/4
f 105/1/4 104/1/4 106/1/4
f 110/1/5 108/1/5 107/1/5
f 111/1/5 108/1/5 110/1/5
f 113/1/5 110/1/5 109/1/5
f 114/1/5 110/1/5 113/1/5
f 115/1/5 112/1/5 111/1/5
f 116/1/5 112/1/5 115/1/5
f 117/1/5 115/1/5 114/1/5
f 118/1/5 115/1/5 117/1/5
f 121/2/5 120/2/5 119/2/5
f 122/2/5 120/2/5 121/2/5
f 123/1/6 124/1/6 128/1/6
f 128/1/6 124/1/6 129/1/6
f 125/1/6 126/1/6 130/1/6
f 130/1/6 126/1/6 131/1/6
f 127/1/6 128/1/6 133/1/6
f 133/1/6 128/1/6 134/1/6
f 131/1/6 132/1/6 135/1/6
f 135/1/6 132/1/6 136/1/6
f 134/1/6 135/1/6 137/1/6
f 137/1/6 135/1/6 138/1/6
f 139/2/6 140/2/6 141/2/6
f 141/2/6 140/2/6 142/2/6
f 143/2/6 144/2/6 147/2/6
f 147/2/6 144/2/6 148/2/6
f 145/2/6 146/2/6 149/2/6
f 149/2/6 146/2/6 150/2/6
f 151/3/6 152/3/6 153/3/6
f 153/3/6 152/3/6 154/3/6
f 153/2/6 154/2/6 155/2/6
f 155/2/6 154/2/6 156/2/6
