# MagicaVoxel @ Ephtracy

# group
o legs_lgt_3b_color

# material
mtllib characters_export_red-135-legs_lgt_3b_color.mtl
usemtl palette

# normals
vn -1 0 0
vn 1 0 0
vn 0 0 1
vn 0 0 -1
vn 0 -1 0
vn 0 1 0

# texcoords
vt 0.470703 0.5
vt 0.482422 0.5
vt 0.494141 0.5
vt 0.697266 0.5
vt 0.916016 0.5

# verts
v -0.4 0 0.4
v -0.4 0 -0.1
v -0.4 0.1 0.4
v -0.4 0.1 0.1
v -0.4 0.1 -0.1
v -0.4 0.7 0.2
v -0.4 0.7 0.1
v -0.4 0.7 -0.1
v -0.4 1 0.2
v -0.4 1 -0.1
v -0.4 1.1 0.2
v -0.4 1.1 -0.1
v -0.4 1.2 0.2
v -0.4 1.2 -0.1
v -0.4 1.4 0.2
v -0.4 1.4 -0.1
v -0.3 0 -0.1
v -0.3 0 -0.2
v -0.3 0.1 0.2
v -0.3 0.1 0.1
v -0.3 0.1 -0.1
v -0.3 0.1 -0.2
v -0.3 0.7 0.3
v -0.3 0.7 0.2
v -0.3 0.7 0.1
v -0.3 0.7 -0.1
v -0.3 0.7 -0.2
v -0.3 1 0.3
v -0.3 1 0.2
v -0.3 1 -0.1
v -0.3 1 -0.2
v -0.3 1.1 0.3
v -0.3 1.1 0.2
v -0.3 1.1 -0.1
v -0.3 1.1 -0.2
v -0.3 1.2 0.3
v -0.3 1.2 0.2
v -0.3 1.2 -0.1
v -0.3 1.2 -0.2
v -0.3 1.4 0.3
v -0.3 1.4 0.2
v -0.3 1.4 -0.1
v -0.3 1.4 -0.2
v -0.2 1 0.4
v -0.2 1 0.3
v -0.2 1 -0.2
v -0.2 1 -0.3
v -0.2 1.1 0.4
v -0.2 1.1 0.3
v -0.2 1.1 -0.2
v -0.2 1.1 -0.3
v -0.2 1.2 0.4
v -0.2 1.2 0.3
v -0.2 1.2 -0.2
v -0.2 1.2 -0.3
v -0.2 1.4 0.4
v -0.2 1.4 0.3
v -0.2 1.4 -0.2
v -0.2 1.4 -0.3
v -0.2 0 -0.1
v -0.2 0 -0.2
v -0.2 0.1 0.2
v -0.2 0.1 0.1
v -0.2 0.1 -0.1
v -0.2 0.1 -0.2
v -0.2 0.7 0.2
v -0.2 0.7 0.1
v -0.2 0.7 -0.1
v -0.2 0.7 -0.2
v -0.1 0 0.4
v -0.1 0 -0.1
v -0.1 0.1 0.4
v -0.1 0.1 0.1
v -0.1 0.1 -0.1
v -0.1 0.7 0.3
v -0.1 0.7 0.1
v -0.1 0.7 -0.1
v -0.1 0.7 -0.2
v -0.1 1 0.3
v -0.1 1 -0.2
v -0.1 1.1 0.3
v -0.1 1.1 0.2
v -0.1 1.1 -0.1
v -0.1 1.1 -0.2
v -0.1 1.2 0.3
v -0.1 1.2 -0.2
v -0.1 1.3 0.3
v -0.1 1.3 0.2
v -0.1 1.3 -0.1
v -0.1 1.3 -0.2
v 0 1 0.4
v 0 1 0.3
v 0 1 -0.2
v 0 1 -0.3
v 0 1.1 0.4
v 0 1.1 0.3
v 0 1.1 0.2
v 0 1.1 -0.1
v 0 1.1 -0.2
v 0 1.1 -0.3
v 0 1.2 0.4
v 0 1.2 0.3
v 0 1.2 -0.2
v 0 1.2 -0.3
v 0 1.3 0.3
v 0 1.3 0.2
v 0 1.3 -0.1
v 0 1.3 -0.2
v 0 1.4 0.4
v 0 1.4 -0.3
v -0.4 0 0.4
v -0.4 0.1 0.4
v -0.2 1 0.4
v -0.2 1.1 0.4
v -0.2 1.2 0.4
v -0.2 1.4 0.4
v -0.1 0 0.4
v -0.1 0.1 0.4
v 0 1 0.4
v 0 1.1 0.4
v 0 1.2 0.4
v 0 1.4 0.4
v -0.3 0.7 0.3
v -0.3 1 0.3
v -0.3 1.1 0.3
v -0.3 1.2 0.3
v -0.3 1.4 0.3
v -0.2 1 0.3
v -0.2 1.1 0.3
v -0.2 1.2 0.3
v -0.2 1.4 0.3
v -0.1 0.7 0.3
v -0.1 1 0.3
v -0.4 0.7 0.2
v -0.4 1 0.2
v -0.4 1.1 0.2
v -0.4 1.2 0.2
v -0.4 1.4 0.2
v -0.3 0.1 0.2
v -0.3 0.7 0.2
v -0.3 1 0.2
v -0.3 1.1 0.2
v -0.3 1.2 0.2
v -0.3 1.4 0.2
v -0.2 0.1 0.2
v -0.2 0.7 0.2
v -0.1 1.1 0.2
v -0.1 1.3 0.2
v 0 1.1 0.2
v 0 1.3 0.2
v -0.4 0.1 0.1
v -0.4 0.7 0.1
v -0.3 0.1 0.1
v -0.3 0.7 0.1
v -0.2 0.1 0.1
v -0.2 0.7 0.1
v -0.1 0.1 0.1
v -0.1 0.7 0.1
v -0.1 1 -0.2
v -0.1 1.1 -0.2
v -0.1 1.2 -0.2
v -0.1 1.3 -0.2
v 0 1 -0.2
v 0 1.1 -0.2
v 0 1.2 -0.2
v 0 1.3 -0.2
v -0.1 1 0.3
v -0.1 1.1 0.3
v -0.1 1.2 0.3
v -0.1 1.3 0.3
v 0 1 0.3
v 0 1.1 0.3
v 0 1.2 0.3
v 0 1.3 0.3
v -0.4 0 -0.1
v -0.4 0.1 -0.1
v -0.4 0.7 -0.1
v -0.4 1 -0.1
v -0.4 1.1 -0.1
v -0.4 1.2 -0.1
v -0.4 1.4 -0.1
v -0.3 0 -0.1
v -0.3 0.1 -0.1
v -0.3 0.7 -0.1
v -0.3 1 -0.1
v -0.3 1.1 -0.1
v -0.3 1.2 -0.1
v -0.3 1.4 -0.1
v -0.2 0 -0.1
v -0.2 0.1 -0.1
v -0.2 0.7 -0.1
v -0.1 0 -0.1
v -0.1 0.1 -0.1
v -0.1 0.7 -0.1
v -0.1 1.1 -0.1
v -0.1 1.3 -0.1
v 0 1.1 -0.1
v 0 1.3 -0.1
v -0.3 0 -0.2
v -0.3 0.1 -0.2
v -0.3 0.7 -0.2
v -0.3 1 -0.2
v -0.3 1.1 -0.2
v -0.3 1.2 -0.2
v -0.3 1.4 -0.2
v -0.2 0 -0.2
v -0.2 0.1 -0.2
v -0.2 0.7 -0.2
v -0.2 1 -0.2
v -0.2 1.1 -0.2
v -0.2 1.2 -0.2
v -0.2 1.4 -0.2
v -0.1 0.7 -0.2
v -0.1 1 -0.2
v -0.2 1 -0.3
v -0.2 1.1 -0.3
v -0.2 1.2 -0.3
v -0.2 1.4 -0.3
v 0 1 -0.3
v 0 1.1 -0.3
v 0 1.2 -0.3
v 0 1.4 -0.3
v -0.4 0 0.4
v -0.1 0 0.4
v -0.4 0 -0.1
v -0.3 0 -0.1
v -0.2 0 -0.1
v -0.1 0 -0.1
v -0.3 0 -0.2
v -0.2 0 -0.2
v -0.3 0.7 0.3
v -0.1 0.7 0.3
v -0.4 0.7 0.2
v -0.3 0.7 0.2
v -0.2 0.7 0.2
v -0.4 0.7 0.1
v -0.3 0.7 0.1
v -0.2 0.7 0.1
v -0.1 0.7 0.1
v -0.2 0.7 -0.1
v -0.1 0.7 -0.1
v -0.2 0.7 -0.2
v -0.1 0.7 -0.2
v -0.2 1 0.4
v 0 1 0.4
v -0.2 1 0.3
v -0.1 1 0.3
v 0 1 0.3
v -0.2 1 -0.2
v -0.1 1 -0.2
v 0 1 -0.2
v -0.2 1 -0.3
v 0 1 -0.3
v -0.1 1.1 0.2
v 0 1.1 0.2
v -0.1 1.1 -0.1
v 0 1.1 -0.1
v -0.1 1.3 0.3
v 0 1.3 0.3
v -0.1 1.3 0.2
v 0 1.3 0.2
v -0.1 1.3 -0.1
v 0 1.3 -0.1
v -0.1 1.3 -0.2
v 0 1.3 -0.2
v -0.4 0.1 0.4
v -0.1 0.1 0.4
v -0.3 0.1 0.2
v -0.2 0.1 0.2
v -0.4 0.1 0.1
v -0.3 0.1 0.1
v -0.2 0.1 0.1
v -0.1 0.1 0.1
v -0.2 1.4 0.4
v 0 1.4 0.4
v -0.3 1.4 0.3
v -0.2 1.4 0.3
v -0.4 1.4 0.2
v -0.3 1.4 0.2
v -0.4 1.4 -0.1
v -0.3 1.4 -0.1
v -0.3 1.4 -0.2
v -0.2 1.4 -0.2
v -0.2 1.4 -0.3
v 0 1.4 -0.3

# faces
f 3/4/1 2/4/1 1/4/1
f 4/4/1 2/4/1 3/4/1
f 5/4/1 2/4/1 4/4/1
f 7/2/1 5/2/1 4/2/1
f 8/2/1 5/2/1 7/2/1
f 9/1/1 7/1/1 6/1/1
f 9/1/1 8/1/1 7/1/1
f 10/1/1 8/1/1 9/1/1
f 11/5/1 10/5/1 9/5/1
f 12/5/1 10/5/1 11/5/1
f 13/2/1 12/2/1 11/2/1
f 14/2/1 12/2/1 13/2/1
f 15/3/1 14/3/1 13/3/1
f 16/3/1 14/3/1 15/3/1
f 21/4/1 18/4/1 17/4/1
f 22/4/1 18/4/1 21/4/1
f 24/2/1 20/2/1 19/2/1
f 25/2/1 20/2/1 24/2/1
f 26/2/1 22/2/1 21/2/1
f 27/2/1 22/2/1 26/2/1
f 28/1/1 24/1/1 23/1/1
f 29/1/1 24/1/1 28/1/1
f 30/1/1 27/1/1 26/1/1
f 31/1/1 27/1/1 30/1/1
f 32/5/1 29/5/1 28/5/1
f 33/5/1 29/5/1 32/5/1
f 34/5/1 31/5/1 30/5/1
f 35/5/1 31/5/1 34/5/1
f 36/2/1 33/2/1 32/2/1
f 37/2/1 33/2/1 36/2/1
f 38/2/1 35/2/1 34/2/1
f 39/2/1 35/2/1 38/2/1
f 40/3/1 37/3/1 36/3/1
f 41/3/1 37/3/1 40/3/1
f 42/3/1 39/3/1 38/3/1
f 43/3/1 39/3/1 42/3/1
f 48/5/1 45/5/1 44/5/1
f 49/5/1 45/5/1 48/5/1
f 50/5/1 47/5/1 46/5/1
f 51/5/1 47/5/1 50/5/1
f 52/2/1 49/2/1 48/2/1
f 53/2/1 49/2/1 52/2/1
f 54/2/1 51/2/1 50/2/1
f 55/2/1 51/2/1 54/2/1
f 56/3/1 53/3/1 52/3/1
f 57/3/1 53/3/1 56/3/1
f 58/3/1 55/3/1 54/3/1
f 59/3/1 55/3/1 58/3/1
f 60/4/2 61/4/2 64/4/2
f 64/4/2 61/4/2 65/4/2
f 62/2/2 63/2/2 66/2/2
f 66/2/2 63/2/2 67/2/2
f 64/2/2 65/2/2 68/2/2
f 68/2/2 65/2/2 69/2/2
f 70/4/2 71/4/2 72/4/2
f 72/4/2 71/4/2 73/4/2
f 73/4/2 71/4/2 74/4/2
f 73/2/2 74/2/2 76/2/2
f 76/2/2 74/2/2 77/2/2
f 76/1/2 77/1/2 79/1/2
f 77/1/2 78/1/2 79/1/2
f 75/1/2 76/1/2 79/1/2
f 79/1/2 78/1/2 80/1/2
f 79/1/2 80/1/2 81/1/2
f 81/1/2 80/1/2 82/1/2
f 82/1/2 80/1/2 83/1/2
f 83/1/2 80/1/2 84/1/2
f 81/1/2 82/1/2 85/1/2
f 83/1/2 84/1/2 86/1/2
f 85/1/2 82/1/2 87/1/2
f 87/1/2 82/1/2 88/1/2
f 83/1/2 86/1/2 89/1/2
f 89/1/2 86/1/2 90/1/2
f 91/5/2 92/5/2 95/5/2
f 95/5/2 92/5/2 96/5/2
f 93/5/2 94/5/2 99/5/2
f 99/5/2 94/5/2 100/5/2
f 95/2/2 96/2/2 101/2/2
f 101/2/2 96/2/2 102/2/2
f 99/2/2 100/2/2 103/2/2
f 103/2/2 100/2/2 104/2/2
f 101/3/2 102/3/2 105/3/2
f 97/1/2 98/1/2 106/1/2
f 106/1/2 98/1/2 107/1/2
f 103/3/2 104/3/2 108/3/2
f 101/3/2 105/3/2 109/3/2
f 107/3/2 108/3/2 109/3/2
f 106/3/2 107/3/2 109/3/2
f 105/3/2 106/3/2 109/3/2
f 108/3/2 104/3/2 110/3/2
f 109/3/2 108/3/2 110/3/2
f 117/4/3 112/4/3 111/4/3
f 118/4/3 112/4/3 117/4/3
f 119/5/3 114/5/3 113/5/3
f 120/2/3 115/2/3 114/2/3
f 120/5/3 114/5/3 119/5/3
f 121/3/3 116/3/3 115/3/3
f 121/2/3 115/2/3 120/2/3
f 122/3/3 116/3/3 121/3/3
f 128/1/3 124/1/3 123/1/3
f 128/5/3 125/5/3 124/5/3
f 129/2/3 126/2/3 125/2/3
f 129/5/3 125/5/3 128/5/3
f 130/3/3 127/3/3 126/3/3
f 130/2/3 126/2/3 129/2/3
f 131/3/3 127/3/3 130/3/3
f 132/1/3 128/1/3 123/1/3
f 133/1/3 128/1/3 132/1/3
f 140/1/3 135/1/3 134/1/3
f 141/5/3 136/5/3 135/5/3
f 141/1/3 135/1/3 140/1/3
f 142/2/3 137/2/3 136/2/3
f 142/5/3 136/5/3 141/5/3
f 143/3/3 138/3/3 137/3/3
f 143/2/3 137/2/3 142/2/3
f 144/3/3 138/3/3 143/3/3
f 145/2/3 140/2/3 139/2/3
f 146/2/3 140/2/3 145/2/3
f 149/1/3 148/1/3 147/1/3
f 150/1/3 148/1/3 149/1/3
f 153/2/3 152/2/3 151/2/3
f 154/2/3 152/2/3 153/2/3
f 157/2/3 156/2/3 155/2/3
f 158/2/3 156/2/3 157/2/3
f 163/5/3 160/5/3 159/5/3
f 164/2/3 161/2/3 160/2/3
f 164/5/3 160/5/3 163/5/3
f 165/3/3 162/3/3 161/3/3
f 165/2/3 161/2/3 164/2/3
f 166/3/3 162/3/3 165/3/3
f 167/5/4 168/5/4 171/5/4
f 168/2/4 169/2/4 172/2/4
f 171/5/4 168/5/4 172/5/4
f 169/3/4 170/3/4 173/3/4
f 172/2/4 169/2/4 173/2/4
f 173/3/4 170/3/4 174/3/4
f 175/4/4 176/4/4 182/4/4
f 176/2/4 177/2/4 183/2/4
f 182/4/4 176/4/4 183/4/4
f 177/1/4 178/1/4 184/1/4
f 183/2/4 177/2/4 184/2/4
f 178/5/4 179/5/4 185/5/4
f 184/1/4 178/1/4 185/1/4
f 179/2/4 180/2/4 186/2/4
f 185/5/4 179/5/4 186/5/4
f 180/3/4 181/3/4 187/3/4
f 186/2/4 180/2/4 187/2/4
f 187/3/4 181/3/4 188/3/4
f 189/4/4 190/4/4 192/4/4
f 190/2/4 191/2/4 193/2/4
f 192/4/4 190/4/4 193/4/4
f 193/2/4 191/2/4 194/2/4
f 195/1/4 196/1/4 197/1/4
f 197/1/4 196/1/4 198/1/4
f 199/4/4 200/4/4 206/4/4
f 200/2/4 201/2/4 207/2/4
f 206/4/4 200/4/4 207/4/4
f 201/1/4 202/1/4 208/1/4
f 207/2/4 201/2/4 208/2/4
f 202/5/4 203/5/4 209/5/4
f 208/1/4 202/1/4 209/1/4
f 203/2/4 204/2/4 210/2/4
f 209/5/4 203/5/4 210/5/4
f 204/3/4 205/3/4 211/3/4
f 210/2/4 204/2/4 211/2/4
f 211/3/4 205/3/4 212/3/4
f 208/1/4 209/1/4 213/1/4
f 213/1/4 209/1/4 214/1/4
f 215/5/4 216/5/4 219/5/4
f 216/2/4 217/2/4 220/2/4
f 219/5/4 216/5/4 220/5/4
f 217/3/4 218/3/4 221/3/4
f 220/2/4 217/2/4 221/2/4
f 221/3/4 218/3/4 222/3/4
f 225/4/5 224/4/5 223/4/5
f 226/4/5 224/4/5 225/4/5
f 227/4/5 224/4/5 226/4/5
f 228/4/5 224/4/5 227/4/5
f 229/4/5 227/4/5 226/4/5
f 230/4/5 227/4/5 229/4/5
f 234/1/5 232/1/5 231/1/5
f 235/1/5 232/1/5 234/1/5
f 236/1/5 234/1/5 233/1/5
f 237/1/5 234/1/5 236/1/5
f 238/1/5 232/1/5 235/1/5
f 239/1/5 232/1/5 238/1/5
f 242/1/5 241/1/5 240/1/5
f 243/1/5 241/1/5 242/1/5
f 246/5/5 245/5/5 244/5/5
f 247/5/5 245/5/5 246/5/5
f 248/5/5 245/5/5 247/5/5
f 252/5/5 250/5/5 249/5/5
f 252/5/5 251/5/5 250/5/5
f 253/5/5 251/5/5 252/5/5
f 256/1/5 255/1/5 254/1/5
f 257/1/5 255/1/5 256/1/5
f 260/3/5 259/3/5 258/3/5
f 261/3/5 259/3/5 260/3/5
f 264/3/5 263/3/5 262/3/5
f 265/3/5 263/3/5 264/3/5
f 266/4/6 267/4/6 268/4/6
f 268/4/6 267/4/6 269/4/6
f 266/4/6 268/4/6 270/4/6
f 270/4/6 268/4/6 271/4/6
f 269/4/6 267/4/6 272/4/6
f 272/4/6 267/4/6 273/4/6
f 274/3/6 275/3/6 277/3/6
f 276/3/6 277/3/6 279/3/6
f 278/3/6 279/3/6 280/3/6
f 279/3/6 277/3/6 281/3/6
f 280/3/6 279/3/6 281/3/6
f 281/3/6 277/3/6 282/3/6
f 277/3/6 275/3/6 283/3/6
f 282/3/6 277/3/6 283/3/6
f 283/3/6 275/3/6 284/3/6
f 284/3/6 275/3/6 285/3/6
