# MagicaVoxel @ Ephtracy

# group
o shield_hvy_2_ja_color

# material
mtllib characters_export_red-25-shield_hvy_2_ja_color.mtl
usemtl palette

# normals
vn 1 0 0
vn -1 0 0
vn 0 0 1
vn 0 0 -1
vn 0 1 0
vn 0 -1 0

# texcoords
vt 0.462891 0.5
vt 0.498047 0.5
vt 0.701172 0.5
vt 0.962891 0.5

# verts
v 1.3 2.1 0.7
v 1.3 2.1 0.6
v 1.3 1.3 0.7
v 1.3 1.3 0.6
v 1.2 2.3 0.7
v 1.2 2.3 0.6
v 1.2 2.1 0.7
v 1.2 2.1 0.6
v 1.2 1.3 0.7
v 1.2 1.3 0.6
v 1.2 1.1 0.7
v 1.2 1.1 0.6
v 1.1 2.4 0.7
v 1.1 2.4 0.6
v 1.1 2.3 0.7
v 1.1 2.3 0.6
v 1.1 1.1 0.7
v 1.1 1.1 0.6
v 1.1 0.9 0.7
v 1.1 0.9 0.6
v 1 0.9 0.7
v 1 0.9 0.6
v 1 0.7 0.7
v 1 0.7 0.6
v 0.9 2.5 0.7
v 0.9 2.5 0.6
v 0.9 2.4 0.7
v 0.9 2.4 0.6
v 0.9 0.7 0.7
v 0.9 0.7 0.6
v 0.9 0.5 0.7
v 0.9 0.5 0.6
v 0.8 0.5 0.7
v 0.8 0.5 0.6
v 0.8 0.3 0.7
v 0.8 0.3 0.6
v 0.7 1.8 0.8
v 0.7 1.8 0.7
v 0.7 1.7 0.7
v 0.7 1.6 0.8
v 0.7 1.6 0.7
v 0.7 0.3 0.7
v 0.7 0.3 0.6
v 0.7 0.2 0.7
v 0.7 0.2 0.6
v 0.5 1.8 0.7
v 0.5 1.8 0.6
v 0.5 1.7 0.7
v 0.5 1.7 0.6
v 0.5 1.6 0.7
v 0.5 1.6 0.6
v 0.7 1.8 0.7
v 0.7 1.8 0.6
v 0.7 1.7 0.7
v 0.7 1.7 0.6
v 0.7 1.6 0.7
v 0.7 1.6 0.6
v 0.5 1.8 0.8
v 0.5 1.8 0.7
v 0.5 1.7 0.7
v 0.5 1.6 0.8
v 0.5 1.6 0.7
v 0.5 0.3 0.7
v 0.5 0.3 0.6
v 0.5 0.2 0.7
v 0.5 0.2 0.6
v 0.4 0.5 0.7
v 0.4 0.5 0.6
v 0.4 0.3 0.7
v 0.4 0.3 0.6
v 0.3 2.5 0.7
v 0.3 2.5 0.6
v 0.3 2.4 0.7
v 0.3 2.4 0.6
v 0.3 0.7 0.7
v 0.3 0.7 0.6
v 0.3 0.5 0.7
v 0.3 0.5 0.6
v 0.2 0.9 0.7
v 0.2 0.9 0.6
v 0.2 0.7 0.7
v 0.2 0.7 0.6
v 0.1 2.4 0.7
v 0.1 2.4 0.6
v 0.1 2.3 0.7
v 0.1 2.3 0.6
v 0.1 1.1 0.7
v 0.1 1.1 0.6
v 0.1 0.9 0.7
v 0.1 0.9 0.6
v 1.19209e-07 2.3 0.7
v 1.19209e-07 2.3 0.6
v 1.19209e-07 2.1 0.7
v 1.19209e-07 2.1 0.6
v 1.19209e-07 1.3 0.7
v 1.19209e-07 1.3 0.6
v 1.19209e-07 1.1 0.7
v 1.19209e-07 1.1 0.6
v -0.0999999 2.1 0.7
v -0.0999999 2.1 0.6
v -0.0999999 1.3 0.7
v -0.0999999 1.3 0.6
v 0.7 1.8 0.8
v 0.7 1.6 0.8
v 0.5 1.8 0.8
v 0.5 1.6 0.8
v 1.3 2.1 0.7
v 1.3 1.3 0.7
v 1.2 2.3 0.7
v 1.2 2.1 0.7
v 1.2 2 0.7
v 1.2 1.7 0.7
v 1.2 1.4 0.7
v 1.2 1.3 0.7
v 1.2 1.1 0.7
v 1.1 2.4 0.7
v 1.1 2.3 0.7
v 1.1 2.2 0.7
v 1.1 2 0.7
v 1.1 1.4 0.7
v 1.1 1.2 0.7
v 1.1 1.1 0.7
v 1.1 0.9 0.7
v 1 2.3 0.7
v 1 2.2 0.7
v 1 1.2 0.7
v 1 1 0.7
v 1 0.9 0.7
v 1 0.7 0.7
v 0.9 2.5 0.7
v 0.9 2.4 0.7
v 0.9 1 0.7
v 0.9 0.8 0.7
v 0.9 0.7 0.7
v 0.9 0.5 0.7
v 0.8 2.4 0.7
v 0.8 2.3 0.7
v 0.8 0.8 0.7
v 0.8 0.6 0.7
v 0.8 0.5 0.7
v 0.8 0.3 0.7
v 0.7 1.8 0.7
v 0.7 1.7 0.7
v 0.7 1.6 0.7
v 0.7 0.6 0.7
v 0.7 0.4 0.7
v 0.7 0.3 0.7
v 0.7 0.2 0.7
v 0.6 2.4 0.7
v 0.6 1.8 0.7
v 0.6 1.6 0.7
v 0.6 0.4 0.7
v 0.5 1.8 0.7
v 0.5 1.7 0.7
v 0.5 1.6 0.7
v 0.5 0.6 0.7
v 0.5 0.4 0.7
v 0.5 0.3 0.7
v 0.5 0.2 0.7
v 0.4 2.4 0.7
v 0.4 2.3 0.7
v 0.4 0.8 0.7
v 0.4 0.6 0.7
v 0.4 0.5 0.7
v 0.4 0.3 0.7
v 0.3 2.5 0.7
v 0.3 2.4 0.7
v 0.3 1 0.7
v 0.3 0.8 0.7
v 0.3 0.7 0.7
v 0.3 0.5 0.7
v 0.2 2.3 0.7
v 0.2 2.2 0.7
v 0.2 1.2 0.7
v 0.2 1 0.7
v 0.2 0.9 0.7
v 0.2 0.7 0.7
v 0.1 2.4 0.7
v 0.1 2.3 0.7
v 0.1 2.2 0.7
v 0.1 2 0.7
v 0.1 1.4 0.7
v 0.1 1.2 0.7
v 0.1 1.1 0.7
v 0.1 0.9 0.7
v 1.19209e-07 2.3 0.7
v 1.19209e-07 2.1 0.7
v 1.19209e-07 2 0.7
v 1.19209e-07 1.7 0.7
v 1.19209e-07 1.4 0.7
v 1.19209e-07 1.3 0.7
v 1.19209e-07 1.1 0.7
v -0.0999999 2.1 0.7
v -0.0999999 1.3 0.7
v 0.7 1.8 0.7
v 0.7 1.7 0.7
v 0.7 1.6 0.7
v 0.6 1.8 0.7
v 0.6 1.6 0.7
v 0.5 1.8 0.7
v 0.5 1.7 0.7
v 0.5 1.6 0.7
v 1.3 2.1 0.6
v 1.3 1.3 0.6
v 1.2 2.3 0.6
v 1.2 2.1 0.6
v 1.2 2 0.6
v 1.2 1.7 0.6
v 1.2 1.4 0.6
v 1.2 1.3 0.6
v 1.2 1.1 0.6
v 1.1 2.4 0.6
v 1.1 2.3 0.6
v 1.1 2.2 0.6
v 1.1 2 0.6
v 1.1 1.4 0.6
v 1.1 1.2 0.6
v 1.1 1.1 0.6
v 1.1 0.9 0.6
v 1 2.3 0.6
v 1 2.2 0.6
v 1 1.2 0.6
v 1 1 0.6
v 1 0.9 0.6
v 1 0.7 0.6
v 0.9 2.5 0.6
v 0.9 2.4 0.6
v 0.9 1 0.6
v 0.9 0.8 0.6
v 0.9 0.7 0.6
v 0.9 0.5 0.6
v 0.8 2.4 0.6
v 0.8 2.3 0.6
v 0.8 0.8 0.6
v 0.8 0.6 0.6
v 0.8 0.5 0.6
v 0.8 0.3 0.6
v 0.7 1.8 0.6
v 0.7 1.7 0.6
v 0.7 1.6 0.6
v 0.7 0.6 0.6
v 0.7 0.4 0.6
v 0.7 0.3 0.6
v 0.7 0.2 0.6
v 0.6 2.4 0.6
v 0.6 1.8 0.6
v 0.6 1.6 0.6
v 0.6 0.4 0.6
v 0.5 1.8 0.6
v 0.5 1.7 0.6
v 0.5 1.6 0.6
v 0.5 0.6 0.6
v 0.5 0.4 0.6
v 0.5 0.3 0.6
v 0.5 0.2 0.6
v 0.4 2.4 0.6
v 0.4 2.3 0.6
v 0.4 0.8 0.6
v 0.4 0.6 0.6
v 0.4 0.5 0.6
v 0.4 0.3 0.6
v 0.3 2.5 0.6
v 0.3 2.4 0.6
v 0.3 1 0.6
v 0.3 0.8 0.6
v 0.3 0.7 0.6
v 0.3 0.5 0.6
v 0.2 2.3 0.6
v 0.2 2.2 0.6
v 0.2 1.2 0.6
v 0.2 1 0.6
v 0.2 0.9 0.6
v 0.2 0.7 0.6
v 0.1 2.4 0.6
v 0.1 2.3 0.6
v 0.1 2.2 0.6
v 0.1 2 0.6
v 0.1 1.4 0.6
v 0.1 1.2 0.6
v 0.1 1.1 0.6
v 0.1 0.9 0.6
v 1.19209e-07 2.3 0.6
v 1.19209e-07 2.1 0.6
v 1.19209e-07 2 0.6
v 1.19209e-07 1.7 0.6
v 1.19209e-07 1.4 0.6
v 1.19209e-07 1.3 0.6
v 1.19209e-07 1.1 0.6
v -0.0999999 2.1 0.6
v -0.0999999 1.3 0.6
v 0.9 2.5 0.7
v 0.3 2.5 0.7
v 0.9 2.5 0.6
v 0.3 2.5 0.6
v 1.1 2.4 0.7
v 0.9 2.4 0.7
v 0.3 2.4 0.7
v 0.1 2.4 0.7
v 1.1 2.4 0.6
v 0.9 2.4 0.6
v 0.3 2.4 0.6
v 0.1 2.4 0.6
v 1.2 2.3 0.7
v 1.1 2.3 0.7
v 0.1 2.3 0.7
v 1.19209e-07 2.3 0.7
v 1.2 2.3 0.6
v 1.1 2.3 0.6
v 0.1 2.3 0.6
v 1.19209e-07 2.3 0.6
v 1.3 2.1 0.7
v 1.2 2.1 0.7
v 1.19209e-07 2.1 0.7
v -0.0999999 2.1 0.7
v 1.3 2.1 0.6
v 1.2 2.1 0.6
v 1.19209e-07 2.1 0.6
v -0.0999999 2.1 0.6
v 0.7 1.8 0.8
v 0.5 1.8 0.8
v 0.7 1.8 0.7
v 0.6 1.8 0.7
v 0.5 1.8 0.7
v 0.7 1.6 0.7
v 0.6 1.6 0.7
v 0.5 1.6 0.7
v 0.7 1.6 0.6
v 0.6 1.6 0.6
v 0.5 1.6 0.6
v 0.7 1.8 0.7
v 0.6 1.8 0.7
v 0.5 1.8 0.7
v 0.7 1.8 0.6
v 0.6 1.8 0.6
v 0.5 1.8 0.6
v 0.7 1.6 0.8
v 0.5 1.6 0.8
v 0.7 1.6 0.7
v 0.6 1.6 0.7
v 0.5 1.6 0.7
v 1.3 1.3 0.7
v 1.2 1.3 0.7
v 1.19209e-07 1.3 0.7
v -0.0999999 1.3 0.7
v 1.3 1.3 0.6
v 1.2 1.3 0.6
v 1.19209e-07 1.3 0.6
v -0.0999999 1.3 0.6
v 1.2 1.1 0.7
v 1.1 1.1 0.7
v 0.1 1.1 0.7
v 1.19209e-07 1.1 0.7
v 1.2 1.1 0.6
v 1.1 1.1 0.6
v 0.1 1.1 0.6
v 1.19209e-07 1.1 0.6
v 1.1 0.9 0.7
v 1 0.9 0.7
v 0.2 0.9 0.7
v 0.1 0.9 0.7
v 1.1 0.9 0.6
v 1 0.9 0.6
v 0.2 0.9 0.6
v 0.1 0.9 0.6
v 1 0.7 0.7
v 0.9 0.7 0.7
v 0.3 0.7 0.7
v 0.2 0.7 0.7
v 1 0.7 0.6
v 0.9 0.7 0.6
v 0.3 0.7 0.6
v 0.2 0.7 0.6
v 0.9 0.5 0.7
v 0.8 0.5 0.7
v 0.4 0.5 0.7
v 0.3 0.5 0.7
v 0.9 0.5 0.6
v 0.8 0.5 0.6
v 0.4 0.5 0.6
v 0.3 0.5 0.6
v 0.8 0.3 0.7
v 0.7 0.3 0.7
v 0.5 0.3 0.7
v 0.4 0.3 0.7
v 0.8 0.3 0.6
v 0.7 0.3 0.6
v 0.5 0.3 0.6
v 0.4 0.3 0.6
v 0.7 0.2 0.7
v 0.5 0.2 0.7
v 0.7 0.2 0.6
v 0.5 0.2 0.6

# faces
f 3/3/1 2/3/1 1/3/1
f 4/3/1 2/3/1 3/3/1
f 7/3/1 6/3/1 5/3/1
f 8/3/1 6/3/1 7/3/1
f 11/3/1 10/3/1 9/3/1
f 12/3/1 10/3/1 11/3/1
f 15/3/1 14/3/1 13/3/1
f 16/3/1 14/3/1 15/3/1
f 19/3/1 18/3/1 17/3/1
f 20/3/1 18/3/1 19/3/1
f 23/3/1 22/3/1 21/3/1
f 24/3/1 22/3/1 23/3/1
f 27/3/1 26/3/1 25/3/1
f 28/3/1 26/3/1 27/3/1
f 31/3/1 30/3/1 29/3/1
f 32/3/1 30/3/1 31/3/1
f 35/3/1 34/3/1 33/3/1
f 36/3/1 34/3/1 35/3/1
f 39/4/1 38/4/1 37/4/1
f 40/4/1 39/4/1 37/4/1
f 41/4/1 39/4/1 40/4/1
f 44/3/1 43/3/1 42/3/1
f 45/3/1 43/3/1 44/3/1
f 48/1/1 47/1/1 46/1/1
f 49/1/1 47/1/1 48/1/1
f 50/2/1 49/2/1 48/2/1
f 51/2/1 49/2/1 50/2/1
f 52/2/2 53/2/2 54/2/2
f 54/2/2 53/2/2 55/2/2
f 54/1/2 55/1/2 56/1/2
f 56/1/2 55/1/2 57/1/2
f 58/4/2 59/4/2 60/4/2
f 58/4/2 60/4/2 61/4/2
f 61/4/2 60/4/2 62/4/2
f 63/3/2 64/3/2 65/3/2
f 65/3/2 64/3/2 66/3/2
f 67/3/2 68/3/2 69/3/2
f 69/3/2 68/3/2 70/3/2
f 71/3/2 72/3/2 73/3/2
f 73/3/2 72/3/2 74/3/2
f 75/3/2 76/3/2 77/3/2
f 77/3/2 76/3/2 78/3/2
f 79/3/2 80/3/2 81/3/2
f 81/3/2 80/3/2 82/3/2
f 83/3/2 84/3/2 85/3/2
f 85/3/2 84/3/2 86/3/2
f 87/3/2 88/3/2 89/3/2
f 89/3/2 88/3/2 90/3/2
f 91/3/2 92/3/2 93/3/2
f 93/3/2 92/3/2 94/3/2
f 95/3/2 96/3/2 97/3/2
f 97/3/2 96/3/2 98/3/2
f 99/3/2 100/3/2 101/3/2
f 101/3/2 100/3/2 102/3/2
f 105/4/3 104/4/3 103/4/3
f 106/4/3 104/4/3 105/4/3
f 110/3/3 108/3/3 107/3/3
f 111/3/3 108/3/3 110/3/3
f 112/3/3 108/3/3 111/3/3
f 113/3/3 108/3/3 112/3/3
f 114/3/3 108/3/3 113/3/3
f 117/3/3 110/3/3 109/3/3
f 117/3/3 111/3/3 110/3/3
f 118/3/3 111/3/3 117/3/3
f 119/2/3 112/2/3 111/2/3
f 119/3/3 111/3/3 118/3/3
f 120/3/3 115/3/3 114/3/3
f 120/3/3 114/3/3 113/3/3
f 120/1/3 113/1/3 112/1/3
f 121/3/3 115/3/3 120/3/3
f 122/3/3 115/3/3 121/3/3
f 124/3/3 118/3/3 117/3/3
f 124/3/3 117/3/3 116/3/3
f 125/2/3 119/2/3 118/2/3
f 125/3/3 118/3/3 124/3/3
f 126/3/3 123/3/3 122/3/3
f 126/3/3 122/3/3 121/3/3
f 126/1/3 121/1/3 120/1/3
f 127/3/3 123/3/3 126/3/3
f 128/3/3 123/3/3 127/3/3
f 131/3/3 124/3/3 116/3/3
f 132/3/3 129/3/3 128/3/3
f 132/1/3 127/1/3 126/1/3
f 132/3/3 128/3/3 127/3/3
f 133/3/3 129/3/3 132/3/3
f 134/3/3 129/3/3 133/3/3
f 136/3/3 131/3/3 130/3/3
f 136/3/3 124/3/3 131/3/3
f 137/2/3 125/2/3 124/2/3
f 137/3/3 124/3/3 136/3/3
f 138/3/3 135/3/3 134/3/3
f 138/3/3 134/3/3 133/3/3
f 138/1/3 133/1/3 132/1/3
f 139/3/3 135/3/3 138/3/3
f 140/3/3 135/3/3 139/3/3
f 142/2/3 112/2/3 119/2/3
f 142/2/3 125/2/3 137/2/3
f 142/2/3 119/2/3 125/2/3
f 142/2/3 137/2/3 136/2/3
f 143/1/3 139/1/3 138/1/3
f 143/2/3 112/2/3 142/2/3
f 143/1/3 120/1/3 112/1/3
f 143/1/3 132/1/3 126/1/3
f 143/1/3 126/1/3 120/1/3
f 143/1/3 138/1/3 132/1/3
f 144/1/3 139/1/3 143/1/3
f 145/3/3 141/3/3 140/3/3
f 145/1/3 139/1/3 144/1/3
f 145/3/3 140/3/3 139/3/3
f 146/3/3 141/3/3 145/3/3
f 147/3/3 141/3/3 146/3/3
f 149/2/3 142/2/3 136/2/3
f 149/3/3 136/3/3 130/3/3
f 150/2/3 142/2/3 149/2/3
f 151/1/3 146/1/3 145/1/3
f 151/1/3 145/1/3 144/1/3
f 152/3/3 148/3/3 147/3/3
f 152/1/3 146/1/3 151/1/3
f 152/3/3 147/3/3 146/3/3
f 153/1/3 150/1/3 149/1/3
f 155/2/3 152/2/3 151/2/3
f 156/2/3 152/2/3 155/2/3
f 157/3/3 148/3/3 152/3/3
f 157/2/3 152/2/3 156/2/3
f 158/3/3 148/3/3 157/3/3
f 159/3/3 148/3/3 158/3/3
f 160/3/3 149/3/3 130/3/3
f 160/1/3 154/1/3 153/1/3
f 160/1/3 153/1/3 149/1/3
f 161/1/3 154/1/3 160/1/3
f 162/2/3 156/2/3 155/2/3
f 162/2/3 155/2/3 154/2/3
f 163/3/3 158/3/3 157/3/3
f 163/2/3 156/2/3 162/2/3
f 163/3/3 157/3/3 156/3/3
f 164/3/3 158/3/3 163/3/3
f 165/3/3 158/3/3 164/3/3
f 166/3/3 160/3/3 130/3/3
f 166/3/3 161/3/3 160/3/3
f 167/3/3 161/3/3 166/3/3
f 168/2/3 162/2/3 154/2/3
f 169/3/3 164/3/3 163/3/3
f 169/2/3 162/2/3 168/2/3
f 169/3/3 163/3/3 162/3/3
f 170/3/3 164/3/3 169/3/3
f 171/3/3 164/3/3 170/3/3
f 172/1/3 154/1/3 161/1/3
f 172/3/3 161/3/3 167/3/3
f 173/1/3 154/1/3 172/1/3
f 174/2/3 168/2/3 154/2/3
f 175/3/3 170/3/3 169/3/3
f 175/2/3 168/2/3 174/2/3
f 175/3/3 169/3/3 168/3/3
f 176/3/3 170/3/3 175/3/3
f 177/3/3 170/3/3 176/3/3
f 178/3/3 173/3/3 172/3/3
f 178/3/3 172/3/3 167/3/3
f 179/3/3 173/3/3 178/3/3
f 180/1/3 154/1/3 173/1/3
f 180/3/3 173/3/3 179/3/3
f 181/1/3 154/1/3 180/1/3
f 182/2/3 174/2/3 154/2/3
f 183/3/3 176/3/3 175/3/3
f 183/2/3 174/2/3 182/2/3
f 183/3/3 175/3/3 174/3/3
f 184/3/3 176/3/3 183/3/3
f 185/3/3 176/3/3 184/3/3
f 186/3/3 181/3/3 180/3/3
f 186/3/3 180/3/3 179/3/3
f 187/3/3 181/3/3 186/3/3
f 188/1/3 154/1/3 181/1/3
f 188/3/3 181/3/3 187/3/3
f 189/2/3 182/2/3 154/2/3
f 189/1/3 154/1/3 188/1/3
f 190/3/3 184/3/3 183/3/3
f 190/2/3 182/2/3 189/2/3
f 190/3/3 183/3/3 182/3/3
f 191/3/3 184/3/3 190/3/3
f 192/3/3 184/3/3 191/3/3
f 193/3/3 188/3/3 187/3/3
f 193/3/3 191/3/3 190/3/3
f 193/3/3 190/3/3 189/3/3
f 193/3/3 189/3/3 188/3/3
f 194/3/3 191/3/3 193/3/3
f 195/4/4 196/4/4 198/4/4
f 196/4/4 197/4/4 198/4/4
f 198/4/4 197/4/4 199/4/4
f 198/4/4 199/4/4 200/4/4
f 200/4/4 199/4/4 201/4/4
f 201/4/4 199/4/4 202/4/4
f 203/3/4 204/3/4 206/3/4
f 206/3/4 204/3/4 207/3/4
f 207/3/4 204/3/4 208/3/4
f 208/3/4 204/3/4 209/3/4
f 209/3/4 204/3/4 210/3/4
f 205/3/4 206/3/4 213/3/4
f 206/3/4 207/3/4 213/3/4
f 213/3/4 207/3/4 214/3/4
f 207/2/4 208/2/4 215/2/4
f 214/3/4 207/3/4 215/3/4
f 210/3/4 211/3/4 216/3/4
f 209/3/4 210/3/4 216/3/4
f 208/1/4 209/1/4 216/1/4
f 216/3/4 211/3/4 217/3/4
f 217/3/4 211/3/4 218/3/4
f 213/3/4 214/3/4 220/3/4
f 212/3/4 213/3/4 220/3/4
f 214/2/4 215/2/4 221/2/4
f 220/3/4 214/3/4 221/3/4
f 218/3/4 219/3/4 222/3/4
f 217/3/4 218/3/4 222/3/4
f 216/1/4 217/1/4 222/1/4
f 222/3/4 219/3/4 223/3/4
f 223/3/4 219/3/4 224/3/4
f 212/3/4 220/3/4 227/3/4
f 224/3/4 225/3/4 228/3/4
f 222/1/4 223/1/4 228/1/4
f 223/3/4 224/3/4 228/3/4
f 228/3/4 225/3/4 229/3/4
f 229/3/4 225/3/4 230/3/4
f 226/3/4 227/3/4 232/3/4
f 227/3/4 220/3/4 232/3/4
f 220/2/4 221/2/4 233/2/4
f 232/3/4 220/3/4 233/3/4
f 230/3/4 231/3/4 234/3/4
f 229/3/4 230/3/4 234/3/4
f 228/1/4 229/1/4 234/1/4
f 234/3/4 231/3/4 235/3/4
f 235/3/4 231/3/4 236/3/4
f 215/2/4 208/2/4 238/2/4
f 233/2/4 221/2/4 238/2/4
f 221/2/4 215/2/4 238/2/4
f 232/2/4 233/2/4 238/2/4
f 234/1/4 235/1/4 239/1/4
f 238/2/4 208/2/4 239/2/4
f 208/1/4 216/1/4 239/1/4
f 222/1/4 228/1/4 239/1/4
f 216/1/4 222/1/4 239/1/4
f 228/1/4 234/1/4 239/1/4
f 239/1/4 235/1/4 240/1/4
f 236/3/4 237/3/4 241/3/4
f 240/1/4 235/1/4 241/1/4
f 235/3/4 236/3/4 241/3/4
f 241/3/4 237/3/4 242/3/4
f 242/3/4 237/3/4 243/3/4
f 232/2/4 238/2/4 245/2/4
f 226/3/4 232/3/4 245/3/4
f 245/2/4 238/2/4 246/2/4
f 241/1/4 242/1/4 247/1/4
f 240/1/4 241/1/4 247/1/4
f 243/3/4 244/3/4 248/3/4
f 247/1/4 242/1/4 248/1/4
f 242/3/4 243/3/4 248/3/4
f 245/1/4 246/1/4 249/1/4
f 247/2/4 248/2/4 251/2/4
f 251/2/4 248/2/4 252/2/4
f 248/3/4 244/3/4 253/3/4
f 252/2/4 248/2/4 253/2/4
f 253/3/4 244/3/4 254/3/4
f 254/3/4 244/3/4 255/3/4
f 226/3/4 245/3/4 256/3/4
f 249/1/4 250/1/4 256/1/4
f 245/1/4 249/1/4 256/1/4
f 256/1/4 250/1/4 257/1/4
f 251/2/4 252/2/4 258/2/4
f 250/2/4 251/2/4 258/2/4
f 253/3/4 254/3/4 259/3/4
f 258/2/4 252/2/4 259/2/4
f 252/3/4 253/3/4 259/3/4
f 259/3/4 254/3/4 260/3/4
f 260/3/4 254/3/4 261/3/4
f 226/3/4 256/3/4 262/3/4
f 256/3/4 257/3/4 262/3/4
f 262/3/4 257/3/4 263/3/4
f 250/2/4 258/2/4 264/2/4
f 259/3/4 260/3/4 265/3/4
f 264/2/4 258/2/4 265/2/4
f 258/3/4 259/3/4 265/3/4
f 265/3/4 260/3/4 266/3/4
f 266/3/4 260/3/4 267/3/4
f 257/1/4 250/1/4 268/1/4
f 263/3/4 257/3/4 268/3/4
f 268/1/4 250/1/4 269/1/4
f 250/2/4 264/2/4 270/2/4
f 265/3/4 266/3/4 271/3/4
f 270/2/4 264/2/4 271/2/4
f 264/3/4 265/3/4 271/3/4
f 271/3/4 266/3/4 272/3/4
f 272/3/4 266/3/4 273/3/4
f 268/3/4 269/3/4 274/3/4
f 263/3/4 268/3/4 274/3/4
f 274/3/4 269/3/4 275/3/4
f 269/1/4 250/1/4 276/1/4
f 275/3/4 269/3/4 276/3/4
f 276/1/4 250/1/4 277/1/4
f 250/2/4 270/2/4 278/2/4
f 271/3/4 272/3/4 279/3/4
f 278/2/4 270/2/4 279/2/4
f 270/3/4 271/3/4 279/3/4
f 279/3/4 272/3/4 280/3/4
f 280/3/4 272/3/4 281/3/4
f 276/3/4 277/3/4 282/3/4
f 275/3/4 276/3/4 282/3/4
f 282/3/4 277/3/4 283/3/4
f 277/1/4 250/1/4 284/1/4
f 283/3/4 277/3/4 284/3/4
f 250/2/4 278/2/4 285/2/4
f 284/1/4 250/1/4 285/1/4
f 279/3/4 280/3/4 286/3/4
f 285/2/4 278/2/4 286/2/4
f 278/3/4 279/3/4 286/3/4
f 286/3/4 280/3/4 287/3/4
f 287/3/4 280/3/4 288/3/4
f 283/3/4 284/3/4 289/3/4
f 286/3/4 287/3/4 289/3/4
f 285/3/4 286/3/4 289/3/4
f 284/3/4 285/3/4 289/3/4
f 289/3/4 287/3/4 290/3/4
f 293/3/5 292/3/5 291/3/5
f 294/3/5 292/3/5 293/3/5
f 299/3/5 296/3/5 295/3/5
f 300/3/5 296/3/5 299/3/5
f 301/3/5 298/3/5 297/3/5
f 302/3/5 298/3/5 301/3/5
f 307/3/5 304/3/5 303/3/5
f 308/3/5 304/3/5 307/3/5
f 309/3/5 306/3/5 305/3/5
f 310/3/5 306/3/5 309/3/5
f 315/3/5 312/3/5 311/3/5
f 316/3/5 312/3/5 315/3/5
f 317/3/5 314/3/5 313/3/5
f 318/3/5 314/3/5 317/3/5
f 321/4/5 320/4/5 319/4/5
f 322/4/5 320/4/5 321/4/5
f 323/4/5 320/4/5 322/4/5
f 327/1/5 325/1/5 324/1/5
f 328/2/5 326/2/5 325/2/5
f 328/1/5 325/1/5 327/1/5
f 329/2/5 326/2/5 328/2/5
f 330/2/6 331/2/6 333/2/6
f 331/1/6 332/1/6 334/1/6
f 333/2/6 331/2/6 334/2/6
f 334/1/6 332/1/6 335/1/6
f 336/4/6 337/4/6 338/4/6
f 338/4/6 337/4/6 339/4/6
f 339/4/6 337/4/6 340/4/6
f 341/3/6 342/3/6 345/3/6
f 345/3/6 342/3/6 346/3/6
f 343/3/6 344/3/6 347/3/6
f 347/3/6 344/3/6 348/3/6
f 349/3/6 350/3/6 353/3/6
f 353/3/6 350/3/6 354/3/6
f 351/3/6 352/3/6 355/3/6
f 355/3/6 352/3/6 356/3/6
f 357/3/6 358/3/6 361/3/6
f 361/3/6 358/3/6 362/3/6
f 359/3/6 360/3/6 363/3/6
f 363/3/6 360/3/6 364/3/6
f 365/3/6 366/3/6 369/3/6
f 369/3/6 366/3/6 370/3/6
f 367/3/6 368/3/6 371/3/6
f 371/3/6 368/3/6 372/3/6
f 373/3/6 374/3/6 377/3/6
f 377/3/6 374/3/6 378/3/6
f 375/3/6 376/3/6 379/3/6
f 379/3/6 376/3/6 380/3/6
f 381/3/6 382/3/6 385/3/6
f 385/3/6 382/3/6 386/3/6
f 383/3/6 384/3/6 387/3/6
f 387/3/6 384/3/6 388/3/6
f 389/3/6 390/3/6 391/3/6
f 391/3/6 390/3/6 392/3/6
