# MagicaVoxel @ Ephtracy

# group
o helm_hvy_2a_sh

# material
mtllib char-6-helm_hvy_2a_sh.mtl
usemtl palette

# normals
vn -1 0 0
vn 1 0 0
vn 0 0 1
vn 0 0 -1
vn 0 -1 0
vn 0 1 0

# texcoords
vt 0.958984 0.5
vt 0.962891 0.5
vt 0.966797 0.5

# verts
v -0.3 2.5 0.2
v -0.3 2.5 -0.2
v -0.3 2.8 0.3
v -0.3 2.8 0.2
v -0.3 3 0.3
v -0.3 3 -0.2
v -0.3 3.2 0.3
v -0.3 3.2 -0.2
v -0.2 2.5 0.3
v -0.2 2.5 0.2
v -0.2 2.5 -0.2
v -0.2 2.5 -0.3
v -0.2 2.8 0.3
v -0.2 2.8 0.2
v -0.2 3 0.4
v -0.2 3 0.3
v -0.2 3 -0.2
v -0.2 3 -0.3
v -0.2 3.2 0.4
v -0.2 3.2 0.3
v -0.2 3.2 -0.2
v -0.2 3.2 -0.3
v -0.2 3.3 0.3
v -0.2 3.3 -0.2
v -0.1 2.8 0.4
v -0.1 2.8 0.3
v -0.1 3 0.4
v -0.1 3 0.3
v -0.1 3.3 0.2
v -0.1 3.3 -0.1
v -0.1 3.4 0.2
v -0.1 3.4 -0.1
v 0.2 2.5 0.2
v 0.2 2.5 -0.2
v 0.2 2.8 0.3
v 0.2 2.8 0.2
v 0.2 3 0.3
v 0.2 3 -0.2
v 0.2 3.1 0.3
v 0.2 3.1 0.2
v 0.2 3.2 0.2
v 0.2 3.2 -0.2
v -0.2 2.5 0.2
v -0.2 2.5 -0.2
v -0.2 2.8 0.3
v -0.2 2.8 0.2
v -0.2 3 0.3
v -0.2 3 -0.2
v -0.2 3.1 0.3
v -0.2 3.1 0.2
v -0.2 3.2 0.2
v -0.2 3.2 -0.2
v 0.1 2.8 0.4
v 0.1 2.8 0.3
v 0.1 3 0.4
v 0.1 3 0.3
v 0.1 3.3 0.2
v 0.1 3.3 -0.1
v 0.1 3.4 0.2
v 0.1 3.4 -0.1
v 0.2 2.5 0.3
v 0.2 2.5 0.2
v 0.2 2.5 -0.2
v 0.2 2.5 -0.3
v 0.2 2.8 0.3
v 0.2 2.8 0.2
v 0.2 3 0.4
v 0.2 3 0.3
v 0.2 3 -0.2
v 0.2 3 -0.3
v 0.2 3.2 0.4
v 0.2 3.2 0.3
v 0.2 3.2 -0.2
v 0.2 3.2 -0.3
v 0.2 3.3 0.3
v 0.2 3.3 -0.2
v 0.3 2.5 0.2
v 0.3 2.5 -0.2
v 0.3 2.8 0.3
v 0.3 2.8 0.2
v 0.3 3 0.3
v 0.3 3 -0.2
v 0.3 3.2 0.3
v 0.3 3.2 -0.2
v -0.2 3 0.4
v -0.2 3.2 0.4
v -0.1 2.8 0.4
v -0.1 3 0.4
v 0.1 2.8 0.4
v 0.1 3 0.4
v 0.2 3 0.4
v 0.2 3.2 0.4
v -0.3 2.8 0.3
v -0.3 3 0.3
v -0.3 3.2 0.3
v -0.2 2.5 0.3
v -0.2 2.8 0.3
v -0.2 3 0.3
v -0.2 3.2 0.3
v -0.2 3.3 0.3
v -0.1 2.8 0.3
v 0.1 2.8 0.3
v 0.2 2.5 0.3
v 0.2 2.8 0.3
v 0.2 3 0.3
v 0.2 3.2 0.3
v 0.2 3.3 0.3
v 0.3 2.8 0.3
v 0.3 3 0.3
v 0.3 3.2 0.3
v -0.3 2.5 0.2
v -0.3 2.8 0.2
v -0.2 2.5 0.2
v -0.2 2.8 0.2
v -0.1 3.3 0.2
v -0.1 3.4 0.2
v 0.1 3.3 0.2
v 0.1 3.4 0.2
v 0.2 2.5 0.2
v 0.2 2.8 0.2
v 0.3 2.5 0.2
v 0.3 2.8 0.2
v -0.2 2.5 -0.2
v -0.2 3 -0.2
v -0.2 3.2 -0.2
v 0.2 2.5 -0.2
v 0.2 3 -0.2
v 0.2 3.2 -0.2
v -0.2 3 0.3
v -0.2 3.1 0.3
v -0.1 2.8 0.3
v -0.1 3 0.3
v -0.1 3.1 0.3
v 0.1 2.8 0.3
v 0.1 3 0.3
v 0.1 3.1 0.3
v 0.2 3 0.3
v 0.2 3.1 0.3
v -0.2 2.5 0.2
v -0.2 2.8 0.2
v -0.2 3.1 0.2
v -0.2 3.2 0.2
v -0.1 3.1 0.2
v -0.1 3.2 0.2
v 0.1 3.1 0.2
v 0.1 3.2 0.2
v 0.2 2.5 0.2
v 0.2 2.8 0.2
v 0.2 3.1 0.2
v 0.2 3.2 0.2
v -0.1 3.3 -0.1
v -0.1 3.4 -0.1
v 0.1 3.3 -0.1
v 0.1 3.4 -0.1
v -0.3 2.5 -0.2
v -0.3 3 -0.2
v -0.3 3.2 -0.2
v -0.2 2.5 -0.2
v -0.2 3 -0.2
v -0.2 3.2 -0.2
v -0.2 3.3 -0.2
v 0.2 2.5 -0.2
v 0.2 3 -0.2
v 0.2 3.2 -0.2
v 0.2 3.3 -0.2
v 0.3 2.5 -0.2
v 0.3 3 -0.2
v 0.3 3.2 -0.2
v -0.2 2.5 -0.3
v -0.2 3 -0.3
v -0.2 3.2 -0.3
v 0.2 2.5 -0.3
v 0.2 3 -0.3
v 0.2 3.2 -0.3
v -0.2 2.5 0.3
v 0.2 2.5 0.3
v -0.3 2.5 0.2
v -0.2 2.5 0.2
v 0.2 2.5 0.2
v 0.3 2.5 0.2
v -0.3 2.5 -0.2
v -0.2 2.5 -0.2
v 0.2 2.5 -0.2
v 0.3 2.5 -0.2
v -0.2 2.5 -0.3
v 0.2 2.5 -0.3
v -0.1 2.8 0.4
v 0.1 2.8 0.4
v -0.3 2.8 0.3
v -0.2 2.8 0.3
v -0.1 2.8 0.3
v 0.1 2.8 0.3
v 0.2 2.8 0.3
v 0.3 2.8 0.3
v -0.3 2.8 0.2
v -0.2 2.8 0.2
v 0.2 2.8 0.2
v 0.3 2.8 0.2
v -0.2 3 0.4
v -0.1 3 0.4
v 0.1 3 0.4
v 0.2 3 0.4
v -0.2 3 0.3
v -0.1 3 0.3
v 0.1 3 0.3
v 0.2 3 0.3
v -0.2 3.1 0.3
v -0.1 3.1 0.3
v 0.1 3.1 0.3
v 0.2 3.1 0.3
v -0.2 3.1 0.2
v -0.1 3.1 0.2
v 0.1 3.1 0.2
v 0.2 3.1 0.2
v -0.2 3.2 0.2
v -0.1 3.2 0.2
v 0.1 3.2 0.2
v 0.2 3.2 0.2
v -0.2 3.2 -0.2
v 0.2 3.2 -0.2
v -0.2 2.8 0.3
v -0.1 2.8 0.3
v 0.1 2.8 0.3
v 0.2 2.8 0.3
v -0.2 2.8 0.2
v 0.2 2.8 0.2
v -0.2 3.2 0.4
v 0.2 3.2 0.4
v -0.3 3.2 0.3
v -0.2 3.2 0.3
v 0.2 3.2 0.3
v 0.3 3.2 0.3
v -0.3 3.2 -0.2
v -0.2 3.2 -0.2
v 0.2 3.2 -0.2
v 0.3 3.2 -0.2
v -0.2 3.2 -0.3
v 0.2 3.2 -0.3
v -0.2 3.3 0.3
v 0.2 3.3 0.3
v -0.1 3.3 0.2
v 0.1 3.3 0.2
v -0.1 3.3 -0.1
v 0.1 3.3 -0.1
v -0.2 3.3 -0.2
v 0.2 3.3 -0.2
v -0.1 3.4 0.2
v 0.1 3.4 0.2
v -0.1 3.4 -0.1
v 0.1 3.4 -0.1

# faces
f 4/1/1 2/1/1 1/1/1
f 5/1/1 4/1/1 3/1/1
f 6/1/1 2/1/1 4/1/1
f 6/1/1 4/1/1 5/1/1
f 7/3/1 6/3/1 5/3/1
f 8/3/1 6/3/1 7/3/1
f 13/1/1 10/1/1 9/1/1
f 14/1/1 10/1/1 13/1/1
f 17/1/1 12/1/1 11/1/1
f 18/1/1 12/1/1 17/1/1
f 19/3/1 16/3/1 15/3/1
f 20/3/1 16/3/1 19/3/1
f 21/3/1 18/3/1 17/3/1
f 22/3/1 18/3/1 21/3/1
f 23/2/1 21/2/1 20/2/1
f 24/2/1 21/2/1 23/2/1
f 27/3/1 26/3/1 25/3/1
f 28/3/1 26/3/1 27/3/1
f 31/2/1 30/2/1 29/2/1
f 32/2/1 30/2/1 31/2/1
f 36/1/1 34/1/1 33/1/1
f 37/1/1 36/1/1 35/1/1
f 38/1/1 34/1/1 36/1/1
f 38/1/1 36/1/1 37/1/1
f 39/3/1 38/3/1 37/3/1
f 40/3/1 38/3/1 39/3/1
f 41/3/1 38/3/1 40/3/1
f 42/3/1 38/3/1 41/3/1
f 43/1/2 44/1/2 46/1/2
f 45/1/2 46/1/2 47/1/2
f 46/1/2 44/1/2 48/1/2
f 47/1/2 46/1/2 48/1/2
f 47/3/2 48/3/2 49/3/2
f 49/3/2 48/3/2 50/3/2
f 50/3/2 48/3/2 51/3/2
f 51/3/2 48/3/2 52/3/2
f 53/3/2 54/3/2 55/3/2
f 55/3/2 54/3/2 56/3/2
f 57/2/2 58/2/2 59/2/2
f 59/2/2 58/2/2 60/2/2
f 61/1/2 62/1/2 65/1/2
f 65/1/2 62/1/2 66/1/2
f 63/1/2 64/1/2 69/1/2
f 69/1/2 64/1/2 70/1/2
f 67/3/2 68/3/2 71/3/2
f 71/3/2 68/3/2 72/3/2
f 69/3/2 70/3/2 73/3/2
f 73/3/2 70/3/2 74/3/2
f 72/2/2 73/2/2 75/2/2
f 75/2/2 73/2/2 76/2/2
f 77/1/2 78/1/2 80/1/2
f 79/1/2 80/1/2 81/1/2
f 80/1/2 78/1/2 82/1/2
f 81/1/2 80/1/2 82/1/2
f 81/3/2 82/3/2 83/3/2
f 83/3/2 82/3/2 84/3/2
f 88/3/3 86/3/3 85/3/3
f 89/3/3 88/3/3 87/3/3
f 90/3/3 86/3/3 88/3/3
f 90/3/3 88/3/3 89/3/3
f 91/3/3 86/3/3 90/3/3
f 92/3/3 86/3/3 91/3/3
f 97/1/3 94/1/3 93/1/3
f 98/3/3 95/3/3 94/3/3
f 98/1/3 94/1/3 97/1/3
f 99/3/3 95/3/3 98/3/3
f 101/1/3 97/1/3 96/1/3
f 102/1/3 101/1/3 96/1/3
f 103/1/3 102/1/3 96/1/3
f 104/1/3 102/1/3 103/1/3
f 106/2/3 100/2/3 99/2/3
f 107/2/3 100/2/3 106/2/3
f 108/1/3 105/1/3 104/1/3
f 109/3/3 106/3/3 105/3/3
f 109/1/3 105/1/3 108/1/3
f 110/3/3 106/3/3 109/3/3
f 113/1/3 112/1/3 111/1/3
f 114/1/3 112/1/3 113/1/3
f 117/2/3 116/2/3 115/2/3
f 118/2/3 116/2/3 117/2/3
f 121/1/3 120/1/3 119/1/3
f 122/1/3 120/1/3 121/1/3
f 126/1/3 124/1/3 123/1/3
f 127/3/3 125/3/3 124/3/3
f 127/1/3 124/1/3 126/1/3
f 128/3/3 125/3/3 127/3/3
f 129/3/4 130/3/4 132/3/4
f 132/3/4 130/3/4 133/3/4
f 131/3/4 132/3/4 134/3/4
f 132/3/4 133/3/4 134/3/4
f 134/3/4 133/3/4 135/3/4
f 135/3/4 133/3/4 136/3/4
f 135/3/4 136/3/4 137/3/4
f 137/3/4 136/3/4 138/3/4
f 141/2/4 142/2/4 143/2/4
f 143/2/4 142/2/4 144/2/4
f 143/1/4 144/1/4 145/1/4
f 145/1/4 144/1/4 146/1/4
f 139/1/4 140/1/4 147/1/4
f 147/1/4 140/1/4 148/1/4
f 145/2/4 146/2/4 149/2/4
f 149/2/4 146/2/4 150/2/4
f 151/2/4 152/2/4 153/2/4
f 153/2/4 152/2/4 154/2/4
f 155/1/4 156/1/4 158/1/4
f 156/3/4 157/3/4 159/3/4
f 158/1/4 156/1/4 159/1/4
f 159/3/4 157/3/4 160/3/4
f 160/2/4 161/2/4 164/2/4
f 164/2/4 161/2/4 165/2/4
f 162/1/4 163/1/4 166/1/4
f 163/3/4 164/3/4 167/3/4
f 166/1/4 163/1/4 167/1/4
f 167/3/4 164/3/4 168/3/4
f 169/1/4 170/1/4 172/1/4
f 170/3/4 171/3/4 173/3/4
f 172/1/4 170/1/4 173/1/4
f 173/3/4 171/3/4 174/3/4
f 178/1/5 176/1/5 175/1/5
f 179/1/5 176/1/5 178/1/5
f 181/1/5 178/1/5 177/1/5
f 182/1/5 178/1/5 181/1/5
f 183/1/5 180/1/5 179/1/5
f 184/1/5 180/1/5 183/1/5
f 185/1/5 183/1/5 182/1/5
f 186/1/5 183/1/5 185/1/5
f 191/3/5 188/3/5 187/3/5
f 192/3/5 188/3/5 191/3/5
f 195/1/5 190/1/5 189/1/5
f 196/1/5 190/1/5 195/1/5
f 197/1/5 194/1/5 193/1/5
f 198/1/5 194/1/5 197/1/5
f 203/3/5 200/3/5 199/3/5
f 204/3/5 200/3/5 203/3/5
f 205/3/5 202/3/5 201/3/5
f 206/3/5 202/3/5 205/3/5
f 211/2/5 208/2/5 207/2/5
f 212/1/5 209/1/5 208/1/5
f 212/2/5 208/2/5 211/2/5
f 213/2/5 210/2/5 209/2/5
f 213/1/5 209/1/5 212/1/5
f 214/2/5 210/2/5 213/2/5
f 219/2/5 216/2/5 215/2/5
f 219/2/5 218/2/5 217/2/5
f 219/2/5 217/2/5 216/2/5
f 220/2/5 218/2/5 219/2/5
f 221/1/6 222/1/6 225/1/6
f 223/1/6 224/1/6 225/1/6
f 222/1/6 223/1/6 225/1/6
f 225/1/6 224/1/6 226/1/6
f 227/3/6 228/3/6 230/3/6
f 230/3/6 228/3/6 231/3/6
f 229/3/6 230/3/6 233/3/6
f 233/3/6 230/3/6 234/3/6
f 231/3/6 232/3/6 235/3/6
f 235/3/6 232/3/6 236/3/6
f 234/3/6 235/3/6 237/3/6
f 237/3/6 235/3/6 238/3/6
f 239/2/6 240/2/6 241/2/6
f 241/2/6 240/2/6 242/2/6
f 239/2/6 241/2/6 243/2/6
f 242/2/6 240/2/6 244/2/6
f 239/2/6 243/2/6 245/2/6
f 243/2/6 244/2/6 245/2/6
f 244/2/6 240/2/6 246/2/6
f 245/2/6 244/2/6 246/2/6
f 247/2/6 248/2/6 249/2/6
f 249/2/6 248/2/6 250/2/6
