# MagicaVoxel @ Ephtracy

# group
o helm_med_2d_ja

# material
mtllib char-59-helm_med_2d_ja.mtl
usemtl palette

# normals
vn -1 0 0
vn 1 0 0
vn 0 0 1
vn 0 0 -1
vn 0 -1 0
vn 0 1 0

# texcoords
vt 0.494141 0.5
vt 0.958984 0.5
vt 0.962891 0.5

# verts
v -0.3 2.6 0.3
v -0.3 2.6 -0.2
v -0.3 3 0.3
v -0.3 3 -0.2
v -0.3 3.2 0.3
v -0.3 3.2 -0.2
v -0.2 2.6 -0.2
v -0.2 2.6 -0.3
v -0.2 3 0.4
v -0.2 3 0.3
v -0.2 3 -0.2
v -0.2 3 -0.3
v -0.2 3.2 0.4
v -0.2 3.2 0.3
v -0.2 3.2 -0.2
v -0.2 3.2 -0.3
v -0.2 3.3 0.3
v -0.2 3.3 -0.2
v -0.1 2.6 -0.3
v -0.1 2.6 -0.4
v -0.1 2.8 0.4
v -0.1 2.8 0.3
v -0.1 3 0.4
v -0.1 3 0.3
v -0.1 3 -0.3
v -0.1 3.2 0.4
v -0.1 3.2 0.3
v -0.1 3.2 -0.2
v -0.1 3.2 -0.3
v -0.1 3.3 0.4
v -0.1 3.3 0.3
v -0.1 3.3 -0.2
v -0.1 3.3 -0.3
v -0.1 3.3 -0.4
v -0.1 3.4 0.3
v -0.1 3.4 0.1
v -0.1 3.4 0
v -0.1 3.4 -0.2
v -0.1 3.5 0.2
v -0.1 3.5 0.1
v -0.1 3.5 0
v -0.1 3.5 -0.2
v -0.1 3.5 -0.3
v -0.1 3.6 -0.1
v -0.1 3.6 -0.2
v -0.1 3.7 0.2
v -0.1 3.7 -0.1
v 0.2 2.6 0.3
v 0.2 2.6 -0.2
v 0.2 3 0.3
v 0.2 3 -0.2
v 0.2 3.1 0.3
v 0.2 3.1 0.2
v 0.2 3.2 0.2
v 0.2 3.2 -0.2
v -0.2 2.6 0.3
v -0.2 2.6 -0.2
v -0.2 3 0.3
v -0.2 3 -0.2
v -0.2 3.1 0.3
v -0.2 3.1 0.2
v -0.2 3.2 0.2
v -0.2 3.2 -0.2
v 0.1 2.6 -0.3
v 0.1 2.6 -0.4
v 0.1 2.8 0.4
v 0.1 2.8 0.3
v 0.1 3 0.4
v 0.1 3 0.3
v 0.1 3 -0.3
v 0.1 3.2 0.4
v 0.1 3.2 0.3
v 0.1 3.2 -0.2
v 0.1 3.2 -0.3
v 0.1 3.3 0.4
v 0.1 3.3 0.3
v 0.1 3.3 -0.2
v 0.1 3.3 -0.3
v 0.1 3.3 -0.4
v 0.1 3.4 0.3
v 0.1 3.4 0.1
v 0.1 3.4 0
v 0.1 3.4 -0.2
v 0.1 3.5 0.2
v 0.1 3.5 0.1
v 0.1 3.5 0
v 0.1 3.5 -0.2
v 0.1 3.5 -0.3
v 0.1 3.6 -0.1
v 0.1 3.6 -0.2
v 0.1 3.7 0.2
v 0.1 3.7 -0.1
v 0.2 2.6 -0.2
v 0.2 2.6 -0.3
v 0.2 3 0.4
v 0.2 3 0.3
v 0.2 3 -0.2
v 0.2 3 -0.3
v 0.2 3.2 0.4
v 0.2 3.2 0.3
v 0.2 3.2 -0.2
v 0.2 3.2 -0.3
v 0.2 3.3 0.3
v 0.2 3.3 -0.2
v 0.3 2.6 0.3
v 0.3 2.6 -0.2
v 0.3 3 0.3
v 0.3 3 -0.2
v 0.3 3.2 0.3
v 0.3 3.2 -0.2
v -0.2 3 0.4
v -0.2 3.2 0.4
v -0.1 2.8 0.4
v -0.1 3 0.4
v -0.1 3.2 0.4
v -0.1 3.3 0.4
v 0.1 2.8 0.4
v 0.1 3 0.4
v 0.1 3.2 0.4
v 0.1 3.3 0.4
v 0.2 3 0.4
v 0.2 3.2 0.4
v -0.3 2.6 0.3
v -0.3 3 0.3
v -0.3 3.2 0.3
v -0.2 2.6 0.3
v -0.2 3 0.3
v -0.2 3.2 0.3
v -0.2 3.3 0.3
v -0.1 3.2 0.3
v -0.1 3.3 0.3
v -0.1 3.4 0.3
v 0.1 3.2 0.3
v 0.1 3.3 0.3
v 0.1 3.4 0.3
v 0.2 2.6 0.3
v 0.2 3 0.3
v 0.2 3.2 0.3
v 0.2 3.3 0.3
v 0.3 2.6 0.3
v 0.3 3 0.3
v 0.3 3.2 0.3
v -0.1 3.5 0.2
v -0.1 3.7 0.2
v 0.1 3.5 0.2
v 0.1 3.7 0.2
v -0.1 3.4 0.1
v -0.1 3.5 0.1
v 0.1 3.4 0.1
v 0.1 3.5 0.1
v -0.2 2.6 -0.2
v -0.2 3 -0.2
v -0.2 3.2 -0.2
v 0.2 2.6 -0.2
v 0.2 3 -0.2
v 0.2 3.2 -0.2
v -0.2 3 0.3
v -0.2 3.1 0.3
v -0.1 2.8 0.3
v -0.1 3 0.3
v -0.1 3.1 0.3
v 0.1 2.8 0.3
v 0.1 3 0.3
v 0.1 3.1 0.3
v 0.2 3 0.3
v 0.2 3.1 0.3
v -0.2 3.1 0.2
v -0.2 3.2 0.2
v -0.1 3.1 0.2
v -0.1 3.2 0.2
v 0.1 3.1 0.2
v 0.1 3.2 0.2
v 0.2 3.1 0.2
v 0.2 3.2 0.2
v -0.1 3.6 -0.1
v -0.1 3.7 -0.1
v 0.1 3.6 -0.1
v 0.1 3.7 -0.1
v -0.3 2.6 -0.2
v -0.3 3 -0.2
v -0.3 3.2 -0.2
v -0.2 2.6 -0.2
v -0.2 3 -0.2
v -0.2 3.2 -0.2
v -0.2 3.3 -0.2
v -0.1 3.2 -0.2
v -0.1 3.3 -0.2
v -0.1 3.5 -0.2
v -0.1 3.6 -0.2
v 0.1 3.2 -0.2
v 0.1 3.3 -0.2
v 0.1 3.5 -0.2
v 0.1 3.6 -0.2
v 0.2 2.6 -0.2
v 0.2 3 -0.2
v 0.2 3.2 -0.2
v 0.2 3.3 -0.2
v 0.3 2.6 -0.2
v 0.3 3 -0.2
v 0.3 3.2 -0.2
v -0.2 2.6 -0.3
v -0.2 3 -0.3
v -0.2 3.2 -0.3
v -0.1 2.6 -0.3
v -0.1 3 -0.3
v -0.1 3.2 -0.3
v -0.1 3.3 -0.3
v -0.1 3.5 -0.3
v 0.1 2.6 -0.3
v 0.1 3 -0.3
v 0.1 3.2 -0.3
v 0.1 3.3 -0.3
v 0.1 3.5 -0.3
v 0.2 2.6 -0.3
v 0.2 3 -0.3
v 0.2 3.2 -0.3
v -0.1 2.6 -0.4
v -0.1 3.3 -0.4
v 0.1 2.6 -0.4
v 0.1 3.3 -0.4
v -0.3 2.6 0.3
v -0.2 2.6 0.3
v 0.2 2.6 0.3
v 0.3 2.6 0.3
v -0.3 2.6 -0.2
v -0.2 2.6 -0.2
v 0.2 2.6 -0.2
v 0.3 2.6 -0.2
v -0.2 2.6 -0.3
v -0.1 2.6 -0.3
v 0.1 2.6 -0.3
v 0.2 2.6 -0.3
v -0.1 2.6 -0.4
v 0.1 2.6 -0.4
v -0.1 2.8 0.4
v 0.1 2.8 0.4
v -0.1 2.8 0.3
v 0.1 2.8 0.3
v -0.2 3 0.4
v -0.1 3 0.4
v 0.1 3 0.4
v 0.2 3 0.4
v -0.2 3 0.3
v -0.1 3 0.3
v 0.1 3 0.3
v 0.2 3 0.3
v -0.2 3.1 0.3
v -0.1 3.1 0.3
v 0.1 3.1 0.3
v 0.2 3.1 0.3
v -0.2 3.1 0.2
v -0.1 3.1 0.2
v 0.1 3.1 0.2
v 0.2 3.1 0.2
v -0.2 3.2 0.2
v -0.1 3.2 0.2
v 0.1 3.2 0.2
v 0.2 3.2 0.2
v -0.2 3.2 -0.2
v 0.2 3.2 -0.2
v -0.1 3.5 0.2
v 0.1 3.5 0.2
v -0.1 3.5 0.1
v 0.1 3.5 0.1
v -0.2 3.2 0.4
v -0.1 3.2 0.4
v 0.1 3.2 0.4
v 0.2 3.2 0.4
v -0.3 3.2 0.3
v -0.2 3.2 0.3
v -0.1 3.2 0.3
v 0.1 3.2 0.3
v 0.2 3.2 0.3
v 0.3 3.2 0.3
v -0.3 3.2 -0.2
v -0.2 3.2 -0.2
v -0.1 3.2 -0.2
v 0.1 3.2 -0.2
v 0.2 3.2 -0.2
v 0.3 3.2 -0.2
v -0.2 3.2 -0.3
v -0.1 3.2 -0.3
v 0.1 3.2 -0.3
v 0.2 3.2 -0.3
v -0.1 3.3 0.4
v 0.1 3.3 0.4
v -0.2 3.3 0.3
v -0.1 3.3 0.3
v 0.1 3.3 0.3
v 0.2 3.3 0.3
v -0.2 3.3 -0.2
v -0.1 3.3 -0.2
v 0.1 3.3 -0.2
v 0.2 3.3 -0.2
v -0.1 3.3 -0.3
v 0.1 3.3 -0.3
v -0.1 3.3 -0.4
v 0.1 3.3 -0.4
v -0.1 3.4 0.3
v 0.1 3.4 0.3
v -0.1 3.4 0.1
v 0.1 3.4 0.1
v -0.1 3.5 -0.2
v 0.1 3.5 -0.2
v -0.1 3.5 -0.3
v 0.1 3.5 -0.3
v -0.1 3.6 -0.1
v 0.1 3.6 -0.1
v -0.1 3.6 -0.2
v 0.1 3.6 -0.2
v -0.1 3.7 0.2
v 0.1 3.7 0.2
v -0.1 3.7 -0.1
v 0.1 3.7 -0.1

# faces
f 3/2/1 2/2/1 1/2/1
f 4/2/1 2/2/1 3/2/1
f 5/3/1 4/3/1 3/3/1
f 6/3/1 4/3/1 5/3/1
f 11/2/1 8/2/1 7/2/1
f 12/2/1 8/2/1 11/2/1
f 13/3/1 10/3/1 9/3/1
f 14/3/1 10/3/1 13/3/1
f 15/3/1 12/3/1 11/3/1
f 16/3/1 12/3/1 15/3/1
f 17/3/1 15/3/1 14/3/1
f 18/3/1 15/3/1 17/3/1
f 23/3/1 22/3/1 21/3/1
f 24/3/1 22/3/1 23/3/1
f 25/1/1 20/1/1 19/1/1
f 29/1/1 20/1/1 25/1/1
f 30/3/1 27/3/1 26/3/1
f 31/3/1 27/3/1 30/3/1
f 32/3/1 29/3/1 28/3/1
f 33/1/1 20/1/1 29/1/1
f 33/3/1 29/3/1 32/3/1
f 34/1/1 20/1/1 33/1/1
f 35/3/1 32/3/1 31/3/1
f 36/3/1 32/3/1 35/3/1
f 37/3/1 32/3/1 36/3/1
f 38/1/1 33/1/1 32/1/1
f 38/3/1 32/3/1 37/3/1
f 40/3/1 37/3/1 36/3/1
f 41/1/1 38/1/1 37/1/1
f 41/3/1 37/3/1 40/3/1
f 42/1/1 33/1/1 38/1/1
f 42/1/1 38/1/1 41/1/1
f 43/1/1 33/1/1 42/1/1
f 44/1/1 40/1/1 39/1/1
f 44/1/1 41/1/1 40/1/1
f 44/1/1 42/1/1 41/1/1
f 45/1/1 42/1/1 44/1/1
f 46/1/1 44/1/1 39/1/1
f 47/1/1 44/1/1 46/1/1
f 50/2/1 49/2/1 48/2/1
f 51/2/1 49/2/1 50/2/1
f 52/3/1 51/3/1 50/3/1
f 53/3/1 51/3/1 52/3/1
f 54/3/1 51/3/1 53/3/1
f 55/3/1 51/3/1 54/3/1
f 56/2/2 57/2/2 58/2/2
f 58/2/2 57/2/2 59/2/2
f 58/3/2 59/3/2 60/3/2
f 60/3/2 59/3/2 61/3/2
f 61/3/2 59/3/2 62/3/2
f 62/3/2 59/3/2 63/3/2
f 66/3/2 67/3/2 68/3/2
f 68/3/2 67/3/2 69/3/2
f 64/1/2 65/1/2 70/1/2
f 70/1/2 65/1/2 74/1/2
f 71/3/2 72/3/2 75/3/2
f 75/3/2 72/3/2 76/3/2
f 73/3/2 74/3/2 77/3/2
f 74/1/2 65/1/2 78/1/2
f 77/3/2 74/3/2 78/3/2
f 78/1/2 65/1/2 79/1/2
f 76/3/2 77/3/2 80/3/2
f 80/3/2 77/3/2 81/3/2
f 81/3/2 77/3/2 82/3/2
f 77/1/2 78/1/2 83/1/2
f 82/3/2 77/3/2 83/3/2
f 81/3/2 82/3/2 85/3/2
f 82/1/2 83/1/2 86/1/2
f 85/3/2 82/3/2 86/3/2
f 83/1/2 78/1/2 87/1/2
f 86/1/2 83/1/2 87/1/2
f 87/1/2 78/1/2 88/1/2
f 84/1/2 85/1/2 89/1/2
f 85/1/2 86/1/2 89/1/2
f 86/1/2 87/1/2 89/1/2
f 89/1/2 87/1/2 90/1/2
f 84/1/2 89/1/2 91/1/2
f 91/1/2 89/1/2 92/1/2
f 93/2/2 94/2/2 97/2/2
f 97/2/2 94/2/2 98/2/2
f 95/3/2 96/3/2 99/3/2
f 99/3/2 96/3/2 100/3/2
f 97/3/2 98/3/2 101/3/2
f 101/3/2 98/3/2 102/3/2
f 100/3/2 101/3/2 103/3/2
f 103/3/2 101/3/2 104/3/2
f 105/2/2 106/2/2 107/2/2
f 107/2/2 106/2/2 108/2/2
f 107/3/2 108/3/2 109/3/2
f 109/3/2 108/3/2 110/3/2
f 114/3/3 112/3/3 111/3/3
f 115/3/3 112/3/3 114/3/3
f 117/3/3 114/3/3 113/3/3
f 117/3/3 116/3/3 115/3/3
f 117/3/3 115/3/3 114/3/3
f 118/3/3 116/3/3 117/3/3
f 119/3/3 116/3/3 118/3/3
f 120/3/3 116/3/3 119/3/3
f 121/3/3 119/3/3 118/3/3
f 122/3/3 119/3/3 121/3/3
f 126/2/3 124/2/3 123/2/3
f 127/3/3 125/3/3 124/3/3
f 127/2/3 124/2/3 126/2/3
f 128/3/3 125/3/3 127/3/3
f 130/3/3 129/3/3 128/3/3
f 131/3/3 129/3/3 130/3/3
f 134/3/3 132/3/3 131/3/3
f 135/3/3 132/3/3 134/3/3
f 138/3/3 134/3/3 133/3/3
f 139/3/3 134/3/3 138/3/3
f 140/2/3 137/2/3 136/2/3
f 141/3/3 138/3/3 137/3/3
f 141/2/3 137/2/3 140/2/3
f 142/3/3 138/3/3 141/3/3
f 145/1/3 144/1/3 143/1/3
f 146/1/3 144/1/3 145/1/3
f 149/3/3 148/3/3 147/3/3
f 150/3/3 148/3/3 149/3/3
f 154/2/3 152/2/3 151/2/3
f 155/3/3 153/3/3 152/3/3
f 155/2/3 152/2/3 154/2/3
f 156/3/3 153/3/3 155/3/3
f 157/3/4 158/3/4 160/3/4
f 160/3/4 158/3/4 161/3/4
f 159/3/4 160/3/4 162/3/4
f 160/3/4 161/3/4 162/3/4
f 162/3/4 161/3/4 163/3/4
f 163/3/4 161/3/4 164/3/4
f 163/3/4 164/3/4 165/3/4
f 165/3/4 164/3/4 166/3/4
f 167/3/4 168/3/4 169/3/4
f 169/3/4 168/3/4 170/3/4
f 169/2/4 170/2/4 171/2/4
f 171/2/4 170/2/4 172/2/4
f 171/3/4 172/3/4 173/3/4
f 173/3/4 172/3/4 174/3/4
f 175/1/4 176/1/4 177/1/4
f 177/1/4 176/1/4 178/1/4
f 179/2/4 180/2/4 182/2/4
f 180/3/4 181/3/4 183/3/4
f 182/2/4 180/2/4 183/2/4
f 183/3/4 181/3/4 184/3/4
f 184/3/4 185/3/4 186/3/4
f 186/3/4 185/3/4 187/3/4
f 188/1/4 189/1/4 192/1/4
f 192/1/4 189/1/4 193/1/4
f 190/3/4 191/3/4 196/3/4
f 196/3/4 191/3/4 197/3/4
f 194/2/4 195/2/4 198/2/4
f 195/3/4 196/3/4 199/3/4
f 198/2/4 195/2/4 199/2/4
f 199/3/4 196/3/4 200/3/4
f 201/2/4 202/2/4 204/2/4
f 202/3/4 203/3/4 205/3/4
f 204/2/4 202/2/4 205/2/4
f 205/3/4 203/3/4 206/3/4
f 207/1/4 208/1/4 212/1/4
f 212/1/4 208/1/4 213/1/4
f 209/2/4 210/2/4 214/2/4
f 210/3/4 211/3/4 215/3/4
f 214/2/4 210/2/4 215/2/4
f 215/3/4 211/3/4 216/3/4
f 217/1/4 218/1/4 219/1/4
f 219/1/4 218/1/4 220/1/4
f 225/2/5 222/2/5 221/2/5
f 226/2/5 222/2/5 225/2/5
f 227/2/5 224/2/5 223/2/5
f 228/2/5 224/2/5 227/2/5
f 229/2/5 227/2/5 226/2/5
f 230/2/5 227/2/5 229/2/5
f 231/2/5 227/2/5 230/2/5
f 232/2/5 227/2/5 231/2/5
f 233/1/5 231/1/5 230/1/5
f 234/1/5 231/1/5 233/1/5
f 237/3/5 236/3/5 235/3/5
f 238/3/5 236/3/5 237/3/5
f 243/3/5 240/3/5 239/3/5
f 244/3/5 240/3/5 243/3/5
f 245/3/5 242/3/5 241/3/5
f 246/3/5 242/3/5 245/3/5
f 251/3/5 248/3/5 247/3/5
f 252/2/5 249/2/5 248/2/5
f 252/3/5 248/3/5 251/3/5
f 253/3/5 250/3/5 249/3/5
f 253/2/5 249/2/5 252/2/5
f 254/3/5 250/3/5 253/3/5
f 259/3/5 256/3/5 255/3/5
f 259/3/5 258/3/5 257/3/5
f 259/3/5 257/3/5 256/3/5
f 260/3/5 258/3/5 259/3/5
f 263/1/5 262/1/5 261/1/5
f 264/1/5 262/1/5 263/1/5
f 265/3/6 266/3/6 270/3/6
f 270/3/6 266/3/6 271/3/6
f 267/3/6 268/3/6 272/3/6
f 272/3/6 268/3/6 273/3/6
f 269/3/6 270/3/6 275/3/6
f 275/3/6 270/3/6 276/3/6
f 273/3/6 274/3/6 279/3/6
f 279/3/6 274/3/6 280/3/6
f 276/3/6 277/3/6 281/3/6
f 281/3/6 277/3/6 282/3/6
f 278/3/6 279/3/6 283/3/6
f 283/3/6 279/3/6 284/3/6
f 285/3/6 286/3/6 288/3/6
f 288/3/6 286/3/6 289/3/6
f 287/3/6 288/3/6 291/3/6
f 291/3/6 288/3/6 292/3/6
f 289/3/6 290/3/6 293/3/6
f 293/3/6 290/3/6 294/3/6
f 295/1/6 296/1/6 297/1/6
f 297/1/6 296/1/6 298/1/6
f 299/3/6 300/3/6 301/3/6
f 301/3/6 300/3/6 302/3/6
f 303/1/6 304/1/6 305/1/6
f 305/1/6 304/1/6 306/1/6
f 307/1/6 308/1/6 309/1/6
f 309/1/6 308/1/6 310/1/6
f 311/1/6 312/1/6 313/1/6
f 313/1/6 312/1/6 314/1/6
