# MagicaVoxel @ Ephtracy

# group
o helm_lgt_3a_du_color

# material
mtllib char-110-helm_lgt_3a_du_color.mtl
usemtl palette

# normals
vn -1 0 0
vn 1 0 0
vn 0 0 1
vn 0 0 -1
vn 0 -1 0
vn 0 1 0

# texcoords
vt 0.482422 0.5
vt 0.494141 0.5
vt 0.916016 0.5

# verts
v -0.3 2.5 0.3
v -0.3 2.5 0.2
v -0.3 2.6 0.2
v -0.3 2.6 -0.2
v -0.3 3.2 0.3
v -0.3 3.2 0.2
v -0.3 3.2 -0.2
v -0.2 2.6 -0.2
v -0.2 2.6 -0.3
v -0.2 3.2 0.3
v -0.2 3.2 0.2
v -0.2 3.2 -0.2
v -0.2 3.2 -0.3
v -0.2 3.3 0.3
v -0.2 3.3 0.2
v -0.2 3.3 -0.2
v 0.2 2.5 0.3
v 0.2 2.5 0.2
v 0.2 2.6 0.2
v 0.2 2.6 -0.2
v 0.2 3.1 0.3
v 0.2 3.1 0.2
v 0.2 3.2 0.2
v 0.2 3.2 -0.2
v -0.2 2.5 0.3
v -0.2 2.5 0.2
v -0.2 2.6 0.2
v -0.2 2.6 -0.2
v -0.2 3.1 0.3
v -0.2 3.1 0.2
v -0.2 3.2 0.2
v -0.2 3.2 -0.2
v 0.2 2.6 -0.2
v 0.2 2.6 -0.3
v 0.2 3.2 0.3
v 0.2 3.2 0.2
v 0.2 3.2 -0.2
v 0.2 3.2 -0.3
v 0.2 3.3 0.3
v 0.2 3.3 0.2
v 0.2 3.3 -0.2
v 0.3 2.5 0.3
v 0.3 2.5 0.2
v 0.3 2.6 0.2
v 0.3 2.6 -0.2
v 0.3 3.2 0.3
v 0.3 3.2 0.2
v 0.3 3.2 -0.2
v -0.3 2.5 0.3
v -0.3 3.2 0.3
v -0.2 2.5 0.3
v -0.2 3.1 0.3
v -0.2 3.2 0.3
v -0.2 3.3 0.3
v 0.2 2.5 0.3
v 0.2 3.1 0.3
v 0.2 3.2 0.3
v 0.2 3.3 0.3
v 0.3 2.5 0.3
v 0.3 3.2 0.3
v -0.2 2.6 -0.2
v -0.2 3.2 -0.2
v -0.1 2.6 -0.2
v -0.1 3.2 -0.2
v 0.1 2.6 -0.2
v 0.1 3.2 -0.2
v 0.2 2.6 -0.2
v 0.2 3.2 -0.2
v -0.3 2.5 0.2
v -0.3 2.6 0.2
v -0.2 2.5 0.2
v -0.2 2.6 0.2
v -0.2 3.1 0.2
v -0.2 3.2 0.2
v -0.1 3.2 0.2
v 0.1 3.2 0.2
v 0.2 2.5 0.2
v 0.2 2.6 0.2
v 0.2 3.1 0.2
v 0.2 3.2 0.2
v 0.3 2.5 0.2
v 0.3 2.6 0.2
v -0.3 2.6 -0.2
v -0.3 3.2 -0.2
v -0.2 2.6 -0.2
v -0.2 3.2 -0.2
v -0.2 3.3 -0.2
v -0.1 3.2 -0.2
v -0.1 3.3 -0.2
v 0.1 3.2 -0.2
v 0.1 3.3 -0.2
v 0.2 2.6 -0.2
v 0.2 3.2 -0.2
v 0.2 3.3 -0.2
v 0.3 2.6 -0.2
v 0.3 3.2 -0.2
v -0.2 2.6 -0.3
v -0.2 3.2 -0.3
v -0.1 2.6 -0.3
v -0.1 3.2 -0.3
v 0.1 2.6 -0.3
v 0.1 3.2 -0.3
v 0.2 2.6 -0.3
v 0.2 3.2 -0.3
v -0.3 2.5 0.3
v -0.2 2.5 0.3
v 0.2 2.5 0.3
v 0.3 2.5 0.3
v -0.3 2.5 0.2
v -0.2 2.5 0.2
v 0.2 2.5 0.2
v 0.3 2.5 0.2
v -0.3 2.6 0.2
v -0.2 2.6 0.2
v 0.2 2.6 0.2
v 0.3 2.6 0.2
v -0.3 2.6 -0.2
v -0.2 2.6 -0.2
v -0.1 2.6 -0.2
v 0.1 2.6 -0.2
v 0.2 2.6 -0.2
v 0.3 2.6 -0.2
v -0.2 2.6 -0.3
v -0.1 2.6 -0.3
v 0.1 2.6 -0.3
v 0.2 2.6 -0.3
v -0.2 3.1 0.3
v 0.2 3.1 0.3
v -0.2 3.1 0.2
v 0.2 3.1 0.2
v -0.2 3.2 0.2
v -0.1 3.2 0.2
v 0.1 3.2 0.2
v 0.2 3.2 0.2
v -0.2 3.2 -0.2
v -0.1 3.2 -0.2
v 0.1 3.2 -0.2
v 0.2 3.2 -0.2
v -0.3 3.2 0.3
v -0.2 3.2 0.3
v 0.2 3.2 0.3
v 0.3 3.2 0.3
v -0.3 3.2 0.2
v -0.2 3.2 0.2
v 0.2 3.2 0.2
v 0.3 3.2 0.2
v -0.3 3.2 -0.2
v -0.2 3.2 -0.2
v -0.1 3.2 -0.2
v 0.1 3.2 -0.2
v 0.2 3.2 -0.2
v 0.3 3.2 -0.2
v -0.2 3.2 -0.3
v -0.1 3.2 -0.3
v 0.1 3.2 -0.3
v 0.2 3.2 -0.3
v -0.2 3.3 0.3
v 0.2 3.3 0.3
v -0.2 3.3 0.2
v -0.1 3.3 0.2
v 0.1 3.3 0.2
v 0.2 3.3 0.2
v -0.2 3.3 -0.2
v -0.1 3.3 -0.2
v 0.1 3.3 -0.2
v 0.2 3.3 -0.2

# faces
f 3/1/1 2/1/1 1/1/1
f 5/1/1 3/1/1 1/1/1
f 6/2/1 4/2/1 3/2/1
f 6/1/1 3/1/1 5/1/1
f 7/2/1 4/2/1 6/2/1
f 12/2/1 9/2/1 8/2/1
f 13/2/1 9/2/1 12/2/1
f 14/1/1 11/1/1 10/1/1
f 15/2/1 12/2/1 11/2/1
f 15/1/1 11/1/1 14/1/1
f 16/2/1 12/2/1 15/2/1
f 19/1/1 18/1/1 17/1/1
f 21/1/1 19/1/1 17/1/1
f 22/2/1 20/2/1 19/2/1
f 22/1/1 19/1/1 21/1/1
f 23/2/1 20/2/1 22/2/1
f 24/2/1 20/2/1 23/2/1
f 25/1/2 26/1/2 27/1/2
f 25/1/2 27/1/2 29/1/2
f 27/2/2 28/2/2 30/2/2
f 29/1/2 27/1/2 30/1/2
f 30/2/2 28/2/2 31/2/2
f 31/2/2 28/2/2 32/2/2
f 33/2/2 34/2/2 37/2/2
f 37/2/2 34/2/2 38/2/2
f 35/1/2 36/1/2 39/1/2
f 36/2/2 37/2/2 40/2/2
f 39/1/2 36/1/2 40/1/2
f 40/2/2 37/2/2 41/2/2
f 42/1/2 43/1/2 44/1/2
f 42/1/2 44/1/2 46/1/2
f 44/2/2 45/2/2 47/2/2
f 46/1/2 44/1/2 47/1/2
f 47/2/2 45/2/2 48/2/2
f 51/1/3 50/1/3 49/1/3
f 52/1/3 50/1/3 51/1/3
f 53/1/3 50/1/3 52/1/3
f 56/1/3 54/1/3 53/1/3
f 56/1/3 53/1/3 52/1/3
f 57/1/3 54/1/3 56/1/3
f 58/1/3 54/1/3 57/1/3
f 59/1/3 56/1/3 55/1/3
f 59/1/3 57/1/3 56/1/3
f 60/1/3 57/1/3 59/1/3
f 63/2/3 62/2/3 61/2/3
f 64/2/3 62/2/3 63/2/3
f 65/3/3 64/3/3 63/3/3
f 66/3/3 64/3/3 65/3/3
f 67/2/3 66/2/3 65/2/3
f 68/2/3 66/2/3 67/2/3
f 69/1/4 70/1/4 71/1/4
f 71/1/4 70/1/4 72/1/4
f 73/1/4 74/1/4 75/1/4
f 73/1/4 75/1/4 76/1/4
f 73/1/4 76/1/4 79/1/4
f 79/1/4 76/1/4 80/1/4
f 77/1/4 78/1/4 81/1/4
f 81/1/4 78/1/4 82/1/4
f 83/2/4 84/2/4 85/2/4
f 85/2/4 84/2/4 86/2/4
f 86/2/4 87/2/4 88/2/4
f 88/2/4 87/2/4 89/2/4
f 88/3/4 89/3/4 90/3/4
f 90/3/4 89/3/4 91/3/4
f 90/2/4 91/2/4 93/2/4
f 93/2/4 91/2/4 94/2/4
f 92/2/4 93/2/4 95/2/4
f 95/2/4 93/2/4 96/2/4
f 97/2/4 98/2/4 99/2/4
f 99/2/4 98/2/4 100/2/4
f 99/3/4 100/3/4 101/3/4
f 101/3/4 100/3/4 102/3/4
f 101/2/4 102/2/4 103/2/4
f 103/2/4 102/2/4 104/2/4
f 109/1/5 106/1/5 105/1/5
f 110/1/5 106/1/5 109/1/5
f 111/1/5 108/1/5 107/1/5
f 112/1/5 108/1/5 111/1/5
f 117/2/5 114/2/5 113/2/5
f 118/2/5 114/2/5 117/2/5
f 121/2/5 116/2/5 115/2/5
f 122/2/5 116/2/5 121/2/5
f 123/2/5 119/2/5 118/2/5
f 124/3/5 120/3/5 119/3/5
f 124/2/5 119/2/5 123/2/5
f 125/2/5 121/2/5 120/2/5
f 125/3/5 120/3/5 124/3/5
f 126/2/5 121/2/5 125/2/5
f 129/1/5 128/1/5 127/1/5
f 130/1/5 128/1/5 129/1/5
f 135/2/5 132/2/5 131/2/5
f 136/3/5 133/3/5 132/3/5
f 136/2/5 132/2/5 135/2/5
f 137/2/5 134/2/5 133/2/5
f 137/3/5 133/3/5 136/3/5
f 138/2/5 134/2/5 137/2/5
f 139/1/6 140/1/6 143/1/6
f 143/1/6 140/1/6 144/1/6
f 141/1/6 142/1/6 145/1/6
f 145/1/6 142/1/6 146/1/6
f 143/2/6 144/2/6 147/2/6
f 147/2/6 144/2/6 148/2/6
f 145/2/6 146/2/6 151/2/6
f 151/2/6 146/2/6 152/2/6
f 148/2/6 149/2/6 153/2/6
f 149/3/6 150/3/6 154/3/6
f 153/2/6 149/2/6 154/2/6
f 150/2/6 151/2/6 155/2/6
f 154/3/6 150/3/6 155/3/6
f 155/2/6 151/2/6 156/2/6
f 157/1/6 158/1/6 159/1/6
f 159/1/6 158/1/6 160/1/6
f 160/1/6 158/1/6 161/1/6
f 161/1/6 158/1/6 162/1/6
f 159/2/6 160/2/6 163/2/6
f 160/3/6 161/3/6 164/3/6
f 163/2/6 160/2/6 164/2/6
f 161/2/6 162/2/6 165/2/6
f 164/3/6 161/3/6 165/3/6
f 165/2/6 162/2/6 166/2/6
