# MagicaVoxel @ Ephtracy

# group
o helm_lgt_3c_ja_color

# material
mtllib char-68-helm_lgt_3c_ja_color.mtl
usemtl palette

# normals
vn -1 0 0
vn 1 0 0
vn 0 0 1
vn 0 0 -1
vn 0 -1 0
vn 0 1 0

# texcoords
vt 0.494141 0.5
vt 0.623047 0.5

# verts
v -0.4 2.9 0.1
v -0.4 2.9 -0.1
v -0.4 3 0.1
v -0.4 3 -0.1
v -0.4 3.3 0.1
v -0.4 3.3 -0.1
v -0.3 3.1 0.2
v -0.3 3.1 0.1
v -0.3 3.1 -0.1
v -0.3 3.1 -0.2
v -0.3 3.3 0.2
v -0.3 3.3 0.1
v -0.3 3.3 -0.1
v -0.3 3.3 -0.2
v -0.3 3.4 0.1
v -0.3 3.4 -0.1
v -0.2 3.1 0.3
v -0.2 3.1 0.2
v -0.2 3.1 -0.2
v -0.2 3.1 -0.3
v -0.2 3.3 0.3
v -0.2 3.3 0.2
v -0.2 3.3 0.1
v -0.2 3.3 -0.1
v -0.2 3.3 -0.2
v -0.2 3.3 -0.3
v -0.2 3.4 0.2
v -0.2 3.4 0.1
v -0.2 3.4 -0.1
v -0.2 3.4 -0.2
v -0.2 3.5 0.1
v -0.2 3.5 -0.1
v 0.2 3.1 0.2
v 0.2 3.1 -0.2
v 0.2 3.2 0.2
v 0.2 3.2 -0.2
v -0.3 2.9 0.1
v -0.3 2.9 -0.1
v -0.3 3 0.1
v -0.3 3 -0.1
v -0.3 3.1 0.1
v -0.3 3.1 -0.1
v -0.2 3.1 0.2
v -0.2 3.1 -0.2
v -0.2 3.2 0.2
v -0.2 3.2 -0.2
v 0.1 3.4 0.1
v 0.1 3.4 -0.1
v 0.1 3.5 0.1
v 0.1 3.5 -0.1
v 0.2 3.1 0.3
v 0.2 3.1 0.2
v 0.2 3.1 -0.2
v 0.2 3.1 -0.3
v 0.2 3.3 0.3
v 0.2 3.3 0.2
v 0.2 3.3 -0.2
v 0.2 3.3 -0.3
v 0.2 3.4 0.2
v 0.2 3.4 -0.2
v 0.3 3.1 0.2
v 0.3 3.1 -0.2
v 0.3 3.3 0.2
v 0.3 3.3 -0.2
v -0.2 3.1 0.3
v -0.2 3.3 0.3
v 0.2 3.1 0.3
v 0.2 3.3 0.3
v -0.3 3.1 0.2
v -0.3 3.3 0.2
v -0.2 3.1 0.2
v -0.2 3.3 0.2
v -0.2 3.4 0.2
v 0.2 3.1 0.2
v 0.2 3.3 0.2
v 0.2 3.4 0.2
v 0.3 3.1 0.2
v 0.3 3.3 0.2
v -0.4 2.9 0.1
v -0.4 3 0.1
v -0.4 3.3 0.1
v -0.3 2.9 0.1
v -0.3 3 0.1
v -0.3 3.1 0.1
v -0.3 3.3 0.1
v -0.3 3.4 0.1
v -0.2 3.3 0.1
v -0.2 3.4 0.1
v -0.2 3.5 0.1
v 0.1 3.4 0.1
v 0.1 3.5 0.1
v -0.2 3.1 -0.2
v -0.2 3.2 -0.2
v 0.2 3.1 -0.2
v 0.2 3.2 -0.2
v -0.2 3.1 0.2
v -0.2 3.2 0.2
v 0.2 3.1 0.2
v 0.2 3.2 0.2
v -0.4 2.9 -0.1
v -0.4 3 -0.1
v -0.4 3.3 -0.1
v -0.3 2.9 -0.1
v -0.3 3 -0.1
v -0.3 3.1 -0.1
v -0.3 3.3 -0.1
v -0.3 3.4 -0.1
v -0.2 3.3 -0.1
v -0.2 3.4 -0.1
v -0.2 3.5 -0.1
v 0.1 3.4 -0.1
v 0.1 3.5 -0.1
v -0.3 3.1 -0.2
v -0.3 3.3 -0.2
v -0.2 3.1 -0.2
v -0.2 3.3 -0.2
v -0.2 3.4 -0.2
v 0.2 3.1 -0.2
v 0.2 3.3 -0.2
v 0.2 3.4 -0.2
v 0.3 3.1 -0.2
v 0.3 3.3 -0.2
v -0.2 3.1 -0.3
v -0.2 3.3 -0.3
v 0.2 3.1 -0.3
v 0.2 3.3 -0.3
v -0.4 2.9 0.1
v -0.3 2.9 0.1
v -0.4 2.9 -0.1
v -0.3 2.9 -0.1
v -0.2 3.1 0.3
v 0.2 3.1 0.3
v -0.3 3.1 0.2
v -0.2 3.1 0.2
v 0.2 3.1 0.2
v 0.3 3.1 0.2
v -0.3 3.1 0.1
v -0.3 3.1 -0.1
v -0.3 3.1 -0.2
v -0.2 3.1 -0.2
v 0.2 3.1 -0.2
v 0.3 3.1 -0.2
v -0.2 3.1 -0.3
v 0.2 3.1 -0.3
v -0.2 3.2 0.2
v 0.2 3.2 0.2
v -0.2 3.2 -0.2
v 0.2 3.2 -0.2
v -0.2 3.3 0.3
v 0.2 3.3 0.3
v -0.3 3.3 0.2
v -0.2 3.3 0.2
v 0.2 3.3 0.2
v 0.3 3.3 0.2
v -0.4 3.3 0.1
v -0.3 3.3 0.1
v -0.2 3.3 0.1
v -0.4 3.3 -0.1
v -0.3 3.3 -0.1
v -0.2 3.3 -0.1
v -0.3 3.3 -0.2
v -0.2 3.3 -0.2
v 0.2 3.3 -0.2
v 0.3 3.3 -0.2
v -0.2 3.3 -0.3
v 0.2 3.3 -0.3
v -0.2 3.4 0.2
v 0.2 3.4 0.2
v -0.3 3.4 0.1
v -0.2 3.4 0.1
v 0.1 3.4 0.1
v -0.3 3.4 -0.1
v -0.2 3.4 -0.1
v 0.1 3.4 -0.1
v -0.2 3.4 -0.2
v 0.2 3.4 -0.2
v -0.2 3.5 0.1
v 0.1 3.5 0.1
v -0.2 3.5 -0.1
v 0.1 3.5 -0.1

# faces
f 3/2/1 2/2/1 1/2/1
f 4/2/1 2/2/1 3/2/1
f 5/1/1 4/1/1 3/1/1
f 6/1/1 4/1/1 5/1/1
f 11/2/1 8/2/1 7/2/1
f 12/2/1 8/2/1 11/2/1
f 13/2/1 10/2/1 9/2/1
f 14/2/1 10/2/1 13/2/1
f 15/1/1 13/1/1 12/1/1
f 16/1/1 13/1/1 15/1/1
f 21/2/1 18/2/1 17/2/1
f 22/2/1 18/2/1 21/2/1
f 25/2/1 20/2/1 19/2/1
f 26/2/1 20/2/1 25/2/1
f 27/1/1 23/1/1 22/1/1
f 28/1/1 23/1/1 27/1/1
f 29/1/1 25/1/1 24/1/1
f 30/1/1 25/1/1 29/1/1
f 31/1/1 29/1/1 28/1/1
f 32/1/1 29/1/1 31/1/1
f 35/2/1 34/2/1 33/2/1
f 36/2/1 34/2/1 35/2/1
f 37/2/2 38/2/2 39/2/2
f 39/2/2 38/2/2 40/2/2
f 39/1/2 40/1/2 41/1/2
f 41/1/2 40/1/2 42/1/2
f 43/2/2 44/2/2 45/2/2
f 45/2/2 44/2/2 46/2/2
f 47/1/2 48/1/2 49/1/2
f 49/1/2 48/1/2 50/1/2
f 51/2/2 52/2/2 55/2/2
f 55/2/2 52/2/2 56/2/2
f 53/2/2 54/2/2 57/2/2
f 57/2/2 54/2/2 58/2/2
f 56/1/2 57/1/2 59/1/2
f 59/1/2 57/1/2 60/1/2
f 61/2/2 62/2/2 63/2/2
f 63/2/2 62/2/2 64/2/2
f 67/2/3 66/2/3 65/2/3
f 68/2/3 66/2/3 67/2/3
f 71/2/3 70/2/3 69/2/3
f 72/2/3 70/2/3 71/2/3
f 75/1/3 73/1/3 72/1/3
f 76/1/3 73/1/3 75/1/3
f 77/2/3 75/2/3 74/2/3
f 78/2/3 75/2/3 77/2/3
f 82/2/3 80/2/3 79/2/3
f 83/1/3 81/1/3 80/1/3
f 83/2/3 80/2/3 82/2/3
f 84/1/3 81/1/3 83/1/3
f 85/1/3 81/1/3 84/1/3
f 87/1/3 86/1/3 85/1/3
f 88/1/3 86/1/3 87/1/3
f 90/1/3 89/1/3 88/1/3
f 91/1/3 89/1/3 90/1/3
f 94/2/3 93/2/3 92/2/3
f 95/2/3 93/2/3 94/2/3
f 96/2/4 97/2/4 98/2/4
f 98/2/4 97/2/4 99/2/4
f 100/2/4 101/2/4 103/2/4
f 101/1/4 102/1/4 104/1/4
f 103/2/4 101/2/4 104/2/4
f 104/1/4 102/1/4 105/1/4
f 105/1/4 102/1/4 106/1/4
f 106/1/4 107/1/4 108/1/4
f 108/1/4 107/1/4 109/1/4
f 109/1/4 110/1/4 111/1/4
f 111/1/4 110/1/4 112/1/4
f 113/2/4 114/2/4 115/2/4
f 115/2/4 114/2/4 116/2/4
f 116/1/4 117/1/4 119/1/4
f 119/1/4 117/1/4 120/1/4
f 118/2/4 119/2/4 121/2/4
f 121/2/4 119/2/4 122/2/4
f 123/2/4 124/2/4 125/2/4
f 125/2/4 124/2/4 126/2/4
f 129/2/5 128/2/5 127/2/5
f 130/2/5 128/2/5 129/2/5
f 134/2/5 132/2/5 131/2/5
f 135/2/5 132/2/5 134/2/5
f 137/2/5 134/2/5 133/2/5
f 138/2/5 134/2/5 137/2/5
f 139/2/5 134/2/5 138/2/5
f 140/2/5 134/2/5 139/2/5
f 141/2/5 136/2/5 135/2/5
f 142/2/5 136/2/5 141/2/5
f 143/2/5 141/2/5 140/2/5
f 144/2/5 141/2/5 143/2/5
f 147/1/5 146/1/5 145/1/5
f 148/1/5 146/1/5 147/1/5
f 149/2/6 150/2/6 152/2/6
f 152/2/6 150/2/6 153/2/6
f 151/2/6 152/2/6 156/2/6
f 156/2/6 152/2/6 157/2/6
f 155/1/6 156/1/6 158/1/6
f 158/1/6 156/1/6 159/1/6
f 159/2/6 160/2/6 161/2/6
f 161/2/6 160/2/6 162/2/6
f 153/2/6 154/2/6 163/2/6
f 163/2/6 154/2/6 164/2/6
f 162/2/6 163/2/6 165/2/6
f 165/2/6 163/2/6 166/2/6
f 167/1/6 168/1/6 170/1/6
f 170/1/6 168/1/6 171/1/6
f 169/1/6 170/1/6 172/1/6
f 172/1/6 170/1/6 173/1/6
f 171/1/6 168/1/6 174/1/6
f 173/1/6 174/1/6 175/1/6
f 174/1/6 168/1/6 176/1/6
f 175/1/6 174/1/6 176/1/6
f 177/1/6 178/1/6 179/1/6
f 179/1/6 178/1/6 180/1/6
