# MagicaVoxel @ Ephtracy

# group
o shield_med_2_sh

# material
mtllib char-10-shield_med_2_sh.mtl
usemtl palette

# normals
vn 0 -1 0
vn 0 1 0
vn 1 0 0
vn -1 0 0
vn 0 0 -1
vn 0 0 1

# texcoords
vt 0.701172 0.5
vt 0.740234 0.5
vt 0.962891 0.5

# verts
v 0.8 1.1 0.4
v 0.7 1.1 0.4
v 0.8 1.1 0.8
v 0.7 1.1 0.8
v 0.8 1.2 0.2
v 0.7 1.2 0.2
v 0.8 1.2 0.4
v 0.7 1.2 0.4
v 0.8 1.2 0.8
v 0.7 1.2 0.8
v 0.8 1.2 1
v 0.7 1.2 1
v 0.8 1.3 0.1
v 0.7 1.3 0.1
v 0.8 1.3 0.2
v 0.7 1.3 0.2
v 0.8 1.3 1
v 0.7 1.3 1
v 0.8 1.3 1.1
v 0.7 1.3 1.1
v 0.8 1.5 0
v 0.7 1.5 0
v 0.8 1.5 0.1
v 0.7 1.5 0.1
v 0.8 1.5 1.1
v 0.7 1.5 1.1
v 0.8 1.5 1.2
v 0.7 1.5 1.2
v 0.9 1.6 0.5
v 0.8 1.6 0.5
v 0.9 1.6 0.7
v 0.8 1.6 0.7
v 0.8 1.8 0.5
v 0.7 1.8 0.5
v 0.8 1.8 0.7
v 0.7 1.8 0.7
v 0.8 1.6 0.5
v 0.7 1.6 0.5
v 0.8 1.6 0.7
v 0.7 1.6 0.7
v 0.9 1.8 0.5
v 0.8 1.8 0.5
v 0.9 1.8 0.7
v 0.8 1.8 0.7
v 0.8 1.9 0
v 0.7 1.9 0
v 0.8 1.9 0.1
v 0.7 1.9 0.1
v 0.8 1.9 1.1
v 0.7 1.9 1.1
v 0.8 1.9 1.2
v 0.7 1.9 1.2
v 0.8 2.1 0.1
v 0.7 2.1 0.1
v 0.8 2.1 0.2
v 0.7 2.1 0.2
v 0.8 2.1 1
v 0.7 2.1 1
v 0.8 2.1 1.1
v 0.7 2.1 1.1
v 0.8 2.2 0.2
v 0.7 2.2 0.2
v 0.8 2.2 0.4
v 0.7 2.2 0.4
v 0.8 2.2 0.8
v 0.7 2.2 0.8
v 0.8 2.2 1
v 0.7 2.2 1
v 0.8 2.3 0.4
v 0.7 2.3 0.4
v 0.8 2.3 0.8
v 0.7 2.3 0.8
v 0.9 1.6 0.5
v 0.9 1.6 0.7
v 0.9 1.8 0.5
v 0.9 1.8 0.7
v 0.8 1.1 0.4
v 0.8 1.1 0.8
v 0.8 1.2 0.2
v 0.8 1.2 0.4
v 0.8 1.2 0.5
v 0.8 1.2 0.7
v 0.8 1.2 0.8
v 0.8 1.2 1
v 0.8 1.3 0.1
v 0.8 1.3 0.2
v 0.8 1.3 0.3
v 0.8 1.3 0.5
v 0.8 1.3 0.7
v 0.8 1.3 0.9
v 0.8 1.3 1
v 0.8 1.3 1.1
v 0.8 1.4 0.2
v 0.8 1.4 0.3
v 0.8 1.4 0.4
v 0.8 1.4 0.8
v 0.8 1.4 0.9
v 0.8 1.4 1
v 0.8 1.5 0
v 0.8 1.5 0.1
v 0.8 1.5 0.3
v 0.8 1.5 0.4
v 0.8 1.5 0.8
v 0.8 1.5 0.9
v 0.8 1.5 1.1
v 0.8 1.5 1.2
v 0.8 1.6 0.1
v 0.8 1.6 0.2
v 0.8 1.6 0.5
v 0.8 1.6 0.7
v 0.8 1.6 1
v 0.8 1.6 1.1
v 0.8 1.8 0.1
v 0.8 1.8 0.2
v 0.8 1.8 0.5
v 0.8 1.8 0.7
v 0.8 1.8 1
v 0.8 1.8 1.1
v 0.8 1.9 0
v 0.8 1.9 0.1
v 0.8 1.9 0.3
v 0.8 1.9 0.4
v 0.8 1.9 0.8
v 0.8 1.9 0.9
v 0.8 1.9 1.1
v 0.8 1.9 1.2
v 0.8 2 0.2
v 0.8 2 0.3
v 0.8 2 0.4
v 0.8 2 0.8
v 0.8 2 0.9
v 0.8 2 1
v 0.8 2.1 0.1
v 0.8 2.1 0.2
v 0.8 2.1 0.3
v 0.8 2.1 0.5
v 0.8 2.1 0.7
v 0.8 2.1 0.9
v 0.8 2.1 1
v 0.8 2.1 1.1
v 0.8 2.2 0.2
v 0.8 2.2 0.4
v 0.8 2.2 0.5
v 0.8 2.2 0.7
v 0.8 2.2 0.8
v 0.8 2.2 1
v 0.8 2.3 0.4
v 0.8 2.3 0.8
v 0.8 1.6 0.5
v 0.8 1.6 0.7
v 0.8 1.8 0.5
v 0.8 1.8 0.7
v 0.7 1.1 0.4
v 0.7 1.1 0.8
v 0.7 1.2 0.2
v 0.7 1.2 0.4
v 0.7 1.2 0.5
v 0.7 1.2 0.7
v 0.7 1.2 0.8
v 0.7 1.2 1
v 0.7 1.3 0.1
v 0.7 1.3 0.2
v 0.7 1.3 0.3
v 0.7 1.3 0.5
v 0.7 1.3 0.7
v 0.7 1.3 0.9
v 0.7 1.3 1
v 0.7 1.3 1.1
v 0.7 1.4 0.2
v 0.7 1.4 0.3
v 0.7 1.4 0.4
v 0.7 1.4 0.8
v 0.7 1.4 0.9
v 0.7 1.4 1
v 0.7 1.5 0
v 0.7 1.5 0.1
v 0.7 1.5 0.3
v 0.7 1.5 0.4
v 0.7 1.5 0.8
v 0.7 1.5 0.9
v 0.7 1.5 1.1
v 0.7 1.5 1.2
v 0.7 1.6 0.1
v 0.7 1.6 0.2
v 0.7 1.6 0.5
v 0.7 1.6 0.7
v 0.7 1.6 1
v 0.7 1.6 1.1
v 0.7 1.8 0.1
v 0.7 1.8 0.2
v 0.7 1.8 0.5
v 0.7 1.8 0.7
v 0.7 1.8 1
v 0.7 1.8 1.1
v 0.7 1.9 0
v 0.7 1.9 0.1
v 0.7 1.9 0.3
v 0.7 1.9 0.4
v 0.7 1.9 0.8
v 0.7 1.9 0.9
v 0.7 1.9 1.1
v 0.7 1.9 1.2
v 0.7 2 0.2
v 0.7 2 0.3
v 0.7 2 0.4
v 0.7 2 0.8
v 0.7 2 0.9
v 0.7 2 1
v 0.7 2.1 0.1
v 0.7 2.1 0.2
v 0.7 2.1 0.3
v 0.7 2.1 0.5
v 0.7 2.1 0.7
v 0.7 2.1 0.9
v 0.7 2.1 1
v 0.7 2.1 1.1
v 0.7 2.2 0.2
v 0.7 2.2 0.4
v 0.7 2.2 0.5
v 0.7 2.2 0.7
v 0.7 2.2 0.8
v 0.7 2.2 1
v 0.7 2.3 0.4
v 0.7 2.3 0.8
v 0.8 1.5 0
v 0.8 1.9 0
v 0.7 1.5 0
v 0.7 1.9 0
v 0.8 1.3 0.1
v 0.8 1.5 0.1
v 0.8 1.9 0.1
v 0.8 2.1 0.1
v 0.7 1.3 0.1
v 0.7 1.5 0.1
v 0.7 1.9 0.1
v 0.7 2.1 0.1
v 0.8 1.2 0.2
v 0.8 1.3 0.2
v 0.8 2.1 0.2
v 0.8 2.2 0.2
v 0.7 1.2 0.2
v 0.7 1.3 0.2
v 0.7 2.1 0.2
v 0.7 2.2 0.2
v 0.8 1.1 0.4
v 0.8 1.2 0.4
v 0.8 2.2 0.4
v 0.8 2.3 0.4
v 0.7 1.1 0.4
v 0.7 1.2 0.4
v 0.7 2.2 0.4
v 0.7 2.3 0.4
v 0.9 1.6 0.5
v 0.9 1.8 0.5
v 0.8 1.6 0.5
v 0.8 1.8 0.5
v 0.8 1.6 0.7
v 0.8 1.8 0.7
v 0.7 1.6 0.7
v 0.7 1.8 0.7
v 0.8 1.6 0.5
v 0.8 1.8 0.5
v 0.7 1.6 0.5
v 0.7 1.8 0.5
v 0.9 1.6 0.7
v 0.9 1.8 0.7
v 0.8 1.6 0.7
v 0.8 1.8 0.7
v 0.8 1.1 0.8
v 0.8 1.2 0.8
v 0.8 2.2 0.8
v 0.8 2.3 0.8
v 0.7 1.1 0.8
v 0.7 1.2 0.8
v 0.7 2.2 0.8
v 0.7 2.3 0.8
v 0.8 1.2 1
v 0.8 1.3 1
v 0.8 2.1 1
v 0.8 2.2 1
v 0.7 1.2 1
v 0.7 1.3 1
v 0.7 2.1 1
v 0.7 2.2 1
v 0.8 1.3 1.1
v 0.8 1.5 1.1
v 0.8 1.9 1.1
v 0.8 2.1 1.1
v 0.7 1.3 1.1
v 0.7 1.5 1.1
v 0.7 1.9 1.1
v 0.7 2.1 1.1
v 0.8 1.5 1.2
v 0.8 1.9 1.2
v 0.7 1.5 1.2
v 0.7 1.9 1.2

# faces
f 3/1/1 2/1/1 1/1/1
f 4/1/1 2/1/1 3/1/1
f 7/1/1 6/1/1 5/1/1
f 8/1/1 6/1/1 7/1/1
f 11/1/1 10/1/1 9/1/1
f 12/1/1 10/1/1 11/1/1
f 15/1/1 14/1/1 13/1/1
f 16/1/1 14/1/1 15/1/1
f 19/1/1 18/1/1 17/1/1
f 20/1/1 18/1/1 19/1/1
f 23/1/1 22/1/1 21/1/1
f 24/1/1 22/1/1 23/1/1
f 27/1/1 26/1/1 25/1/1
f 28/1/1 26/1/1 27/1/1
f 31/3/1 30/3/1 29/3/1
f 32/3/1 30/3/1 31/3/1
f 35/2/1 34/2/1 33/2/1
f 36/2/1 34/2/1 35/2/1
f 37/2/2 38/2/2 39/2/2
f 39/2/2 38/2/2 40/2/2
f 41/3/2 42/3/2 43/3/2
f 43/3/2 42/3/2 44/3/2
f 45/1/2 46/1/2 47/1/2
f 47/1/2 46/1/2 48/1/2
f 49/1/2 50/1/2 51/1/2
f 51/1/2 50/1/2 52/1/2
f 53/1/2 54/1/2 55/1/2
f 55/1/2 54/1/2 56/1/2
f 57/1/2 58/1/2 59/1/2
f 59/1/2 58/1/2 60/1/2
f 61/1/2 62/1/2 63/1/2
f 63/1/2 62/1/2 64/1/2
f 65/1/2 66/1/2 67/1/2
f 67/1/2 66/1/2 68/1/2
f 69/1/2 70/1/2 71/1/2
f 71/1/2 70/1/2 72/1/2
f 75/3/3 74/3/3 73/3/3
f 76/3/3 74/3/3 75/3/3
f 80/1/3 78/1/3 77/1/3
f 81/1/3 78/1/3 80/1/3
f 82/1/3 78/1/3 81/1/3
f 83/1/3 78/1/3 82/1/3
f 86/1/3 80/1/3 79/1/3
f 86/1/3 81/1/3 80/1/3
f 87/1/3 81/1/3 86/1/3
f 88/3/3 82/3/3 81/3/3
f 88/1/3 81/1/3 87/1/3
f 89/1/3 84/1/3 83/1/3
f 89/3/3 82/3/3 88/3/3
f 89/1/3 83/1/3 82/1/3
f 90/1/3 84/1/3 89/1/3
f 91/1/3 84/1/3 90/1/3
f 93/1/3 86/1/3 85/1/3
f 93/1/3 87/1/3 86/1/3
f 94/3/3 88/3/3 87/3/3
f 94/1/3 87/1/3 93/1/3
f 94/3/3 89/3/3 88/3/3
f 94/3/3 90/3/3 89/3/3
f 95/3/3 90/3/3 94/3/3
f 96/3/3 90/3/3 95/3/3
f 97/1/3 92/1/3 91/1/3
f 97/3/3 90/3/3 96/3/3
f 97/1/3 91/1/3 90/1/3
f 98/1/3 92/1/3 97/1/3
f 100/1/3 93/1/3 85/1/3
f 101/3/3 95/3/3 94/3/3
f 101/3/3 94/3/3 93/3/3
f 102/2/3 96/2/3 95/2/3
f 102/3/3 95/3/3 101/3/3
f 103/3/3 97/3/3 96/3/3
f 103/2/3 96/2/3 102/2/3
f 103/3/3 98/3/3 97/3/3
f 104/3/3 98/3/3 103/3/3
f 105/1/3 92/1/3 98/1/3
f 107/1/3 100/1/3 99/1/3
f 107/1/3 93/1/3 100/1/3
f 108/3/3 101/3/3 93/3/3
f 108/1/3 93/1/3 107/1/3
f 109/2/3 102/2/3 101/2/3
f 109/2/3 103/2/3 102/2/3
f 109/2/3 104/2/3 103/2/3
f 110/2/3 104/2/3 109/2/3
f 111/3/3 98/3/3 104/3/3
f 111/1/3 106/1/3 105/1/3
f 111/1/3 105/1/3 98/1/3
f 112/1/3 106/1/3 111/1/3
f 113/1/3 107/1/3 99/1/3
f 113/3/3 108/3/3 107/3/3
f 114/3/3 101/3/3 108/3/3
f 114/3/3 108/3/3 113/3/3
f 115/2/3 109/2/3 101/2/3
f 116/2/3 104/2/3 110/2/3
f 117/3/3 112/3/3 111/3/3
f 117/3/3 111/3/3 104/3/3
f 118/1/3 106/1/3 112/1/3
f 118/3/3 112/3/3 117/3/3
f 119/1/3 113/1/3 99/1/3
f 119/1/3 114/1/3 113/1/3
f 120/1/3 114/1/3 119/1/3
f 121/2/3 115/2/3 101/2/3
f 121/2/3 116/2/3 115/2/3
f 121/3/3 101/3/3 114/3/3
f 122/2/3 116/2/3 121/2/3
f 123/2/3 104/2/3 116/2/3
f 123/2/3 116/2/3 122/2/3
f 124/3/3 117/3/3 104/3/3
f 124/2/3 104/2/3 123/2/3
f 125/1/3 106/1/3 118/1/3
f 125/1/3 118/1/3 117/1/3
f 126/1/3 106/1/3 125/1/3
f 127/1/3 114/1/3 120/1/3
f 127/3/3 122/3/3 121/3/3
f 127/3/3 121/3/3 114/3/3
f 128/3/3 122/3/3 127/3/3
f 129/2/3 123/2/3 122/2/3
f 129/3/3 122/3/3 128/3/3
f 130/3/3 124/3/3 123/3/3
f 130/2/3 123/2/3 129/2/3
f 131/3/3 117/3/3 124/3/3
f 131/3/3 124/3/3 130/3/3
f 132/1/3 125/1/3 117/1/3
f 132/3/3 117/3/3 131/3/3
f 133/1/3 128/1/3 127/1/3
f 133/1/3 127/1/3 120/1/3
f 134/1/3 128/1/3 133/1/3
f 135/3/3 131/3/3 130/3/3
f 135/1/3 128/1/3 134/1/3
f 135/3/3 130/3/3 129/3/3
f 135/3/3 129/3/3 128/3/3
f 136/3/3 131/3/3 135/3/3
f 137/3/3 131/3/3 136/3/3
f 138/1/3 132/1/3 131/1/3
f 138/3/3 131/3/3 137/3/3
f 139/1/3 125/1/3 132/1/3
f 139/1/3 132/1/3 138/1/3
f 140/1/3 125/1/3 139/1/3
f 141/1/3 135/1/3 134/1/3
f 141/1/3 136/1/3 135/1/3
f 142/1/3 136/1/3 141/1/3
f 143/3/3 137/3/3 136/3/3
f 143/1/3 136/1/3 142/1/3
f 144/1/3 138/1/3 137/1/3
f 144/3/3 137/3/3 143/3/3
f 144/1/3 139/1/3 138/1/3
f 145/1/3 139/1/3 144/1/3
f 146/1/3 139/1/3 145/1/3
f 147/1/3 143/1/3 142/1/3
f 147/1/3 145/1/3 144/1/3
f 147/1/3 144/1/3 143/1/3
f 148/1/3 145/1/3 147/1/3
f 149/3/4 150/3/4 151/3/4
f 151/3/4 150/3/4 152/3/4
f 153/1/4 154/1/4 156/1/4
f 156/1/4 154/1/4 157/1/4
f 157/1/4 154/1/4 158/1/4
f 158/1/4 154/1/4 159/1/4
f 155/1/4 156/1/4 162/1/4
f 156/1/4 157/1/4 162/1/4
f 162/1/4 157/1/4 163/1/4
f 157/3/4 158/3/4 164/3/4
f 163/1/4 157/1/4 164/1/4
f 159/1/4 160/1/4 165/1/4
f 164/3/4 158/3/4 165/3/4
f 158/1/4 159/1/4 165/1/4
f 165/1/4 160/1/4 166/1/4
f 166/1/4 160/1/4 167/1/4
f 161/1/4 162/1/4 169/1/4
f 162/1/4 163/1/4 169/1/4
f 163/3/4 164/3/4 170/3/4
f 169/1/4 163/1/4 170/1/4
f 164/3/4 165/3/4 170/3/4
f 165/3/4 166/3/4 170/3/4
f 170/3/4 166/3/4 171/3/4
f 171/3/4 166/3/4 172/3/4
f 167/1/4 168/1/4 173/1/4
f 172/3/4 166/3/4 173/3/4
f 166/1/4 167/1/4 173/1/4
f 173/1/4 168/1/4 174/1/4
f 161/1/4 169/1/4 176/1/4
f 170/3/4 171/3/4 177/3/4
f 169/3/4 170/3/4 177/3/4
f 171/2/4 172/2/4 178/2/4
f 177/3/4 171/3/4 178/3/4
f 172/3/4 173/3/4 179/3/4
f 178/2/4 172/2/4 179/2/4
f 173/3/4 174/3/4 179/3/4
f 179/3/4 174/3/4 180/3/4
f 174/1/4 168/1/4 181/1/4
f 175/1/4 176/1/4 183/1/4
f 176/1/4 169/1/4 183/1/4
f 169/3/4 177/3/4 184/3/4
f 183/1/4 169/1/4 184/1/4
f 177/2/4 178/2/4 185/2/4
f 178/2/4 179/2/4 185/2/4
f 179/2/4 180/2/4 185/2/4
f 185/2/4 180/2/4 186/2/4
f 180/3/4 174/3/4 187/3/4
f 181/1/4 182/1/4 187/1/4
f 174/1/4 181/1/4 187/1/4
f 187/1/4 182/1/4 188/1/4
f 175/1/4 183/1/4 189/1/4
f 183/3/4 184/3/4 189/3/4
f 184/3/4 177/3/4 190/3/4
f 189/3/4 184/3/4 190/3/4
f 177/2/4 185/2/4 191/2/4
f 186/2/4 180/2/4 192/2/4
f 187/3/4 188/3/4 193/3/4
f 180/3/4 187/3/4 193/3/4
f 188/1/4 182/1/4 194/1/4
f 193/3/4 188/3/4 194/3/4
f 175/1/4 189/1/4 195/1/4
f 189/1/4 190/1/4 195/1/4
f 195/1/4 190/1/4 196/1/4
f 177/2/4 191/2/4 197/2/4
f 191/2/4 192/2/4 197/2/4
f 190/3/4 177/3/4 197/3/4
f 197/2/4 192/2/4 198/2/4
f 192/2/4 180/2/4 199/2/4
f 198/2/4 192/2/4 199/2/4
f 180/3/4 193/3/4 200/3/4
f 199/2/4 180/2/4 200/2/4
f 194/1/4 182/1/4 201/1/4
f 193/1/4 194/1/4 201/1/4
f 201/1/4 182/1/4 202/1/4
f 196/1/4 190/1/4 203/1/4
f 197/3/4 198/3/4 203/3/4
f 190/3/4 197/3/4 203/3/4
f 203/3/4 198/3/4 204/3/4
f 198/2/4 199/2/4 205/2/4
f 204/3/4 198/3/4 205/3/4
f 199/3/4 200/3/4 206/3/4
f 205/2/4 199/2/4 206/2/4
f 200/3/4 193/3/4 207/3/4
f 206/3/4 200/3/4 207/3/4
f 193/1/4 201/1/4 208/1/4
f 207/3/4 193/3/4 208/3/4
f 203/1/4 204/1/4 209/1/4
f 196/1/4 203/1/4 209/1/4
f 209/1/4 204/1/4 210/1/4
f 206/3/4 207/3/4 211/3/4
f 210/1/4 204/1/4 211/1/4
f 205/3/4 206/3/4 211/3/4
f 204/3/4 205/3/4 211/3/4
f 211/3/4 207/3/4 212/3/4
f 212/3/4 207/3/4 213/3/4
f 207/1/4 208/1/4 214/1/4
f 213/3/4 207/3/4 214/3/4
f 208/1/4 201/1/4 215/1/4
f 214/1/4 208/1/4 215/1/4
f 215/1/4 201/1/4 216/1/4
f 210/1/4 211/1/4 217/1/4
f 211/1/4 212/1/4 217/1/4
f 217/1/4 212/1/4 218/1/4
f 212/3/4 213/3/4 219/3/4
f 218/1/4 212/1/4 219/1/4
f 213/1/4 214/1/4 220/1/4
f 219/3/4 213/3/4 220/3/4
f 214/1/4 215/1/4 220/1/4
f 220/1/4 215/1/4 221/1/4
f 221/1/4 215/1/4 222/1/4
f 218/1/4 219/1/4 223/1/4
f 220/1/4 221/1/4 223/1/4
f 219/1/4 220/1/4 223/1/4
f 223/1/4 221/1/4 224/1/4
f 227/1/5 226/1/5 225/1/5
f 228/1/5 226/1/5 227/1/5
f 233/1/5 230/1/5 229/1/5
f 234/1/5 230/1/5 233/1/5
f 235/1/5 232/1/5 231/1/5
f 236/1/5 232/1/5 235/1/5
f 241/1/5 238/1/5 237/1/5
f 242/1/5 238/1/5 241/1/5
f 243/1/5 240/1/5 239/1/5
f 244/1/5 240/1/5 243/1/5
f 249/1/5 246/1/5 245/1/5
f 250/1/5 246/1/5 249/1/5
f 251/1/5 248/1/5 247/1/5
f 252/1/5 248/1/5 251/1/5
f 255/3/5 254/3/5 253/3/5
f 256/3/5 254/3/5 255/3/5
f 259/2/5 258/2/5 257/2/5
f 260/2/5 258/2/5 259/2/5
f 261/2/6 262/2/6 263/2/6
f 263/2/6 262/2/6 264/2/6
f 265/3/6 266/3/6 267/3/6
f 267/3/6 266/3/6 268/3/6
f 269/1/6 270/1/6 273/1/6
f 273/1/6 270/1/6 274/1/6
f 271/1/6 272/1/6 275/1/6
f 275/1/6 272/1/6 276/1/6
f 277/1/6 278/1/6 281/1/6
f 281/1/6 278/1/6 282/1/6
f 279/1/6 280/1/6 283/1/6
f 283/1/6 280/1/6 284/1/6
f 285/1/6 286/1/6 289/1/6
f 289/1/6 286/1/6 290/1/6
f 287/1/6 288/1/6 291/1/6
f 291/1/6 288/1/6 292/1/6
f 293/1/6 294/1/6 295/1/6
f 295/1/6 294/1/6 296/1/6
