# MagicaVoxel @ Ephtracy

# group
o arm_up_hvy_1_ja

# material
mtllib char-5-arm_up_hvy_1_ja.mtl
usemtl palette

# normals
vn -1 0 0
vn 1 0 0
vn 0 0 1
vn 0 0 -1
vn 0 -1 0
vn 0 1 0

# texcoords
vt 0.701172 0.5
vt 0.740234 0.5
vt 0.958984 0.5

# verts
v -0.7 1.8 0.1
v -0.7 1.8 -0.1
v -0.7 2.1 0.2
v -0.7 2.1 0.1
v -0.7 2.1 -0.1
v -0.7 2.1 -0.2
v -0.7 2.2 0.2
v -0.7 2.2 -0.2
v -0.7 2.3 0.2
v -0.7 2.3 -0.2
v -0.7 2.4 0.2
v -0.7 2.4 -0.2
v -0.6 1.8 0.2
v -0.6 1.8 0.1
v -0.6 1.8 -0.1
v -0.6 1.8 -0.2
v -0.6 2.1 0.2
v -0.6 2.1 0.1
v -0.6 2.1 -0.1
v -0.6 2.1 -0.2
v -0.6 2.4 0.1
v -0.6 2.4 -0.1
v -0.6 2.5 0.1
v -0.6 2.5 -0.1
v -0.5 1.8 0.2
v -0.5 1.8 0.1
v -0.5 1.8 -0.1
v -0.5 1.8 -0.2
v -0.5 2.1 0.2
v -0.5 2.1 0.1
v -0.5 2.1 -0.1
v -0.5 2.1 -0.2
v -0.4 1.8 0.1
v -0.4 1.8 -0.1
v -0.4 2.1 0.2
v -0.4 2.1 0.1
v -0.4 2.1 -0.1
v -0.4 2.1 -0.2
v -0.4 2.4 0.2
v -0.4 2.4 0.1
v -0.4 2.4 -0.1
v -0.4 2.4 -0.2
v -0.4 2.5 0.1
v -0.4 2.5 -0.1
v -0.7 2.1 0.2
v -0.7 2.2 0.2
v -0.7 2.3 0.2
v -0.7 2.4 0.2
v -0.6 1.8 0.2
v -0.6 2.1 0.2
v -0.6 2.2 0.2
v -0.6 2.3 0.2
v -0.5 1.8 0.2
v -0.5 2.1 0.2
v -0.5 2.4 0.2
v -0.4 2.1 0.2
v -0.4 2.4 0.2
v -0.7 1.8 0.1
v -0.7 2.1 0.1
v -0.6 1.8 0.1
v -0.6 2.1 0.1
v -0.6 2.4 0.1
v -0.6 2.5 0.1
v -0.5 1.8 0.1
v -0.5 2.1 0.1
v -0.5 2.4 0.1
v -0.4 1.8 0.1
v -0.4 2.1 0.1
v -0.4 2.4 0.1
v -0.4 2.5 0.1
v -0.7 1.8 -0.1
v -0.7 2.1 -0.1
v -0.6 1.8 -0.1
v -0.6 2.1 -0.1
v -0.6 2.4 -0.1
v -0.6 2.5 -0.1
v -0.5 1.8 -0.1
v -0.5 2.1 -0.1
v -0.5 2.4 -0.1
v -0.4 1.8 -0.1
v -0.4 2.1 -0.1
v -0.4 2.4 -0.1
v -0.4 2.5 -0.1
v -0.7 2.1 -0.2
v -0.7 2.2 -0.2
v -0.7 2.3 -0.2
v -0.7 2.4 -0.2
v -0.6 1.8 -0.2
v -0.6 2.1 -0.2
v -0.6 2.2 -0.2
v -0.6 2.3 -0.2
v -0.5 1.8 -0.2
v -0.5 2.1 -0.2
v -0.5 2.4 -0.2
v -0.4 2.1 -0.2
v -0.4 2.4 -0.2
v -0.6 1.8 0.2
v -0.5 1.8 0.2
v -0.7 1.8 0.1
v -0.6 1.8 0.1
v -0.5 1.8 0.1
v -0.4 1.8 0.1
v -0.7 1.8 -0.1
v -0.6 1.8 -0.1
v -0.5 1.8 -0.1
v -0.4 1.8 -0.1
v -0.6 1.8 -0.2
v -0.5 1.8 -0.2
v -0.7 2.1 0.2
v -0.6 2.1 0.2
v -0.5 2.1 0.2
v -0.4 2.1 0.2
v -0.7 2.1 0.1
v -0.6 2.1 0.1
v -0.5 2.1 0.1
v -0.4 2.1 0.1
v -0.7 2.1 -0.1
v -0.6 2.1 -0.1
v -0.5 2.1 -0.1
v -0.4 2.1 -0.1
v -0.7 2.1 -0.2
v -0.6 2.1 -0.2
v -0.5 2.1 -0.2
v -0.4 2.1 -0.2
v -0.7 2.4 0.2
v -0.5 2.4 0.2
v -0.4 2.4 0.2
v -0.6 2.4 0.1
v -0.5 2.4 0.1
v -0.4 2.4 0.1
v -0.6 2.4 -0.1
v -0.5 2.4 -0.1
v -0.4 2.4 -0.1
v -0.7 2.4 -0.2
v -0.5 2.4 -0.2
v -0.4 2.4 -0.2
v -0.6 2.5 0.1
v -0.4 2.5 0.1
v -0.6 2.5 -0.1
v -0.4 2.5 -0.1

# faces
f 4/3/1 2/3/1 1/3/1
f 5/3/1 2/3/1 4/3/1
f 7/1/1 4/1/1 3/1/1
f 7/1/1 6/1/1 5/1/1
f 7/1/1 5/1/1 4/1/1
f 8/1/1 6/1/1 7/1/1
f 9/2/1 8/2/1 7/2/1
f 10/2/1 8/2/1 9/2/1
f 11/1/1 10/1/1 9/1/1
f 12/1/1 10/1/1 11/1/1
f 17/3/1 14/3/1 13/3/1
f 18/3/1 14/3/1 17/3/1
f 19/3/1 16/3/1 15/3/1
f 20/3/1 16/3/1 19/3/1
f 23/3/1 22/3/1 21/3/1
f 24/3/1 22/3/1 23/3/1
f 25/3/2 26/3/2 29/3/2
f 29/3/2 26/3/2 30/3/2
f 27/3/2 28/3/2 31/3/2
f 31/3/2 28/3/2 32/3/2
f 33/3/2 34/3/2 36/3/2
f 36/3/2 34/3/2 37/3/2
f 35/3/2 36/3/2 39/3/2
f 37/3/2 38/3/2 39/3/2
f 36/3/2 37/3/2 39/3/2
f 39/3/2 38/3/2 40/3/2
f 40/3/2 38/3/2 41/3/2
f 41/3/2 38/3/2 42/3/2
f 40/3/2 41/3/2 43/3/2
f 43/3/2 41/3/2 44/3/2
f 50/1/3 46/1/3 45/1/3
f 51/2/3 47/2/3 46/2/3
f 51/1/3 46/1/3 50/1/3
f 52/1/3 48/1/3 47/1/3
f 52/2/3 47/2/3 51/2/3
f 53/3/3 50/3/3 49/3/3
f 54/1/3 51/1/3 50/1/3
f 54/3/3 50/3/3 53/3/3
f 54/1/3 52/1/3 51/1/3
f 55/1/3 48/1/3 52/1/3
f 55/1/3 52/1/3 54/1/3
f 56/3/3 55/3/3 54/3/3
f 57/3/3 55/3/3 56/3/3
f 60/3/3 59/3/3 58/3/3
f 61/3/3 59/3/3 60/3/3
f 66/3/3 63/3/3 62/3/3
f 67/3/3 65/3/3 64/3/3
f 68/3/3 65/3/3 67/3/3
f 69/3/3 63/3/3 66/3/3
f 70/3/3 63/3/3 69/3/3
f 71/3/4 72/3/4 73/3/4
f 73/3/4 72/3/4 74/3/4
f 75/3/4 76/3/4 79/3/4
f 77/3/4 78/3/4 80/3/4
f 80/3/4 78/3/4 81/3/4
f 79/3/4 76/3/4 82/3/4
f 82/3/4 76/3/4 83/3/4
f 84/1/4 85/1/4 89/1/4
f 85/2/4 86/2/4 90/2/4
f 89/1/4 85/1/4 90/1/4
f 86/1/4 87/1/4 91/1/4
f 90/2/4 86/2/4 91/2/4
f 88/3/4 89/3/4 92/3/4
f 89/1/4 90/1/4 93/1/4
f 92/3/4 89/3/4 93/3/4
f 90/1/4 91/1/4 93/1/4
f 91/1/4 87/1/4 94/1/4
f 93/1/4 91/1/4 94/1/4
f 93/3/4 94/3/4 95/3/4
f 95/3/4 94/3/4 96/3/4
f 100/3/5 98/3/5 97/3/5
f 101/3/5 98/3/5 100/3/5
f 103/3/5 100/3/5 99/3/5
f 103/3/5 102/3/5 101/3/5
f 103/3/5 101/3/5 100/3/5
f 104/3/5 102/3/5 103/3/5
f 105/3/5 102/3/5 104/3/5
f 106/3/5 102/3/5 105/3/5
f 107/3/5 105/3/5 104/3/5
f 108/3/5 105/3/5 107/3/5
f 113/1/5 110/1/5 109/1/5
f 114/1/5 110/1/5 113/1/5
f 115/3/5 112/3/5 111/3/5
f 116/3/5 112/3/5 115/3/5
f 121/1/5 118/1/5 117/1/5
f 122/1/5 118/1/5 121/1/5
f 123/3/5 120/3/5 119/3/5
f 124/3/5 120/3/5 123/3/5
f 125/1/6 126/1/6 128/1/6
f 126/3/6 127/3/6 129/3/6
f 128/1/6 126/1/6 129/1/6
f 129/3/6 127/3/6 130/3/6
f 125/1/6 128/1/6 131/1/6
f 125/1/6 131/1/6 134/1/6
f 131/1/6 132/1/6 134/1/6
f 132/3/6 133/3/6 135/3/6
f 134/1/6 132/1/6 135/1/6
f 135/3/6 133/3/6 136/3/6
f 137/3/6 138/3/6 139/3/6
f 139/3/6 138/3/6 140/3/6
