# MagicaVoxel @ Ephtracy

# group
o helm_med_2b_du

# material
mtllib char-100-helm_med_2b_du.mtl
usemtl palette

# normals
vn -1 0 0
vn 1 0 0
vn 0 0 1
vn 0 0 -1
vn 0 -1 0
vn 0 1 0

# texcoords
vt 0.482422 0.5
vt 0.494141 0.5
vt 0.958984 0.5
vt 0.962891 0.5

# verts
v -0.3 2.5 0.2
v -0.3 2.5 -0.2
v -0.3 2.8 0.3
v -0.3 2.8 0.2
v -0.3 3 0.3
v -0.3 3 0.2
v -0.3 3 -0.2
v -0.3 3.2 0.3
v -0.3 3.2 -0.2
v -0.2 2.5 0.3
v -0.2 2.5 0.2
v -0.2 2.5 -0.2
v -0.2 2.5 -0.3
v -0.2 2.7 0.3
v -0.2 2.7 0.2
v -0.2 2.8 0.3
v -0.2 2.8 0.2
v -0.2 3 0.4
v -0.2 3 0.3
v -0.2 3 -0.2
v -0.2 3 -0.3
v -0.2 3.2 0.4
v -0.2 3.2 0.3
v -0.2 3.2 -0.2
v -0.2 3.2 -0.3
v -0.2 3.3 0.3
v -0.2 3.3 -0.2
v -0.1 2.6 -0.3
v -0.1 2.6 -0.4
v -0.1 2.8 0.4
v -0.1 2.8 0.3
v -0.1 3 0.4
v -0.1 3 0.3
v -0.1 3 -0.3
v -0.1 3.2 0.4
v -0.1 3.2 0.3
v -0.1 3.2 -0.2
v -0.1 3.2 -0.3
v -0.1 3.3 0.4
v -0.1 3.3 0.3
v -0.1 3.3 -0.2
v -0.1 3.3 -0.3
v -0.1 3.3 -0.4
v -0.1 3.4 0.3
v -0.1 3.4 0.1
v -0.1 3.4 0
v -0.1 3.4 -0.2
v -0.1 3.5 0.2
v -0.1 3.5 0.1
v -0.1 3.5 0
v -0.1 3.5 -0.2
v -0.1 3.5 -0.3
v -0.1 3.6 -0.1
v -0.1 3.6 -0.2
v -0.1 3.7 0.2
v -0.1 3.7 -0.1
v 0.2 2.5 0.2
v 0.2 2.5 -0.2
v 0.2 2.7 0.2
v 0.2 2.8 0.3
v 0.2 2.8 0.2
v 0.2 3 0.3
v 0.2 3 0.2
v 0.2 3 -0.2
v 0.2 3.1 0.3
v 0.2 3.1 0.2
v 0.2 3.2 0.2
v 0.2 3.2 -0.2
v -0.2 2.5 0.2
v -0.2 2.5 -0.2
v -0.2 2.7 0.2
v -0.2 2.8 0.3
v -0.2 2.8 0.2
v -0.2 3 0.3
v -0.2 3 0.2
v -0.2 3 -0.2
v -0.2 3.1 0.3
v -0.2 3.1 0.2
v -0.2 3.2 0.2
v -0.2 3.2 -0.2
v 0.1 2.6 -0.3
v 0.1 2.6 -0.4
v 0.1 2.8 0.4
v 0.1 2.8 0.3
v 0.1 3 0.4
v 0.1 3 0.3
v 0.1 3 -0.3
v 0.1 3.2 0.4
v 0.1 3.2 0.3
v 0.1 3.2 -0.2
v 0.1 3.2 -0.3
v 0.1 3.3 0.4
v 0.1 3.3 0.3
v 0.1 3.3 -0.2
v 0.1 3.3 -0.3
v 0.1 3.3 -0.4
v 0.1 3.4 0.3
v 0.1 3.4 0.1
v 0.1 3.4 0
v 0.1 3.4 -0.2
v 0.1 3.5 0.2
v 0.1 3.5 0.1
v 0.1 3.5 0
v 0.1 3.5 -0.2
v 0.1 3.5 -0.3
v 0.1 3.6 -0.1
v 0.1 3.6 -0.2
v 0.1 3.7 0.2
v 0.1 3.7 -0.1
v 0.2 2.5 0.3
v 0.2 2.5 0.2
v 0.2 2.5 -0.2
v 0.2 2.5 -0.3
v 0.2 2.7 0.3
v 0.2 2.7 0.2
v 0.2 2.8 0.3
v 0.2 2.8 0.2
v 0.2 3 0.4
v 0.2 3 0.3
v 0.2 3 -0.2
v 0.2 3 -0.3
v 0.2 3.2 0.4
v 0.2 3.2 0.3
v 0.2 3.2 -0.2
v 0.2 3.2 -0.3
v 0.2 3.3 0.3
v 0.2 3.3 -0.2
v 0.3 2.5 0.2
v 0.3 2.5 -0.2
v 0.3 2.8 0.3
v 0.3 2.8 0.2
v 0.3 3 0.3
v 0.3 3 0.2
v 0.3 3 -0.2
v 0.3 3.2 0.3
v 0.3 3.2 -0.2
v -0.2 3 0.4
v -0.2 3.2 0.4
v -0.1 2.8 0.4
v -0.1 3 0.4
v -0.1 3.2 0.4
v -0.1 3.3 0.4
v 0.1 2.8 0.4
v 0.1 3 0.4
v 0.1 3.2 0.4
v 0.1 3.3 0.4
v 0.2 3 0.4
v 0.2 3.2 0.4
v -0.3 2.8 0.3
v -0.3 3 0.3
v -0.3 3.2 0.3
v -0.2 2.5 0.3
v -0.2 2.7 0.3
v -0.2 2.8 0.3
v -0.2 3 0.3
v -0.2 3.2 0.3
v -0.2 3.3 0.3
v -0.1 2.8 0.3
v -0.1 3.2 0.3
v -0.1 3.3 0.3
v -0.1 3.4 0.3
v 0.1 2.8 0.3
v 0.1 3.2 0.3
v 0.1 3.3 0.3
v 0.1 3.4 0.3
v 0.2 2.5 0.3
v 0.2 2.7 0.3
v 0.2 2.8 0.3
v 0.2 3 0.3
v 0.2 3.2 0.3
v 0.2 3.3 0.3
v 0.3 2.8 0.3
v 0.3 3 0.3
v 0.3 3.2 0.3
v -0.3 2.5 0.2
v -0.3 2.8 0.2
v -0.2 2.5 0.2
v -0.2 2.7 0.2
v -0.2 2.8 0.2
v -0.1 3.5 0.2
v -0.1 3.7 0.2
v 0.1 3.5 0.2
v 0.1 3.7 0.2
v 0.2 2.5 0.2
v 0.2 2.7 0.2
v 0.2 2.8 0.2
v 0.3 2.5 0.2
v 0.3 2.8 0.2
v -0.1 3.4 0.1
v -0.1 3.5 0.1
v 0.1 3.4 0.1
v 0.1 3.5 0.1
v -0.2 2.5 -0.2
v -0.2 3 -0.2
v -0.2 3.2 -0.2
v 0.2 2.5 -0.2
v 0.2 3 -0.2
v 0.2 3.2 -0.2
v -0.2 3 0.3
v -0.2 3.1 0.3
v -0.1 2.8 0.3
v -0.1 3 0.3
v -0.1 3.1 0.3
v 0.1 2.8 0.3
v 0.1 3 0.3
v 0.1 3.1 0.3
v 0.2 3 0.3
v 0.2 3.1 0.3
v -0.2 2.5 0.2
v -0.2 2.7 0.2
v -0.2 2.8 0.2
v -0.2 3.1 0.2
v -0.2 3.2 0.2
v -0.1 3.1 0.2
v -0.1 3.2 0.2
v 0.1 3.1 0.2
v 0.1 3.2 0.2
v 0.2 2.5 0.2
v 0.2 2.7 0.2
v 0.2 2.8 0.2
v 0.2 3.1 0.2
v 0.2 3.2 0.2
v -0.1 3.6 -0.1
v -0.1 3.7 -0.1
v 0.1 3.6 -0.1
v 0.1 3.7 -0.1
v -0.3 2.5 -0.2
v -0.3 3 -0.2
v -0.3 3.2 -0.2
v -0.2 2.5 -0.2
v -0.2 3 -0.2
v -0.2 3.2 -0.2
v -0.2 3.3 -0.2
v -0.1 3.2 -0.2
v -0.1 3.3 -0.2
v -0.1 3.5 -0.2
v -0.1 3.6 -0.2
v 0.1 3.2 -0.2
v 0.1 3.3 -0.2
v 0.1 3.5 -0.2
v 0.1 3.6 -0.2
v 0.2 2.5 -0.2
v 0.2 3 -0.2
v 0.2 3.2 -0.2
v 0.2 3.3 -0.2
v 0.3 2.5 -0.2
v 0.3 3 -0.2
v 0.3 3.2 -0.2
v -0.2 2.5 -0.3
v -0.2 3 -0.3
v -0.2 3.2 -0.3
v -0.1 2.6 -0.3
v -0.1 3 -0.3
v -0.1 3.2 -0.3
v -0.1 3.3 -0.3
v -0.1 3.5 -0.3
v 0.1 2.6 -0.3
v 0.1 3 -0.3
v 0.1 3.2 -0.3
v 0.1 3.3 -0.3
v 0.1 3.5 -0.3
v 0.2 2.5 -0.3
v 0.2 3 -0.3
v 0.2 3.2 -0.3
v -0.1 2.6 -0.4
v -0.1 3.3 -0.4
v 0.1 2.6 -0.4
v 0.1 3.3 -0.4
v -0.2 2.5 0.3
v 0.2 2.5 0.3
v -0.3 2.5 0.2
v -0.2 2.5 0.2
v 0.2 2.5 0.2
v 0.3 2.5 0.2
v -0.3 2.5 -0.2
v -0.2 2.5 -0.2
v 0.2 2.5 -0.2
v 0.3 2.5 -0.2
v -0.2 2.5 -0.3
v 0.2 2.5 -0.3
v -0.1 2.6 -0.3
v 0.1 2.6 -0.3
v -0.1 2.6 -0.4
v 0.1 2.6 -0.4
v -0.1 2.8 0.4
v 0.1 2.8 0.4
v -0.3 2.8 0.3
v -0.2 2.8 0.3
v -0.1 2.8 0.3
v 0.1 2.8 0.3
v 0.2 2.8 0.3
v 0.3 2.8 0.3
v -0.3 2.8 0.2
v -0.2 2.8 0.2
v 0.2 2.8 0.2
v 0.3 2.8 0.2
v -0.2 3 0.4
v -0.1 3 0.4
v 0.1 3 0.4
v 0.2 3 0.4
v -0.2 3 0.3
v -0.1 3 0.3
v 0.1 3 0.3
v 0.2 3 0.3
v -0.2 3.1 0.3
v -0.1 3.1 0.3
v 0.1 3.1 0.3
v 0.2 3.1 0.3
v -0.2 3.1 0.2
v -0.1 3.1 0.2
v 0.1 3.1 0.2
v 0.2 3.1 0.2
v -0.2 3.2 0.2
v -0.1 3.2 0.2
v 0.1 3.2 0.2
v 0.2 3.2 0.2
v -0.2 3.2 -0.2
v 0.2 3.2 -0.2
v -0.1 3.5 0.2
v 0.1 3.5 0.2
v -0.1 3.5 0.1
v 0.1 3.5 0.1
v -0.2 2.8 0.3
v -0.1 2.8 0.3
v 0.1 2.8 0.3
v 0.2 2.8 0.3
v -0.2 2.8 0.2
v 0.2 2.8 0.2
v -0.2 3.2 0.4
v -0.1 3.2 0.4
v 0.1 3.2 0.4
v 0.2 3.2 0.4
v -0.3 3.2 0.3
v -0.2 3.2 0.3
v -0.1 3.2 0.3
v 0.1 3.2 0.3
v 0.2 3.2 0.3
v 0.3 3.2 0.3
v -0.3 3.2 -0.2
v -0.2 3.2 -0.2
v -0.1 3.2 -0.2
v 0.1 3.2 -0.2
v 0.2 3.2 -0.2
v 0.3 3.2 -0.2
v -0.2 3.2 -0.3
v -0.1 3.2 -0.3
v 0.1 3.2 -0.3
v 0.2 3.2 -0.3
v -0.1 3.3 0.4
v 0.1 3.3 0.4
v -0.2 3.3 0.3
v -0.1 3.3 0.3
v 0.1 3.3 0.3
v 0.2 3.3 0.3
v -0.2 3.3 -0.2
v -0.1 3.3 -0.2
v 0.1 3.3 -0.2
v 0.2 3.3 -0.2
v -0.1 3.3 -0.3
v 0.1 3.3 -0.3
v -0.1 3.3 -0.4
v 0.1 3.3 -0.4
v -0.1 3.4 0.3
v 0.1 3.4 0.3
v -0.1 3.4 0.1
v 0.1 3.4 0.1
v -0.1 3.5 -0.2
v 0.1 3.5 -0.2
v -0.1 3.5 -0.3
v 0.1 3.5 -0.3
v -0.1 3.6 -0.1
v 0.1 3.6 -0.1
v -0.1 3.6 -0.2
v 0.1 3.6 -0.2
v -0.1 3.7 0.2
v 0.1 3.7 0.2
v -0.1 3.7 -0.1
v 0.1 3.7 -0.1

# faces
f 4/3/1 2/3/1 1/3/1
f 5/1/1 4/1/1 3/1/1
f 6/3/1 2/3/1 4/3/1
f 6/1/1 4/1/1 5/1/1
f 7/3/1 2/3/1 6/3/1
f 8/4/1 6/4/1 5/4/1
f 8/4/1 7/4/1 6/4/1
f 9/4/1 7/4/1 8/4/1
f 14/3/1 11/3/1 10/3/1
f 15/3/1 11/3/1 14/3/1
f 16/1/1 15/1/1 14/1/1
f 17/1/1 15/1/1 16/1/1
f 20/3/1 13/3/1 12/3/1
f 21/3/1 13/3/1 20/3/1
f 22/4/1 19/4/1 18/4/1
f 23/4/1 19/4/1 22/4/1
f 24/4/1 21/4/1 20/4/1
f 25/4/1 21/4/1 24/4/1
f 26/4/1 24/4/1 23/4/1
f 27/4/1 24/4/1 26/4/1
f 32/4/1 31/4/1 30/4/1
f 33/4/1 31/4/1 32/4/1
f 34/2/1 29/2/1 28/2/1
f 38/2/1 29/2/1 34/2/1
f 39/4/1 36/4/1 35/4/1
f 40/4/1 36/4/1 39/4/1
f 41/4/1 38/4/1 37/4/1
f 42/2/1 29/2/1 38/2/1
f 42/4/1 38/4/1 41/4/1
f 43/2/1 29/2/1 42/2/1
f 44/4/1 41/4/1 40/4/1
f 45/4/1 41/4/1 44/4/1
f 46/4/1 41/4/1 45/4/1
f 47/2/1 42/2/1 41/2/1
f 47/4/1 41/4/1 46/4/1
f 49/4/1 46/4/1 45/4/1
f 50/2/1 47/2/1 46/2/1
f 50/4/1 46/4/1 49/4/1
f 51/2/1 42/2/1 47/2/1
f 51/2/1 47/2/1 50/2/1
f 52/2/1 42/2/1 51/2/1
f 53/2/1 49/2/1 48/2/1
f 53/2/1 50/2/1 49/2/1
f 53/2/1 51/2/1 50/2/1
f 54/2/1 51/2/1 53/2/1
f 55/2/1 53/2/1 48/2/1
f 56/2/1 53/2/1 55/2/1
f 59/3/1 58/3/1 57/3/1
f 61/3/1 58/3/1 59/3/1
f 62/1/1 61/1/1 60/1/1
f 63/3/1 58/3/1 61/3/1
f 63/1/1 61/1/1 62/1/1
f 64/3/1 58/3/1 63/3/1
f 65/4/1 63/4/1 62/4/1
f 65/4/1 64/4/1 63/4/1
f 66/4/1 64/4/1 65/4/1
f 67/4/1 64/4/1 66/4/1
f 68/4/1 64/4/1 67/4/1
f 69/3/2 70/3/2 71/3/2
f 71/3/2 70/3/2 73/3/2
f 72/1/2 73/1/2 74/1/2
f 73/3/2 70/3/2 75/3/2
f 74/1/2 73/1/2 75/1/2
f 75/3/2 70/3/2 76/3/2
f 74/4/2 75/4/2 77/4/2
f 75/4/2 76/4/2 77/4/2
f 77/4/2 76/4/2 78/4/2
f 78/4/2 76/4/2 79/4/2
f 79/4/2 76/4/2 80/4/2
f 83/4/2 84/4/2 85/4/2
f 85/4/2 84/4/2 86/4/2
f 81/2/2 82/2/2 87/2/2
f 87/2/2 82/2/2 91/2/2
f 88/4/2 89/4/2 92/4/2
f 92/4/2 89/4/2 93/4/2
f 90/4/2 91/4/2 94/4/2
f 91/2/2 82/2/2 95/2/2
f 94/4/2 91/4/2 95/4/2
f 95/2/2 82/2/2 96/2/2
f 93/4/2 94/4/2 97/4/2
f 97/4/2 94/4/2 98/4/2
f 98/4/2 94/4/2 99/4/2
f 94/2/2 95/2/2 100/2/2
f 99/4/2 94/4/2 100/4/2
f 98/4/2 99/4/2 102/4/2
f 99/2/2 100/2/2 103/2/2
f 102/4/2 99/4/2 103/4/2
f 100/2/2 95/2/2 104/2/2
f 103/2/2 100/2/2 104/2/2
f 104/2/2 95/2/2 105/2/2
f 101/2/2 102/2/2 106/2/2
f 102/2/2 103/2/2 106/2/2
f 103/2/2 104/2/2 106/2/2
f 106/2/2 104/2/2 107/2/2
f 101/2/2 106/2/2 108/2/2
f 108/2/2 106/2/2 109/2/2
f 110/3/2 111/3/2 114/3/2
f 114/3/2 111/3/2 115/3/2
f 114/1/2 115/1/2 116/1/2
f 116/1/2 115/1/2 117/1/2
f 112/3/2 113/3/2 120/3/2
f 120/3/2 113/3/2 121/3/2
f 118/4/2 119/4/2 122/4/2
f 122/4/2 119/4/2 123/4/2
f 120/4/2 121/4/2 124/4/2
f 124/4/2 121/4/2 125/4/2
f 123/4/2 124/4/2 126/4/2
f 126/4/2 124/4/2 127/4/2
f 128/3/2 129/3/2 131/3/2
f 130/1/2 131/1/2 132/1/2
f 131/3/2 129/3/2 133/3/2
f 132/1/2 131/1/2 133/1/2
f 133/3/2 129/3/2 134/3/2
f 132/4/2 133/4/2 135/4/2
f 133/4/2 134/4/2 135/4/2
f 135/4/2 134/4/2 136/4/2
f 140/4/3 138/4/3 137/4/3
f 141/4/3 138/4/3 140/4/3
f 143/4/3 140/4/3 139/4/3
f 143/4/3 142/4/3 141/4/3
f 143/4/3 141/4/3 140/4/3
f 144/4/3 142/4/3 143/4/3
f 145/4/3 142/4/3 144/4/3
f 146/4/3 142/4/3 145/4/3
f 147/4/3 145/4/3 144/4/3
f 148/4/3 145/4/3 147/4/3
f 154/1/3 150/1/3 149/1/3
f 155/4/3 151/4/3 150/4/3
f 155/1/3 150/1/3 154/1/3
f 156/4/3 151/4/3 155/4/3
f 158/1/3 154/1/3 153/1/3
f 159/4/3 157/4/3 156/4/3
f 160/4/3 157/4/3 159/4/3
f 162/1/3 158/1/3 153/1/3
f 164/4/3 161/4/3 160/4/3
f 165/4/3 161/4/3 164/4/3
f 166/3/3 153/3/3 152/3/3
f 167/1/3 162/1/3 153/1/3
f 167/3/3 153/3/3 166/3/3
f 168/1/3 162/1/3 167/1/3
f 170/4/3 164/4/3 163/4/3
f 171/4/3 164/4/3 170/4/3
f 172/1/3 169/1/3 168/1/3
f 173/4/3 170/4/3 169/4/3
f 173/1/3 169/1/3 172/1/3
f 174/4/3 170/4/3 173/4/3
f 177/3/3 176/3/3 175/3/3
f 178/3/3 176/3/3 177/3/3
f 179/3/3 176/3/3 178/3/3
f 182/2/3 181/2/3 180/2/3
f 183/2/3 181/2/3 182/2/3
f 187/3/3 185/3/3 184/3/3
f 187/3/3 186/3/3 185/3/3
f 188/3/3 186/3/3 187/3/3
f 191/4/3 190/4/3 189/4/3
f 192/4/3 190/4/3 191/4/3
f 196/3/3 194/3/3 193/3/3
f 197/4/3 195/4/3 194/4/3
f 197/3/3 194/3/3 196/3/3
f 198/4/3 195/4/3 197/4/3
f 199/4/4 200/4/4 202/4/4
f 202/4/4 200/4/4 203/4/4
f 201/4/4 202/4/4 204/4/4
f 202/4/4 203/4/4 204/4/4
f 204/4/4 203/4/4 205/4/4
f 205/4/4 203/4/4 206/4/4
f 205/4/4 206/4/4 207/4/4
f 207/4/4 206/4/4 208/4/4
f 212/4/4 213/4/4 214/4/4
f 214/4/4 213/4/4 215/4/4
f 214/3/4 215/3/4 216/3/4
f 216/3/4 215/3/4 217/3/4
f 209/3/4 210/3/4 218/3/4
f 210/1/4 211/1/4 219/1/4
f 218/3/4 210/3/4 219/3/4
f 219/1/4 211/1/4 220/1/4
f 216/4/4 217/4/4 221/4/4
f 221/4/4 217/4/4 222/4/4
f 223/2/4 224/2/4 225/2/4
f 225/2/4 224/2/4 226/2/4
f 227/3/4 228/3/4 230/3/4
f 228/4/4 229/4/4 231/4/4
f 230/3/4 228/3/4 231/3/4
f 231/4/4 229/4/4 232/4/4
f 232/4/4 233/4/4 234/4/4
f 234/4/4 233/4/4 235/4/4
f 236/2/4 237/2/4 240/2/4
f 240/2/4 237/2/4 241/2/4
f 238/4/4 239/4/4 244/4/4
f 244/4/4 239/4/4 245/4/4
f 242/3/4 243/3/4 246/3/4
f 243/4/4 244/4/4 247/4/4
f 246/3/4 243/3/4 247/3/4
f 247/4/4 244/4/4 248/4/4
f 249/3/4 250/3/4 252/3/4
f 250/4/4 251/4/4 253/4/4
f 252/3/4 250/3/4 253/3/4
f 253/4/4 251/4/4 254/4/4
f 249/3/4 252/3/4 257/3/4
f 255/2/4 256/2/4 260/2/4
f 260/2/4 256/2/4 261/2/4
f 249/3/4 257/3/4 262/3/4
f 257/3/4 258/3/4 262/3/4
f 258/4/4 259/4/4 263/4/4
f 262/3/4 258/3/4 263/3/4
f 263/4/4 259/4/4 264/4/4
f 265/2/4 266/2/4 267/2/4
f 267/2/4 266/2/4 268/2/4
f 272/3/5 270/3/5 269/3/5
f 273/3/5 270/3/5 272/3/5
f 275/3/5 272/3/5 271/3/5
f 276/3/5 272/3/5 275/3/5
f 277/3/5 274/3/5 273/3/5
f 278/3/5 274/3/5 277/3/5
f 279/3/5 277/3/5 276/3/5
f 280/3/5 277/3/5 279/3/5
f 283/2/5 282/2/5 281/2/5
f 284/2/5 282/2/5 283/2/5
f 289/4/5 286/4/5 285/4/5
f 290/4/5 286/4/5 289/4/5
f 293/1/5 288/1/5 287/1/5
f 294/1/5 288/1/5 293/1/5
f 295/1/5 292/1/5 291/1/5
f 296/1/5 292/1/5 295/1/5
f 301/4/5 298/4/5 297/4/5
f 302/4/5 298/4/5 301/4/5
f 303/4/5 300/4/5 299/4/5
f 304/4/5 300/4/5 303/4/5
f 309/4/5 306/4/5 305/4/5
f 310/3/5 307/3/5 306/3/5
f 310/4/5 306/4/5 309/4/5
f 311/4/5 308/4/5 307/4/5
f 311/3/5 307/3/5 310/3/5
f 312/4/5 308/4/5 311/4/5
f 317/4/5 314/4/5 313/4/5
f 317/4/5 316/4/5 315/4/5
f 317/4/5 315/4/5 314/4/5
f 318/4/5 316/4/5 317/4/5
f 321/2/5 320/2/5 319/2/5
f 322/2/5 320/2/5 321/2/5
f 323/1/6 324/1/6 327/1/6
f 325/1/6 326/1/6 327/1/6
f 324/1/6 325/1/6 327/1/6
f 327/1/6 326/1/6 328/1/6
f 329/4/6 330/4/6 334/4/6
f 334/4/6 330/4/6 335/4/6
f 331/4/6 332/4/6 336/4/6
f 336/4/6 332/4/6 337/4/6
f 333/4/6 334/4/6 339/4/6
f 339/4/6 334/4/6 340/4/6
f 337/4/6 338/4/6 343/4/6
f 343/4/6 338/4/6 344/4/6
f 340/4/6 341/4/6 345/4/6
f 345/4/6 341/4/6 346/4/6
f 342/4/6 343/4/6 347/4/6
f 347/4/6 343/4/6 348/4/6
f 349/4/6 350/4/6 352/4/6
f 352/4/6 350/4/6 353/4/6
f 351/4/6 352/4/6 355/4/6
f 355/4/6 352/4/6 356/4/6
f 353/4/6 354/4/6 357/4/6
f 357/4/6 354/4/6 358/4/6
f 359/2/6 360/2/6 361/2/6
f 361/2/6 360/2/6 362/2/6
f 363/4/6 364/4/6 365/4/6
f 365/4/6 364/4/6 366/4/6
f 367/2/6 368/2/6 369/2/6
f 369/2/6 368/2/6 370/2/6
f 371/2/6 372/2/6 373/2/6
f 373/2/6 372/2/6 374/2/6
f 375/2/6 376/2/6 377/2/6
f 377/2/6 376/2/6 378/2/6
