# MagicaVoxel @ Ephtracy

# group
o helm_med_1b_du

# material
mtllib char-104-helm_med_1b_du.mtl
usemtl palette

# normals
vn -1 0 0
vn 1 0 0
vn 0 0 1
vn 0 0 -1
vn 0 -1 0
vn 0 1 0

# texcoords
vt 0.482422 0.5
vt 0.744141 0.5
vt 0.962891 0.5

# verts
v -0.3 2.5 0.2
v -0.3 2.5 -0.2
v -0.3 2.8 0.3
v -0.3 2.8 0.2
v -0.3 3 0.3
v -0.3 3 0.2
v -0.3 3 -0.2
v -0.3 3.2 0.3
v -0.3 3.2 -0.2
v -0.2 2.5 0.3
v -0.2 2.5 0.2
v -0.2 2.5 -0.2
v -0.2 2.5 -0.3
v -0.2 2.7 0.3
v -0.2 2.7 0.2
v -0.2 2.8 0.3
v -0.2 2.8 0.2
v -0.2 3 0.4
v -0.2 3 0.3
v -0.2 3 -0.2
v -0.2 3 -0.3
v -0.2 3.2 0.4
v -0.2 3.2 0.3
v -0.2 3.2 -0.2
v -0.2 3.2 -0.3
v -0.2 3.3 0.3
v -0.2 3.3 -0.2
v -0.1 2.6 -0.3
v -0.1 2.6 -0.4
v -0.1 2.8 0.4
v -0.1 2.8 0.3
v -0.1 3 0.4
v -0.1 3 0.3
v -0.1 3 -0.3
v -0.1 3.2 0.4
v -0.1 3.2 0.3
v -0.1 3.2 -0.2
v -0.1 3.2 -0.3
v -0.1 3.3 0.4
v -0.1 3.3 0.3
v -0.1 3.3 -0.2
v -0.1 3.3 -0.3
v -0.1 3.3 -0.4
v -0.1 3.4 0.3
v -0.1 3.4 0.1
v -0.1 3.4 0
v -0.1 3.4 -0.2
v -0.1 3.5 0.2
v -0.1 3.5 0.1
v -0.1 3.5 0
v -0.1 3.5 -0.2
v -0.1 3.5 -0.3
v -0.1 3.6 -0.1
v -0.1 3.6 -0.2
v -0.1 3.7 0.2
v -0.1 3.7 -0.1
v 0.2 2.5 0.2
v 0.2 2.5 -0.2
v 0.2 2.7 0.2
v 0.2 2.8 0.3
v 0.2 2.8 0.2
v 0.2 3 0.3
v 0.2 3 0.2
v 0.2 3 -0.2
v 0.2 3.1 0.3
v 0.2 3.1 0.2
v 0.2 3.2 0.2
v 0.2 3.2 -0.2
v -0.2 2.5 0.2
v -0.2 2.5 -0.2
v -0.2 2.7 0.2
v -0.2 2.8 0.3
v -0.2 2.8 0.2
v -0.2 3 0.3
v -0.2 3 0.2
v -0.2 3 -0.2
v -0.2 3.1 0.3
v -0.2 3.1 0.2
v -0.2 3.2 0.2
v -0.2 3.2 -0.2
v 0.1 2.6 -0.3
v 0.1 2.6 -0.4
v 0.1 2.8 0.4
v 0.1 2.8 0.3
v 0.1 3 0.4
v 0.1 3 0.3
v 0.1 3 -0.3
v 0.1 3.2 0.4
v 0.1 3.2 0.3
v 0.1 3.2 -0.2
v 0.1 3.2 -0.3
v 0.1 3.3 0.4
v 0.1 3.3 0.3
v 0.1 3.3 -0.2
v 0.1 3.3 -0.3
v 0.1 3.3 -0.4
v 0.1 3.4 0.3
v 0.1 3.4 0.1
v 0.1 3.4 0
v 0.1 3.4 -0.2
v 0.1 3.5 0.2
v 0.1 3.5 0.1
v 0.1 3.5 0
v 0.1 3.5 -0.2
v 0.1 3.5 -0.3
v 0.1 3.6 -0.1
v 0.1 3.6 -0.2
v 0.1 3.7 0.2
v 0.1 3.7 -0.1
v 0.2 2.5 0.3
v 0.2 2.5 0.2
v 0.2 2.5 -0.2
v 0.2 2.5 -0.3
v 0.2 2.7 0.3
v 0.2 2.7 0.2
v 0.2 2.8 0.3
v 0.2 2.8 0.2
v 0.2 3 0.4
v 0.2 3 0.3
v 0.2 3 -0.2
v 0.2 3 -0.3
v 0.2 3.2 0.4
v 0.2 3.2 0.3
v 0.2 3.2 -0.2
v 0.2 3.2 -0.3
v 0.2 3.3 0.3
v 0.2 3.3 -0.2
v 0.3 2.5 0.2
v 0.3 2.5 -0.2
v 0.3 2.8 0.3
v 0.3 2.8 0.2
v 0.3 3 0.3
v 0.3 3 0.2
v 0.3 3 -0.2
v 0.3 3.2 0.3
v 0.3 3.2 -0.2
v -0.2 3 0.4
v -0.2 3.2 0.4
v -0.1 2.8 0.4
v -0.1 3 0.4
v -0.1 3.2 0.4
v -0.1 3.3 0.4
v 0.1 2.8 0.4
v 0.1 3 0.4
v 0.1 3.2 0.4
v 0.1 3.3 0.4
v 0.2 3 0.4
v 0.2 3.2 0.4
v -0.3 2.8 0.3
v -0.3 3 0.3
v -0.3 3.2 0.3
v -0.2 2.5 0.3
v -0.2 2.7 0.3
v -0.2 2.8 0.3
v -0.2 3 0.3
v -0.2 3.2 0.3
v -0.2 3.3 0.3
v -0.1 2.8 0.3
v -0.1 3.2 0.3
v -0.1 3.3 0.3
v -0.1 3.4 0.3
v 0.1 2.8 0.3
v 0.1 3.2 0.3
v 0.1 3.3 0.3
v 0.1 3.4 0.3
v 0.2 2.5 0.3
v 0.2 2.7 0.3
v 0.2 2.8 0.3
v 0.2 3 0.3
v 0.2 3.2 0.3
v 0.2 3.3 0.3
v 0.3 2.8 0.3
v 0.3 3 0.3
v 0.3 3.2 0.3
v -0.3 2.5 0.2
v -0.3 2.8 0.2
v -0.2 2.5 0.2
v -0.2 2.7 0.2
v -0.2 2.8 0.2
v -0.1 3.5 0.2
v -0.1 3.7 0.2
v 0.1 3.5 0.2
v 0.1 3.7 0.2
v 0.2 2.5 0.2
v 0.2 2.7 0.2
v 0.2 2.8 0.2
v 0.3 2.5 0.2
v 0.3 2.8 0.2
v -0.1 3.4 0.1
v -0.1 3.5 0.1
v 0.1 3.4 0.1
v 0.1 3.5 0.1
v -0.2 2.5 -0.2
v -0.2 3 -0.2
v -0.2 3.2 -0.2
v 0.2 2.5 -0.2
v 0.2 3 -0.2
v 0.2 3.2 -0.2
v -0.2 3 0.3
v -0.2 3.1 0.3
v -0.1 2.8 0.3
v -0.1 3 0.3
v -0.1 3.1 0.3
v 0.1 2.8 0.3
v 0.1 3 0.3
v 0.1 3.1 0.3
v 0.2 3 0.3
v 0.2 3.1 0.3
v -0.2 2.5 0.2
v -0.2 2.7 0.2
v -0.2 2.8 0.2
v -0.2 3.1 0.2
v -0.2 3.2 0.2
v -0.1 3.1 0.2
v -0.1 3.2 0.2
v 0.1 3.1 0.2
v 0.1 3.2 0.2
v 0.2 2.5 0.2
v 0.2 2.7 0.2
v 0.2 2.8 0.2
v 0.2 3.1 0.2
v 0.2 3.2 0.2
v -0.1 3.6 -0.1
v -0.1 3.7 -0.1
v 0.1 3.6 -0.1
v 0.1 3.7 -0.1
v -0.3 2.5 -0.2
v -0.3 3 -0.2
v -0.3 3.2 -0.2
v -0.2 2.5 -0.2
v -0.2 3 -0.2
v -0.2 3.2 -0.2
v -0.2 3.3 -0.2
v -0.1 3.2 -0.2
v -0.1 3.3 -0.2
v -0.1 3.5 -0.2
v -0.1 3.6 -0.2
v 0.1 3.2 -0.2
v 0.1 3.3 -0.2
v 0.1 3.5 -0.2
v 0.1 3.6 -0.2
v 0.2 2.5 -0.2
v 0.2 3 -0.2
v 0.2 3.2 -0.2
v 0.2 3.3 -0.2
v 0.3 2.5 -0.2
v 0.3 3 -0.2
v 0.3 3.2 -0.2
v -0.2 2.5 -0.3
v -0.2 3 -0.3
v -0.2 3.2 -0.3
v -0.1 2.6 -0.3
v -0.1 3 -0.3
v -0.1 3.2 -0.3
v -0.1 3.3 -0.3
v -0.1 3.5 -0.3
v 0.1 2.6 -0.3
v 0.1 3 -0.3
v 0.1 3.2 -0.3
v 0.1 3.3 -0.3
v 0.1 3.5 -0.3
v 0.2 2.5 -0.3
v 0.2 3 -0.3
v 0.2 3.2 -0.3
v -0.1 2.6 -0.4
v -0.1 3.3 -0.4
v 0.1 2.6 -0.4
v 0.1 3.3 -0.4
v -0.2 2.5 0.3
v 0.2 2.5 0.3
v -0.3 2.5 0.2
v -0.2 2.5 0.2
v 0.2 2.5 0.2
v 0.3 2.5 0.2
v -0.3 2.5 -0.2
v -0.2 2.5 -0.2
v 0.2 2.5 -0.2
v 0.3 2.5 -0.2
v -0.2 2.5 -0.3
v 0.2 2.5 -0.3
v -0.1 2.6 -0.3
v 0.1 2.6 -0.3
v -0.1 2.6 -0.4
v 0.1 2.6 -0.4
v -0.1 2.8 0.4
v 0.1 2.8 0.4
v -0.3 2.8 0.3
v -0.2 2.8 0.3
v -0.1 2.8 0.3
v 0.1 2.8 0.3
v 0.2 2.8 0.3
v 0.3 2.8 0.3
v -0.3 2.8 0.2
v -0.2 2.8 0.2
v 0.2 2.8 0.2
v 0.3 2.8 0.2
v -0.2 3 0.4
v -0.1 3 0.4
v 0.1 3 0.4
v 0.2 3 0.4
v -0.2 3 0.3
v -0.1 3 0.3
v 0.1 3 0.3
v 0.2 3 0.3
v -0.2 3.1 0.3
v -0.1 3.1 0.3
v 0.1 3.1 0.3
v 0.2 3.1 0.3
v -0.2 3.1 0.2
v -0.1 3.1 0.2
v 0.1 3.1 0.2
v 0.2 3.1 0.2
v -0.2 3.2 0.2
v -0.1 3.2 0.2
v 0.1 3.2 0.2
v 0.2 3.2 0.2
v -0.2 3.2 -0.2
v 0.2 3.2 -0.2
v -0.1 3.5 0.2
v 0.1 3.5 0.2
v -0.1 3.5 0.1
v 0.1 3.5 0.1
v -0.2 2.8 0.3
v -0.1 2.8 0.3
v 0.1 2.8 0.3
v 0.2 2.8 0.3
v -0.2 2.8 0.2
v 0.2 2.8 0.2
v -0.2 3.2 0.4
v -0.1 3.2 0.4
v 0.1 3.2 0.4
v 0.2 3.2 0.4
v -0.3 3.2 0.3
v -0.2 3.2 0.3
v -0.1 3.2 0.3
v 0.1 3.2 0.3
v 0.2 3.2 0.3
v 0.3 3.2 0.3
v -0.3 3.2 -0.2
v -0.2 3.2 -0.2
v -0.1 3.2 -0.2
v 0.1 3.2 -0.2
v 0.2 3.2 -0.2
v 0.3 3.2 -0.2
v -0.2 3.2 -0.3
v -0.1 3.2 -0.3
v 0.1 3.2 -0.3
v 0.2 3.2 -0.3
v -0.1 3.3 0.4
v 0.1 3.3 0.4
v -0.2 3.3 0.3
v -0.1 3.3 0.3
v 0.1 3.3 0.3
v 0.2 3.3 0.3
v -0.2 3.3 -0.2
v -0.1 3.3 -0.2
v 0.1 3.3 -0.2
v 0.2 3.3 -0.2
v -0.1 3.3 -0.3
v 0.1 3.3 -0.3
v -0.1 3.3 -0.4
v 0.1 3.3 -0.4
v -0.1 3.4 0.3
v 0.1 3.4 0.3
v -0.1 3.4 0.1
v 0.1 3.4 0.1
v -0.1 3.5 -0.2
v 0.1 3.5 -0.2
v -0.1 3.5 -0.3
v 0.1 3.5 -0.3
v -0.1 3.6 -0.1
v 0.1 3.6 -0.1
v -0.1 3.6 -0.2
v 0.1 3.6 -0.2
v -0.1 3.7 0.2
v 0.1 3.7 0.2
v -0.1 3.7 -0.1
v 0.1 3.7 -0.1

# faces
f 4/2/1 2/2/1 1/2/1
f 5/1/1 4/1/1 3/1/1
f 6/2/1 2/2/1 4/2/1
f 6/1/1 4/1/1 5/1/1
f 7/2/1 2/2/1 6/2/1
f 8/3/1 6/3/1 5/3/1
f 8/3/1 7/3/1 6/3/1
f 9/3/1 7/3/1 8/3/1
f 14/2/1 11/2/1 10/2/1
f 15/2/1 11/2/1 14/2/1
f 16/1/1 15/1/1 14/1/1
f 17/1/1 15/1/1 16/1/1
f 20/2/1 13/2/1 12/2/1
f 21/2/1 13/2/1 20/2/1
f 22/3/1 19/3/1 18/3/1
f 23/3/1 19/3/1 22/3/1
f 24/3/1 21/3/1 20/3/1
f 25/3/1 21/3/1 24/3/1
f 26/3/1 24/3/1 23/3/1
f 27/3/1 24/3/1 26/3/1
f 32/3/1 31/3/1 30/3/1
f 33/3/1 31/3/1 32/3/1
f 34/1/1 29/1/1 28/1/1
f 38/1/1 29/1/1 34/1/1
f 39/3/1 36/3/1 35/3/1
f 40/3/1 36/3/1 39/3/1
f 41/3/1 38/3/1 37/3/1
f 42/1/1 29/1/1 38/1/1
f 42/3/1 38/3/1 41/3/1
f 43/1/1 29/1/1 42/1/1
f 44/3/1 41/3/1 40/3/1
f 45/3/1 41/3/1 44/3/1
f 46/3/1 41/3/1 45/3/1
f 47/1/1 42/1/1 41/1/1
f 47/3/1 41/3/1 46/3/1
f 49/3/1 46/3/1 45/3/1
f 50/1/1 47/1/1 46/1/1
f 50/3/1 46/3/1 49/3/1
f 51/1/1 42/1/1 47/1/1
f 51/1/1 47/1/1 50/1/1
f 52/1/1 42/1/1 51/1/1
f 53/1/1 49/1/1 48/1/1
f 53/1/1 50/1/1 49/1/1
f 53/1/1 51/1/1 50/1/1
f 54/1/1 51/1/1 53/1/1
f 55/1/1 53/1/1 48/1/1
f 56/1/1 53/1/1 55/1/1
f 59/2/1 58/2/1 57/2/1
f 61/2/1 58/2/1 59/2/1
f 62/1/1 61/1/1 60/1/1
f 63/2/1 58/2/1 61/2/1
f 63/1/1 61/1/1 62/1/1
f 64/2/1 58/2/1 63/2/1
f 65/3/1 63/3/1 62/3/1
f 65/3/1 64/3/1 63/3/1
f 66/3/1 64/3/1 65/3/1
f 67/3/1 64/3/1 66/3/1
f 68/3/1 64/3/1 67/3/1
f 69/2/2 70/2/2 71/2/2
f 71/2/2 70/2/2 73/2/2
f 72/1/2 73/1/2 74/1/2
f 73/2/2 70/2/2 75/2/2
f 74/1/2 73/1/2 75/1/2
f 75/2/2 70/2/2 76/2/2
f 74/3/2 75/3/2 77/3/2
f 75/3/2 76/3/2 77/3/2
f 77/3/2 76/3/2 78/3/2
f 78/3/2 76/3/2 79/3/2
f 79/3/2 76/3/2 80/3/2
f 83/3/2 84/3/2 85/3/2
f 85/3/2 84/3/2 86/3/2
f 81/1/2 82/1/2 87/1/2
f 87/1/2 82/1/2 91/1/2
f 88/3/2 89/3/2 92/3/2
f 92/3/2 89/3/2 93/3/2
f 90/3/2 91/3/2 94/3/2
f 91/1/2 82/1/2 95/1/2
f 94/3/2 91/3/2 95/3/2
f 95/1/2 82/1/2 96/1/2
f 93/3/2 94/3/2 97/3/2
f 97/3/2 94/3/2 98/3/2
f 98/3/2 94/3/2 99/3/2
f 94/1/2 95/1/2 100/1/2
f 99/3/2 94/3/2 100/3/2
f 98/3/2 99/3/2 102/3/2
f 99/1/2 100/1/2 103/1/2
f 102/3/2 99/3/2 103/3/2
f 100/1/2 95/1/2 104/1/2
f 103/1/2 100/1/2 104/1/2
f 104/1/2 95/1/2 105/1/2
f 101/1/2 102/1/2 106/1/2
f 102/1/2 103/1/2 106/1/2
f 103/1/2 104/1/2 106/1/2
f 106/1/2 104/1/2 107/1/2
f 101/1/2 106/1/2 108/1/2
f 108/1/2 106/1/2 109/1/2
f 110/2/2 111/2/2 114/2/2
f 114/2/2 111/2/2 115/2/2
f 114/1/2 115/1/2 116/1/2
f 116/1/2 115/1/2 117/1/2
f 112/2/2 113/2/2 120/2/2
f 120/2/2 113/2/2 121/2/2
f 118/3/2 119/3/2 122/3/2
f 122/3/2 119/3/2 123/3/2
f 120/3/2 121/3/2 124/3/2
f 124/3/2 121/3/2 125/3/2
f 123/3/2 124/3/2 126/3/2
f 126/3/2 124/3/2 127/3/2
f 128/2/2 129/2/2 131/2/2
f 130/1/2 131/1/2 132/1/2
f 131/2/2 129/2/2 133/2/2
f 132/1/2 131/1/2 133/1/2
f 133/2/2 129/2/2 134/2/2
f 132/3/2 133/3/2 135/3/2
f 133/3/2 134/3/2 135/3/2
f 135/3/2 134/3/2 136/3/2
f 140/3/3 138/3/3 137/3/3
f 141/3/3 138/3/3 140/3/3
f 143/3/3 140/3/3 139/3/3
f 143/3/3 142/3/3 141/3/3
f 143/3/3 141/3/3 140/3/3
f 144/3/3 142/3/3 143/3/3
f 145/3/3 142/3/3 144/3/3
f 146/3/3 142/3/3 145/3/3
f 147/3/3 145/3/3 144/3/3
f 148/3/3 145/3/3 147/3/3
f 154/1/3 150/1/3 149/1/3
f 155/3/3 151/3/3 150/3/3
f 155/1/3 150/1/3 154/1/3
f 156/3/3 151/3/3 155/3/3
f 158/1/3 154/1/3 153/1/3
f 159/3/3 157/3/3 156/3/3
f 160/3/3 157/3/3 159/3/3
f 162/1/3 158/1/3 153/1/3
f 164/3/3 161/3/3 160/3/3
f 165/3/3 161/3/3 164/3/3
f 166/2/3 153/2/3 152/2/3
f 167/1/3 162/1/3 153/1/3
f 167/2/3 153/2/3 166/2/3
f 168/1/3 162/1/3 167/1/3
f 170/3/3 164/3/3 163/3/3
f 171/3/3 164/3/3 170/3/3
f 172/1/3 169/1/3 168/1/3
f 173/3/3 170/3/3 169/3/3
f 173/1/3 169/1/3 172/1/3
f 174/3/3 170/3/3 173/3/3
f 177/2/3 176/2/3 175/2/3
f 178/2/3 176/2/3 177/2/3
f 179/2/3 176/2/3 178/2/3
f 182/1/3 181/1/3 180/1/3
f 183/1/3 181/1/3 182/1/3
f 187/2/3 185/2/3 184/2/3
f 187/2/3 186/2/3 185/2/3
f 188/2/3 186/2/3 187/2/3
f 191/3/3 190/3/3 189/3/3
f 192/3/3 190/3/3 191/3/3
f 196/2/3 194/2/3 193/2/3
f 197/3/3 195/3/3 194/3/3
f 197/2/3 194/2/3 196/2/3
f 198/3/3 195/3/3 197/3/3
f 199/3/4 200/3/4 202/3/4
f 202/3/4 200/3/4 203/3/4
f 201/3/4 202/3/4 204/3/4
f 202/3/4 203/3/4 204/3/4
f 204/3/4 203/3/4 205/3/4
f 205/3/4 203/3/4 206/3/4
f 205/3/4 206/3/4 207/3/4
f 207/3/4 206/3/4 208/3/4
f 212/3/4 213/3/4 214/3/4
f 214/3/4 213/3/4 215/3/4
f 214/2/4 215/2/4 216/2/4
f 216/2/4 215/2/4 217/2/4
f 209/2/4 210/2/4 218/2/4
f 210/1/4 211/1/4 219/1/4
f 218/2/4 210/2/4 219/2/4
f 219/1/4 211/1/4 220/1/4
f 216/3/4 217/3/4 221/3/4
f 221/3/4 217/3/4 222/3/4
f 223/1/4 224/1/4 225/1/4
f 225/1/4 224/1/4 226/1/4
f 227/2/4 228/2/4 230/2/4
f 228/3/4 229/3/4 231/3/4
f 230/2/4 228/2/4 231/2/4
f 231/3/4 229/3/4 232/3/4
f 232/3/4 233/3/4 234/3/4
f 234/3/4 233/3/4 235/3/4
f 236/1/4 237/1/4 240/1/4
f 240/1/4 237/1/4 241/1/4
f 238/3/4 239/3/4 244/3/4
f 244/3/4 239/3/4 245/3/4
f 242/2/4 243/2/4 246/2/4
f 243/3/4 244/3/4 247/3/4
f 246/2/4 243/2/4 247/2/4
f 247/3/4 244/3/4 248/3/4
f 249/2/4 250/2/4 252/2/4
f 250/3/4 251/3/4 253/3/4
f 252/2/4 250/2/4 253/2/4
f 253/3/4 251/3/4 254/3/4
f 249/2/4 252/2/4 257/2/4
f 255/1/4 256/1/4 260/1/4
f 260/1/4 256/1/4 261/1/4
f 249/2/4 257/2/4 262/2/4
f 257/2/4 258/2/4 262/2/4
f 258/3/4 259/3/4 263/3/4
f 262/2/4 258/2/4 263/2/4
f 263/3/4 259/3/4 264/3/4
f 265/1/4 266/1/4 267/1/4
f 267/1/4 266/1/4 268/1/4
f 272/2/5 270/2/5 269/2/5
f 273/2/5 270/2/5 272/2/5
f 275/2/5 272/2/5 271/2/5
f 276/2/5 272/2/5 275/2/5
f 277/2/5 274/2/5 273/2/5
f 278/2/5 274/2/5 277/2/5
f 279/2/5 277/2/5 276/2/5
f 280/2/5 277/2/5 279/2/5
f 283/1/5 282/1/5 281/1/5
f 284/1/5 282/1/5 283/1/5
f 289/3/5 286/3/5 285/3/5
f 290/3/5 286/3/5 289/3/5
f 293/1/5 288/1/5 287/1/5
f 294/1/5 288/1/5 293/1/5
f 295/1/5 292/1/5 291/1/5
f 296/1/5 292/1/5 295/1/5
f 301/3/5 298/3/5 297/3/5
f 302/3/5 298/3/5 301/3/5
f 303/3/5 300/3/5 299/3/5
f 304/3/5 300/3/5 303/3/5
f 309/3/5 306/3/5 305/3/5
f 310/2/5 307/2/5 306/2/5
f 310/3/5 306/3/5 309/3/5
f 311/3/5 308/3/5 307/3/5
f 311/2/5 307/2/5 310/2/5
f 312/3/5 308/3/5 311/3/5
f 317/3/5 314/3/5 313/3/5
f 317/3/5 316/3/5 315/3/5
f 317/3/5 315/3/5 314/3/5
f 318/3/5 316/3/5 317/3/5
f 321/1/5 320/1/5 319/1/5
f 322/1/5 320/1/5 321/1/5
f 323/1/6 324/1/6 327/1/6
f 325/1/6 326/1/6 327/1/6
f 324/1/6 325/1/6 327/1/6
f 327/1/6 326/1/6 328/1/6
f 329/3/6 330/3/6 334/3/6
f 334/3/6 330/3/6 335/3/6
f 331/3/6 332/3/6 336/3/6
f 336/3/6 332/3/6 337/3/6
f 333/3/6 334/3/6 339/3/6
f 339/3/6 334/3/6 340/3/6
f 337/3/6 338/3/6 343/3/6
f 343/3/6 338/3/6 344/3/6
f 340/3/6 341/3/6 345/3/6
f 345/3/6 341/3/6 346/3/6
f 342/3/6 343/3/6 347/3/6
f 347/3/6 343/3/6 348/3/6
f 349/3/6 350/3/6 352/3/6
f 352/3/6 350/3/6 353/3/6
f 351/3/6 352/3/6 355/3/6
f 355/3/6 352/3/6 356/3/6
f 353/3/6 354/3/6 357/3/6
f 357/3/6 354/3/6 358/3/6
f 359/1/6 360/1/6 361/1/6
f 361/1/6 360/1/6 362/1/6
f 363/3/6 364/3/6 365/3/6
f 365/3/6 364/3/6 366/3/6
f 367/1/6 368/1/6 369/1/6
f 369/1/6 368/1/6 370/1/6
f 371/1/6 372/1/6 373/1/6
f 373/1/6 372/1/6 374/1/6
f 375/1/6 376/1/6 377/1/6
f 377/1/6 376/1/6 378/1/6
