# MagicaVoxel @ Ephtracy

# group
o helm_med_3d_sh

# material
mtllib char-10-helm_med_3d_sh.mtl
usemtl palette

# normals
vn -1 0 0
vn 1 0 0
vn 0 0 1
vn 0 0 -1
vn 0 -1 0
vn 0 1 0

# texcoords
vt 0.470703 0.5
vt 0.916016 0.5
vt 0.958984 0.5

# verts
v -0.4 3 0.3
v -0.4 3 -0.2
v -0.4 3.2 0.3
v -0.4 3.2 -0.2
v -0.3 2.6 0.3
v -0.3 2.6 -0.2
v -0.3 3 0.4
v -0.3 3 0.3
v -0.3 3 -0.2
v -0.3 3 -0.3
v -0.3 3.2 0.4
v -0.3 3.2 0.3
v -0.3 3.2 -0.2
v -0.3 3.2 -0.3
v -0.2 2.6 -0.2
v -0.2 2.6 -0.3
v -0.2 3 0.5
v -0.2 3 0.4
v -0.2 3 -0.2
v -0.2 3 -0.3
v -0.2 3 -0.4
v -0.2 3.2 0.5
v -0.2 3.2 0.4
v -0.2 3.2 0.3
v -0.2 3.2 -0.2
v -0.2 3.2 -0.3
v -0.2 3.2 -0.4
v -0.2 3.3 0.3
v -0.2 3.3 -0.2
v -0.1 2.8 0.4
v -0.1 2.8 0.3
v -0.1 3 0.4
v -0.1 3 0.3
v -0.1 3.2 0.4
v -0.1 3.2 0.3
v -0.1 3.3 0.3
v -0.1 3.3 0.2
v -0.1 3.3 -0.1
v -0.1 3.4 0.2
v -0.1 3.4 0.1
v -0.1 3.4 0
v -0.1 3.4 -0.1
v -0.1 3.5 0.4
v -0.1 3.5 0.3
v -0.1 3.5 0.1
v -0.1 3.5 0
v -0.1 3.8 0.1
v -0.1 3.8 0
v 0.2 2.6 0.3
v 0.2 2.6 -0.2
v 0.2 3 0.3
v 0.2 3 -0.2
v 0.2 3.1 0.3
v 0.2 3.1 0.2
v 0.2 3.2 0.2
v 0.2 3.2 -0.2
v -0.2 2.6 0.3
v -0.2 2.6 -0.2
v -0.2 3 0.3
v -0.2 3 -0.2
v -0.2 3.1 0.3
v -0.2 3.1 0.2
v -0.2 3.2 0.2
v -0.2 3.2 -0.2
v 0.1 2.8 0.4
v 0.1 2.8 0.3
v 0.1 3 0.4
v 0.1 3 0.3
v 0.1 3.2 0.4
v 0.1 3.2 0.3
v 0.1 3.3 0.3
v 0.1 3.3 0.2
v 0.1 3.3 -0.1
v 0.1 3.4 0.2
v 0.1 3.4 0.1
v 0.1 3.4 0
v 0.1 3.4 -0.1
v 0.1 3.5 0.4
v 0.1 3.5 0.3
v 0.1 3.5 0.1
v 0.1 3.5 0
v 0.1 3.8 0.1
v 0.1 3.8 0
v 0.2 2.6 -0.2
v 0.2 2.6 -0.3
v 0.2 3 0.5
v 0.2 3 0.4
v 0.2 3 -0.2
v 0.2 3 -0.3
v 0.2 3 -0.4
v 0.2 3.2 0.5
v 0.2 3.2 0.4
v 0.2 3.2 0.3
v 0.2 3.2 -0.2
v 0.2 3.2 -0.3
v 0.2 3.2 -0.4
v 0.2 3.3 0.3
v 0.2 3.3 -0.2
v 0.3 2.6 0.3
v 0.3 2.6 -0.2
v 0.3 3 0.4
v 0.3 3 0.3
v 0.3 3 -0.2
v 0.3 3 -0.3
v 0.3 3.2 0.4
v 0.3 3.2 0.3
v 0.3 3.2 -0.2
v 0.3 3.2 -0.3
v 0.4 3 0.3
v 0.4 3 -0.2
v 0.4 3.2 0.3
v 0.4 3.2 -0.2
v -0.2 3 0.5
v -0.2 3.2 0.5
v 0.2 3 0.5
v 0.2 3.2 0.5
v -0.3 3 0.4
v -0.3 3.2 0.4
v -0.2 3 0.4
v -0.2 3.2 0.4
v -0.1 2.8 0.4
v -0.1 3 0.4
v -0.1 3.2 0.4
v -0.1 3.5 0.4
v 0.1 2.8 0.4
v 0.1 3 0.4
v 0.1 3.2 0.4
v 0.1 3.5 0.4
v 0.2 3 0.4
v 0.2 3.2 0.4
v 0.3 3 0.4
v 0.3 3.2 0.4
v -0.4 3 0.3
v -0.4 3.2 0.3
v -0.3 2.6 0.3
v -0.3 3 0.3
v -0.3 3.2 0.3
v -0.2 2.6 0.3
v -0.2 3 0.3
v -0.2 3.2 0.3
v -0.2 3.3 0.3
v -0.1 3.2 0.3
v -0.1 3.3 0.3
v 0.1 3.2 0.3
v 0.1 3.3 0.3
v 0.2 2.6 0.3
v 0.2 3 0.3
v 0.2 3.2 0.3
v 0.2 3.3 0.3
v 0.3 2.6 0.3
v 0.3 3 0.3
v 0.3 3.2 0.3
v 0.4 3 0.3
v 0.4 3.2 0.3
v -0.1 3.3 0.2
v -0.1 3.4 0.2
v 0.1 3.3 0.2
v 0.1 3.4 0.2
v -0.1 3.4 0.1
v -0.1 3.5 0.1
v -0.1 3.8 0.1
v 0.1 3.4 0.1
v 0.1 3.5 0.1
v 0.1 3.8 0.1
v -0.2 2.6 -0.2
v -0.2 3 -0.2
v -0.2 3.2 -0.2
v 0.2 2.6 -0.2
v 0.2 3 -0.2
v 0.2 3.2 -0.2
v -0.2 3 0.3
v -0.2 3.1 0.3
v -0.1 2.8 0.3
v -0.1 3 0.3
v -0.1 3.1 0.3
v -0.1 3.3 0.3
v -0.1 3.5 0.3
v 0.1 2.8 0.3
v 0.1 3 0.3
v 0.1 3.1 0.3
v 0.1 3.3 0.3
v 0.1 3.5 0.3
v 0.2 3 0.3
v 0.2 3.1 0.3
v -0.2 3.1 0.2
v -0.2 3.2 0.2
v -0.1 3.1 0.2
v -0.1 3.2 0.2
v 0.1 3.1 0.2
v 0.1 3.2 0.2
v 0.2 3.1 0.2
v 0.2 3.2 0.2
v -0.1 3.4 0
v -0.1 3.5 0
v -0.1 3.8 0
v 0.1 3.4 0
v 0.1 3.5 0
v 0.1 3.8 0
v -0.1 3.3 -0.1
v -0.1 3.4 -0.1
v 0.1 3.3 -0.1
v 0.1 3.4 -0.1
v -0.4 3 -0.2
v -0.4 3.2 -0.2
v -0.3 2.6 -0.2
v -0.3 3 -0.2
v -0.3 3.2 -0.2
v -0.2 2.6 -0.2
v -0.2 3 -0.2
v -0.2 3.2 -0.2
v -0.2 3.3 -0.2
v 0.2 2.6 -0.2
v 0.2 3 -0.2
v 0.2 3.2 -0.2
v 0.2 3.3 -0.2
v 0.3 2.6 -0.2
v 0.3 3 -0.2
v 0.3 3.2 -0.2
v 0.4 3 -0.2
v 0.4 3.2 -0.2
v -0.3 3 -0.3
v -0.3 3.2 -0.3
v -0.2 2.6 -0.3
v -0.2 3 -0.3
v -0.2 3.2 -0.3
v 0.2 2.6 -0.3
v 0.2 3 -0.3
v 0.2 3.2 -0.3
v 0.3 3 -0.3
v 0.3 3.2 -0.3
v -0.2 3 -0.4
v -0.2 3.2 -0.4
v 0.2 3 -0.4
v 0.2 3.2 -0.4
v -0.3 2.6 0.3
v -0.2 2.6 0.3
v 0.2 2.6 0.3
v 0.3 2.6 0.3
v -0.3 2.6 -0.2
v -0.2 2.6 -0.2
v 0.2 2.6 -0.2
v 0.3 2.6 -0.2
v -0.2 2.6 -0.3
v 0.2 2.6 -0.3
v -0.1 2.8 0.4
v 0.1 2.8 0.4
v -0.1 2.8 0.3
v 0.1 2.8 0.3
v -0.2 3 0.5
v 0.2 3 0.5
v -0.3 3 0.4
v -0.2 3 0.4
v -0.1 3 0.4
v 0.1 3 0.4
v 0.2 3 0.4
v 0.3 3 0.4
v -0.4 3 0.3
v -0.3 3 0.3
v -0.2 3 0.3
v -0.1 3 0.3
v 0.1 3 0.3
v 0.2 3 0.3
v 0.3 3 0.3
v 0.4 3 0.3
v -0.4 3 -0.2
v -0.3 3 -0.2
v -0.2 3 -0.2
v 0.2 3 -0.2
v 0.3 3 -0.2
v 0.4 3 -0.2
v -0.3 3 -0.3
v -0.2 3 -0.3
v 0.2 3 -0.3
v 0.3 3 -0.3
v -0.2 3 -0.4
v 0.2 3 -0.4
v -0.2 3.1 0.3
v -0.1 3.1 0.3
v 0.1 3.1 0.3
v 0.2 3.1 0.3
v -0.2 3.1 0.2
v -0.1 3.1 0.2
v 0.1 3.1 0.2
v 0.2 3.1 0.2
v -0.2 3.2 0.2
v -0.1 3.2 0.2
v 0.1 3.2 0.2
v 0.2 3.2 0.2
v -0.2 3.2 -0.2
v 0.2 3.2 -0.2
v -0.2 3.2 0.5
v 0.2 3.2 0.5
v -0.3 3.2 0.4
v -0.2 3.2 0.4
v -0.1 3.2 0.4
v 0.1 3.2 0.4
v 0.2 3.2 0.4
v 0.3 3.2 0.4
v -0.4 3.2 0.3
v -0.3 3.2 0.3
v -0.2 3.2 0.3
v -0.1 3.2 0.3
v 0.1 3.2 0.3
v 0.2 3.2 0.3
v 0.3 3.2 0.3
v 0.4 3.2 0.3
v -0.4 3.2 -0.2
v -0.3 3.2 -0.2
v -0.2 3.2 -0.2
v 0.2 3.2 -0.2
v 0.3 3.2 -0.2
v 0.4 3.2 -0.2
v -0.3 3.2 -0.3
v -0.2 3.2 -0.3
v 0.2 3.2 -0.3
v 0.3 3.2 -0.3
v -0.2 3.2 -0.4
v 0.2 3.2 -0.4
v -0.2 3.3 0.3
v -0.1 3.3 0.3
v 0.1 3.3 0.3
v 0.2 3.3 0.3
v -0.1 3.3 0.2
v 0.1 3.3 0.2
v -0.1 3.3 -0.1
v 0.1 3.3 -0.1
v -0.2 3.3 -0.2
v 0.2 3.3 -0.2
v -0.1 3.4 0.2
v 0.1 3.4 0.2
v -0.1 3.4 0.1
v 0.1 3.4 0.1
v -0.1 3.4 0
v 0.1 3.4 0
v -0.1 3.4 -0.1
v 0.1 3.4 -0.1
v -0.1 3.5 0.4
v 0.1 3.5 0.4
v -0.1 3.5 0.3
v 0.1 3.5 0.3
v -0.1 3.8 0.1
v 0.1 3.8 0.1
v -0.1 3.8 0
v 0.1 3.8 0

# faces
f 3/1/1 2/1/1 1/1/1
f 4/1/1 2/1/1 3/1/1
f 8/3/1 6/3/1 5/3/1
f 9/3/1 6/3/1 8/3/1
f 11/1/1 8/1/1 7/1/1
f 12/1/1 8/1/1 11/1/1
f 13/1/1 10/1/1 9/1/1
f 14/1/1 10/1/1 13/1/1
f 19/3/1 16/3/1 15/3/1
f 20/3/1 16/3/1 19/3/1
f 22/1/1 18/1/1 17/1/1
f 23/1/1 18/1/1 22/1/1
f 26/1/1 21/1/1 20/1/1
f 27/1/1 21/1/1 26/1/1
f 28/2/1 25/2/1 24/2/1
f 29/2/1 25/2/1 28/2/1
f 32/2/1 31/2/1 30/2/1
f 33/2/1 31/2/1 32/2/1
f 36/2/1 35/2/1 34/2/1
f 39/2/1 38/2/1 37/2/1
f 40/2/1 38/2/1 39/2/1
f 41/2/1 38/2/1 40/2/1
f 42/2/1 38/2/1 41/2/1
f 43/2/1 36/2/1 34/2/1
f 44/2/1 36/2/1 43/2/1
f 45/2/1 41/2/1 40/2/1
f 46/2/1 41/2/1 45/2/1
f 47/1/1 46/1/1 45/1/1
f 48/1/1 46/1/1 47/1/1
f 51/3/1 50/3/1 49/3/1
f 52/3/1 50/3/1 51/3/1
f 53/2/1 52/2/1 51/2/1
f 54/2/1 52/2/1 53/2/1
f 55/2/1 52/2/1 54/2/1
f 56/2/1 52/2/1 55/2/1
f 57/3/2 58/3/2 59/3/2
f 59/3/2 58/3/2 60/3/2
f 59/2/2 60/2/2 61/2/2
f 61/2/2 60/2/2 62/2/2
f 62/2/2 60/2/2 63/2/2
f 63/2/2 60/2/2 64/2/2
f 65/2/2 66/2/2 67/2/2
f 67/2/2 66/2/2 68/2/2
f 69/2/2 70/2/2 71/2/2
f 72/2/2 73/2/2 74/2/2
f 74/2/2 73/2/2 75/2/2
f 75/2/2 73/2/2 76/2/2
f 76/2/2 73/2/2 77/2/2
f 69/2/2 71/2/2 78/2/2
f 78/2/2 71/2/2 79/2/2
f 75/2/2 76/2/2 80/2/2
f 80/2/2 76/2/2 81/2/2
f 80/1/2 81/1/2 82/1/2
f 82/1/2 81/1/2 83/1/2
f 84/3/2 85/3/2 88/3/2
f 88/3/2 85/3/2 89/3/2
f 86/1/2 87/1/2 91/1/2
f 91/1/2 87/1/2 92/1/2
f 89/1/2 90/1/2 95/1/2
f 95/1/2 90/1/2 96/1/2
f 93/2/2 94/2/2 97/2/2
f 97/2/2 94/2/2 98/2/2
f 99/3/2 100/3/2 102/3/2
f 102/3/2 100/3/2 103/3/2
f 101/1/2 102/1/2 105/1/2
f 105/1/2 102/1/2 106/1/2
f 103/1/2 104/1/2 107/1/2
f 107/1/2 104/1/2 108/1/2
f 109/1/2 110/1/2 111/1/2
f 111/1/2 110/1/2 112/1/2
f 115/1/3 114/1/3 113/1/3
f 116/1/3 114/1/3 115/1/3
f 119/1/3 118/1/3 117/1/3
f 120/1/3 118/1/3 119/1/3
f 125/2/3 122/2/3 121/2/3
f 126/2/3 122/2/3 125/2/3
f 127/2/3 124/2/3 123/2/3
f 128/2/3 124/2/3 127/2/3
f 131/1/3 130/1/3 129/1/3
f 132/1/3 130/1/3 131/1/3
f 136/1/3 134/1/3 133/1/3
f 137/1/3 134/1/3 136/1/3
f 138/3/3 136/3/3 135/3/3
f 139/3/3 136/3/3 138/3/3
f 142/2/3 141/2/3 140/2/3
f 143/2/3 141/2/3 142/2/3
f 148/2/3 145/2/3 144/2/3
f 149/2/3 145/2/3 148/2/3
f 150/3/3 147/3/3 146/3/3
f 151/3/3 147/3/3 150/3/3
f 153/1/3 152/1/3 151/1/3
f 154/1/3 152/1/3 153/1/3
f 157/2/3 156/2/3 155/2/3
f 158/2/3 156/2/3 157/2/3
f 162/2/3 160/2/3 159/2/3
f 163/1/3 161/1/3 160/1/3
f 163/2/3 160/2/3 162/2/3
f 164/1/3 161/1/3 163/1/3
f 168/3/3 166/3/3 165/3/3
f 169/2/3 167/2/3 166/2/3
f 169/3/3 166/3/3 168/3/3
f 170/2/3 167/2/3 169/2/3
f 171/2/4 172/2/4 174/2/4
f 174/2/4 172/2/4 175/2/4
f 173/2/4 174/2/4 178/2/4
f 174/2/4 175/2/4 178/2/4
f 178/2/4 175/2/4 179/2/4
f 179/2/4 175/2/4 180/2/4
f 176/2/4 177/2/4 181/2/4
f 181/2/4 177/2/4 182/2/4
f 179/2/4 180/2/4 183/2/4
f 183/2/4 180/2/4 184/2/4
f 185/2/4 186/2/4 187/2/4
f 187/2/4 186/2/4 188/2/4
f 187/3/4 188/3/4 189/3/4
f 189/3/4 188/3/4 190/3/4
f 189/2/4 190/2/4 191/2/4
f 191/2/4 190/2/4 192/2/4
f 193/2/4 194/2/4 196/2/4
f 194/1/4 195/1/4 197/1/4
f 196/2/4 194/2/4 197/2/4
f 197/1/4 195/1/4 198/1/4
f 199/2/4 200/2/4 201/2/4
f 201/2/4 200/2/4 202/2/4
f 203/1/4 204/1/4 206/1/4
f 206/1/4 204/1/4 207/1/4
f 205/3/4 206/3/4 208/3/4
f 208/3/4 206/3/4 209/3/4
f 210/2/4 211/2/4 214/2/4
f 214/2/4 211/2/4 215/2/4
f 212/3/4 213/3/4 216/3/4
f 216/3/4 213/3/4 217/3/4
f 217/1/4 218/1/4 219/1/4
f 219/1/4 218/1/4 220/1/4
f 221/1/4 222/1/4 224/1/4
f 224/1/4 222/1/4 225/1/4
f 223/3/4 224/3/4 226/3/4
f 226/3/4 224/3/4 227/3/4
f 227/1/4 228/1/4 229/1/4
f 229/1/4 228/1/4 230/1/4
f 231/1/4 232/1/4 233/1/4
f 233/1/4 232/1/4 234/1/4
f 239/3/5 236/3/5 235/3/5
f 240/3/5 236/3/5 239/3/5
f 241/3/5 238/3/5 237/3/5
f 242/3/5 238/3/5 241/3/5
f 243/3/5 241/3/5 240/3/5
f 244/3/5 241/3/5 243/3/5
f 247/2/5 246/2/5 245/2/5
f 248/2/5 246/2/5 247/2/5
f 252/1/5 250/1/5 249/1/5
f 253/1/5 250/1/5 252/1/5
f 254/1/5 250/1/5 253/1/5
f 255/1/5 250/1/5 254/1/5
f 258/1/5 252/1/5 251/1/5
f 259/2/5 253/2/5 252/2/5
f 259/1/5 252/1/5 258/1/5
f 260/2/5 253/2/5 259/2/5
f 261/2/5 255/2/5 254/2/5
f 262/1/5 256/1/5 255/1/5
f 262/2/5 255/2/5 261/2/5
f 263/1/5 256/1/5 262/1/5
f 265/1/5 258/1/5 257/1/5
f 266/1/5 258/1/5 265/1/5
f 269/1/5 264/1/5 263/1/5
f 270/1/5 264/1/5 269/1/5
f 271/1/5 267/1/5 266/1/5
f 272/1/5 267/1/5 271/1/5
f 273/1/5 269/1/5 268/1/5
f 274/1/5 269/1/5 273/1/5
f 275/1/5 273/1/5 272/1/5
f 276/1/5 273/1/5 275/1/5
f 281/2/5 278/2/5 277/2/5
f 282/3/5 279/3/5 278/3/5
f 282/2/5 278/2/5 281/2/5
f 283/2/5 280/2/5 279/2/5
f 283/3/5 279/3/5 282/3/5
f 284/2/5 280/2/5 283/2/5
f 289/2/5 286/2/5 285/2/5
f 289/2/5 288/2/5 287/2/5
f 289/2/5 287/2/5 286/2/5
f 290/2/5 288/2/5 289/2/5
f 291/1/6 292/1/6 294/1/6
f 294/1/6 292/1/6 295/1/6
f 295/1/6 292/1/6 296/1/6
f 296/1/6 292/1/6 297/1/6
f 293/1/6 294/1/6 300/1/6
f 294/2/6 295/2/6 301/2/6
f 300/1/6 294/1/6 301/1/6
f 301/2/6 295/2/6 302/2/6
f 296/2/6 297/2/6 303/2/6
f 297/1/6 298/1/6 304/1/6
f 303/2/6 297/2/6 304/2/6
f 304/1/6 298/1/6 305/1/6
f 299/1/6 300/1/6 307/1/6
f 300/2/6 301/2/6 308/2/6
f 307/1/6 300/1/6 308/1/6
f 308/2/6 301/2/6 309/2/6
f 304/2/6 305/2/6 310/2/6
f 305/1/6 306/1/6 311/1/6
f 310/2/6 305/2/6 311/2/6
f 311/1/6 306/1/6 312/1/6
f 308/1/6 309/1/6 313/1/6
f 309/2/6 310/2/6 314/2/6
f 313/1/6 309/1/6 314/1/6
f 310/1/6 311/1/6 315/1/6
f 314/2/6 310/2/6 315/2/6
f 315/1/6 311/1/6 316/1/6
f 314/1/6 315/1/6 317/1/6
f 317/1/6 315/1/6 318/1/6
f 319/2/6 320/2/6 323/2/6
f 321/2/6 322/2/6 323/2/6
f 320/2/6 321/2/6 323/2/6
f 323/2/6 322/2/6 324/2/6
f 319/2/6 323/2/6 325/2/6
f 324/2/6 322/2/6 326/2/6
f 319/2/6 325/2/6 327/2/6
f 325/2/6 326/2/6 327/2/6
f 326/2/6 322/2/6 328/2/6
f 327/2/6 326/2/6 328/2/6
f 329/2/6 330/2/6 331/2/6
f 331/2/6 330/2/6 332/2/6
f 333/2/6 334/2/6 335/2/6
f 335/2/6 334/2/6 336/2/6
f 337/2/6 338/2/6 339/2/6
f 339/2/6 338/2/6 340/2/6
f 341/1/6 342/1/6 343/1/6
f 343/1/6 342/1/6 344/1/6
