# MagicaVoxel @ Ephtracy

# group
o helm_med_3c_du

# material
mtllib char-95-helm_med_3c_du.mtl
usemtl palette

# normals
vn -1 0 0
vn 1 0 0
vn 0 0 1
vn 0 0 -1
vn 0 -1 0
vn 0 1 0

# texcoords
vt 0.482422 0.5
vt 0.494141 0.5
vt 0.916016 0.5
vt 0.958984 0.5
vt 0.962891 0.5

# verts
v -0.3 2.5 0.2
v -0.3 2.5 -0.2
v -0.3 2.8 0.3
v -0.3 2.8 0.2
v -0.3 3 0.3
v -0.3 3 0.2
v -0.3 3 -0.2
v -0.3 3.2 0.3
v -0.3 3.2 -0.2
v -0.2 2.5 0.3
v -0.2 2.5 0.2
v -0.2 2.5 -0.2
v -0.2 2.5 -0.3
v -0.2 2.7 0.3
v -0.2 2.7 0.2
v -0.2 2.8 0.3
v -0.2 2.8 0.2
v -0.2 3 0.4
v -0.2 3 0.3
v -0.2 3 -0.2
v -0.2 3 -0.3
v -0.2 3.2 0.4
v -0.2 3.2 0.3
v -0.2 3.2 -0.2
v -0.2 3.2 -0.3
v -0.2 3.3 0.3
v -0.2 3.3 -0.2
v -0.1 2.6 -0.3
v -0.1 2.6 -0.4
v -0.1 2.7 0.4
v -0.1 2.7 0.3
v -0.1 2.8 0.3
v -0.1 3 0.4
v -0.1 3 0.3
v -0.1 3 -0.3
v -0.1 3.2 0.4
v -0.1 3.2 0.3
v -0.1 3.2 -0.2
v -0.1 3.2 -0.3
v -0.1 3.3 0.4
v -0.1 3.3 0.3
v -0.1 3.3 -0.2
v -0.1 3.3 -0.3
v -0.1 3.3 -0.4
v -0.1 3.4 0.3
v -0.1 3.4 0.1
v -0.1 3.4 0
v -0.1 3.4 -0.2
v -0.1 3.5 0.2
v -0.1 3.5 0.1
v -0.1 3.5 0
v -0.1 3.5 -0.2
v -0.1 3.5 -0.3
v -0.1 3.6 -0.1
v -0.1 3.6 -0.2
v -0.1 3.7 0.2
v -0.1 3.7 -0.1
v 0.2 2.5 0.2
v 0.2 2.5 -0.2
v 0.2 2.7 0.2
v 0.2 2.8 0.3
v 0.2 2.8 0.2
v 0.2 3 0.3
v 0.2 3 0.2
v 0.2 3 -0.2
v 0.2 3.1 0.3
v 0.2 3.1 0.2
v 0.2 3.2 0.2
v 0.2 3.2 -0.2
v -0.2 2.5 0.2
v -0.2 2.5 -0.2
v -0.2 2.7 0.2
v -0.2 2.8 0.3
v -0.2 2.8 0.2
v -0.2 3 0.3
v -0.2 3 0.2
v -0.2 3 -0.2
v -0.2 3.1 0.3
v -0.2 3.1 0.2
v -0.2 3.2 0.2
v -0.2 3.2 -0.2
v 0.1 2.6 -0.3
v 0.1 2.6 -0.4
v 0.1 2.7 0.4
v 0.1 2.7 0.3
v 0.1 2.8 0.3
v 0.1 3 0.4
v 0.1 3 0.3
v 0.1 3 -0.3
v 0.1 3.2 0.4
v 0.1 3.2 0.3
v 0.1 3.2 -0.2
v 0.1 3.2 -0.3
v 0.1 3.3 0.4
v 0.1 3.3 0.3
v 0.1 3.3 -0.2
v 0.1 3.3 -0.3
v 0.1 3.3 -0.4
v 0.1 3.4 0.3
v 0.1 3.4 0.1
v 0.1 3.4 0
v 0.1 3.4 -0.2
v 0.1 3.5 0.2
v 0.1 3.5 0.1
v 0.1 3.5 0
v 0.1 3.5 -0.2
v 0.1 3.5 -0.3
v 0.1 3.6 -0.1
v 0.1 3.6 -0.2
v 0.1 3.7 0.2
v 0.1 3.7 -0.1
v 0.2 2.5 0.3
v 0.2 2.5 0.2
v 0.2 2.5 -0.2
v 0.2 2.5 -0.3
v 0.2 2.7 0.3
v 0.2 2.7 0.2
v 0.2 2.8 0.3
v 0.2 2.8 0.2
v 0.2 3 0.4
v 0.2 3 0.3
v 0.2 3 -0.2
v 0.2 3 -0.3
v 0.2 3.2 0.4
v 0.2 3.2 0.3
v 0.2 3.2 -0.2
v 0.2 3.2 -0.3
v 0.2 3.3 0.3
v 0.2 3.3 -0.2
v 0.3 2.5 0.2
v 0.3 2.5 -0.2
v 0.3 2.8 0.3
v 0.3 2.8 0.2
v 0.3 3 0.3
v 0.3 3 0.2
v 0.3 3 -0.2
v 0.3 3.2 0.3
v 0.3 3.2 -0.2
v -0.2 3 0.4
v -0.2 3.2 0.4
v -0.1 2.7 0.4
v -0.1 3 0.4
v -0.1 3.2 0.4
v -0.1 3.3 0.4
v 0.1 2.7 0.4
v 0.1 3 0.4
v 0.1 3.2 0.4
v 0.1 3.3 0.4
v 0.2 3 0.4
v 0.2 3.2 0.4
v -0.3 2.8 0.3
v -0.3 3 0.3
v -0.3 3.2 0.3
v -0.2 2.5 0.3
v -0.2 2.7 0.3
v -0.2 2.8 0.3
v -0.2 3 0.3
v -0.2 3.2 0.3
v -0.2 3.3 0.3
v -0.1 2.7 0.3
v -0.1 2.8 0.3
v -0.1 3.2 0.3
v -0.1 3.3 0.3
v -0.1 3.4 0.3
v 0.1 2.7 0.3
v 0.1 2.8 0.3
v 0.1 3.2 0.3
v 0.1 3.3 0.3
v 0.1 3.4 0.3
v 0.2 2.5 0.3
v 0.2 2.7 0.3
v 0.2 2.8 0.3
v 0.2 3 0.3
v 0.2 3.2 0.3
v 0.2 3.3 0.3
v 0.3 2.8 0.3
v 0.3 3 0.3
v 0.3 3.2 0.3
v -0.3 2.5 0.2
v -0.3 2.8 0.2
v -0.2 2.5 0.2
v -0.2 2.7 0.2
v -0.2 2.8 0.2
v -0.1 3.5 0.2
v -0.1 3.7 0.2
v 0.1 3.5 0.2
v 0.1 3.7 0.2
v 0.2 2.5 0.2
v 0.2 2.7 0.2
v 0.2 2.8 0.2
v 0.3 2.5 0.2
v 0.3 2.8 0.2
v -0.1 3.4 0.1
v -0.1 3.5 0.1
v 0.1 3.4 0.1
v 0.1 3.5 0.1
v -0.2 2.5 -0.2
v -0.2 3 -0.2
v -0.2 3.2 -0.2
v -0.1 3.2 -0.2
v 0.1 3.2 -0.2
v 0.2 2.5 -0.2
v 0.2 3 -0.2
v 0.2 3.2 -0.2
v -0.2 3 0.3
v -0.2 3.1 0.3
v -0.1 2.8 0.3
v -0.1 3 0.3
v -0.1 3.1 0.3
v 0.1 2.8 0.3
v 0.1 3 0.3
v 0.1 3.1 0.3
v 0.2 3 0.3
v 0.2 3.1 0.3
v -0.2 2.5 0.2
v -0.2 2.7 0.2
v -0.2 2.8 0.2
v -0.2 3.1 0.2
v -0.2 3.2 0.2
v -0.1 3.1 0.2
v -0.1 3.2 0.2
v 0.1 3.1 0.2
v 0.1 3.2 0.2
v 0.2 2.5 0.2
v 0.2 2.7 0.2
v 0.2 2.8 0.2
v 0.2 3.1 0.2
v 0.2 3.2 0.2
v -0.1 3.6 -0.1
v -0.1 3.7 -0.1
v 0.1 3.6 -0.1
v 0.1 3.7 -0.1
v -0.3 2.5 -0.2
v -0.3 3 -0.2
v -0.3 3.2 -0.2
v -0.2 2.5 -0.2
v -0.2 3 -0.2
v -0.2 3.2 -0.2
v -0.2 3.3 -0.2
v -0.1 3.2 -0.2
v -0.1 3.3 -0.2
v -0.1 3.5 -0.2
v -0.1 3.6 -0.2
v 0.1 3.2 -0.2
v 0.1 3.3 -0.2
v 0.1 3.5 -0.2
v 0.1 3.6 -0.2
v 0.2 2.5 -0.2
v 0.2 3 -0.2
v 0.2 3.2 -0.2
v 0.2 3.3 -0.2
v 0.3 2.5 -0.2
v 0.3 3 -0.2
v 0.3 3.2 -0.2
v -0.2 2.5 -0.3
v -0.2 3 -0.3
v -0.2 3.2 -0.3
v -0.1 2.6 -0.3
v -0.1 3 -0.3
v -0.1 3.2 -0.3
v -0.1 3.3 -0.3
v -0.1 3.5 -0.3
v 0.1 2.6 -0.3
v 0.1 3 -0.3
v 0.1 3.2 -0.3
v 0.1 3.3 -0.3
v 0.1 3.5 -0.3
v 0.2 2.5 -0.3
v 0.2 3 -0.3
v 0.2 3.2 -0.3
v -0.1 2.6 -0.4
v -0.1 3.3 -0.4
v 0.1 2.6 -0.4
v 0.1 3.3 -0.4
v -0.2 2.5 0.3
v 0.2 2.5 0.3
v -0.3 2.5 0.2
v -0.2 2.5 0.2
v 0.2 2.5 0.2
v 0.3 2.5 0.2
v -0.3 2.5 -0.2
v -0.2 2.5 -0.2
v 0.2 2.5 -0.2
v 0.3 2.5 -0.2
v -0.2 2.5 -0.3
v 0.2 2.5 -0.3
v -0.1 2.6 -0.3
v 0.1 2.6 -0.3
v -0.1 2.6 -0.4
v 0.1 2.6 -0.4
v -0.1 2.7 0.4
v 0.1 2.7 0.4
v -0.1 2.7 0.3
v 0.1 2.7 0.3
v -0.3 2.8 0.3
v -0.2 2.8 0.3
v 0.2 2.8 0.3
v 0.3 2.8 0.3
v -0.3 2.8 0.2
v -0.2 2.8 0.2
v 0.2 2.8 0.2
v 0.3 2.8 0.2
v -0.2 3 0.4
v -0.1 3 0.4
v 0.1 3 0.4
v 0.2 3 0.4
v -0.2 3 0.3
v -0.1 3 0.3
v 0.1 3 0.3
v 0.2 3 0.3
v -0.2 3.1 0.3
v -0.1 3.1 0.3
v 0.1 3.1 0.3
v 0.2 3.1 0.3
v -0.2 3.1 0.2
v -0.1 3.1 0.2
v 0.1 3.1 0.2
v 0.2 3.1 0.2
v -0.2 3.2 0.2
v -0.1 3.2 0.2
v 0.1 3.2 0.2
v 0.2 3.2 0.2
v -0.2 3.2 -0.2
v -0.1 3.2 -0.2
v 0.1 3.2 -0.2
v 0.2 3.2 -0.2
v -0.1 3.5 0.2
v 0.1 3.5 0.2
v -0.1 3.5 0.1
v 0.1 3.5 0.1
v -0.2 2.8 0.3
v -0.1 2.8 0.3
v 0.1 2.8 0.3
v 0.2 2.8 0.3
v -0.2 2.8 0.2
v 0.2 2.8 0.2
v -0.2 3.2 0.4
v -0.1 3.2 0.4
v 0.1 3.2 0.4
v 0.2 3.2 0.4
v -0.3 3.2 0.3
v -0.2 3.2 0.3
v -0.1 3.2 0.3
v 0.1 3.2 0.3
v 0.2 3.2 0.3
v 0.3 3.2 0.3
v -0.3 3.2 -0.2
v -0.2 3.2 -0.2
v -0.1 3.2 -0.2
v 0.1 3.2 -0.2
v 0.2 3.2 -0.2
v 0.3 3.2 -0.2
v -0.2 3.2 -0.3
v -0.1 3.2 -0.3
v 0.1 3.2 -0.3
v 0.2 3.2 -0.3
v -0.1 3.3 0.4
v 0.1 3.3 0.4
v -0.2 3.3 0.3
v -0.1 3.3 0.3
v 0.1 3.3 0.3
v 0.2 3.3 0.3
v -0.2 3.3 -0.2
v -0.1 3.3 -0.2
v 0.1 3.3 -0.2
v 0.2 3.3 -0.2
v -0.1 3.3 -0.3
v 0.1 3.3 -0.3
v -0.1 3.3 -0.4
v 0.1 3.3 -0.4
v -0.1 3.4 0.3
v 0.1 3.4 0.3
v -0.1 3.4 0.1
v 0.1 3.4 0.1
v -0.1 3.5 -0.2
v 0.1 3.5 -0.2
v -0.1 3.5 -0.3
v 0.1 3.5 -0.3
v -0.1 3.6 -0.1
v 0.1 3.6 -0.1
v -0.1 3.6 -0.2
v 0.1 3.6 -0.2
v -0.1 3.7 0.2
v 0.1 3.7 0.2
v -0.1 3.7 -0.1
v 0.1 3.7 -0.1

# faces
f 4/4/1 2/4/1 1/4/1
f 5/1/1 4/1/1 3/1/1
f 6/4/1 2/4/1 4/4/1
f 6/1/1 4/1/1 5/1/1
f 7/4/1 2/4/1 6/4/1
f 8/3/1 6/3/1 5/3/1
f 8/3/1 7/3/1 6/3/1
f 9/3/1 7/3/1 8/3/1
f 14/4/1 11/4/1 10/4/1
f 15/4/1 11/4/1 14/4/1
f 16/1/1 15/1/1 14/1/1
f 17/1/1 15/1/1 16/1/1
f 20/4/1 13/4/1 12/4/1
f 21/4/1 13/4/1 20/4/1
f 22/3/1 19/3/1 18/3/1
f 23/3/1 19/3/1 22/3/1
f 24/3/1 21/3/1 20/3/1
f 25/3/1 21/3/1 24/3/1
f 26/5/1 24/5/1 23/5/1
f 27/5/1 24/5/1 26/5/1
f 32/3/1 31/3/1 30/3/1
f 33/3/1 32/3/1 30/3/1
f 34/3/1 32/3/1 33/3/1
f 35/2/1 29/2/1 28/2/1
f 39/2/1 29/2/1 35/2/1
f 40/3/1 37/3/1 36/3/1
f 41/3/1 37/3/1 40/3/1
f 42/3/1 39/3/1 38/3/1
f 43/2/1 29/2/1 39/2/1
f 43/3/1 39/3/1 42/3/1
f 44/2/1 29/2/1 43/2/1
f 45/3/1 42/3/1 41/3/1
f 46/3/1 42/3/1 45/3/1
f 47/3/1 42/3/1 46/3/1
f 48/2/1 43/2/1 42/2/1
f 48/3/1 42/3/1 47/3/1
f 50/3/1 47/3/1 46/3/1
f 51/2/1 48/2/1 47/2/1
f 51/3/1 47/3/1 50/3/1
f 52/2/1 43/2/1 48/2/1
f 52/2/1 48/2/1 51/2/1
f 53/2/1 43/2/1 52/2/1
f 54/2/1 50/2/1 49/2/1
f 54/2/1 51/2/1 50/2/1
f 54/2/1 52/2/1 51/2/1
f 55/2/1 52/2/1 54/2/1
f 56/2/1 54/2/1 49/2/1
f 57/2/1 54/2/1 56/2/1
f 60/4/1 59/4/1 58/4/1
f 62/4/1 59/4/1 60/4/1
f 63/1/1 62/1/1 61/1/1
f 64/4/1 59/4/1 62/4/1
f 64/1/1 62/1/1 63/1/1
f 65/4/1 59/4/1 64/4/1
f 66/3/1 64/3/1 63/3/1
f 66/3/1 65/3/1 64/3/1
f 67/3/1 65/3/1 66/3/1
f 68/3/1 65/3/1 67/3/1
f 69/3/1 65/3/1 68/3/1
f 70/4/2 71/4/2 72/4/2
f 72/4/2 71/4/2 74/4/2
f 73/1/2 74/1/2 75/1/2
f 74/4/2 71/4/2 76/4/2
f 75/1/2 74/1/2 76/1/2
f 76/4/2 71/4/2 77/4/2
f 75/3/2 76/3/2 78/3/2
f 76/3/2 77/3/2 78/3/2
f 78/3/2 77/3/2 79/3/2
f 79/3/2 77/3/2 80/3/2
f 80/3/2 77/3/2 81/3/2
f 84/3/2 85/3/2 86/3/2
f 84/3/2 86/3/2 87/3/2
f 87/3/2 86/3/2 88/3/2
f 82/2/2 83/2/2 89/2/2
f 89/2/2 83/2/2 93/2/2
f 90/3/2 91/3/2 94/3/2
f 94/3/2 91/3/2 95/3/2
f 92/3/2 93/3/2 96/3/2
f 93/2/2 83/2/2 97/2/2
f 96/3/2 93/3/2 97/3/2
f 97/2/2 83/2/2 98/2/2
f 95/3/2 96/3/2 99/3/2
f 99/3/2 96/3/2 100/3/2
f 100/3/2 96/3/2 101/3/2
f 96/2/2 97/2/2 102/2/2
f 101/3/2 96/3/2 102/3/2
f 100/3/2 101/3/2 104/3/2
f 101/2/2 102/2/2 105/2/2
f 104/3/2 101/3/2 105/3/2
f 102/2/2 97/2/2 106/2/2
f 105/2/2 102/2/2 106/2/2
f 106/2/2 97/2/2 107/2/2
f 103/2/2 104/2/2 108/2/2
f 104/2/2 105/2/2 108/2/2
f 105/2/2 106/2/2 108/2/2
f 108/2/2 106/2/2 109/2/2
f 103/2/2 108/2/2 110/2/2
f 110/2/2 108/2/2 111/2/2
f 112/4/2 113/4/2 116/4/2
f 116/4/2 113/4/2 117/4/2
f 116/1/2 117/1/2 118/1/2
f 118/1/2 117/1/2 119/1/2
f 114/4/2 115/4/2 122/4/2
f 122/4/2 115/4/2 123/4/2
f 120/3/2 121/3/2 124/3/2
f 124/3/2 121/3/2 125/3/2
f 122/3/2 123/3/2 126/3/2
f 126/3/2 123/3/2 127/3/2
f 125/5/2 126/5/2 128/5/2
f 128/5/2 126/5/2 129/5/2
f 130/4/2 131/4/2 133/4/2
f 132/1/2 133/1/2 134/1/2
f 133/4/2 131/4/2 135/4/2
f 134/1/2 133/1/2 135/1/2
f 135/4/2 131/4/2 136/4/2
f 134/3/2 135/3/2 137/3/2
f 135/3/2 136/3/2 137/3/2
f 137/3/2 136/3/2 138/3/2
f 142/3/3 140/3/3 139/3/3
f 143/3/3 140/3/3 142/3/3
f 145/3/3 142/3/3 141/3/3
f 145/3/3 144/3/3 143/3/3
f 145/3/3 143/3/3 142/3/3
f 146/3/3 144/3/3 145/3/3
f 147/3/3 144/3/3 146/3/3
f 148/3/3 144/3/3 147/3/3
f 149/3/3 147/3/3 146/3/3
f 150/3/3 147/3/3 149/3/3
f 156/1/3 152/1/3 151/1/3
f 157/3/3 153/3/3 152/3/3
f 157/1/3 152/1/3 156/1/3
f 158/3/3 153/3/3 157/3/3
f 160/4/3 155/4/3 154/4/3
f 160/1/3 156/1/3 155/1/3
f 161/1/3 156/1/3 160/1/3
f 162/5/3 159/5/3 158/5/3
f 163/5/3 159/5/3 162/5/3
f 165/4/3 160/4/3 154/4/3
f 168/3/3 164/3/3 163/3/3
f 169/3/3 164/3/3 168/3/3
f 170/4/3 165/4/3 154/4/3
f 171/1/3 166/1/3 165/1/3
f 171/4/3 165/4/3 170/4/3
f 172/1/3 166/1/3 171/1/3
f 174/5/3 168/5/3 167/5/3
f 175/5/3 168/5/3 174/5/3
f 176/1/3 173/1/3 172/1/3
f 177/3/3 174/3/3 173/3/3
f 177/1/3 173/1/3 176/1/3
f 178/3/3 174/3/3 177/3/3
f 181/4/3 180/4/3 179/4/3
f 182/4/3 180/4/3 181/4/3
f 183/4/3 180/4/3 182/4/3
f 186/2/3 185/2/3 184/2/3
f 187/2/3 185/2/3 186/2/3
f 191/4/3 189/4/3 188/4/3
f 191/4/3 190/4/3 189/4/3
f 192/4/3 190/4/3 191/4/3
f 195/3/3 194/3/3 193/3/3
f 196/3/3 194/3/3 195/3/3
f 200/3/3 199/3/3 198/3/3
f 201/3/3 200/3/3 198/3/3
f 202/4/3 198/4/3 197/4/3
f 203/3/3 201/3/3 198/3/3
f 203/4/3 198/4/3 202/4/3
f 204/3/3 201/3/3 203/3/3
f 205/3/4 206/3/4 208/3/4
f 208/3/4 206/3/4 209/3/4
f 207/3/4 208/3/4 210/3/4
f 208/3/4 209/3/4 210/3/4
f 210/3/4 209/3/4 211/3/4
f 211/3/4 209/3/4 212/3/4
f 211/3/4 212/3/4 213/3/4
f 213/3/4 212/3/4 214/3/4
f 218/3/4 219/3/4 220/3/4
f 220/3/4 219/3/4 221/3/4
f 220/4/4 221/4/4 222/4/4
f 222/4/4 221/4/4 223/4/4
f 215/4/4 216/4/4 224/4/4
f 216/1/4 217/1/4 225/1/4
f 224/4/4 216/4/4 225/4/4
f 225/1/4 217/1/4 226/1/4
f 222/3/4 223/3/4 227/3/4
f 227/3/4 223/3/4 228/3/4
f 229/2/4 230/2/4 231/2/4
f 231/2/4 230/2/4 232/2/4
f 233/4/4 234/4/4 236/4/4
f 234/3/4 235/3/4 237/3/4
f 236/4/4 234/4/4 237/4/4
f 237/3/4 235/3/4 238/3/4
f 238/5/4 239/5/4 240/5/4
f 240/5/4 239/5/4 241/5/4
f 242/2/4 243/2/4 246/2/4
f 246/2/4 243/2/4 247/2/4
f 244/5/4 245/5/4 250/5/4
f 250/5/4 245/5/4 251/5/4
f 248/4/4 249/4/4 252/4/4
f 249/3/4 250/3/4 253/3/4
f 252/4/4 249/4/4 253/4/4
f 253/3/4 250/3/4 254/3/4
f 255/4/4 256/4/4 258/4/4
f 256/3/4 257/3/4 259/3/4
f 258/4/4 256/4/4 259/4/4
f 259/3/4 257/3/4 260/3/4
f 255/4/4 258/4/4 263/4/4
f 261/2/4 262/2/4 266/2/4
f 266/2/4 262/2/4 267/2/4
f 255/4/4 263/4/4 268/4/4
f 263/4/4 264/4/4 268/4/4
f 264/3/4 265/3/4 269/3/4
f 268/4/4 264/4/4 269/4/4
f 269/3/4 265/3/4 270/3/4
f 271/2/4 272/2/4 273/2/4
f 273/2/4 272/2/4 274/2/4
f 278/4/5 276/4/5 275/4/5
f 279/4/5 276/4/5 278/4/5
f 281/4/5 278/4/5 277/4/5
f 282/4/5 278/4/5 281/4/5
f 283/4/5 280/4/5 279/4/5
f 284/4/5 280/4/5 283/4/5
f 285/4/5 283/4/5 282/4/5
f 286/4/5 283/4/5 285/4/5
f 289/2/5 288/2/5 287/2/5
f 290/2/5 288/2/5 289/2/5
f 293/3/5 292/3/5 291/3/5
f 294/3/5 292/3/5 293/3/5
f 299/1/5 296/1/5 295/1/5
f 300/1/5 296/1/5 299/1/5
f 301/1/5 298/1/5 297/1/5
f 302/1/5 298/1/5 301/1/5
f 307/3/5 304/3/5 303/3/5
f 308/3/5 304/3/5 307/3/5
f 309/3/5 306/3/5 305/3/5
f 310/3/5 306/3/5 309/3/5
f 315/3/5 312/3/5 311/3/5
f 316/4/5 313/4/5 312/4/5
f 316/3/5 312/3/5 315/3/5
f 317/3/5 314/3/5 313/3/5
f 317/4/5 313/4/5 316/4/5
f 318/3/5 314/3/5 317/3/5
f 323/5/5 320/5/5 319/5/5
f 324/3/5 321/3/5 320/3/5
f 324/5/5 320/5/5 323/5/5
f 325/5/5 322/5/5 321/5/5
f 325/3/5 321/3/5 324/3/5
f 326/5/5 322/5/5 325/5/5
f 329/2/5 328/2/5 327/2/5
f 330/2/5 328/2/5 329/2/5
f 331/1/6 332/1/6 335/1/6
f 333/1/6 334/1/6 335/1/6
f 332/1/6 333/1/6 335/1/6
f 335/1/6 334/1/6 336/1/6
f 337/3/6 338/3/6 342/3/6
f 342/3/6 338/3/6 343/3/6
f 339/3/6 340/3/6 344/3/6
f 344/3/6 340/3/6 345/3/6
f 341/3/6 342/3/6 347/3/6
f 347/3/6 342/3/6 348/3/6
f 345/3/6 346/3/6 351/3/6
f 351/3/6 346/3/6 352/3/6
f 348/3/6 349/3/6 353/3/6
f 353/3/6 349/3/6 354/3/6
f 350/3/6 351/3/6 355/3/6
f 355/3/6 351/3/6 356/3/6
f 357/3/6 358/3/6 360/3/6
f 360/3/6 358/3/6 361/3/6
f 359/5/6 360/5/6 363/5/6
f 363/5/6 360/5/6 364/5/6
f 361/5/6 362/5/6 365/5/6
f 365/5/6 362/5/6 366/5/6
f 367/2/6 368/2/6 369/2/6
f 369/2/6 368/2/6 370/2/6
f 371/3/6 372/3/6 373/3/6
f 373/3/6 372/3/6 374/3/6
f 375/2/6 376/2/6 377/2/6
f 377/2/6 376/2/6 378/2/6
f 379/2/6 380/2/6 381/2/6
f 381/2/6 380/2/6 382/2/6
f 383/2/6 384/2/6 385/2/6
f 385/2/6 384/2/6 386/2/6
