# MagicaVoxel @ Ephtracy

# group
o shield_hvy_3_sh

# material
mtllib char-6-shield_hvy_3_sh.mtl
usemtl palette

# normals
vn 0 1 0
vn 0 -1 0
vn 1 0 0
vn -1 0 0
vn 0 0 1
vn 0 0 -1

# texcoords
vt 0.740234 0.5
vt 0.916016 0.5
vt 0.962891 0.5

# verts
v 0.8 2.9 0.9
v 0.7 2.9 0.9
v 0.8 2.9 0.3
v 0.7 2.9 0.3
v 0.8 2.8 1.1
v 0.7 2.8 1.1
v 0.8 2.8 0.9
v 0.7 2.8 0.9
v 0.8 2.8 0.3
v 0.7 2.8 0.3
v 0.8 2.8 0.1
v 0.7 2.8 0.1
v 0.8 2.7 1.2
v 0.7 2.7 1.2
v 0.8 2.7 1.1
v 0.7 2.7 1.1
v 0.8 2.7 0.1
v 0.7 2.7 0.1
v 0.8 2.7 0
v 0.7 2.7 0
v 0.8 2.6 1.3
v 0.7 2.6 1.3
v 0.8 2.6 1.2
v 0.7 2.6 1.2
v 0.8 2.6 0
v 0.7 2.6 0
v 0.8 2.6 -0.1
v 0.7 2.6 -0.1
v 0.8 2.4 1.4
v 0.7 2.4 1.4
v 0.8 2.4 1.3
v 0.7 2.4 1.3
v 0.8 2.4 -0.1
v 0.7 2.4 -0.1
v 0.8 2.4 -0.2
v 0.7 2.4 -0.2
v 0.9 1.8 0.7
v 0.8 1.8 0.7
v 0.9 1.8 0.5
v 0.8 1.8 0.5
v 0.8 1.6 1.2
v 0.7 1.6 1.2
v 0.8 1.6 1.1
v 0.7 1.6 1.1
v 0.8 1.6 0.7
v 0.7 1.6 0.7
v 0.8 1.6 0.5
v 0.7 1.6 0.5
v 0.8 1.6 0.1
v 0.7 1.6 0.1
v 0.8 1.6 0
v 0.7 1.6 0
v 0.8 1.5 1.4
v 0.7 1.5 1.4
v 0.8 1.5 1.2
v 0.7 1.5 1.2
v 0.8 1.5 0
v 0.7 1.5 0
v 0.8 1.5 -0.2
v 0.7 1.5 -0.2
v 0.8 1.9 1.4
v 0.7 1.9 1.4
v 0.8 1.9 1.2
v 0.7 1.9 1.2
v 0.8 1.9 0
v 0.7 1.9 0
v 0.8 1.9 -0.2
v 0.7 1.9 -0.2
v 0.8 1.8 1.2
v 0.7 1.8 1.2
v 0.8 1.8 1.1
v 0.7 1.8 1.1
v 0.8 1.8 0.7
v 0.7 1.8 0.7
v 0.8 1.8 0.5
v 0.7 1.8 0.5
v 0.8 1.8 0.1
v 0.7 1.8 0.1
v 0.8 1.8 0
v 0.7 1.8 0
v 0.9 1.6 0.7
v 0.8 1.6 0.7
v 0.9 1.6 0.5
v 0.8 1.6 0.5
v 0.8 1 1.4
v 0.7 1 1.4
v 0.8 1 1.3
v 0.7 1 1.3
v 0.8 1 -0.1
v 0.7 1 -0.1
v 0.8 1 -0.2
v 0.7 1 -0.2
v 0.8 0.8 1.3
v 0.7 0.8 1.3
v 0.8 0.8 1.2
v 0.7 0.8 1.2
v 0.8 0.8 0
v 0.7 0.8 0
v 0.8 0.8 -0.1
v 0.7 0.8 -0.1
v 0.8 0.7 1.2
v 0.7 0.7 1.2
v 0.8 0.7 1.1
v 0.7 0.7 1.1
v 0.8 0.7 0.1
v 0.7 0.7 0.1
v 0.8 0.7 0
v 0.7 0.7 0
v 0.8 0.6 1.1
v 0.7 0.6 1.1
v 0.8 0.6 0.9
v 0.7 0.6 0.9
v 0.8 0.6 0.3
v 0.7 0.6 0.3
v 0.8 0.6 0.1
v 0.7 0.6 0.1
v 0.8 0.5 0.9
v 0.7 0.5 0.9
v 0.8 0.5 0.3
v 0.7 0.5 0.3
v 0.9 1.8 0.7
v 0.9 1.8 0.5
v 0.9 1.6 0.7
v 0.9 1.6 0.5
v 0.8 2.9 0.9
v 0.8 2.9 0.3
v 0.8 2.8 1.1
v 0.8 2.8 0.9
v 0.8 2.8 0.8
v 0.8 2.8 0.4
v 0.8 2.8 0.3
v 0.8 2.8 0.1
v 0.8 2.7 1.2
v 0.8 2.7 1.1
v 0.8 2.7 1
v 0.8 2.7 0.8
v 0.8 2.7 0.4
v 0.8 2.7 0.2
v 0.8 2.7 0.1
v 0.8 2.7 0
v 0.8 2.6 1.3
v 0.8 2.6 1.2
v 0.8 2.6 1.1
v 0.8 2.6 1
v 0.8 2.6 0.2
v 0.8 2.6 0.1
v 0.8 2.6 0
v 0.8 2.6 -0.1
v 0.8 2.5 1.2
v 0.8 2.5 1.1
v 0.8 2.5 0.1
v 0.8 2.5 0
v 0.8 2.4 1.4
v 0.8 2.4 1.3
v 0.8 2.4 -0.1
v 0.8 2.4 -0.2
v 0.8 2.3 1.3
v 0.8 2.3 1.2
v 0.8 2.3 0
v 0.8 2.3 -0.1
v 0.8 2 1.3
v 0.8 2 1.1
v 0.8 2 0.1
v 0.8 2 -0.1
v 0.8 1.9 1.4
v 0.8 1.9 1.2
v 0.8 1.9 1.1
v 0.8 1.9 1
v 0.8 1.9 0.2
v 0.8 1.9 0.1
v 0.8 1.9 0
v 0.8 1.9 -0.2
v 0.8 1.8 1.2
v 0.8 1.8 1.1
v 0.8 1.8 0.7
v 0.8 1.8 0.5
v 0.8 1.8 0.1
v 0.8 1.8 0
v 0.8 1.6 1.2
v 0.8 1.6 1.1
v 0.8 1.6 0.7
v 0.8 1.6 0.5
v 0.8 1.6 0.1
v 0.8 1.6 0
v 0.8 1.5 1.4
v 0.8 1.5 1.2
v 0.8 1.5 1.1
v 0.8 1.5 1
v 0.8 1.5 0.2
v 0.8 1.5 0.1
v 0.8 1.5 0
v 0.8 1.5 -0.2
v 0.8 1.4 1.3
v 0.8 1.4 1.1
v 0.8 1.4 0.1
v 0.8 1.4 -0.1
v 0.8 1.1 1.3
v 0.8 1.1 1.2
v 0.8 1.1 0
v 0.8 1.1 -0.1
v 0.8 1 1.4
v 0.8 1 1.3
v 0.8 1 -0.1
v 0.8 1 -0.2
v 0.8 0.9 1.2
v 0.8 0.9 1.1
v 0.8 0.9 0.1
v 0.8 0.9 0
v 0.8 0.8 1.3
v 0.8 0.8 1.2
v 0.8 0.8 1.1
v 0.8 0.8 1
v 0.8 0.8 0.2
v 0.8 0.8 0.1
v 0.8 0.8 0
v 0.8 0.8 -0.1
v 0.8 0.7 1.2
v 0.8 0.7 1.1
v 0.8 0.7 1
v 0.8 0.7 0.8
v 0.8 0.7 0.4
v 0.8 0.7 0.2
v 0.8 0.7 0.1
v 0.8 0.7 0
v 0.8 0.6 1.1
v 0.8 0.6 0.9
v 0.8 0.6 0.8
v 0.8 0.6 0.4
v 0.8 0.6 0.3
v 0.8 0.6 0.1
v 0.8 0.5 0.9
v 0.8 0.5 0.3
v 0.8 1.8 0.7
v 0.8 1.8 0.5
v 0.8 1.6 0.7
v 0.8 1.6 0.5
v 0.7 2.9 0.9
v 0.7 2.9 0.3
v 0.7 2.8 1.1
v 0.7 2.8 0.9
v 0.7 2.8 0.8
v 0.7 2.8 0.4
v 0.7 2.8 0.3
v 0.7 2.8 0.1
v 0.7 2.7 1.2
v 0.7 2.7 1.1
v 0.7 2.7 1
v 0.7 2.7 0.8
v 0.7 2.7 0.4
v 0.7 2.7 0.2
v 0.7 2.7 0.1
v 0.7 2.7 0
v 0.7 2.6 1.3
v 0.7 2.6 1.2
v 0.7 2.6 1.1
v 0.7 2.6 1
v 0.7 2.6 0.2
v 0.7 2.6 0.1
v 0.7 2.6 0
v 0.7 2.6 -0.1
v 0.7 2.5 1.2
v 0.7 2.5 1.1
v 0.7 2.5 0.1
v 0.7 2.5 0
v 0.7 2.4 1.4
v 0.7 2.4 1.3
v 0.7 2.4 -0.1
v 0.7 2.4 -0.2
v 0.7 2.3 1.3
v 0.7 2.3 1.2
v 0.7 2.3 0
v 0.7 2.3 -0.1
v 0.7 2 1.3
v 0.7 2 1.1
v 0.7 2 0.1
v 0.7 2 -0.1
v 0.7 1.9 1.4
v 0.7 1.9 1.2
v 0.7 1.9 1.1
v 0.7 1.9 1
v 0.7 1.9 0.2
v 0.7 1.9 0.1
v 0.7 1.9 0
v 0.7 1.9 -0.2
v 0.7 1.8 1.2
v 0.7 1.8 1.1
v 0.7 1.8 0.7
v 0.7 1.8 0.5
v 0.7 1.8 0.1
v 0.7 1.8 0
v 0.7 1.6 1.2
v 0.7 1.6 1.1
v 0.7 1.6 0.7
v 0.7 1.6 0.5
v 0.7 1.6 0.1
v 0.7 1.6 0
v 0.7 1.5 1.4
v 0.7 1.5 1.2
v 0.7 1.5 1.1
v 0.7 1.5 1
v 0.7 1.5 0.2
v 0.7 1.5 0.1
v 0.7 1.5 0
v 0.7 1.5 -0.2
v 0.7 1.4 1.3
v 0.7 1.4 1.1
v 0.7 1.4 0.1
v 0.7 1.4 -0.1
v 0.7 1.1 1.3
v 0.7 1.1 1.2
v 0.7 1.1 0
v 0.7 1.1 -0.1
v 0.7 1 1.4
v 0.7 1 1.3
v 0.7 1 -0.1
v 0.7 1 -0.2
v 0.7 0.9 1.2
v 0.7 0.9 1.1
v 0.7 0.9 0.1
v 0.7 0.9 0
v 0.7 0.8 1.3
v 0.7 0.8 1.2
v 0.7 0.8 1.1
v 0.7 0.8 1
v 0.7 0.8 0.2
v 0.7 0.8 0.1
v 0.7 0.8 0
v 0.7 0.8 -0.1
v 0.7 0.7 1.2
v 0.7 0.7 1.1
v 0.7 0.7 1
v 0.7 0.7 0.8
v 0.7 0.7 0.4
v 0.7 0.7 0.2
v 0.7 0.7 0.1
v 0.7 0.7 0
v 0.7 0.6 1.1
v 0.7 0.6 0.9
v 0.7 0.6 0.8
v 0.7 0.6 0.4
v 0.7 0.6 0.3
v 0.7 0.6 0.1
v 0.7 0.5 0.9
v 0.7 0.5 0.3
v 0.8 2.4 1.4
v 0.8 1.9 1.4
v 0.8 1.5 1.4
v 0.8 1 1.4
v 0.7 2.4 1.4
v 0.7 1.9 1.4
v 0.7 1.5 1.4
v 0.7 1 1.4
v 0.8 2.6 1.3
v 0.8 2.4 1.3
v 0.8 1 1.3
v 0.8 0.8 1.3
v 0.7 2.6 1.3
v 0.7 2.4 1.3
v 0.7 1 1.3
v 0.7 0.8 1.3
v 0.8 2.7 1.2
v 0.8 2.6 1.2
v 0.8 1.9 1.2
v 0.8 1.8 1.2
v 0.8 1.6 1.2
v 0.8 1.5 1.2
v 0.8 0.8 1.2
v 0.8 0.7 1.2
v 0.7 2.7 1.2
v 0.7 2.6 1.2
v 0.7 1.9 1.2
v 0.7 1.8 1.2
v 0.7 1.6 1.2
v 0.7 1.5 1.2
v 0.7 0.8 1.2
v 0.7 0.7 1.2
v 0.8 2.8 1.1
v 0.8 2.7 1.1
v 0.8 1.8 1.1
v 0.8 1.6 1.1
v 0.8 0.7 1.1
v 0.8 0.6 1.1
v 0.7 2.8 1.1
v 0.7 2.7 1.1
v 0.7 1.8 1.1
v 0.7 1.6 1.1
v 0.7 0.7 1.1
v 0.7 0.6 1.1
v 0.8 2.9 0.9
v 0.8 2.8 0.9
v 0.8 0.6 0.9
v 0.8 0.5 0.9
v 0.7 2.9 0.9
v 0.7 2.8 0.9
v 0.7 0.6 0.9
v 0.7 0.5 0.9
v 0.9 1.8 0.7
v 0.9 1.6 0.7
v 0.8 1.8 0.7
v 0.8 1.6 0.7
v 0.8 1.8 0.5
v 0.8 1.6 0.5
v 0.7 1.8 0.5
v 0.7 1.6 0.5
v 0.8 1.8 0.7
v 0.8 1.6 0.7
v 0.7 1.8 0.7
v 0.7 1.6 0.7
v 0.9 1.8 0.5
v 0.9 1.6 0.5
v 0.8 1.8 0.5
v 0.8 1.6 0.5
v 0.8 2.9 0.3
v 0.8 2.8 0.3
v 0.8 0.6 0.3
v 0.8 0.5 0.3
v 0.7 2.9 0.3
v 0.7 2.8 0.3
v 0.7 0.6 0.3
v 0.7 0.5 0.3
v 0.8 2.8 0.1
v 0.8 2.7 0.1
v 0.8 1.8 0.1
v 0.8 1.6 0.1
v 0.8 0.7 0.1
v 0.8 0.6 0.1
v 0.7 2.8 0.1
v 0.7 2.7 0.1
v 0.7 1.8 0.1
v 0.7 1.6 0.1
v 0.7 0.7 0.1
v 0.7 0.6 0.1
v 0.8 2.7 0
v 0.8 2.6 0
v 0.8 1.9 0
v 0.8 1.8 0
v 0.8 1.6 0
v 0.8 1.5 0
v 0.8 0.8 0
v 0.8 0.7 0
v 0.7 2.7 0
v 0.7 2.6 0
v 0.7 1.9 0
v 0.7 1.8 0
v 0.7 1.6 0
v 0.7 1.5 0
v 0.7 0.8 0
v 0.7 0.7 0
v 0.8 2.6 -0.1
v 0.8 2.4 -0.1
v 0.8 1 -0.1
v 0.8 0.8 -0.1
v 0.7 2.6 -0.1
v 0.7 2.4 -0.1
v 0.7 1 -0.1
v 0.7 0.8 -0.1
v 0.8 2.4 -0.2
v 0.8 1.9 -0.2
v 0.8 1.5 -0.2
v 0.8 1 -0.2
v 0.7 2.4 -0.2
v 0.7 1.9 -0.2
v 0.7 1.5 -0.2
v 0.7 1 -0.2

# faces
f 3/2/1 2/2/1 1/2/1
f 4/2/1 2/2/1 3/2/1
f 7/2/1 6/2/1 5/2/1
f 8/2/1 6/2/1 7/2/1
f 11/2/1 10/2/1 9/2/1
f 12/2/1 10/2/1 11/2/1
f 15/2/1 14/2/1 13/2/1
f 16/2/1 14/2/1 15/2/1
f 19/2/1 18/2/1 17/2/1
f 20/2/1 18/2/1 19/2/1
f 23/2/1 22/2/1 21/2/1
f 24/2/1 22/2/1 23/2/1
f 27/2/1 26/2/1 25/2/1
f 28/2/1 26/2/1 27/2/1
f 31/2/1 30/2/1 29/2/1
f 32/2/1 30/2/1 31/2/1
f 35/2/1 34/2/1 33/2/1
f 36/2/1 34/2/1 35/2/1
f 39/3/1 38/3/1 37/3/1
f 40/3/1 38/3/1 39/3/1
f 43/2/1 42/2/1 41/2/1
f 44/2/1 42/2/1 43/2/1
f 47/1/1 46/1/1 45/1/1
f 48/1/1 46/1/1 47/1/1
f 51/2/1 50/2/1 49/2/1
f 52/2/1 50/2/1 51/2/1
f 55/2/1 54/2/1 53/2/1
f 56/2/1 54/2/1 55/2/1
f 59/2/1 58/2/1 57/2/1
f 60/2/1 58/2/1 59/2/1
f 61/2/2 62/2/2 63/2/2
f 63/2/2 62/2/2 64/2/2
f 65/2/2 66/2/2 67/2/2
f 67/2/2 66/2/2 68/2/2
f 69/2/2 70/2/2 71/2/2
f 71/2/2 70/2/2 72/2/2
f 73/1/2 74/1/2 75/1/2
f 75/1/2 74/1/2 76/1/2
f 77/2/2 78/2/2 79/2/2
f 79/2/2 78/2/2 80/2/2
f 81/3/2 82/3/2 83/3/2
f 83/3/2 82/3/2 84/3/2
f 85/2/2 86/2/2 87/2/2
f 87/2/2 86/2/2 88/2/2
f 89/2/2 90/2/2 91/2/2
f 91/2/2 90/2/2 92/2/2
f 93/2/2 94/2/2 95/2/2
f 95/2/2 94/2/2 96/2/2
f 97/2/2 98/2/2 99/2/2
f 99/2/2 98/2/2 100/2/2
f 101/2/2 102/2/2 103/2/2
f 103/2/2 102/2/2 104/2/2
f 105/2/2 106/2/2 107/2/2
f 107/2/2 106/2/2 108/2/2
f 109/2/2 110/2/2 111/2/2
f 111/2/2 110/2/2 112/2/2
f 113/2/2 114/2/2 115/2/2
f 115/2/2 114/2/2 116/2/2
f 117/2/2 118/2/2 119/2/2
f 119/2/2 118/2/2 120/2/2
f 123/3/3 122/3/3 121/3/3
f 124/3/3 122/3/3 123/3/3
f 128/2/3 126/2/3 125/2/3
f 129/2/3 126/2/3 128/2/3
f 130/2/3 126/2/3 129/2/3
f 131/2/3 126/2/3 130/2/3
f 134/2/3 128/2/3 127/2/3
f 134/2/3 129/2/3 128/2/3
f 135/2/3 129/2/3 134/2/3
f 136/1/3 130/1/3 129/1/3
f 136/2/3 129/2/3 135/2/3
f 137/2/3 132/2/3 131/2/3
f 137/1/3 130/1/3 136/1/3
f 137/2/3 131/2/3 130/2/3
f 138/2/3 132/2/3 137/2/3
f 139/2/3 132/2/3 138/2/3
f 142/2/3 134/2/3 133/2/3
f 142/2/3 135/2/3 134/2/3
f 143/2/3 135/2/3 142/2/3
f 144/1/3 136/1/3 135/1/3
f 144/2/3 135/2/3 143/2/3
f 144/1/3 137/1/3 136/1/3
f 144/1/3 138/1/3 137/1/3
f 145/2/3 140/2/3 139/2/3
f 145/1/3 138/1/3 144/1/3
f 145/2/3 139/2/3 138/2/3
f 146/2/3 140/2/3 145/2/3
f 147/2/3 140/2/3 146/2/3
f 149/2/3 143/2/3 142/2/3
f 149/2/3 142/2/3 141/2/3
f 150/1/3 144/1/3 143/1/3
f 150/2/3 143/2/3 149/2/3
f 150/1/3 145/1/3 144/1/3
f 150/1/3 146/1/3 145/1/3
f 151/2/3 148/2/3 147/2/3
f 151/1/3 146/1/3 150/1/3
f 151/2/3 147/2/3 146/2/3
f 152/2/3 148/2/3 151/2/3
f 154/2/3 149/2/3 141/2/3
f 155/2/3 148/2/3 152/2/3
f 157/2/3 154/2/3 153/2/3
f 157/2/3 149/2/3 154/2/3
f 158/1/3 150/1/3 149/1/3
f 158/2/3 149/2/3 157/2/3
f 158/1/3 151/1/3 150/1/3
f 158/1/3 152/1/3 151/1/3
f 159/2/3 156/2/3 155/2/3
f 159/1/3 152/1/3 158/1/3
f 159/2/3 155/2/3 152/2/3
f 160/2/3 156/2/3 159/2/3
f 161/2/3 157/2/3 153/2/3
f 161/1/3 158/1/3 157/1/3
f 161/1/3 160/1/3 159/1/3
f 161/1/3 159/1/3 158/1/3
f 162/1/3 160/1/3 161/1/3
f 163/1/3 160/1/3 162/1/3
f 164/2/3 156/2/3 160/2/3
f 164/1/3 160/1/3 163/1/3
f 165/2/3 161/2/3 153/2/3
f 165/2/3 162/2/3 161/2/3
f 166/2/3 162/2/3 165/2/3
f 167/1/3 163/1/3 162/1/3
f 167/2/3 162/2/3 166/2/3
f 168/1/3 163/1/3 167/1/3
f 169/1/3 163/1/3 168/1/3
f 170/2/3 164/2/3 163/2/3
f 170/1/3 163/1/3 169/1/3
f 171/2/3 164/2/3 170/2/3
f 172/2/3 156/2/3 164/2/3
f 172/2/3 164/2/3 171/2/3
f 173/2/3 167/2/3 166/2/3
f 173/2/3 168/2/3 167/2/3
f 174/2/3 168/2/3 173/2/3
f 175/1/3 169/1/3 168/1/3
f 176/1/3 169/1/3 175/1/3
f 177/2/3 171/2/3 170/2/3
f 177/2/3 170/2/3 169/2/3
f 178/2/3 171/2/3 177/2/3
f 180/2/3 168/2/3 174/2/3
f 181/1/3 175/1/3 168/1/3
f 182/1/3 169/1/3 176/1/3
f 183/2/3 177/2/3 169/2/3
f 186/2/3 180/2/3 179/2/3
f 187/2/3 168/2/3 180/2/3
f 187/2/3 180/2/3 186/2/3
f 188/1/3 181/1/3 168/1/3
f 188/2/3 168/2/3 187/2/3
f 188/1/3 182/1/3 181/1/3
f 189/2/3 184/2/3 183/2/3
f 189/1/3 182/1/3 188/1/3
f 189/1/3 169/1/3 182/1/3
f 189/2/3 183/2/3 169/2/3
f 190/2/3 184/2/3 189/2/3
f 191/2/3 184/2/3 190/2/3
f 193/2/3 187/2/3 186/2/3
f 193/2/3 186/2/3 185/2/3
f 194/1/3 188/1/3 187/1/3
f 194/2/3 187/2/3 193/2/3
f 194/1/3 190/1/3 189/1/3
f 194/1/3 189/1/3 188/1/3
f 195/2/3 192/2/3 191/2/3
f 195/1/3 190/1/3 194/1/3
f 195/2/3 191/2/3 190/2/3
f 196/2/3 192/2/3 195/2/3
f 197/1/3 194/1/3 193/1/3
f 197/2/3 193/2/3 185/2/3
f 197/1/3 196/1/3 195/1/3
f 197/1/3 195/1/3 194/1/3
f 198/1/3 196/1/3 197/1/3
f 199/1/3 196/1/3 198/1/3
f 200/2/3 192/2/3 196/2/3
f 200/1/3 196/1/3 199/1/3
f 201/2/3 197/2/3 185/2/3
f 201/2/3 198/2/3 197/2/3
f 202/2/3 198/2/3 201/2/3
f 203/2/3 192/2/3 200/2/3
f 203/2/3 200/2/3 199/2/3
f 204/2/3 192/2/3 203/2/3
f 205/1/3 199/1/3 198/1/3
f 205/2/3 198/2/3 202/2/3
f 206/1/3 199/1/3 205/1/3
f 207/1/3 199/1/3 206/1/3
f 208/2/3 203/2/3 199/2/3
f 208/1/3 199/1/3 207/1/3
f 209/2/3 205/2/3 202/2/3
f 209/2/3 206/2/3 205/2/3
f 210/2/3 206/2/3 209/2/3
f 211/1/3 207/1/3 206/1/3
f 211/2/3 206/2/3 210/2/3
f 212/1/3 207/1/3 211/1/3
f 213/1/3 207/1/3 212/1/3
f 214/2/3 208/2/3 207/2/3
f 214/1/3 207/1/3 213/1/3
f 215/2/3 203/2/3 208/2/3
f 215/2/3 208/2/3 214/2/3
f 216/2/3 203/2/3 215/2/3
f 217/2/3 211/2/3 210/2/3
f 217/2/3 212/2/3 211/2/3
f 218/2/3 212/2/3 217/2/3
f 219/1/3 213/1/3 212/1/3
f 219/2/3 212/2/3 218/2/3
f 220/1/3 213/1/3 219/1/3
f 221/1/3 213/1/3 220/1/3
f 222/2/3 214/2/3 213/2/3
f 222/1/3 213/1/3 221/1/3
f 222/2/3 215/2/3 214/2/3
f 223/2/3 215/2/3 222/2/3
f 224/2/3 215/2/3 223/2/3
f 225/2/3 220/2/3 219/2/3
f 225/2/3 219/2/3 218/2/3
f 226/2/3 220/2/3 225/2/3
f 227/1/3 221/1/3 220/1/3
f 227/2/3 220/2/3 226/2/3
f 228/2/3 223/2/3 222/2/3
f 228/1/3 221/1/3 227/1/3
f 228/2/3 222/2/3 221/2/3
f 229/2/3 223/2/3 228/2/3
f 230/2/3 223/2/3 229/2/3
f 231/2/3 227/2/3 226/2/3
f 231/2/3 229/2/3 228/2/3
f 231/2/3 228/2/3 227/2/3
f 232/2/3 229/2/3 231/2/3
f 233/3/4 234/3/4 235/3/4
f 235/3/4 234/3/4 236/3/4
f 237/2/4 238/2/4 240/2/4
f 240/2/4 238/2/4 241/2/4
f 241/2/4 238/2/4 242/2/4
f 242/2/4 238/2/4 243/2/4
f 239/2/4 240/2/4 246/2/4
f 240/2/4 241/2/4 246/2/4
f 246/2/4 241/2/4 247/2/4
f 241/1/4 242/1/4 248/1/4
f 247/2/4 241/2/4 248/2/4
f 243/2/4 244/2/4 249/2/4
f 248/1/4 242/1/4 249/1/4
f 242/2/4 243/2/4 249/2/4
f 249/2/4 244/2/4 250/2/4
f 250/2/4 244/2/4 251/2/4
f 245/2/4 246/2/4 254/2/4
f 246/2/4 247/2/4 254/2/4
f 254/2/4 247/2/4 255/2/4
f 247/1/4 248/1/4 256/1/4
f 255/2/4 247/2/4 256/2/4
f 248/1/4 249/1/4 256/1/4
f 249/1/4 250/1/4 256/1/4
f 251/2/4 252/2/4 257/2/4
f 256/1/4 250/1/4 257/1/4
f 250/2/4 251/2/4 257/2/4
f 257/2/4 252/2/4 258/2/4
f 258/2/4 252/2/4 259/2/4
f 254/2/4 255/2/4 261/2/4
f 253/2/4 254/2/4 261/2/4
f 255/1/4 256/1/4 262/1/4
f 261/2/4 255/2/4 262/2/4
f 256/1/4 257/1/4 262/1/4
f 257/1/4 258/1/4 262/1/4
f 259/2/4 260/2/4 263/2/4
f 262/1/4 258/1/4 263/1/4
f 258/2/4 259/2/4 263/2/4
f 263/2/4 260/2/4 264/2/4
f 253/2/4 261/2/4 266/2/4
f 264/2/4 260/2/4 267/2/4
f 265/2/4 266/2/4 269/2/4
f 266/2/4 261/2/4 269/2/4
f 261/1/4 262/1/4 270/1/4
f 269/2/4 261/2/4 270/2/4
f 262/1/4 263/1/4 270/1/4
f 263/1/4 264/1/4 270/1/4
f 267/2/4 268/2/4 271/2/4
f 270/1/4 264/1/4 271/1/4
f 264/2/4 267/2/4 271/2/4
f 271/2/4 268/2/4 272/2/4
f 265/2/4 269/2/4 273/2/4
f 269/1/4 270/1/4 273/1/4
f 271/1/4 272/1/4 273/1/4
f 270/1/4 271/1/4 273/1/4
f 273/1/4 272/1/4 274/1/4
f 274/1/4 272/1/4 275/1/4
f 272/2/4 268/2/4 276/2/4
f 275/1/4 272/1/4 276/1/4
f 265/2/4 273/2/4 277/2/4
f 273/2/4 274/2/4 277/2/4
f 277/2/4 274/2/4 278/2/4
f 274/1/4 275/1/4 279/1/4
f 278/2/4 274/2/4 279/2/4
f 279/1/4 275/1/4 280/1/4
f 280/1/4 275/1/4 281/1/4
f 275/2/4 276/2/4 282/2/4
f 281/1/4 275/1/4 282/1/4
f 282/2/4 276/2/4 283/2/4
f 276/2/4 268/2/4 284/2/4
f 283/2/4 276/2/4 284/2/4
f 278/2/4 279/2/4 285/2/4
f 279/2/4 280/2/4 285/2/4
f 285/2/4 280/2/4 286/2/4
f 280/1/4 281/1/4 287/1/4
f 287/1/4 281/1/4 288/1/4
f 282/2/4 283/2/4 289/2/4
f 281/2/4 282/2/4 289/2/4
f 289/2/4 283/2/4 290/2/4
f 286/2/4 280/2/4 292/2/4
f 280/1/4 287/1/4 293/1/4
f 288/1/4 281/1/4 294/1/4
f 281/2/4 289/2/4 295/2/4
f 291/2/4 292/2/4 298/2/4
f 292/2/4 280/2/4 299/2/4
f 298/2/4 292/2/4 299/2/4
f 280/1/4 293/1/4 300/1/4
f 299/2/4 280/2/4 300/2/4
f 293/1/4 294/1/4 300/1/4
f 295/2/4 296/2/4 301/2/4
f 300/1/4 294/1/4 301/1/4
f 294/1/4 281/1/4 301/1/4
f 281/2/4 295/2/4 301/2/4
f 301/2/4 296/2/4 302/2/4
f 302/2/4 296/2/4 303/2/4
f 298/2/4 299/2/4 305/2/4
f 297/2/4 298/2/4 305/2/4
f 299/1/4 300/1/4 306/1/4
f 305/2/4 299/2/4 306/2/4
f 301/1/4 302/1/4 306/1/4
f 300/1/4 301/1/4 306/1/4
f 303/2/4 304/2/4 307/2/4
f 306/1/4 302/1/4 307/1/4
f 302/2/4 303/2/4 307/2/4
f 307/2/4 304/2/4 308/2/4
f 305/1/4 306/1/4 309/1/4
f 297/2/4 305/2/4 309/2/4
f 307/1/4 308/1/4 309/1/4
f 306/1/4 307/1/4 309/1/4
f 309/1/4 308/1/4 310/1/4
f 310/1/4 308/1/4 311/1/4
f 308/2/4 304/2/4 312/2/4
f 311/1/4 308/1/4 312/1/4
f 297/2/4 309/2/4 313/2/4
f 309/2/4 310/2/4 313/2/4
f 313/2/4 310/2/4 314/2/4
f 312/2/4 304/2/4 315/2/4
f 311/2/4 312/2/4 315/2/4
f 315/2/4 304/2/4 316/2/4
f 310/1/4 311/1/4 317/1/4
f 314/2/4 310/2/4 317/2/4
f 317/1/4 311/1/4 318/1/4
f 318/1/4 311/1/4 319/1/4
f 311/2/4 315/2/4 320/2/4
f 319/1/4 311/1/4 320/1/4
f 314/2/4 317/2/4 321/2/4
f 317/2/4 318/2/4 321/2/4
f 321/2/4 318/2/4 322/2/4
f 318/1/4 319/1/4 323/1/4
f 322/2/4 318/2/4 323/2/4
f 323/1/4 319/1/4 324/1/4
f 324/1/4 319/1/4 325/1/4
f 319/2/4 320/2/4 326/2/4
f 325/1/4 319/1/4 326/1/4
f 320/2/4 315/2/4 327/2/4
f 326/2/4 320/2/4 327/2/4
f 327/2/4 315/2/4 328/2/4
f 322/2/4 323/2/4 329/2/4
f 323/2/4 324/2/4 329/2/4
f 329/2/4 324/2/4 330/2/4
f 324/1/4 325/1/4 331/1/4
f 330/2/4 324/2/4 331/2/4
f 331/1/4 325/1/4 332/1/4
f 332/1/4 325/1/4 333/1/4
f 325/2/4 326/2/4 334/2/4
f 333/1/4 325/1/4 334/1/4
f 326/2/4 327/2/4 334/2/4
f 334/2/4 327/2/4 335/2/4
f 335/2/4 327/2/4 336/2/4
f 331/2/4 332/2/4 337/2/4
f 330/2/4 331/2/4 337/2/4
f 337/2/4 332/2/4 338/2/4
f 332/1/4 333/1/4 339/1/4
f 338/2/4 332/2/4 339/2/4
f 334/2/4 335/2/4 340/2/4
f 339/1/4 333/1/4 340/1/4
f 333/2/4 334/2/4 340/2/4
f 340/2/4 335/2/4 341/2/4
f 341/2/4 335/2/4 342/2/4
f 338/2/4 339/2/4 343/2/4
f 340/2/4 341/2/4 343/2/4
f 339/2/4 340/2/4 343/2/4
f 343/2/4 341/2/4 344/2/4
f 349/2/5 346/2/5 345/2/5
f 350/2/5 346/2/5 349/2/5
f 351/2/5 348/2/5 347/2/5
f 352/2/5 348/2/5 351/2/5
f 357/2/5 354/2/5 353/2/5
f 358/2/5 354/2/5 357/2/5
f 359/2/5 356/2/5 355/2/5
f 360/2/5 356/2/5 359/2/5
f 369/2/5 362/2/5 361/2/5
f 370/2/5 362/2/5 369/2/5
f 371/2/5 364/2/5 363/2/5
f 372/2/5 364/2/5 371/2/5
f 373/2/5 366/2/5 365/2/5
f 374/2/5 366/2/5 373/2/5
f 375/2/5 368/2/5 367/2/5
f 376/2/5 368/2/5 375/2/5
f 383/2/5 378/2/5 377/2/5
f 384/2/5 378/2/5 383/2/5
f 385/2/5 380/2/5 379/2/5
f 386/2/5 380/2/5 385/2/5
f 387/2/5 382/2/5 381/2/5
f 388/2/5 382/2/5 387/2/5
f 393/2/5 390/2/5 389/2/5
f 394/2/5 390/2/5 393/2/5
f 395/2/5 392/2/5 391/2/5
f 396/2/5 392/2/5 395/2/5
f 399/3/5 398/3/5 397/3/5
f 400/3/5 398/3/5 399/3/5
f 403/1/5 402/1/5 401/1/5
f 404/1/5 402/1/5 403/1/5
f 405/1/6 406/1/6 407/1/6
f 407/1/6 406/1/6 408/1/6
f 409/3/6 410/3/6 411/3/6
f 411/3/6 410/3/6 412/3/6
f 413/2/6 414/2/6 417/2/6
f 417/2/6 414/2/6 418/2/6
f 415/2/6 416/2/6 419/2/6
f 419/2/6 416/2/6 420/2/6
f 421/2/6 422/2/6 427/2/6
f 427/2/6 422/2/6 428/2/6
f 423/2/6 424/2/6 429/2/6
f 429/2/6 424/2/6 430/2/6
f 425/2/6 426/2/6 431/2/6
f 431/2/6 426/2/6 432/2/6
f 433/2/6 434/2/6 441/2/6
f 441/2/6 434/2/6 442/2/6
f 435/2/6 436/2/6 443/2/6
f 443/2/6 436/2/6 444/2/6
f 437/2/6 438/2/6 445/2/6
f 445/2/6 438/2/6 446/2/6
f 439/2/6 440/2/6 447/2/6
f 447/2/6 440/2/6 448/2/6
f 449/2/6 450/2/6 453/2/6
f 453/2/6 450/2/6 454/2/6
f 451/2/6 452/2/6 455/2/6
f 455/2/6 452/2/6 456/2/6
f 457/2/6 458/2/6 461/2/6
f 461/2/6 458/2/6 462/2/6
f 459/2/6 460/2/6 463/2/6
f 463/2/6 460/2/6 464/2/6
