# MagicaVoxel @ Ephtracy

# group
o helm_med_3b_sh

# material
mtllib char-12-helm_med_3b_sh.mtl
usemtl palette

# normals
vn -1 0 0
vn 1 0 0
vn 0 0 1
vn 0 0 -1
vn 0 -1 0
vn 0 1 0

# texcoords
vt 0.470703 0.5
vt 0.916016 0.5
vt 0.958984 0.5

# verts
v -0.4 3 0.3
v -0.4 3 -0.2
v -0.4 3.2 0.3
v -0.4 3.2 -0.2
v -0.3 2.6 0.3
v -0.3 2.6 -0.2
v -0.3 3 0.4
v -0.3 3 0.3
v -0.3 3 -0.2
v -0.3 3 -0.3
v -0.3 3.2 0.4
v -0.3 3.2 0.3
v -0.3 3.2 -0.2
v -0.3 3.2 -0.3
v -0.2 2.6 -0.2
v -0.2 2.6 -0.3
v -0.2 3 0.5
v -0.2 3 0.4
v -0.2 3 -0.2
v -0.2 3 -0.3
v -0.2 3 -0.4
v -0.2 3.2 0.5
v -0.2 3.2 0.4
v -0.2 3.2 0.3
v -0.2 3.2 -0.2
v -0.2 3.2 -0.3
v -0.2 3.2 -0.4
v -0.2 3.3 0.3
v -0.2 3.3 -0.2
v -0.1 3.2 0.4
v -0.1 3.2 0.3
v -0.1 3.3 0.3
v -0.1 3.3 0.2
v -0.1 3.3 -0.1
v -0.1 3.4 0.2
v -0.1 3.4 0.1
v -0.1 3.4 0
v -0.1 3.4 -0.1
v -0.1 3.5 0.4
v -0.1 3.5 0.3
v -0.1 3.5 0.1
v -0.1 3.5 0
v -0.1 3.8 0.1
v -0.1 3.8 0
v 0.2 2.6 0.3
v 0.2 2.6 -0.2
v 0.2 3 0.3
v 0.2 3 -0.2
v 0.2 3.1 0.3
v 0.2 3.1 0.2
v 0.2 3.2 0.2
v 0.2 3.2 -0.2
v -0.2 2.6 0.3
v -0.2 2.6 -0.2
v -0.2 3 0.3
v -0.2 3 -0.2
v -0.2 3.1 0.3
v -0.2 3.1 0.2
v -0.2 3.2 0.2
v -0.2 3.2 -0.2
v 0.1 3.2 0.4
v 0.1 3.2 0.3
v 0.1 3.3 0.3
v 0.1 3.3 0.2
v 0.1 3.3 -0.1
v 0.1 3.4 0.2
v 0.1 3.4 0.1
v 0.1 3.4 0
v 0.1 3.4 -0.1
v 0.1 3.5 0.4
v 0.1 3.5 0.3
v 0.1 3.5 0.1
v 0.1 3.5 0
v 0.1 3.8 0.1
v 0.1 3.8 0
v 0.2 2.6 -0.2
v 0.2 2.6 -0.3
v 0.2 3 0.5
v 0.2 3 0.4
v 0.2 3 -0.2
v 0.2 3 -0.3
v 0.2 3 -0.4
v 0.2 3.2 0.5
v 0.2 3.2 0.4
v 0.2 3.2 0.3
v 0.2 3.2 -0.2
v 0.2 3.2 -0.3
v 0.2 3.2 -0.4
v 0.2 3.3 0.3
v 0.2 3.3 -0.2
v 0.3 2.6 0.3
v 0.3 2.6 -0.2
v 0.3 3 0.4
v 0.3 3 0.3
v 0.3 3 -0.2
v 0.3 3 -0.3
v 0.3 3.2 0.4
v 0.3 3.2 0.3
v 0.3 3.2 -0.2
v 0.3 3.2 -0.3
v 0.4 3 0.3
v 0.4 3 -0.2
v 0.4 3.2 0.3
v 0.4 3.2 -0.2
v -0.2 3 0.5
v -0.2 3.2 0.5
v 0.2 3 0.5
v 0.2 3.2 0.5
v -0.3 3 0.4
v -0.3 3.2 0.4
v -0.2 3 0.4
v -0.2 3.2 0.4
v -0.1 3.2 0.4
v -0.1 3.5 0.4
v 0.1 3.2 0.4
v 0.1 3.5 0.4
v 0.2 3 0.4
v 0.2 3.2 0.4
v 0.3 3 0.4
v 0.3 3.2 0.4
v -0.4 3 0.3
v -0.4 3.2 0.3
v -0.3 2.6 0.3
v -0.3 3 0.3
v -0.3 3.2 0.3
v -0.2 2.6 0.3
v -0.2 3 0.3
v -0.2 3.2 0.3
v -0.2 3.3 0.3
v -0.1 3.2 0.3
v -0.1 3.3 0.3
v 0.1 3.2 0.3
v 0.1 3.3 0.3
v 0.2 2.6 0.3
v 0.2 3 0.3
v 0.2 3.2 0.3
v 0.2 3.3 0.3
v 0.3 2.6 0.3
v 0.3 3 0.3
v 0.3 3.2 0.3
v 0.4 3 0.3
v 0.4 3.2 0.3
v -0.1 3.3 0.2
v -0.1 3.4 0.2
v 0.1 3.3 0.2
v 0.1 3.4 0.2
v -0.1 3.4 0.1
v -0.1 3.5 0.1
v -0.1 3.8 0.1
v 0.1 3.4 0.1
v 0.1 3.5 0.1
v 0.1 3.8 0.1
v -0.2 2.6 -0.2
v -0.2 3 -0.2
v -0.2 3.2 -0.2
v 0.2 2.6 -0.2
v 0.2 3 -0.2
v 0.2 3.2 -0.2
v -0.2 3 0.3
v -0.2 3.1 0.3
v -0.1 3.1 0.3
v -0.1 3.3 0.3
v -0.1 3.5 0.3
v 0.1 3.1 0.3
v 0.1 3.3 0.3
v 0.1 3.5 0.3
v 0.2 3 0.3
v 0.2 3.1 0.3
v -0.2 3.1 0.2
v -0.2 3.2 0.2
v -0.1 3.1 0.2
v -0.1 3.2 0.2
v 0.1 3.1 0.2
v 0.1 3.2 0.2
v 0.2 3.1 0.2
v 0.2 3.2 0.2
v -0.1 3.4 0
v -0.1 3.5 0
v -0.1 3.8 0
v 0.1 3.4 0
v 0.1 3.5 0
v 0.1 3.8 0
v -0.1 3.3 -0.1
v -0.1 3.4 -0.1
v 0.1 3.3 -0.1
v 0.1 3.4 -0.1
v -0.4 3 -0.2
v -0.4 3.2 -0.2
v -0.3 2.6 -0.2
v -0.3 3 -0.2
v -0.3 3.2 -0.2
v -0.2 2.6 -0.2
v -0.2 3 -0.2
v -0.2 3.2 -0.2
v -0.2 3.3 -0.2
v 0.2 2.6 -0.2
v 0.2 3 -0.2
v 0.2 3.2 -0.2
v 0.2 3.3 -0.2
v 0.3 2.6 -0.2
v 0.3 3 -0.2
v 0.3 3.2 -0.2
v 0.4 3 -0.2
v 0.4 3.2 -0.2
v -0.3 3 -0.3
v -0.3 3.2 -0.3
v -0.2 2.6 -0.3
v -0.2 3 -0.3
v -0.2 3.2 -0.3
v 0.2 2.6 -0.3
v 0.2 3 -0.3
v 0.2 3.2 -0.3
v 0.3 3 -0.3
v 0.3 3.2 -0.3
v -0.2 3 -0.4
v -0.2 3.2 -0.4
v 0.2 3 -0.4
v 0.2 3.2 -0.4
v -0.3 2.6 0.3
v -0.2 2.6 0.3
v 0.2 2.6 0.3
v 0.3 2.6 0.3
v -0.3 2.6 -0.2
v -0.2 2.6 -0.2
v 0.2 2.6 -0.2
v 0.3 2.6 -0.2
v -0.2 2.6 -0.3
v 0.2 2.6 -0.3
v -0.2 3 0.5
v 0.2 3 0.5
v -0.3 3 0.4
v -0.2 3 0.4
v 0.2 3 0.4
v 0.3 3 0.4
v -0.4 3 0.3
v -0.3 3 0.3
v -0.2 3 0.3
v 0.2 3 0.3
v 0.3 3 0.3
v 0.4 3 0.3
v -0.4 3 -0.2
v -0.3 3 -0.2
v -0.2 3 -0.2
v 0.2 3 -0.2
v 0.3 3 -0.2
v 0.4 3 -0.2
v -0.3 3 -0.3
v -0.2 3 -0.3
v 0.2 3 -0.3
v 0.3 3 -0.3
v -0.2 3 -0.4
v 0.2 3 -0.4
v -0.2 3.1 0.3
v -0.1 3.1 0.3
v 0.1 3.1 0.3
v 0.2 3.1 0.3
v -0.2 3.1 0.2
v -0.1 3.1 0.2
v 0.1 3.1 0.2
v 0.2 3.1 0.2
v -0.2 3.2 0.2
v -0.1 3.2 0.2
v 0.1 3.2 0.2
v 0.2 3.2 0.2
v -0.2 3.2 -0.2
v 0.2 3.2 -0.2
v -0.2 3.2 0.5
v 0.2 3.2 0.5
v -0.3 3.2 0.4
v -0.2 3.2 0.4
v -0.1 3.2 0.4
v 0.1 3.2 0.4
v 0.2 3.2 0.4
v 0.3 3.2 0.4
v -0.4 3.2 0.3
v -0.3 3.2 0.3
v -0.2 3.2 0.3
v -0.1 3.2 0.3
v 0.1 3.2 0.3
v 0.2 3.2 0.3
v 0.3 3.2 0.3
v 0.4 3.2 0.3
v -0.4 3.2 -0.2
v -0.3 3.2 -0.2
v -0.2 3.2 -0.2
v 0.2 3.2 -0.2
v 0.3 3.2 -0.2
v 0.4 3.2 -0.2
v -0.3 3.2 -0.3
v -0.2 3.2 -0.3
v 0.2 3.2 -0.3
v 0.3 3.2 -0.3
v -0.2 3.2 -0.4
v 0.2 3.2 -0.4
v -0.2 3.3 0.3
v -0.1 3.3 0.3
v 0.1 3.3 0.3
v 0.2 3.3 0.3
v -0.1 3.3 0.2
v 0.1 3.3 0.2
v -0.1 3.3 -0.1
v 0.1 3.3 -0.1
v -0.2 3.3 -0.2
v 0.2 3.3 -0.2
v -0.1 3.4 0.2
v 0.1 3.4 0.2
v -0.1 3.4 0.1
v 0.1 3.4 0.1
v -0.1 3.4 0
v 0.1 3.4 0
v -0.1 3.4 -0.1
v 0.1 3.4 -0.1
v -0.1 3.5 0.4
v 0.1 3.5 0.4
v -0.1 3.5 0.3
v 0.1 3.5 0.3
v -0.1 3.8 0.1
v 0.1 3.8 0.1
v -0.1 3.8 0
v 0.1 3.8 0

# faces
f 3/1/1 2/1/1 1/1/1
f 4/1/1 2/1/1 3/1/1
f 8/3/1 6/3/1 5/3/1
f 9/3/1 6/3/1 8/3/1
f 11/1/1 8/1/1 7/1/1
f 12/1/1 8/1/1 11/1/1
f 13/1/1 10/1/1 9/1/1
f 14/1/1 10/1/1 13/1/1
f 19/3/1 16/3/1 15/3/1
f 20/3/1 16/3/1 19/3/1
f 22/1/1 18/1/1 17/1/1
f 23/1/1 18/1/1 22/1/1
f 26/1/1 21/1/1 20/1/1
f 27/1/1 21/1/1 26/1/1
f 28/2/1 25/2/1 24/2/1
f 29/2/1 25/2/1 28/2/1
f 32/2/1 31/2/1 30/2/1
f 35/2/1 34/2/1 33/2/1
f 36/2/1 34/2/1 35/2/1
f 37/2/1 34/2/1 36/2/1
f 38/2/1 34/2/1 37/2/1
f 39/2/1 32/2/1 30/2/1
f 40/2/1 32/2/1 39/2/1
f 41/2/1 37/2/1 36/2/1
f 42/2/1 37/2/1 41/2/1
f 43/1/1 42/1/1 41/1/1
f 44/1/1 42/1/1 43/1/1
f 47/3/1 46/3/1 45/3/1
f 48/3/1 46/3/1 47/3/1
f 49/2/1 48/2/1 47/2/1
f 50/2/1 48/2/1 49/2/1
f 51/2/1 48/2/1 50/2/1
f 52/2/1 48/2/1 51/2/1
f 53/3/2 54/3/2 55/3/2
f 55/3/2 54/3/2 56/3/2
f 55/2/2 56/2/2 57/2/2
f 57/2/2 56/2/2 58/2/2
f 58/2/2 56/2/2 59/2/2
f 59/2/2 56/2/2 60/2/2
f 61/2/2 62/2/2 63/2/2
f 64/2/2 65/2/2 66/2/2
f 66/2/2 65/2/2 67/2/2
f 67/2/2 65/2/2 68/2/2
f 68/2/2 65/2/2 69/2/2
f 61/2/2 63/2/2 70/2/2
f 70/2/2 63/2/2 71/2/2
f 67/2/2 68/2/2 72/2/2
f 72/2/2 68/2/2 73/2/2
f 72/1/2 73/1/2 74/1/2
f 74/1/2 73/1/2 75/1/2
f 76/3/2 77/3/2 80/3/2
f 80/3/2 77/3/2 81/3/2
f 78/1/2 79/1/2 83/1/2
f 83/1/2 79/1/2 84/1/2
f 81/1/2 82/1/2 87/1/2
f 87/1/2 82/1/2 88/1/2
f 85/2/2 86/2/2 89/2/2
f 89/2/2 86/2/2 90/2/2
f 91/3/2 92/3/2 94/3/2
f 94/3/2 92/3/2 95/3/2
f 93/1/2 94/1/2 97/1/2
f 97/1/2 94/1/2 98/1/2
f 95/1/2 96/1/2 99/1/2
f 99/1/2 96/1/2 100/1/2
f 101/1/2 102/1/2 103/1/2
f 103/1/2 102/1/2 104/1/2
f 107/1/3 106/1/3 105/1/3
f 108/1/3 106/1/3 107/1/3
f 111/1/3 110/1/3 109/1/3
f 112/1/3 110/1/3 111/1/3
f 115/2/3 114/2/3 113/2/3
f 116/2/3 114/2/3 115/2/3
f 119/1/3 118/1/3 117/1/3
f 120/1/3 118/1/3 119/1/3
f 124/1/3 122/1/3 121/1/3
f 125/1/3 122/1/3 124/1/3
f 126/3/3 124/3/3 123/3/3
f 127/3/3 124/3/3 126/3/3
f 130/2/3 129/2/3 128/2/3
f 131/2/3 129/2/3 130/2/3
f 136/2/3 133/2/3 132/2/3
f 137/2/3 133/2/3 136/2/3
f 138/3/3 135/3/3 134/3/3
f 139/3/3 135/3/3 138/3/3
f 141/1/3 140/1/3 139/1/3
f 142/1/3 140/1/3 141/1/3
f 145/2/3 144/2/3 143/2/3
f 146/2/3 144/2/3 145/2/3
f 150/2/3 148/2/3 147/2/3
f 151/1/3 149/1/3 148/1/3
f 151/2/3 148/2/3 150/2/3
f 152/1/3 149/1/3 151/1/3
f 156/3/3 154/3/3 153/3/3
f 157/2/3 155/2/3 154/2/3
f 157/3/3 154/3/3 156/3/3
f 158/2/3 155/2/3 157/2/3
f 159/2/4 160/2/4 161/2/4
f 159/2/4 161/2/4 164/2/4
f 162/2/4 163/2/4 165/2/4
f 165/2/4 163/2/4 166/2/4
f 159/2/4 164/2/4 167/2/4
f 167/2/4 164/2/4 168/2/4
f 169/2/4 170/2/4 171/2/4
f 171/2/4 170/2/4 172/2/4
f 171/3/4 172/3/4 173/3/4
f 173/3/4 172/3/4 174/3/4
f 173/2/4 174/2/4 175/2/4
f 175/2/4 174/2/4 176/2/4
f 177/2/4 178/2/4 180/2/4
f 178/1/4 179/1/4 181/1/4
f 180/2/4 178/2/4 181/2/4
f 181/1/4 179/1/4 182/1/4
f 183/2/4 184/2/4 185/2/4
f 185/2/4 184/2/4 186/2/4
f 187/1/4 188/1/4 190/1/4
f 190/1/4 188/1/4 191/1/4
f 189/3/4 190/3/4 192/3/4
f 192/3/4 190/3/4 193/3/4
f 194/2/4 195/2/4 198/2/4
f 198/2/4 195/2/4 199/2/4
f 196/3/4 197/3/4 200/3/4
f 200/3/4 197/3/4 201/3/4
f 201/1/4 202/1/4 203/1/4
f 203/1/4 202/1/4 204/1/4
f 205/1/4 206/1/4 208/1/4
f 208/1/4 206/1/4 209/1/4
f 207/3/4 208/3/4 210/3/4
f 210/3/4 208/3/4 211/3/4
f 211/1/4 212/1/4 213/1/4
f 213/1/4 212/1/4 214/1/4
f 215/1/4 216/1/4 217/1/4
f 217/1/4 216/1/4 218/1/4
f 223/3/5 220/3/5 219/3/5
f 224/3/5 220/3/5 223/3/5
f 225/3/5 222/3/5 221/3/5
f 226/3/5 222/3/5 225/3/5
f 227/3/5 225/3/5 224/3/5
f 228/3/5 225/3/5 227/3/5
f 232/1/5 230/1/5 229/1/5
f 233/1/5 230/1/5 232/1/5
f 236/1/5 232/1/5 231/1/5
f 237/2/5 233/2/5 232/2/5
f 237/1/5 232/1/5 236/1/5
f 238/1/5 234/1/5 233/1/5
f 238/2/5 233/2/5 237/2/5
f 239/1/5 234/1/5 238/1/5
f 241/1/5 236/1/5 235/1/5
f 242/1/5 236/1/5 241/1/5
f 245/1/5 240/1/5 239/1/5
f 246/1/5 240/1/5 245/1/5
f 247/1/5 243/1/5 242/1/5
f 248/1/5 243/1/5 247/1/5
f 249/1/5 245/1/5 244/1/5
f 250/1/5 245/1/5 249/1/5
f 251/1/5 249/1/5 248/1/5
f 252/1/5 249/1/5 251/1/5
f 257/2/5 254/2/5 253/2/5
f 258/3/5 255/3/5 254/3/5
f 258/2/5 254/2/5 257/2/5
f 259/2/5 256/2/5 255/2/5
f 259/3/5 255/3/5 258/3/5
f 260/2/5 256/2/5 259/2/5
f 265/2/5 262/2/5 261/2/5
f 265/2/5 264/2/5 263/2/5
f 265/2/5 263/2/5 262/2/5
f 266/2/5 264/2/5 265/2/5
f 267/1/6 268/1/6 270/1/6
f 270/1/6 268/1/6 271/1/6
f 271/1/6 268/1/6 272/1/6
f 272/1/6 268/1/6 273/1/6
f 269/1/6 270/1/6 276/1/6
f 270/2/6 271/2/6 277/2/6
f 276/1/6 270/1/6 277/1/6
f 277/2/6 271/2/6 278/2/6
f 272/2/6 273/2/6 279/2/6
f 273/1/6 274/1/6 280/1/6
f 279/2/6 273/2/6 280/2/6
f 280/1/6 274/1/6 281/1/6
f 275/1/6 276/1/6 283/1/6
f 276/2/6 277/2/6 284/2/6
f 283/1/6 276/1/6 284/1/6
f 284/2/6 277/2/6 285/2/6
f 280/2/6 281/2/6 286/2/6
f 281/1/6 282/1/6 287/1/6
f 286/2/6 281/2/6 287/2/6
f 287/1/6 282/1/6 288/1/6
f 284/1/6 285/1/6 289/1/6
f 285/2/6 286/2/6 290/2/6
f 289/1/6 285/1/6 290/1/6
f 286/1/6 287/1/6 291/1/6
f 290/2/6 286/2/6 291/2/6
f 291/1/6 287/1/6 292/1/6
f 290/1/6 291/1/6 293/1/6
f 293/1/6 291/1/6 294/1/6
f 295/2/6 296/2/6 299/2/6
f 297/2/6 298/2/6 299/2/6
f 296/2/6 297/2/6 299/2/6
f 299/2/6 298/2/6 300/2/6
f 295/2/6 299/2/6 301/2/6
f 300/2/6 298/2/6 302/2/6
f 295/2/6 301/2/6 303/2/6
f 301/2/6 302/2/6 303/2/6
f 302/2/6 298/2/6 304/2/6
f 303/2/6 302/2/6 304/2/6
f 305/2/6 306/2/6 307/2/6
f 307/2/6 306/2/6 308/2/6
f 309/2/6 310/2/6 311/2/6
f 311/2/6 310/2/6 312/2/6
f 313/2/6 314/2/6 315/2/6
f 315/2/6 314/2/6 316/2/6
f 317/1/6 318/1/6 319/1/6
f 319/1/6 318/1/6 320/1/6
