# MagicaVoxel @ Ephtracy

# group
o chest_med_hvy_3_sh_ja_du

# material
mtllib char-49-chest_med_hvy_3_sh_ja_du.mtl
usemtl palette

# normals
vn -1 0 0
vn 1 0 0
vn 0 0 1
vn 0 0 -1
vn 0 -1 0
vn 0 1 0

# texcoords
vt 0.482422 0.5
vt 0.697266 0.5
vt 0.892578 0.5
vt 0.916016 0.5
vt 0.958984 0.5

# verts
v -0.4 1.4 0.2
v -0.4 1.4 -0.1
v -0.4 1.6 0.2
v -0.4 1.6 -0.1
v -0.4 1.7 0.2
v -0.4 1.7 0
v -0.4 1.7 -0.1
v -0.4 2 0.3
v -0.4 2 0.2
v -0.4 2 0
v -0.4 2 -0.1
v -0.4 2.1 -0.1
v -0.4 2.1 -0.2
v -0.4 2.4 0.3
v -0.4 2.4 0.2
v -0.4 2.5 0.2
v -0.4 2.5 -0.2
v -0.3 1.4 0.3
v -0.3 1.4 0.2
v -0.3 1.4 -0.1
v -0.3 1.4 -0.2
v -0.3 1.6 0.3
v -0.3 1.6 0.2
v -0.3 1.6 -0.1
v -0.3 1.6 -0.2
v -0.3 1.7 0.3
v -0.3 1.7 0.2
v -0.3 1.7 0
v -0.3 1.7 -0.1
v -0.3 1.7 -0.2
v -0.3 2 0.4
v -0.3 2 0.3
v -0.3 2 0.2
v -0.3 2 0
v -0.3 2 -0.1
v -0.3 2 -0.2
v -0.3 2.1 -0.1
v -0.3 2.1 -0.2
v -0.3 2.1 -0.3
v -0.3 2.4 0.4
v -0.3 2.4 0.3
v -0.3 2.4 0.2
v -0.3 2.5 0.3
v -0.3 2.5 0.2
v -0.3 2.5 -0.2
v -0.3 2.5 -0.3
v -0.2 1.4 0.4
v -0.2 1.4 0.3
v -0.2 1.4 -0.2
v -0.2 1.4 -0.3
v -0.2 1.6 0.4
v -0.2 1.6 0.3
v -0.2 1.6 -0.2
v -0.2 1.6 -0.3
v -0.2 1.7 0.4
v -0.2 1.7 0.3
v -0.2 1.7 -0.1
v -0.2 1.7 -0.2
v -0.2 1.7 -0.3
v -0.2 2 0.4
v -0.2 2 0.3
v -0.2 2 -0.1
v -0.2 2 -0.2
v -0.2 2 -0.3
v -0.2 2.1 -0.2
v -0.2 2.1 -0.3
v -0.2 2.5 0.1
v -0.2 2.5 -0.1
v -0.2 2.6 0.1
v -0.2 2.6 -0.1
v -0.1 2.5 0.2
v -0.1 2.5 0.1
v -0.1 2.5 -0.1
v -0.1 2.5 -0.2
v -0.1 2.6 0.2
v -0.1 2.6 0.1
v -0.1 2.6 -0.1
v -0.1 2.6 -0.2
v 0.2 1.6 -0.1
v 0.2 1.6 -0.2
v 0.2 1.7 -0.1
v 0.2 1.7 -0.2
v -0.2 1.6 -0.1
v -0.2 1.6 -0.2
v -0.2 1.7 -0.1
v -0.2 1.7 -0.2
v 0.1 2.5 0.2
v 0.1 2.5 0.1
v 0.1 2.5 -0.1
v 0.1 2.5 -0.2
v 0.1 2.6 0.2
v 0.1 2.6 0.1
v 0.1 2.6 -0.1
v 0.1 2.6 -0.2
v 0.2 1.4 0.4
v 0.2 1.4 0.3
v 0.2 1.4 -0.2
v 0.2 1.4 -0.3
v 0.2 1.6 0.4
v 0.2 1.6 0.3
v 0.2 1.6 -0.2
v 0.2 1.6 -0.3
v 0.2 1.7 0.4
v 0.2 1.7 0.3
v 0.2 1.7 -0.1
v 0.2 1.7 -0.2
v 0.2 1.7 -0.3
v 0.2 2 0.4
v 0.2 2 0.3
v 0.2 2 -0.1
v 0.2 2 -0.2
v 0.2 2 -0.3
v 0.2 2.1 -0.2
v 0.2 2.1 -0.3
v 0.2 2.5 0.1
v 0.2 2.5 -0.1
v 0.2 2.6 0.1
v 0.2 2.6 -0.1
v 0.3 1.4 0.3
v 0.3 1.4 0.2
v 0.3 1.4 -0.1
v 0.3 1.4 -0.2
v 0.3 1.6 0.3
v 0.3 1.6 0.2
v 0.3 1.6 -0.1
v 0.3 1.6 -0.2
v 0.3 1.7 0.3
v 0.3 1.7 0.2
v 0.3 1.7 0
v 0.3 1.7 -0.1
v 0.3 1.7 -0.2
v 0.3 2 0.4
v 0.3 2 0.3
v 0.3 2 0.2
v 0.3 2 0
v 0.3 2 -0.1
v 0.3 2 -0.2
v 0.3 2.1 -0.1
v 0.3 2.1 -0.2
v 0.3 2.1 -0.3
v 0.3 2.4 0.4
v 0.3 2.4 0.3
v 0.3 2.4 0.2
v 0.3 2.5 0.3
v 0.3 2.5 0.2
v 0.3 2.5 -0.2
v 0.3 2.5 -0.3
v 0.4 1.4 0.2
v 0.4 1.4 -0.1
v 0.4 1.6 0.2
v 0.4 1.6 -0.1
v 0.4 1.7 0.2
v 0.4 1.7 0
v 0.4 1.7 -0.1
v 0.4 2 0.3
v 0.4 2 0.2
v 0.4 2 0
v 0.4 2 -0.1
v 0.4 2.1 -0.1
v 0.4 2.1 -0.2
v 0.4 2.4 0.3
v 0.4 2.4 0.2
v 0.4 2.5 0.2
v 0.4 2.5 -0.2
v -0.3 2 0.4
v -0.3 2.4 0.4
v -0.2 1.4 0.4
v -0.2 1.6 0.4
v -0.2 1.7 0.4
v -0.2 2 0.4
v -0.1 1.6 0.4
v -0.1 1.7 0.4
v 0.1 1.6 0.4
v 0.1 1.7 0.4
v 0.2 1.4 0.4
v 0.2 1.6 0.4
v 0.2 1.7 0.4
v 0.2 2 0.4
v 0.3 2 0.4
v 0.3 2.4 0.4
v -0.4 2 0.3
v -0.4 2.4 0.3
v -0.3 1.4 0.3
v -0.3 1.6 0.3
v -0.3 1.7 0.3
v -0.3 2 0.3
v -0.3 2.4 0.3
v -0.3 2.5 0.3
v -0.2 1.4 0.3
v -0.2 1.6 0.3
v -0.2 1.7 0.3
v -0.2 2 0.3
v 0.2 1.4 0.3
v 0.2 1.6 0.3
v 0.2 1.7 0.3
v 0.2 2 0.3
v 0.3 1.4 0.3
v 0.3 1.6 0.3
v 0.3 1.7 0.3
v 0.3 2 0.3
v 0.3 2.4 0.3
v 0.3 2.5 0.3
v 0.4 2 0.3
v 0.4 2.4 0.3
v -0.4 1.4 0.2
v -0.4 1.6 0.2
v -0.4 1.7 0.2
v -0.4 2 0.2
v -0.4 2.4 0.2
v -0.4 2.5 0.2
v -0.3 1.4 0.2
v -0.3 1.6 0.2
v -0.3 1.7 0.2
v -0.3 2 0.2
v -0.3 2.4 0.2
v -0.3 2.5 0.2
v -0.1 2.5 0.2
v -0.1 2.6 0.2
v 0.1 2.5 0.2
v 0.1 2.6 0.2
v 0.3 1.4 0.2
v 0.3 1.6 0.2
v 0.3 1.7 0.2
v 0.3 2 0.2
v 0.3 2.4 0.2
v 0.3 2.5 0.2
v 0.4 1.4 0.2
v 0.4 1.6 0.2
v 0.4 1.7 0.2
v 0.4 2 0.2
v 0.4 2.4 0.2
v 0.4 2.5 0.2
v -0.2 2.5 0.1
v -0.2 2.6 0.1
v -0.1 2.5 0.1
v -0.1 2.6 0.1
v 0.1 2.5 0.1
v 0.1 2.6 0.1
v 0.2 2.5 0.1
v 0.2 2.6 0.1
v -0.2 1.6 -0.2
v -0.2 1.7 -0.2
v 0.2 1.6 -0.2
v 0.2 1.7 -0.2
v -0.4 1.7 0
v -0.4 2 0
v -0.3 1.7 0
v -0.3 2 0
v 0.3 1.7 0
v 0.3 2 0
v 0.4 1.7 0
v 0.4 2 0
v -0.4 1.4 -0.1
v -0.4 1.6 -0.1
v -0.4 1.7 -0.1
v -0.4 2 -0.1
v -0.4 2.1 -0.1
v -0.3 1.4 -0.1
v -0.3 1.6 -0.1
v -0.3 1.7 -0.1
v -0.3 2 -0.1
v -0.3 2.1 -0.1
v -0.2 1.6 -0.1
v -0.2 1.7 -0.1
v -0.2 2 -0.1
v -0.2 2.5 -0.1
v -0.2 2.6 -0.1
v -0.1 2.5 -0.1
v -0.1 2.6 -0.1
v 0.1 2.5 -0.1
v 0.1 2.6 -0.1
v 0.2 1.6 -0.1
v 0.2 1.7 -0.1
v 0.2 2 -0.1
v 0.2 2.5 -0.1
v 0.2 2.6 -0.1
v 0.3 1.4 -0.1
v 0.3 1.6 -0.1
v 0.3 1.7 -0.1
v 0.3 2 -0.1
v 0.3 2.1 -0.1
v 0.4 1.4 -0.1
v 0.4 1.6 -0.1
v 0.4 1.7 -0.1
v 0.4 2 -0.1
v 0.4 2.1 -0.1
v -0.4 2.1 -0.2
v -0.4 2.5 -0.2
v -0.3 1.4 -0.2
v -0.3 1.6 -0.2
v -0.3 1.7 -0.2
v -0.3 2 -0.2
v -0.3 2.1 -0.2
v -0.3 2.5 -0.2
v -0.2 1.4 -0.2
v -0.2 1.6 -0.2
v -0.2 1.7 -0.2
v -0.2 2 -0.2
v -0.2 2.1 -0.2
v -0.1 2.5 -0.2
v -0.1 2.6 -0.2
v 0.1 2.5 -0.2
v 0.1 2.6 -0.2
v 0.2 1.4 -0.2
v 0.2 1.6 -0.2
v 0.2 1.7 -0.2
v 0.2 2 -0.2
v 0.2 2.1 -0.2
v 0.3 1.4 -0.2
v 0.3 1.6 -0.2
v 0.3 1.7 -0.2
v 0.3 2 -0.2
v 0.3 2.1 -0.2
v 0.3 2.5 -0.2
v 0.4 2.1 -0.2
v 0.4 2.5 -0.2
v -0.3 2.1 -0.3
v -0.3 2.5 -0.3
v -0.2 1.4 -0.3
v -0.2 1.6 -0.3
v -0.2 1.7 -0.3
v -0.2 2 -0.3
v -0.2 2.1 -0.3
v 0.2 1.4 -0.3
v 0.2 1.6 -0.3
v 0.2 1.7 -0.3
v 0.2 2 -0.3
v 0.2 2.1 -0.3
v 0.3 2.1 -0.3
v 0.3 2.5 -0.3
v -0.2 1.4 0.4
v 0.2 1.4 0.4
v -0.3 1.4 0.3
v -0.2 1.4 0.3
v 0.2 1.4 0.3
v 0.3 1.4 0.3
v -0.4 1.4 0.2
v -0.3 1.4 0.2
v 0.3 1.4 0.2
v 0.4 1.4 0.2
v -0.4 1.4 -0.1
v -0.3 1.4 -0.1
v -0.2 1.4 -0.1
v 0.2 1.4 -0.1
v 0.3 1.4 -0.1
v 0.4 1.4 -0.1
v -0.3 1.4 -0.2
v -0.2 1.4 -0.2
v 0.2 1.4 -0.2
v 0.3 1.4 -0.2
v -0.2 1.4 -0.3
v 0.2 1.4 -0.3
v -0.2 1.7 -0.1
v 0.2 1.7 -0.1
v -0.2 1.7 -0.2
v 0.2 1.7 -0.2
v -0.3 2 0.4
v -0.2 2 0.4
v 0.2 2 0.4
v 0.3 2 0.4
v -0.4 2 0.3
v -0.3 2 0.3
v -0.2 2 0.3
v 0.2 2 0.3
v 0.3 2 0.3
v 0.4 2 0.3
v -0.4 2 0.2
v -0.3 2 0.2
v 0.3 2 0.2
v 0.4 2 0.2
v -0.4 2 0
v -0.3 2 0
v 0.3 2 0
v 0.4 2 0
v -0.4 2 -0.1
v -0.3 2 -0.1
v -0.2 2 -0.1
v 0.2 2 -0.1
v 0.3 2 -0.1
v 0.4 2 -0.1
v -0.3 2 -0.2
v -0.2 2 -0.2
v 0.2 2 -0.2
v 0.3 2 -0.2
v -0.2 2 -0.3
v 0.2 2 -0.3
v -0.4 2.1 -0.1
v -0.3 2.1 -0.1
v 0.3 2.1 -0.1
v 0.4 2.1 -0.1
v -0.4 2.1 -0.2
v -0.3 2.1 -0.2
v -0.2 2.1 -0.2
v 0.2 2.1 -0.2
v 0.3 2.1 -0.2
v 0.4 2.1 -0.2
v -0.3 2.1 -0.3
v -0.2 2.1 -0.3
v 0.2 2.1 -0.3
v 0.3 2.1 -0.3
v -0.2 1.6 -0.1
v 0.2 1.6 -0.1
v -0.2 1.6 -0.2
v 0.2 1.6 -0.2
v -0.4 1.7 0
v -0.3 1.7 0
v 0.3 1.7 0
v 0.4 1.7 0
v -0.4 1.7 -0.1
v -0.3 1.7 -0.1
v -0.2 1.7 -0.1
v 0.2 1.7 -0.1
v 0.3 1.7 -0.1
v 0.4 1.7 -0.1
v -0.3 1.7 -0.2
v -0.2 1.7 -0.2
v 0.2 1.7 -0.2
v 0.3 1.7 -0.2
v -0.2 1.7 -0.3
v 0.2 1.7 -0.3
v -0.3 2.4 0.4
v 0.3 2.4 0.4
v -0.4 2.4 0.3
v -0.3 2.4 0.3
v 0.3 2.4 0.3
v 0.4 2.4 0.3
v -0.4 2.4 0.2
v -0.3 2.4 0.2
v 0.3 2.4 0.2
v 0.4 2.4 0.2
v -0.3 2.5 0.3
v 0.3 2.5 0.3
v -0.4 2.5 0.2
v -0.3 2.5 0.2
v -0.1 2.5 0.2
v 0.1 2.5 0.2
v 0.3 2.5 0.2
v 0.4 2.5 0.2
v -0.2 2.5 0.1
v -0.1 2.5 0.1
v 0.1 2.5 0.1
v 0.2 2.5 0.1
v -0.2 2.5 -0.1
v -0.1 2.5 -0.1
v 0.1 2.5 -0.1
v 0.2 2.5 -0.1
v -0.4 2.5 -0.2
v -0.3 2.5 -0.2
v -0.1 2.5 -0.2
v 0.1 2.5 -0.2
v 0.3 2.5 -0.2
v 0.4 2.5 -0.2
v -0.3 2.5 -0.3
v 0.3 2.5 -0.3
v -0.1 2.6 0.2
v 0.1 2.6 0.2
v -0.2 2.6 0.1
v -0.1 2.6 0.1
v 0.1 2.6 0.1
v 0.2 2.6 0.1
v -0.2 2.6 -0.1
v -0.1 2.6 -0.1
v 0.1 2.6 -0.1
v 0.2 2.6 -0.1
v -0.1 2.6 -0.2
v 0.1 2.6 -0.2

# faces
f 3/5/1 2/5/1 1/5/1
f 4/5/1 2/5/1 3/5/1
f 5/2/1 4/2/1 3/2/1
f 6/2/1 4/2/1 5/2/1
f 7/2/1 4/2/1 6/2/1
f 9/5/1 6/5/1 5/5/1
f 10/5/1 6/5/1 9/5/1
f 12/5/1 9/5/1 8/5/1
f 12/5/1 11/5/1 10/5/1
f 12/5/1 10/5/1 9/5/1
f 14/5/1 12/5/1 8/5/1
f 14/5/1 13/5/1 12/5/1
f 15/5/1 13/5/1 14/5/1
f 16/5/1 13/5/1 15/5/1
f 17/5/1 13/5/1 16/5/1
f 22/5/1 19/5/1 18/5/1
f 23/5/1 19/5/1 22/5/1
f 24/5/1 21/5/1 20/5/1
f 25/5/1 21/5/1 24/5/1
f 26/2/1 23/2/1 22/2/1
f 27/2/1 23/2/1 26/2/1
f 29/2/1 25/2/1 24/2/1
f 30/2/1 25/2/1 29/2/1
f 32/5/1 27/5/1 26/5/1
f 33/5/1 27/5/1 32/5/1
f 34/5/1 29/5/1 28/5/1
f 35/5/1 29/5/1 34/5/1
f 37/5/1 36/5/1 35/5/1
f 38/5/1 36/5/1 37/5/1
f 40/5/1 32/5/1 31/5/1
f 41/5/1 32/5/1 40/5/1
f 43/5/1 42/5/1 41/5/1
f 44/5/1 42/5/1 43/5/1
f 45/5/1 39/5/1 38/5/1
f 46/5/1 39/5/1 45/5/1
f 51/5/1 48/5/1 47/5/1
f 52/5/1 48/5/1 51/5/1
f 53/5/1 50/5/1 49/5/1
f 54/5/1 50/5/1 53/5/1
f 55/2/1 52/2/1 51/2/1
f 56/2/1 52/2/1 55/2/1
f 58/2/1 54/2/1 53/2/1
f 59/2/1 54/2/1 58/2/1
f 60/5/1 56/5/1 55/5/1
f 61/5/1 56/5/1 60/5/1
f 62/5/1 58/5/1 57/5/1
f 63/5/1 58/5/1 62/5/1
f 65/5/1 64/5/1 63/5/1
f 66/5/1 64/5/1 65/5/1
f 69/1/1 68/1/1 67/1/1
f 70/1/1 68/1/1 69/1/1
f 75/1/1 72/1/1 71/1/1
f 76/1/1 72/1/1 75/1/1
f 77/1/1 74/1/1 73/1/1
f 78/1/1 74/1/1 77/1/1
f 81/2/1 80/2/1 79/2/1
f 82/2/1 80/2/1 81/2/1
f 83/2/2 84/2/2 85/2/2
f 85/2/2 84/2/2 86/2/2
f 87/1/2 88/1/2 91/1/2
f 91/1/2 88/1/2 92/1/2
f 89/1/2 90/1/2 93/1/2
f 93/1/2 90/1/2 94/1/2
f 95/5/2 96/5/2 99/5/2
f 99/5/2 96/5/2 100/5/2
f 97/5/2 98/5/2 101/5/2
f 101/5/2 98/5/2 102/5/2
f 99/2/2 100/2/2 103/2/2
f 103/2/2 100/2/2 104/2/2
f 101/2/2 102/2/2 106/2/2
f 106/2/2 102/2/2 107/2/2
f 103/5/2 104/5/2 108/5/2
f 108/5/2 104/5/2 109/5/2
f 105/5/2 106/5/2 110/5/2
f 110/5/2 106/5/2 111/5/2
f 111/5/2 112/5/2 113/5/2
f 113/5/2 112/5/2 114/5/2
f 115/1/2 116/1/2 117/1/2
f 117/1/2 116/1/2 118/1/2
f 119/5/2 120/5/2 123/5/2
f 123/5/2 120/5/2 124/5/2
f 121/5/2 122/5/2 125/5/2
f 125/5/2 122/5/2 126/5/2
f 123/2/2 124/2/2 127/2/2
f 127/2/2 124/2/2 128/2/2
f 125/2/2 126/2/2 130/2/2
f 130/2/2 126/2/2 131/2/2
f 127/5/2 128/5/2 133/5/2
f 133/5/2 128/5/2 134/5/2
f 129/5/2 130/5/2 135/5/2
f 135/5/2 130/5/2 136/5/2
f 136/5/2 137/5/2 138/5/2
f 138/5/2 137/5/2 139/5/2
f 132/5/2 133/5/2 141/5/2
f 141/5/2 133/5/2 142/5/2
f 142/5/2 143/5/2 144/5/2
f 144/5/2 143/5/2 145/5/2
f 139/5/2 140/5/2 146/5/2
f 146/5/2 140/5/2 147/5/2
f 148/5/2 149/5/2 150/5/2
f 150/5/2 149/5/2 151/5/2
f 150/2/2 151/2/2 152/2/2
f 152/2/2 151/2/2 153/2/2
f 153/2/2 151/2/2 154/2/2
f 152/5/2 153/5/2 156/5/2
f 156/5/2 153/5/2 157/5/2
f 155/5/2 156/5/2 159/5/2
f 157/5/2 158/5/2 159/5/2
f 156/5/2 157/5/2 159/5/2
f 155/5/2 159/5/2 161/5/2
f 159/5/2 160/5/2 161/5/2
f 161/5/2 160/5/2 162/5/2
f 162/5/2 160/5/2 163/5/2
f 163/5/2 160/5/2 164/5/2
f 170/5/3 166/5/3 165/5/3
f 171/2/3 169/2/3 168/2/3
f 171/5/3 168/5/3 167/5/3
f 172/5/3 170/5/3 169/5/3
f 172/2/3 169/2/3 171/2/3
f 173/5/3 171/5/3 167/5/3
f 173/4/3 172/4/3 171/4/3
f 174/5/3 170/5/3 172/5/3
f 174/4/3 172/4/3 173/4/3
f 175/5/3 173/5/3 167/5/3
f 176/2/3 174/2/3 173/2/3
f 176/5/3 173/5/3 175/5/3
f 177/5/3 170/5/3 174/5/3
f 177/2/3 174/2/3 176/2/3
f 178/5/3 166/5/3 170/5/3
f 178/5/3 170/5/3 177/5/3
f 179/5/3 166/5/3 178/5/3
f 180/5/3 166/5/3 179/5/3
f 186/5/3 182/5/3 181/5/3
f 187/5/3 182/5/3 186/5/3
f 189/5/3 184/5/3 183/5/3
f 190/2/3 185/2/3 184/2/3
f 190/5/3 184/5/3 189/5/3
f 191/5/3 186/5/3 185/5/3
f 191/2/3 185/2/3 190/2/3
f 192/5/3 186/5/3 191/5/3
f 197/5/3 194/5/3 193/5/3
f 198/2/3 195/2/3 194/2/3
f 198/5/3 194/5/3 197/5/3
f 199/5/3 196/5/3 195/5/3
f 199/2/3 195/2/3 198/2/3
f 200/5/3 196/5/3 199/5/3
f 201/5/3 188/5/3 187/5/3
f 202/5/3 188/5/3 201/5/3
f 203/5/3 201/5/3 200/5/3
f 204/5/3 201/5/3 203/5/3
f 211/5/3 206/5/3 205/5/3
f 212/2/3 207/2/3 206/2/3
f 212/5/3 206/5/3 211/5/3
f 213/5/3 208/5/3 207/5/3
f 213/2/3 207/2/3 212/2/3
f 214/5/3 208/5/3 213/5/3
f 215/5/3 210/5/3 209/5/3
f 216/5/3 210/5/3 215/5/3
f 219/1/3 218/1/3 217/1/3
f 220/1/3 218/1/3 219/1/3
f 227/5/3 222/5/3 221/5/3
f 228/2/3 223/2/3 222/2/3
f 228/5/3 222/5/3 227/5/3
f 229/5/3 224/5/3 223/5/3
f 229/2/3 223/2/3 228/2/3
f 230/5/3 224/5/3 229/5/3
f 231/5/3 226/5/3 225/5/3
f 232/5/3 226/5/3 231/5/3
f 235/1/3 234/1/3 233/1/3
f 236/1/3 234/1/3 235/1/3
f 239/1/3 238/1/3 237/1/3
f 240/1/3 238/1/3 239/1/3
f 243/2/3 242/2/3 241/2/3
f 244/2/3 242/2/3 243/2/3
f 245/5/4 246/5/4 247/5/4
f 247/5/4 246/5/4 248/5/4
f 249/5/4 250/5/4 251/5/4
f 251/5/4 250/5/4 252/5/4
f 253/5/4 254/5/4 258/5/4
f 254/2/4 255/2/4 259/2/4
f 258/5/4 254/5/4 259/5/4
f 259/2/4 255/2/4 260/2/4
f 256/5/4 257/5/4 261/5/4
f 261/5/4 257/5/4 262/5/4
f 260/5/4 261/5/4 264/5/4
f 264/5/4 261/5/4 265/5/4
f 266/1/4 267/1/4 268/1/4
f 268/1/4 267/1/4 269/1/4
f 263/3/4 264/3/4 272/3/4
f 272/3/4 264/3/4 273/3/4
f 270/1/4 271/1/4 275/1/4
f 275/1/4 271/1/4 276/1/4
f 273/5/4 274/5/4 279/5/4
f 279/5/4 274/5/4 280/5/4
f 277/5/4 278/5/4 282/5/4
f 278/2/4 279/2/4 283/2/4
f 282/5/4 278/5/4 283/5/4
f 283/2/4 279/2/4 284/2/4
f 280/5/4 281/5/4 285/5/4
f 285/5/4 281/5/4 286/5/4
f 287/5/4 288/5/4 293/5/4
f 293/5/4 288/5/4 294/5/4
f 289/5/4 290/5/4 295/5/4
f 290/2/4 291/2/4 296/2/4
f 295/5/4 290/5/4 296/5/4
f 296/2/4 291/2/4 297/2/4
f 292/5/4 293/5/4 298/5/4
f 298/5/4 293/5/4 299/5/4
f 300/1/4 301/1/4 302/1/4
f 302/1/4 301/1/4 303/1/4
f 297/5/4 298/5/4 306/5/4
f 306/5/4 298/5/4 307/5/4
f 304/5/4 305/5/4 309/5/4
f 305/2/4 306/2/4 310/2/4
f 309/5/4 305/5/4 310/5/4
f 310/2/4 306/2/4 311/2/4
f 307/5/4 308/5/4 312/5/4
f 312/5/4 308/5/4 313/5/4
f 313/5/4 314/5/4 315/5/4
f 315/5/4 314/5/4 316/5/4
f 317/5/4 318/5/4 323/5/4
f 319/5/4 320/5/4 324/5/4
f 320/2/4 321/2/4 325/2/4
f 324/5/4 320/5/4 325/5/4
f 325/2/4 321/2/4 326/2/4
f 322/5/4 323/5/4 327/5/4
f 323/5/4 318/5/4 328/5/4
f 327/5/4 323/5/4 328/5/4
f 328/5/4 318/5/4 329/5/4
f 329/5/4 318/5/4 330/5/4
f 334/5/5 332/5/5 331/5/5
f 335/5/5 332/5/5 334/5/5
f 338/5/5 334/5/5 333/5/5
f 338/5/5 336/5/5 335/5/5
f 338/5/5 335/5/5 334/5/5
f 339/5/5 336/5/5 338/5/5
f 341/5/5 338/5/5 337/5/5
f 342/3/5 339/3/5 338/3/5
f 342/5/5 338/5/5 341/5/5
f 343/3/5 339/3/5 342/3/5
f 344/3/5 339/3/5 343/3/5
f 345/5/5 340/5/5 339/5/5
f 345/3/5 339/3/5 344/3/5
f 346/5/5 340/5/5 345/5/5
f 347/5/5 343/5/5 342/5/5
f 348/3/5 344/3/5 343/3/5
f 348/5/5 343/5/5 347/5/5
f 349/5/5 345/5/5 344/5/5
f 349/3/5 344/3/5 348/3/5
f 350/5/5 345/5/5 349/5/5
f 351/5/5 349/5/5 348/5/5
f 352/5/5 349/5/5 351/5/5
f 355/5/5 354/5/5 353/5/5
f 356/5/5 354/5/5 355/5/5
f 362/5/5 358/5/5 357/5/5
f 363/5/5 358/5/5 362/5/5
f 364/5/5 360/5/5 359/5/5
f 365/5/5 360/5/5 364/5/5
f 367/5/5 362/5/5 361/5/5
f 368/5/5 362/5/5 367/5/5
f 369/5/5 366/5/5 365/5/5
f 370/5/5 366/5/5 369/5/5
f 375/5/5 372/5/5 371/5/5
f 376/5/5 372/5/5 375/5/5
f 379/5/5 374/5/5 373/5/5
f 380/5/5 374/5/5 379/5/5
f 381/5/5 377/5/5 376/5/5
f 382/5/5 377/5/5 381/5/5
f 383/5/5 379/5/5 378/5/5
f 384/5/5 379/5/5 383/5/5
f 385/5/5 383/5/5 382/5/5
f 386/5/5 383/5/5 385/5/5
f 391/5/5 388/5/5 387/5/5
f 392/5/5 388/5/5 391/5/5
f 395/5/5 390/5/5 389/5/5
f 396/5/5 390/5/5 395/5/5
f 397/5/5 393/5/5 392/5/5
f 398/5/5 393/5/5 397/5/5
f 399/5/5 395/5/5 394/5/5
f 400/5/5 395/5/5 399/5/5
f 401/3/6 402/3/6 403/3/6
f 403/3/6 402/3/6 404/3/6
f 405/2/6 406/2/6 409/2/6
f 409/2/6 406/2/6 410/2/6
f 407/2/6 408/2/6 413/2/6
f 413/2/6 408/2/6 414/2/6
f 410/2/6 411/2/6 415/2/6
f 415/2/6 411/2/6 416/2/6
f 412/2/6 413/2/6 417/2/6
f 417/2/6 413/2/6 418/2/6
f 416/2/6 417/2/6 419/2/6
f 419/2/6 417/2/6 420/2/6
f 421/5/6 422/5/6 424/5/6
f 424/5/6 422/5/6 425/5/6
f 423/5/6 424/5/6 427/5/6
f 427/5/6 424/5/6 428/5/6
f 425/5/6 426/5/6 429/5/6
f 429/5/6 426/5/6 430/5/6
f 431/5/6 432/5/6 434/5/6
f 434/5/6 432/5/6 435/5/6
f 435/5/6 432/5/6 436/5/6
f 436/5/6 432/5/6 437/5/6
f 433/5/6 434/5/6 439/5/6
f 434/5/6 435/5/6 439/5/6
f 439/5/6 435/5/6 440/5/6
f 437/5/6 438/5/6 441/5/6
f 436/5/6 437/5/6 441/5/6
f 441/5/6 438/5/6 442/5/6
f 433/5/6 439/5/6 443/5/6
f 442/5/6 438/5/6 446/5/6
f 443/5/6 444/5/6 447/5/6
f 433/5/6 443/5/6 447/5/6
f 447/5/6 444/5/6 448/5/6
f 448/5/6 444/5/6 449/5/6
f 445/5/6 446/5/6 450/5/6
f 446/5/6 438/5/6 451/5/6
f 450/5/6 446/5/6 451/5/6
f 451/5/6 438/5/6 452/5/6
f 448/5/6 449/5/6 453/5/6
f 449/5/6 450/5/6 453/5/6
f 450/5/6 451/5/6 453/5/6
f 453/5/6 451/5/6 454/5/6
f 455/1/6 456/1/6 458/1/6
f 458/1/6 456/1/6 459/1/6
f 457/1/6 458/1/6 461/1/6
f 458/3/6 459/3/6 462/3/6
f 461/1/6 458/1/6 462/1/6
f 459/1/6 460/1/6 463/1/6
f 462/3/6 459/3/6 463/3/6
f 463/1/6 460/1/6 464/1/6
f 462/1/6 463/1/6 465/1/6
f 465/1/6 463/1/6 466/1/6
