# MagicaVoxel @ Ephtracy

# group
o arrow

# material
mtllib char-0-arrow.mtl
usemtl palette

# normals
vn -1 0 0
vn 1 0 0
vn 0 0 1
vn 0 0 -1
vn 0 -1 0
vn 0 1 0

# texcoords
vt 0.482422 0.5
vt 0.794922 0.5
vt 0.958984 0.5
vt 0.966797 0.5

# verts
v 0.4 0.8 0.6
v 0.4 0.8 0.5
v 0.4 1.1 0.6
v 0.4 1.1 0.5
v 0.4 2.4 0.6
v 0.4 2.4 0.5
v 0.4 2.5 0.6
v 0.4 2.5 0.5
v 0.5 0.8 0.7
v 0.5 0.8 0.6
v 0.5 0.8 0.5
v 0.5 0.8 0.4
v 0.5 1.1 0.7
v 0.5 1.1 0.6
v 0.5 1.1 0.5
v 0.5 1.1 0.4
v 0.5 2.3 0.6
v 0.5 2.3 0.5
v 0.5 2.4 0.7
v 0.5 2.4 0.6
v 0.5 2.4 0.5
v 0.5 2.4 0.4
v 0.5 2.5 0.7
v 0.5 2.5 0.6
v 0.5 2.5 0.5
v 0.5 2.5 0.4
v 0.5 2.7 0.6
v 0.5 2.7 0.5
v 0.6 0.8 0.7
v 0.6 0.8 0.6
v 0.6 0.8 0.5
v 0.6 0.8 0.4
v 0.6 1.1 0.7
v 0.6 1.1 0.6
v 0.6 1.1 0.5
v 0.6 1.1 0.4
v 0.6 2.3 0.6
v 0.6 2.3 0.5
v 0.6 2.4 0.7
v 0.6 2.4 0.6
v 0.6 2.4 0.5
v 0.6 2.4 0.4
v 0.6 2.5 0.7
v 0.6 2.5 0.6
v 0.6 2.5 0.5
v 0.6 2.5 0.4
v 0.6 2.7 0.6
v 0.6 2.7 0.5
v 0.7 0.8 0.6
v 0.7 0.8 0.5
v 0.7 1.1 0.6
v 0.7 1.1 0.5
v 0.7 2.4 0.6
v 0.7 2.4 0.5
v 0.7 2.5 0.6
v 0.7 2.5 0.5
v 0.5 0.8 0.7
v 0.5 1.1 0.7
v 0.5 2.4 0.7
v 0.5 2.5 0.7
v 0.6 0.8 0.7
v 0.6 1.1 0.7
v 0.6 2.4 0.7
v 0.6 2.5 0.7
v 0.4 0.8 0.6
v 0.4 1.1 0.6
v 0.4 2.4 0.6
v 0.4 2.5 0.6
v 0.5 0.8 0.6
v 0.5 1.1 0.6
v 0.5 2.3 0.6
v 0.5 2.4 0.6
v 0.5 2.5 0.6
v 0.5 2.7 0.6
v 0.6 0.8 0.6
v 0.6 1.1 0.6
v 0.6 2.3 0.6
v 0.6 2.4 0.6
v 0.6 2.5 0.6
v 0.6 2.7 0.6
v 0.7 0.8 0.6
v 0.7 1.1 0.6
v 0.7 2.4 0.6
v 0.7 2.5 0.6
v 0.4 0.8 0.5
v 0.4 1.1 0.5
v 0.4 2.4 0.5
v 0.4 2.5 0.5
v 0.5 0.8 0.5
v 0.5 1.1 0.5
v 0.5 2.3 0.5
v 0.5 2.4 0.5
v 0.5 2.5 0.5
v 0.5 2.7 0.5
v 0.6 0.8 0.5
v 0.6 1.1 0.5
v 0.6 2.3 0.5
v 0.6 2.4 0.5
v 0.6 2.5 0.5
v 0.6 2.7 0.5
v 0.7 0.8 0.5
v 0.7 1.1 0.5
v 0.7 2.4 0.5
v 0.7 2.5 0.5
v 0.5 0.8 0.4
v 0.5 1.1 0.4
v 0.5 2.4 0.4
v 0.5 2.5 0.4
v 0.6 0.8 0.4
v 0.6 1.1 0.4
v 0.6 2.4 0.4
v 0.6 2.5 0.4
v 0.5 0.8 0.7
v 0.6 0.8 0.7
v 0.4 0.8 0.6
v 0.5 0.8 0.6
v 0.6 0.8 0.6
v 0.7 0.8 0.6
v 0.4 0.8 0.5
v 0.5 0.8 0.5
v 0.6 0.8 0.5
v 0.7 0.8 0.5
v 0.5 0.8 0.4
v 0.6 0.8 0.4
v 0.5 2.4 0.7
v 0.6 2.4 0.7
v 0.4 2.4 0.6
v 0.5 2.4 0.6
v 0.6 2.4 0.6
v 0.7 2.4 0.6
v 0.4 2.4 0.5
v 0.5 2.4 0.5
v 0.6 2.4 0.5
v 0.7 2.4 0.5
v 0.5 2.4 0.4
v 0.6 2.4 0.4
v 0.5 1.1 0.7
v 0.6 1.1 0.7
v 0.4 1.1 0.6
v 0.5 1.1 0.6
v 0.6 1.1 0.6
v 0.7 1.1 0.6
v 0.4 1.1 0.5
v 0.5 1.1 0.5
v 0.6 1.1 0.5
v 0.7 1.1 0.5
v 0.5 1.1 0.4
v 0.6 1.1 0.4
v 0.5 2.5 0.7
v 0.6 2.5 0.7
v 0.4 2.5 0.6
v 0.5 2.5 0.6
v 0.6 2.5 0.6
v 0.7 2.5 0.6
v 0.4 2.5 0.5
v 0.5 2.5 0.5
v 0.6 2.5 0.5
v 0.7 2.5 0.5
v 0.5 2.5 0.4
v 0.6 2.5 0.4
v 0.5 2.7 0.6
v 0.6 2.7 0.6
v 0.5 2.7 0.5
v 0.6 2.7 0.5

# faces
f 3/1/1 2/1/1 1/1/1
f 4/1/1 2/1/1 3/1/1
f 7/4/1 6/4/1 5/4/1
f 8/4/1 6/4/1 7/4/1
f 13/1/1 10/1/1 9/1/1
f 14/1/1 10/1/1 13/1/1
f 15/1/1 12/1/1 11/1/1
f 16/1/1 12/1/1 15/1/1
f 17/2/1 15/2/1 14/2/1
f 18/2/1 15/2/1 17/2/1
f 20/3/1 18/3/1 17/3/1
f 21/3/1 18/3/1 20/3/1
f 23/4/1 20/4/1 19/4/1
f 24/4/1 20/4/1 23/4/1
f 25/4/1 22/4/1 21/4/1
f 26/4/1 22/4/1 25/4/1
f 27/4/1 25/4/1 24/4/1
f 28/4/1 25/4/1 27/4/1
f 29/1/2 30/1/2 33/1/2
f 33/1/2 30/1/2 34/1/2
f 31/1/2 32/1/2 35/1/2
f 35/1/2 32/1/2 36/1/2
f 34/2/2 35/2/2 37/2/2
f 37/2/2 35/2/2 38/2/2
f 37/3/2 38/3/2 40/3/2
f 40/3/2 38/3/2 41/3/2
f 39/4/2 40/4/2 43/4/2
f 43/4/2 40/4/2 44/4/2
f 41/4/2 42/4/2 45/4/2
f 45/4/2 42/4/2 46/4/2
f 44/4/2 45/4/2 47/4/2
f 47/4/2 45/4/2 48/4/2
f 49/1/2 50/1/2 51/1/2
f 51/1/2 50/1/2 52/1/2
f 53/4/2 54/4/2 55/4/2
f 55/4/2 54/4/2 56/4/2
f 61/1/3 58/1/3 57/1/3
f 62/1/3 58/1/3 61/1/3
f 63/4/3 60/4/3 59/4/3
f 64/4/3 60/4/3 63/4/3
f 69/1/3 66/1/3 65/1/3
f 70/1/3 66/1/3 69/1/3
f 72/4/3 68/4/3 67/4/3
f 73/4/3 68/4/3 72/4/3
f 76/2/3 71/2/3 70/2/3
f 77/3/3 72/3/3 71/3/3
f 77/2/3 71/2/3 76/2/3
f 78/3/3 72/3/3 77/3/3
f 79/4/3 74/4/3 73/4/3
f 80/4/3 74/4/3 79/4/3
f 81/1/3 76/1/3 75/1/3
f 82/1/3 76/1/3 81/1/3
f 83/4/3 79/4/3 78/4/3
f 84/4/3 79/4/3 83/4/3
f 85/1/4 86/1/4 89/1/4
f 89/1/4 86/1/4 90/1/4
f 87/4/4 88/4/4 92/4/4
f 92/4/4 88/4/4 93/4/4
f 90/2/4 91/2/4 96/2/4
f 91/3/4 92/3/4 97/3/4
f 96/2/4 91/2/4 97/2/4
f 97/3/4 92/3/4 98/3/4
f 93/4/4 94/4/4 99/4/4
f 99/4/4 94/4/4 100/4/4
f 95/1/4 96/1/4 101/1/4
f 101/1/4 96/1/4 102/1/4
f 98/4/4 99/4/4 103/4/4
f 103/4/4 99/4/4 104/4/4
f 105/1/4 106/1/4 109/1/4
f 109/1/4 106/1/4 110/1/4
f 107/4/4 108/4/4 111/4/4
f 111/4/4 108/4/4 112/4/4
f 116/1/5 114/1/5 113/1/5
f 117/1/5 114/1/5 116/1/5
f 119/1/5 116/1/5 115/1/5
f 120/2/5 117/2/5 116/2/5
f 120/1/5 116/1/5 119/1/5
f 121/1/5 118/1/5 117/1/5
f 121/2/5 117/2/5 120/2/5
f 122/1/5 118/1/5 121/1/5
f 123/1/5 121/1/5 120/1/5
f 124/1/5 121/1/5 123/1/5
f 128/4/5 126/4/5 125/4/5
f 129/4/5 126/4/5 128/4/5
f 131/4/5 128/4/5 127/4/5
f 132/4/5 128/4/5 131/4/5
f 133/4/5 130/4/5 129/4/5
f 134/4/5 130/4/5 133/4/5
f 135/4/5 133/4/5 132/4/5
f 136/4/5 133/4/5 135/4/5
f 137/1/6 138/1/6 140/1/6
f 140/1/6 138/1/6 141/1/6
f 139/1/6 140/1/6 143/1/6
f 143/1/6 140/1/6 144/1/6
f 141/1/6 142/1/6 145/1/6
f 145/1/6 142/1/6 146/1/6
f 144/1/6 145/1/6 147/1/6
f 147/1/6 145/1/6 148/1/6
f 149/4/6 150/4/6 152/4/6
f 152/4/6 150/4/6 153/4/6
f 151/4/6 152/4/6 155/4/6
f 155/4/6 152/4/6 156/4/6
f 153/4/6 154/4/6 157/4/6
f 157/4/6 154/4/6 158/4/6
f 156/4/6 157/4/6 159/4/6
f 159/4/6 157/4/6 160/4/6
f 161/4/6 162/4/6 163/4/6
f 163/4/6 162/4/6 164/4/6
