# MagicaVoxel @ Ephtracy

# group
o helm_hvy_3a_sh

# material
mtllib char-3-helm_hvy_3a_sh.mtl
usemtl palette

# normals
vn -1 0 0
vn 1 0 0
vn 0 0 1
vn 0 0 -1
vn 0 -1 0
vn 0 1 0

# texcoords
vt 0.916016 0.5
vt 0.958984 0.5
vt 0.962891 0.5

# verts
v -0.3 2.5 0.2
v -0.3 2.5 -0.2
v -0.3 2.8 0.3
v -0.3 2.8 0.2
v -0.3 3 0.3
v -0.3 3 -0.2
v -0.3 3.2 0.3
v -0.3 3.2 -0.2
v -0.2 2.5 0.3
v -0.2 2.5 0.2
v -0.2 2.5 -0.2
v -0.2 2.5 -0.3
v -0.2 2.8 0.3
v -0.2 2.8 0.2
v -0.2 3 0.4
v -0.2 3 0.3
v -0.2 3 -0.2
v -0.2 3 -0.3
v -0.2 3.2 0.4
v -0.2 3.2 0.3
v -0.2 3.2 -0.2
v -0.2 3.2 -0.3
v -0.2 3.3 0.3
v -0.2 3.3 -0.2
v -0.1 2.8 0.4
v -0.1 2.8 0.3
v -0.1 3 0.4
v -0.1 3 0.3
v -0.1 3.3 0.2
v -0.1 3.3 -0.1
v -0.1 3.4 0.2
v -0.1 3.4 -0.1
v 0.2 2.5 0.2
v 0.2 2.5 -0.2
v 0.2 2.8 0.3
v 0.2 2.8 0.2
v 0.2 3 0.3
v 0.2 3 -0.2
v 0.2 3.1 0.3
v 0.2 3.1 0.2
v 0.2 3.2 0.2
v 0.2 3.2 -0.2
v -0.2 2.5 0.2
v -0.2 2.5 -0.2
v -0.2 2.8 0.3
v -0.2 2.8 0.2
v -0.2 3 0.3
v -0.2 3 -0.2
v -0.2 3.1 0.3
v -0.2 3.1 0.2
v -0.2 3.2 0.2
v -0.2 3.2 -0.2
v 0.1 2.8 0.4
v 0.1 2.8 0.3
v 0.1 3 0.4
v 0.1 3 0.3
v 0.1 3.3 0.2
v 0.1 3.3 -0.1
v 0.1 3.4 0.2
v 0.1 3.4 -0.1
v 0.2 2.5 0.3
v 0.2 2.5 0.2
v 0.2 2.5 -0.2
v 0.2 2.5 -0.3
v 0.2 2.8 0.3
v 0.2 2.8 0.2
v 0.2 3 0.4
v 0.2 3 0.3
v 0.2 3 -0.2
v 0.2 3 -0.3
v 0.2 3.2 0.4
v 0.2 3.2 0.3
v 0.2 3.2 -0.2
v 0.2 3.2 -0.3
v 0.2 3.3 0.3
v 0.2 3.3 -0.2
v 0.3 2.5 0.2
v 0.3 2.5 -0.2
v 0.3 2.8 0.3
v 0.3 2.8 0.2
v 0.3 3 0.3
v 0.3 3 -0.2
v 0.3 3.2 0.3
v 0.3 3.2 -0.2
v -0.2 3 0.4
v -0.2 3.2 0.4
v -0.1 2.8 0.4
v -0.1 3 0.4
v 0.1 2.8 0.4
v 0.1 3 0.4
v 0.2 3 0.4
v 0.2 3.2 0.4
v -0.3 2.8 0.3
v -0.3 3 0.3
v -0.3 3.2 0.3
v -0.2 2.5 0.3
v -0.2 2.8 0.3
v -0.2 3 0.3
v -0.2 3.2 0.3
v -0.2 3.3 0.3
v -0.1 2.8 0.3
v 0.1 2.8 0.3
v 0.2 2.5 0.3
v 0.2 2.8 0.3
v 0.2 3 0.3
v 0.2 3.2 0.3
v 0.2 3.3 0.3
v 0.3 2.8 0.3
v 0.3 3 0.3
v 0.3 3.2 0.3
v -0.3 2.5 0.2
v -0.3 2.8 0.2
v -0.2 2.5 0.2
v -0.2 2.8 0.2
v -0.1 3.3 0.2
v -0.1 3.4 0.2
v 0.1 3.3 0.2
v 0.1 3.4 0.2
v 0.2 2.5 0.2
v 0.2 2.8 0.2
v 0.3 2.5 0.2
v 0.3 2.8 0.2
v -0.2 2.5 -0.2
v -0.2 3 -0.2
v -0.2 3.2 -0.2
v 0.2 2.5 -0.2
v 0.2 3 -0.2
v 0.2 3.2 -0.2
v -0.2 3 0.3
v -0.2 3.1 0.3
v -0.1 2.8 0.3
v -0.1 3 0.3
v -0.1 3.1 0.3
v 0.1 2.8 0.3
v 0.1 3 0.3
v 0.1 3.1 0.3
v 0.2 3 0.3
v 0.2 3.1 0.3
v -0.2 2.5 0.2
v -0.2 2.8 0.2
v -0.2 3.1 0.2
v -0.2 3.2 0.2
v -0.1 3.1 0.2
v -0.1 3.2 0.2
v 0.1 3.1 0.2
v 0.1 3.2 0.2
v 0.2 2.5 0.2
v 0.2 2.8 0.2
v 0.2 3.1 0.2
v 0.2 3.2 0.2
v -0.1 3.3 -0.1
v -0.1 3.4 -0.1
v 0.1 3.3 -0.1
v 0.1 3.4 -0.1
v -0.3 2.5 -0.2
v -0.3 3 -0.2
v -0.3 3.2 -0.2
v -0.2 2.5 -0.2
v -0.2 3 -0.2
v -0.2 3.2 -0.2
v -0.2 3.3 -0.2
v 0.2 2.5 -0.2
v 0.2 3 -0.2
v 0.2 3.2 -0.2
v 0.2 3.3 -0.2
v 0.3 2.5 -0.2
v 0.3 3 -0.2
v 0.3 3.2 -0.2
v -0.2 2.5 -0.3
v -0.2 3 -0.3
v -0.2 3.2 -0.3
v 0.2 2.5 -0.3
v 0.2 3 -0.3
v 0.2 3.2 -0.3
v -0.2 2.5 0.3
v 0.2 2.5 0.3
v -0.3 2.5 0.2
v -0.2 2.5 0.2
v 0.2 2.5 0.2
v 0.3 2.5 0.2
v -0.3 2.5 -0.2
v -0.2 2.5 -0.2
v 0.2 2.5 -0.2
v 0.3 2.5 -0.2
v -0.2 2.5 -0.3
v 0.2 2.5 -0.3
v -0.1 2.8 0.4
v 0.1 2.8 0.4
v -0.3 2.8 0.3
v -0.2 2.8 0.3
v -0.1 2.8 0.3
v 0.1 2.8 0.3
v 0.2 2.8 0.3
v 0.3 2.8 0.3
v -0.3 2.8 0.2
v -0.2 2.8 0.2
v 0.2 2.8 0.2
v 0.3 2.8 0.2
v -0.2 3 0.4
v -0.1 3 0.4
v 0.1 3 0.4
v 0.2 3 0.4
v -0.2 3 0.3
v -0.1 3 0.3
v 0.1 3 0.3
v 0.2 3 0.3
v -0.2 3.1 0.3
v -0.1 3.1 0.3
v 0.1 3.1 0.3
v 0.2 3.1 0.3
v -0.2 3.1 0.2
v -0.1 3.1 0.2
v 0.1 3.1 0.2
v 0.2 3.1 0.2
v -0.2 3.2 0.2
v -0.1 3.2 0.2
v 0.1 3.2 0.2
v 0.2 3.2 0.2
v -0.1 3.2 -0.1
v 0.1 3.2 -0.1
v -0.2 3.2 -0.2
v 0.2 3.2 -0.2
v -0.2 2.8 0.3
v -0.1 2.8 0.3
v 0.1 2.8 0.3
v 0.2 2.8 0.3
v -0.2 2.8 0.2
v 0.2 2.8 0.2
v -0.2 3.2 0.4
v 0.2 3.2 0.4
v -0.3 3.2 0.3
v -0.2 3.2 0.3
v 0.2 3.2 0.3
v 0.3 3.2 0.3
v -0.3 3.2 -0.2
v -0.2 3.2 -0.2
v 0.2 3.2 -0.2
v 0.3 3.2 -0.2
v -0.2 3.2 -0.3
v 0.2 3.2 -0.3
v -0.2 3.3 0.3
v 0.2 3.3 0.3
v -0.1 3.3 0.2
v 0.1 3.3 0.2
v -0.1 3.3 -0.1
v 0.1 3.3 -0.1
v -0.2 3.3 -0.2
v 0.2 3.3 -0.2
v -0.1 3.4 0.2
v 0.1 3.4 0.2
v -0.1 3.4 -0.1
v 0.1 3.4 -0.1

# faces
f 4/2/1 2/2/1 1/2/1
f 5/2/1 4/2/1 3/2/1
f 6/2/1 2/2/1 4/2/1
f 6/2/1 4/2/1 5/2/1
f 7/1/1 6/1/1 5/1/1
f 8/1/1 6/1/1 7/1/1
f 13/2/1 10/2/1 9/2/1
f 14/2/1 10/2/1 13/2/1
f 17/2/1 12/2/1 11/2/1
f 18/2/1 12/2/1 17/2/1
f 19/1/1 16/1/1 15/1/1
f 20/1/1 16/1/1 19/1/1
f 21/1/1 18/1/1 17/1/1
f 22/1/1 18/1/1 21/1/1
f 23/3/1 21/3/1 20/3/1
f 24/3/1 21/3/1 23/3/1
f 27/1/1 26/1/1 25/1/1
f 28/1/1 26/1/1 27/1/1
f 31/3/1 30/3/1 29/3/1
f 32/3/1 30/3/1 31/3/1
f 36/2/1 34/2/1 33/2/1
f 37/2/1 36/2/1 35/2/1
f 38/2/1 34/2/1 36/2/1
f 38/2/1 36/2/1 37/2/1
f 39/1/1 38/1/1 37/1/1
f 40/1/1 38/1/1 39/1/1
f 41/1/1 38/1/1 40/1/1
f 42/1/1 38/1/1 41/1/1
f 43/2/2 44/2/2 46/2/2
f 45/2/2 46/2/2 47/2/2
f 46/2/2 44/2/2 48/2/2
f 47/2/2 46/2/2 48/2/2
f 47/1/2 48/1/2 49/1/2
f 49/1/2 48/1/2 50/1/2
f 50/1/2 48/1/2 51/1/2
f 51/1/2 48/1/2 52/1/2
f 53/1/2 54/1/2 55/1/2
f 55/1/2 54/1/2 56/1/2
f 57/3/2 58/3/2 59/3/2
f 59/3/2 58/3/2 60/3/2
f 61/2/2 62/2/2 65/2/2
f 65/2/2 62/2/2 66/2/2
f 63/2/2 64/2/2 69/2/2
f 69/2/2 64/2/2 70/2/2
f 67/1/2 68/1/2 71/1/2
f 71/1/2 68/1/2 72/1/2
f 69/1/2 70/1/2 73/1/2
f 73/1/2 70/1/2 74/1/2
f 72/3/2 73/3/2 75/3/2
f 75/3/2 73/3/2 76/3/2
f 77/2/2 78/2/2 80/2/2
f 79/2/2 80/2/2 81/2/2
f 80/2/2 78/2/2 82/2/2
f 81/2/2 80/2/2 82/2/2
f 81/1/2 82/1/2 83/1/2
f 83/1/2 82/1/2 84/1/2
f 88/1/3 86/1/3 85/1/3
f 89/1/3 88/1/3 87/1/3
f 90/1/3 86/1/3 88/1/3
f 90/1/3 88/1/3 89/1/3
f 91/1/3 86/1/3 90/1/3
f 92/1/3 86/1/3 91/1/3
f 97/2/3 94/2/3 93/2/3
f 98/1/3 95/1/3 94/1/3
f 98/2/3 94/2/3 97/2/3
f 99/1/3 95/1/3 98/1/3
f 101/2/3 97/2/3 96/2/3
f 102/2/3 101/2/3 96/2/3
f 103/2/3 102/2/3 96/2/3
f 104/2/3 102/2/3 103/2/3
f 106/3/3 100/3/3 99/3/3
f 107/3/3 100/3/3 106/3/3
f 108/2/3 105/2/3 104/2/3
f 109/1/3 106/1/3 105/1/3
f 109/2/3 105/2/3 108/2/3
f 110/1/3 106/1/3 109/1/3
f 113/2/3 112/2/3 111/2/3
f 114/2/3 112/2/3 113/2/3
f 117/3/3 116/3/3 115/3/3
f 118/3/3 116/3/3 117/3/3
f 121/2/3 120/2/3 119/2/3
f 122/2/3 120/2/3 121/2/3
f 126/2/3 124/2/3 123/2/3
f 127/1/3 125/1/3 124/1/3
f 127/2/3 124/2/3 126/2/3
f 128/1/3 125/1/3 127/1/3
f 129/1/4 130/1/4 132/1/4
f 132/1/4 130/1/4 133/1/4
f 131/1/4 132/1/4 134/1/4
f 132/1/4 133/1/4 134/1/4
f 134/1/4 133/1/4 135/1/4
f 135/1/4 133/1/4 136/1/4
f 135/1/4 136/1/4 137/1/4
f 137/1/4 136/1/4 138/1/4
f 141/1/4 142/1/4 143/1/4
f 143/1/4 142/1/4 144/1/4
f 143/2/4 144/2/4 145/2/4
f 145/2/4 144/2/4 146/2/4
f 139/2/4 140/2/4 147/2/4
f 147/2/4 140/2/4 148/2/4
f 145/1/4 146/1/4 149/1/4
f 149/1/4 146/1/4 150/1/4
f 151/3/4 152/3/4 153/3/4
f 153/3/4 152/3/4 154/3/4
f 155/2/4 156/2/4 158/2/4
f 156/1/4 157/1/4 159/1/4
f 158/2/4 156/2/4 159/2/4
f 159/1/4 157/1/4 160/1/4
f 160/3/4 161/3/4 164/3/4
f 164/3/4 161/3/4 165/3/4
f 162/2/4 163/2/4 166/2/4
f 163/1/4 164/1/4 167/1/4
f 166/2/4 163/2/4 167/2/4
f 167/1/4 164/1/4 168/1/4
f 169/2/4 170/2/4 172/2/4
f 170/1/4 171/1/4 173/1/4
f 172/2/4 170/2/4 173/2/4
f 173/1/4 171/1/4 174/1/4
f 178/2/5 176/2/5 175/2/5
f 179/2/5 176/2/5 178/2/5
f 181/2/5 178/2/5 177/2/5
f 182/2/5 178/2/5 181/2/5
f 183/2/5 180/2/5 179/2/5
f 184/2/5 180/2/5 183/2/5
f 185/2/5 183/2/5 182/2/5
f 186/2/5 183/2/5 185/2/5
f 191/1/5 188/1/5 187/1/5
f 192/1/5 188/1/5 191/1/5
f 195/2/5 190/2/5 189/2/5
f 196/2/5 190/2/5 195/2/5
f 197/2/5 194/2/5 193/2/5
f 198/2/5 194/2/5 197/2/5
f 203/1/5 200/1/5 199/1/5
f 204/1/5 200/1/5 203/1/5
f 205/1/5 202/1/5 201/1/5
f 206/1/5 202/1/5 205/1/5
f 211/1/5 208/1/5 207/1/5
f 212/2/5 209/2/5 208/2/5
f 212/1/5 208/1/5 211/1/5
f 213/1/5 210/1/5 209/1/5
f 213/2/5 209/2/5 212/2/5
f 214/1/5 210/1/5 213/1/5
f 219/3/5 216/3/5 215/3/5
f 219/1/5 217/1/5 216/1/5
f 220/3/5 218/3/5 217/3/5
f 220/1/5 217/1/5 219/1/5
f 221/3/5 219/3/5 215/3/5
f 221/3/5 220/3/5 219/3/5
f 222/3/5 218/3/5 220/3/5
f 222/3/5 220/3/5 221/3/5
f 223/2/6 224/2/6 227/2/6
f 225/2/6 226/2/6 227/2/6
f 224/2/6 225/2/6 227/2/6
f 227/2/6 226/2/6 228/2/6
f 229/1/6 230/1/6 232/1/6
f 232/1/6 230/1/6 233/1/6
f 231/1/6 232/1/6 235/1/6
f 235/1/6 232/1/6 236/1/6
f 233/1/6 234/1/6 237/1/6
f 237/1/6 234/1/6 238/1/6
f 236/1/6 237/1/6 239/1/6
f 239/1/6 237/1/6 240/1/6
f 241/3/6 242/3/6 243/3/6
f 243/3/6 242/3/6 244/3/6
f 241/3/6 243/3/6 245/3/6
f 244/3/6 242/3/6 246/3/6
f 241/3/6 245/3/6 247/3/6
f 245/3/6 246/3/6 247/3/6
f 246/3/6 242/3/6 248/3/6
f 247/3/6 246/3/6 248/3/6
f 249/3/6 250/3/6 251/3/6
f 251/3/6 250/3/6 252/3/6
