# MagicaVoxel @ Ephtracy

# group
o helm_med_3a_ja

# material
mtllib char-58-helm_med_3a_ja.mtl
usemtl palette

# normals
vn -1 0 0
vn 1 0 0
vn 0 0 1
vn 0 0 -1
vn 0 -1 0
vn 0 1 0

# texcoords
vt 0.494141 0.5
vt 0.916016 0.5
vt 0.958984 0.5
vt 0.962891 0.5

# verts
v -0.3 2.6 0.3
v -0.3 2.6 -0.2
v -0.3 2.9 0.4
v -0.3 2.9 0.3
v -0.3 3 0.3
v -0.3 3 -0.2
v -0.3 3.1 0.4
v -0.3 3.1 0.3
v -0.3 3.2 0.3
v -0.3 3.2 -0.2
v -0.2 2.6 -0.2
v -0.2 2.6 -0.3
v -0.2 2.8 0.4
v -0.2 2.8 0.3
v -0.2 2.9 0.4
v -0.2 2.9 0.3
v -0.2 3 -0.2
v -0.2 3 -0.3
v -0.2 3.1 0.4
v -0.2 3.1 0.3
v -0.2 3.2 0.4
v -0.2 3.2 0.3
v -0.2 3.2 -0.2
v -0.2 3.2 -0.3
v -0.2 3.3 0.3
v -0.2 3.3 -0.2
v -0.1 2.6 -0.3
v -0.1 2.6 -0.4
v -0.1 2.9 0.4
v -0.1 2.9 0.3
v -0.1 3 0.4
v -0.1 3 0.3
v -0.1 3 -0.3
v -0.1 3.2 0.4
v -0.1 3.2 0.3
v -0.1 3.2 -0.2
v -0.1 3.2 -0.3
v -0.1 3.3 0.4
v -0.1 3.3 0.3
v -0.1 3.3 -0.2
v -0.1 3.3 -0.3
v -0.1 3.3 -0.4
v -0.1 3.4 0.3
v -0.1 3.4 0.1
v -0.1 3.4 0
v -0.1 3.4 -0.2
v -0.1 3.5 0.2
v -0.1 3.5 0.1
v -0.1 3.5 0
v -0.1 3.5 -0.2
v -0.1 3.5 -0.3
v -0.1 3.6 -0.1
v -0.1 3.6 -0.2
v -0.1 3.7 0.2
v -0.1 3.7 -0.1
v 0.2 2.6 0.3
v 0.2 2.6 -0.2
v 0.2 2.8 0.3
v 0.2 2.9 0.4
v 0.2 2.9 0.3
v 0.2 3 0.4
v 0.2 3 0.3
v 0.2 3 -0.2
v 0.2 3.1 0.3
v 0.2 3.1 0.2
v 0.2 3.2 0.2
v 0.2 3.2 -0.2
v -0.2 2.6 0.3
v -0.2 2.6 -0.2
v -0.2 2.8 0.3
v -0.2 2.9 0.4
v -0.2 2.9 0.3
v -0.2 3 0.4
v -0.2 3 0.3
v -0.2 3 -0.2
v -0.2 3.1 0.3
v -0.2 3.1 0.2
v -0.2 3.2 0.2
v -0.2 3.2 -0.2
v 0.1 2.6 -0.3
v 0.1 2.6 -0.4
v 0.1 2.9 0.4
v 0.1 2.9 0.3
v 0.1 3 0.4
v 0.1 3 0.3
v 0.1 3 -0.3
v 0.1 3.2 0.4
v 0.1 3.2 0.3
v 0.1 3.2 -0.2
v 0.1 3.2 -0.3
v 0.1 3.3 0.4
v 0.1 3.3 0.3
v 0.1 3.3 -0.2
v 0.1 3.3 -0.3
v 0.1 3.3 -0.4
v 0.1 3.4 0.3
v 0.1 3.4 0.1
v 0.1 3.4 0
v 0.1 3.4 -0.2
v 0.1 3.5 0.2
v 0.1 3.5 0.1
v 0.1 3.5 0
v 0.1 3.5 -0.2
v 0.1 3.5 -0.3
v 0.1 3.6 -0.1
v 0.1 3.6 -0.2
v 0.1 3.7 0.2
v 0.1 3.7 -0.1
v 0.2 2.6 -0.2
v 0.2 2.6 -0.3
v 0.2 2.8 0.4
v 0.2 2.8 0.3
v 0.2 2.9 0.4
v 0.2 2.9 0.3
v 0.2 3 -0.2
v 0.2 3 -0.3
v 0.2 3.1 0.4
v 0.2 3.1 0.3
v 0.2 3.2 0.4
v 0.2 3.2 0.3
v 0.2 3.2 -0.2
v 0.2 3.2 -0.3
v 0.2 3.3 0.3
v 0.2 3.3 -0.2
v 0.3 2.6 0.3
v 0.3 2.6 -0.2
v 0.3 2.9 0.4
v 0.3 2.9 0.3
v 0.3 3 0.3
v 0.3 3 -0.2
v 0.3 3.1 0.4
v 0.3 3.1 0.3
v 0.3 3.2 0.3
v 0.3 3.2 -0.2
v -0.3 2.9 0.4
v -0.3 3.1 0.4
v -0.2 2.8 0.4
v -0.2 2.9 0.4
v -0.2 3 0.4
v -0.2 3.1 0.4
v -0.2 3.2 0.4
v -0.1 2.9 0.4
v -0.1 3 0.4
v -0.1 3.2 0.4
v -0.1 3.3 0.4
v 0.1 2.9 0.4
v 0.1 3 0.4
v 0.1 3.2 0.4
v 0.1 3.3 0.4
v 0.2 2.8 0.4
v 0.2 2.9 0.4
v 0.2 3 0.4
v 0.2 3.1 0.4
v 0.2 3.2 0.4
v 0.3 2.9 0.4
v 0.3 3.1 0.4
v -0.3 2.6 0.3
v -0.3 2.9 0.3
v -0.3 3.1 0.3
v -0.3 3.2 0.3
v -0.2 2.6 0.3
v -0.2 2.8 0.3
v -0.2 2.9 0.3
v -0.2 3.1 0.3
v -0.2 3.2 0.3
v -0.2 3.3 0.3
v -0.1 3.2 0.3
v -0.1 3.3 0.3
v -0.1 3.4 0.3
v 0.1 3.2 0.3
v 0.1 3.3 0.3
v 0.1 3.4 0.3
v 0.2 2.6 0.3
v 0.2 2.8 0.3
v 0.2 2.9 0.3
v 0.2 3.1 0.3
v 0.2 3.2 0.3
v 0.2 3.3 0.3
v 0.3 2.6 0.3
v 0.3 2.9 0.3
v 0.3 3.1 0.3
v 0.3 3.2 0.3
v -0.1 3.5 0.2
v -0.1 3.7 0.2
v 0.1 3.5 0.2
v 0.1 3.7 0.2
v -0.1 3.4 0.1
v -0.1 3.5 0.1
v 0.1 3.4 0.1
v 0.1 3.5 0.1
v -0.2 2.6 -0.2
v -0.2 3 -0.2
v -0.2 3.2 -0.2
v -0.1 3.2 -0.2
v 0.1 3.2 -0.2
v 0.2 2.6 -0.2
v 0.2 3 -0.2
v 0.2 3.2 -0.2
v -0.2 2.8 0.3
v -0.2 2.9 0.3
v -0.2 3 0.3
v -0.2 3.1 0.3
v -0.1 2.9 0.3
v -0.1 3 0.3
v -0.1 3.1 0.3
v 0.1 2.9 0.3
v 0.1 3 0.3
v 0.1 3.1 0.3
v 0.2 2.8 0.3
v 0.2 2.9 0.3
v 0.2 3 0.3
v 0.2 3.1 0.3
v -0.2 3.1 0.2
v -0.2 3.2 0.2
v -0.1 3.1 0.2
v -0.1 3.2 0.2
v 0.1 3.1 0.2
v 0.1 3.2 0.2
v 0.2 3.1 0.2
v 0.2 3.2 0.2
v -0.1 3.6 -0.1
v -0.1 3.7 -0.1
v 0.1 3.6 -0.1
v 0.1 3.7 -0.1
v -0.3 2.6 -0.2
v -0.3 3 -0.2
v -0.3 3.2 -0.2
v -0.2 2.6 -0.2
v -0.2 3 -0.2
v -0.2 3.2 -0.2
v -0.2 3.3 -0.2
v -0.1 3.2 -0.2
v -0.1 3.3 -0.2
v -0.1 3.5 -0.2
v -0.1 3.6 -0.2
v 0.1 3.2 -0.2
v 0.1 3.3 -0.2
v 0.1 3.5 -0.2
v 0.1 3.6 -0.2
v 0.2 2.6 -0.2
v 0.2 3 -0.2
v 0.2 3.2 -0.2
v 0.2 3.3 -0.2
v 0.3 2.6 -0.2
v 0.3 3 -0.2
v 0.3 3.2 -0.2
v -0.2 2.6 -0.3
v -0.2 3 -0.3
v -0.2 3.2 -0.3
v -0.1 2.6 -0.3
v -0.1 3 -0.3
v -0.1 3.2 -0.3
v -0.1 3.3 -0.3
v -0.1 3.5 -0.3
v 0.1 2.6 -0.3
v 0.1 3 -0.3
v 0.1 3.2 -0.3
v 0.1 3.3 -0.3
v 0.1 3.5 -0.3
v 0.2 2.6 -0.3
v 0.2 3 -0.3
v 0.2 3.2 -0.3
v -0.1 2.6 -0.4
v -0.1 3.3 -0.4
v 0.1 2.6 -0.4
v 0.1 3.3 -0.4
v -0.3 2.6 0.3
v -0.2 2.6 0.3
v 0.2 2.6 0.3
v 0.3 2.6 0.3
v -0.3 2.6 -0.2
v -0.2 2.6 -0.2
v 0.2 2.6 -0.2
v 0.3 2.6 -0.2
v -0.2 2.6 -0.3
v -0.1 2.6 -0.3
v 0.1 2.6 -0.3
v 0.2 2.6 -0.3
v -0.1 2.6 -0.4
v 0.1 2.6 -0.4
v -0.2 2.8 0.4
v 0.2 2.8 0.4
v -0.2 2.8 0.3
v 0.2 2.8 0.3
v -0.3 2.9 0.4
v -0.2 2.9 0.4
v 0.2 2.9 0.4
v 0.3 2.9 0.4
v -0.3 2.9 0.3
v -0.2 2.9 0.3
v 0.2 2.9 0.3
v 0.3 2.9 0.3
v -0.2 3 0.4
v -0.1 3 0.4
v 0.1 3 0.4
v 0.2 3 0.4
v -0.2 3 0.3
v -0.1 3 0.3
v 0.1 3 0.3
v 0.2 3 0.3
v -0.2 3.1 0.3
v -0.1 3.1 0.3
v 0.1 3.1 0.3
v 0.2 3.1 0.3
v -0.2 3.1 0.2
v -0.1 3.1 0.2
v 0.1 3.1 0.2
v 0.2 3.1 0.2
v -0.2 3.2 0.2
v -0.1 3.2 0.2
v 0.1 3.2 0.2
v 0.2 3.2 0.2
v -0.2 3.2 -0.2
v -0.1 3.2 -0.2
v 0.1 3.2 -0.2
v 0.2 3.2 -0.2
v -0.1 3.5 0.2
v 0.1 3.5 0.2
v -0.1 3.5 0.1
v 0.1 3.5 0.1
v -0.2 2.9 0.4
v -0.1 2.9 0.4
v 0.1 2.9 0.4
v 0.2 2.9 0.4
v -0.2 2.9 0.3
v -0.1 2.9 0.3
v 0.1 2.9 0.3
v 0.2 2.9 0.3
v -0.3 3.1 0.4
v -0.2 3.1 0.4
v 0.2 3.1 0.4
v 0.3 3.1 0.4
v -0.3 3.1 0.3
v -0.2 3.1 0.3
v 0.2 3.1 0.3
v 0.3 3.1 0.3
v -0.2 3.2 0.4
v -0.1 3.2 0.4
v 0.1 3.2 0.4
v 0.2 3.2 0.4
v -0.3 3.2 0.3
v -0.2 3.2 0.3
v -0.1 3.2 0.3
v 0.1 3.2 0.3
v 0.2 3.2 0.3
v 0.3 3.2 0.3
v -0.3 3.2 -0.2
v -0.2 3.2 -0.2
v -0.1 3.2 -0.2
v 0.1 3.2 -0.2
v 0.2 3.2 -0.2
v 0.3 3.2 -0.2
v -0.2 3.2 -0.3
v -0.1 3.2 -0.3
v 0.1 3.2 -0.3
v 0.2 3.2 -0.3
v -0.1 3.3 0.4
v 0.1 3.3 0.4
v -0.2 3.3 0.3
v -0.1 3.3 0.3
v 0.1 3.3 0.3
v 0.2 3.3 0.3
v -0.2 3.3 -0.2
v -0.1 3.3 -0.2
v 0.1 3.3 -0.2
v 0.2 3.3 -0.2
v -0.1 3.3 -0.3
v 0.1 3.3 -0.3
v -0.1 3.3 -0.4
v 0.1 3.3 -0.4
v -0.1 3.4 0.3
v 0.1 3.4 0.3
v -0.1 3.4 0.1
v 0.1 3.4 0.1
v -0.1 3.5 -0.2
v 0.1 3.5 -0.2
v -0.1 3.5 -0.3
v 0.1 3.5 -0.3
v -0.1 3.6 -0.1
v 0.1 3.6 -0.1
v -0.1 3.6 -0.2
v 0.1 3.6 -0.2
v -0.1 3.7 0.2
v 0.1 3.7 0.2
v -0.1 3.7 -0.1
v 0.1 3.7 -0.1

# faces
f 4/3/1 2/3/1 1/3/1
f 5/3/1 2/3/1 4/3/1
f 5/2/1 4/2/1 3/2/1
f 6/3/1 2/3/1 5/3/1
f 7/2/1 5/2/1 3/2/1
f 7/2/1 6/2/1 5/2/1
f 8/2/1 6/2/1 7/2/1
f 9/2/1 6/2/1 8/2/1
f 10/2/1 6/2/1 9/2/1
f 15/2/1 14/2/1 13/2/1
f 16/2/1 14/2/1 15/2/1
f 17/3/1 12/3/1 11/3/1
f 18/3/1 12/3/1 17/3/1
f 21/2/1 20/2/1 19/2/1
f 22/2/1 20/2/1 21/2/1
f 23/2/1 18/2/1 17/2/1
f 24/2/1 18/2/1 23/2/1
f 25/4/1 23/4/1 22/4/1
f 26/4/1 23/4/1 25/4/1
f 31/2/1 30/2/1 29/2/1
f 32/2/1 30/2/1 31/2/1
f 33/1/1 28/1/1 27/1/1
f 37/1/1 28/1/1 33/1/1
f 38/2/1 35/2/1 34/2/1
f 39/2/1 35/2/1 38/2/1
f 40/2/1 37/2/1 36/2/1
f 41/1/1 28/1/1 37/1/1
f 41/2/1 37/2/1 40/2/1
f 42/1/1 28/1/1 41/1/1
f 43/2/1 40/2/1 39/2/1
f 44/2/1 40/2/1 43/2/1
f 45/2/1 40/2/1 44/2/1
f 46/1/1 41/1/1 40/1/1
f 46/2/1 40/2/1 45/2/1
f 48/2/1 45/2/1 44/2/1
f 49/1/1 46/1/1 45/1/1
f 49/2/1 45/2/1 48/2/1
f 50/1/1 41/1/1 46/1/1
f 50/1/1 46/1/1 49/1/1
f 51/1/1 41/1/1 50/1/1
f 52/1/1 48/1/1 47/1/1
f 52/1/1 49/1/1 48/1/1
f 52/1/1 50/1/1 49/1/1
f 53/1/1 50/1/1 52/1/1
f 54/1/1 52/1/1 47/1/1
f 55/1/1 52/1/1 54/1/1
f 58/3/1 57/3/1 56/3/1
f 60/3/1 57/3/1 58/3/1
f 61/2/1 60/2/1 59/2/1
f 62/3/1 57/3/1 60/3/1
f 62/2/1 60/2/1 61/2/1
f 63/3/1 57/3/1 62/3/1
f 64/2/1 63/2/1 62/2/1
f 65/2/1 63/2/1 64/2/1
f 66/2/1 63/2/1 65/2/1
f 67/2/1 63/2/1 66/2/1
f 68/3/2 69/3/2 70/3/2
f 70/3/2 69/3/2 72/3/2
f 71/2/2 72/2/2 73/2/2
f 72/3/2 69/3/2 74/3/2
f 73/2/2 72/2/2 74/2/2
f 74/3/2 69/3/2 75/3/2
f 74/2/2 75/2/2 76/2/2
f 76/2/2 75/2/2 77/2/2
f 77/2/2 75/2/2 78/2/2
f 78/2/2 75/2/2 79/2/2
f 82/2/2 83/2/2 84/2/2
f 84/2/2 83/2/2 85/2/2
f 80/1/2 81/1/2 86/1/2
f 86/1/2 81/1/2 90/1/2
f 87/2/2 88/2/2 91/2/2
f 91/2/2 88/2/2 92/2/2
f 89/2/2 90/2/2 93/2/2
f 90/1/2 81/1/2 94/1/2
f 93/2/2 90/2/2 94/2/2
f 94/1/2 81/1/2 95/1/2
f 92/2/2 93/2/2 96/2/2
f 96/2/2 93/2/2 97/2/2
f 97/2/2 93/2/2 98/2/2
f 93/1/2 94/1/2 99/1/2
f 98/2/2 93/2/2 99/2/2
f 97/2/2 98/2/2 101/2/2
f 98/1/2 99/1/2 102/1/2
f 101/2/2 98/2/2 102/2/2
f 99/1/2 94/1/2 103/1/2
f 102/1/2 99/1/2 103/1/2
f 103/1/2 94/1/2 104/1/2
f 100/1/2 101/1/2 105/1/2
f 101/1/2 102/1/2 105/1/2
f 102/1/2 103/1/2 105/1/2
f 105/1/2 103/1/2 106/1/2
f 100/1/2 105/1/2 107/1/2
f 107/1/2 105/1/2 108/1/2
f 111/2/2 112/2/2 113/2/2
f 113/2/2 112/2/2 114/2/2
f 109/3/2 110/3/2 115/3/2
f 115/3/2 110/3/2 116/3/2
f 117/2/2 118/2/2 119/2/2
f 119/2/2 118/2/2 120/2/2
f 115/2/2 116/2/2 121/2/2
f 121/2/2 116/2/2 122/2/2
f 120/4/2 121/4/2 123/4/2
f 123/4/2 121/4/2 124/4/2
f 125/3/2 126/3/2 128/3/2
f 128/3/2 126/3/2 129/3/2
f 127/2/2 128/2/2 129/2/2
f 129/3/2 126/3/2 130/3/2
f 127/2/2 129/2/2 131/2/2
f 129/2/2 130/2/2 131/2/2
f 131/2/2 130/2/2 132/2/2
f 132/2/2 130/2/2 133/2/2
f 133/2/2 130/2/2 134/2/2
f 138/2/3 136/2/3 135/2/3
f 139/2/3 136/2/3 138/2/3
f 140/2/3 136/2/3 139/2/3
f 142/2/3 138/2/3 137/2/3
f 143/2/3 141/2/3 140/2/3
f 143/2/3 140/2/3 139/2/3
f 144/2/3 141/2/3 143/2/3
f 146/2/3 142/2/3 137/2/3
f 146/2/3 145/2/3 144/2/3
f 146/2/3 144/2/3 143/2/3
f 146/2/3 143/2/3 142/2/3
f 147/2/3 145/2/3 146/2/3
f 148/2/3 145/2/3 147/2/3
f 149/2/3 145/2/3 148/2/3
f 150/2/3 146/2/3 137/2/3
f 151/2/3 146/2/3 150/2/3
f 152/2/3 148/2/3 147/2/3
f 153/2/3 148/2/3 152/2/3
f 154/2/3 148/2/3 153/2/3
f 155/2/3 152/2/3 151/2/3
f 155/2/3 153/2/3 152/2/3
f 156/2/3 153/2/3 155/2/3
f 161/3/3 158/3/3 157/3/3
f 162/3/3 158/3/3 161/3/3
f 163/3/3 158/3/3 162/3/3
f 164/2/3 160/2/3 159/2/3
f 165/2/3 160/2/3 164/2/3
f 167/4/3 166/4/3 165/4/3
f 168/4/3 166/4/3 167/4/3
f 171/2/3 169/2/3 168/2/3
f 172/2/3 169/2/3 171/2/3
f 177/4/3 171/4/3 170/4/3
f 178/4/3 171/4/3 177/4/3
f 179/3/3 175/3/3 174/3/3
f 179/3/3 174/3/3 173/3/3
f 180/3/3 175/3/3 179/3/3
f 181/2/3 177/2/3 176/2/3
f 182/2/3 177/2/3 181/2/3
f 185/1/3 184/1/3 183/1/3
f 186/1/3 184/1/3 185/1/3
f 189/2/3 188/2/3 187/2/3
f 190/2/3 188/2/3 189/2/3
f 194/2/3 193/2/3 192/2/3
f 195/2/3 194/2/3 192/2/3
f 196/3/3 192/3/3 191/3/3
f 197/2/3 195/2/3 192/2/3
f 197/3/3 192/3/3 196/3/3
f 198/2/3 195/2/3 197/2/3
f 199/2/4 200/2/4 203/2/4
f 201/2/4 202/2/4 204/2/4
f 204/2/4 202/2/4 205/2/4
f 199/2/4 203/2/4 206/2/4
f 203/2/4 204/2/4 206/2/4
f 204/2/4 205/2/4 206/2/4
f 206/2/4 205/2/4 207/2/4
f 207/2/4 205/2/4 208/2/4
f 199/2/4 206/2/4 209/2/4
f 209/2/4 206/2/4 210/2/4
f 207/2/4 208/2/4 211/2/4
f 211/2/4 208/2/4 212/2/4
f 213/2/4 214/2/4 215/2/4
f 215/2/4 214/2/4 216/2/4
f 215/3/4 216/3/4 217/3/4
f 217/3/4 216/3/4 218/3/4
f 217/2/4 218/2/4 219/2/4
f 219/2/4 218/2/4 220/2/4
f 221/1/4 222/1/4 223/1/4
f 223/1/4 222/1/4 224/1/4
f 225/3/4 226/3/4 228/3/4
f 226/2/4 227/2/4 229/2/4
f 228/3/4 226/3/4 229/3/4
f 229/2/4 227/2/4 230/2/4
f 230/4/4 231/4/4 232/4/4
f 232/4/4 231/4/4 233/4/4
f 234/1/4 235/1/4 238/1/4
f 238/1/4 235/1/4 239/1/4
f 236/4/4 237/4/4 242/4/4
f 242/4/4 237/4/4 243/4/4
f 240/3/4 241/3/4 244/3/4
f 241/2/4 242/2/4 245/2/4
f 244/3/4 241/3/4 245/3/4
f 245/2/4 242/2/4 246/2/4
f 247/3/4 248/3/4 250/3/4
f 248/2/4 249/2/4 251/2/4
f 250/3/4 248/3/4 251/3/4
f 251/2/4 249/2/4 252/2/4
f 253/1/4 254/1/4 258/1/4
f 258/1/4 254/1/4 259/1/4
f 255/3/4 256/3/4 260/3/4
f 256/2/4 257/2/4 261/2/4
f 260/3/4 256/3/4 261/3/4
f 261/2/4 257/2/4 262/2/4
f 263/1/4 264/1/4 265/1/4
f 265/1/4 264/1/4 266/1/4
f 271/3/5 268/3/5 267/3/5
f 272/3/5 268/3/5 271/3/5
f 273/3/5 270/3/5 269/3/5
f 274/3/5 270/3/5 273/3/5
f 275/3/5 273/3/5 272/3/5
f 276/3/5 273/3/5 275/3/5
f 277/3/5 273/3/5 276/3/5
f 278/3/5 273/3/5 277/3/5
f 279/1/5 277/1/5 276/1/5
f 280/1/5 277/1/5 279/1/5
f 283/2/5 282/2/5 281/2/5
f 284/2/5 282/2/5 283/2/5
f 289/2/5 286/2/5 285/2/5
f 290/2/5 286/2/5 289/2/5
f 291/2/5 288/2/5 287/2/5
f 292/2/5 288/2/5 291/2/5
f 297/2/5 294/2/5 293/2/5
f 298/2/5 294/2/5 297/2/5
f 299/2/5 296/2/5 295/2/5
f 300/2/5 296/2/5 299/2/5
f 305/2/5 302/2/5 301/2/5
f 306/3/5 303/3/5 302/3/5
f 306/2/5 302/2/5 305/2/5
f 307/2/5 304/2/5 303/2/5
f 307/3/5 303/3/5 306/3/5
f 308/2/5 304/2/5 307/2/5
f 313/4/5 310/4/5 309/4/5
f 314/2/5 311/2/5 310/2/5
f 314/4/5 310/4/5 313/4/5
f 315/4/5 312/4/5 311/4/5
f 315/2/5 311/2/5 314/2/5
f 316/4/5 312/4/5 315/4/5
f 319/1/5 318/1/5 317/1/5
f 320/1/5 318/1/5 319/1/5
f 321/2/6 322/2/6 325/2/6
f 325/2/6 322/2/6 326/2/6
f 323/2/6 324/2/6 327/2/6
f 327/2/6 324/2/6 328/2/6
f 329/2/6 330/2/6 333/2/6
f 333/2/6 330/2/6 334/2/6
f 331/2/6 332/2/6 335/2/6
f 335/2/6 332/2/6 336/2/6
f 337/2/6 338/2/6 342/2/6
f 342/2/6 338/2/6 343/2/6
f 339/2/6 340/2/6 344/2/6
f 344/2/6 340/2/6 345/2/6
f 341/2/6 342/2/6 347/2/6
f 347/2/6 342/2/6 348/2/6
f 345/2/6 346/2/6 351/2/6
f 351/2/6 346/2/6 352/2/6
f 348/2/6 349/2/6 353/2/6
f 353/2/6 349/2/6 354/2/6
f 350/2/6 351/2/6 355/2/6
f 355/2/6 351/2/6 356/2/6
f 357/2/6 358/2/6 360/2/6
f 360/2/6 358/2/6 361/2/6
f 359/4/6 360/4/6 363/4/6
f 363/4/6 360/4/6 364/4/6
f 361/4/6 362/4/6 365/4/6
f 365/4/6 362/4/6 366/4/6
f 367/1/6 368/1/6 369/1/6
f 369/1/6 368/1/6 370/1/6
f 371/2/6 372/2/6 373/2/6
f 373/2/6 372/2/6 374/2/6
f 375/1/6 376/1/6 377/1/6
f 377/1/6 376/1/6 378/1/6
f 379/1/6 380/1/6 381/1/6
f 381/1/6 380/1/6 382/1/6
f 383/1/6 384/1/6 385/1/6
f 385/1/6 384/1/6 386/1/6
