# MagicaVoxel @ Ephtracy

# group
o arrow

# material
mtllib arrow.mtl
usemtl palette

# normals
vn -1 0 0
vn 1 0 0
vn 0 1 0
vn 0 -1 0
vn 0 0 1
vn 0 0 -1

# texcoords
vt 0.482422 0.5
vt 0.794922 0.5
vt 0.958984 0.5
vt 0.966797 0.5

# verts
v -0.1 0.2 0.7
v -0.1 0.1 0.7
v -0.1 0.2 0.6
v -0.1 0.1 0.6
v -0.1 0.2 -0.7
v -0.1 0.1 -0.7
v -0.1 0.2 -1
v -0.1 0.1 -1
v 0 0.2 0.9
v 0 0.1 0.9
v 0 0.3 0.7
v 0 0.2 0.7
v 0 0.1 0.7
v 0 0 0.7
v 0 0.3 0.6
v 0 0.2 0.6
v 0 0.1 0.6
v 0 0 0.6
v 0 0.2 0.5
v 0 0.1 0.5
v 0 0.3 -0.7
v 0 0.2 -0.7
v 0 0.1 -0.7
v 0 0 -0.7
v 0 0.3 -1
v 0 0.2 -1
v 0 0.1 -1
v 0 0 -1
v 0.1 0.2 0.9
v 0.1 0.1 0.9
v 0.1 0.3 0.7
v 0.1 0.2 0.7
v 0.1 0.1 0.7
v 0.1 0 0.7
v 0.1 0.3 0.6
v 0.1 0.2 0.6
v 0.1 0.1 0.6
v 0.1 0 0.6
v 0.1 0.2 0.5
v 0.1 0.1 0.5
v 0.1 0.3 -0.7
v 0.1 0.2 -0.7
v 0.1 0.1 -0.7
v 0.1 0 -0.7
v 0.1 0.3 -1
v 0.1 0.2 -1
v 0.1 0.1 -1
v 0.1 0 -1
v 0.2 0.2 0.7
v 0.2 0.1 0.7
v 0.2 0.2 0.6
v 0.2 0.1 0.6
v 0.2 0.2 -0.7
v 0.2 0.1 -0.7
v 0.2 0.2 -1
v 0.2 0.1 -1
v 0 0.3 0.7
v 0 0.3 0.6
v 0 0.3 -0.7
v 0 0.3 -1
v 0.1 0.3 0.7
v 0.1 0.3 0.6
v 0.1 0.3 -0.7
v 0.1 0.3 -1
v -0.1 0.2 0.7
v -0.1 0.2 0.6
v -0.1 0.2 -0.7
v -0.1 0.2 -1
v 0 0.2 0.9
v 0 0.2 0.7
v 0 0.2 0.6
v 0 0.2 0.5
v 0 0.2 -0.7
v 0 0.2 -1
v 0.1 0.2 0.9
v 0.1 0.2 0.7
v 0.1 0.2 0.6
v 0.1 0.2 0.5
v 0.1 0.2 -0.7
v 0.1 0.2 -1
v 0.2 0.2 0.7
v 0.2 0.2 0.6
v 0.2 0.2 -0.7
v 0.2 0.2 -1
v -0.1 0.1 0.7
v -0.1 0.1 0.6
v -0.1 0.1 -0.7
v -0.1 0.1 -1
v 0 0.1 0.9
v 0 0.1 0.7
v 0 0.1 0.6
v 0 0.1 0.5
v 0 0.1 -0.7
v 0 0.1 -1
v 0.1 0.1 0.9
v 0.1 0.1 0.7
v 0.1 0.1 0.6
v 0.1 0.1 0.5
v 0.1 0.1 -0.7
v 0.1 0.1 -1
v 0.2 0.1 0.7
v 0.2 0.1 0.6
v 0.2 0.1 -0.7
v 0.2 0.1 -1
v 0 0 0.7
v 0 0 0.6
v 0 0 -0.7
v 0 0 -1
v 0.1 0 0.7
v 0.1 0 0.6
v 0.1 0 -0.7
v 0.1 0 -1
v 0 0.2 0.9
v 0.1 0.2 0.9
v 0 0.1 0.9
v 0.1 0.1 0.9
v 0 0.3 0.7
v 0.1 0.3 0.7
v -0.1 0.2 0.7
v 0 0.2 0.7
v 0.1 0.2 0.7
v 0.2 0.2 0.7
v -0.1 0.1 0.7
v 0 0.1 0.7
v 0.1 0.1 0.7
v 0.2 0.1 0.7
v 0 0 0.7
v 0.1 0 0.7
v 0 0.3 -0.7
v 0.1 0.3 -0.7
v -0.1 0.2 -0.7
v 0 0.2 -0.7
v 0.1 0.2 -0.7
v 0.2 0.2 -0.7
v -0.1 0.1 -0.7
v 0 0.1 -0.7
v 0.1 0.1 -0.7
v 0.2 0.1 -0.7
v 0 0 -0.7
v 0.1 0 -0.7
v 0 0.3 0.6
v 0.1 0.3 0.6
v -0.1 0.2 0.6
v 0 0.2 0.6
v 0.1 0.2 0.6
v 0.2 0.2 0.6
v -0.1 0.1 0.6
v 0 0.1 0.6
v 0.1 0.1 0.6
v 0.2 0.1 0.6
v 0 0 0.6
v 0.1 0 0.6
v 0 0.3 -1
v 0.1 0.3 -1
v -0.1 0.2 -1
v 0 0.2 -1
v 0.1 0.2 -1
v 0.2 0.2 -1
v -0.1 0.1 -1
v 0 0.1 -1
v 0.1 0.1 -1
v 0.2 0.1 -1
v 0 0 -1
v 0.1 0 -1

# faces
f 3/4/1 2/4/1 1/4/1
f 4/4/1 2/4/1 3/4/1
f 7/1/1 6/1/1 5/1/1
f 8/1/1 6/1/1 7/1/1
f 12/4/1 10/4/1 9/4/1
f 13/4/1 10/4/1 12/4/1
f 15/4/1 12/4/1 11/4/1
f 16/4/1 12/4/1 15/4/1
f 17/4/1 14/4/1 13/4/1
f 18/4/1 14/4/1 17/4/1
f 19/3/1 17/3/1 16/3/1
f 20/3/1 17/3/1 19/3/1
f 22/2/1 20/2/1 19/2/1
f 23/2/1 20/2/1 22/2/1
f 25/1/1 22/1/1 21/1/1
f 26/1/1 22/1/1 25/1/1
f 27/1/1 24/1/1 23/1/1
f 28/1/1 24/1/1 27/1/1
f 29/4/2 30/4/2 32/4/2
f 32/4/2 30/4/2 33/4/2
f 31/4/2 32/4/2 35/4/2
f 35/4/2 32/4/2 36/4/2
f 33/4/2 34/4/2 37/4/2
f 37/4/2 34/4/2 38/4/2
f 36/3/2 37/3/2 39/3/2
f 39/3/2 37/3/2 40/3/2
f 39/2/2 40/2/2 42/2/2
f 42/2/2 40/2/2 43/2/2
f 41/1/2 42/1/2 45/1/2
f 45/1/2 42/1/2 46/1/2
f 43/1/2 44/1/2 47/1/2
f 47/1/2 44/1/2 48/1/2
f 49/4/2 50/4/2 51/4/2
f 51/4/2 50/4/2 52/4/2
f 53/1/2 54/1/2 55/1/2
f 55/1/2 54/1/2 56/1/2
f 61/4/3 58/4/3 57/4/3
f 62/4/3 58/4/3 61/4/3
f 63/1/3 60/1/3 59/1/3
f 64/1/3 60/1/3 63/1/3
f 70/4/3 66/4/3 65/4/3
f 71/4/3 66/4/3 70/4/3
f 73/1/3 68/1/3 67/1/3
f 74/1/3 68/1/3 73/1/3
f 75/4/3 70/4/3 69/4/3
f 76/4/3 70/4/3 75/4/3
f 77/3/3 72/3/3 71/3/3
f 78/2/3 73/2/3 72/2/3
f 78/3/3 72/3/3 77/3/3
f 79/2/3 73/2/3 78/2/3
f 81/4/3 77/4/3 76/4/3
f 82/4/3 77/4/3 81/4/3
f 83/1/3 80/1/3 79/1/3
f 84/1/3 80/1/3 83/1/3
f 85/4/4 86/4/4 90/4/4
f 90/4/4 86/4/4 91/4/4
f 87/1/4 88/1/4 93/1/4
f 93/1/4 88/1/4 94/1/4
f 89/4/4 90/4/4 95/4/4
f 95/4/4 90/4/4 96/4/4
f 91/3/4 92/3/4 97/3/4
f 92/2/4 93/2/4 98/2/4
f 97/3/4 92/3/4 98/3/4
f 98/2/4 93/2/4 99/2/4
f 96/4/4 97/4/4 101/4/4
f 101/4/4 97/4/4 102/4/4
f 99/1/4 100/1/4 103/1/4
f 103/1/4 100/1/4 104/1/4
f 105/4/4 106/4/4 109/4/4
f 109/4/4 106/4/4 110/4/4
f 107/1/4 108/1/4 111/1/4
f 111/1/4 108/1/4 112/1/4
f 115/4/5 114/4/5 113/4/5
f 116/4/5 114/4/5 115/4/5
f 120/4/5 118/4/5 117/4/5
f 121/4/5 118/4/5 120/4/5
f 123/4/5 120/4/5 119/4/5
f 124/4/5 120/4/5 123/4/5
f 125/4/5 122/4/5 121/4/5
f 126/4/5 122/4/5 125/4/5
f 127/4/5 125/4/5 124/4/5
f 128/4/5 125/4/5 127/4/5
f 132/1/5 130/1/5 129/1/5
f 133/1/5 130/1/5 132/1/5
f 135/1/5 132/1/5 131/1/5
f 136/1/5 132/1/5 135/1/5
f 137/1/5 134/1/5 133/1/5
f 138/1/5 134/1/5 137/1/5
f 139/1/5 137/1/5 136/1/5
f 140/1/5 137/1/5 139/1/5
f 141/4/6 142/4/6 144/4/6
f 144/4/6 142/4/6 145/4/6
f 143/4/6 144/4/6 147/4/6
f 147/4/6 144/4/6 148/4/6
f 145/4/6 146/4/6 149/4/6
f 149/4/6 146/4/6 150/4/6
f 148/4/6 149/4/6 151/4/6
f 151/4/6 149/4/6 152/4/6
f 153/1/6 154/1/6 156/1/6
f 156/1/6 154/1/6 157/1/6
f 155/1/6 156/1/6 159/1/6
f 156/2/6 157/2/6 160/2/6
f 159/1/6 156/1/6 160/1/6
f 157/1/6 158/1/6 161/1/6
f 160/2/6 157/2/6 161/2/6
f 161/1/6 158/1/6 162/1/6
f 160/1/6 161/1/6 163/1/6
f 163/1/6 161/1/6 164/1/6
